<svg width="145" height="79" viewBox="0 0 145 79" fill="none" xmlns="http://www.w3.org/2000/svg">
<path d="M85.5397 9.10003C85.5397 11.3527 83.7067 13.1858 81.454 13.1858H81.2683C79.0156 13.1858 77.1826 11.3527 77.1826 9.10003V0H75.3254V9.10003C75.3254 12.376 77.9923 15.0429 81.2683 15.0429H81.454C84.73 15.0429 87.3969 12.376 87.3969 9.10003V0H85.5397V9.10003Z" fill="white"/>
<path d="M60.5127 0H58.6556V15.1358H68.4056V13.2786H60.5127V0Z" fill="white"/>
<path d="M45.8837 13.1858C42.76 13.1858 40.2194 10.6452 40.2194 7.52149C40.2194 4.39777 42.76 1.85719 45.8837 1.85719C47.583 1.85719 49.1077 2.60933 50.1477 3.79791L51.3846 2.39948C50.0103 0.924901 48.0528 4.12241e-05 45.8837 4.12241e-05C41.7367 4.12241e-05 38.3622 3.37448 38.3622 7.52149C38.3622 11.6685 41.7367 15.0429 45.8837 15.0429C48.1717 15.0429 50.2239 14.0141 51.6037 12.3965L50.2164 11.1634C49.1764 12.4002 47.6201 13.1858 45.8837 13.1858Z" fill="white"/>
<path d="M106.594 10.4929C106.594 8.9366 105.809 7.56231 104.614 6.74145C105.374 6.03016 105.851 5.01987 105.851 3.90001C105.851 1.74943 104.102 0 101.951 0H94.8942V15.0429H102.23V15.0373C104.653 14.9408 106.594 12.9388 106.594 10.4929ZM101.951 1.85715C103.079 1.85715 103.994 2.77272 103.994 3.90001C103.994 5.0273 103.079 5.94287 101.951 5.94287H96.7513V1.85715H101.951ZM102.044 13.1858H96.7513V7.80002H102.044C103.53 7.80002 104.737 9.00717 104.737 10.4929C104.737 11.9786 103.53 13.1858 102.044 13.1858Z" fill="white"/>
<path d="M116.543 22.4677C105.821 22.4677 96.475 28.4071 91.6334 37.1452C86.7917 28.4071 77.4452 22.4677 66.7235 22.4677C54.4018 22.4677 43.8835 30.3124 39.9541 41.242C35.7018 36.1681 29.3095 32.9366 22.1663 32.9366C18.1176 32.9366 14.3074 33.9766 10.9955 35.8051L12.6164 29.447H33.4565L35.0423 22.4677H7.15722L0.961351 46.7208C0.933283 46.7766 0.912207 46.8394 0.891156 46.8952H8.83426V46.9371C11.7463 42.7007 16.63 39.9159 22.1663 39.9159C31.0637 39.9159 38.3051 47.1186 38.3051 55.9683C38.3051 64.8181 31.0637 72.0207 22.1663 72.0207C14.4618 72.0207 8.00625 66.6187 6.40641 59.4301L0 62.6405C2.88393 72.0975 11.7252 79 22.1593 79C31.2532 79 39.1331 73.7586 42.9222 66.1581C48.0025 73.8842 56.7665 79 66.7164 79C77.4382 79 86.7847 73.0606 91.6263 64.3225C96.468 73.0606 105.814 79 116.536 79C132.205 79 144.955 66.3186 144.955 50.7339C144.962 35.1491 132.212 22.4677 116.543 22.4677ZM66.7235 72.0207C54.9211 72.0207 45.322 62.473 45.322 50.7339C45.322 38.9947 54.9211 29.447 66.7235 29.447C78.5258 29.447 88.1249 38.9947 88.1249 50.7339C88.1249 62.473 78.5258 72.0207 66.7235 72.0207ZM116.543 72.0207C104.741 72.0207 95.1418 62.473 95.1418 50.7339C95.1418 38.9947 104.741 29.447 116.543 29.447C128.346 29.447 137.945 38.9947 137.945 50.7339C137.945 62.473 128.346 72.0207 116.543 72.0207Z" fill="white"/>
</svg>
