<svg width="1174" height="226" viewBox="0 0 1174 226" fill="none" xmlns="http://www.w3.org/2000/svg">
<path d="M298.976 5.31684C199.32 4.69848 99.6585 5.15324 0 5.15474C0 76.4568 0 147.759 0 219.061C1.64562 219.16 3.29125 219.346 4.93687 219.346C101.948 219.359 198.959 219.364 295.969 219.335C299.936 219.334 303.939 219.28 307.865 218.78C359.624 212.187 397.718 172.768 402.555 120.902C408.176 60.6376 359.681 5.69205 298.976 5.31684ZM348.715 113.567C348.217 141.728 324.968 165.248 296.527 165.331C217.084 165.564 137.641 165.414 58.1984 165.399C57.0838 165.399 55.9677 165.179 54.6611 165.041C54.6611 129.766 54.6611 94.7224 54.6611 59.3888L294.171 59.1547C325.499 59.1802 349.255 82.9976 348.715 113.567Z" fill="#ffffff"/>
<path d="M579.116 225.779C544.294 224.406 507.589 217.508 478.814 196.697C449.839 175.738 437.393 146.452 438.012 111.499C438.825 65.5878 461.085 32.9843 503.585 16.3261C559.599 -5.62873 616.701 -5.57019 672.427 17.2881C749.526 48.913 747.787 137.67 715.369 177.584C683.075 217.344 628.084 227.66 579.464 225.793C579.347 225.788 579.231 225.784 579.116 225.779ZM592.506 183.48C628.478 182.621 666.484 169.881 679.386 136.462C686.677 117.581 684.082 95.8169 673.056 78.9185C665.714 67.6665 654.9 58.9989 642.455 54.0025C608.407 40.3295 573.379 40.5277 538.505 51.3114C511.863 59.5497 490.464 80.0772 491.502 114.812C492.528 149.131 519.41 171.188 550.929 179.096C563.174 182.167 577.668 183.834 592.506 183.48Z" fill="#ffffff"/>
<path d="M825.442 55.3002C825.442 109.683 825.442 164.064 825.442 218.903C807.349 218.903 789.594 218.903 771.411 218.903C771.411 147.862 771.411 76.7251 771.411 5.33605C800.315 5.33605 829.066 5.33605 858.472 5.33605C896.236 60.8354 934.256 116.711 972.614 173.083C1010.99 116.675 1048.93 60.9059 1086.81 5.22949C1115.87 5.22949 1144.65 5.22949 1173.76 5.22949C1173.76 76.5345 1173.76 147.694 1173.76 219.107C1155.93 219.107 1138.28 219.107 1120.01 219.107C1120.01 164.496 1120.01 110.004 1120.01 55.5118C1119.58 55.3557 1119.14 55.1996 1118.7 55.0435C1081.09 109.69 1043.47 164.339 1005.76 219.137C983.784 219.137 961.809 219.137 939.461 219.137C901.836 164.468 864.145 109.705 826.455 54.9444C826.119 55.063 825.78 55.1816 825.442 55.3002Z" fill="#ffffff"/>
</svg>
