<svg width="213" height="590" viewBox="0 0 213 590" fill="none" xmlns="http://www.w3.org/2000/svg">
<path d="M163.06 450.44V520.56H171.54V450.44H163.06Z" fill="white" stroke="white" stroke-width="0.5"/>
<path d="M163.06 536.94V589.69H171.54V536.94H163.06Z" fill="white" stroke="white" stroke-width="0.5"/>
<path d="M163.06 404.43V431.95H171.54V404.43H163.06Z" fill="white" stroke="white" stroke-width="0.5"/>
<path d="M1.00977 542.69V559.16H9.48977V542.69H1.00977Z" fill="white" stroke="white" stroke-width="0.5"/>
<path d="M1.00977 494.97V524.28H9.48977V494.97H1.00977Z" fill="white" stroke="white" stroke-width="0.5"/>
<path d="M1.00977 450.44V476.34H9.48977V450.44H1.00977Z" fill="white" stroke="white" stroke-width="0.5"/>
<path d="M1.00977 405.24V431.14H9.48977V405.24H1.00977Z" fill="white" stroke="white" stroke-width="0.5"/>
<path d="M1.00977 360.03V385.93H9.48977V360.03H1.00977Z" fill="white" stroke="white" stroke-width="0.5"/>
<path d="M1.00977 314.83V340.73H9.48977V314.83H1.00977Z" fill="white" stroke="white" stroke-width="0.5"/>
<path d="M1.00977 269.62V295.52H9.48977V269.62H1.00977Z" fill="white" stroke="white" stroke-width="0.5"/>
<path d="M1.00977 224.42V250.32H9.48977V224.42H1.00977Z" fill="white" stroke="white" stroke-width="0.5"/>
<path d="M1.00977 90.3799V116.28H9.48977V90.3799H1.00977Z" fill="white" stroke="white" stroke-width="0.5"/>
<path d="M1.00977 45.3501V71.2501H9.48977V45.3501H1.00977Z" fill="white" stroke="white" stroke-width="0.5"/>
<path d="M1.00977 1.04004V26.94H9.48977V1.04004H1.00977Z" fill="white" stroke="white" stroke-width="0.5"/>
<path d="M1.00977 134.37V205.12H9.48977V134.37H1.00977Z" fill="white" stroke="white" stroke-width="0.5"/>
<path d="M203.51 314.69V375.25H211.99V314.69H203.51Z" fill="white" stroke="white" stroke-width="0.5"/>
<path d="M163.06 366.72V386.96H171.54V366.72H163.06Z" fill="white" stroke="white" stroke-width="0.5"/>
<path d="M163.06 305.18V341.54H171.54V305.18H163.06Z" fill="white" stroke="white" stroke-width="0.5"/>
<path d="M163.06 268.9V296.42H171.54V268.9H163.06Z" fill="white" stroke="white" stroke-width="0.5"/>
<path d="M203.51 268.9V296.42H211.99V268.9H203.51Z" fill="white" stroke="white" stroke-width="0.5"/>
<path d="M163.05 375.26H211.98V366.78H163.05V375.26Z" fill="white" stroke="white" stroke-width="0.5"/>
<path d="M36.29 517.33H134.82V508.84H36.29V517.33Z" fill="white" stroke="white" stroke-width="0.5"/>
<path d="M154.59 517.35H171.56V508.87H154.59V517.35Z" fill="white" stroke="white" stroke-width="0.5"/>
<path d="M1.01953 517.35H15.8295V508.87H1.01953V517.35Z" fill="white" stroke="white" stroke-width="0.5"/>
<path d="M163.05 154.17H211.98V145.69H163.05V154.17Z" fill="white" stroke="white" stroke-width="0.5"/>
<path d="M1.03027 5.29002H171.57V1.02002H1.03027V5.29002Z" fill="white" stroke="white" stroke-width="0.5"/>
<path d="M210.91 145.68V316.22H211.99V145.68H210.91Z" fill="white" stroke="white" stroke-width="0.5"/>
<path d="M1.00977 17.8799V589.69H2.12977V17.8799H1.00977Z" fill="white" stroke="white" stroke-width="0.5"/>
<path d="M113.01 508.84V589.69H115.12V508.84H113.01Z" fill="white" stroke="white" stroke-width="0.5"/>
<path d="M130.52 486.76V517.33H132.09V486.76H130.52Z" fill="white" stroke="white" stroke-width="0.5"/>
<path d="M116.78 486.76V517.33H118.35V486.76H116.78Z" fill="white" stroke="white" stroke-width="0.5"/>
<path d="M68.5703 499.5V517.32H70.1403V499.5H68.5703Z" fill="white" stroke="white" stroke-width="0.5"/>
<path d="M36.7002 554.63V560.91H38.2702V554.63H36.7002Z" fill="white" stroke="white" stroke-width="0.5"/>
<path d="M36.7002 540.89V547.17H38.2702V540.89H36.7002Z" fill="white" stroke="white" stroke-width="0.5"/>
<path d="M36.7002 527.2V533.48H38.2702V527.2H36.7002Z" fill="white" stroke="white" stroke-width="0.5"/>
<path d="M36.7002 513.11V519.39H38.2702V513.11H36.7002Z" fill="white" stroke="white" stroke-width="0.5"/>
<path d="M46.4102 487.88H132.11V486.31H46.4102V487.88Z" fill="white" stroke="white" stroke-width="0.5"/>
<path d="M37.1104 530.35H56.9504V528.78H37.1104V530.35Z" fill="white" stroke="white" stroke-width="0.5"/>
<path d="M37.1396 543.83H56.9796V542.26H37.1396V543.83Z" fill="white" stroke="white" stroke-width="0.5"/>
<path d="M37.0996 557.83H56.9396V556.26H37.0996V557.83Z" fill="white" stroke="white" stroke-width="0.5"/>
<path d="M1.04004 559.15H19V557.58H1.04004V559.15Z" fill="white" stroke="white" stroke-width="0.5"/>
<path d="M27.0703 559.15H38.2503V557.58H27.0703V559.15Z" fill="white" stroke="white" stroke-width="0.5"/>
<path d="M68.5703 486.35V490.53H70.1403V486.35H68.5703Z" fill="white" stroke="white" stroke-width="0.5"/>
<path d="M46.3896 486.35V490.53H47.9596V486.35H46.3896Z" fill="white" stroke="white" stroke-width="0.5"/>
<path d="M46.3896 499.5V517.32H47.9596V499.5H46.3896Z" fill="white" stroke="white" stroke-width="0.5"/>
<path d="M51.9102 456.86V478.5H52.6702V456.86H51.9102Z" fill="white" stroke="white" stroke-width="0.5"/>
<path d="M40.0195 409.77V454.17H40.7795V409.77H40.0195Z" fill="white" stroke="white" stroke-width="0.5"/>
<path d="M9.5 454.19H40.79V453.43H9.5V454.19Z" fill="white" stroke="white" stroke-width="0.5"/>
<path d="M9.53027 410.57H40.8203V409.81H9.53027V410.57Z" fill="white" stroke="white" stroke-width="0.5"/>
<path d="M40.0195 336.91V381.31H40.7795V336.91H40.0195Z" fill="white" stroke="white" stroke-width="0.5"/>
<path d="M9.54004 381.34H40.83V380.58H9.54004V381.34Z" fill="white" stroke="white" stroke-width="0.5"/>
<path d="M70.0996 353.93H112.61V353.17H70.0996V353.93Z" fill="white" stroke="white" stroke-width="0.5"/>
<path d="M70.1396 270.74V353.92H70.8997V270.74H70.1396Z" fill="white" stroke="white" stroke-width="0.5"/>
<path d="M111.84 270.74V353.52H112.6V270.74H111.84Z" fill="white" stroke="white" stroke-width="0.5"/>
<path d="M70.1201 271.53H112.63V270.77H70.1201V271.53Z" fill="white" stroke="white" stroke-width="0.5"/>
<path d="M9.51953 337.72H40.8095V336.96H9.51953V337.72Z" fill="white" stroke="white" stroke-width="0.5"/>
<path d="M53.4404 456.86V478.5H53.8404V456.86H53.4404Z" fill="white" stroke="white" stroke-width="0.5"/>
<path d="M61.1602 468.49V478.5H61.5602V468.49H61.1602Z" fill="white" stroke="white" stroke-width="0.5"/>
<path d="M92 463.77V468.89H92.4V463.77H92Z" fill="white" stroke="white" stroke-width="0.5"/>
<path d="M112.83 463.77V468.53H113.23V463.77H112.83Z" fill="white" stroke="white" stroke-width="0.5"/>
<path d="M122.48 468.35V486.35H122.88V468.35H122.48Z" fill="white" stroke="white" stroke-width="0.5"/>
<path d="M51.9102 478.53H61.5602V478.13H51.9102V478.53Z" fill="white" stroke="white" stroke-width="0.5"/>
<path d="M61.21 468.89H92.41V468.49H61.21V468.89Z" fill="white" stroke="white" stroke-width="0.5"/>
<path d="M60.3203 438.8H123.93V438.4H60.3203V438.8Z" fill="white" stroke="white" stroke-width="0.5"/>
<path d="M61.2305 439.75H122.95V439.35H61.2305V439.75Z" fill="white" stroke="white" stroke-width="0.5"/>
<path d="M61.6201 425.65H122.94V425.25H61.6201V425.65Z" fill="white" stroke="white" stroke-width="0.5"/>
<path d="M61.79 421.86H122.93V421.46H61.79V421.86Z" fill="white" stroke="white" stroke-width="0.5"/>
<path d="M61.2197 443.76H122.94V443.36H61.2197V443.76Z" fill="white" stroke="white" stroke-width="0.5"/>
<path d="M61.6104 421.49V425.67H62.0103V421.49H61.6104Z" fill="white" stroke="white" stroke-width="0.5"/>
<path d="M61.21 439.58V443.75H61.61V439.58H61.21Z" fill="white" stroke="white" stroke-width="0.5"/>
<path d="M81.1797 439.35V443.53H81.5797V439.35H81.1797Z" fill="white" stroke="white" stroke-width="0.5"/>
<path d="M81.1797 421.49V425.67H81.5797V421.49H81.1797Z" fill="white" stroke="white" stroke-width="0.5"/>
<path d="M122.57 439.35V443.75H122.97V439.35H122.57Z" fill="white" stroke="white" stroke-width="0.5"/>
<path d="M122.57 421.49V425.67H122.97V421.49H122.57Z" fill="white" stroke="white" stroke-width="0.5"/>
<path d="M123.6 426.24V438.81H124V426.24H123.6Z" fill="white" stroke="white" stroke-width="0.5"/>
<path d="M60.3096 426.24V438.81H60.7096V426.24H60.3096Z" fill="white" stroke="white" stroke-width="0.5"/>
<path d="M81.1797 426.24V438.81H81.5797V426.24H81.1797Z" fill="white" stroke="white" stroke-width="0.5"/>
<path d="M81.3604 402.45V406.62H81.7604V402.45H81.3604Z" fill="white" stroke="white" stroke-width="0.5"/>
<path d="M81.3604 384.59V388.67H81.7604V384.59H81.3604Z" fill="white" stroke="white" stroke-width="0.5"/>
<path d="M81.3604 389.34V401.91H81.7604V389.34H81.3604Z" fill="white" stroke="white" stroke-width="0.5"/>
<path d="M63.6602 323.41H70.8902V323.01H63.6602V323.41Z" fill="white" stroke="white" stroke-width="0.5"/>
<path d="M111.87 323.62H119.1V323.22H111.87V323.62Z" fill="white" stroke="white" stroke-width="0.5"/>
<path d="M5.0498 426.47V456.82H5.4498V426.47H5.0498Z" fill="white" stroke="white" stroke-width="0.5"/>
<path d="M5.0498 381.71V412.06H5.4498V381.71H5.0498Z" fill="white" stroke="white" stroke-width="0.5"/>
<path d="M4.87012 337.72V368.07H5.27012V337.72H4.87012Z" fill="white" stroke="white" stroke-width="0.5"/>
<path d="M4.87012 290.9V321.25H5.27012V290.9H4.87012Z" fill="white" stroke="white" stroke-width="0.5"/>
<path d="M5.0498 246.14V276.49H5.4498V246.14H5.0498Z" fill="white" stroke="white" stroke-width="0.5"/>
<path d="M5.26953 202.02V232.37H5.66953V202.02H5.26953Z" fill="white" stroke="white" stroke-width="0.5"/>
<path d="M5.26953 112.24V142.58H5.66953V112.24H5.26953Z" fill="white" stroke="white" stroke-width="0.5"/>
<path d="M5.0498 65.5098V95.8498H5.4498V65.5098H5.0498Z" fill="white" stroke="white" stroke-width="0.5"/>
<path d="M5.0498 21.6899V52.0399H5.4498V21.6899H5.0498Z" fill="white" stroke="white" stroke-width="0.5"/>
<path d="M4.87012 471.94V502.29H5.27012V471.94H4.87012Z" fill="white" stroke="white" stroke-width="0.5"/>
<path d="M11.29 475.71V495.46H11.69V475.71H11.29Z" fill="white" stroke="white" stroke-width="0.5"/>
<path d="M10.0195 495.42H11.6795V495.02H10.0195V495.42Z" fill="white" stroke="white" stroke-width="0.5"/>
<path d="M10.0098 476.04H11.6698V475.64H10.0098V476.04Z" fill="white" stroke="white" stroke-width="0.5"/>
<path d="M9.99023 475.71V495.46H10.3902V475.71H9.99023Z" fill="white" stroke="white" stroke-width="0.5"/>
<path d="M169.02 454.7V424.35H168.62V454.7H169.02Z" fill="white" stroke="white" stroke-width="0.5"/>
<path d="M162.61 449.84V432.33H162.21V449.84H162.61Z" fill="white" stroke="white" stroke-width="0.5"/>
<path d="M163.89 432.35H162.23V432.71H163.89V432.35Z" fill="white" stroke="white" stroke-width="0.5"/>
<path d="M163.9 449.51H162.24V449.87H163.9V449.51Z" fill="white" stroke="white" stroke-width="0.5"/>
<path d="M163.87 449.84V432.33H163.47V449.84H163.87Z" fill="white" stroke="white" stroke-width="0.5"/>
<path d="M169.02 409.29V378.94H168.62V409.29H169.02Z" fill="white" stroke="white" stroke-width="0.5"/>
<path d="M162.61 403.66V387.59H162.21V403.66H162.61Z" fill="white" stroke="white" stroke-width="0.5"/>
<path d="M163.87 387.58H162.21V387.89H163.87V387.58Z" fill="white" stroke="white" stroke-width="0.5"/>
<path d="M163.89 403.35H162.23V403.66H163.89V403.35Z" fill="white" stroke="white" stroke-width="0.5"/>
<path d="M163.87 403.66V387.59H163.47V403.66H163.87Z" fill="white" stroke="white" stroke-width="0.5"/>
<path d="M11.29 430.69V450.44H11.69V430.69H11.29Z" fill="white" stroke="white" stroke-width="0.5"/>
<path d="M9.99023 450.42H11.6502V450.02H9.99023V450.42Z" fill="white" stroke="white" stroke-width="0.5"/>
<path d="M10.0303 431.04H11.6903V430.64H10.0303V431.04Z" fill="white" stroke="white" stroke-width="0.5"/>
<path d="M9.99023 430.69V450.44H10.3902V430.69H9.99023Z" fill="white" stroke="white" stroke-width="0.5"/>
<path d="M11.29 385.71V405.46H11.69V385.71H11.29Z" fill="white" stroke="white" stroke-width="0.5"/>
<path d="M10.0098 405.42H11.6698V405.02H10.0098V405.42Z" fill="white" stroke="white" stroke-width="0.5"/>
<path d="M10 386.04H11.66V385.64H10V386.04Z" fill="white" stroke="white" stroke-width="0.5"/>
<path d="M9.99023 385.71V405.46H10.3902V385.71H9.99023Z" fill="white" stroke="white" stroke-width="0.5"/>
<path d="M11.29 340.68V360.43H11.69V340.68H11.29Z" fill="white" stroke="white" stroke-width="0.5"/>
<path d="M9.99023 360.42H11.6502V360.02H9.99023V360.42Z" fill="white" stroke="white" stroke-width="0.5"/>
<path d="M10.0303 341.04H11.6903V340.64H10.0303V341.04Z" fill="white" stroke="white" stroke-width="0.5"/>
<path d="M9.99023 340.68V360.43H10.3902V340.68H9.99023Z" fill="white" stroke="white" stroke-width="0.5"/>
<path d="M11.29 295.7V315.45H11.69V295.7H11.29Z" fill="white" stroke="white" stroke-width="0.5"/>
<path d="M10.0098 315.42H11.6698V315.02H10.0098V315.42Z" fill="white" stroke="white" stroke-width="0.5"/>
<path d="M10 296.03H11.66V295.63H10V296.03Z" fill="white" stroke="white" stroke-width="0.5"/>
<path d="M9.99023 295.7V315.45H10.3902V295.7H9.99023Z" fill="white" stroke="white" stroke-width="0.5"/>
<path d="M207.45 320.35V290H207.05V320.35H207.45Z" fill="white" stroke="white" stroke-width="0.5"/>
<path d="M201.05 315.54V295.79H200.65V315.54H201.05Z" fill="white" stroke="white" stroke-width="0.5"/>
<path d="M202.32 295.79H200.66V296.19H202.32V295.79Z" fill="white" stroke="white" stroke-width="0.5"/>
<path d="M202.35 315.17H200.69V315.57H202.35V315.17Z" fill="white" stroke="white" stroke-width="0.5"/>
<path d="M202.35 315.54V295.79H201.95V315.54H202.35Z" fill="white" stroke="white" stroke-width="0.5"/>
<path d="M207.87 274.49V244.15H207.47V274.5H207.87V274.49Z" fill="white" stroke="white" stroke-width="0.5"/>
<path d="M201.46 269.69V249.94H201.06V269.69H201.46Z" fill="white" stroke="white" stroke-width="0.5"/>
<path d="M202.74 249.96H201.08V250.37H202.74V249.96Z" fill="white" stroke="white" stroke-width="0.5"/>
<path d="M202.73 269.34H201.07V269.74H202.73V269.34Z" fill="white" stroke="white" stroke-width="0.5"/>
<path d="M202.72 269.69V249.94H202.32V269.69H202.72Z" fill="white" stroke="white" stroke-width="0.5"/>
<path d="M207.66 229.93V199.58H207.26V229.93H207.66Z" fill="white" stroke="white" stroke-width="0.5"/>
<path d="M201.26 225.12V205.37H200.86V225.12H201.26Z" fill="white" stroke="white" stroke-width="0.5"/>
<path d="M202.53 205.33H200.87V205.74H202.53V205.33Z" fill="white" stroke="white" stroke-width="0.5"/>
<path d="M202.52 224.71H200.86V225.11H202.52V224.71Z" fill="white" stroke="white" stroke-width="0.5"/>
<path d="M202.51 225.12V205.37H202.11V225.12H202.51Z" fill="white" stroke="white" stroke-width="0.5"/>
<path d="M208.03 185.75V155.4H207.63V185.75H208.03Z" fill="white" stroke="white" stroke-width="0.5"/>
<path d="M201.63 180.95V161.2H201.23V180.95H201.63Z" fill="white" stroke="white" stroke-width="0.5"/>
<path d="M202.89 161.2H201.23V161.6H202.89V161.2Z" fill="white" stroke="white" stroke-width="0.5"/>
<path d="M202.93 180.58H201.27V180.98H202.93V180.58Z" fill="white" stroke="white" stroke-width="0.5"/>
<path d="M202.93 180.95V161.2H202.53V180.95H202.93Z" fill="white" stroke="white" stroke-width="0.5"/>
<path d="M11.29 250.68V270.43H11.69V250.68H11.29Z" fill="white" stroke="white" stroke-width="0.5"/>
<path d="M9.99023 270.41H11.6502V270.01H9.99023V270.41Z" fill="white" stroke="white" stroke-width="0.5"/>
<path d="M10.0195 251.03H11.6795V250.63H10.0195V251.03Z" fill="white" stroke="white" stroke-width="0.5"/>
<path d="M9.99023 250.68V270.43H10.3902V250.68H9.99023Z" fill="white" stroke="white" stroke-width="0.5"/>
<path d="M11.29 205.7V225.45H11.69V205.7H11.29Z" fill="white" stroke="white" stroke-width="0.5"/>
<path d="M10.0098 225.41H11.6698V225.01H10.0098V225.41Z" fill="white" stroke="white" stroke-width="0.5"/>
<path d="M10 206.03H11.66V205.63H10V206.03Z" fill="white" stroke="white" stroke-width="0.5"/>
<path d="M9.99023 205.7V225.45H10.3902V205.7H9.99023Z" fill="white" stroke="white" stroke-width="0.5"/>
<path d="M11.29 115.6V135.35H11.69V115.6H11.29Z" fill="white" stroke="white" stroke-width="0.5"/>
<path d="M10 135.33H11.66V134.93H10V135.33Z" fill="white" stroke="white" stroke-width="0.5"/>
<path d="M9.99023 115.95H11.6502V115.55H9.99023V115.95Z" fill="white" stroke="white" stroke-width="0.5"/>
<path d="M9.99023 115.6V135.35H10.3902V115.6H9.99023Z" fill="white" stroke="white" stroke-width="0.5"/>
<path d="M11.0195 526.44V541.25H11.4195V526.44H11.0195Z" fill="white" stroke="white" stroke-width="0.5"/>
<path d="M9.74023 541.25H11.4002V540.98H9.74023V541.25Z" fill="white" stroke="white" stroke-width="0.5"/>
<path d="M9.76953 526.72H11.4295V526.45H9.76953V526.72Z" fill="white" stroke="white" stroke-width="0.5"/>
<path d="M9.75977 526.44V541.25H10.1598V526.44H9.75977Z" fill="white" stroke="white" stroke-width="0.5"/>
<path d="M4.69043 517.33V547.67H5.09043V517.33H4.69043Z" fill="white" stroke="white" stroke-width="0.5"/>
<path d="M168.99 515.17V545.52H169.39V515.17H168.99Z" fill="white" stroke="white" stroke-width="0.5"/>
<path d="M143.35 383.87V453.67H143.75V383.87H143.35Z" fill="white" stroke="white" stroke-width="0.5"/>
<path d="M155.88 314.06H156.28V361.42H155.88V314.06Z" fill="white" stroke="white" stroke-width="0.5"/>
<path d="M143.4 452.95L143.72 453.58L162.08 486.53L162.26 486.89L162.17 486.94H161.86L161.64 486.58L143.37 453.68V453.01L143.4 452.95Z" fill="white" stroke="white" stroke-width="0.5"/>
<path d="M156.28 360.66L143.35 383.96V384.59L143.39 384.64L143.71 384.06L156.28 361.44" fill="white"/>
<path d="M156.28 360.66L143.35 383.96V384.59L143.39 384.64L143.71 384.06L156.28 361.44" stroke="white" stroke-width="0.5"/>
<path d="M161.45 307.91H161.67L161.58 308.31L156.28 314.19L155.88 314.64V314.06L161.09 308.31L161.45 307.91Z" fill="white" stroke="white" stroke-width="0.5"/>
<path d="M161.63 486.53H171.55V486.93H161.85L161.63 486.57V486.53Z" fill="white" stroke="white" stroke-width="0.5"/>
<path d="M155.74 429.07H165.66V429.43H155.96L155.74 429.07Z" fill="white" stroke="white" stroke-width="0.5"/>
<path d="M161.04 460.41H171.23V460.81H161.4L161.09 460.54L161.05 460.45V460.41H161.04Z" fill="white" stroke="white" stroke-width="0.5"/>
<path d="M155.74 455.65L156.1 455.92L161.53 460.41L161.98 460.81H161.4L161.09 460.54L155.93 456.28L155.75 456.14V455.65H155.74Z" fill="white" stroke="white" stroke-width="0.5"/>
<path d="M155.74 429.07H156.14V455.87L156.1 455.91L155.92 456.27L155.74 456.13V429.07Z" fill="white" stroke="white" stroke-width="0.5"/>
<path d="M155.7 408.42H165.62V408.06H155.92L155.7 408.37V408.42Z" fill="white" stroke="white" stroke-width="0.5"/>
<path d="M161 377.09H171.19V376.69H161.36L161.05 376.96L161 377.05V377.09Z" fill="white" stroke="white" stroke-width="0.5"/>
<path d="M155.7 381.85L156.06 381.58L161.49 377.09L161.94 376.69H161.36L161.05 376.96L155.84 381.23L155.71 381.36V381.85H155.7Z" fill="white" stroke="white" stroke-width="0.5"/>
<path d="M155.7 408.42H156.1V381.58H156.06L155.84 381.22L155.71 381.36V408.42H155.7Z" fill="white" stroke="white" stroke-width="0.5"/>
<path d="M161.45 307.91H168.72V308.31H161.09L161.45 307.91Z" fill="white" stroke="white" stroke-width="0.5"/>
<path d="M71.1299 357.43H71.6199C71.4899 357.43 71.3499 357.47 71.1699 357.47L71.1299 357.43Z" fill="white" stroke="white" stroke-width="0.5"/>
<path d="M71.7599 357.43H111.49V357.83H71.1299V357.47H71.1699C71.3999 357.47 71.5799 357.47 71.7599 357.43Z" fill="white" stroke="white" stroke-width="0.5"/>
<path d="M66.9102 329.55V353.34H67.3102V329.55H66.9102Z" fill="white" stroke="white" stroke-width="0.5"/>
<path d="M102.86 439.4V443.57H103.26V439.4H102.86Z" fill="white" stroke="white" stroke-width="0.5"/>
<path d="M102.86 421.49V425.67H103.26V421.49H102.86Z" fill="white" stroke="white" stroke-width="0.5"/>
<path d="M102.86 426.24V438.81H103.26V426.24H102.86Z" fill="white" stroke="white" stroke-width="0.5"/>
<path d="M102.86 402.63V406.81H103.26V402.63H102.86Z" fill="white" stroke="white" stroke-width="0.5"/>
<path d="M102.86 384.54V388.71H103.26V384.54H102.86Z" fill="white" stroke="white" stroke-width="0.5"/>
<path d="M102.86 389.3V401.87H103.26V389.3H102.86Z" fill="white" stroke="white" stroke-width="0.5"/>
<path d="M60.3398 426.62H123.81V426.22H60.3398V426.62Z" fill="white" stroke="white" stroke-width="0.5"/>
<path d="M60.2002 401.88H123.81V401.48H60.2002V401.88Z" fill="white" stroke="white" stroke-width="0.5"/>
<path d="M61.0596 402.78H122.78V402.38H61.0596V402.78Z" fill="white" stroke="white" stroke-width="0.5"/>
<path d="M61.4502 388.72H122.77V388.32H61.4502V388.72Z" fill="white" stroke="white" stroke-width="0.5"/>
<path d="M61.6602 384.89H122.8V384.49H61.6602V384.89Z" fill="white" stroke="white" stroke-width="0.5"/>
<path d="M61.0498 406.79H122.77V406.39H61.0498V406.79Z" fill="white" stroke="white" stroke-width="0.5"/>
<path d="M61.4805 384.54V388.71H61.8805V384.54H61.4805Z" fill="white" stroke="white" stroke-width="0.5"/>
<path d="M61.0703 402.63V406.81H61.4703V402.63H61.0703Z" fill="white" stroke="white" stroke-width="0.5"/>
<path d="M122.39 402.41V406.81H122.79V402.41H122.39Z" fill="white" stroke="white" stroke-width="0.5"/>
<path d="M122.39 384.54V388.71H122.79V384.54H122.39Z" fill="white" stroke="white" stroke-width="0.5"/>
<path d="M123.47 389.3V401.87H123.87V389.3H123.47Z" fill="white" stroke="white" stroke-width="0.5"/>
<path d="M60.1699 389.3V401.87H60.5699V389.3H60.1699Z" fill="white" stroke="white" stroke-width="0.5"/>
<path d="M60.1699 389.65H123.65V389.25H60.1699V389.65Z" fill="white" stroke="white" stroke-width="0.5"/>
<path d="M91.9902 464.14H113.18V463.74H91.9902V464.14Z" fill="white" stroke="white" stroke-width="0.5"/>
<path d="M112.79 468.72H122.85V468.32H112.79V468.72Z" fill="white" stroke="white" stroke-width="0.5"/>
<path d="M125.35 457.58V486.35H126.92V457.58H125.35Z" fill="white" stroke="white" stroke-width="0.5"/>
<path d="M51.9697 457.63H126.94V456.87H51.9697V457.63Z" fill="white" stroke="white" stroke-width="0.5"/>
<path d="M55.4199 508.84V570.11H56.9899V508.84H55.4199Z" fill="white" stroke="white" stroke-width="0.5"/>
<path d="M170.92 380.23V461.08H171.55V380.23H170.92Z" fill="white" stroke="white" stroke-width="0.5"/>
<path d="M1 589.7H171.54V585.43H1V589.7Z" fill="white" stroke="white" stroke-width="0.5"/>
<path d="M163.05 338.72H211.98V334.46H163.05V338.72Z" fill="white" stroke="white" stroke-width="0.5"/>
<path d="M163.06 293.37H211.99V291.08H163.06V293.37Z" fill="white" stroke="white" stroke-width="0.5"/>
<path d="M163.07 230.91H212V228.62H163.07V230.91Z" fill="white" stroke="white" stroke-width="0.5"/>
<path d="M203.51 223.83V251.35H211.99V223.83H203.51Z" fill="white" stroke="white" stroke-width="0.5"/>
<path d="M203.51 179.12V206.64H211.99V179.12H203.51Z" fill="white" stroke="white" stroke-width="0.5"/>
<path d="M203.51 145.68V161.39H211.99V145.68H203.51Z" fill="white" stroke="white" stroke-width="0.5"/>
<path d="M163.06 220.02V259.34H171.54V220.02H163.06Z" fill="white" stroke="white" stroke-width="0.5"/>
<path d="M163.06 1V210.46H171.54V1H163.06Z" fill="white" stroke="white" stroke-width="0.5"/>
<path d="M66.9102 353.34C66.9102 353.39 66.9102 353.48 66.9102 353.56C66.9102 355.9 68.8001 357.83 71.1301 357.83H71.1702C71.8002 357.83 72.4302 357.69 72.9702 357.43H71.6202C71.4902 357.43 71.3502 357.47 71.1702 357.47H71.1301C68.9801 357.43 67.2701 355.72 67.2701 353.56C67.2701 353.47 67.2701 353.43 67.2701 353.34C67.2701 353.3 67.2701 353.3 67.2701 353.25V351.81C67.0901 352.27 66.9502 352.8 66.9102 353.34Z" fill="white" stroke="white" stroke-width="0.5"/>
<path d="M115.84 329.55V353.34H116.24V329.55H115.84Z" fill="white" stroke="white" stroke-width="0.5"/>
<path d="M115.84 351.82V353.26C115.84 353.31 115.84 353.31 115.84 353.35C115.84 353.4 115.84 353.49 115.84 353.57C115.84 355.72 114.13 357.43 111.98 357.48H111.94C111.81 357.48 111.67 357.48 111.49 357.44H110.14C110.68 357.71 111.26 357.84 111.93 357.84H111.97C114.3 357.79 116.19 355.91 116.19 353.57C116.19 353.48 116.19 353.44 116.19 353.35C116.15 352.8 116.06 352.27 115.84 351.82Z" fill="white" stroke="white" stroke-width="0.5"/>
<path d="M69.0598 360.35H113.86V360.89H68.3398V360.4H68.4298C68.6598 360.39 68.8398 360.35 69.0598 360.35Z" fill="white" stroke="white" stroke-width="0.5"/>
<path d="M63.5898 323.22V354.91H64.0398V323.22H63.5898Z" fill="white" stroke="white" stroke-width="0.5"/>
<path d="M63.5898 354.91C63.5898 355 63.5898 355.09 63.5898 355.18C63.5898 358.28 65.6998 360.84 68.3498 360.88H68.3898C69.1098 360.88 69.7798 360.7 70.4098 360.34H68.8798C68.6998 360.34 68.5698 360.38 68.3898 360.38H68.3498C65.9298 360.34 63.9998 358.05 63.9998 355.17C63.9998 355.08 63.9998 354.99 63.9998 354.9C63.9998 354.85 63.9998 354.81 63.9998 354.76V352.83C63.7698 353.48 63.6298 354.15 63.5898 354.91Z" fill="white" stroke="white" stroke-width="0.5"/>
<path d="M118.71 323.22V354.91H119.16V323.22H118.71Z" fill="white" stroke="white" stroke-width="0.5"/>
<path d="M118.71 352.85V354.78C118.71 354.83 118.71 354.87 118.71 354.92C118.71 355.01 118.71 355.1 118.71 355.19C118.71 358.02 116.78 360.35 114.36 360.4H114.31C114.13 360.4 114 360.4 113.82 360.36H112.34C112.97 360.67 113.64 360.9 114.36 360.9H114.4C117 360.85 119.16 358.34 119.16 355.2C119.16 355.11 119.16 355.02 119.16 354.93C119.11 354.15 118.98 353.48 118.71 352.85Z" fill="white" stroke="white" stroke-width="0.5"/>
<path d="M98.3301 331.62C98.3301 333.69 99.3201 335.3 100.62 335.3C101.16 335.3 101.61 335.03 102.01 334.54C102.1 334.45 102.19 334.31 102.28 334.18C102.15 334.05 102.06 333.91 101.97 333.78C101.88 333.91 101.79 334.05 101.7 334.18C101.39 334.58 101.03 334.81 100.62 334.81C99.6301 334.81 98.7801 333.33 98.7801 331.58C98.7801 329.83 99.6301 328.35 100.62 328.35C101.02 328.35 101.38 328.57 101.7 328.98C101.79 329.11 101.88 329.25 101.97 329.38C102.06 329.25 102.15 329.07 102.28 328.98C102.19 328.85 102.1 328.71 102.01 328.62C101.61 328.17 101.16 327.86 100.62 327.86C99.3601 327.89 98.3301 329.51 98.3301 331.62Z" fill="white" stroke="white" stroke-width="0.5"/>
<path d="M102.01 328.65C101.92 328.74 101.79 328.87 101.7 329.01C101.79 329.15 101.88 329.28 101.97 329.41C102.06 329.28 102.15 329.1 102.28 329.01C102.5 328.74 102.82 328.61 103.13 328.61C104.03 328.61 104.84 330 104.84 331.62C104.84 333.24 104.08 334.63 103.13 334.63C102.82 334.63 102.55 334.5 102.28 334.23C102.15 334.1 102.06 333.96 101.97 333.83C101.88 333.97 101.79 334.1 101.7 334.23C101.79 334.37 101.92 334.5 102.01 334.59C102.32 334.91 102.68 335.08 103.09 335.08C104.26 335.08 105.2 333.6 105.2 331.67C105.2 329.74 104.26 328.26 103.09 328.26C102.73 328.16 102.33 328.34 102.01 328.65Z" fill="white" stroke="white" stroke-width="0.5"/>
<path d="M98.29 323.22C98.29 325.29 99.28 326.9 100.58 326.9C101.12 326.9 101.57 326.63 101.97 326.14C102.06 326.05 102.15 325.92 102.24 325.78C102.11 325.64 102.02 325.51 101.93 325.38C101.84 325.51 101.75 325.65 101.66 325.78C101.35 326.18 100.99 326.41 100.58 326.41C99.59 326.41 98.74 324.93 98.74 323.18C98.74 321.43 99.59 319.95 100.58 319.95C100.98 319.95 101.34 320.18 101.66 320.58C101.75 320.72 101.84 320.85 101.93 320.98C102.02 320.85 102.11 320.67 102.24 320.58C102.15 320.44 102.06 320.31 101.97 320.22C101.57 319.77 101.12 319.46 100.58 319.46C99.27 319.54 98.29 321.16 98.29 323.22Z" fill="white" stroke="white" stroke-width="0.5"/>
<path d="M101.97 320.26C101.88 320.35 101.74 320.49 101.65 320.62C101.74 320.75 101.83 320.89 101.92 321.02C102.01 320.88 102.1 320.7 102.23 320.62C102.45 320.35 102.77 320.22 103.08 320.22C103.98 320.22 104.79 321.61 104.79 323.23C104.79 324.85 104.03 326.24 103.08 326.24C102.77 326.24 102.5 326.1 102.23 325.84C102.09 325.7 102.01 325.57 101.92 325.44C101.83 325.57 101.74 325.71 101.65 325.84C101.74 325.97 101.87 326.11 101.97 326.2C102.28 326.51 102.64 326.69 103.05 326.69C104.22 326.69 105.16 325.21 105.16 323.28C105.16 321.35 104.22 319.87 103.05 319.87C102.64 319.81 102.28 319.94 101.97 320.26Z" fill="white" stroke="white" stroke-width="0.5"/>
<path d="M98.2002 314.83C98.2002 316.9 99.1902 318.51 100.49 318.51C101.03 318.51 101.48 318.24 101.88 317.75C101.97 317.66 102.06 317.52 102.15 317.39C102.01 317.26 101.92 317.12 101.83 316.99C101.74 317.12 101.65 317.26 101.56 317.39C101.25 317.79 100.89 318.02 100.48 318.02C99.4902 318.02 98.6402 316.54 98.6402 314.79C98.6402 313.04 99.4902 311.56 100.48 311.56C100.88 311.56 101.24 311.78 101.56 312.19C101.65 312.32 101.74 312.46 101.83 312.59C101.92 312.46 102.01 312.28 102.15 312.19C102.06 312.06 101.97 311.92 101.88 311.83C101.48 311.38 101.03 311.07 100.49 311.07C99.1802 311.15 98.2002 312.76 98.2002 314.83Z" fill="white" stroke="white" stroke-width="0.5"/>
<path d="M101.88 311.86C101.79 311.95 101.66 312.08 101.56 312.22C101.65 312.36 101.74 312.49 101.83 312.62C101.92 312.48 102.01 312.31 102.14 312.22C102.36 311.95 102.68 311.82 102.99 311.82C103.89 311.82 104.7 313.21 104.7 314.83C104.7 316.45 103.94 317.84 102.99 317.84C102.68 317.84 102.41 317.71 102.14 317.44C102 317.31 101.92 317.17 101.83 317.04C101.74 317.18 101.65 317.31 101.56 317.44C101.65 317.58 101.79 317.71 101.88 317.8C102.19 318.12 102.55 318.29 102.96 318.29C104.13 318.29 105.07 316.81 105.07 314.88C105.07 312.95 104.13 311.47 102.96 311.47C102.55 311.41 102.19 311.59 101.88 311.86Z" fill="white" stroke="white" stroke-width="0.5"/>
<path d="M98.1104 306.43C98.1104 308.49 99.1004 310.11 100.4 310.11C100.94 310.11 101.39 309.84 101.79 309.35C101.88 309.26 101.97 309.12 102.06 308.99C101.92 308.85 101.84 308.72 101.75 308.59C101.66 308.72 101.57 308.86 101.48 308.99C101.17 309.39 100.81 309.62 100.4 309.62C99.4104 309.62 98.5603 308.14 98.5603 306.39C98.5603 304.64 99.4104 303.16 100.4 303.16C100.8 303.16 101.16 303.38 101.48 303.79C101.57 303.93 101.66 304.06 101.75 304.19C101.84 304.06 101.93 303.88 102.06 303.79C101.97 303.66 101.88 303.52 101.79 303.43C101.39 302.98 100.94 302.67 100.4 302.67C99.1404 302.75 98.1104 304.37 98.1104 306.43Z" fill="white" stroke="white" stroke-width="0.5"/>
<path d="M101.79 303.51C101.7 303.6 101.56 303.73 101.48 303.87C101.57 304.01 101.66 304.14 101.75 304.27C101.84 304.13 101.93 303.96 102.06 303.87C102.28 303.6 102.6 303.47 102.91 303.47C103.81 303.47 104.62 304.86 104.62 306.48C104.62 308.1 103.86 309.49 102.91 309.49C102.6 309.49 102.33 309.36 102.06 309.09C101.93 308.96 101.84 308.82 101.75 308.69C101.66 308.83 101.57 308.96 101.48 309.09C101.57 309.23 101.7 309.36 101.79 309.45C102.1 309.77 102.46 309.94 102.87 309.94C104.04 309.94 104.98 308.46 104.98 306.53C104.98 304.6 104.04 303.12 102.87 303.12C102.46 303.02 102.1 303.2 101.79 303.51Z" fill="white" stroke="white" stroke-width="0.5"/>
<path d="M98.0195 298.08C98.0195 300.15 99.0095 301.76 100.31 301.76C100.85 301.76 101.3 301.49 101.7 301C101.79 300.91 101.88 300.78 101.97 300.64C101.83 300.5 101.75 300.37 101.66 300.24C101.57 300.37 101.48 300.51 101.39 300.64C101.08 301.04 100.72 301.27 100.31 301.27C99.3195 301.27 98.4695 299.79 98.4695 298.04C98.4695 296.29 99.3195 294.81 100.31 294.81C100.71 294.81 101.07 295.04 101.39 295.44C101.48 295.57 101.57 295.71 101.66 295.84C101.75 295.71 101.84 295.52 101.97 295.44C101.88 295.3 101.79 295.17 101.7 295.08C101.3 294.63 100.85 294.32 100.31 294.32C99.0495 294.36 98.0195 296.02 98.0195 298.08Z" fill="white" stroke="white" stroke-width="0.5"/>
<path d="M101.7 295.12C101.61 295.21 101.48 295.35 101.39 295.48C101.48 295.62 101.57 295.75 101.66 295.88C101.75 295.75 101.84 295.57 101.97 295.48C102.19 295.21 102.51 295.08 102.82 295.08C103.72 295.08 104.53 296.47 104.53 298.09C104.53 299.71 103.77 301.1 102.82 301.1C102.51 301.1 102.24 300.96 101.97 300.7C101.84 300.56 101.75 300.43 101.66 300.3C101.57 300.43 101.48 300.57 101.39 300.7C101.48 300.83 101.61 300.97 101.7 301.06C102.01 301.37 102.37 301.55 102.78 301.55C103.95 301.55 104.89 300.07 104.89 298.14C104.89 296.21 103.95 294.73 102.78 294.73C102.42 294.63 102.01 294.81 101.7 295.12Z" fill="white" stroke="white" stroke-width="0.5"/>
<path d="M77.2305 331.8C77.2305 333.87 78.2205 335.48 79.5205 335.48C80.0605 335.48 80.5105 335.21 80.9105 334.72C81.0005 334.63 81.0905 334.5 81.1805 334.36C81.0505 334.23 80.9605 334.09 80.8705 333.96C80.7805 334.09 80.6905 334.23 80.6005 334.36C80.2905 334.76 79.9305 334.99 79.5205 334.99C78.5305 334.99 77.6805 333.51 77.6805 331.76C77.6805 330.01 78.5305 328.53 79.5205 328.53C79.9205 328.53 80.2805 328.75 80.6005 329.16C80.6905 329.3 80.7805 329.43 80.8705 329.56C80.9605 329.42 81.0505 329.25 81.1805 329.16C81.0905 329.02 81.0005 328.89 80.9105 328.8C80.5105 328.35 80.0605 328.04 79.5205 328.04C78.2205 328.07 77.2305 329.69 77.2305 331.8Z" fill="white" stroke="white" stroke-width="0.5"/>
<path d="M80.9096 328.83C80.8196 328.92 80.6896 329.05 80.5996 329.19C80.6896 329.32 80.7796 329.46 80.8696 329.59C80.9596 329.45 81.0496 329.28 81.1796 329.19C81.3996 328.92 81.7196 328.79 82.0296 328.79C82.9296 328.79 83.7396 330.18 83.7396 331.8C83.7396 333.42 82.9796 334.81 82.0296 334.81C81.7196 334.81 81.4496 334.67 81.1796 334.41C81.0496 334.28 80.9596 334.14 80.8696 334.01C80.7796 334.15 80.6896 334.28 80.5996 334.41C80.6896 334.55 80.8196 334.68 80.9096 334.77C81.2196 335.08 81.5796 335.26 81.9896 335.26C83.1596 335.26 84.0996 333.78 84.0996 331.85C84.0996 329.92 83.1596 328.44 81.9896 328.44C81.5896 328.34 81.2296 328.52 80.9096 328.83Z" fill="white" stroke="white" stroke-width="0.5"/>
<path d="M77.1396 323.4C77.1396 325.47 78.1296 327.08 79.4296 327.08C79.9696 327.08 80.4196 326.81 80.8196 326.32C80.9096 326.23 80.9996 326.09 81.0896 325.96C80.9596 325.83 80.8696 325.69 80.7796 325.56C80.6896 325.69 80.5997 325.83 80.5097 325.96C80.1997 326.36 79.8396 326.59 79.4296 326.59C78.4396 326.59 77.5896 325.11 77.5896 323.36C77.5896 321.61 78.4396 320.13 79.4296 320.13C79.8296 320.13 80.1897 320.36 80.5097 320.76C80.5997 320.89 80.6896 321.03 80.7796 321.16C80.8696 321.02 80.9596 320.84 81.0896 320.76C80.9996 320.63 80.9096 320.49 80.8196 320.4C80.4196 319.95 79.9696 319.64 79.4296 319.64C78.1296 319.72 77.1396 321.34 77.1396 323.4Z" fill="white" stroke="white" stroke-width="0.5"/>
<path d="M80.8198 320.44C80.7298 320.53 80.5998 320.67 80.5098 320.8C80.5998 320.94 80.6898 321.07 80.7798 321.2C80.8698 321.07 80.9598 320.89 81.0898 320.8C81.3098 320.53 81.6298 320.4 81.9398 320.4C82.8398 320.4 83.6498 321.79 83.6498 323.41C83.6498 325.03 82.8898 326.42 81.9398 326.42C81.6298 326.42 81.3598 326.28 81.0898 326.02C80.9598 325.89 80.8698 325.75 80.7798 325.62C80.6898 325.75 80.5998 325.89 80.5098 326.02C80.5998 326.16 80.7298 326.29 80.8198 326.38C81.1298 326.69 81.4898 326.87 81.8998 326.87C83.0698 326.87 84.0098 325.39 84.0098 323.46C84.0098 321.53 83.0698 320.05 81.8998 320.05C81.4998 319.99 81.1398 320.12 80.8198 320.44Z" fill="white" stroke="white" stroke-width="0.5"/>
<path d="M77.0498 315.01C77.0498 317.07 78.0398 318.69 79.3398 318.69C79.8798 318.69 80.3298 318.42 80.7298 317.93C80.8198 317.84 80.9098 317.71 80.9998 317.57C80.8698 317.44 80.7798 317.3 80.6898 317.17C80.5998 317.3 80.5098 317.44 80.4198 317.57C80.1098 317.97 79.7498 318.2 79.3398 318.2C78.3498 318.2 77.4998 316.72 77.4998 314.97C77.4998 313.22 78.3498 311.74 79.3398 311.74C79.7398 311.74 80.0998 311.96 80.4198 312.37C80.5098 312.51 80.5998 312.64 80.6898 312.77C80.7798 312.64 80.8698 312.46 80.9998 312.37C80.9098 312.23 80.8198 312.1 80.7298 312.01C80.3298 311.56 79.8798 311.25 79.3398 311.25C78.0798 311.33 77.0498 312.94 77.0498 315.01Z" fill="white" stroke="white" stroke-width="0.5"/>
<path d="M80.7299 312.04C80.6399 312.13 80.5099 312.26 80.4199 312.4C80.5099 312.53 80.5999 312.67 80.6899 312.8C80.7799 312.66 80.8699 312.49 80.9999 312.4C81.2199 312.13 81.5399 312 81.8499 312C82.7499 312 83.5599 313.39 83.5599 315.01C83.5599 316.63 82.7999 318.02 81.8499 318.02C81.5399 318.02 81.2699 317.88 80.9999 317.62C80.8699 317.49 80.7799 317.35 80.6899 317.22C80.5999 317.36 80.5099 317.49 80.4199 317.62C80.5099 317.76 80.6399 317.89 80.7299 317.98C81.0399 318.29 81.3999 318.47 81.8099 318.47C82.9799 318.47 83.9199 316.99 83.9199 315.06C83.9199 313.13 82.9799 311.65 81.8099 311.65C81.4099 311.59 81.0499 311.77 80.7299 312.04Z" fill="white" stroke="white" stroke-width="0.5"/>
<path d="M77.0098 306.61C77.0098 308.68 77.9998 310.29 79.2998 310.29C79.8398 310.29 80.2898 310.02 80.6898 309.53C80.7798 309.44 80.8698 309.3 80.9598 309.17C80.8298 309.04 80.7398 308.9 80.6498 308.77C80.5598 308.9 80.4698 309.04 80.3798 309.17C80.0698 309.57 79.7098 309.8 79.2998 309.8C78.3098 309.8 77.4598 308.32 77.4598 306.57C77.4598 304.82 78.3098 303.34 79.2998 303.34C79.6998 303.34 80.0598 303.56 80.3798 303.97C80.4698 304.1 80.5598 304.24 80.6498 304.37C80.7398 304.24 80.8298 304.06 80.9598 303.97C80.8698 303.84 80.7798 303.7 80.6898 303.61C80.2898 303.16 79.8398 302.85 79.2998 302.85C77.9898 302.93 77.0098 304.55 77.0098 306.61Z" fill="white" stroke="white" stroke-width="0.5"/>
<path d="M80.6401 303.69C80.5501 303.78 80.4201 303.91 80.3301 304.05C80.4201 304.18 80.5101 304.32 80.6001 304.45C80.6901 304.31 80.7801 304.14 80.9101 304.05C81.1301 303.78 81.4501 303.65 81.7601 303.65C82.6601 303.65 83.4701 305.04 83.4701 306.66C83.4701 308.28 82.7101 309.67 81.7601 309.67C81.4501 309.67 81.1801 309.54 80.9101 309.27C80.7801 309.14 80.6901 309 80.6001 308.87C80.5101 309.01 80.4201 309.14 80.3301 309.27C80.4201 309.4 80.5501 309.54 80.6401 309.63C80.9501 309.95 81.3101 310.12 81.7201 310.12C82.8901 310.12 83.8301 308.64 83.8301 306.71C83.8301 304.78 82.8901 303.3 81.7201 303.3C81.3601 303.2 80.9601 303.38 80.6401 303.69Z" fill="white" stroke="white" stroke-width="0.5"/>
<path d="M76.9199 298.26C76.9199 300.33 77.9099 301.94 79.2099 301.94C79.7499 301.94 80.1999 301.67 80.5999 301.18C80.6899 301.09 80.7799 300.96 80.8699 300.82C80.7399 300.68 80.6499 300.55 80.5599 300.42C80.4699 300.56 80.3799 300.69 80.2899 300.82C79.9799 301.22 79.6199 301.45 79.2099 301.45C78.2199 301.45 77.3699 299.97 77.3699 298.22C77.3699 296.47 78.2199 294.99 79.2099 294.99C79.6099 294.99 79.9699 295.22 80.2899 295.62C80.3799 295.75 80.4699 295.89 80.5599 296.02C80.6499 295.88 80.7399 295.71 80.8699 295.62C80.7799 295.48 80.6899 295.35 80.5999 295.26C80.1999 294.81 79.7499 294.5 79.2099 294.5C77.9099 294.54 76.9199 296.2 76.9199 298.26Z" fill="white" stroke="white" stroke-width="0.5"/>
<path d="M80.6 295.3C80.51 295.39 80.38 295.52 80.29 295.66C80.38 295.79 80.47 295.93 80.56 296.06C80.65 295.93 80.74 295.74 80.87 295.66C81.09 295.39 81.41 295.26 81.72 295.26C82.62 295.26 83.43 296.65 83.43 298.27C83.43 299.89 82.67 301.28 81.72 301.28C81.41 301.28 81.14 301.15 80.87 300.88C80.74 300.74 80.65 300.61 80.56 300.48C80.47 300.61 80.38 300.75 80.29 300.88C80.38 301.01 80.51 301.15 80.6 301.24C80.91 301.55 81.27 301.73 81.68 301.73C82.85 301.73 83.79 300.25 83.79 298.32C83.79 296.39 82.85 294.91 81.68 294.91C81.27 294.81 80.91 294.98 80.6 295.3Z" fill="white" stroke="white" stroke-width="0.5"/>
<path d="M81.32 204.22V223.88H54.79V204.22H81.32ZM81 223.61V204.53H55.1V223.56H81V223.61Z" fill="white" stroke="white" stroke-width="0.5"/>
<path d="M116.42 204.22V223.88H89.8896V204.22H116.42ZM116.11 223.61V204.53H90.2096V223.56H116.11V223.61Z" fill="white" stroke="white" stroke-width="0.5"/>
<path d="M70.27 248.75V261.81H57.21V248.75H70.27ZM69.96 261.5V249.11H57.57V261.5H69.96Z" fill="white" stroke="white" stroke-width="0.5"/>
<path d="M101.56 243.36V253.01H81.9502V243.36H101.56ZM101.25 252.7V243.68H82.2602V252.7H101.25Z" fill="white" stroke="white" stroke-width="0.5"/>
<path d="M100.17 252.79V262.44H82.8896V252.79H100.17ZM99.8596 262.13V253.11H83.1996V262.13H99.8596Z" fill="white" stroke="white" stroke-width="0.5"/>
<path d="M130.29 272.18V299.25H118.44V272.18H130.29ZM129.71 298.67V272.77H119.03V298.67H129.71Z" fill="white" stroke="white" stroke-width="0.5"/>
<path d="M128.95 324.61V348.4H118.85V324.61H128.95ZM128.36 347.82V325.24H119.47V347.82H128.36Z" fill="white" stroke="white" stroke-width="0.5"/>
<path d="M127.37 344.95V348.14H119.15V344.95H127.37ZM127.06 347.82V345.26H119.47V347.82H127.06Z" fill="white" stroke="white" stroke-width="0.5"/>
<path d="M127.02 324.75V327.98H118.81V324.79H127.02V324.75ZM126.7 327.66V325.1H119.11V327.66H126.7Z" fill="white" stroke="white" stroke-width="0.5"/>
<path d="M122.71 327.66V345.26H119.21V327.66H122.71ZM122.39 344.95V327.98H119.47V344.95H122.39Z" fill="white" stroke="white" stroke-width="0.5"/>
<path d="M193.45 192.1V214.05H184.56V192.1H193.45ZM193.14 213.78V192.41H184.88V213.78H193.14Z" fill="white" stroke="white" stroke-width="0.5"/>
<path d="M184.21 207.45V213.33H179V207.45H184.21ZM183.89 213.02V207.72H179.27V213.02H183.89Z" fill="white" stroke="white" stroke-width="0.5"/>
<path d="M184.21 200.13V206.01H179V200.13H184.21ZM183.89 205.74V200.44H179.27V205.74H183.89Z" fill="white" stroke="white" stroke-width="0.5"/>
<path d="M184.21 192.86V198.74H179V192.86H184.21ZM183.89 198.43V193.13H179.27V198.43H183.89Z" fill="white" stroke="white" stroke-width="0.5"/>
<path d="M199.02 207.45V213.33H193.81V207.45H199.02ZM198.75 213.02V207.72H194.13V213.02H198.75Z" fill="white" stroke="white" stroke-width="0.5"/>
<path d="M199.02 200.13V206.01H193.81V200.13H199.02ZM198.75 205.74V200.44H194.13V205.74H198.75Z" fill="white" stroke="white" stroke-width="0.5"/>
<path d="M199.02 192.86V198.74H193.81V192.86H199.02ZM198.75 198.43V193.13H194.13V198.43H198.75Z" fill="white" stroke="white" stroke-width="0.5"/>
<path d="M191.61 185.63V191.51H186.4V185.63H191.61ZM191.3 191.2V185.9H186.68V191.2H191.3Z" fill="white" stroke="white" stroke-width="0.5"/>
<path d="M199.15 167.23V176.34H179.85V167.23H199.15ZM198.44 175.62V167.94H180.57V175.62H198.44Z" fill="white" stroke="white" stroke-width="0.5"/>
<path d="M191.61 214.59V220.47H186.4V214.59H191.61ZM191.3 220.15V214.85H186.68V220.15H191.3Z" fill="white" stroke="white" stroke-width="0.5"/>
<path d="M43.7404 310.79V325.11H13.9404V310.79H43.7404ZM43.4304 324.75V311.06H14.2504V324.75H43.4304Z" fill="white" stroke="white" stroke-width="0.5"/>
<path d="M43.7404 279.54V293.86H13.9404V279.54H43.7404ZM43.4304 293.5V279.81H14.2504V293.5H43.4304Z" fill="white" stroke="white" stroke-width="0.5"/>
<path d="M43.7404 248.25V262.57H13.9404V248.25H43.7404ZM43.4304 262.26V248.57H14.2504V262.26H43.4304Z" fill="white" stroke="white" stroke-width="0.5"/>
<path d="M43.7404 208.39V222.71H13.9404V208.39H43.7404ZM43.4304 222.4V208.71H14.2504V222.4H43.4304Z" fill="white" stroke="white" stroke-width="0.5"/>
<path d="M22.3802 440.29L18.9702 447.92L12.2402 444.91L15.6502 437.28L22.3802 440.29ZM18.7802 447.52L21.9202 440.47L15.7302 437.73L12.5902 444.78L18.7802 447.52Z" fill="white" stroke="white" stroke-width="0.5"/>
<path d="M35.0804 419.73L31.6704 427.36L24.9404 424.35L28.3504 416.72L35.0804 419.73ZM31.5304 426.92L34.6704 419.87L28.4804 417.13L25.3404 424.18L31.5304 426.92Z" fill="white" stroke="white" stroke-width="0.5"/>
<path d="M35.4803 443.12L29.5103 447.47L24.5703 440.69L30.5403 436.33L35.4803 443.12ZM29.5603 447.03L35.0403 443.03L30.5103 436.79L25.0303 440.78L29.5603 447.03Z" fill="white" stroke="white" stroke-width="0.5"/>
<path d="M22.1502 423.95L16.1802 428.3L11.2402 421.52L17.2102 417.16L22.1502 423.95ZM16.2302 427.86L21.7102 423.87L17.1802 417.68L11.7002 421.67L16.2302 427.86Z" fill="white" stroke="white" stroke-width="0.5"/>
<path d="M22.91 350.69L16.94 355.05L12 348.27L17.97 343.92L22.91 350.69ZM16.99 354.6L22.47 350.61L17.94 344.37L12.46 348.36L16.99 354.6Z" fill="white" stroke="white" stroke-width="0.5"/>
<path d="M35.1297 369.28L29.1597 373.63L24.2197 366.85L30.1897 362.5L35.1297 369.28ZM29.1997 373.18L34.6797 369.19L30.1497 362.95L24.6697 366.95L29.1997 373.18Z" fill="white" stroke="white" stroke-width="0.5"/>
<path d="M35.1203 347.73L30.9503 354.96L24.5303 351.28L28.7003 344.05L35.1203 347.73ZM30.8603 354.51L34.7203 347.82L28.8803 344.45L25.0203 351.14L30.8603 354.51Z" fill="white" stroke="white" stroke-width="0.5"/>
<path d="M22.4203 325.6V331.12H17.5303V325.6H22.4203ZM22.2003 330.9V325.78H17.7103V330.9H22.2003Z" fill="white" stroke="white" stroke-width="0.5"/>
<path d="M33.4203 325.6V331.12H28.5303V325.6H33.4203ZM33.2403 330.9V325.78H28.7503V330.9H33.2403Z" fill="white" stroke="white" stroke-width="0.5"/>
<path d="M33.4203 304.68V310.2H28.5303V304.68H33.4203ZM33.2403 310.02V304.9H28.7503V310.02H33.2403Z" fill="white" stroke="white" stroke-width="0.5"/>
<path d="M22.6 304.68V310.2H17.71V304.68H22.6ZM22.38 310.02V304.9H17.89V310.02H22.38Z" fill="white" stroke="white" stroke-width="0.5"/>
<path d="M29.9603 294.18V299.7H25.0703V294.18H29.9603ZM29.7403 299.47V294.35H25.2503V299.47H29.7403Z" fill="white" stroke="white" stroke-width="0.5"/>
<path d="M36.9701 294.18V299.7H32.0801V294.18H36.9701ZM36.7901 299.47V294.35H32.3001V299.47H36.7901Z" fill="white" stroke="white" stroke-width="0.5"/>
<path d="M36.8304 263.29V268.81H31.9404V263.29H36.8304ZM36.6104 268.59V263.47H32.1204V268.59H36.6104Z" fill="white" stroke="white" stroke-width="0.5"/>
<path d="M22.1996 294.18V299.7H17.3096V294.18H22.1996ZM21.9696 299.47V294.35H17.4796V299.47H21.9696Z" fill="white" stroke="white" stroke-width="0.5"/>
<path d="M29.7796 263.29V268.81H24.8896V263.29H29.7796ZM29.5596 268.59V263.47H25.0696V268.59H29.5596Z" fill="white" stroke="white" stroke-width="0.5"/>
<path d="M22.2396 263.29V268.81H17.3496V263.29H22.2396ZM22.0596 268.59V263.47H17.5696V268.59H22.0596Z" fill="white" stroke="white" stroke-width="0.5"/>
<path d="M36.7396 273.71V279.23H31.8496V273.71H36.7396ZM36.5196 279V273.88H32.0296V279H36.5196Z" fill="white" stroke="white" stroke-width="0.5"/>
<path d="M29.6898 273.71V279.23H24.7998V273.71H29.6898ZM29.5098 279V273.88H25.0198V279H29.5098Z" fill="white" stroke="white" stroke-width="0.5"/>
<path d="M22.1996 273.71V279.23H17.3096V273.71H22.1996ZM21.9696 279V273.88H17.4796V279H21.9696Z" fill="white" stroke="white" stroke-width="0.5"/>
<path d="M37.0599 242.28V247.8H32.1699V242.28H37.0599ZM36.8299 247.58V242.46H32.3399V247.58H36.8299Z" fill="white" stroke="white" stroke-width="0.5"/>
<path d="M30.0101 242.28V247.8H25.1201V242.28H30.0101ZM29.8301 247.58V242.46H25.3401V247.58H29.8301Z" fill="white" stroke="white" stroke-width="0.5"/>
<path d="M22.5101 242.28V247.8H17.6201V242.28H22.5101ZM22.2901 247.58V242.46H17.8001V247.58H22.2901Z" fill="white" stroke="white" stroke-width="0.5"/>
<path d="M36.7396 223.65V229.17H31.8496V223.65H36.7396ZM36.5196 228.95V223.83H32.0296V228.95H36.5196Z" fill="white" stroke="white" stroke-width="0.5"/>
<path d="M29.6898 223.65V229.17H24.7998V223.65H29.6898ZM29.5098 228.95V223.83H25.0198V228.95H29.5098Z" fill="white" stroke="white" stroke-width="0.5"/>
<path d="M74.3099 224.96V230.48H69.4199V224.96H74.3099ZM74.0899 230.25V225.13H69.5999V230.25H74.0899Z" fill="white" stroke="white" stroke-width="0.5"/>
<path d="M67.2699 224.96V230.48H62.3799V224.96H67.2699ZM67.0899 230.25V225.13H62.5999V230.25H67.0899Z" fill="white" stroke="white" stroke-width="0.5"/>
<path d="M74.0004 197.98V203.5H69.1104V197.98H74.0004ZM73.7803 203.32V198.2H69.2904V203.32H73.7803Z" fill="white" stroke="white" stroke-width="0.5"/>
<path d="M66.9496 197.98V203.5H62.0596V197.98H66.9496ZM66.7696 203.32V198.2H62.2796V203.32H66.7696Z" fill="white" stroke="white" stroke-width="0.5"/>
<path d="M110.27 224.33V229.85H105.38V224.33H110.27ZM110.05 229.62V224.5H105.56V229.62H110.05Z" fill="white" stroke="white" stroke-width="0.5"/>
<path d="M93.8402 263.25V268.77H88.9502V263.25H93.8402ZM93.6202 268.59V263.47H89.1302V268.59H93.6202Z" fill="white" stroke="white" stroke-width="0.5"/>
<path d="M66.0502 263.29V268.81H61.1602V263.29H66.0502ZM65.8302 268.59V263.47H61.3402V268.59H65.8302Z" fill="white" stroke="white" stroke-width="0.5"/>
<path d="M103.22 224.33V229.85H98.3301V224.33H103.22ZM103 229.62V224.5H98.5101V229.62H103Z" fill="white" stroke="white" stroke-width="0.5"/>
<path d="M110.27 197.98V203.5H105.38V197.98H110.27ZM110.05 203.32V198.2H105.56V203.32H110.05Z" fill="white" stroke="white" stroke-width="0.5"/>
<path d="M103.22 197.98V203.5H98.3301V197.98H103.22ZM103 203.32V198.2H98.5101V203.32H103Z" fill="white" stroke="white" stroke-width="0.5"/>
<path d="M22.1996 223.65V229.17H17.3096V223.65H22.1996ZM21.9696 228.95V223.83H17.4796V228.95H21.9696Z" fill="white" stroke="white" stroke-width="0.5"/>
<path d="M37.0599 201.93V207.45H32.1699V201.93H37.0599ZM36.8299 207.22V202.1H32.3399V207.22H36.8299Z" fill="white" stroke="white" stroke-width="0.5"/>
<path d="M30.0101 201.93V207.45H25.1201V201.93H30.0101ZM29.8301 207.22V202.1H25.3401V207.22H29.8301Z" fill="white" stroke="white" stroke-width="0.5"/>
<path d="M22.5101 201.93V207.45H17.6201V201.93H22.5101ZM22.2901 207.22V202.1H17.8001V207.22H22.2901Z" fill="white" stroke="white" stroke-width="0.5"/>
<path d="M22.5998 366.54L18.4298 373.77L12.0098 370.09L16.1798 362.86L22.5998 366.54ZM18.3398 373.32L22.1998 366.63L16.3598 363.26L12.4998 369.95L18.3398 373.32Z" fill="white" stroke="white" stroke-width="0.5"/>
<path d="M28.2598 431.99C28.2598 435 25.7898 437.47 22.7798 437.47C19.7698 437.47 17.2998 435 17.2998 431.99C17.2998 428.98 19.7698 426.51 22.7798 426.51C25.7898 426.51 28.2598 428.98 28.2598 431.99ZM17.6198 431.99C17.6198 434.82 19.9098 437.15 22.7798 437.15C25.6498 437.15 27.9398 434.81 27.9398 431.99C27.9398 429.17 25.6498 426.83 22.7798 426.83C19.9098 426.83 17.6198 429.16 17.6198 431.99Z" fill="white" stroke="white" stroke-width="0.5"/>
<path d="M28.1202 359.13C28.1202 362.14 25.6502 364.61 22.6402 364.61C19.6302 364.61 17.1602 362.14 17.1602 359.13C17.1602 356.12 19.6302 353.65 22.6402 353.65C25.6502 353.66 28.1202 356.13 28.1202 359.13ZM17.4802 359.13C17.4802 361.96 19.7702 364.29 22.6402 364.29C25.5102 364.29 27.8002 362 27.8002 359.13C27.8002 356.26 25.5102 353.97 22.6402 353.97C19.7702 353.97 17.4802 356.31 17.4802 359.13Z" fill="white" stroke="white" stroke-width="0.5"/>
<path d="M151.08 453.76V455.65C151.08 456.41 150.45 457.04 149.69 457.04H147.8C147.04 457.04 146.41 456.41 146.41 455.65V453.76C146.41 453 147.04 452.37 147.8 452.37H149.69C150.45 452.37 151.08 453 151.08 453.76ZM146.72 455.65C146.72 456.23 147.21 456.73 147.8 456.73H149.69C150.27 456.73 150.77 456.24 150.77 455.65V453.76C150.77 453.18 150.28 452.68 149.69 452.68H147.8C147.22 452.68 146.72 453.17 146.72 453.76V455.65Z" fill="white" stroke="white" stroke-width="0.5"/>
<path d="M150.72 381.44V383.33C150.72 384.09 150.09 384.72 149.33 384.72H147.44C146.68 384.72 146.05 384.09 146.05 383.33V381.44C146.05 380.68 146.68 380.05 147.44 380.05H149.33C150.09 380.05 150.72 380.68 150.72 381.44ZM146.41 383.28C146.41 383.86 146.9 384.36 147.49 384.36H149.38C149.96 384.36 150.46 383.87 150.46 383.28V381.39C150.46 380.81 149.97 380.31 149.38 380.31H147.49C146.91 380.31 146.41 380.8 146.41 381.39V383.28Z" fill="white" stroke="white" stroke-width="0.5"/>
<path d="M148.97 448.64V450.53C148.97 451.29 148.34 451.92 147.58 451.92H145.69C144.93 451.92 144.3 451.29 144.3 450.53V448.64C144.3 447.88 144.93 447.25 145.69 447.25H147.58C148.34 447.25 148.97 447.88 148.97 448.64ZM144.66 450.53C144.66 451.11 145.15 451.61 145.74 451.61H147.63C148.21 451.61 148.71 451.12 148.71 450.53V448.64C148.71 448.06 148.22 447.56 147.63 447.56H145.74C145.16 447.56 144.66 448.05 144.66 448.64V450.53Z" fill="white" stroke="white" stroke-width="0.5"/>
<path d="M148.97 443.26V445.15C148.97 445.91 148.34 446.54 147.58 446.54H145.69C144.93 446.54 144.3 445.91 144.3 445.15V443.26C144.3 442.5 144.93 441.87 145.69 441.87H147.58C148.34 441.87 148.97 442.49 148.97 443.26ZM144.66 445.1C144.66 445.68 145.15 446.18 145.74 446.18H147.63C148.21 446.18 148.71 445.69 148.71 445.1V443.22C148.71 442.64 148.22 442.14 147.63 442.14H145.74C145.16 442.14 144.66 442.63 144.66 443.22V445.1Z" fill="white" stroke="white" stroke-width="0.5"/>
<path d="M148.97 437.69V439.58C148.97 440.34 148.34 440.97 147.58 440.97H145.69C144.93 440.97 144.3 440.34 144.3 439.58V437.69C144.3 436.93 144.93 436.3 145.69 436.3H147.58C148.34 436.3 148.97 436.93 148.97 437.69ZM144.66 439.58C144.66 440.16 145.15 440.66 145.74 440.66H147.63C148.21 440.66 148.71 440.17 148.71 439.58V437.69C148.71 437.11 148.22 436.61 147.63 436.61H145.74C145.16 436.61 144.66 437.1 144.66 437.69V439.58Z" fill="white" stroke="white" stroke-width="0.5"/>
<path d="M148.97 432.12V434.01C148.97 434.77 148.34 435.4 147.58 435.4H145.69C144.93 435.4 144.3 434.77 144.3 434.01V432.12C144.3 431.36 144.93 430.73 145.69 430.73H147.58C148.34 430.73 148.97 431.36 148.97 432.12ZM144.66 434.01C144.66 434.59 145.15 435.09 145.74 435.09H147.63C148.21 435.09 148.71 434.6 148.71 434.01V432.12C148.71 431.54 148.22 431.04 147.63 431.04H145.74C145.16 431.04 144.66 431.53 144.66 432.12V434.01Z" fill="white" stroke="white" stroke-width="0.5"/>
<path d="M148.97 426.56V428.45C148.97 429.21 148.34 429.84 147.58 429.84H145.69C144.93 429.84 144.3 429.21 144.3 428.45V426.56C144.3 425.8 144.93 425.17 145.69 425.17H147.58C148.34 425.17 148.97 425.79 148.97 426.56ZM144.66 428.44C144.66 429.02 145.15 429.52 145.74 429.52H147.63C148.21 429.52 148.71 429.03 148.71 428.44V426.55C148.71 425.97 148.22 425.47 147.63 425.47H145.74C145.16 425.47 144.66 425.96 144.66 426.55V428.44Z" fill="white" stroke="white" stroke-width="0.5"/>
<path d="M148.97 420.99V422.88C148.97 423.64 148.34 424.27 147.58 424.27H145.69C144.93 424.27 144.3 423.64 144.3 422.88V420.99C144.3 420.23 144.93 419.6 145.69 419.6H147.58C148.34 419.6 148.97 420.23 148.97 420.99ZM144.66 422.88C144.66 423.46 145.15 423.96 145.74 423.96H147.63C148.21 423.96 148.71 423.47 148.71 422.88V420.99C148.71 420.41 148.22 419.91 147.63 419.91H145.74C145.16 419.91 144.66 420.4 144.66 420.99V422.88Z" fill="white" stroke="white" stroke-width="0.5"/>
<path d="M148.97 415.43V417.32C148.97 418.08 148.34 418.71 147.58 418.71H145.69C144.93 418.71 144.3 418.08 144.3 417.32V415.43C144.3 414.67 144.93 414.04 145.69 414.04H147.58C148.34 414.03 148.97 414.66 148.97 415.43ZM144.66 417.31C144.66 417.89 145.15 418.39 145.74 418.39H147.63C148.21 418.39 148.71 417.9 148.71 417.31V415.42C148.71 414.84 148.22 414.34 147.63 414.34H145.74C145.16 414.34 144.66 414.83 144.66 415.42V417.31Z" fill="white" stroke="white" stroke-width="0.5"/>
<path d="M148.97 409.86V411.75C148.97 412.51 148.34 413.14 147.58 413.14H145.69C144.93 413.14 144.3 412.51 144.3 411.75V409.86C144.3 409.1 144.93 408.47 145.69 408.47H147.58C148.34 408.47 148.97 409.1 148.97 409.86ZM144.66 411.74C144.66 412.32 145.15 412.82 145.74 412.82H147.63C148.21 412.82 148.71 412.33 148.71 411.74V409.85C148.71 409.27 148.22 408.77 147.63 408.77H145.74C145.16 408.77 144.66 409.26 144.66 409.85V411.74Z" fill="white" stroke="white" stroke-width="0.5"/>
<path d="M148.97 404.29V406.18C148.97 406.94 148.34 407.57 147.58 407.57H145.69C144.93 407.57 144.3 406.94 144.3 406.18V404.29C144.3 403.53 144.93 402.9 145.69 402.9H147.58C148.34 402.9 148.97 403.53 148.97 404.29ZM144.66 406.18C144.66 406.76 145.15 407.26 145.74 407.26H147.63C148.21 407.26 148.71 406.77 148.71 406.18V404.29C148.71 403.71 148.22 403.21 147.63 403.21H145.74C145.16 403.21 144.66 403.7 144.66 404.29V406.18Z" fill="white" stroke="white" stroke-width="0.5"/>
<path d="M148.97 398.73V400.62C148.97 401.38 148.34 402.01 147.58 402.01H145.69C144.93 402.01 144.3 401.38 144.3 400.62V398.73C144.3 397.97 144.93 397.34 145.69 397.34H147.58C148.34 397.33 148.97 397.96 148.97 398.73ZM144.66 400.61C144.66 401.19 145.15 401.69 145.74 401.69H147.63C148.21 401.69 148.71 401.2 148.71 400.61V398.72C148.71 398.14 148.22 397.64 147.63 397.64H145.74C145.16 397.64 144.66 398.13 144.66 398.72V400.61Z" fill="white" stroke="white" stroke-width="0.5"/>
<path d="M148.97 393.16V395.04C148.97 395.8 148.34 396.43 147.58 396.43H145.69C144.93 396.43 144.3 395.8 144.3 395.04V393.16C144.3 392.4 144.93 391.77 145.69 391.77H147.58C148.34 391.77 148.97 392.4 148.97 393.16ZM144.66 395.05C144.66 395.63 145.15 396.13 145.74 396.13H147.63C148.21 396.13 148.71 395.64 148.71 395.05V393.17C148.71 392.59 148.22 392.09 147.63 392.09H145.74C145.16 392.09 144.66 392.58 144.66 393.17V395.05Z" fill="white" stroke="white" stroke-width="0.5"/>
<path d="M161.22 400.57V402.46C161.22 403.22 160.59 403.85 159.83 403.85H157.94C157.18 403.85 156.55 403.22 156.55 402.46V400.57C156.55 399.81 157.18 399.18 157.94 399.18H159.83C160.59 399.18 161.22 399.8 161.22 400.57ZM156.87 402.45C156.87 403.03 157.36 403.53 157.95 403.53H159.84C160.42 403.53 160.92 403.04 160.92 402.45V400.56C160.92 399.98 160.43 399.48 159.84 399.48H157.95C157.37 399.48 156.87 399.97 156.87 400.56V402.45Z" fill="white" stroke="white" stroke-width="0.5"/>
<path d="M161.22 395V396.88C161.22 397.64 160.59 398.27 159.83 398.27H157.94C157.18 398.27 156.55 397.64 156.55 396.88V395C156.55 394.24 157.18 393.61 157.94 393.61H159.83C160.59 393.61 161.22 394.24 161.22 395ZM156.87 396.89C156.87 397.47 157.36 397.97 157.95 397.97H159.84C160.42 397.97 160.92 397.48 160.92 396.89V395.01C160.92 394.43 160.43 393.93 159.84 393.93H157.95C157.37 393.93 156.87 394.42 156.87 395.01V396.89Z" fill="white" stroke="white" stroke-width="0.5"/>
<path d="M161.22 389.43V391.32C161.22 392.08 160.59 392.71 159.83 392.71H157.94C157.18 392.71 156.55 392.08 156.55 391.32V389.43C156.55 388.67 157.18 388.04 157.94 388.04H159.83C160.59 388.09 161.22 388.67 161.22 389.43ZM156.87 391.32C156.87 391.9 157.36 392.4 157.95 392.4H159.84C160.42 392.4 160.92 391.91 160.92 391.32V389.43C160.92 388.85 160.43 388.35 159.84 388.35H157.95C157.37 388.35 156.87 388.84 156.87 389.43V391.32Z" fill="white" stroke="white" stroke-width="0.5"/>
<path d="M161.22 383.87V385.75C161.22 386.51 160.59 387.14 159.83 387.14H157.94C157.18 387.14 156.55 386.51 156.55 385.75V383.87C156.55 383.11 157.18 382.48 157.94 382.48H159.83C160.59 382.52 161.22 383.1 161.22 383.87ZM156.87 385.75C156.87 386.33 157.36 386.83 157.95 386.83H159.84C160.42 386.83 160.92 386.34 160.92 385.75V383.87C160.92 383.29 160.43 382.79 159.84 382.79H157.95C157.37 382.79 156.87 383.28 156.87 383.87V385.75Z" fill="white" stroke="white" stroke-width="0.5"/>
<path d="M161.13 449.41V451.3C161.13 452.06 160.5 452.69 159.74 452.69H157.85C157.09 452.69 156.46 452.06 156.46 451.3V449.41C156.46 448.65 157.09 448.02 157.85 448.02H159.74C160.55 448.06 161.13 448.64 161.13 449.41ZM156.82 451.29C156.82 451.87 157.31 452.37 157.9 452.37H159.79C160.37 452.37 160.87 451.88 160.87 451.29V449.4C160.87 448.82 160.38 448.32 159.79 448.32H157.9C157.32 448.32 156.82 448.81 156.82 449.4V451.29Z" fill="white" stroke="white" stroke-width="0.5"/>
<path d="M161.13 443.89V445.78C161.13 446.54 160.5 447.17 159.74 447.17H157.85C157.09 447.17 156.46 446.54 156.46 445.78V443.89C156.46 443.13 157.09 442.5 157.85 442.5H159.74C160.55 442.49 161.13 443.12 161.13 443.89ZM156.82 445.73C156.82 446.31 157.31 446.81 157.9 446.81H159.79C160.37 446.81 160.87 446.32 160.87 445.73V443.84C160.87 443.26 160.38 442.76 159.79 442.76H157.9C157.32 442.76 156.82 443.25 156.82 443.84V445.73Z" fill="white" stroke="white" stroke-width="0.5"/>
<path d="M161.13 438.32V440.2C161.13 440.96 160.5 441.59 159.74 441.59H157.85C157.09 441.59 156.46 440.96 156.46 440.2V438.32C156.46 437.56 157.09 436.93 157.85 436.93H159.74C160.55 436.93 161.13 437.56 161.13 438.32ZM156.82 440.16C156.82 440.74 157.31 441.24 157.9 441.24H159.79C160.37 441.24 160.87 440.75 160.87 440.16V438.27C160.87 437.69 160.38 437.19 159.79 437.19H157.9C157.32 437.19 156.82 437.68 156.82 438.27V440.16Z" fill="white" stroke="white" stroke-width="0.5"/>
<path d="M161.13 432.75V434.64C161.13 435.4 160.5 436.03 159.74 436.03H157.85C157.09 436.03 156.46 435.4 156.46 434.64V432.75C156.46 431.99 157.09 431.36 157.85 431.36H159.74C160.55 431.36 161.13 431.99 161.13 432.75ZM156.82 434.59C156.82 435.17 157.31 435.67 157.9 435.67H159.79C160.37 435.67 160.87 435.18 160.87 434.59V432.7C160.87 432.12 160.38 431.62 159.79 431.62H157.9C157.32 431.62 156.82 432.11 156.82 432.7V434.59Z" fill="white" stroke="white" stroke-width="0.5"/>
<path d="M148.97 387.59V389.48C148.97 390.24 148.34 390.87 147.58 390.87H145.69C144.93 390.87 144.3 390.24 144.3 389.48V387.59C144.3 386.83 144.93 386.2 145.69 386.2H147.58C148.34 386.25 148.97 386.83 148.97 387.59ZM144.66 389.48C144.66 390.06 145.15 390.56 145.74 390.56H147.63C148.21 390.56 148.71 390.07 148.71 389.48V387.59C148.71 387.01 148.22 386.51 147.63 386.51H145.74C145.16 386.51 144.66 387 144.66 387.59V389.48Z" fill="white" stroke="white" stroke-width="0.5"/>
<path d="M206.29 270.34V277.03H188.02V270.34H206.29ZM205.98 276.71V270.7H188.34V276.71H205.98Z" fill="white" stroke="white" stroke-width="0.5"/>
<path d="M181.29 243.14V254.09H169.17V243.14H181.29ZM180.97 253.78V243.45H169.48V253.77H180.97V253.78Z" fill="white" stroke="white" stroke-width="0.5"/>
<path d="M204.72 243.14V248.75H192.2V243.14H204.72ZM204.41 248.48V243.5H192.51V248.48H204.41Z" fill="white" stroke="white" stroke-width="0.5"/>
<path d="M196.73 156.72V164.35H188.02V156.72H196.73ZM196.42 164V157.04H188.34V164H196.42Z" fill="white" stroke="white" stroke-width="0.5"/>
<path d="M66.2305 461.17V464.76H69.8205V461.17H66.2305Z" fill="white" stroke="white" stroke-width="0.5"/>
<path d="M113.77 461.17V464.76H117.36V461.17H113.77Z" fill="white" stroke="white" stroke-width="0.5"/>
<path d="M66.2305 416.46V420.05H69.8205V416.46H66.2305Z" fill="white" stroke="white" stroke-width="0.5"/>
<path d="M113.77 416.46V420.05H117.36V416.46H113.77Z" fill="white" stroke="white" stroke-width="0.5"/>
<path d="M66.2305 370.49V374.08H69.8205V370.49H66.2305Z" fill="white" stroke="white" stroke-width="0.5"/>
<path d="M113.77 370.49V374.08H117.36V370.49H113.77Z" fill="white" stroke="white" stroke-width="0.5"/>
<path d="M66.2305 326.27V329.86H69.8205V326.27H66.2305Z" fill="white" stroke="white" stroke-width="0.5"/>
<path d="M113.77 326.27V329.86H117.36V326.27H113.77Z" fill="white" stroke="white" stroke-width="0.5"/>
<path d="M66.2305 280.71V284.3H69.8205V280.71H66.2305Z" fill="white" stroke="white" stroke-width="0.5"/>
<path d="M113.77 280.71V284.3H117.36V280.71H113.77Z" fill="white" stroke="white" stroke-width="0.5"/>
<path d="M66.2305 235.55V239.14H69.8205V235.55H66.2305Z" fill="white" stroke="white" stroke-width="0.5"/>
<path d="M113.77 235.55V239.14H117.36V235.55H113.77Z" fill="white" stroke="white" stroke-width="0.5"/>
<path d="M66.2305 190.35V193.94H69.8205V190.35H66.2305Z" fill="white" stroke="white" stroke-width="0.5"/>
<path d="M113.77 191.15V194.75H117.36V191.16H113.77V191.15Z" fill="white" stroke="white" stroke-width="0.5"/>
<path d="M66.2305 145.19V148.78H69.8205V145.19H66.2305Z" fill="white" stroke="white" stroke-width="0.5"/>
<path d="M113.77 145.19V148.78H117.36V145.19H113.77Z" fill="white" stroke="white" stroke-width="0.5"/>
<path d="M66.2305 100.92V104.51H69.8205V100.92H66.2305Z" fill="white" stroke="white" stroke-width="0.5"/>
<path d="M113.77 100.92V104.51H117.36V100.92H113.77Z" fill="white" stroke="white" stroke-width="0.5"/>
<path d="M66.2305 56.71V60.3H69.8205V56.71H66.2305Z" fill="white" stroke="white" stroke-width="0.5"/>
<path d="M113.77 56.71V60.3H117.36V56.71H113.77Z" fill="white" stroke="white" stroke-width="0.5"/>
<path d="M66.2305 12.4902V16.0802H69.8205V12.4902H66.2305Z" fill="white" stroke="white" stroke-width="0.5"/>
<path d="M113.77 12.4902V16.0802H117.36V12.4902H113.77Z" fill="white" stroke="white" stroke-width="0.5"/>
<path d="M97.5201 134.68V160.76H86.0801V134.68H97.5201ZM97.2101 160.45V135H86.3901V160.45H97.2101Z" fill="white" stroke="white" stroke-width="0.5"/>
<path d="M53.4404 163.55V175.49H27.4004V163.55H53.4404ZM53.1304 175.17V163.86H27.7204V175.17H53.1304Z" fill="white" stroke="white" stroke-width="0.5"/>
<path d="M34.7697 131.23V137.2H21.9297V131.23H34.7697ZM34.4497 136.88V131.54H22.2397V136.88H34.4497Z" fill="white" stroke="white" stroke-width="0.5"/>
<path d="M57.5697 130.64V137.19H43.4297V130.64H57.5697ZM57.2597 136.88V130.95H43.7897V136.88H57.2597Z" fill="white" stroke="white" stroke-width="0.5"/>
<path d="M34.7699 104.38V117.58H28.1699V104.38H34.7699ZM34.4499 117.26V104.69H28.5199V117.26H34.4499Z" fill="white" stroke="white" stroke-width="0.5"/>
<path d="M59.1004 73.3198V86.6098H20.9404V73.3198H59.1004ZM58.7804 86.2498V73.5898H21.2504V86.2498H58.7804Z" fill="white" stroke="white" stroke-width="0.5"/>
<path d="M52.4096 19.23V52.18H38.8496V19.23H52.4096ZM52.0896 51.91V19.58H39.1696V51.9H52.0896V51.91Z" fill="white" stroke="white" stroke-width="0.5"/>
<path d="M25.3798 44.7202V52.2202H12.0098V44.7202H25.3798ZM25.0698 51.9102V45.0402H12.3198V51.9102H25.0698Z" fill="white" stroke="white" stroke-width="0.5"/>
<path d="M25.3798 18.6401V25.3701H11.5098V18.6401H25.3798ZM25.0698 25.0601V18.9601H11.8298V25.0601H25.0698Z" fill="white" stroke="white" stroke-width="0.5"/>
<path d="M114.94 73.3198V86.6098H69.5996V73.3198H114.94ZM114.63 86.2498V73.5898H69.9596V86.2498H114.63Z" fill="white" stroke="white" stroke-width="0.5"/>
<path d="M104.7 35.5698V48.5898H78.6201V35.5698H104.7ZM104.35 48.2698V35.8798H78.8901V48.2698H104.35Z" fill="white" stroke="white" stroke-width="0.5"/>
<path d="M141.78 41.9399V54.9999H122.39V41.9399H141.78ZM141.47 54.6899V42.2499H122.71V54.6799H141.47V54.6899Z" fill="white" stroke="white" stroke-width="0.5"/>
<path d="M142.73 72.9102V86.5602H129.08V72.9102H142.73ZM142.41 86.2502V73.2302H129.39V86.2502H142.41Z" fill="white" stroke="white" stroke-width="0.5"/>
<path d="M105.74 65.1899V71.8799H99.0498V65.1899H105.74ZM105.42 71.5699V65.5499H99.4098V71.5699H105.42Z" fill="white" stroke="white" stroke-width="0.5"/>
<path d="M93.7095 65.1899V71.8799H87.0195V65.1899H93.7095ZM93.3895 71.5699V65.5499H87.3695V71.5699H93.3895Z" fill="white" stroke="white" stroke-width="0.5"/>
<path d="M81.6802 65.1899V71.8799H74.9902V65.1899H81.6802ZM81.3602 71.5699V65.5499H75.3502V71.5699H81.3602Z" fill="white" stroke="white" stroke-width="0.5"/>
<path d="M55.7798 65.1899V71.8799H49.0898V65.1899H55.7798ZM55.4598 71.5699V65.5499H49.4498V71.5699H55.4598Z" fill="white" stroke="white" stroke-width="0.5"/>
<path d="M43.7896 65.1899V71.8799H37.0996V65.1899H43.7896ZM43.4696 71.5699V65.5499H37.4096V71.5699H43.4696Z" fill="white" stroke="white" stroke-width="0.5"/>
<path d="M48.9498 53.3901V60.0801H42.2598V53.3901H48.9498ZM48.6398 59.7601V53.7501H42.5798V59.7701H48.6398V59.7601Z" fill="white" stroke="white" stroke-width="0.5"/>
<path d="M48.9498 11.3701V18.0601H42.2598V11.3701H48.9498ZM48.6398 17.7001V11.6801H42.5798V17.7001H48.6398Z" fill="white" stroke="white" stroke-width="0.5"/>
<path d="M21.7896 11.3701V18.0601H15.0996V11.3701H21.7896ZM21.4796 17.7001V11.6801H15.4196V17.7001H21.4796Z" fill="white" stroke="white" stroke-width="0.5"/>
<path d="M20.6304 26.3198V33.0098H13.9404V26.3198H20.6304ZM20.2704 32.6898V26.6698H14.2504V32.6898H20.2704Z" fill="white" stroke="white" stroke-width="0.5"/>
<path d="M20.0904 36.6899V43.3799H13.4004V36.6899H20.0904ZM19.7704 43.0599V37.0499H13.7104V43.0699H19.7704V43.0599Z" fill="white" stroke="white" stroke-width="0.5"/>
<path d="M21.2504 52.6699V59.3599H14.6104V52.6699H21.2504ZM20.9404 58.9999V52.9799H14.9204V58.9999H20.9404Z" fill="white" stroke="white" stroke-width="0.5"/>
<path d="M31.7603 65.1899V71.8799H25.0703V65.1899H31.7603ZM31.4403 71.5699V65.5499H25.3803V71.5699H31.4403Z" fill="white" stroke="white" stroke-width="0.5"/>
<path d="M55.3697 88.0898V94.7798H48.6797V88.0898H55.3697ZM55.0597 94.4598V88.4498H49.0397V94.4698H55.0597V94.4598Z" fill="white" stroke="white" stroke-width="0.5"/>
<path d="M43.3902 88.0898V94.7798H36.7002V88.0898H43.3902ZM43.0702 94.4598V88.4498H37.0102V94.4698H43.0702V94.4598Z" fill="white" stroke="white" stroke-width="0.5"/>
<path d="M31.3502 88.0898V94.7798H24.6602V88.0898H31.3502ZM31.0402 94.4598V88.4498H24.9802V94.4698H31.0402V94.4598Z" fill="white" stroke="white" stroke-width="0.5"/>
<path d="M51.5998 156.32V161.62H46.2998V156.32H51.5998ZM51.3298 161.35V156.55H46.5298V161.35H51.3298Z" fill="white" stroke="white" stroke-width="0.5"/>
<path d="M43.0305 156.32V161.62H37.7305V156.32H43.0305ZM42.8005 161.35V156.55H38.0005V161.35H42.8005Z" fill="white" stroke="white" stroke-width="0.5"/>
<path d="M34.5002 156.32V161.62H29.2002V156.32H34.5002ZM34.2302 161.35V156.55H29.4302V161.35H34.2302Z" fill="white" stroke="white" stroke-width="0.5"/>
<path d="M105.06 135.76V141.06H99.7598V135.76H105.06ZM104.79 140.83V136.03H99.9898V140.83H104.79Z" fill="white" stroke="white" stroke-width="0.5"/>
<path d="M105.06 144.33V149.63H99.7598V144.33H105.06ZM104.79 149.41V144.61H99.9898V149.41H104.79Z" fill="white" stroke="white" stroke-width="0.5"/>
<path d="M105.06 152.86V158.16H99.7598V152.86H105.06ZM104.79 157.94V153.14H99.9898V157.94H104.79Z" fill="white" stroke="white" stroke-width="0.5"/>
<path d="M84.1897 136.52V141.82H78.8896V136.52H84.1897ZM83.9196 141.55V136.75H79.1197V141.55H83.9196Z" fill="white" stroke="white" stroke-width="0.5"/>
<path d="M84.1897 145.05V150.35H78.8896V145.05H84.1897ZM83.9196 150.12V145.32H79.1197V150.12H83.9196Z" fill="white" stroke="white" stroke-width="0.5"/>
<path d="M84.1897 153.58V158.88H78.8896V153.58H84.1897ZM83.9196 158.65V153.85H79.1197V158.65H83.9196Z" fill="white" stroke="white" stroke-width="0.5"/>
<path d="M26.3703 167.23V172.53H21.0303V167.23H26.3703ZM26.1003 172.3V167.5H21.3003V172.3H26.1003Z" fill="white" stroke="white" stroke-width="0.5"/>
<path d="M30.9904 138.45V143.75H25.6904V138.45H30.9904ZM30.7704 143.53V138.73H25.9204V143.53H30.7704Z" fill="white" stroke="white" stroke-width="0.5"/>
<path d="M53.1701 138.27V143.57H47.8701V138.27H53.1701ZM52.9001 143.35V138.55H48.1001V143.35H52.9001Z" fill="white" stroke="white" stroke-width="0.5"/>
<path d="M51.5998 176.47V181.77H46.2998V176.47H51.5998ZM51.3298 181.5V176.7H46.5298V181.5H51.3298Z" fill="white" stroke="white" stroke-width="0.5"/>
<path d="M43.0305 176.47V181.77H37.7305V176.47H43.0305ZM42.8005 181.5V176.7H38.0005V181.5H42.8005Z" fill="white" stroke="white" stroke-width="0.5"/>
<path d="M34.5002 176.47V181.77H29.2002V176.47H34.5002ZM34.2302 181.5V176.7H29.4302V181.5H34.2302Z" fill="white" stroke="white" stroke-width="0.5"/>
<path d="M60.7095 19.9902V26.6802H54.0195V19.9902H60.7095ZM60.3995 26.3202V20.3002H54.3795V26.3202H60.3995Z" fill="white" stroke="white" stroke-width="0.5"/>
<path d="M60.7095 31.9702V38.6602H54.0195V31.9702H60.7095ZM60.3995 38.3502V32.3302H54.3795V38.3502H60.3995Z" fill="white" stroke="white" stroke-width="0.5"/>
<path d="M60.7095 44V50.69H54.0195V44H60.7095ZM60.3995 50.38V44.36H54.3795V50.38H60.3995Z" fill="white" stroke="white" stroke-width="0.5"/>
<path d="M36.43 20.3901V27.0801H29.79V20.3901H36.43ZM36.11 26.7201V20.7001H30.09V26.7201H36.11Z" fill="white" stroke="white" stroke-width="0.5"/>
<path d="M36.43 32.3799V39.0699H29.79V32.3799H36.43ZM36.11 38.7499V32.7299H30.09V38.7499H36.11Z" fill="white" stroke="white" stroke-width="0.5"/>
<path d="M36.43 44.4102V51.1002H29.79V44.4102H36.43ZM36.11 50.7402V44.7202H30.09V50.7402H36.11Z" fill="white" stroke="white" stroke-width="0.5"/>
<path d="M105.74 87.6401V94.3301H99.0498V87.6401H105.74ZM105.42 94.0101V87.9901H99.4098V94.0101H105.42Z" fill="white" stroke="white" stroke-width="0.5"/>
<path d="M93.7095 87.6401V94.3301H87.0195V87.6401H93.7095ZM93.3895 94.0101V87.9901H87.3695V94.0101H93.3895Z" fill="white" stroke="white" stroke-width="0.5"/>
<path d="M101.65 49.8398V56.5298H94.96V49.8398H101.65ZM101.34 56.1698V50.1498H95.28V56.1698H101.34Z" fill="white" stroke="white" stroke-width="0.5"/>
<path d="M121.31 44.6802V51.3702H114.62V44.6802H121.31ZM121 51.0102V44.9902H114.99V51.0102H121Z" fill="white" stroke="white" stroke-width="0.5"/>
<path d="M138.6 55.6802V62.3702H131.91V55.6802H138.6ZM138.28 62.0502V56.0302H132.26V62.0502H138.28Z" fill="white" stroke="white" stroke-width="0.5"/>
<path d="M138.6 34.3501V41.0401H131.91V34.3501H138.6ZM138.28 40.6801V34.6601H132.26V40.6801H138.28Z" fill="white" stroke="white" stroke-width="0.5"/>
<path d="M138.6 65.1899V71.8799H131.91V65.1899H138.6ZM138.28 71.5699V65.5499H132.26V71.5699H138.28Z" fill="white" stroke="white" stroke-width="0.5"/>
<path d="M139.27 87.23V93.92H132.58V87.23H139.27ZM138.91 93.61V87.59H132.89V93.61H138.91Z" fill="white" stroke="white" stroke-width="0.5"/>
<path d="M122.53 77.3101V84.0001H115.84V77.3101H122.53ZM122.17 83.6401V77.6201H116.16V83.6401H122.17Z" fill="white" stroke="white" stroke-width="0.5"/>
<path d="M89.6197 49.8398V56.5298H82.9297V49.8398H89.6197ZM89.3097 56.1698V50.1498H83.2897V56.1698H89.3097Z" fill="white" stroke="white" stroke-width="0.5"/>
<path d="M101.65 27.6602V34.3502H94.96V27.6602H101.65ZM101.34 34.0402V28.0202H95.28V34.0402H101.34Z" fill="white" stroke="white" stroke-width="0.5"/>
<path d="M89.6197 27.6602V34.3502H82.9297V27.6602H89.6197ZM89.3097 34.0402V28.0202H83.2897V34.0402H89.3097Z" fill="white" stroke="white" stroke-width="0.5"/>
<path d="M81.6802 87.6401V94.3301H74.9902V87.6401H81.6802ZM81.3602 94.0101V87.9901H75.3502V94.0101H81.3602Z" fill="white" stroke="white" stroke-width="0.5"/>
<path d="M197.81 277.93V283.9H191.84V277.93H197.81ZM197.58 283.63V278.15H192.1V283.63H197.58Z" fill="white" stroke="white" stroke-width="0.5"/>
<path d="M201.44 235.68V241.65H195.47V235.68H201.44ZM201.22 241.43V235.95H195.74V241.43H201.22Z" fill="white" stroke="white" stroke-width="0.5"/>
<path d="M178.59 236.36V242.33H172.62V236.36H178.59ZM178.37 242.1V236.62H172.89V242.1H178.37Z" fill="white" stroke="white" stroke-width="0.5"/>
<path d="M178.59 255.35V261.32H172.62V255.35H178.59ZM178.37 261.09V255.61H172.89V261.09H178.37Z" fill="white" stroke="white" stroke-width="0.5"/>
<path d="M174.96 230.16V234.87H170.97V230.16H174.96ZM174.69 234.65V230.43H171.23V234.65H174.69Z" fill="white" stroke="white" stroke-width="0.5"/>
<path d="M184.88 229.22V232.68H174.73V229.22H184.88ZM184.61 232.41V229.45H174.96V232.41H184.61Z" fill="white" stroke="white" stroke-width="0.5"/>
<path d="M190.8 228.82V235.06H184.61V228.86H190.8V228.82ZM190.58 234.79V229.09H184.88V234.79H190.58Z" fill="white" stroke="white" stroke-width="0.5"/>
<path d="M113.37 453.67C113.37 454.88 112.38 455.91 111.13 455.91C109.92 455.91 108.89 454.92 108.89 453.67C108.89 452.41 109.88 451.43 111.13 451.43C112.38 451.47 113.37 452.46 113.37 453.67ZM109.24 453.67C109.24 454.7 110.09 455.6 111.17 455.6C112.25 455.6 113.1 454.75 113.1 453.67C113.1 452.59 112.25 451.74 111.17 451.74C110.09 451.74 109.24 452.64 109.24 453.67Z" fill="white" stroke="white" stroke-width="0.5"/>
<path d="M106.14 453.67C106.14 454.88 105.15 455.91 103.9 455.91C102.64 455.91 101.65 454.92 101.65 453.67C101.65 452.41 102.64 451.43 103.9 451.43C105.15 451.43 106.14 452.46 106.14 453.67ZM102.01 453.67C102.01 454.7 102.86 455.6 103.94 455.6C105.02 455.6 105.87 454.75 105.87 453.67C105.87 452.59 105.02 451.74 103.94 451.74C102.86 451.74 102.01 452.64 102.01 453.67Z" fill="white" stroke="white" stroke-width="0.5"/>
<path d="M98.9097 453.67C98.9097 454.88 97.9197 455.91 96.6697 455.91C95.4597 455.91 94.4297 454.92 94.4297 453.67C94.4297 452.41 95.4197 451.43 96.6697 451.43C97.9297 451.47 98.9097 452.46 98.9097 453.67ZM94.7797 453.67C94.7797 454.7 95.6297 455.6 96.7097 455.6C97.7897 455.6 98.6397 454.75 98.6397 453.67C98.6397 452.59 97.7897 451.74 96.7097 451.74C95.6297 451.74 94.7797 452.64 94.7797 453.67Z" fill="white" stroke="white" stroke-width="0.5"/>
<path d="M91.69 453.67C91.69 454.88 90.7 455.91 89.45 455.91C88.24 455.91 87.21 454.92 87.21 453.67C87.21 452.41 88.2 451.43 89.45 451.43C90.7 451.47 91.69 452.46 91.69 453.67ZM87.56 453.67C87.56 454.7 88.41 455.6 89.49 455.6C90.57 455.6 91.42 454.75 91.42 453.67C91.42 452.59 90.57 451.74 89.49 451.74C88.41 451.74 87.56 452.64 87.56 453.67Z" fill="white" stroke="white" stroke-width="0.5"/>
<path d="M84.4995 453.67C84.4995 454.88 83.5095 455.91 82.2595 455.91C81.0495 455.91 80.0195 454.92 80.0195 453.67C80.0195 452.41 81.0095 451.43 82.2595 451.43C83.4695 451.47 84.4995 452.46 84.4995 453.67ZM80.3295 453.67C80.3295 454.7 81.1795 455.6 82.2595 455.6C83.3395 455.6 84.1895 454.75 84.1895 453.67C84.1895 452.59 83.3395 451.74 82.2595 451.74C81.1795 451.74 80.3295 452.64 80.3295 453.67Z" fill="white" stroke="white" stroke-width="0.5"/>
<path d="M77.2798 453.67C77.2798 454.88 76.2898 455.91 75.0398 455.91C73.8298 455.91 72.7998 454.92 72.7998 453.67C72.7998 452.41 73.7898 451.43 75.0398 451.43C76.2898 451.47 77.2798 452.46 77.2798 453.67ZM73.1498 453.67C73.1498 454.7 73.9998 455.6 75.0798 455.6C76.1598 455.6 77.0098 454.75 77.0098 453.67C77.0098 452.59 76.1598 451.74 75.0798 451.74C73.9998 451.74 73.1498 452.64 73.1498 453.67Z" fill="white" stroke="white" stroke-width="0.5"/>
<path d="M96.5802 272.32V277.35H84.9502V272.32H96.5802ZM96.2702 277.03V272.63H85.2702V277.03H96.2702Z" fill="white" stroke="white" stroke-width="0.5"/>
<path d="M95.0505 288.75L88.6805 290.95L86.4805 284.58L92.8505 282.38L95.0505 288.75ZM88.9005 290.54L94.6505 288.52L92.6305 282.77L86.8805 284.79L88.9005 290.54Z" fill="white" stroke="white" stroke-width="0.5"/>
<path d="M95.6403 345.8L89.2703 348L87.0703 341.63L93.4403 339.43L95.6403 345.8ZM89.4903 347.6L95.2403 345.58L93.2203 339.84L87.4703 341.86L89.4903 347.6Z" fill="white" stroke="white" stroke-width="0.5"/>
<path d="M97.1602 294.63V336.6H84.9102V294.63H97.1602ZM96.8002 336.28V295.03H85.2701V336.28H96.8002Z" fill="white" stroke="white" stroke-width="0.5"/>
<path d="M35.5 403.5C38.2614 403.5 40.5 401.261 40.5 398.5C40.5 395.739 38.2614 393.5 35.5 393.5C32.7386 393.5 30.5 395.739 30.5 398.5C30.5 401.261 32.7386 403.5 35.5 403.5Z" stroke="white"/>
<path d="M43.5 386.5H26.5V391.5H43.5V386.5Z" stroke="white"/>
<path d="M18.5 386.5H13.5V403.5H18.5V386.5Z" stroke="white"/>
<g class="places-group">
<path d="M116 268H67V357H116V268Z" class="places active" data-slide="0" fill="#05B517" fill-opacity="0.7" stroke="#219653" stroke-width="3"/>
<path d="M206 152H169V231H206V152Z" class="places" data-slide="1" fill="#05B517" fill-opacity="0.7" stroke="#219653" stroke-width="3"/>
<path d="M43 335H10V384H43V335Z" class="places" data-slide="2" fill="#05B517" fill-opacity="0.7" stroke="#219653" stroke-width="3"/>
<path d="M43 383H10V407H43V383Z" class="places" data-slide="3" fill="#05B517" fill-opacity="0.7" stroke="#219653" stroke-width="3"/>
<path d="M43 407H10V456H43V407Z" class="places" data-slide="4" fill="#05B517" fill-opacity="0.7" stroke="#219653" stroke-width="3"/>
<path d="M28 456H10V502H28V456Z" class="places" data-slide="5" fill="#05B517" fill-opacity="0.7" stroke="#219653" stroke-width="3"/>
<path d="M48 198H10V335H48V198Z" class="places" data-slide="6" fill="#05B517" fill-opacity="0.7" stroke="#219653" stroke-width="3"/>
<path d="M163 482H145V508H163V482Z" class="places" data-slide="7" fill="#05B517" fill-opacity="0.7" stroke="#219653" stroke-width="3"/>
<path d="M163 364H140V482H163V364Z" class="places" data-slide="8" fill="#05B517" fill-opacity="0.7" stroke="#219653" stroke-width="3"/>
<path d="M131 448H50V490H131V448Z" class="places" data-slide="9" fill="#05B517" fill-opacity="0.7" stroke="#219653" stroke-width="3"/>
<path d="M52 380H131V448H52V380Z" class="places" data-slide="10" fill="#05B517" fill-opacity="0.7"/>
<path d="M52 380V378.5H50.5V380H52ZM131 380H132.5V378.5H131V380ZM131 448V449.5H132.5V448H131ZM52 448H50.5V449.5H52V448ZM52 381.5H131V378.5H52V381.5ZM129.5 380V448H132.5V380H129.5ZM131 446.5H52V449.5H131V446.5ZM53.5 448V380H50.5V448H53.5Z"  class="places" data-slide="11" fill="#219653"/>
</g>
</svg>
