<?xml version="1.0" standalone="no"?>
<!DOCTYPE svg PUBLIC "-//W3C//DTD SVG 1.1//EN" "http://www.w3.org/Graphics/SVG/1.1/DTD/svg11.dtd" >
<svg xmlns="http://www.w3.org/2000/svg" xmlns:xlink="http://www.w3.org/1999/xlink" version="1.1">
<metadata>
Created by FontForge 20170731 at Sat Feb 15 12:00:17 2014
 By Aleksey,,,
Copyright (c) 1990 ParaGraph Intl., (c) 1998 ParaType Inc., ParaType Ltd. All rights reserved.
</metadata>
<defs>
<font id="Pragmatica-Book" horiz-adv-x="600" >
  <font-face 
    font-family="Pragmatica"
    font-weight="400"
    font-stretch="normal"
    units-per-em="1000"
    panose-1="2 11 5 3 4 5 2 2 2 4"
    ascent="800"
    descent="-200"
    x-height="508"
    cap-height="700"
    bbox="-589 -317 1632 960"
    underline-thickness="50"
    underline-position="-250"
    unicode-range="U+0020-FE60"
  />
<missing-glyph horiz-adv-x="233" 
 />
    <glyph glyph-name="IJ" unicode="IJ" horiz-adv-x="770" 
d="M273 196v36h94q0 -90 28 -132t93 -42q66 0 91 41.5t25 133.5v467h94v-458q0 -140 -49 -201.5t-162 -61.5q-214 0 -214 217zM85 0v700h94v-700h-94z" />
    <glyph glyph-name="ij" unicode="ij" horiz-adv-x="440" 
d="M282 -36v544h88v-555q0 -74 -27.5 -108t-92.5 -34q-14 0 -57 4v62q42 7 53 12q4 1 11 2.5t9.5 3.5t5.5 7q1 2 3 4l3 3t1.5 3t1 5t0.5 8q1 16 1 39zM370 608h-88v92h88v-92zM70 0v508h88v-508h-88zM158 608h-88v92h88v-92z" />
    <glyph glyph-name="afii10017.var.accented" unicode="&#x410;`" horiz-adv-x="622" 
d="M459 181h-296l-66 -181h-101l265 700h100l265 -700h-101zM311 605l-122 -345h244zM264 760l74 140h112l-102 -140h-84z" />
    <glyph glyph-name="afii10022.var.accented" unicode="&#x415;`" horiz-adv-x="612" 
d="M179 621v-220h367v-79h-367v-243h416v-79h-510v700h499v-79h-405zM239 760l74 140h112l-102 -140h-84z" />
    <glyph glyph-name="afii10026.var.accented" unicode="&#x418;`" horiz-adv-x="731" 
d="M179 700v-563l373 563h94v-700h-94v567l-373 -567h-94v700h94zM298 760l74 140h112l-102 -140h-84z" />
    <glyph glyph-name="afii10032.var.accented" unicode="&#x41e;`" horiz-adv-x="758" 
d="M45 350q0 180 91 275q92 96 243 96q104 0 184 -49q69 -40 109 -120.5t41 -201.5q0 -73 -17 -136q-32 -110 -102 -164q-63 -48 -131 -61q-43 -10 -84 -10q-23 0 -34 1q-55 3 -117 29q-82 39 -126 107q-57 91 -57 234zM145 350q0 -82 25 -151q51 -141 209 -141q19 0 28 1
q43 2 84 25q122 64 122 266q0 131 -59 211q-58 81 -175 81q-58 0 -104 -23t-72 -58q-24 -33 -37 -76q-21 -65 -21 -135zM312 760l74 140h112l-102 -140h-84z" />
    <glyph glyph-name="afii10037.var.accented" unicode="&#x423;`" horiz-adv-x="588" 
d="M124 700l201 -421l168 421h99l-237 -575q-41 -95 -91 -118q-37 -17 -87 -17q-44 0 -78 10v82q33 -11 66 -11q24 0 40.5 5t36.5 29t33 69l-266 526h115zM227 760l74 140h112l-102 -140h-84z" />
    <glyph glyph-name="afii10045.var.accented" unicode="&#x42b;`" horiz-adv-x="858" 
d="M85 700h94v-285h202q107 0 166 -55t59 -155q0 -102 -57 -152q-23 -20 -57 -34q-52 -19 -111 -19h-296v700zM318 336h-139v-257h189q46 0 89 22q53 28 53 107q-4 81 -53 105q-32 17 -70 20q-26 3 -35 3h-34zM679 0v700h94v-700h-94zM362 760l74 140h112l-102 -140h-84z
" />
    <glyph glyph-name="afii10047.var.accented" unicode="&#x42d;`" horiz-adv-x="719" 
d="M244 322v79h330q0 54 -21 107q-20 57 -70.5 94.5t-133.5 39.5q-86 0 -138.5 -40.5t-61.5 -105.5h-94q8 93 79 158q73 67 206 67q77 0 139 -23.5t99 -62.5q35 -35 58 -87q38 -83 38 -190t-33 -193q-21 -53 -56 -93q-36 -41 -98.5 -67t-142.5 -26q-63 0 -114 17.5t-83 44.5
t-54.5 63.5t-33 70t-14.5 68.5h94q7 -47 30 -89q58 -96 179 -96q103 0 157 56q63 66 69 175q2 17 0 33h-330zM292 760l74 140h112l-102 -140h-84z" />
    <glyph glyph-name="afii10048.var.accented" unicode="&#x42e;`" horiz-adv-x="993" 
d="M179 700v-292h105q8 122 85 213q40 47 103.5 73.5t140.5 26.5q151 0 242 -97q93 -96 93 -274q0 -79 -19.5 -144.5t-58.5 -117t-105 -80.5t-152 -29q-145 0 -227 77q-99 99 -106 273h-101v-329h-94v700h94zM614 58q113 0 169 70q24 29 40 71q25 70 25 151q0 144 -60 215
q-26 30 -60 48q-52 29 -114 29q-59 0 -114 -28q-33 -17 -59 -48q-61 -74 -61 -216q0 -60 13 -110.5t39.5 -92.5t73 -65.5t108.5 -23.5zM429 760l74 140h112l-102 -140h-84z" />
    <glyph glyph-name="afii10049.var.accented" unicode="&#x42f;`" horiz-adv-x="680" 
d="M501 0v278h-159l-171 -278h-116l190 288q-58 1 -119 41q-32 22 -51.5 64.5t-19.5 97.5q0 98 59.5 153.5t181.5 55.5h299v-700h-94zM501 357v264h-197q-84 0 -119 -39q-34 -38 -34 -92q0 -133 166 -133h184zM273 760l74 140h112l-102 -140h-84z" />
    <glyph glyph-name="afii10065.var.accented" unicode="&#x430;`" horiz-adv-x="553" 
d="M139 358h-84q0 60 40 110q48 60 176 60q75 0 132 -30q33 -16 52 -53t18 -88l-5 -235q0 -29 6 -45q9 -16 47 -15v-62q-15 -4 -40 -4q-44 0 -63.5 15t-27.5 59q-49 -90 -174 -90q-86 0 -132.5 38.5t-46.5 114.5q0 72 52 109q52 39 197 52q67 5 80 13q19 13 19 57
q0 102 -114 102q-135 0 -132 -108zM383 217l2 43q-15 -11 -44 -18q-44 -3 -68 -7q-83 -14 -101 -23q-44 -21 -44 -76q0 -44 26.5 -69t71.5 -25q29 0 53.5 8t48 26.5t38 54.5t17.5 86zM214 568l70 132h106l-96 -132h-80z" />
    <glyph glyph-name="afii10070.var.accented" unicode="&#x435;`" horiz-adv-x="570" 
d="M438 147h84q-12 -67 -65 -117t-157 -50q-141 0 -207 93q-33 49 -43 105q-7 39 -7 74q0 67 20 126q13 42 38 73q27 33 77 55t113 22q112 0 169 -62q24 -26 39 -66q22 -58 27 -141q0 -3 0.5 -13t0.5 -12h-391q0 -76 40 -134t121 -58q58 0 95 29t46 76zM136 296h298
q-1 59 -28 109q-31 61 -113 61q-93 0 -128 -62q-29 -50 -29 -108zM223 568l70 132h106l-96 -132h-80z" />
    <glyph glyph-name="afii10074.var.accented" unicode="&#x438;`" horiz-adv-x="595" 
d="M160 508v-405l265 405h98v-508h-88v406l-264 -406h-99v508h88zM235 568l70 132h106l-96 -132h-80z" />
    <glyph glyph-name="afii10080.var.accented" unicode="&#x43e;`" horiz-adv-x="586" 
d="M56 154q-26 107 2 207t118 143q50 24 117 24t117 -24q90 -42 119 -150q13 -50 13.5 -100.5t-12 -99t-43 -88.5t-77.5 -63q-51 -23 -117 -23t-117 23q-87 42 -120 151zM149 355q-13 -40 -13 -100q0 -59 13 -101t30 -63q36 -40 82 -47q32 -5 64 0q14 1 39 14q27 14 44 35
t29 61q13 42 13 101q0 60 -13 100q-14 44 -31 63q-16 19 -40 32t-41 16q-32 5 -64 0q-14 -1 -40 -15q-51 -25 -72 -96zM231 568l70 132h106l-96 -132h-80z" />
    <glyph glyph-name="afii10085.var.accented" unicode="&#x443;`" horiz-adv-x="498" 
d="M91 -184v65q38 -5 44 -5q38 0 54 28q10 15 13 25q3 5 13 33l12 38l-220 508h105l163 -411l135 411h88l-202 -568q-24 -68 -41 -89q-34 -40 -92 -40q-45 0 -72 5zM187 568l70 132h106l-96 -132h-80z" />
    <glyph glyph-name="afii10093.var.accented" unicode="&#x44b;`" horiz-adv-x="714" 
d="M72 0v508h88v-201h128q61 0 102 -12q98 -25 102 -143q0 -70 -42.5 -111t-131.5 -41h-246zM267 245h-107v-183h123q118 0 118 96q0 47 -31 68q-10 8 -33 13q-24 6 -70 6zM554 0v508h88v-508h-88zM295 568l70 132h106l-96 -132h-80z" />
    <glyph glyph-name="afii10095.var.accented" unicode="&#x44d;`" horiz-adv-x="553" 
d="M417 233h-219v62h219q-1 45 -13 78t-28 50t-38 27.5t-36.5 13t-28.5 2.5q-65 0 -104.5 -32.5t-43.5 -84.5h-84q13 105 99 153q22 14 48 18q41 8 76 8q246 0 246 -278q0 -270 -241 -270q-59 0 -103 15q-102 32 -129 181h84q17 -134 148 -134q48 0 81 21.5t46 57.5
q21 59 21 112zM214 568l70 132h106l-96 -132h-80z" />
    <glyph glyph-name="afii10096.var.accented" unicode="&#x44e;`" horiz-adv-x="780" 
d="M160 508v-209h80q10 94 70 161q62 68 177 68q107 0 178 -68q72 -67 72 -205q0 -73 -23 -129.5t-56 -85.5q-31 -26 -72 -41q-52 -19 -97 -19q-105 0 -168 58q-69 67 -81 199h-80v-237h-88v508h88zM333 255q0 -73 26 -135q15 -36 49 -57t81 -21q40 0 72.5 18t47.5 44
q16 25 23 58q12 47 12 93q0 47 -12 92q-23 114 -143 119q-38 0 -71 -16q-82 -35 -85 -195zM328 568l70 132h106l-96 -132h-80z" />
    <glyph glyph-name="afii10097.var.accented" unicode="&#x44f;`" horiz-adv-x="543" 
d="M383 200h-116l-133 -200h-97l140 201q-58 6 -94 45t-36 102q0 59 31 103q37 57 140 57h253v-508h-88v200zM383 262v184h-127q-118 0 -118 -95q0 -39 29 -64t92 -25h124zM209 568l70 132h106l-96 -132h-80z" />
    <glyph glyph-name="f_f" unicode="ff" horiz-adv-x="566" 
d="M14 508h94v69q0 66 32.5 96.5t101.5 30.5q12 0 65 -4v-62q-9 1 -62 1q-49 0 -49 -70v-61h157v69q0 66 32.5 96.5t101.5 30.5q12 0 65 -4v-62q-4 0 -15 0.5t-14 0.5q-25 1 -33 0q-49 -7 -49 -70v-61h111v-62h-111v-446h-88v446h-157v-446h-88v446h-94v62z" />
    <glyph glyph-name="fi" unicode="fi" horiz-adv-x="510" 
d="M13 508h94v69q0 66 32.5 96.5t101.5 30.5q12 0 65 -4v-62q-9 1 -62 1q-49 0 -49 -70v-61h245v-508h-88v446h-157v-446h-88v446h-94v62zM440 608h-88v92h88v-92z" />
    <glyph glyph-name="fl" unicode="fl" horiz-adv-x="512" 
d="M195 569v-61h157v192h88v-700h-88v446h-157v-446h-88v446h-94v62h94v69q0 66 32.5 96.5t101.5 30.5q12 0 65 -4v-62q-9 1 -62 1q-49 0 -49 -70z" />
    <glyph glyph-name="f_f_i" unicode="ffi" horiz-adv-x="756" 
d="M14 508h94v69q0 66 32.5 96.5t101.5 30.5q12 0 65 -4v-62q-9 1 -62 1q-49 0 -49 -70v-61h157v69q0 66 32.5 96.5t101.5 30.5q12 0 65 -4v-62q-4 0 -15 0.5t-14 0.5q-25 1 -33 0q-49 -7 -49 -70v-61h245v-508h-88v446h-157v-446h-88v446h-157v-446h-88v446h-94v62z
M686 608h-88v92h88v-92z" />
    <glyph glyph-name="f_f_l" unicode="ffl" horiz-adv-x="758" 
d="M14 508h94v69q0 66 32.5 96.5t101.5 30.5q12 0 65 -4v-62q-9 1 -62 1q-49 0 -49 -70v-61h157v69q0 66 32.5 96.5t101.5 30.5q12 0 65 -4v-62q-4 0 -15 0.5t-14 0.5q-25 1 -33 0q-49 -7 -49 -70v-61h157v192h88v-700h-88v446h-157v-446h-88v446h-157v-446h-88v446h-94v62z
" />
    <glyph glyph-name="uniFB13" unicode="&#x574;&#x576;" horiz-adv-x="1146" 
d="M72 171v337h88v-311q0 -87 27 -122q25 -33 80 -33t96 36q50 47 50 119v311h-42q-81 0 -129 50q-36 40 -36 119v23h84v-22q0 -56 20 -81q21 -27 75 -27h28v130h185v-62h-97v-68h232v-373q0 -87 27 -122q25 -33 80 -33q76 0 116 58q30 38 30 97v311h88v-508h-88v72
q-60 -92 -174 -92q-79 0 -122 43q-26 26 -35.5 60t-9.5 88v337h-144v-508h-88v72q-60 -92 -174 -92q-79 0 -122 43q-26 26 -35.5 60t-9.5 88z" />
    <glyph glyph-name="uniFB14" unicode="&#x574;&#x565;" horiz-adv-x="1142" 
d="M72 171v337h88v-311q0 -87 27 -122q25 -33 80 -33t96 36q50 47 50 119v278q-25 17 -42 32q-33 33 -34 83q-2 62 44 91q31 19 97 19h249l-1 -192h356v-62h-355v-249v-48q2 -46 27 -75q27 -32 79 -32q55 0 95 36q24 22 35 49t13.5 45.5t2.5 58.5v117h88v-348h-88v71
q-61 -91 -174 -91q-79 0 -122 43q-21 21 -31 48q-13 39 -13 99v468h-147q-25 0 -45 -6q-25 -6 -27 -40q-3 -33 26 -59q24 -19 55 -29v-504h-88v72q-60 -92 -174 -92q-79 0 -122 43q-26 26 -35.5 60t-9.5 88z" />
    <glyph glyph-name="uniFB15" unicode="&#x574;&#x56b;" horiz-adv-x="1139" 
d="M72 171v337h88v-311q0 -87 27 -122q25 -33 80 -33t96 36q50 47 50 119v278q-25 17 -42 32q-33 33 -34 83q-2 62 44 91q31 19 97 19h249v-263q61 91 174 91q79 0 122 -43q19 -19 30 -49q14 -35 14 -98v-338h-88v311q0 38 -1 47q0 45 -26 76q-27 32 -79 32q-55 0 -95 -36
q-23 -21 -35 -50q-13 -30 -14 -48q-2 -26 -2 -55v-462h-88v823h-147q-25 0 -45 -6q-25 -6 -27 -40q-3 -33 26 -59q24 -19 55 -29v-504h-88v72q-60 -92 -174 -92q-79 0 -122 43q-26 26 -35.5 60t-9.5 88z" />
    <glyph glyph-name="uniFB16" unicode="&#x57e;&#x576;" horiz-adv-x="1139" 
d="M72 170v338h88v-311v-8q0 -87 25 -115q30 -32 81 -32q54 0 95 36q24 22 35 49t13.5 45.5t2.5 58.5v297h-45q-69 0 -107 31q-46 34 -46 111v30h84v-28q0 -43 19 -62q20 -20 57 -20h38v110h88v-110h226v-393q0 -87 27 -122q25 -33 80 -33q76 0 116 58q30 38 30 97v311h88
v-508h-88v72q-60 -92 -174 -92q-79 0 -122 43q-26 26 -35.5 60t-9.5 88v357h-138v-668h102v-62h-190v273q-61 -91 -174 -91q-79 0 -122 43q-21 21 -31 48q-13 39 -13 99z" />
    <glyph glyph-name="uniFB17" unicode="&#x574;&#x56d;" horiz-adv-x="1345" 
d="M72 171v337h88v-311q0 -87 27 -122q25 -33 80 -33t96 36q50 47 50 119v278q-25 17 -42 32q-33 33 -34 83q-2 62 44 91q31 19 97 19h249v-192h226v-311q0 -92 24 -122q23 -33 73 -33q52 0 88 36q47 47 47 119v311h88v-508h-88v72q-59 -92 -163 -92q-75 0 -115 43
q-42 46 -42 148v275h-138v-631h-88v823h-147q-25 0 -45 -6q-25 -6 -27 -40q-3 -33 26 -59q24 -19 55 -29v-504h-88v72q-60 -92 -174 -92q-79 0 -122 43q-26 26 -35.5 60t-9.5 88z" />
    <glyph glyph-name=".notdef" horiz-adv-x="233" 
 />
    <glyph glyph-name=".null" horiz-adv-x="0" 
 />
    <glyph glyph-name="nonmarkingreturn" horiz-adv-x="333" 
 />
    <glyph glyph-name="space" unicode=" " horiz-adv-x="233" 
 />
    <glyph glyph-name="exclam" unicode="!" horiz-adv-x="311" 
d="M106 431v269h99v-269l-25 -230h-49zM205 0h-99v109h99v-109z" />
    <glyph glyph-name="quotedbl" unicode="&#x22;" horiz-adv-x="420" 
d="M50 700h132l-40 -192h-52zM238 700h132l-40 -192h-52z" />
    <glyph glyph-name="numbersign" unicode="#" horiz-adv-x="580" 
d="M403 178l-26 -168h-68l26 168h-143l-26 -168h-68l26 168h-134l13 85h134l28 179h-134l13 85h134l26 167h68l-26 -167h143l26 167h68l-26 -167h134l-13 -85h-134l-28 -179h134l-13 -85h-134zM205 263h143l28 179h-143z" />
    <glyph glyph-name="dollar" unicode="$" horiz-adv-x="580" 
d="M37 208h89q2 -43 16.5 -73.5t36.5 -46.5t44 -23t45 -8v266q-135 30 -177 84q-36 48 -36 116q0 56 21.5 96t57 59t68 26.5t66.5 7.5v65h53v-65q65 -2 126 -36q35 -19 54.5 -57.5t17.5 -88.5h-86q-1 47 -32.5 81t-79.5 35v-247q114 -19 164 -68q59 -57 57 -139
q0 -96 -58 -147q-23 -20 -57 -34q-56 -21 -106 -23v-81h-53v81q-112 5 -168 58.5t-63 161.5zM321 314v-257q61 -1 96 39q36 40 36 96q0 59 -41 88q-40 28 -91 34zM268 408v238q-39 0 -79 -22q-47 -25 -47 -98q0 -94 126 -118z" />
    <glyph glyph-name="percent" unicode="%" horiz-adv-x="911" 
d="M266 0h-71l454 700h71zM53 508q0 56 17 98.5t45 63.5q50 38 102 38t101 -38q63 -46 63 -162q0 -66 -32 -127q-16 -33 -51 -53t-81 -20q-94 0 -133 73q-31 65 -31 127zM117 508q0 -47 17 -90q22 -57 83 -57t83 57q17 43 17 90q0 78 -31 112q-32 35 -69 35t-69 -35
q-31 -34 -31 -112zM530 192q0 56 17 98.5t45 63.5q50 38 102 38t101 -38q63 -46 63 -162q0 -66 -32 -127q-16 -33 -51 -53t-81 -20q-94 0 -133 73q-31 65 -31 127zM594 192q0 -47 17 -90q22 -57 83 -57t83 57q17 43 17 90q0 78 -31 112q-32 35 -69 35t-69 -35
q-31 -34 -31 -112z" />
    <glyph glyph-name="ampersand" unicode="&#x26;" horiz-adv-x="683" 
d="M542 306h79q-20 -105 -58 -164l120 -142h-105l-69 82q-31 -49 -90 -76t-127 -27q-109 0 -165 62q-55 62 -55 146q0 76 41 126.5t131 91.5q-69 81 -69 151q0 66 46 105t117 39q72 0 112 -42q41 -41 41 -99q0 -60 -40 -106t-91 -68l153 -182q19 30 29 103zM463 139
l-173 209q-127 -49 -127 -160q0 -52 36 -93q38 -41 105 -41q51 0 93 22t66 63zM287 476l30 -38q42 15 68 48t26 75q0 30 -21 51.5t-53 21.5q-34 0 -57 -19.5t-23 -56.5q0 -23 10 -46q10 -22 20 -36z" />
    <glyph glyph-name="quotesingle" unicode="'" horiz-adv-x="232" 
d="M50 700h132l-40 -192h-52z" />
    <glyph glyph-name="parenleft" unicode="(" horiz-adv-x="365" 
d="M216 700h66q-122 -236 -122 -442q0 -106 33 -223q36 -121 89 -219h-66q-88 150 -116 243q-29 96 -29 199t29 199q28 93 116 243z" />
    <glyph glyph-name="parenright" unicode=")" horiz-adv-x="365" 
d="M149 -184h-66q122 236 122 442q0 204 -122 442h66q88 -141 116 -244q29 -105 29 -198q0 -92 -29 -199q-28 -102 -116 -243z" />
    <glyph glyph-name="asterisk" unicode="*" horiz-adv-x="465" 
d="M312 403l-79 108l-80 -108l-40 30l78 108l-125 40l16 47l126 -40v132h50v-132l125 40l16 -47l-124 -40l78 -108z" />
    <glyph glyph-name="plus" unicode="+" 
d="M50 324v62h219v219h62v-219h219v-62h-219v-219h-62v219h-219z" />
    <glyph glyph-name="comma" unicode="," horiz-adv-x="311" 
d="M106 0v109h99v-140q0 -50 -28 -79t-71 -38v55q21 2 35.5 20.5t14.5 41.5v31h-50z" />
    <glyph glyph-name="hyphen" unicode="-" horiz-adv-x="422" 
d="M343 225h-264v85h264v-85z" />
    <glyph glyph-name="period" unicode="." horiz-adv-x="311" 
d="M205 0h-99v109h99v-109z" />
    <glyph glyph-name="slash" unicode="/" horiz-adv-x="420" 
d="M63 -185h-63l357 885h63z" />
    <glyph glyph-name="zero" unicode="0" horiz-adv-x="580" 
d="M336 -17q-45 -8 -93 0q-22 3 -61 24q-41 22 -68 59t-48 108q-21 75 -21 176q0 102 21 175q23 76 49 111q25 33 63.5 55t64.5 26q48 8 93 0q23 -3 62 -24q42 -22 68.5 -59t46.5 -109q22 -72 22 -175t-22 -176q-22 -75 -49 -110q-27 -36 -66 -57t-62 -24zM174 139
q38 -81 116 -81q79 0 115 81q37 80 37 211t-37 211q-36 81 -115 81q-78 0 -116 -81q-36 -81 -36 -211t36 -211z" />
    <glyph glyph-name="one" unicode="1" horiz-adv-x="580" 
d="M290 526h-160v49h21q66 0 112.5 34.5t54.5 90.5h66v-700h-94v526z" />
    <glyph glyph-name="two" unicode="2" horiz-adv-x="580" 
d="M161 79h370v-79h-474q-6 104 66 190q15 19 50 46q41 32 55 41l66 42l20 12l22 15l18 13q19 13 24 18q31 35 35 42q24 52 24 89q0 64 -37.5 99t-103.5 35q-67 0 -106 -38t-39 -101v-26h-92v21q0 54 23 105q49 115 217 118q108 0 171 -56.5t63 -155.5q5 -82 -51 -149
q-12 -15 -45 -40q-29 -22 -55 -40q-18 -12 -74 -48q-71 -45 -104 -79.5t-43 -73.5z" />
    <glyph glyph-name="three" unicode="3" horiz-adv-x="580" 
d="M40 213h90l3 -23q21 -136 146 -136q80 0 119 39q40 40 40 109q0 58 -34.5 92t-93.5 34h-72v76h28q33 0 66 8q87 24 87 113q0 54 -33.5 87.5t-104.5 33.5q-136 0 -136 -159h-87q0 57 18 108q40 122 208 126q110 0 162 -52q60 -55 60 -140q0 -57 -31.5 -99t-83.5 -56v-2
q59 -9 97 -56t38 -121q0 -101 -67 -159q-67 -57 -174 -57q-112 0 -174 55q-71 72 -71 179z" />
    <glyph glyph-name="four" unicode="4" horiz-adv-x="580" 
d="M353 0v162h-330v79l329 459h95v-459h110v-79h-110v-162h-94zM353 577l-240 -336h240v336z" />
    <glyph glyph-name="five" unicode="5" horiz-adv-x="580" 
d="M46 179h92q5 -47 39 -86t105 -39q163 0 163 173q0 86 -45 125q-43 40 -109 40q-37 0 -79 -17q-43 -17 -58 -44h-88l49 369h378v-79h-309l-28 -207q61 53 158 53q98 0 158 -65q61 -64 61 -174q0 -114 -65 -181.5t-186 -67.5q-129 0 -183 71q-47 61 -53 129z" />
    <glyph glyph-name="six" unicode="6" horiz-adv-x="580" 
d="M525 546h-84q-24 100 -134 100q-170 0 -170 -259h2q56 74 171 74q98 0 161 -64q64 -63 64 -171q0 -112 -64 -179q-65 -68 -176 -68q-61 0 -105 17.5t-78 58t-51 112t-17 174.5q3 221 84 306q44 48 101 64q35 10 79 10q43 0 84 -13q32 -11 56 -27q61 -44 77 -135zM143 224
q0 -72 40 -121t116 -49q71 0 109 50q37 49 37 123q0 70 -39.5 114.5t-108.5 44.5q-72 0 -113 -43.5t-41 -118.5z" />
    <glyph glyph-name="seven" unicode="7" horiz-adv-x="580" 
d="M453 621h-419v79h511v-64q-123 -138 -194 -314q-57 -136 -77 -322h-100q21 167 84 314q78 178 195 307z" />
    <glyph glyph-name="eight" unicode="8" horiz-adv-x="580" 
d="M181 379q-47 17 -74 59.5t-27 94.5q0 64 41 121q49 67 169 67t169 -67q41 -57 41 -121q0 -52 -27 -94.5t-74 -59.5q58 -15 92 -67q35 -52 35 -114q0 -96 -60 -158q-60 -61 -176 -61t-176 61q-60 62 -60 158q0 64 34 114q34 52 93 67zM414 530q0 36 -21 71q-25 45 -103 45
q-77 0 -104 -45q-20 -36 -20 -71q0 -54 31 -86t93 -32t93 32t31 86zM290 54q57 0 101 38q45 38 45 111q0 55 -34 95q-34 42 -112 42t-112 -42q-34 -40 -34 -95q0 -73 44 -111t102 -38z" />
    <glyph glyph-name="nine" unicode="9" horiz-adv-x="580" 
d="M54 154h84q24 -100 134 -100q170 0 170 259h-2q-56 -74 -171 -74q-99 0 -162 63q-63 64 -63 172q0 112 64 179q65 68 176 68q45 0 76 -7t64 -29q107 -64 111 -326q0 -380 -264 -380q-42 0 -85 13q-106 30 -132 162zM436 476q0 71 -40 120q-41 50 -116 50q-71 0 -109 -50
q-37 -49 -37 -123q0 -71 39 -115t109 -44q72 0 113 43.5t41 118.5z" />
    <glyph glyph-name="colon" unicode=":" horiz-adv-x="311" 
d="M205 399h-99v109h99v-109zM205 0h-99v109h99v-109z" />
    <glyph glyph-name="semicolon" unicode=";" horiz-adv-x="311" 
d="M106 0v109h99v-140q0 -50 -28 -79t-71 -38v55q21 2 35.5 20.5t14.5 41.5v31h-50zM205 399h-99v109h99v-109z" />
    <glyph glyph-name="semicolon" unicode="&#x37e;" horiz-adv-x="311" 
d="M106 0v109h99v-140q0 -50 -28 -79t-71 -38v55q21 2 35.5 20.5t14.5 41.5v31h-50zM205 399h-99v109h99v-109z" />
    <glyph glyph-name="less" unicode="&#x3c;" horiz-adv-x="669" 
d="M60 318v48l495 285l30 -54l-449 -255l449 -255l-30 -54z" />
    <glyph glyph-name="equal" unicode="=" 
d="M50 414v62h500v-62h-500zM50 214v62h500v-62h-500z" />
    <glyph glyph-name="greater" unicode="&#x3e;" horiz-adv-x="669" 
d="M609 366v-48l-495 -285l-30 54l449 255l-449 255l30 54z" />
    <glyph glyph-name="question" unicode="?" horiz-adv-x="548" 
d="M323 0h-99v109h99v-109zM144 489h-87q-4 98 47 163q53 65 178 65q101 0 159 -47.5t58 -133.5q0 -56 -24 -93q-22 -37 -79 -86q-30 -25 -42 -37q-43 -41 -43 -96v-21h-73q-10 94 45 152q5 6 51 47q44 38 61 65.5t17 64.5q0 43 -31 77q-32 36 -100 36q-141 0 -137 -156z
" />
    <glyph glyph-name="at" unicode="@" horiz-adv-x="863" 
d="M588 82l29 -53q-86 -50 -186 -50q-159 0 -266 98q-105 99 -105 274q0 162 107 266t264 104q92 0 164.5 -28.5t117 -78t67.5 -111.5t23 -132q0 -85 -50 -155q-49 -69 -132 -69q-68 0 -89 48q-27 -54 -122 -54q-81 0 -127 53t-46 144q0 86 45 141q45 56 121 56
q82 0 118 -55h3v41h76v-252q0 -33 9.5 -45.5t28.5 -12.5q51 0 76 49q26 50 26 111q0 138 -88 216q-87 78 -221 78q-137 0 -223 -93q-85 -91 -85 -221q0 -77 27 -140t73 -101q92 -74 208 -74q87 0 157 46zM517 337q0 132 -96 132q-49 0 -74.5 -36t-25.5 -96q-2 -53 21 -91
t78 -40q55 0 76 39q21 40 21 92z" />
    <glyph glyph-name="A" unicode="A" horiz-adv-x="622" 
d="M459 181h-296l-66 -181h-101l265 700h100l265 -700h-101zM311 605l-122 -345h244z" />
    <glyph glyph-name="B" unicode="B" horiz-adv-x="689" 
d="M85 0v700h307q60 0 103 -15.5t65 -43t31.5 -56.5t9.5 -63q0 -56 -34 -99q-33 -43 -83 -51v-3q25 -4 48 -14t46.5 -29t38 -53t14.5 -78q0 -195 -250 -195h-296zM371 621h-192v-218h189q69 0 103 29.5t34 79.5q0 18 -5 34.5t-18 34.5t-41.5 29t-69.5 11zM374 324h-195v-245
h195q46 0 84 11q77 23 77 113q0 121 -161 121z" />
    <glyph glyph-name="C" unicode="C" horiz-adv-x="712" 
d="M580 232h94q-8 -70 -45 -132q-70 -120 -251 -121q-156 0 -245 95q-88 95 -88 264q3 216 111 307q55 48 128 65q47 11 91 11q263 0 290 -237h-94q-5 50 -40 97q-41 61 -156 61q-63 0 -109.5 -25t-71.5 -68.5t-37 -95t-12 -111.5q0 -126 64 -205t173 -79q83 0 138 49
q56 50 60 125z" />
    <glyph glyph-name="D" unicode="D" horiz-adv-x="719" 
d="M85 0v700h257q28 0 41 -1q60 -2 121 -29q32 -13 64.5 -40t53.5 -61q53 -80 53 -217q-6 -207 -108 -283q-36 -27 -65 -39.5t-71 -19.5q-41 -8 -66 -9q-16 -1 -58 -1h-222zM337 621h-158v-542h131q136 0 200.5 65.5t64.5 205.5q0 76 -20 131t-55 84.5t-75 42.5t-88 13z" />
    <glyph glyph-name="E" unicode="E" horiz-adv-x="612" 
d="M179 621v-220h367v-79h-367v-243h416v-79h-510v700h499v-79h-405z" />
    <glyph glyph-name="F" unicode="F" horiz-adv-x="568" 
d="M179 621v-228h329v-79h-329v-314h-94v700h470v-79h-376z" />
    <glyph glyph-name="G" unicode="G" horiz-adv-x="740" 
d="M396 286v79h286v-365h-73v113h-2q-30 -64 -90.5 -99t-142.5 -35q-133 0 -227 82q-102 92 -102 296q0 175 91 269q92 95 251 95q132 0 202 -66q73 -67 83 -162h-94q-4 59 -50 104q-45 45 -143 45q-60 0 -107 -22.5t-73 -56.5q-23 -31 -39 -76q-21 -65 -21 -133
q0 -21 1 -33q8 -62 22 -106q58 -157 216 -157q59 0 103.5 22.5t67.5 59.5q41 69 41 146h-200z" />
    <glyph glyph-name="H" unicode="H" horiz-adv-x="710" 
d="M531 329h-352v-329h-94v700h94v-292h352v292h94v-700h-94v329z" />
    <glyph glyph-name="I" unicode="I" horiz-adv-x="264" 
d="M85 0v700h94v-700h-94z" />
    <glyph glyph-name="J" unicode="J" horiz-adv-x="520" 
d="M23 196v36h94q0 -90 28 -132t93 -42q66 0 91 41.5t25 133.5v467h94v-458q0 -140 -49 -201.5t-162 -61.5q-214 0 -214 217z" />
    <glyph glyph-name="K" unicode="K" horiz-adv-x="667" 
d="M179 700v-347l346 347h127l-292 -288l311 -412h-125l-255 349l-112 -109v-240h-94v700h94z" />
    <glyph glyph-name="L" unicode="L" horiz-adv-x="529" 
d="M179 79h356v-79h-450v700h94v-621z" />
    <glyph glyph-name="M" unicode="M" horiz-adv-x="890" 
d="M483 0h-76l-228 588h-2l2 -27v-561h-94v700h141l219 -576l219 576h141v-700h-94v561l2 27h-3z" />
    <glyph glyph-name="N" unicode="N" horiz-adv-x="740" 
d="M552 0l-373 555v-555h-94v700h104l372 -555v555h94v-700h-103z" />
    <glyph glyph-name="O" unicode="O" horiz-adv-x="758" 
d="M45 350q0 180 91 275q92 96 243 96q104 0 184 -49q69 -40 109 -120.5t41 -201.5q0 -73 -17 -136q-32 -110 -102 -164q-63 -48 -131 -61q-43 -10 -84 -10q-23 0 -34 1q-55 3 -117 29q-82 39 -126 107q-57 91 -57 234zM145 350q0 -82 25 -151q51 -141 209 -141q19 0 28 1
q43 2 84 25q122 64 122 266q0 131 -59 211q-58 81 -175 81q-58 0 -104 -23t-72 -58q-24 -33 -37 -76q-21 -65 -21 -135z" />
    <glyph glyph-name="P" unicode="P" horiz-adv-x="639" 
d="M85 0v700h285q237 0 237 -201q0 -220 -246 -220h-182v-279h-94zM351 621h-172v-263h172q83 0 121.5 34.5t38.5 104.5q0 65 -39 94.5t-121 29.5z" />
    <glyph glyph-name="Q" unicode="Q" horiz-adv-x="758" 
d="M612 62l79 -87l-52 -49l-83 93q-64 -40 -177 -40q-75 0 -136 23.5t-99 62.5q-52 57 -76.5 133t-22.5 152q0 95 35 181q22 53 57 94q37 43 100 69.5t142 26.5q151 0 242 -96q92 -97 92 -275q0 -179 -101 -288zM417 173l54 47l79 -89q63 81 63 219q0 145 -62 216
q-25 30 -60 48q-53 28 -112 28q-60 0 -115 -29q-33 -17 -59 -48q-60 -71 -60 -215q0 -80 25 -149q52 -143 209 -143q73 0 116 28z" />
    <glyph glyph-name="R" unicode="R" horiz-adv-x="681" 
d="M179 0h-94v700h310q232 0 232 -188q0 -63 -33 -112q-31 -49 -87 -61v-3q68 -26 85 -72q15 -41 16 -97v-37q1 -18 2 -34t1 -22q1 -17 7 -40q4 -13 18 -34h-99q-18 24 -22 50q-4 24 -4 98q0 62 -19 100q-24 49 -113 49h-200v-297zM375 621h-196v-245h210q21 0 41.5 5t44 17
t38 39t14.5 65q0 119 -152 119z" />
    <glyph glyph-name="S" unicode="S" horiz-adv-x="656" 
d="M45 222h94q-2 -72 52 -118q53 -46 148 -46q84 0 128 36t44 94q0 63 -47 89q-44 24 -94 34q-31 6 -47 10t-47 10l-42 10q-26 7 -74 27q-26 12 -56 42q-35 38 -35 110q0 96 71.5 148.5t193.5 52.5q123 0 187 -58q65 -57 72 -145h-94q-13 124 -168 124q-73 0 -117.5 -31.5
t-44.5 -85.5q-6 -48 52 -84q8 -6 38 -14l39 -10q11 -1 46 -9q37 -7 48 -10l45 -11q35 -8 86 -34q35 -17 63 -62q25 -33 25 -101q-4 -125 -92 -171q-50 -27 -106 -34q-34 -6 -79 -6q-277 0 -289 243z" />
    <glyph glyph-name="T" unicode="T" horiz-adv-x="575" 
d="M241 0v621h-228v79h549v-79h-227v-621h-94z" />
    <glyph glyph-name="U" unicode="U" horiz-adv-x="696" 
d="M72 271v429h94v-417q0 -65 14 -116q28 -104 168 -109q99 0 140.5 53.5t41.5 171.5v417h94v-429q-4 -170 -85 -235q-49 -38 -104 -49q-40 -8 -87 -8q-69 0 -124 19t-84 48q-28 28 -44 71q-24 65 -24 154z" />
    <glyph glyph-name="V" unicode="V" horiz-adv-x="594" 
d="M99 700l198 -603l198 603h103l-245 -700h-112l-245 700h103z" />
    <glyph glyph-name="W" unicode="W" horiz-adv-x="822" 
d="M556 0l-145 589l-145 -589h-120l-186 700h106l146 -588l145 588h108l145 -588l146 588h106l-186 -700h-120z" />
    <glyph glyph-name="X" unicode="X" horiz-adv-x="570" 
d="M110 700l175 -275l175 275h117l-232 -342l245 -358h-121l-184 291l-184 -291h-121l245 358l-232 342h117z" />
    <glyph glyph-name="Y" unicode="Y" horiz-adv-x="453" 
d="M32 700l195 -324l194 324h112l-259 -408v-292h-94v292l-260 408h112z" />
    <glyph glyph-name="Z" unicode="Z" horiz-adv-x="593" 
d="M48 621v79h499v-75l-406 -546h426v-79h-541v86l411 535h-389z" />
    <glyph glyph-name="bracketleft" unicode="[" horiz-adv-x="370" 
d="M106 -185v885h211v-62h-123v-761h123v-62h-211z" />
    <glyph glyph-name="backslash" unicode="\" horiz-adv-x="420" 
d="M63 700l357 -885h-63l-357 885h63z" />
    <glyph glyph-name="bracketright" unicode="]" horiz-adv-x="370" 
d="M53 638v62h211v-885h-211v62h122v761h-122z" />
    <glyph glyph-name="asciicircum" unicode="^" horiz-adv-x="442" 
d="M56 482l120 218h90l120 -218h-70l-95 175l-95 -175h-70z" />
    <glyph glyph-name="underscore" unicode="_" horiz-adv-x="497" 
d="M497 -185h-497v52h497v-52z" />
    <glyph glyph-name="grave" unicode="`" horiz-adv-x="312" 
d="M42 700h106l70 -132h-80z" />
    <glyph glyph-name="a" unicode="a" horiz-adv-x="553" 
d="M139 358h-84q0 60 40 110q48 60 176 60q75 0 132 -30q33 -16 52 -53t18 -88l-5 -235q0 -29 6 -45q9 -16 47 -15v-62q-15 -4 -40 -4q-44 0 -63.5 15t-27.5 59q-49 -90 -174 -90q-86 0 -132.5 38.5t-46.5 114.5q0 72 52 109q52 39 197 52q67 5 80 13q19 13 19 57
q0 102 -114 102q-135 0 -132 -108zM383 217l2 43q-15 -11 -44 -18q-44 -3 -68 -7q-83 -14 -101 -23q-44 -21 -44 -76q0 -44 26.5 -69t71.5 -25q29 0 53.5 8t48 26.5t38 54.5t17.5 86z" />
    <glyph glyph-name="b" unicode="b" horiz-adv-x="601" 
d="M72 0v700h88v-258q41 86 167 86q59 0 106 -22.5t70 -55.5q23 -30 36 -73q19 -57 19 -122q0 -63 -15.5 -113t-39.5 -79.5t-56 -49t-62 -26.5t-60 -7q-107 0 -168 90h-3v-70h-82zM154 257q0 -106 42.5 -160.5t109.5 -54.5q73 0 116 53t43 160q0 104 -41.5 157.5
t-112.5 53.5t-114 -53.5t-43 -155.5z" />
    <glyph glyph-name="c" unicode="c" horiz-adv-x="548" 
d="M428 181h84q-4 -58 -44 -122q-22 -36 -68.5 -57.5t-108.5 -21.5q-21 0 -30 1q-44 2 -90 23q-128 64 -128 254q0 100 46 178q57 92 196 92q98 0 156 -49.5t67 -129.5h-84q-20 117 -137 117q-76 0 -113.5 -55.5t-37.5 -152.5q0 -94 39 -155t118 -61q68 0 99 43q33 43 36 96
z" />
    <glyph glyph-name="d" unicode="d" horiz-adv-x="599" 
d="M439 442v258h88v-700h-82v70h-3q-46 -90 -168 -90q-108 0 -170 75q-61 74 -61 200q0 80 24 141q51 132 205 132q116 0 167 -86zM136 255q0 -55 12 -96t28.5 -62.5t39.5 -34.5t40.5 -16.5t36.5 -3.5q67 0 109.5 54.5t42.5 160.5q0 101 -43 155t-114 54q-70 0 -111 -54
t-41 -157z" />
    <glyph glyph-name="e" unicode="e" horiz-adv-x="570" 
d="M438 147h84q-12 -67 -65 -117t-157 -50q-141 0 -207 93q-33 49 -43 105q-7 39 -7 74q0 67 20 126q13 42 38 73q27 33 77 55t113 22q112 0 169 -62q24 -26 39 -66q22 -58 27 -141q0 -3 0.5 -13t0.5 -12h-391q0 -76 40 -134t121 -58q58 0 95 29t46 76zM136 296h298
q-1 59 -28 109q-31 61 -113 61q-93 0 -128 -62q-29 -50 -29 -108z" />
    <glyph glyph-name="f" unicode="f" horiz-adv-x="319" 
d="M195 508h111v-62h-111v-446h-88v446h-94v62h94v69q0 66 32.5 96.5t101.5 30.5q12 0 65 -4v-62q-9 1 -62 1q-49 0 -49 -70v-61z" />
    <glyph glyph-name="g" unicode="g" 
d="M82 -57h84q19 -73 134 -73q84 0 121 69q10 16 13 37q6 32 6 52v55q-35 -57 -71.5 -80t-92.5 -23q-98 0 -164 70q-65 71 -65 208q0 26 1 37l7 53q4 33 19 63q23 51 71 85.5t122 31.5q127 0 176 -90h3v70h82v-495q0 -52 -18.5 -93.5t-47.5 -63.5q-26 -20 -62 -32
q-50 -17 -100 -17h-27q-40 0 -70 10q-51 18 -73 39q-35 35 -48 87zM296 42q32 0 66 20q81 44 84 198q0 98 -40.5 152t-117.5 54q-148 0 -148 -205q0 -113 42 -166q50 -55 114 -53z" />
    <glyph glyph-name="h" unicode="h" horiz-adv-x="572" 
d="M72 0v700h88v-263q67 91 174 91q166 0 166 -190v-338h-88v311q0 31 -1 39q0 11 -5 39q-7 37 -30 55t-70 22q-47 0 -90 -31q-56 -41 -56 -158v-277h-88z" />
    <glyph glyph-name="i" unicode="i" horiz-adv-x="228" 
d="M70 0v508h88v-508h-88zM158 608h-88v92h88v-92z" />
    <glyph glyph-name="j" unicode="j" horiz-adv-x="231" 
d="M73 -36v544h88v-555q0 -74 -27.5 -108t-92.5 -34q-14 0 -57 4v62q42 7 53 12q4 1 11 2.5t9.5 3.5t5.5 7q1 2 3 4l3 3t1.5 3t1 5t0.5 8q1 16 1 39zM161 608h-88v92h88v-92z" />
    <glyph glyph-name="k" unicode="k" horiz-adv-x="523" 
d="M160 700v-434l242 242h105l-200 -196l220 -312h-102l-179 258l-86 -85v-173h-88v700h88z" />
    <glyph glyph-name="l" unicode="l" horiz-adv-x="232" 
d="M72 0v700h88v-700h-88z" />
    <glyph glyph-name="m" unicode="m" horiz-adv-x="872" 
d="M72 0v508h88v-69l-1 -6q20 42 64 68.5t93 26.5q58 0 95.5 -30.5t49.5 -78.5q19 40 62 74q44 35 114 35q163 0 163 -200v-328h-88v322q0 144 -98 144q-55 0 -95 -37q-39 -37 -39 -126v-303h-88v321q0 145 -98 145q-56 0 -95 -45t-39 -118v-303h-88z" />
    <glyph glyph-name="n" unicode="n" horiz-adv-x="573" 
d="M72 0v508h88v-71q61 91 174 91q167 0 167 -190v-338h-88v311q0 29 -1 38q0 13 -6 39q-6 36 -29.5 55t-70.5 23q-47 0 -90 -31q-56 -41 -56 -158v-277h-88z" />
    <glyph glyph-name="o" unicode="o" horiz-adv-x="586" 
d="M56 154q-26 107 2 207t118 143q50 24 117 24t117 -24q90 -42 119 -150q13 -50 13.5 -100.5t-12 -99t-43 -88.5t-77.5 -63q-51 -23 -117 -23t-117 23q-87 42 -120 151zM149 355q-13 -40 -13 -100q0 -59 13 -101t30 -63q36 -40 82 -47q32 -5 64 0q14 1 39 14q27 14 44 35
t29 61q13 42 13 101q0 60 -13 100q-14 44 -31 63q-16 19 -40 32t-41 16q-32 5 -64 0q-14 -1 -40 -15q-51 -25 -72 -96z" />
    <glyph glyph-name="p" unicode="p" horiz-adv-x="597" 
d="M72 -185v693h82v-70h3q60 90 168 90q99 0 164 -69q65 -70 65 -205q0 -138 -66 -206q-65 -68 -161 -68q-30 0 -73 13q-63 19 -94 80v-258h-88zM154 252q0 -106 48 -159q50 -51 109 -51q62 0 106 50q44 52 44 162q0 100 -40.5 156t-114.5 56q-39 0 -73 -21
q-79 -47 -79 -193z" />
    <glyph glyph-name="q" unicode="q" horiz-adv-x="598" 
d="M444 438v70h82v-693h-88v257q-48 -92 -167 -92q-108 0 -164 68q-66 83 -64 206q0 117 59 196q60 78 172 78q108 0 167 -90h3zM136 254q0 -112 44 -162q45 -50 108 -50q60 0 108 51t48 159q0 114 -45 164q-44 50 -106 50q-72 0 -114.5 -53.5t-42.5 -158.5z" />
    <glyph glyph-name="r" unicode="r" horiz-adv-x="369" 
d="M330 527l26 1v-62q-95 -4 -142 -45.5t-53 -132.5q-1 -6 -1 -27v-27v-234h-88v508h88v-98h2q17 53 63 84t105 33z" />
    <glyph glyph-name="s" unicode="s" horiz-adv-x="506" 
d="M36 151h88q2 -54 40 -81.5t98 -27.5q61 0 92 27q11 11 17 27q8 19 8 42q0 29 -20 49q-18 18 -87 35l-54 12q-69 16 -111 40q-49 31 -49 108q0 78 56 112t137 34q193 0 206 -153h-84q-9 91 -119 91q-17 0 -41 -5q-64 -15 -64 -75q0 -19 11 -43q5 -9 31 -25q5 -3 24.5 -9
t20.5 -6l26 -6l27 -5q41 -9 60 -15q18 -4 47 -17q39 -16 54.5 -41.5t19.5 -74.5q0 -43 -19.5 -76.5t-47.5 -50.5q-24 -16 -60 -25q-45 -12 -82 -12q-105 0 -164 47t-61 124z" />
    <glyph glyph-name="t" unicode="t" horiz-adv-x="320" 
d="M13 446v62h91v152h88v-152h108v-62h-108v-323v-5q-1 -35 7.5 -48.5t45.5 -16.5q23 0 55 9v-62q-48 -20 -92 -20q-58 0 -82 28q-9 9 -16 31q-6 23 -6 66v341h-91z" />
    <glyph glyph-name="u" unicode="u" horiz-adv-x="573" 
d="M501 508v-508h-88v72h-2q-22 -40 -65 -63q-55 -29 -107 -29q-167 0 -167 191v337h88v-311q0 -86 25.5 -120.5t81.5 -34.5q146 0 146 189v277h88z" />
    <glyph glyph-name="v" unicode="v" horiz-adv-x="470" 
d="M91 508l144 -420l144 420h95l-188 -508h-102l-188 508h95z" />
    <glyph glyph-name="w" unicode="w" horiz-adv-x="720" 
d="M466 0l-106 407l-106 -407h-94l-164 508h91l124 -407l106 407h86l106 -407l124 407h91l-164 -508h-94z" />
    <glyph glyph-name="x" unicode="x" horiz-adv-x="484" 
d="M112 508l130 -188l130 188h98l-178 -243l192 -265h-98l-144 209l-144 -209h-98l192 265l-178 243h98z" />
    <glyph glyph-name="y" unicode="y" horiz-adv-x="498" 
d="M91 -184v65q38 -5 44 -5q38 0 54 28q10 15 13 25q3 5 13 33l12 38l-220 508h105l163 -411l135 411h88l-202 -568q-24 -68 -41 -89q-34 -40 -92 -40q-45 0 -72 5z" />
    <glyph glyph-name="z" unicode="z" horiz-adv-x="468" 
d="M47 446v62h380v-62l-295 -384h310v-62h-416v62l304 384h-283z" />
    <glyph glyph-name="braceleft" unicode="{" horiz-adv-x="366" 
d="M75 224v66q38 3 63.5 35.5t25.5 99.5q0 6 -2 54t-2 53q0 159 156 168v-53q-70 -15 -70 -95q0 -26 3 -53q3 -29 3 -57q0 -69 -27.5 -112.5t-88.5 -71.5v-2q61 -28 88.5 -71.5t27.5 -112.5q0 -28 -3 -57q-3 -27 -3 -53q0 -80 70 -95v-53q-156 9 -156 168q0 5 2 53t2 54
q0 121 -89 135z" />
    <glyph glyph-name="bar" unicode="|" horiz-adv-x="478" 
d="M270 -224h-62v1053h62v-1053z" />
    <glyph glyph-name="braceright" unicode="}" horiz-adv-x="366" 
d="M291 290v-66q-89 -14 -89 -135q0 -6 2 -54t2 -53q0 -159 -156 -168v53q70 15 70 95q0 26 -3 53q-3 29 -3 57q0 69 27.5 112.5t88.5 71.5v2q-61 28 -88.5 71.5t-27.5 112.5q0 28 3 57q3 27 3 53q0 80 -70 95v53q156 -9 156 -168q0 -5 -2 -53t-2 -54q0 -67 25.5 -99.5
t63.5 -35.5z" />
    <glyph glyph-name="asciitilde" unicode="~" 
d="M89 288l-39 16q21 56 54.5 92t78.5 36q46 0 87 -23l103 -55q1 -1 7.5 -4t19.5 -6t25 -3q54 0 86 81l39 -16q-17 -50 -51 -89t-82 -39q-46 0 -87 23l-103 55q-27 13 -53 13q-27 0 -50 -22.5t-35 -58.5z" />
    <glyph glyph-name="uni00A0" unicode="&#xa0;" horiz-adv-x="233" 
 />
    <glyph glyph-name="exclamdown" unicode="&#xa1;" horiz-adv-x="311" 
d="M205 77v-262h-99v262l25 231h49zM106 508h99v-109h-99v109z" />
    <glyph glyph-name="cent" unicode="&#xa2;" horiz-adv-x="580" 
d="M444 181h84q-8 -83 -60 -141q-51 -58 -135 -60v-72h-53v72q-47 1 -85.5 18t-63.5 44t-41.5 63.5t-23.5 74.5t-7 78q0 122 59 195q60 73 162 75v66h53v-66q74 -3 127 -52q55 -48 64 -127h-84q-7 47 -34.5 79t-72.5 38v-424q49 6 78.5 45.5t32.5 93.5zM280 42v424
q-48 -5 -77 -38q-51 -57 -51 -170q0 -83 31 -144t97 -72z" />
    <glyph glyph-name="sterling" unicode="&#xa3;" horiz-adv-x="580" 
d="M507 106l44 -60q-67 -67 -132 -67q-49 0 -122 30q-2 1 -17.5 7.5t-18.5 7.5q-16 7 -48 7q-58 0 -108 -38l-45 65q101 71 101 167q0 28 -16 79h-104v61h73q-22 49 -30 75q-8 27 -8 65q0 125 88 177q46 27 96 34q36 5 59 5q61 0 109 -22q33 -14 56 -38q56 -58 56 -179h-89
v32q0 64 -35.5 103t-102.5 39q-66 0 -105.5 -43.5t-39.5 -113.5q0 -30 9 -54q5 -16 9 -22l29 -58h141v-61h-117q9 -27 9 -62q0 -85 -65 -144l2 -6q27 11 73 11q31 0 82 -20q57 -23 82 -23q48 0 85 46z" />
    <glyph glyph-name="currency" unicode="&#xa4;" horiz-adv-x="825" 
d="M132 -13l-66 66l111 111q-52 73 -52 166q0 96 52 166l-111 112l66 66l110 -112q73 57 170 57q102 0 170 -57l111 112l66 -66l-111 -112q53 -73 53 -166q0 -90 -53 -166l111 -111l-66 -66l-111 111q-74 -56 -170 -56q-103 0 -170 56zM412 116q89 0 152 63q63 65 63 151
q0 88 -64 151q-63 64 -151 64q-87 0 -150 -64q-63 -63 -63 -151q0 -87 62 -151q63 -63 151 -63z" />
    <glyph glyph-name="yen" unicode="&#xa5;" horiz-adv-x="580" 
d="M95 700l195 -324l194 324h112l-259 -408v-39h105v-46h-105v-32h105v-46h-105v-129h-94v129h-105v46h105v32h-105v46h105v39l-260 408h112z" />
    <glyph glyph-name="brokenbar" unicode="&#xa6;" horiz-adv-x="478" 
d="M208 -224v430h62v-430h-62zM270 829v-430h-62v430h62z" />
    <glyph glyph-name="section" unicode="&#xa7;" horiz-adv-x="579" 
d="M452 557h-74q-4 61 -27.5 82.5t-60.5 19.5q-36 0 -55.5 -19t-19.5 -52q3 -29 13.5 -46.5t34.5 -32.5l30 -15l36 -15l37 -15q77 -33 113 -77.5t36 -112.5q0 -121 -122 -159q61 -19 61 -112q0 -78 -51 -114q-22 -15 -48 -22q-34 -11 -76 -11q-83 0 -127 48q-17 20 -27 47
q-14 39 -14 82l74 -1q-3 -45 22 -77.5t71 -32.5q92 0 92 76q4 35 -30 64q-7 9 -47 27q-6 4 -31 13l-31 13q-70 30 -109 63q-58 50 -58 136q0 65 32 106t87 53q-53 38 -53 117q0 59 43 97t118 38q39 0 74 -13q86 -26 87 -155zM300 163l32 -13q42 11 70 44t28 84q0 52 -39 85
q-37 34 -147 73q-96 -27 -96 -117q0 -24 8 -50q3 -9 11 -21q4 -4 9 -10.5t9.5 -11.5t13.5 -11q29 -18 45 -26l26 -12z" />
    <glyph glyph-name="dieresis" unicode="&#xa8;" horiz-adv-x="386" 
d="M138 608h-88v92h88v-92zM336 608h-88v92h88v-92z" />
    <glyph glyph-name="copyright" unicode="&#xa9;" horiz-adv-x="806" 
d="M155 102q-102 104 -102 248q0 145 102 247q102 103 248 103t248 -103q102 -102 102 -247q0 -144 -102 -248q-102 -102 -248 -102t-248 102zM201 560q-82 -85 -82 -210t82 -211q83 -86 202 -86q118 0 201 86q83 88 83 211q0 124 -83 210q-82 87 -201 87t-202 -87zM485 297
h66q-23 -125 -144 -125q-97 0 -135 65q-31 53 -31 114q0 54 15.5 93t41 58.5t51.5 28t54 8.5q52 0 95 -28q44 -27 44 -87h-62q-9 65 -77 65q-94 0 -94 -138q0 -25 6 -51q6 -27 30 -52q24 -26 63 -26q37 0 55.5 21.5t21.5 53.5z" />
    <glyph glyph-name="ordfeminine" unicode="&#xaa;" horiz-adv-x="368" 
d="M106 619h-50q0 45 31 73.5t99 28.5q65 0 94 -29q30 -33 27 -74l-3 -141q0 -11 0.5 -16t3.5 -11t9.5 -8t18.5 -1v-37q-18 -2 -24 -2q-52 0 -55 44q-31 -54 -104 -54q-108 0 -108 92q0 58 53 76q36 13 87 19q1 0 5 0.5t5 0.5q35 4 44 7q15 6 15 35q0 17 -8 34
q-12 28 -60 28q-77 0 -80 -65zM253 534l1 26q-6 -6 -18 -8l-49 -7q-10 0 -30 -5q-25 -6 -26 -7q-32 -13 -31 -47q0 -27 16 -42t43 -15q39 0 65.5 25.5t28.5 79.5zM336 323h-299v31h299v-31z" />
    <glyph glyph-name="guillemotleft" unicode="&#xab;" horiz-adv-x="462" 
d="M211 362l-106 -90l106 -90v-82l-149 131v82l149 131v-82zM387 362l-106 -90l106 -90v-82l-149 131v82l149 131v-82z" />
    <glyph glyph-name="logicalnot" unicode="&#xac;" 
d="M50 324v62h500v-202h-62v140h-438z" />
    <glyph glyph-name="uni00AD" unicode="&#xad;" horiz-adv-x="422" 
d="M343 225h-264v85h264v-85z" />
    <glyph glyph-name="registered" unicode="&#xae;" horiz-adv-x="806" 
d="M155 102q-102 104 -102 248q0 145 102 247q102 103 248 103t248 -103q102 -102 102 -247q0 -144 -102 -248q-102 -102 -248 -102t-248 102zM201 560q-82 -85 -82 -210t82 -211q83 -86 202 -86q118 0 201 86q83 88 83 211q0 124 -83 210q-82 87 -201 87t-202 -87zM340 178
h-65v350h155q34 0 70 -16q45 -20 45 -85q0 -54 -59 -80v-2q22 -5 32 -20q3 -4 5.5 -7.5t4.5 -8.5t3 -7t2 -8.5t1 -8.5t1 -11.5t1 -12.5q2 -30 2 -48q5 -25 12 -35h-67q-5 5 -7 11t-2.5 12t-1.5 23l-2 34q0 15 -2 24t-9 20t-23.5 16t-42.5 5h-53v-145zM408 480h-68v-109h75
q64 0 64 56q0 29 -17 41t-54 12z" />
    <glyph glyph-name="overscore" unicode="&#xaf;" horiz-adv-x="416" 
d="M208 613h-158v60h316v-60h-158z" />
    <glyph glyph-name="degree" unicode="&#xb0;" horiz-adv-x="266" 
d="M65 537q-28 28 -28 68t28 68t68 28t68 -28t28 -68t-28 -68t-68 -28t-68 28zM98 640q-15 -15 -15 -35t15 -35t35 -15t35 15t15 35t-15 35t-35 15t-35 -15z" />
    <glyph glyph-name="plusminus" unicode="&#xb1;" 
d="M50 389v62h219v199h62v-199h219v-62h-219v-179h-62v179h-219zM50 80v62h500v-62h-500z" />
    <glyph glyph-name="twosuperior" unicode="&#xb2;" horiz-adv-x="360" 
d="M100 328h222v-48h-285q1 70 33 106q29 35 109 85q46 28 66 53t20 61q0 34 -20.5 57t-63.5 23q-42 0 -64.5 -22t-22.5 -61v-16h-56v13q0 11 2 24t10.5 34t22.5 36.5t42.5 27.5t66.5 12q65 0 103 -34t38 -94q0 -23 -12 -59q-2 -8 -16.5 -25t-14.5 -18q-6 -6 -22 -18
l-21 -16l-26 -16l-23 -14q-46 -29 -65 -49t-23 -42z" />
    <glyph glyph-name="threesuperior" unicode="&#xb3;" horiz-adv-x="360" 
d="M34 408h54q0 -51 29 -72t61 -21q18 0 35 3.5t37 24.5t20 58q0 35 -20 54.5t-54 19.5h-43v48h17q90 0 90 72q0 30 -20 50t-61 20q-77 0 -82 -93h-52q0 57 30 99q31 42 106 42q61 0 97 -31t36 -85q0 -71 -69 -93v-3q37 -6 59 -33t22 -71q0 -60 -39.5 -95t-105.5 -35
q-86 0 -118 50q-28 44 -29 91z" />
    <glyph glyph-name="acute" unicode="&#xb4;" horiz-adv-x="312" 
d="M94 568l70 132h106l-96 -132h-80z" />
    <glyph glyph-name="mu" unicode="&#xb5;" horiz-adv-x="580" 
d="M173 52v-237h-88v693h88v-277q0 -181 117 -181t117 181v277h88v-386q0 -20 1.5 -31t11.5 -21.5t30 -8.5l10 1v-62q-24 -4 -43 -4q-98 0 -98 66q-43 -82 -117 -82q-34 0 -65.5 19t-51.5 53z" />
    <glyph glyph-name="mu" unicode="&#x3bc;" horiz-adv-x="580" 
d="M173 52v-237h-88v693h88v-277q0 -181 117 -181t117 181v277h88v-386q0 -20 1.5 -31t11.5 -21.5t30 -8.5l10 1v-62q-24 -4 -43 -4q-98 0 -98 66q-43 -82 -117 -82q-34 0 -65.5 19t-51.5 53z" />
    <glyph glyph-name="paragraph" unicode="&#xb6;" horiz-adv-x="491" 
d="M267 -185h-62v555q-70 1 -118 48q-47 47 -47 117q0 69 48 117q50 48 117 48h62v-885zM424 -185h-62v885h62v-885z" />
    <glyph glyph-name="middot" unicode="&#xb7;" horiz-adv-x="250" 
d="M175 213h-99v110h99v-110z" />
    <glyph glyph-name="cedilla" unicode="&#xb8;" horiz-adv-x="298" 
d="M43 -232l17 56q24 -8 62 -8q63 0 63 37t-59 37h-27h-17l15 52h32q133 0 133 -98q0 -37 -30.5 -60.5t-97.5 -23.5q-33 0 -91 8z" />
    <glyph glyph-name="onesuperior" unicode="&#xb9;" horiz-adv-x="360" 
d="M181 596h-96v29h12q39 0 67.5 20.5t33.5 54.5h39v-420h-56v316z" />
    <glyph glyph-name="ordmasculine" unicode="&#xba;" horiz-adv-x="385" 
d="M43 557q0 39 11 75q13 38 49.5 63.5t88.5 25.5q81 0 115 -49q35 -50 35 -115q0 -30 -7 -56.5t-22.5 -52.5t-46.5 -41t-74 -15q-55 0 -90 27t-47 62t-12 76zM99 557q0 -128 93 -128q49 0 72 37q10 15 15 36q7 28 7 55q0 127 -94 127q-93 0 -93 -127zM342 323h-299v31h299
v-31z" />
    <glyph glyph-name="guillemotright" unicode="&#xbb;" horiz-adv-x="462" 
d="M251 182l106 90l-106 90v82l149 -131v-82l-149 -131v82zM75 182l106 90l-106 90v82l149 -131v-82l-149 -131v82z" />
    <glyph glyph-name="onequarter" unicode="&#xbc;" horiz-adv-x="820" 
d="M678 0v97h-198v48l197 275h57v-275h66v-48h-66v-97h-56zM678 346l-144 -201h144v201zM181 596h-96v29h12q39 0 67.5 20.5t33.5 54.5h39v-420h-56v316zM233 0h-56l450 700h56z" />
    <glyph glyph-name="onehalf" unicode="&#xbd;" horiz-adv-x="820" 
d="M560 48h222v-48h-285q1 70 33 106q29 35 109 85q46 28 66 53t20 61q0 34 -20.5 57t-63.5 23q-42 0 -64.5 -22t-22.5 -61v-16h-56v13q0 11 2 24t10.5 34t22.5 36.5t42.5 27.5t66.5 12q65 0 103 -34t38 -94q0 -23 -12 -59q-2 -8 -16.5 -25t-14.5 -18q-6 -6 -22 -18l-21 -16
l-26 -16l-23 -14q-46 -29 -65 -49t-23 -42zM181 596h-96v29h12q39 0 67.5 20.5t33.5 54.5h39v-420h-56v316zM193 0h-56l450 700h56z" />
    <glyph glyph-name="threequarters" unicode="&#xbe;" horiz-adv-x="820" 
d="M34 408h54q0 -51 29 -72t61 -21q18 0 35 3.5t37 24.5t20 58q0 35 -20 54.5t-54 19.5h-43v48h17q90 0 90 72q0 30 -20 50t-61 20q-77 0 -82 -93h-52q0 57 30 99q31 42 106 42q61 0 97 -31t36 -85q0 -71 -69 -93v-3q37 -6 59 -33t22 -71q0 -60 -39.5 -95t-105.5 -35
q-86 0 -118 50q-28 44 -29 91zM678 0v97h-198v48l197 275h57v-275h66v-48h-66v-97h-56zM678 346l-144 -201h144v201zM253 0h-56l450 700h56z" />
    <glyph glyph-name="questiondown" unicode="&#xbf;" horiz-adv-x="548" 
d="M229 508h99v-109h-99v109zM408 26h87q1 -111 -49 -167q-21 -24 -53 -38q-49 -23 -117 -23q-102 0 -162.5 48.5t-60.5 132.5q0 55 23 93q25 39 81 86q24 20 40 36q45 45 45 98v14h72q5 -38 -7.5 -78.5t-36.5 -67.5q-17 -17 -53 -48q-43 -37 -59.5 -64.5t-16.5 -64.5
q0 -42 32 -77q31 -36 104 -36q42 0 71 16t41.5 41.5t16.5 50t2 48.5z" />
    <glyph glyph-name="Agrave" unicode="&#xc0;" horiz-adv-x="622" 
d="M459 181h-296l-66 -181h-101l265 700h100l265 -700h-101zM311 605l-122 -345h244zM191 900h112l75 -140h-84z" />
    <glyph glyph-name="Aacute" unicode="&#xc1;" horiz-adv-x="622" 
d="M459 181h-296l-66 -181h-101l265 700h100l265 -700h-101zM311 605l-122 -345h244zM244 760l74 140h112l-102 -140h-84z" />
    <glyph glyph-name="Acircumflex" unicode="&#xc2;" horiz-adv-x="622" 
d="M459 181h-296l-66 -181h-101l265 700h100l265 -700h-101zM311 605l-122 -345h244zM209 760h-94l125 140h142l125 -140h-94l-102 105z" />
    <glyph glyph-name="Atilde" unicode="&#xc3;" horiz-adv-x="622" 
d="M459 181h-296l-66 -181h-101l265 700h100l265 -700h-101zM311 605l-122 -345h244zM446 868h61q-7 -47 -37 -77.5t-79 -30.5q-23 0 -41 6l-18 7q-17 7 -29 14q-3 1 -17.5 8.5t-18.5 9.5q-16 7 -34 7q-50 0 -56 -41h-62q6 44 38.5 74.5t79.5 30.5q40 0 78 -23
q47 -29 78 -29q46 0 57 44z" />
    <glyph glyph-name="Adieresis" unicode="&#xc4;" horiz-adv-x="622" 
d="M459 181h-296l-66 -181h-101l265 700h100l265 -700h-101zM311 605l-122 -345h244zM250 772h-94v79h94v-79zM466 772h-94v79h94v-79z" />
    <glyph glyph-name="Aring" unicode="&#xc5;" horiz-adv-x="622" 
d="M459 181h-296l-66 -181h-101l265 700h100l265 -700h-101zM311 605l-122 -345h244zM241 752q-28 28 -28 70q0 41 28 69q29 29 70 29q40 0 69 -29t29 -69q0 -41 -29 -70q-28 -28 -69 -28q-42 0 -70 28zM271 861q-16 -16 -16 -39t16 -40q17 -16 40 -16t39 16q17 17 17 40
t-17 39q-16 17 -39 17t-40 -17z" />
    <glyph glyph-name="AE" unicode="&#xc6;" horiz-adv-x="996" 
d="M979 0h-509v181h-264l-99 -181h-111l390 700h583v-79h-405v-220h366v-79h-366v-243h415v-79zM248 260h222v361h-27z" />
    <glyph glyph-name="Ccedilla" unicode="&#xc7;" horiz-adv-x="712" 
d="M580 232h94q-8 -70 -45 -132q-70 -120 -251 -121q-156 0 -245 95q-88 95 -88 264q3 216 111 307q55 48 128 65q47 11 91 11q263 0 290 -237h-94q-5 50 -40 97q-41 61 -156 61q-63 0 -109.5 -25t-71.5 -68.5t-37 -95t-12 -111.5q0 -126 64 -205t173 -79q83 0 138 49
q56 50 60 125zM250 -232l17 56q24 -8 62 -8q63 0 63 37t-59 37h-27h-17l15 52h32q133 0 133 -98q0 -37 -30.5 -60.5t-97.5 -23.5q-33 0 -91 8z" />
    <glyph glyph-name="Egrave" unicode="&#xc8;" horiz-adv-x="612" 
d="M179 621v-220h367v-79h-367v-243h416v-79h-510v700h499v-79h-405zM186 900h112l75 -140h-84z" />
    <glyph glyph-name="Eacute" unicode="&#xc9;" horiz-adv-x="612" 
d="M179 621v-220h367v-79h-367v-243h416v-79h-510v700h499v-79h-405zM239 760l74 140h112l-102 -140h-84z" />
    <glyph glyph-name="Ecircumflex" unicode="&#xca;" horiz-adv-x="612" 
d="M204 760h-94l125 140h142l125 -140h-94l-102 105zM179 621v-220h367v-79h-367v-243h416v-79h-510v700h499v-79h-405z" />
    <glyph glyph-name="Edieresis" unicode="&#xcb;" horiz-adv-x="612" 
d="M179 621v-220h367v-79h-367v-243h416v-79h-510v700h499v-79h-405zM245 772h-94v79h94v-79zM461 772h-94v79h94v-79z" />
    <glyph glyph-name="Igrave" unicode="&#xcc;" horiz-adv-x="264" 
d="M85 0v700h94v-700h-94zM13 900h112l75 -140h-84z" />
    <glyph glyph-name="Iacute" unicode="&#xcd;" horiz-adv-x="264" 
d="M85 0v700h94v-700h-94zM65 760l74 140h112l-102 -140h-84z" />
    <glyph glyph-name="Icircumflex" unicode="&#xce;" horiz-adv-x="264" 
d="M30 760h-94l125 140h142l125 -140h-94l-102 105zM85 0v700h94v-700h-94z" />
    <glyph glyph-name="Idieresis" unicode="&#xcf;" horiz-adv-x="264" 
d="M85 0v700h94v-700h-94zM71 772h-94v79h94v-79zM287 772h-94v79h94v-79z" />
    <glyph glyph-name="Eth" unicode="&#xd0;" horiz-adv-x="728" 
d="M94 428v272h257q28 0 41 -1q60 -2 121 -29q32 -13 64.5 -40t53.5 -61q53 -80 53 -217q-6 -207 -108 -283q-36 -27 -65 -39.5t-71 -19.5q-40 -8 -66 -9q-16 -1 -58 -1h-222v366h-94v62h94zM346 621h-158v-193h198v-62h-198v-287h131q136 0 200.5 65.5t64.5 205.5
q0 76 -20 131t-55 84.5t-75 42.5t-88 13z" />
    <glyph glyph-name="Ntilde" unicode="&#xd1;" horiz-adv-x="740" 
d="M505 868h61q-7 -47 -37 -77.5t-79 -30.5q-23 0 -41 6l-18 7q-17 7 -29 14q-3 1 -17.5 8.5t-18.5 9.5q-16 7 -34 7q-50 0 -56 -41h-62q6 44 38.5 74.5t79.5 30.5q40 0 78 -23q47 -29 78 -29q46 0 57 44zM552 0l-373 555v-555h-94v700h104l372 -555v555h94v-700h-103z" />
    <glyph glyph-name="Ograve" unicode="&#xd2;" horiz-adv-x="758" 
d="M45 350q0 180 91 275q92 96 243 96q104 0 184 -49q69 -40 109 -120.5t41 -201.5q0 -73 -17 -136q-32 -110 -102 -164q-63 -48 -131 -61q-43 -10 -84 -10q-23 0 -34 1q-55 3 -117 29q-82 39 -126 107q-57 91 -57 234zM145 350q0 -82 25 -151q51 -141 209 -141q19 0 28 1
q43 2 84 25q122 64 122 266q0 131 -59 211q-58 81 -175 81q-58 0 -104 -23t-72 -58q-24 -33 -37 -76q-21 -65 -21 -135zM259 900h112l75 -140h-84z" />
    <glyph glyph-name="Oacute" unicode="&#xd3;" horiz-adv-x="758" 
d="M45 350q0 180 91 275q92 96 243 96q104 0 184 -49q69 -40 109 -120.5t41 -201.5q0 -73 -17 -136q-32 -110 -102 -164q-63 -48 -131 -61q-43 -10 -84 -10q-23 0 -34 1q-55 3 -117 29q-82 39 -126 107q-57 91 -57 234zM145 350q0 -82 25 -151q51 -141 209 -141q19 0 28 1
q43 2 84 25q122 64 122 266q0 131 -59 211q-58 81 -175 81q-58 0 -104 -23t-72 -58q-24 -33 -37 -76q-21 -65 -21 -135zM312 760l74 140h112l-102 -140h-84z" />
    <glyph glyph-name="Ocircumflex" unicode="&#xd4;" horiz-adv-x="758" 
d="M45 350q0 180 91 275q92 96 243 96q104 0 184 -49q69 -40 109 -120.5t41 -201.5q0 -73 -17 -136q-32 -110 -102 -164q-63 -48 -131 -61q-43 -10 -84 -10q-23 0 -34 1q-55 3 -117 29q-82 39 -126 107q-57 91 -57 234zM145 350q0 -82 25 -151q51 -141 209 -141q19 0 28 1
q43 2 84 25q122 64 122 266q0 131 -59 211q-58 81 -175 81q-58 0 -104 -23t-72 -58q-24 -33 -37 -76q-21 -65 -21 -135zM277 760h-94l125 140h142l125 -140h-94l-102 105z" />
    <glyph glyph-name="Otilde" unicode="&#xd5;" horiz-adv-x="758" 
d="M45 350q0 180 91 275q92 96 243 96q104 0 184 -49q69 -40 109 -120.5t41 -201.5q0 -73 -17 -136q-32 -110 -102 -164q-63 -48 -131 -61q-43 -10 -84 -10q-23 0 -34 1q-55 3 -117 29q-82 39 -126 107q-57 91 -57 234zM145 350q0 -82 25 -151q51 -141 209 -141q19 0 28 1
q43 2 84 25q122 64 122 266q0 131 -59 211q-58 81 -175 81q-58 0 -104 -23t-72 -58q-24 -33 -37 -76q-21 -65 -21 -135zM514 868h61q-7 -47 -37 -77.5t-79 -30.5q-23 0 -41 6l-18 7q-17 7 -29 14q-3 1 -17.5 8.5t-18.5 9.5q-16 7 -34 7q-50 0 -56 -41h-62q6 44 38.5 74.5
t79.5 30.5q40 0 78 -23q47 -29 78 -29q46 0 57 44z" />
    <glyph glyph-name="Odieresis" unicode="&#xd6;" horiz-adv-x="758" 
d="M45 350q0 180 91 275q92 96 243 96q104 0 184 -49q69 -40 109 -120.5t41 -201.5q0 -73 -17 -136q-32 -110 -102 -164q-63 -48 -131 -61q-43 -10 -84 -10q-23 0 -34 1q-55 3 -117 29q-82 39 -126 107q-57 91 -57 234zM145 350q0 -82 25 -151q51 -141 209 -141q19 0 28 1
q43 2 84 25q122 64 122 266q0 131 -59 211q-58 81 -175 81q-58 0 -104 -23t-72 -58q-24 -33 -37 -76q-21 -65 -21 -135zM318 772h-94v79h94v-79zM534 772h-94v79h94v-79z" />
    <glyph glyph-name="multiply" unicode="&#xd7;" 
d="M109 114l-44 44l191 191l-191 191l44 44l191 -191l191 191l44 -44l-191 -191l191 -191l-44 -44l-191 191z" />
    <glyph glyph-name="Oslash" unicode="&#xd8;" horiz-adv-x="758" 
d="M671 750l49 -34l-88 -105q81 -101 81 -261q0 -73 -17 -136q-32 -110 -102 -164q-63 -48 -131 -61q-43 -10 -84 -10q-141 0 -218 71l-94 -113l-45 37l99 118q-76 94 -76 258q0 180 91 275q92 96 243 96q137 0 211 -68zM569 536l-350 -417q55 -61 160 -61q19 0 28 1
q43 2 84 25q122 64 122 266q0 106 -44 186zM184 167l349 418q-26 26 -70.5 41.5t-83.5 15.5q-60 0 -115 -29q-33 -17 -59 -48q-60 -71 -60 -215q0 -114 39 -183z" />
    <glyph glyph-name="Ugrave" unicode="&#xd9;" horiz-adv-x="696" 
d="M72 271v429h94v-417q0 -65 14 -116q28 -104 168 -109q99 0 140.5 53.5t41.5 171.5v417h94v-429q-4 -170 -85 -235q-49 -38 -104 -49q-40 -8 -87 -8q-69 0 -124 19t-84 48q-28 28 -44 71q-24 65 -24 154zM228 900h112l75 -140h-84z" />
    <glyph glyph-name="Uacute" unicode="&#xda;" horiz-adv-x="696" 
d="M72 271v429h94v-417q0 -65 14 -116q28 -104 168 -109q99 0 140.5 53.5t41.5 171.5v417h94v-429q-4 -170 -85 -235q-49 -38 -104 -49q-40 -8 -87 -8q-69 0 -124 19t-84 48q-28 28 -44 71q-24 65 -24 154zM281 760l74 140h112l-102 -140h-84z" />
    <glyph glyph-name="Ucircumflex" unicode="&#xdb;" horiz-adv-x="696" 
d="M246 760h-94l125 140h142l125 -140h-94l-102 105zM72 271v429h94v-417q0 -65 14 -116q28 -104 168 -109q99 0 140.5 53.5t41.5 171.5v417h94v-429q-4 -170 -85 -235q-49 -38 -104 -49q-40 -8 -87 -8q-69 0 -124 19t-84 48q-28 28 -44 71q-24 65 -24 154z" />
    <glyph glyph-name="Udieresis" unicode="&#xdc;" horiz-adv-x="696" 
d="M72 271v429h94v-417q0 -65 14 -116q28 -104 168 -109q99 0 140.5 53.5t41.5 171.5v417h94v-429q-4 -170 -85 -235q-49 -38 -104 -49q-40 -8 -87 -8q-69 0 -124 19t-84 48q-28 28 -44 71q-24 65 -24 154zM287 772h-94v79h94v-79zM503 772h-94v79h94v-79z" />
    <glyph glyph-name="Yacute" unicode="&#xdd;" horiz-adv-x="453" 
d="M32 700l195 -324l194 324h112l-259 -408v-292h-94v292l-260 408h112zM159 760l74 140h112l-102 -140h-84z" />
    <glyph glyph-name="Thorn" unicode="&#xde;" horiz-adv-x="639" 
d="M85 0v700h94v-139h191q237 0 237 -201q0 -220 -246 -220h-182v-140h-94zM351 482h-172v-263h172q83 0 121.5 34.5t38.5 104.5q0 65 -39 94.5t-121 29.5z" />
    <glyph glyph-name="germandbls" unicode="&#xdf;" horiz-adv-x="560" 
d="M160 0h-88v455q0 84 17 136q16 55 62.5 84t132.5 33q90 0 139.5 -46t49.5 -124q0 -49 -26 -88.5t-67 -49.5v-3q65 -12 104.5 -63t39.5 -128q2 -70 -26 -116t-69 -69q-24 -15 -50 -20q-42 -8 -70 -8q-37 0 -75 7v65q24 -9 59 -9q31 0 60 12q80 32 80 140q0 150 -174 150
h-25v61l31 -1q120 0 120 114q0 50 -25 82t-77 32q-57 0 -87 -29q-36 -35 -36 -149v-468z" />
    <glyph glyph-name="agrave" unicode="&#xe0;" horiz-adv-x="553" 
d="M139 358h-84q0 60 40 110q48 60 176 60q75 0 132 -30q33 -16 52 -53t18 -88l-5 -235q0 -29 6 -45q9 -16 47 -15v-62q-15 -4 -40 -4q-44 0 -63.5 15t-27.5 59q-49 -90 -174 -90q-86 0 -132.5 38.5t-46.5 114.5q0 72 52 109q52 39 197 52q67 5 80 13q19 13 19 57
q0 102 -114 102q-135 0 -132 -108zM383 217l2 43q-15 -11 -44 -18q-44 -3 -68 -7q-83 -14 -101 -23q-44 -21 -44 -76q0 -44 26.5 -69t71.5 -25q29 0 53.5 8t48 26.5t38 54.5t17.5 86zM162 700h106l70 -132h-80z" />
    <glyph glyph-name="aacute" unicode="&#xe1;" horiz-adv-x="553" 
d="M139 358h-84q0 60 40 110q48 60 176 60q75 0 132 -30q33 -16 52 -53t18 -88l-5 -235q0 -29 6 -45q9 -16 47 -15v-62q-15 -4 -40 -4q-44 0 -63.5 15t-27.5 59q-49 -90 -174 -90q-86 0 -132.5 38.5t-46.5 114.5q0 72 52 109q52 39 197 52q67 5 80 13q19 13 19 57
q0 102 -114 102q-135 0 -132 -108zM383 217l2 43q-15 -11 -44 -18q-44 -3 -68 -7q-83 -14 -101 -23q-44 -21 -44 -76q0 -44 26.5 -69t71.5 -25q29 0 53.5 8t48 26.5t38 54.5t17.5 86zM214 568l70 132h106l-96 -132h-80z" />
    <glyph glyph-name="acircumflex" unicode="&#xe2;" horiz-adv-x="553" 
d="M139 358h-84q0 60 40 110q48 60 176 60q75 0 132 -30q33 -16 52 -53t18 -88l-5 -235q0 -29 6 -45q9 -16 47 -15v-62q-15 -4 -40 -4q-44 0 -63.5 15t-27.5 59q-49 -90 -174 -90q-86 0 -132.5 38.5t-46.5 114.5q0 72 52 109q52 39 197 52q67 5 80 13q19 13 19 57
q0 102 -114 102q-135 0 -132 -108zM383 217l2 43q-15 -11 -44 -18q-44 -3 -68 -7q-83 -14 -101 -23q-44 -21 -44 -76q0 -44 26.5 -69t71.5 -25q29 0 53.5 8t48 26.5t38 54.5t17.5 86zM179 568h-88l119 132h132l119 -132h-88l-97 99z" />
    <glyph glyph-name="atilde" unicode="&#xe3;" horiz-adv-x="553" 
d="M139 358h-84q0 60 40 110q48 60 176 60q75 0 132 -30q33 -16 52 -53t18 -88l-5 -235q0 -29 6 -45q9 -16 47 -15v-62q-15 -4 -40 -4q-44 0 -63.5 15t-27.5 59q-49 -90 -174 -90q-86 0 -132.5 38.5t-46.5 114.5q0 72 52 109q52 39 197 52q67 5 80 13q19 13 19 57
q0 102 -114 102q-135 0 -132 -108zM383 217l2 43q-15 -11 -44 -18q-44 -3 -68 -7q-83 -14 -101 -23q-44 -21 -44 -76q0 -44 26.5 -69t71.5 -25q29 0 53.5 8t48 26.5t38 54.5t17.5 86zM403 700h58q-9 -45 -36.5 -73.5t-74.5 -28.5q-32 0 -82 26q-47 24 -67 24q-47 0 -51 -40
h-59q7 43 37 71.5t74 28.5q36 0 74 -22q47 -28 74 -28q18 0 33 12t20 30z" />
    <glyph glyph-name="adieresis" unicode="&#xe4;" horiz-adv-x="553" 
d="M139 358h-84q0 60 40 110q48 60 176 60q75 0 132 -30q33 -16 52 -53t18 -88l-5 -235q0 -29 6 -45q9 -16 47 -15v-62q-15 -4 -40 -4q-44 0 -63.5 15t-27.5 59q-49 -90 -174 -90q-86 0 -132.5 38.5t-46.5 114.5q0 72 52 109q52 39 197 52q67 5 80 13q19 13 19 57
q0 102 -114 102q-135 0 -132 -108zM383 217l2 43q-15 -11 -44 -18q-44 -3 -68 -7q-83 -14 -101 -23q-44 -21 -44 -76q0 -44 26.5 -69t71.5 -25q29 0 53.5 8t48 26.5t38 54.5t17.5 86zM221 608h-88v92h88v-92zM419 608h-88v92h88v-92z" />
    <glyph glyph-name="aring" unicode="&#xe5;" horiz-adv-x="553" 
d="M139 358h-84q0 60 40 110q48 60 176 60q75 0 132 -30q33 -16 52 -53t18 -88l-5 -235q0 -29 6 -45q9 -16 47 -15v-62q-15 -4 -40 -4q-44 0 -63.5 15t-27.5 59q-49 -90 -174 -90q-86 0 -132.5 38.5t-46.5 114.5q0 72 52 109q52 39 197 52q67 5 80 13q19 13 19 57
q0 102 -114 102q-135 0 -132 -108zM383 217l2 43q-15 -11 -44 -18q-44 -3 -68 -7q-83 -14 -101 -23q-44 -21 -44 -76q0 -44 26.5 -69t71.5 -25q29 0 53.5 8t48 26.5t38 54.5t17.5 86zM210 594q-26 28 -26 66q0 39 26 65q27 27 66 27t65 -27q27 -26 27 -65t-27 -66
q-26 -26 -65 -26q-38 0 -66 26zM239 697q-15 -15 -15 -37t15 -37t37 -15t37 15t15 37t-15 37t-37 15t-37 -15z" />
    <glyph glyph-name="ae" unicode="&#xe6;" horiz-adv-x="914" 
d="M144 358h-84q-2 75 54 122.5t161 47.5q139 0 174 -86q56 86 183 86q72 0 123 -26q113 -52 116 -243v-25h-393q0 -45 13 -85.5t51 -73.5t96 -33q110 0 140 105h84q-11 -66 -63.5 -116.5t-154.5 -50.5q-56 0 -109 16q-62 18 -104 94q-62 -110 -198 -110q-196 0 -196 153
q0 71 53 110q52 40 199 51q68 5 82 13q19 13 19 57q0 102 -114 102q-135 0 -132 -108zM390 217v43q-14 -10 -45 -17q-35 -3 -69 -8l-46 -7l-20 -5q-18 -4 -37 -12q-45 -16 -45 -75q0 -40 27 -67t76 -27q94 0 130 66q29 54 29 109zM478 296h302q1 28 -5 55.5t-21 54.5
t-45.5 43.5t-73.5 16.5q-76 0 -117 -50q-40 -49 -40 -120z" />
    <glyph glyph-name="ccedilla" unicode="&#xe7;" horiz-adv-x="548" 
d="M428 181h84q-4 -58 -44 -122q-22 -36 -68.5 -57.5t-108.5 -21.5q-21 0 -30 1q-44 2 -90 23q-128 64 -128 254q0 100 46 178q57 92 196 92q98 0 156 -49.5t67 -129.5h-84q-20 117 -137 117q-76 0 -113.5 -55.5t-37.5 -152.5q0 -94 39 -155t118 -61q68 0 99 43q33 43 36 96
zM168 -232l17 56q24 -8 62 -8q63 0 63 37t-59 37h-27h-17l15 52h32q133 0 133 -98q0 -37 -30.5 -60.5t-97.5 -23.5q-33 0 -91 8z" />
    <glyph glyph-name="egrave" unicode="&#xe8;" horiz-adv-x="570" 
d="M438 147h84q-12 -67 -65 -117t-157 -50q-141 0 -207 93q-33 49 -43 105q-7 39 -7 74q0 67 20 126q13 42 38 73q27 33 77 55t113 22q112 0 169 -62q24 -26 39 -66q22 -58 27 -141q0 -3 0.5 -13t0.5 -12h-391q0 -76 40 -134t121 -58q58 0 95 29t46 76zM136 296h298
q-1 59 -28 109q-31 61 -113 61q-93 0 -128 -62q-29 -50 -29 -108zM171 700h106l70 -132h-80z" />
    <glyph glyph-name="eacute" unicode="&#xe9;" horiz-adv-x="570" 
d="M438 147h84q-12 -67 -65 -117t-157 -50q-141 0 -207 93q-33 49 -43 105q-7 39 -7 74q0 67 20 126q13 42 38 73q27 33 77 55t113 22q112 0 169 -62q24 -26 39 -66q22 -58 27 -141q0 -3 0.5 -13t0.5 -12h-391q0 -76 40 -134t121 -58q58 0 95 29t46 76zM136 296h298
q-1 59 -28 109q-31 61 -113 61q-93 0 -128 -62q-29 -50 -29 -108zM223 568l70 132h106l-96 -132h-80z" />
    <glyph glyph-name="ecircumflex" unicode="&#xea;" horiz-adv-x="570" 
d="M438 147h84q-12 -67 -65 -117t-157 -50q-141 0 -207 93q-33 49 -43 105q-7 39 -7 74q0 67 20 126q13 42 38 73q27 33 77 55t113 22q112 0 169 -62q24 -26 39 -66q22 -58 27 -141q0 -3 0.5 -13t0.5 -12h-391q0 -76 40 -134t121 -58q58 0 95 29t46 76zM136 296h298
q-1 59 -28 109q-31 61 -113 61q-93 0 -128 -62q-29 -50 -29 -108zM188 568h-88l119 132h132l119 -132h-88l-97 99z" />
    <glyph glyph-name="edieresis" unicode="&#xeb;" horiz-adv-x="570" 
d="M438 147h84q-12 -67 -65 -117t-157 -50q-141 0 -207 93q-33 49 -43 105q-7 39 -7 74q0 67 20 126q13 42 38 73q27 33 77 55t113 22q112 0 169 -62q24 -26 39 -66q22 -58 27 -141q0 -3 0.5 -13t0.5 -12h-391q0 -76 40 -134t121 -58q58 0 95 29t46 76zM136 296h298
q-1 59 -28 109q-31 61 -113 61q-93 0 -128 -62q-29 -50 -29 -108zM230 608h-88v92h88v-92zM428 608h-88v92h88v-92z" />
    <glyph glyph-name="igrave" unicode="&#xec;" horiz-adv-x="233" 
d="M72 0v508h89v-508h-89zM3 700h106l70 -132h-80z" />
    <glyph glyph-name="iacute" unicode="&#xed;" horiz-adv-x="233" 
d="M72 0v508h89v-508h-89zM55 568l70 132h106l-96 -132h-80z" />
    <glyph glyph-name="icircumflex" unicode="&#xee;" horiz-adv-x="233" 
d="M20 568h-88l119 132h132l119 -132h-88l-97 99zM72 0v508h89v-508h-89z" />
    <glyph glyph-name="idieresis" unicode="&#xef;" horiz-adv-x="233" 
d="M62 608h-88v92h88v-92zM260 608h-88v92h88v-92zM72 0v508h89v-508h-89z" />
    <glyph glyph-name="eth" unicode="&#xf0;" horiz-adv-x="605" 
d="M150 686l13 47q97 -17 174 -51l85 51l26 -32l-67 -40q102 -53 136 -135q36 -83 36 -203q0 -165 -61 -249q-25 -35 -63 -58q-61 -36 -138 -36q-112 0 -178 68q-66 69 -66 188q0 118 59 195q60 77 184 77q145 0 196 -115h3q-13 163 -161 235l-139 -84l-26 32l119 72
q-66 28 -132 38zM460 247q0 48 -14 91q-27 104 -147 108q-82 0 -120 -58q-14 -20 -26 -56q-13 -48 -13 -102q0 -188 159 -188q40 0 75 16q86 40 86 189z" />
    <glyph glyph-name="ntilde" unicode="&#xf1;" horiz-adv-x="573" 
d="M72 0v508h88v-71q61 91 174 91q167 0 167 -190v-338h-88v311q0 29 -1 38q0 13 -6 39q-6 36 -29.5 55t-70.5 23q-47 0 -90 -31q-56 -41 -56 -158v-277h-88zM413 700h58q-9 -45 -36.5 -73.5t-74.5 -28.5q-32 0 -82 26q-46 24 -67 24q-47 0 -51 -40h-59q7 43 37 71.5
t74 28.5q37 0 74 -22q47 -28 74 -28q18 0 33 12t20 30z" />
    <glyph glyph-name="ograve" unicode="&#xf2;" horiz-adv-x="586" 
d="M56 154q-26 107 2 207t118 143q50 24 117 24t117 -24q90 -42 119 -150q13 -50 13.5 -100.5t-12 -99t-43 -88.5t-77.5 -63q-51 -23 -117 -23t-117 23q-87 42 -120 151zM149 355q-13 -40 -13 -100q0 -59 13 -101t30 -63q36 -40 82 -47q32 -5 64 0q14 1 39 14q27 14 44 35
t29 61q13 42 13 101q0 60 -13 100q-14 44 -31 63q-16 19 -40 32t-41 16q-32 5 -64 0q-14 -1 -40 -15q-51 -25 -72 -96zM179 700h106l70 -132h-80z" />
    <glyph glyph-name="oacute" unicode="&#xf3;" horiz-adv-x="586" 
d="M56 154q-26 107 2 207t118 143q50 24 117 24t117 -24q90 -42 119 -150q13 -50 13.5 -100.5t-12 -99t-43 -88.5t-77.5 -63q-51 -23 -117 -23t-117 23q-87 42 -120 151zM149 355q-13 -40 -13 -100q0 -59 13 -101t30 -63q36 -40 82 -47q32 -5 64 0q14 1 39 14q27 14 44 35
t29 61q13 42 13 101q0 60 -13 100q-14 44 -31 63q-16 19 -40 32t-41 16q-32 5 -64 0q-14 -1 -40 -15q-51 -25 -72 -96zM231 568l70 132h106l-96 -132h-80z" />
    <glyph glyph-name="ocircumflex" unicode="&#xf4;" horiz-adv-x="586" 
d="M56 154q-26 107 2 207t118 143q50 24 117 24t117 -24q90 -42 119 -150q13 -50 13.5 -100.5t-12 -99t-43 -88.5t-77.5 -63q-51 -23 -117 -23t-117 23q-87 42 -120 151zM149 355q-13 -40 -13 -100q0 -59 13 -101t30 -63q36 -40 82 -47q32 -5 64 0q14 1 39 14q27 14 44 35
t29 61q13 42 13 101q0 60 -13 100q-14 44 -31 63q-16 19 -40 32t-41 16q-32 5 -64 0q-14 -1 -40 -15q-51 -25 -72 -96zM196 568h-88l119 132h132l119 -132h-88l-97 99z" />
    <glyph glyph-name="otilde" unicode="&#xf5;" horiz-adv-x="586" 
d="M56 154q-26 107 2 207t118 143q50 24 117 24t117 -24q90 -42 119 -150q13 -50 13.5 -100.5t-12 -99t-43 -88.5t-77.5 -63q-51 -23 -117 -23t-117 23q-87 42 -120 151zM149 355q-13 -40 -13 -100q0 -59 13 -101t30 -63q36 -40 82 -47q32 -5 64 0q14 1 39 14q27 14 44 35
t29 61q13 42 13 101q0 60 -13 100q-14 44 -31 63q-16 19 -40 32t-41 16q-32 5 -64 0q-14 -1 -40 -15q-51 -25 -72 -96zM420 700h58q-9 -45 -36.5 -73.5t-74.5 -28.5q-32 0 -82 26q-47 24 -67 24q-47 0 -51 -40h-59q7 43 37 71.5t74 28.5q36 0 74 -22q47 -28 74 -28
q18 0 33 12t20 30z" />
    <glyph glyph-name="odieresis" unicode="&#xf6;" horiz-adv-x="586" 
d="M56 154q-26 107 2 207t118 143q50 24 117 24t117 -24q90 -42 119 -150q13 -50 13.5 -100.5t-12 -99t-43 -88.5t-77.5 -63q-51 -23 -117 -23t-117 23q-87 42 -120 151zM149 355q-13 -40 -13 -100q0 -59 13 -101t30 -63q36 -40 82 -47q32 -5 64 0q14 1 39 14q27 14 44 35
t29 61q13 42 13 101q0 60 -13 100q-14 44 -31 63q-16 19 -40 32t-41 16q-32 5 -64 0q-14 -1 -40 -15q-51 -25 -72 -96zM238 608h-88v92h88v-92zM436 608h-88v92h88v-92z" />
    <glyph glyph-name="divide" unicode="&#xf7;" 
d="M255 458q-15 19 -15 42t15 41q16 19 45 19t44 -19q16 -18 16 -41t-16 -42q-15 -18 -44 -18q-28 0 -45 18zM255 110q-15 19 -15 42t15 41q16 19 45 19t44 -19q16 -18 16 -41t-16 -42q-15 -18 -44 -18q-28 0 -45 18zM550 295h-500v62h500v-62z" />
    <glyph glyph-name="oslash" unicode="&#xf8;" horiz-adv-x="584" 
d="M88 -38l-45 38l56 66q-56 77 -56 189q0 127 64 200t185 73q100 0 156 -47l55 65l44 -38l-58 -69q52 -79 52 -184q0 -103 -50 -182q-58 -93 -199 -93q-97 0 -151 45zM156 134l243 289q-37 43 -107 43q-76 0 -114 -52q-42 -58 -42 -159q0 -79 20 -121zM431 371l-242 -288
q24 -24 46.5 -32.5t56.5 -8.5q38 0 70 16q83 37 86 197q0 79 -17 116z" />
    <glyph glyph-name="ugrave" unicode="&#xf9;" horiz-adv-x="573" 
d="M501 508v-508h-88v72h-2q-22 -40 -65 -63q-55 -29 -107 -29q-167 0 -167 191v337h88v-311q0 -86 25.5 -120.5t81.5 -34.5q146 0 146 189v277h88zM172 700h106l70 -132h-80z" />
    <glyph glyph-name="uacute" unicode="&#xfa;" horiz-adv-x="573" 
d="M501 508v-508h-88v72h-2q-22 -40 -65 -63q-55 -29 -107 -29q-167 0 -167 191v337h88v-311q0 -86 25.5 -120.5t81.5 -34.5q146 0 146 189v277h88zM224 568l70 132h106l-96 -132h-80z" />
    <glyph glyph-name="ucircumflex" unicode="&#xfb;" horiz-adv-x="573" 
d="M189 568h-88l119 132h132l119 -132h-88l-97 99zM501 508v-508h-88v72h-2q-22 -40 -65 -63q-55 -29 -107 -29q-167 0 -167 191v337h88v-311q0 -86 25.5 -120.5t81.5 -34.5q146 0 146 189v277h88z" />
    <glyph glyph-name="udieresis" unicode="&#xfc;" horiz-adv-x="573" 
d="M501 508v-508h-88v72h-2q-22 -40 -65 -63q-55 -29 -107 -29q-167 0 -167 191v337h88v-311q0 -86 25.5 -120.5t81.5 -34.5q146 0 146 189v277h88zM231 608h-88v92h88v-92zM429 608h-88v92h88v-92z" />
    <glyph glyph-name="yacute" unicode="&#xfd;" horiz-adv-x="498" 
d="M91 -184v65q38 -5 44 -5q38 0 54 28q10 15 13 25q3 5 13 33l12 38l-220 508h105l163 -411l135 411h88l-202 -568q-24 -68 -41 -89q-34 -40 -92 -40q-45 0 -72 5zM187 568l70 132h106l-96 -132h-80z" />
    <glyph glyph-name="thorn" unicode="&#xfe;" horiz-adv-x="597" 
d="M72 -185v885h88v-262q23 42 68 66t97 24q111 0 169 -76q60 -75 60 -198q0 -138 -66 -206q-65 -68 -161 -68q-30 0 -73 13q-63 19 -94 80v-258h-88zM154 252q0 -106 48 -159q50 -51 109 -51q62 0 106 50q44 52 44 162q0 100 -40.5 156t-114.5 56q-39 0 -73 -21
q-79 -47 -79 -193z" />
    <glyph glyph-name="ydieresis" unicode="&#xff;" horiz-adv-x="498" 
d="M91 -184v65q38 -5 44 -5q38 0 54 28q10 15 13 25q3 5 13 33l12 38l-220 508h105l163 -411l135 411h88l-202 -568q-24 -68 -41 -89q-34 -40 -92 -40q-45 0 -72 5zM194 608h-88v92h88v-92zM392 608h-88v92h88v-92z" />
    <glyph glyph-name="Amacron" unicode="&#x100;" horiz-adv-x="622" 
d="M459 181h-296l-66 -181h-101l265 700h100l265 -700h-101zM311 605l-122 -345h244zM311 772h-158v60h316v-60h-158z" />
    <glyph glyph-name="amacron" unicode="&#x101;" horiz-adv-x="553" 
d="M139 358h-84q0 60 40 110q48 60 176 60q75 0 132 -30q33 -16 52 -53t18 -88l-5 -235q0 -29 6 -45q9 -16 47 -15v-62q-15 -4 -40 -4q-44 0 -63.5 15t-27.5 59q-49 -90 -174 -90q-86 0 -132.5 38.5t-46.5 114.5q0 72 52 109q52 39 197 52q67 5 80 13q19 13 19 57
q0 102 -114 102q-135 0 -132 -108zM383 217l2 43q-15 -11 -44 -18q-44 -3 -68 -7q-83 -14 -101 -23q-44 -21 -44 -76q0 -44 26.5 -69t71.5 -25q29 0 53.5 8t48 26.5t38 54.5t17.5 86zM276 613h-158v60h316v-60h-158z" />
    <glyph glyph-name="Abreve" unicode="&#x102;" horiz-adv-x="622" 
d="M459 181h-296l-66 -181h-101l265 700h100l265 -700h-101zM311 605l-122 -345h244zM128 900h78q1 -38 30 -61t75 -23t71 19.5t34 64.5h78q-29 -140 -183 -140t-183 140z" />
    <glyph glyph-name="abreve" unicode="&#x103;" horiz-adv-x="553" 
d="M139 358h-84q0 60 40 110q48 60 176 60q75 0 132 -30q33 -16 52 -53t18 -88l-5 -235q0 -29 6 -45q9 -16 47 -15v-62q-15 -4 -40 -4q-44 0 -63.5 15t-27.5 59q-49 -90 -174 -90q-86 0 -132.5 38.5t-46.5 114.5q0 72 52 109q52 39 197 52q67 5 80 13q19 13 19 57
q0 102 -114 102q-135 0 -132 -108zM383 217l2 43q-15 -11 -44 -18q-44 -3 -68 -7q-83 -14 -101 -23q-44 -21 -44 -76q0 -44 26.5 -69t71.5 -25q29 0 53.5 8t48 26.5t38 54.5t17.5 86zM104 700h74q3 -35 28 -57t70 -22t70 22t28 57h74q-7 -50 -49 -92q-40 -40 -123 -40
q-84 0 -124 40t-48 92z" />
    <glyph glyph-name="Aogonek" unicode="&#x104;" horiz-adv-x="727" 
d="M459 181h-296l-66 -181h-101l265 700h100l265 -700q-59 -47 -59 -103q0 -26 12 -42.5t34 -16.5q20 0 32 16t12 36h74q-3 -48 -35.5 -81t-87.5 -33q-58 0 -94.5 27.5t-36.5 74.5q0 70 69 122h-21zM311 605l-122 -345h244z" />
    <glyph glyph-name="aogonek" unicode="&#x105;" horiz-adv-x="553" 
d="M139 358h-84q0 60 40 110q48 60 176 60q75 0 132 -30q33 -16 52 -53t18 -88l-5 -235q0 -38 8.5 -49t33.5 -11h11v-62q-59 -47 -59 -103q0 -26 12 -42.5t34 -16.5q20 0 32 16t12 36h74q-3 -48 -35.5 -81t-87.5 -33q-58 0 -94.5 27.5t-36.5 74.5q0 70 69 122
q-23 5 -34.5 21t-16.5 49q-49 -90 -174 -90q-86 0 -132.5 38.5t-46.5 114.5q0 72 52 109q52 39 197 52q67 5 80 13q19 13 19 57q0 102 -114 102q-135 0 -132 -108zM383 217l2 43q-15 -11 -44 -18q-44 -3 -68 -7l-45 -7q-9 -1 -38 -10q-31 -10 -44.5 -28t-17.5 -54
q0 -13 4 -27t13.5 -30.5t30.5 -26.5t50 -10t53.5 8t48 26.5t38 54.5t17.5 86z" />
    <glyph glyph-name="Cacute" unicode="&#x106;" horiz-adv-x="712" 
d="M580 232h94q-8 -70 -45 -132q-70 -120 -251 -121q-156 0 -245 95q-88 95 -88 264q3 216 111 307q55 48 128 65q47 11 91 11q263 0 290 -237h-94q-5 50 -40 97q-41 61 -156 61q-63 0 -109.5 -25t-71.5 -68.5t-37 -95t-12 -111.5q0 -126 64 -205t173 -79q83 0 138 49
q56 50 60 125zM289 760l74 140h112l-102 -140h-84z" />
    <glyph glyph-name="cacute" unicode="&#x107;" horiz-adv-x="548" 
d="M428 181h84q-4 -58 -44 -122q-22 -36 -68.5 -57.5t-108.5 -21.5q-21 0 -30 1q-44 2 -90 23q-128 64 -128 254q0 100 46 178q57 92 196 92q98 0 156 -49.5t67 -129.5h-84q-20 117 -137 117q-76 0 -113.5 -55.5t-37.5 -152.5q0 -94 39 -155t118 -61q68 0 99 43q33 43 36 96
zM212 568l70 132h106l-96 -132h-80z" />
    <glyph glyph-name="Ccircumflex" unicode="&#x108;" horiz-adv-x="712" 
d="M580 232h94q-8 -70 -45 -132q-70 -120 -251 -121q-156 0 -245 95q-88 95 -88 264q3 216 111 307q55 48 128 65q47 11 91 11q263 0 290 -237h-94q-5 50 -40 97q-41 61 -156 61q-63 0 -109.5 -25t-71.5 -68.5t-37 -95t-12 -111.5q0 -126 64 -205t173 -79q83 0 138 49
q56 50 60 125zM254 760h-94l125 140h142l125 -140h-94l-102 105z" />
    <glyph glyph-name="ccircumflex" unicode="&#x109;" horiz-adv-x="548" 
d="M428 181h84q-4 -58 -44 -122q-22 -36 -68.5 -57.5t-108.5 -21.5q-21 0 -30 1q-44 2 -90 23q-128 64 -128 254q0 100 46 178q57 92 196 92q98 0 156 -49.5t67 -129.5h-84q-20 117 -137 117q-76 0 -113.5 -55.5t-37.5 -152.5q0 -94 39 -155t118 -61q68 0 99 43q33 43 36 96
zM177 568h-88l119 132h132l119 -132h-88l-97 99z" />
    <glyph glyph-name="Cdotaccent" unicode="&#x10a;" horiz-adv-x="712" 
d="M580 232h94q-8 -70 -45 -132q-70 -120 -251 -121q-156 0 -245 95q-88 95 -88 264q3 216 111 307q55 48 128 65q47 11 91 11q263 0 290 -237h-94q-5 50 -40 97q-41 61 -156 61q-63 0 -109.5 -25t-71.5 -68.5t-37 -95t-12 -111.5q0 -126 64 -205t173 -79q83 0 138 49
q56 50 60 125zM404 772h-94v79h94v-79z" />
    <glyph glyph-name="cdotaccent" unicode="&#x10b;" horiz-adv-x="548" 
d="M428 181h84q-4 -58 -44 -122q-22 -36 -68.5 -57.5t-108.5 -21.5q-21 0 -30 1q-44 2 -90 23q-128 64 -128 254q0 100 46 178q57 92 196 92q98 0 156 -49.5t67 -129.5h-84q-20 117 -137 117q-76 0 -113.5 -55.5t-37.5 -152.5q0 -94 39 -155t118 -61q68 0 99 43q33 43 36 96
zM320 608h-92v92h92v-92z" />
    <glyph glyph-name="Ccaron" unicode="&#x10c;" horiz-adv-x="712" 
d="M580 232h94q-8 -70 -45 -132q-70 -120 -251 -121q-156 0 -245 95q-88 95 -88 264q3 216 111 307q55 48 128 65q47 11 91 11q263 0 290 -237h-94q-5 50 -40 97q-41 61 -156 61q-63 0 -109.5 -25t-71.5 -68.5t-37 -95t-12 -111.5q0 -126 64 -205t173 -79q83 0 138 49
q56 50 60 125zM552 900l-125 -140h-142l-125 140h94l102 -105l102 105h94z" />
    <glyph glyph-name="ccaron" unicode="&#x10d;" horiz-adv-x="548" 
d="M428 181h84q-4 -58 -44 -122q-22 -36 -68.5 -57.5t-108.5 -21.5q-21 0 -30 1q-44 2 -90 23q-128 64 -128 254q0 100 46 178q57 92 196 92q98 0 156 -49.5t67 -129.5h-84q-20 117 -137 117q-76 0 -113.5 -55.5t-37.5 -152.5q0 -94 39 -155t118 -61q68 0 99 43q33 43 36 96
zM459 700l-119 -132h-132l-119 132h88l97 -99l97 99h88z" />
    <glyph glyph-name="Dcaron" unicode="&#x10e;" horiz-adv-x="719" 
d="M555 900l-125 -140h-142l-125 140h94l102 -105l102 105h94zM85 0v700h257q28 0 41 -1q60 -2 121 -29q32 -13 64.5 -40t53.5 -61q53 -80 53 -217q-6 -207 -108 -283q-36 -27 -65 -39.5t-71 -19.5q-41 -8 -66 -9q-16 -1 -58 -1h-222zM337 621h-158v-542h131
q136 0 200.5 65.5t64.5 205.5q0 76 -20 131t-55 84.5t-75 42.5t-88 13z" />
    <glyph glyph-name="dcaron" unicode="&#x10f;" horiz-adv-x="719" 
d="M425 442v258h88v-700h-82v70h-3q-46 -90 -168 -90q-108 0 -170 75q-61 74 -61 200q0 80 24 141q51 132 205 132q116 0 167 -86zM122 255q0 -55 12 -96t28.5 -62.5t39.5 -34.5t40.5 -16.5t36.5 -3.5q67 0 109.5 54.5t42.5 160.5q0 101 -43 155t-114 54q-70 0 -111 -54
t-41 -157zM607 591v109h99v-140q0 -50 -28 -79t-71 -38v55q21 2 35.5 20.5t14.5 41.5v31h-50z" />
    <glyph glyph-name="Dcroat" unicode="&#x110;" horiz-adv-x="728" 
d="M94 428v272h257q28 0 41 -1q60 -2 121 -29q32 -13 64.5 -40t53.5 -61q53 -80 53 -217q-6 -207 -108 -283q-36 -27 -65 -39.5t-71 -19.5q-40 -8 -66 -9q-16 -1 -58 -1h-222v366h-94v62h94zM346 621h-158v-193h198v-62h-198v-287h131q136 0 200.5 65.5t64.5 205.5
q0 76 -20 131t-55 84.5t-75 42.5t-88 13z" />
    <glyph glyph-name="dslash" unicode="&#x111;" horiz-adv-x="599" 
d="M439 635v65h88v-65h85v-54h-85v-581h-83v70h-2q-46 -90 -168 -90q-108 0 -170 75q-61 74 -61 200q0 80 24 141q51 132 205 132q116 0 167 -86v139h-184v54h184zM136 255q0 -55 12 -96t28.5 -62.5t39.5 -34.5t40.5 -16.5t36.5 -3.5q33 0 66 17q82 40 85 198
q0 102 -42.5 155.5t-113.5 53.5q-70 0 -111 -54t-41 -157z" />
    <glyph glyph-name="Emacron" unicode="&#x112;" horiz-adv-x="612" 
d="M179 621v-220h367v-79h-367v-243h416v-79h-510v700h499v-79h-405zM306 772h-158v60h316v-60h-158z" />
    <glyph glyph-name="emacron" unicode="&#x113;" horiz-adv-x="570" 
d="M438 147h84q-12 -67 -65 -117t-157 -50q-141 0 -207 93q-33 49 -43 105q-7 39 -7 74q0 67 20 126q13 42 38 73q27 33 77 55t113 22q112 0 169 -62q24 -26 39 -66q22 -58 27 -141q0 -3 0.5 -13t0.5 -12h-391q0 -76 40 -134t121 -58q58 0 95 29t46 76zM136 296h298
q-1 59 -28 109q-31 61 -113 61q-93 0 -128 -62q-29 -50 -29 -108zM285 613h-158v60h316v-60h-158z" />
    <glyph glyph-name="Edotaccent" unicode="&#x116;" horiz-adv-x="612" 
d="M179 621v-220h367v-79h-367v-243h416v-79h-510v700h499v-79h-405zM353 772h-94v79h94v-79z" />
    <glyph glyph-name="edotaccent" unicode="&#x117;" horiz-adv-x="570" 
d="M438 147h84q-12 -67 -65 -117t-157 -50q-141 0 -207 93q-33 49 -43 105q-7 39 -7 74q0 67 20 126q13 42 38 73q27 33 77 55t113 22q112 0 169 -62q24 -26 39 -66q22 -58 27 -141q0 -3 0.5 -13t0.5 -12h-391q0 -76 40 -134t121 -58q58 0 95 29t46 76zM136 296h298
q-1 59 -28 109q-31 61 -113 61q-93 0 -128 -62q-29 -50 -29 -108zM331 608h-92v92h92v-92z" />
    <glyph glyph-name="Eogonek" unicode="&#x118;" horiz-adv-x="612" 
d="M179 621v-220h367v-79h-367v-243h416v-79h-50q-30 -17 -47 -45t-17 -58q0 -26 12 -42.5t34 -16.5q20 0 32 16t12 36h74q-3 -48 -35.5 -81t-87.5 -33q-58 0 -94.5 27.5t-36.5 74.5q0 70 69 122h-375v700h499v-79h-405z" />
    <glyph glyph-name="eogonek" unicode="&#x119;" horiz-adv-x="580" 
d="M442 145h89q-10 -47 -53 -101q-40 -51 -82 -51h-1q-53 -44 -53 -95q0 -25 11.5 -41t32.5 -16q20 0 31.5 14t10.5 36h71q-3 -49 -35.5 -79t-81.5 -30q-55 0 -90.5 27t-35.5 71q0 53 47 100q-111 -9 -186 62q-74 72 -74 210q0 26 1 38q2 47 22 100q25 63 74 96
q61 42 155 42q115 0 173 -61q71 -74 69 -189q0 -38 -1 -45h-398q6 -96 49.5 -143t113.5 -47q54 0 93.5 27.5t47.5 74.5zM139 297h303q-2 58 -29 108q-33 61 -116 61q-77 0 -118 -50q-40 -49 -40 -119z" />
    <glyph glyph-name="Ecaron" unicode="&#x11a;" horiz-adv-x="612" 
d="M502 900l-125 -140h-142l-125 140h94l102 -105l102 105h94zM179 621v-220h367v-79h-367v-243h416v-79h-510v700h499v-79h-405z" />
    <glyph glyph-name="ecaron" unicode="&#x11b;" horiz-adv-x="570" 
d="M438 147h84q-12 -67 -65 -117t-157 -50q-141 0 -207 93q-33 49 -43 105q-7 39 -7 74q0 67 20 126q13 42 38 73q27 33 77 55t113 22q112 0 169 -62q24 -26 39 -66q22 -58 27 -141q0 -3 0.5 -13t0.5 -12h-391q0 -76 40 -134t121 -58q58 0 95 29t46 76zM136 296h298
q-1 59 -28 109q-31 61 -113 61q-93 0 -128 -62q-29 -50 -29 -108zM470 700l-119 -132h-132l-119 132h88l97 -99l97 99h88z" />
    <glyph glyph-name="Gcircumflex" unicode="&#x11c;" horiz-adv-x="740" 
d="M396 286v79h286v-365h-73v113h-2q-30 -64 -90.5 -99t-142.5 -35q-133 0 -227 82q-102 92 -102 296q0 175 91 269q92 95 251 95q132 0 202 -66q73 -67 83 -162h-94q-4 59 -50 104q-45 45 -143 45q-60 0 -107 -22.5t-73 -56.5q-23 -31 -39 -76q-21 -65 -21 -133
q0 -21 1 -33q8 -62 22 -106q58 -157 216 -157q59 0 103.5 22.5t67.5 59.5q41 69 41 146h-200zM268 760h-94l125 140h142l125 -140h-94l-102 105z" />
    <glyph glyph-name="gcircumflex" unicode="&#x11d;" 
d="M82 -57h84q19 -73 134 -73q84 0 121 69q10 16 13 37q6 32 6 52v55q-35 -57 -71.5 -80t-92.5 -23q-98 0 -164 70q-65 71 -65 208q0 26 1 37l7 53q4 33 19 63q23 51 71 85.5t122 31.5q127 0 176 -90h3v70h82v-495q0 -52 -18.5 -93.5t-47.5 -63.5q-26 -20 -62 -32
q-50 -17 -100 -17h-27q-40 0 -70 10q-51 18 -73 39q-35 35 -48 87zM296 42q32 0 66 20q81 44 84 198q0 98 -40.5 152t-117.5 54q-148 0 -148 -205q0 -113 42 -166q50 -55 114 -53zM203 568h-88l119 132h132l119 -132h-88l-97 99z" />
    <glyph glyph-name="Gbreve" unicode="&#x11e;" horiz-adv-x="740" 
d="M396 286v79h286v-365h-73v113h-2q-30 -64 -90.5 -99t-142.5 -35q-133 0 -227 82q-102 92 -102 296q0 175 91 269q92 95 251 95q132 0 202 -66q73 -67 83 -162h-94q-4 59 -50 104q-45 45 -143 45q-60 0 -107 -22.5t-73 -56.5q-23 -31 -39 -76q-21 -65 -21 -133
q0 -21 1 -33q8 -62 22 -106q58 -157 216 -157q59 0 103.5 22.5t67.5 59.5q41 69 41 146h-200zM187 900h78q1 -38 30 -61t75 -23t71 19.5t34 64.5h78q-11 -52 -45 -91q-42 -49 -138 -49q-93 0 -139 49q-34 42 -44 91z" />
    <glyph glyph-name="gbreve" unicode="&#x11f;" 
d="M82 -57h84q19 -73 134 -73q84 0 121 69q10 16 13 37q6 32 6 52v55q-35 -57 -71.5 -80t-92.5 -23q-98 0 -164 70q-65 71 -65 208q0 26 1 37l7 53q4 33 19 63q23 51 71 85.5t122 31.5q127 0 176 -90h3v70h82v-495q0 -52 -18.5 -93.5t-47.5 -63.5q-26 -20 -62 -32
q-50 -17 -100 -17h-27q-40 0 -70 10q-51 18 -73 39q-35 35 -48 87zM296 42q32 0 66 20q81 44 84 198q0 98 -40.5 152t-117.5 54q-148 0 -148 -205q0 -113 42 -166q50 -55 114 -53zM128 700h74q3 -35 28 -57t70 -22t70 22t28 57h74q-7 -50 -49 -92q-40 -40 -123 -40
q-84 0 -124 40t-48 92z" />
    <glyph glyph-name="Gdotaccent" unicode="&#x120;" horiz-adv-x="740" 
d="M396 286v79h286v-365h-73v113h-2q-30 -64 -90.5 -99t-142.5 -35q-133 0 -227 82q-102 92 -102 296q0 175 91 269q92 95 251 95q132 0 202 -66q73 -67 83 -162h-94q-4 59 -50 104q-45 45 -143 45q-60 0 -107 -22.5t-73 -56.5q-23 -31 -39 -76q-21 -65 -21 -133
q0 -21 1 -33q8 -62 22 -106q58 -157 216 -157q59 0 103.5 22.5t67.5 59.5q41 69 41 146h-200zM418 772h-94v79h94v-79z" />
    <glyph glyph-name="gdotaccent" unicode="&#x121;" 
d="M82 -57h84q19 -73 134 -73q84 0 121 69q10 16 13 37q6 32 6 52v55q-35 -57 -71.5 -80t-92.5 -23q-98 0 -164 70q-65 71 -65 208q0 26 1 37l7 53q4 33 19 63q23 51 71 85.5t122 31.5q127 0 176 -90h3v70h82v-495q0 -52 -18.5 -93.5t-47.5 -63.5q-26 -20 -62 -32
q-50 -17 -100 -17h-27q-40 0 -70 10q-51 18 -73 39q-35 35 -48 87zM296 42q32 0 66 20q81 44 84 198q0 98 -40.5 152t-117.5 54q-148 0 -148 -205q0 -113 42 -166q50 -55 114 -53zM346 608h-92v92h92v-92z" />
    <glyph glyph-name="Gcommaaccent" unicode="&#x122;" horiz-adv-x="740" 
d="M396 286v79h286v-365h-73v113h-2q-30 -64 -90.5 -99t-142.5 -35q-133 0 -227 82q-102 92 -102 296q0 175 91 269q92 95 251 95q132 0 202 -66q73 -67 83 -162h-94q-4 59 -50 104q-45 45 -143 45q-60 0 -107 -22.5t-73 -56.5q-23 -31 -39 -76q-21 -65 -21 -133
q0 -21 1 -33q8 -62 22 -106q58 -157 216 -157q59 0 103.5 22.5t67.5 59.5q41 69 41 146h-200zM320 -150v90h99v-101q0 -78 -99 -99v55q21 2 35.5 14.5t14.5 29.5v11h-50z" />
    <glyph glyph-name="gcommaaccent" unicode="&#x123;" 
d="M82 -57h84q19 -73 134 -73q84 0 121 69q10 16 13 37q6 32 6 52v55q-35 -57 -71.5 -80t-92.5 -23q-98 0 -164 70q-65 71 -65 208q0 26 1 37l7 53q4 33 19 63q23 51 71 85.5t122 31.5q127 0 176 -90h3v70h82v-495q0 -52 -18.5 -93.5t-47.5 -63.5q-26 -20 -62 -32
q-50 -17 -100 -17h-27q-40 0 -70 10q-51 18 -73 39q-35 35 -48 87zM296 42q32 0 66 20q81 44 84 198q0 98 -40.5 152t-117.5 54q-148 0 -148 -205q0 -113 42 -166q50 -55 114 -53zM347 689v-90h-99v101q0 78 99 99v-55q-21 -2 -35.5 -14.5t-14.5 -29.5v-11h50z" />
    <glyph glyph-name="Hcircumflex" unicode="&#x124;" horiz-adv-x="710" 
d="M253 760h-94l125 140h142l125 -140h-94l-102 105zM531 329h-352v-329h-94v700h94v-292h352v292h94v-700h-94v329z" />
    <glyph glyph-name="hcircumflex" unicode="&#x125;" horiz-adv-x="572" 
d="M181 780h-88l119 132h132l119 -132h-88l-97 99zM72 0v700h88v-263q67 91 174 91q166 0 166 -190v-338h-88v311q0 31 -1 39q0 11 -5 39q-7 37 -30 55t-70 22q-47 0 -90 -31q-56 -41 -56 -158v-277h-88z" />
    <glyph glyph-name="Hbar" unicode="&#x126;" horiz-adv-x="710" 
d="M531 329h-352v-329h-94v538h-94v62h94v100h94v-100h352v100h94v-100h94v-62h-94v-538h-94v329zM531 408v130h-352v-130h352z" />
    <glyph glyph-name="hbar" unicode="&#x127;" horiz-adv-x="580" 
d="M80 637v63h88v-63h211v-62h-211v-158q35 47 73 67q23 12 49 18t52 6q19 0 38.5 -3.5t41.5 -13.5t39 -25.5t30 -42.5t16 -62q1 -9 1 -43v-318h-88v291q0 63 -9 88q-13 41 -51 57q-20 10 -47 10q-52 0 -95 -37q-42 -36 -48 -98q-2 -24 -2 -54v-257h-88v575h-80v62h80z" />
    <glyph glyph-name="Imacron" unicode="&#x12a;" horiz-adv-x="264" 
d="M85 0v700h94v-700h-94zM132 772h-158v60h316v-60h-158z" />
    <glyph glyph-name="imacron" unicode="&#x12b;" horiz-adv-x="233" 
d="M117 613h-158v60h316v-60h-158zM72 0v508h89v-508h-89z" />
    <glyph glyph-name="Iogonek" unicode="&#x12e;" horiz-adv-x="264" 
d="M85 0v700h94v-700h-4q-29 -17 -46.5 -46t-17.5 -57q0 -26 12 -42.5t34 -16.5q20 0 32 16t12 36h74q-3 -48 -35.5 -81t-87.5 -33q-58 0 -94.5 27.5t-36.5 74.5q0 50 36 91q23 23 33 31h-5z" />
    <glyph glyph-name="iogonek" unicode="&#x12f;" horiz-adv-x="228" 
d="M70 0v508h88v-508h-2q-18 -10 -31 -25q-33 -39 -33 -78q0 -26 12 -42.5t34 -16.5q20 0 32 16t12 36h74q-3 -48 -35.5 -81t-87.5 -33q-58 0 -94.5 27.5t-36.5 74.5q0 29 11 53q8 17 21.5 34t23.5 25.5t13 9.5h-1zM158 608h-88v92h88v-92z" />
    <glyph glyph-name="Idot" unicode="&#x130;" horiz-adv-x="238" 
d="M72 0v700h94v-700h-94zM166 772h-94v79h94v-79z" />
    <glyph glyph-name="dotlessi" unicode="&#x131;" horiz-adv-x="233" 
d="M72 0v508h89v-508h-89z" />
    <glyph glyph-name="Jcircumflex" unicode="&#x134;" horiz-adv-x="520" 
d="M298 760h-94l125 140h142l125 -140h-94l-102 105zM23 196v36h94q0 -90 28 -132t93 -42q66 0 91 41.5t25 133.5v467h94v-458q0 -140 -49 -201.5t-162 -61.5q-214 0 -214 217z" />
    <glyph glyph-name="jcircumflex" unicode="&#x135;" horiz-adv-x="231" 
d="M73 -36v544h88v-555q0 -74 -27.5 -108t-92.5 -34q-14 0 -57 4v62q42 7 53 12q4 1 11 2.5t9.5 3.5t5.5 7q1 2 3 4l3 3t1.5 3t1 5t0.5 8q1 16 1 39zM-70 568l120 132h132l119 -132h-88l-97 99l-97 -99h-89z" />
    <glyph glyph-name="Kcommaaccent" unicode="&#x136;" horiz-adv-x="667" 
d="M179 700v-347l346 347h127l-292 -288l311 -412h-125l-255 349l-112 -109v-240h-94v700h94zM284 -150v90h99v-101q0 -78 -99 -99v55q21 2 35.5 14.5t14.5 29.5v11h-50z" />
    <glyph glyph-name="kcommaaccent" unicode="&#x137;" horiz-adv-x="523" 
d="M160 700v-434l242 242h105l-200 -196l220 -312h-102l-179 258l-86 -85v-173h-88v700h88zM232 -150v90h99v-101q0 -78 -99 -99v55q21 2 35.5 14.5t14.5 29.5v11h-50z" />
    <glyph glyph-name="Lacute" unicode="&#x139;" horiz-adv-x="529" 
d="M179 79h356v-79h-450v700h94v-621zM197 760l74 140h112l-102 -140h-84z" />
    <glyph glyph-name="lacute" unicode="&#x13a;" horiz-adv-x="232" 
d="M72 0v700h88v-700h-88zM74 751l70 132h106l-96 -132h-80z" />
    <glyph glyph-name="Lcommaaccent" unicode="&#x13b;" horiz-adv-x="529" 
d="M215 -150v90h99v-101q0 -78 -99 -99v55q21 2 35.5 14.5t14.5 29.5v11h-50zM179 79h356v-79h-450v700h94v-621z" />
    <glyph glyph-name="lcommaaccent" unicode="&#x13c;" horiz-adv-x="232" 
d="M66 -150v90h99v-101q0 -78 -99 -99v55q21 2 35.5 14.5t14.5 29.5v11h-50zM72 0v700h88v-700h-88z" />
    <glyph glyph-name="Lcaron" unicode="&#x13d;" horiz-adv-x="529" 
d="M417 591v109h99v-140q0 -50 -28 -79t-71 -38v55q21 2 35.5 20.5t14.5 41.5v31h-50zM179 79h356v-79h-450v700h94v-621z" />
    <glyph glyph-name="lcaron" unicode="&#x13e;" horiz-adv-x="319" 
d="M229 591v109h99v-140q0 -50 -28 -79t-71 -38v55q21 2 35.5 20.5t14.5 41.5v31h-50zM72 0v700h88v-700h-88z" />
    <glyph glyph-name="Ldot" unicode="&#x13f;" horiz-adv-x="529" 
d="M179 79h356v-79h-450v700h94v-621zM442 328h-92v92h92v-92z" />
    <glyph glyph-name="ldot" unicode="&#x140;" horiz-adv-x="280" 
d="M302 288h-92v92h92v-92zM72 0v700h88v-700h-88z" />
    <glyph glyph-name="Lslash" unicode="&#x141;" horiz-adv-x="531" 
d="M181 79h356v-79h-450v194l-77 -76v84l77 76v422h94v-348l200 200v-84l-200 -200v-189z" />
    <glyph glyph-name="lslash" unicode="&#x142;" horiz-adv-x="294" 
d="M103 401v299h88v-247l123 85v-70l-123 -85v-383h-88v331l-123 -84v70z" />
    <glyph glyph-name="Nacute" unicode="&#x143;" horiz-adv-x="740" 
d="M552 0l-373 555v-555h-94v700h104l372 -555v555h94v-700h-103zM303 760l74 140h112l-102 -140h-84z" />
    <glyph glyph-name="nacute" unicode="&#x144;" horiz-adv-x="573" 
d="M72 0v508h88v-71q61 91 174 91q167 0 167 -190v-338h-88v311q0 29 -1 38q0 13 -6 39q-6 36 -29.5 55t-70.5 23q-47 0 -90 -31q-56 -41 -56 -158v-277h-88zM224 568l70 132h106l-96 -132h-80z" />
    <glyph glyph-name="Ncommaaccent" unicode="&#x145;" horiz-adv-x="740" 
d="M552 0l-373 555v-555h-94v700h104l372 -555v555h94v-700h-103zM320 -150v90h99v-101q0 -78 -99 -99v55q21 2 35.5 14.5t14.5 29.5v11h-50z" />
    <glyph glyph-name="ncommaaccent" unicode="&#x146;" horiz-adv-x="573" 
d="M72 0v508h88v-71q61 91 174 91q167 0 167 -190v-338h-88v311q0 29 -1 38q0 13 -6 39q-6 36 -29.5 55t-70.5 23q-47 0 -90 -31q-56 -41 -56 -158v-277h-88zM237 -150v90h99v-101q0 -78 -99 -99v55q21 2 35.5 14.5t14.5 29.5v11h-50z" />
    <glyph glyph-name="Ncaron" unicode="&#x147;" horiz-adv-x="740" 
d="M566 900l-125 -140h-142l-125 140h94l102 -105l102 105h94zM552 0l-373 555v-555h-94v700h104l372 -555v555h94v-700h-103z" />
    <glyph glyph-name="ncaron" unicode="&#x148;" horiz-adv-x="573" 
d="M471 700l-119 -132h-132l-119 132h88l97 -99l97 99h88zM72 0v508h88v-71q61 91 174 91q167 0 167 -190v-338h-88v311q0 29 -1 38q0 13 -6 39q-6 36 -29.5 55t-70.5 23q-47 0 -90 -31q-56 -41 -56 -158v-277h-88z" />
    <glyph glyph-name="Omacron" unicode="&#x14c;" horiz-adv-x="758" 
d="M45 350q0 180 91 275q92 96 243 96q104 0 184 -49q69 -40 109 -120.5t41 -201.5q0 -73 -17 -136q-32 -110 -102 -164q-63 -48 -131 -61q-43 -10 -84 -10q-23 0 -34 1q-55 3 -117 29q-82 39 -126 107q-57 91 -57 234zM145 350q0 -82 25 -151q51 -141 209 -141q19 0 28 1
q43 2 84 25q122 64 122 266q0 131 -59 211q-58 81 -175 81q-58 0 -104 -23t-72 -58q-24 -33 -37 -76q-21 -65 -21 -135zM379 772h-158v60h316v-60h-158z" />
    <glyph glyph-name="omacron" unicode="&#x14d;" horiz-adv-x="586" 
d="M56 154q-26 107 2 207t118 143q50 24 117 24t117 -24q90 -42 119 -150q13 -50 13.5 -100.5t-12 -99t-43 -88.5t-77.5 -63q-51 -23 -117 -23t-117 23q-87 42 -120 151zM149 355q-13 -40 -13 -100q0 -59 13 -101t30 -63q36 -40 82 -47q32 -5 64 0q14 1 39 14q27 14 44 35
t29 61q13 42 13 101q0 60 -13 100q-14 44 -31 63q-16 19 -40 32t-41 16q-32 5 -64 0q-14 -1 -40 -15q-51 -25 -72 -96zM293 613h-158v60h316v-60h-158z" />
    <glyph glyph-name="Obreve" unicode="&#x14e;" horiz-adv-x="758" 
d="M45 350q0 180 91 275q92 96 243 96q104 0 184 -49q69 -40 109 -120.5t41 -201.5q0 -73 -17 -136q-32 -110 -102 -164q-63 -48 -131 -61q-43 -10 -84 -10q-23 0 -34 1q-55 3 -117 29q-82 39 -126 107q-57 91 -57 234zM145 350q0 -82 25 -151q51 -141 209 -141q19 0 28 1
q43 2 84 25q122 64 122 266q0 131 -59 211q-58 81 -175 81q-58 0 -104 -23t-72 -58q-24 -33 -37 -76q-21 -65 -21 -135zM196 900h78q1 -38 30 -61t75 -23t71 19.5t34 64.5h78q-29 -140 -183 -140t-183 140z" />
    <glyph glyph-name="obreve" unicode="&#x14f;" horiz-adv-x="586" 
d="M56 154q-26 107 2 207t118 143q50 24 117 24t117 -24q90 -42 119 -150q13 -50 13.5 -100.5t-12 -99t-43 -88.5t-77.5 -63q-51 -23 -117 -23t-117 23q-87 42 -120 151zM149 355q-13 -40 -13 -100q0 -59 13 -101t30 -63q36 -40 82 -47q32 -5 64 0q14 1 39 14q27 14 44 35
t29 61q13 42 13 101q0 60 -13 100q-14 44 -31 63q-16 19 -40 32t-41 16q-32 5 -64 0q-14 -1 -40 -15q-51 -25 -72 -96zM121 700h74q3 -35 28 -57t70 -22t70 22t28 57h74q-7 -50 -49 -92q-40 -40 -123 -40q-84 0 -124 40t-48 92z" />
    <glyph glyph-name="Ohungarumlaut" unicode="&#x150;" horiz-adv-x="758" 
d="M45 350q0 180 91 275q92 96 243 96q104 0 184 -49q69 -40 109 -120.5t41 -201.5q0 -73 -17 -136q-32 -110 -102 -164q-63 -48 -131 -61q-43 -10 -84 -10q-23 0 -34 1q-55 3 -117 29q-82 39 -126 107q-57 91 -57 234zM145 350q0 -82 25 -151q51 -141 209 -141q19 0 28 1
q43 2 84 25q122 64 122 266q0 131 -59 211q-58 81 -175 81q-58 0 -104 -23t-72 -58q-24 -33 -37 -76q-21 -65 -21 -135zM214 760l70 140h106l-96 -140h-80zM367 760l70 140h106l-96 -140h-80z" />
    <glyph glyph-name="ohungarumlaut" unicode="&#x151;" horiz-adv-x="586" 
d="M56 154q-26 107 2 207t118 143q50 24 117 24t117 -24q90 -42 119 -150q13 -50 13.5 -100.5t-12 -99t-43 -88.5t-77.5 -63q-51 -23 -117 -23t-117 23q-87 42 -120 151zM149 355q-13 -40 -13 -100q0 -59 13 -101t30 -63q36 -40 82 -47q32 -5 64 0q14 1 39 14q27 14 44 35
t29 61q13 42 13 101q0 60 -13 100q-14 44 -31 63q-16 19 -40 32t-41 16q-32 5 -64 0q-14 -1 -40 -15q-51 -25 -72 -96zM128 568l70 132h106l-96 -132h-80zM281 568l70 132h106l-96 -132h-80z" />
    <glyph glyph-name="OE" unicode="&#x152;" horiz-adv-x="1141" 
d="M613 604v96h499v-79h-405v-220h367v-79h-367v-243h417v-79h-511v84q-73 -105 -234 -105q-167 0 -251 104q-83 106 -83 267q0 150 71 254q37 55 105 86t157 31q166 0 235 -117zM379 58q19 0 28 1q43 2 84 25q122 64 122 266q0 71 -17 127.5t-44 87.5q-26 30 -60 48
q-52 29 -113 29q-60 0 -115 -28q-116 -56 -119 -264q0 -82 25 -151q51 -141 209 -141z" />
    <glyph glyph-name="oe" unicode="&#x153;" horiz-adv-x="972" 
d="M840 148h84q-40 -168 -225 -168q-53 0 -103 14q-64 19 -104 90q-56 -104 -200 -104q-123 0 -186 76q-63 77 -63 200q0 68 22 129q18 44 41 70q28 32 77.5 52.5t112.5 20.5q138 0 196 -100q64 100 199 100q132 0 190 -84q31 -45 41 -101q7 -37 7 -83v-25h-393
q0 -48 15 -90q16 -45 54.5 -74t90.5 -29q58 0 95 29.5t49 76.5zM136 256q0 -112 43 -164q18 -21 42 -33q35 -17 71 -17q75 0 113 52q43 59 43 162q0 57 -16 106q-35 104 -140 104q-36 0 -71 -17q-85 -42 -85 -193zM536 297h300q-10 91 -42 130t-101 39q-91 0 -126 -61
q-29 -52 -31 -108z" />
    <glyph glyph-name="Racute" unicode="&#x154;" horiz-adv-x="681" 
d="M179 0h-94v700h310q232 0 232 -188q0 -63 -33 -112q-31 -49 -87 -61v-3q68 -26 85 -72q15 -41 16 -97v-37q1 -18 2 -34t1 -22q1 -17 7 -40q4 -13 18 -34h-99q-18 24 -22 50q-4 24 -4 98q0 62 -19 100q-24 49 -113 49h-200v-297zM375 621h-196v-245h210q21 0 41.5 5t44 17
t38 39t14.5 65q0 119 -152 119zM273 760l74 140h112l-102 -140h-84z" />
    <glyph glyph-name="racute" unicode="&#x155;" horiz-adv-x="369" 
d="M330 527l26 1v-62q-95 -4 -142 -45.5t-53 -132.5q-1 -6 -1 -27v-27v-234h-88v508h88v-98h2q17 53 63 84t105 33zM122 568l70 132h106l-96 -132h-80z" />
    <glyph glyph-name="Rcommaaccent" unicode="&#x156;" horiz-adv-x="681" 
d="M179 0h-94v700h310q232 0 232 -188q0 -63 -33 -112q-31 -49 -87 -61v-3q68 -26 85 -72q15 -41 16 -97v-37q1 -18 2 -34t1 -22q1 -17 7 -40q4 -13 18 -34h-99q-18 24 -22 50q-4 24 -4 98q0 62 -19 100q-24 49 -113 49h-200v-297zM375 621h-196v-245h210q21 0 41.5 5t44 17
t38 39t14.5 65q0 119 -152 119zM291 -150v90h99v-101q0 -78 -99 -99v55q21 2 35.5 14.5t14.5 29.5v11h-50z" />
    <glyph glyph-name="rcommaaccent" unicode="&#x157;" horiz-adv-x="369" 
d="M330 527l26 1v-62q-95 -4 -142 -45.5t-53 -132.5q-1 -6 -1 -27v-27v-234h-88v508h88v-98h2q17 53 63 84t105 33zM135 -150v90h99v-101q0 -78 -99 -99v55q21 2 35.5 14.5t14.5 29.5v11h-50z" />
    <glyph glyph-name="Rcaron" unicode="&#x158;" horiz-adv-x="681" 
d="M179 0h-94v700h310q232 0 232 -188q0 -63 -33 -112q-31 -49 -87 -61v-3q68 -26 85 -72q15 -41 16 -97v-37q1 -18 2 -34t1 -22q1 -17 7 -40q4 -13 18 -34h-99q-18 24 -22 50q-4 24 -4 98q0 62 -19 100q-24 49 -113 49h-200v-297zM375 621h-196v-245h210q21 0 41.5 5t44 17
t38 39t14.5 65q0 119 -152 119zM536 900l-125 -140h-142l-125 140h94l102 -105l102 105h94z" />
    <glyph glyph-name="rcaron" unicode="&#x159;" horiz-adv-x="369" 
d="M370 700l-119 -132h-132l-119 132h88l97 -99l97 99h88zM330 527l26 1v-62q-95 -4 -142 -45.5t-53 -132.5q-1 -6 -1 -27v-27v-234h-88v508h88v-98h2q17 53 63 84t105 33z" />
    <glyph glyph-name="Sacute" unicode="&#x15a;" horiz-adv-x="656" 
d="M45 222h94q-2 -72 52 -118q53 -46 148 -46q84 0 128 36t44 94q0 63 -47 89q-44 24 -94 34q-31 6 -47 10t-47 10l-42 10q-26 7 -74 27q-26 12 -56 42q-35 38 -35 110q0 96 71.5 148.5t193.5 52.5q123 0 187 -58q65 -57 72 -145h-94q-13 124 -168 124q-73 0 -117.5 -31.5
t-44.5 -85.5q-6 -48 52 -84q8 -6 38 -14l39 -10q11 -1 46 -9q37 -7 48 -10l45 -11q35 -8 86 -34q35 -17 63 -62q25 -33 25 -101q-4 -125 -92 -171q-50 -27 -106 -34q-34 -6 -79 -6q-277 0 -289 243zM261 760l74 140h112l-102 -140h-84z" />
    <glyph glyph-name="sacute" unicode="&#x15b;" horiz-adv-x="506" 
d="M36 151h88q2 -54 40 -81.5t98 -27.5q61 0 92 27q11 11 17 27q8 19 8 42q0 29 -20 49q-18 18 -87 35l-54 12q-69 16 -111 40q-49 31 -49 108q0 78 56 112t137 34q193 0 206 -153h-84q-9 91 -119 91q-17 0 -41 -5q-64 -15 -64 -75q0 -19 11 -43q5 -9 31 -25q5 -3 24.5 -9
t20.5 -6l26 -6l27 -5q41 -9 60 -15q18 -4 47 -17q39 -16 54.5 -41.5t19.5 -74.5q0 -43 -19.5 -76.5t-47.5 -50.5q-24 -16 -60 -25q-45 -12 -82 -12q-105 0 -164 47t-61 124zM191 568l70 132h106l-96 -132h-80z" />
    <glyph glyph-name="Scircumflex" unicode="&#x15c;" horiz-adv-x="656" 
d="M45 222h94q-2 -72 52 -118q53 -46 148 -46q84 0 128 36t44 94q0 63 -47 89q-44 24 -94 34q-31 6 -47 10t-47 10l-42 10q-26 7 -74 27q-26 12 -56 42q-35 38 -35 110q0 96 71.5 148.5t193.5 52.5q123 0 187 -58q65 -57 72 -145h-94q-13 124 -168 124q-73 0 -117.5 -31.5
t-44.5 -85.5q-6 -48 52 -84q8 -6 38 -14l39 -10q11 -1 46 -9q37 -7 48 -10l45 -11q35 -8 86 -34q35 -17 63 -62q25 -33 25 -101q-4 -125 -92 -171q-50 -27 -106 -34q-34 -6 -79 -6q-277 0 -289 243zM226 760h-94l125 140h142l125 -140h-94l-102 105z" />
    <glyph glyph-name="scircumflex" unicode="&#x15d;" horiz-adv-x="506" 
d="M36 151h88q2 -54 40 -81.5t98 -27.5q61 0 92 27q11 11 17 27q8 19 8 42q0 29 -20 49q-18 18 -87 35l-54 12q-69 16 -111 40q-49 31 -49 108q0 78 56 112t137 34q193 0 206 -153h-84q-9 91 -119 91q-17 0 -41 -5q-64 -15 -64 -75q0 -19 11 -43q5 -9 31 -25q5 -3 24.5 -9
t20.5 -6l26 -6l27 -5q41 -9 60 -15q18 -4 47 -17q39 -16 54.5 -41.5t19.5 -74.5q0 -43 -19.5 -76.5t-47.5 -50.5q-24 -16 -60 -25q-45 -12 -82 -12q-105 0 -164 47t-61 124zM156 568h-88l119 132h132l119 -132h-88l-97 99z" />
    <glyph glyph-name="Scedilla" unicode="&#x15e;" horiz-adv-x="656" 
d="M45 222h94q-2 -72 52 -118q53 -46 148 -46q84 0 128 36t44 94q0 63 -47 89q-44 24 -94 34q-31 6 -47 10t-47 10l-42 10q-26 7 -74 27q-26 12 -56 42q-35 38 -35 110q0 96 71.5 148.5t193.5 52.5q123 0 187 -58q65 -57 72 -145h-94q-13 124 -168 124q-73 0 -117.5 -31.5
t-44.5 -85.5q-6 -48 52 -84q8 -6 38 -14l39 -10q11 -1 46 -9q37 -7 48 -10l45 -11q35 -8 86 -34q35 -17 63 -62q25 -33 25 -101q-4 -125 -92 -171q-50 -27 -106 -34q-34 -6 -79 -6q-277 0 -289 243zM222 -232l17 56q24 -8 62 -8q63 0 63 37t-59 37h-27h-17l15 52h32
q133 0 133 -98q0 -37 -30.5 -60.5t-97.5 -23.5q-33 0 -91 8z" />
    <glyph glyph-name="scedilla" unicode="&#x15f;" horiz-adv-x="506" 
d="M36 151h88q2 -54 40 -81.5t98 -27.5q61 0 92 27q11 11 17 27q8 19 8 42q0 29 -20 49q-18 18 -87 35l-54 12q-69 16 -111 40q-49 31 -49 108q0 78 56 112t137 34q193 0 206 -153h-84q-9 91 -119 91q-17 0 -41 -5q-64 -15 -64 -75q0 -19 11 -43q5 -9 31 -25q5 -3 24.5 -9
t20.5 -6l26 -6l27 -5q41 -9 60 -15q18 -4 47 -17q39 -16 54.5 -41.5t19.5 -74.5q0 -43 -19.5 -76.5t-47.5 -50.5q-24 -16 -60 -25q-45 -12 -82 -12q-105 0 -164 47t-61 124zM147 -232l17 56q24 -8 62 -8q63 0 63 37t-59 37h-27h-17l15 52h32q133 0 133 -98
q0 -37 -30.5 -60.5t-97.5 -23.5q-33 0 -91 8z" />
    <glyph glyph-name="Scaron" unicode="&#x160;" horiz-adv-x="656" 
d="M45 222h94q-2 -72 52 -118q53 -46 148 -46q84 0 128 36t44 94q0 63 -47 89q-44 24 -94 34q-31 6 -47 10t-47 10l-42 10q-26 7 -74 27q-26 12 -56 42q-35 38 -35 110q0 96 71.5 148.5t193.5 52.5q123 0 187 -58q65 -57 72 -145h-94q-13 124 -168 124q-73 0 -117.5 -31.5
t-44.5 -85.5q-6 -48 52 -84q8 -6 38 -14l39 -10q11 -1 46 -9q37 -7 48 -10l45 -11q35 -8 86 -34q35 -17 63 -62q25 -33 25 -101q-4 -125 -92 -171q-50 -27 -106 -34q-34 -6 -79 -6q-277 0 -289 243zM524 900l-125 -140h-142l-125 140h94l102 -105l102 105h94z" />
    <glyph glyph-name="scaron" unicode="&#x161;" horiz-adv-x="506" 
d="M36 151h88q2 -54 40 -81.5t98 -27.5q61 0 92 27q11 11 17 27q8 19 8 42q0 29 -20 49q-18 18 -87 35l-54 12q-69 16 -111 40q-49 31 -49 108q0 78 56 112t137 34q193 0 206 -153h-84q-9 91 -119 91q-17 0 -41 -5q-64 -15 -64 -75q0 -19 11 -43q5 -9 31 -25q5 -3 24.5 -9
t20.5 -6l26 -6l27 -5q41 -9 60 -15q18 -4 47 -17q39 -16 54.5 -41.5t19.5 -74.5q0 -43 -19.5 -76.5t-47.5 -50.5q-24 -16 -60 -25q-45 -12 -82 -12q-105 0 -164 47t-61 124zM438 700l-119 -132h-132l-119 132h88l97 -99l97 99h88z" />
    <glyph glyph-name="Tcedilla" unicode="&#x162;" horiz-adv-x="575" 
d="M241 0v621h-228v79h549v-79h-227v-621h-94zM181 -232l17 56q24 -8 62 -8q63 0 63 37t-59 37h-27h-17l15 52h32q133 0 133 -98q0 -37 -30.5 -60.5t-97.5 -23.5q-33 0 -91 8z" />
    <glyph glyph-name="tcedilla" unicode="&#x163;" horiz-adv-x="320" 
d="M13 446v62h91v152h88v-152h108v-62h-108v-323v-5q-1 -35 7.5 -48.5t45.5 -16.5q23 0 55 9v-62q-48 -20 -92 -20q-58 0 -82 28q-9 9 -16 31q-6 23 -6 66v341h-91zM83 -232l17 56q24 -8 62 -8q63 0 63 37t-59 37h-27h-17l15 52h32q133 0 133 -98q0 -37 -30.5 -60.5
t-97.5 -23.5q-33 0 -91 8z" />
    <glyph glyph-name="Tcaron" unicode="&#x164;" horiz-adv-x="575" 
d="M483 900l-125 -140h-142l-125 140h94l102 -105l102 105h94zM241 0v621h-228v79h549v-79h-227v-621h-94z" />
    <glyph glyph-name="tcaron" unicode="&#x165;" horiz-adv-x="454" 
d="M13 446v62h91v152h88v-152h108v-62h-108v-323v-5q-1 -35 7.5 -48.5t45.5 -16.5q23 0 55 9v-62q-48 -20 -92 -20q-58 0 -82 28q-9 9 -16 31q-6 23 -6 66v341h-91zM356 591v109h99v-140q0 -50 -28 -79t-71 -38v55q21 2 35.5 20.5t14.5 41.5v31h-50z" />
    <glyph glyph-name="Utilde" unicode="&#x168;" horiz-adv-x="696" 
d="M483 868h61q-7 -47 -37 -77.5t-79 -30.5q-23 0 -41 6l-18 7q-17 7 -29 14q-3 1 -17.5 8.5t-18.5 9.5q-16 7 -34 7q-50 0 -56 -41h-62q6 44 38.5 74.5t79.5 30.5q40 0 78 -23q47 -29 78 -29q46 0 57 44zM72 271v429h94v-417q0 -65 14 -116q28 -104 168 -109
q99 0 140.5 53.5t41.5 171.5v417h94v-429q-4 -170 -85 -235q-49 -38 -104 -49q-40 -8 -87 -8q-69 0 -124 19t-84 48q-28 28 -44 71q-24 65 -24 154z" />
    <glyph glyph-name="utilde" unicode="&#x169;" horiz-adv-x="573" 
d="M501 508v-508h-88v72h-2q-22 -40 -65 -63q-55 -29 -107 -29q-167 0 -167 191v337h88v-311q0 -86 25.5 -120.5t81.5 -34.5q146 0 146 189v277h88zM413 700h58q-9 -45 -36.5 -73.5t-74.5 -28.5q-32 0 -82 26q-46 24 -67 24q-47 0 -51 -40h-59q7 43 37 71.5t74 28.5
q37 0 74 -22q47 -28 74 -28q18 0 33 12t20 30z" />
    <glyph glyph-name="Umacron" unicode="&#x16a;" horiz-adv-x="696" 
d="M72 271v429h94v-417q0 -65 14 -116q28 -104 168 -109q99 0 140.5 53.5t41.5 171.5v417h94v-429q-4 -170 -85 -235q-49 -38 -104 -49q-40 -8 -87 -8q-69 0 -124 19t-84 48q-28 28 -44 71q-24 65 -24 154zM348 772h-158v60h316v-60h-158z" />
    <glyph glyph-name="umacron" unicode="&#x16b;" horiz-adv-x="573" 
d="M501 508v-508h-88v72h-2q-22 -40 -65 -63q-55 -29 -107 -29q-167 0 -167 191v337h88v-311q0 -86 25.5 -120.5t81.5 -34.5q146 0 146 189v277h88zM286 613h-158v60h316v-60h-158z" />
    <glyph glyph-name="Ubreve" unicode="&#x16c;" horiz-adv-x="696" 
d="M72 271v429h94v-417q0 -65 14 -116q28 -104 168 -109q99 0 140.5 53.5t41.5 171.5v417h94v-429q-4 -170 -85 -235q-49 -38 -104 -49q-40 -8 -87 -8q-69 0 -124 19t-84 48q-28 28 -44 71q-24 65 -24 154zM165 900h78q1 -38 30 -61t75 -23t71 19.5t34 64.5h78
q-29 -140 -183 -140q-93 0 -139 49q-34 42 -44 91z" />
    <glyph glyph-name="ubreve" unicode="&#x16d;" horiz-adv-x="573" 
d="M501 508v-508h-88v72h-2q-22 -40 -65 -63q-55 -29 -107 -29q-167 0 -167 191v337h88v-311q0 -86 25.5 -120.5t81.5 -34.5q146 0 146 189v277h88zM114 700h74q3 -35 28 -57t70 -22t70 22t28 57h74q-7 -50 -49 -92q-40 -40 -123 -40q-84 0 -124 40t-48 92z" />
    <glyph glyph-name="Uring" unicode="&#x16e;" horiz-adv-x="696" 
d="M72 271v429h94v-417q0 -65 14 -116q28 -104 168 -109q99 0 140.5 53.5t41.5 171.5v417h94v-429q-4 -170 -85 -235q-49 -38 -104 -49q-40 -8 -87 -8q-69 0 -124 19t-84 48q-28 28 -44 71q-24 65 -24 154zM278 752q-28 28 -28 70q0 41 28 69q29 29 70 29q40 0 69 -29
t29 -69q0 -41 -29 -70q-28 -28 -69 -28q-42 0 -70 28zM308 861q-16 -16 -16 -39t16 -40q17 -16 40 -16t39 16q17 17 17 40t-17 39q-16 17 -39 17t-40 -17z" />
    <glyph glyph-name="uring" unicode="&#x16f;" horiz-adv-x="573" 
d="M501 508v-508h-88v72h-2q-22 -40 -65 -63q-55 -29 -107 -29q-167 0 -167 191v337h88v-311q0 -86 25.5 -120.5t81.5 -34.5q146 0 146 189v277h88zM220 594q-26 28 -26 66q0 39 26 65q27 27 66 27t65 -27q27 -26 27 -65t-27 -66q-26 -26 -65 -26q-38 0 -66 26zM249 697
q-15 -15 -15 -37t15 -37t37 -15t37 15t15 37t-15 37t-37 15t-37 -15z" />
    <glyph glyph-name="Uhungarumlaut" unicode="&#x170;" horiz-adv-x="696" 
d="M72 271v429h94v-417q0 -65 14 -116q28 -104 168 -109q99 0 140.5 53.5t41.5 171.5v417h94v-429q-4 -170 -85 -235q-49 -38 -104 -49q-40 -8 -87 -8q-69 0 -124 19t-84 48q-28 28 -44 71q-24 65 -24 154zM183 760l70 140h106l-96 -140h-80zM336 760l70 140h106l-96 -140
h-80z" />
    <glyph glyph-name="uhungarumlaut" unicode="&#x171;" horiz-adv-x="573" 
d="M501 508v-508h-88v72h-2q-22 -40 -65 -63q-55 -29 -107 -29q-167 0 -167 191v337h88v-311q0 -86 25.5 -120.5t81.5 -34.5q146 0 146 189v277h88zM122 568l70 132h106l-96 -132h-80zM275 568l70 132h106l-96 -132h-80z" />
    <glyph glyph-name="Uogonek" unicode="&#x172;" horiz-adv-x="696" 
d="M72 271v429h94v-417q0 -65 14 -116q28 -104 168 -109q99 0 140.5 53.5t41.5 171.5v417h94v-429q0 -141 -63 -213q-25 -29 -63 -49q-58 -30 -130 -30q-16 -15 -26.5 -39t-10.5 -43q0 -26 12 -42.5t34 -16.5q20 0 32 16t12 36h74q-3 -48 -35.5 -81t-87.5 -33
q-58 0 -94.5 27.5t-36.5 74.5q0 56 48 104q-217 22 -217 289z" />
    <glyph glyph-name="uogonek" unicode="&#x173;" horiz-adv-x="573" 
d="M72 171v337h88v-311q0 -86 25.5 -120.5t81.5 -34.5q146 0 146 189v277h88v-508h-3q-29 -17 -46.5 -46t-17.5 -57q0 -26 12 -42.5t34 -16.5q20 0 32 16t12 36h74q-3 -48 -35.5 -81t-87.5 -33q-58 0 -94.5 27.5t-36.5 74.5q0 29 11 53q8 17 21.5 34t23.5 25.5t13 9.5v72h-2
q-22 -40 -65 -63q-55 -29 -107 -29q-167 0 -167 191z" />
    <glyph glyph-name="Ydieresis" unicode="&#x178;" horiz-adv-x="453" 
d="M32 700l195 -324l194 324h112l-259 -408v-292h-94v292l-260 408h112zM165 772h-94v79h94v-79zM381 772h-94v79h94v-79z" />
    <glyph glyph-name="Zacute" unicode="&#x179;" horiz-adv-x="593" 
d="M48 621v79h499v-75l-406 -546h426v-79h-541v86l411 535h-389zM229 760l74 140h112l-102 -140h-84z" />
    <glyph glyph-name="zacute" unicode="&#x17a;" horiz-adv-x="468" 
d="M47 446v62h380v-62l-295 -384h310v-62h-416v62l304 384h-283zM172 568l70 132h106l-96 -132h-80z" />
    <glyph glyph-name="Zdotaccent" unicode="&#x17b;" horiz-adv-x="593" 
d="M48 621v79h499v-75l-406 -546h426v-79h-541v86l411 535h-389zM343 772h-94v79h94v-79z" />
    <glyph glyph-name="zdotaccent" unicode="&#x17c;" horiz-adv-x="468" 
d="M47 446v62h380v-62l-295 -384h310v-62h-416v62l304 384h-283zM280 608h-92v92h92v-92z" />
    <glyph glyph-name="Zcaron" unicode="&#x17d;" horiz-adv-x="593" 
d="M492 900l-125 -140h-142l-125 140h94l102 -105l102 105h94zM48 621v79h499v-75l-406 -546h426v-79h-541v86l411 535h-389z" />
    <glyph glyph-name="zcaron" unicode="&#x17e;" horiz-adv-x="468" 
d="M419 700l-119 -132h-132l-119 132h88l97 -99l97 99h88zM47 446v62h380v-62l-295 -384h310v-62h-416v62l304 384h-283z" />
    <glyph glyph-name="uni018F" unicode="&#x18f;" horiz-adv-x="764" 
d="M49 361h568q-1 132 -62 204q-37 42 -84 60.5t-88 16.5q-46 0 -90 -12q-112 -27 -138 -146h-97q23 116 110 176q88 61 215 61q151 0 243 -96q91 -95 91 -275q0 -73 -17 -136q-32 -110 -102 -164q-63 -48 -131 -61q-43 -10 -84 -10q-75 0 -136.5 24t-99.5 65
q-102 110 -98 293zM614 278h-463q3 -26 10.5 -52.5t25 -58t42 -54.5t64.5 -39t90 -16q105 0 164 65q59 64 67 155z" />
    <glyph glyph-name="florin" unicode="&#x192;" horiz-adv-x="580" 
d="M356 508h109l-13 -62h-109l-103 -490q-10 -46 -24 -75q-29 -65 -127 -70q-34 0 -55 4l14 65q3 -1 14 -1q42 0 61 18t29 65l102 484h-93l13 62h93l15 69q27 123 162 123q35 0 62 -7l-12 -60q-28 5 -62 5q-50 0 -63 -69z" />
    <glyph glyph-name="uni019F" unicode="&#x19f;" horiz-adv-x="758" 
d="M45 350q0 180 91 275q92 96 243 96q104 0 184 -49q69 -40 109 -120.5t41 -201.5q0 -73 -17 -136q-32 -110 -102 -164q-63 -48 -131 -61q-43 -10 -84 -10q-23 0 -34 1q-55 3 -117 29q-82 39 -126 107q-57 91 -57 234zM147 391h465q-5 61 -26 114q-47 133 -207 137
q-128 0 -181 -89q-45 -75 -51 -162zM612 312h-466q0 -56 21 -113q15 -37 38 -68q26 -32 71.5 -52.5t102.5 -20.5q53 0 95 17.5t67 44t41 62t22.5 67t7.5 63.5z" />
    <glyph glyph-name="uni01CF" unicode="&#x1cf;" horiz-adv-x="264" 
d="M328 900l-125 -140h-142l-125 140h94l102 -105l102 105h94zM85 0v700h94v-700h-94z" />
    <glyph glyph-name="uni01D0" unicode="&#x1d0;" horiz-adv-x="233" 
d="M302 700l-119 -132h-132l-119 132h88l97 -99l97 99h88zM72 0v508h89v-508h-89z" />
    <glyph glyph-name="uni01DD" unicode="&#x1dd;" horiz-adv-x="570" 
d="M142 361h-84q9 43 32.5 78t51.5 52q24 15 59 25q44 12 79 12q141 0 204 -92q31 -45 42 -104q7 -39 7 -76q0 -152 -86 -222q-45 -36 -96 -46q-35 -8 -66 -8q-242 0 -236 294h391q0 30 -7.5 61t-24.5 62t-49 50t-76 19q-52 0 -92.5 -29t-48.5 -76zM440 212h-299
q1 -84 44 -131q15 -15 39 -26q31 -13 59 -13q149 0 157 170z" />
    <glyph glyph-name="Gcaron" unicode="&#x1e6;" horiz-adv-x="740" 
d="M396 286v79h286v-365h-73v113h-2q-30 -64 -90.5 -99t-142.5 -35q-133 0 -227 82q-102 92 -102 296q0 175 91 269q92 95 251 95q132 0 202 -66q73 -67 83 -162h-94q-4 59 -50 104q-45 45 -143 45q-60 0 -107 -22.5t-73 -56.5q-23 -31 -39 -76q-21 -65 -21 -133
q0 -21 1 -33q8 -62 22 -106q58 -157 216 -157q59 0 103.5 22.5t67.5 59.5q41 69 41 146h-200zM566 900l-125 -140h-142l-125 140h94l102 -105l102 105h94z" />
    <glyph glyph-name="gcaron" unicode="&#x1e7;" 
d="M82 -57h84q19 -73 134 -73q84 0 121 69q10 16 13 37q6 32 6 52v55q-35 -57 -71.5 -80t-92.5 -23q-98 0 -164 70q-65 71 -65 208q0 26 1 37l7 53q4 33 19 63q23 51 71 85.5t122 31.5q127 0 176 -90h3v70h82v-495q0 -52 -18.5 -93.5t-47.5 -63.5q-26 -20 -62 -32
q-50 -17 -100 -17h-27q-40 0 -70 10q-51 18 -73 39q-35 35 -48 87zM296 42q32 0 66 20q81 44 84 198q0 98 -40.5 152t-117.5 54q-148 0 -148 -205q0 -113 42 -166q50 -55 114 -53zM485 700l-119 -132h-132l-119 132h88l97 -99l97 99h88z" />
    <glyph glyph-name="Scommaaccent" unicode="&#x218;" horiz-adv-x="656" 
d="M45 222h94q-2 -72 52 -118q53 -46 148 -46q84 0 128 36t44 94q0 63 -47 89q-44 24 -94 34q-31 6 -47 10t-47 10l-42 10q-26 7 -74 27q-26 12 -56 42q-35 38 -35 110q0 96 71.5 148.5t193.5 52.5q123 0 187 -58q65 -57 72 -145h-94q-13 124 -168 124q-73 0 -117.5 -31.5
t-44.5 -85.5q-6 -48 52 -84q8 -6 38 -14l39 -10q11 -1 46 -9q37 -7 48 -10l45 -11q35 -8 86 -34q35 -17 63 -62q25 -33 25 -101q-4 -125 -92 -171q-50 -27 -106 -34q-34 -6 -79 -6q-277 0 -289 243zM278 -150v90h99v-101q0 -78 -99 -99v55q21 2 35.5 14.5t14.5 29.5v11h-50z
" />
    <glyph glyph-name="scommaaccent" unicode="&#x219;" horiz-adv-x="506" 
d="M36 151h88q2 -54 40 -81.5t98 -27.5q61 0 92 27q11 11 17 27q8 19 8 42q0 29 -20 49q-18 18 -87 35l-54 12q-69 16 -111 40q-49 31 -49 108q0 78 56 112t137 34q193 0 206 -153h-84q-9 91 -119 91q-17 0 -41 -5q-64 -15 -64 -75q0 -19 11 -43q5 -9 31 -25q5 -3 24.5 -9
t20.5 -6l26 -6l27 -5q41 -9 60 -15q18 -4 47 -17q39 -16 54.5 -41.5t19.5 -74.5q0 -43 -19.5 -76.5t-47.5 -50.5q-24 -16 -60 -25q-45 -12 -82 -12q-105 0 -164 47t-61 124zM203 -150v90h99v-101q0 -78 -99 -99v55q21 2 35.5 14.5t14.5 29.5v11h-50z" />
    <glyph glyph-name="Tcommaaccent" unicode="&#x21a;" horiz-adv-x="575" 
d="M241 0v621h-228v79h549v-79h-227v-621h-94zM238 -150v90h99v-101q0 -78 -99 -99v55q21 2 35.5 14.5t14.5 29.5v11h-50z" />
    <glyph glyph-name="tcommaaccent" unicode="&#x21b;" horiz-adv-x="320" 
d="M13 446v62h91v152h88v-152h108v-62h-108v-323v-5q-1 -35 7.5 -48.5t45.5 -16.5q23 0 55 9v-62q-48 -20 -92 -20q-58 0 -82 28q-9 9 -16 31q-6 23 -6 66v341h-91zM154 -150v90h99v-101q0 -78 -99 -99v55q21 2 35.5 14.5t14.5 29.5v11h-50z" />
    <glyph glyph-name="uni0228" unicode="&#x228;" horiz-adv-x="612" 
d="M179 621v-220h367v-79h-367v-243h416v-79h-510v700h499v-79h-405zM200 -232l17 56q24 -8 62 -8q63 0 63 37t-59 37h-27h-17l15 52h32q133 0 133 -98q0 -37 -30.5 -60.5t-97.5 -23.5q-33 0 -91 8z" />
    <glyph glyph-name="uni0229" unicode="&#x229;" horiz-adv-x="570" 
d="M438 147h84q-12 -67 -65 -117t-157 -50q-141 0 -207 93q-33 49 -43 105q-7 39 -7 74q0 67 20 126q13 42 38 73q27 33 77 55t113 22q112 0 169 -62q24 -26 39 -66q22 -58 27 -141q0 -3 0.5 -13t0.5 -12h-391q0 -76 40 -134t121 -58q58 0 95 29t46 76zM136 296h298
q-1 59 -28 109q-31 61 -113 61q-93 0 -128 -62q-29 -50 -29 -108zM179 -232l17 56q24 -8 62 -8q63 0 63 37t-59 37h-27h-17l15 52h32q133 0 133 -98q0 -37 -30.5 -60.5t-97.5 -23.5q-33 0 -91 8z" />
    <glyph glyph-name="uni0237" unicode="&#x237;" horiz-adv-x="231" 
d="M73 -36v544h88v-555q0 -74 -27.5 -108t-92.5 -34q-14 0 -57 4v62q42 7 53 12q4 1 11 2.5t9.5 3.5t5.5 7q1 2 3 4l3 3t1.5 3t1 5t0.5 8q1 16 1 39z" />
    <glyph glyph-name="uni0259" unicode="&#x259;" horiz-adv-x="570" 
d="M142 361h-84q9 43 32.5 78t51.5 52q24 15 59 25q44 12 79 12q141 0 204 -92q31 -45 42 -104q7 -39 7 -76q0 -152 -86 -222q-45 -36 -96 -46q-35 -8 -66 -8q-242 0 -236 294h391q0 30 -7.5 61t-24.5 62t-49 50t-76 19q-52 0 -92.5 -29t-48.5 -76zM440 212h-299
q1 -84 44 -131q15 -15 39 -26q31 -13 59 -13q149 0 157 170z" />
    <glyph glyph-name="uni0275" unicode="&#x275;" horiz-adv-x="569" 
d="M534 255q0 -73 -23 -129.5t-57 -85.5q-31 -26 -72 -41q-53 -19 -98 -19q-123 0 -186 76q-63 77 -63 199t63 197q63 76 186 76t186 -76q64 -74 64 -197zM129 288h311q-5 68 -35 117q-35 61 -121 61q-82 0 -120 -61q-30 -49 -35 -117zM440 226h-311q1 -56 30 -115
q35 -69 125 -69q71 0 110 46q41 52 46 138z" />
    <glyph glyph-name="uni02B9" unicode="&#x2b9;" horiz-adv-x="260" 
d="M78 700h132l-108 -192h-52z" />
    <glyph glyph-name="uni02BA" unicode="&#x2ba;" horiz-adv-x="448" 
d="M78 700h132l-108 -192h-52zM266 700h132l-108 -192h-52z" />
    <glyph glyph-name="afii57929" unicode="&#x2bc;" horiz-adv-x="199" 
d="M50 591v109h99v-140q0 -50 -28 -79t-71 -38v55q21 2 35.5 20.5t14.5 41.5v31h-50z" />
    <glyph glyph-name="afii64937" unicode="&#x2bd;" horiz-adv-x="311" 
d="M106 700h99v-109h-50v-31q0 -23 14.5 -41.5t35.5 -20.5v-55q-29 6 -54 23q-45 34 -45 94v140z" />
    <glyph glyph-name="circumflex" unicode="&#x2c6;" horiz-adv-x="470" 
d="M138 568h-88l119 132h132l119 -132h-88l-97 99z" />
    <glyph glyph-name="caron" unicode="&#x2c7;" horiz-adv-x="470" 
d="M420 700l-119 -132h-132l-119 132h88l97 -99l97 99h88z" />
    <glyph glyph-name="breve" unicode="&#x2d8;" horiz-adv-x="444" 
d="M50 700h74q3 -35 28 -57t70 -22t70 22t28 57h74q-7 -50 -49 -92q-40 -40 -123 -40q-84 0 -124 40t-48 92z" />
    <glyph glyph-name="dotaccent" unicode="&#x2d9;" horiz-adv-x="192" 
d="M142 608h-92v92h92v-92z" />
    <glyph glyph-name="ring" unicode="&#x2da;" horiz-adv-x="284" 
d="M76 594q-26 28 -26 66q0 39 26 65q27 27 66 27t65 -27q27 -26 27 -65t-27 -66q-26 -26 -65 -26q-38 0 -66 26zM105 697q-15 -15 -15 -37t15 -37t37 -15t37 15t15 37t-15 37t-37 15t-37 -15z" />
    <glyph glyph-name="ogonek" unicode="&#x2db;" horiz-adv-x="350" 
d="M117 0h85q-29 -17 -46.5 -46t-17.5 -57q0 -26 12 -42.5t34 -16.5q20 0 32 16t12 36h74q-3 -48 -35.5 -81t-87.5 -33q-58 0 -94.5 27.5t-36.5 74.5q0 70 69 122z" />
    <glyph glyph-name="tilde" unicode="&#x2dc;" horiz-adv-x="470" 
d="M362 700h58q-9 -45 -36.5 -73.5t-74.5 -28.5q-32 0 -82 26q-47 24 -67 24q-47 0 -51 -40h-59q7 43 37 71.5t74 28.5q36 0 74 -22q47 -28 74 -28q18 0 33 12t20 30z" />
    <glyph glyph-name="hungarumlaut" unicode="&#x2dd;" horiz-adv-x="429" 
d="M50 568l70 132h106l-96 -132h-80zM203 568l70 132h106l-96 -132h-80z" />
    <glyph glyph-name="acutecomb" unicode="&#x301;" horiz-adv-x="2" 
d="M-337 568l70 132h106l-96 -132h-80z" />
    <glyph glyph-name="uni0313" unicode="&#x313;" horiz-adv-x="311" 
d="M106 591v109h99v-140q0 -50 -28 -79t-71 -38v55q21 2 35.5 20.5t14.5 41.5v31h-50z" />
    <glyph glyph-name="uni0315" unicode="&#x315;" horiz-adv-x="199" 
d="M50 591v109h99v-140q0 -50 -28 -79t-71 -38v55q21 2 35.5 20.5t14.5 41.5v31h-50z" />
    <glyph glyph-name="uni0326" unicode="&#x326;" horiz-adv-x="199" 
d="M50 -150v90h99v-101q0 -78 -99 -99v55q21 2 35.5 14.5t14.5 29.5v11h-50z" />
    <glyph glyph-name="uni0345" unicode="&#x345;" horiz-adv-x="2" 
d="M-494 -127v78h88v-46q-2 -29 25 -29h2q2 1 5.5 1.5t7.5 0.5v-62q-32 -5 -49 -5q-43 0 -61 13.5t-18 48.5z" />
    <glyph glyph-name="uni0374" unicode="&#x374;" horiz-adv-x="260" 
d="M50 508l28 192h132l-108 -192h-52z" />
    <glyph glyph-name="uni0375" unicode="&#x375;" horiz-adv-x="260" 
d="M50 -91l28 191h132l-108 -191h-52z" />
    <glyph glyph-name="uni037A" unicode="&#x37a;" horiz-adv-x="168" 
d="M40 -127v78h88v-46q-2 -29 25 -29h2q2 1 5.5 1.5t7.5 0.5v-62q-32 -5 -49 -5q-43 0 -61 13.5t-18 48.5z" />
    <glyph glyph-name="tonos" unicode="&#x384;" horiz-adv-x="200" 
d="M110 568h-80l70 146h110z" />
    <glyph glyph-name="dieresistonos" unicode="&#x385;" horiz-adv-x="380" 
d="M162 568h-48l57 146h90zM360 700v-92h-78v92h78zM98 700v-92h-78v92h78z" />
    <glyph glyph-name="Alphatonos" unicode="&#x386;" horiz-adv-x="680" 
d="M110 568h-80l70 146h110zM491 260l-122 345l-122 -345h244zM583 0l-66 181h-296l-66 -181h-101l265 700h100l265 -700h-101z" />
    <glyph glyph-name="anoteleia" unicode="&#x387;" horiz-adv-x="250" 
d="M175 323v-110h-99v110h99z" />
    <glyph glyph-name="Epsilontonos" unicode="&#x388;" horiz-adv-x="788" 
d="M110 568h-80l70 146h110zM760 621h-405v-220h367v-79h-367v-243h416v-79h-510v700h499v-79z" />
    <glyph glyph-name="Etatonos" unicode="&#x389;" horiz-adv-x="886" 
d="M110 568h-80l70 146h110zM707 0v329h-352v-329h-94v700h94v-292h352v292h94v-700h-94z" />
    <glyph glyph-name="Iotatonos" unicode="&#x38a;" horiz-adv-x="440" 
d="M110 568h-80l70 146h110zM355 0h-94v700h94v-700z" />
    <glyph glyph-name="Omicrontonos" unicode="&#x38c;" horiz-adv-x="878" 
d="M110 568h-80l70 146h110zM265 350q0 -143 61 -218t173 -74q104 0 169 71t65 221q0 130 -60 211q-59 81 -174 81t-175 -80q-59 -80 -59 -212zM165 350q-1 175 91 274q91 97 243 97q153 0 243 -97q91 -97 91 -274q0 -174 -88 -271q-87 -99 -246 -99q-161 0 -248 99
q-86 101 -86 271z" />
    <glyph glyph-name="Upsilontonos" unicode="&#x38e;" horiz-adv-x="840" 
d="M110 568h-80l70 146h110zM231 700h112l195 -324l194 324h112l-259 -408v-292h-94v292z" />
    <glyph glyph-name="Omegatonos" unicode="&#x38f;" horiz-adv-x="880" 
d="M110 568h-80l70 146h100zM432 157v-157h-253v79h174v28q-87 22 -138.5 100t-51.5 192q0 138 86 230t261 92q148 0 237 -84q90 -84 90 -238q0 -115 -51 -192.5t-139 -99.5v-28h174v-79h-253v157q83 17 126 79.5t43 162.5q0 116 -66 179t-171 64q-108 0 -172 -64
q-65 -63 -65 -179q0 -101 43 -163t126 -79z" />
    <glyph glyph-name="iotadieresistonos" unicode="&#x390;" horiz-adv-x="232" 
d="M88 568h-48l57 146h90zM286 700v-92h-78v92h78zM24 700v-92h-78v92h78zM72 89v419h88v-390q0 -31 9 -43.5t33 -12.5h10v-62l-39 -3q-52 0 -76.5 21t-24.5 71z" />
    <glyph glyph-name="Alpha" unicode="&#x391;" horiz-adv-x="622" 
d="M459 181h-296l-66 -181h-101l265 700h100l265 -700h-101zM311 605l-122 -345h244z" />
    <glyph glyph-name="Beta" unicode="&#x392;" horiz-adv-x="689" 
d="M85 0v700h307q60 0 103 -15.5t65 -43t31.5 -56.5t9.5 -63q0 -56 -34 -99q-33 -43 -83 -51v-3q25 -4 48 -14t46.5 -29t38 -53t14.5 -78q0 -195 -250 -195h-296zM371 621h-192v-218h189q69 0 103 29.5t34 79.5q0 18 -5 34.5t-18 34.5t-41.5 29t-69.5 11zM374 324h-195v-245
h195q46 0 84 11q77 23 77 113q0 121 -161 121z" />
    <glyph glyph-name="Gamma" unicode="&#x393;" horiz-adv-x="544" 
d="M531 621h-352v-621h-94v700h446v-79z" />
    <glyph glyph-name="uni0394" unicode="&#x394;" horiz-adv-x="610" 
d="M485 79l-200 524l-200 -524h400zM614 0h-618l273 700h72z" />
    <glyph glyph-name="uni0394" unicode="&#x2206;" horiz-adv-x="610" 
d="M485 79l-200 524l-200 -524h400zM614 0h-618l273 700h72z" />
    <glyph glyph-name="Epsilon" unicode="&#x395;" horiz-adv-x="612" 
d="M179 621v-220h367v-79h-367v-243h416v-79h-510v700h499v-79h-405z" />
    <glyph glyph-name="Zeta" unicode="&#x396;" horiz-adv-x="593" 
d="M48 621v79h499v-75l-406 -546h426v-79h-541v86l411 535h-389z" />
    <glyph glyph-name="Eta" unicode="&#x397;" horiz-adv-x="710" 
d="M531 329h-352v-329h-94v700h94v-292h352v292h94v-700h-94v329z" />
    <glyph glyph-name="Theta" unicode="&#x398;" horiz-adv-x="758" 
d="M558 321h-358v79h358v-79zM145 350q0 -142 60.5 -217t173.5 -75q104 0 169 71t65 221q0 130 -60 211q-59 81 -174 81t-175 -80q-59 -80 -59 -212zM45 350q0 180 91 274q91 97 243 97q153 0 243 -97q91 -97 91 -274q-1 -172 -88 -271t-246 -99q-161 0 -248 99
q-86 101 -86 271z" />
    <glyph glyph-name="Iota" unicode="&#x399;" horiz-adv-x="264" 
d="M85 0v700h94v-700h-94z" />
    <glyph glyph-name="Kappa" unicode="&#x39a;" horiz-adv-x="627" 
d="M179 700v-319l315 319h115l-333 -324l355 -376h-123l-329 365v-365h-94v700h94z" />
    <glyph glyph-name="Lambda" unicode="&#x39b;" horiz-adv-x="594" 
d="M598 0h-103l-198 603l-198 -603h-102l244 700h112z" />
    <glyph glyph-name="Mu" unicode="&#x39c;" horiz-adv-x="890" 
d="M483 0h-76l-228 588h-2l2 -27v-561h-94v700h141l219 -576l219 576h141v-700h-94v561l2 27h-3z" />
    <glyph glyph-name="Nu" unicode="&#x39d;" horiz-adv-x="740" 
d="M552 0l-373 555v-555h-94v700h104l372 -555v555h94v-700h-103z" />
    <glyph glyph-name="Xi" unicode="&#x39e;" horiz-adv-x="544" 
d="M508 621h-472v79h472v-79zM478 326h-412v79h412v-79zM527 0h-510v79h510v-79z" />
    <glyph glyph-name="Omicron" unicode="&#x39f;" horiz-adv-x="758" 
d="M45 350q0 180 91 275q92 96 243 96q104 0 184 -49q69 -40 109 -120.5t41 -201.5q0 -73 -17 -136q-32 -110 -102 -164q-63 -48 -131 -61q-43 -10 -84 -10q-23 0 -34 1q-55 3 -117 29q-82 39 -126 107q-57 91 -57 234zM145 350q0 -82 25 -151q51 -141 209 -141q19 0 28 1
q43 2 84 25q122 64 122 266q0 131 -59 211q-58 81 -175 81q-58 0 -104 -23t-72 -58q-24 -33 -37 -76q-21 -65 -21 -135z" />
    <glyph glyph-name="Pi" unicode="&#x3a0;" horiz-adv-x="710" 
d="M531 621h-352v-621h-94v700h540v-700h-94v621z" />
    <glyph glyph-name="Rho" unicode="&#x3a1;" horiz-adv-x="639" 
d="M85 0v700h285q237 0 237 -201q0 -220 -246 -220h-182v-279h-94zM351 621h-172v-263h172q83 0 121.5 34.5t38.5 104.5q0 65 -39 94.5t-121 29.5z" />
    <glyph glyph-name="Sigma" unicode="&#x3a3;" horiz-adv-x="550" 
d="M49 700h468v-79h-349l208 -253l-225 -289h382v-79h-500v69l234 299l-218 261v71z" />
    <glyph glyph-name="Tau" unicode="&#x3a4;" horiz-adv-x="575" 
d="M241 0v621h-228v79h549v-79h-227v-621h-94z" />
    <glyph glyph-name="Upsilon" unicode="&#x3a5;" horiz-adv-x="453" 
d="M32 700l195 -324l194 324h112l-259 -408v-292h-94v292l-260 408h112z" />
    <glyph glyph-name="Phi" unicode="&#x3a6;" horiz-adv-x="860" 
d="M503 555h-26v-397h26q215 -2 215 199q0 196 -215 198zM357 158h26v397h-26q-215 0 -215 -198q0 -201 215 -199zM477 79v-79h-94v79h-39q-142 0 -222 73t-80 205t80 204.5t222 72.5h39v66h94v-66h39q139 0 220 -72q82 -70 82 -205q0 -132 -81 -206q-81 -72 -221 -72h-39z
" />
    <glyph glyph-name="Chi" unicode="&#x3a7;" horiz-adv-x="570" 
d="M110 700l175 -275l175 275h117l-232 -342l245 -358h-121l-184 291l-184 -291h-121l245 358l-232 342h117z" />
    <glyph glyph-name="Psi" unicode="&#x3a8;" horiz-adv-x="740" 
d="M417 209v-209h-94v209q-62 0 -117.5 19.5t-86.5 51.5q-34 34 -51 88q-15 54 -15 156v176h94v-177q0 -77 4 -102q5 -29 16 -52q19 -40 59.5 -61.5t96.5 -19.5v412h94v-412q113 -4 156 81q11 21 15 52q5 38 5 102v177h94v-176q0 -104 -15 -156q-13 -51 -52 -88
q-33 -32 -88 -51.5t-115 -19.5z" />
    <glyph glyph-name="uni03A9" unicode="&#x3a9;" horiz-adv-x="760" 
d="M59 0v79h174v28q-86 23 -138 100t-52 192q0 138 85 230t252 92t252 -92t85 -230q0 -113 -53 -192q-52 -78 -137 -100v-28h174v-79h-253v157q61 13 108 57q61 58 61 185q0 116 -66 179q-65 64 -171 64t-171 -64q-66 -63 -66 -179q0 -127 61 -185q47 -44 108 -57v-157h-253
z" />
    <glyph glyph-name="uni03A9" unicode="&#x2126;" horiz-adv-x="760" 
d="M59 0v79h174v28q-86 23 -138 100t-52 192q0 138 85 230t252 92t252 -92t85 -230q0 -113 -53 -192q-52 -78 -137 -100v-28h174v-79h-253v157q61 13 108 57q61 58 61 185q0 116 -66 179q-65 64 -171 64t-171 -64q-66 -63 -66 -179q0 -127 61 -185q47 -44 108 -57v-157h-253
z" />
    <glyph glyph-name="Iotadieresis" unicode="&#x3aa;" horiz-adv-x="264" 
d="M255 840v-92h-88v92h88zM97 840v-92h-88v92h88zM179 0h-94v700h94v-700z" />
    <glyph glyph-name="Upsilondieresis" unicode="&#x3ab;" horiz-adv-x="605" 
d="M446 840v-92h-88v92h88zM248 840v-92h-88v92h88zM-3 700h111l195 -324l194 324h112l-259 -408v-292h-94v292z" />
    <glyph glyph-name="alphatonos" unicode="&#x3ac;" horiz-adv-x="620" 
d="M440 222l5 45l-6 49q-9 68 -48.5 109t-97.5 41q-73 0 -115 -54.5t-42 -157.5q0 -102 40.5 -157t113.5 -55q62 -1 101 47t49 133zM458 426h2l13 82h88l-39 -239q6 -150 58 -269h-88q-27 60 -31 107h-2q-19 -60 -68 -93t-120 -33q-108 0 -168 69.5t-60 203.5q0 120 59 197
q60 77 173 77q132 0 183 -102zM320 568h-80l70 146h110z" />
    <glyph glyph-name="epsilontonos" unicode="&#x3ad;" horiz-adv-x="516" 
d="M400 156h84q-2 -45 -25 -86q-53 -90 -201 -90q-127 0 -176 54q-40 46 -40 102q0 54 31 89t76 42v2q-88 22 -88 111q0 16 3 32.5t15.5 38.5t33 38t59.5 27.5t90 11.5q60 0 119 -23q84 -31 90 -137h-84q0 36 -27 67t-93 31q-37 0 -62 -10t-35.5 -26.5t-14 -29.5t-3.5 -26
q0 -79 106 -79h65v-62h-75q-115 0 -115 -91q0 -49 35 -74.5t97 -25.5q63 0 99 32t36 82zM268 568h-80l70 146h110z" />
    <glyph glyph-name="etatonos" unicode="&#x3ae;" horiz-adv-x="566" 
d="M160 277v-277h-88v390q0 31 -9 43.5t-33 12.5h-10v62q15 4 39 4q95 0 101 -67q59 83 174 83q166 0 166 -190v-522h-88v517q0 133 -106 133q-71 -1 -108.5 -49.5t-37.5 -139.5zM293 568h-80l70 146h110z" />
    <glyph glyph-name="iotatonos" unicode="&#x3af;" horiz-adv-x="232" 
d="M72 89v419h88v-390q0 -31 9 -43.5t33 -12.5h10v-62l-39 -3q-52 0 -76.5 21t-24.5 71zM126 568h-80l70 146h110z" />
    <glyph glyph-name="upsilondieresistonos" unicode="&#x3b0;" horiz-adv-x="546" 
d="M66 223v285h88v-284q0 -97 25.5 -139.5t84.5 -42.5q67 -1 98 52.5t31 172.5q-2 160 -44 241l81 12q56 -86 56 -253q0 -285 -220 -286q-103 0 -151.5 58.5t-48.5 183.5zM245 568h-48l57 146h90zM443 700v-92h-78v92h78zM181 700v-92h-78v92h78z" />
    <glyph glyph-name="alpha" unicode="&#x3b1;" horiz-adv-x="620" 
d="M440 222l5 45l-6 49q-9 68 -48.5 109t-97.5 41q-73 0 -115 -54.5t-42 -157.5q0 -102 40.5 -157t113.5 -55q62 -1 101 47t49 133zM458 426h2l13 82h88l-39 -239q6 -150 58 -269h-88q-27 60 -31 107h-2q-19 -60 -68 -93t-120 -33q-108 0 -168 69.5t-60 203.5q0 120 59 197
q60 77 173 77q132 0 183 -102z" />
    <glyph glyph-name="beta" unicode="&#x3b2;" horiz-adv-x="560" 
d="M160 468v-348q23 -37 59.5 -57.5t77.5 -20.5q60 0 98 45.5t38 120.5q-1 153 -174 155h-35v62h41q63 -1 96.5 29t33.5 84q0 57 -30.5 88.5t-85.5 31.5q-64 0 -92 -43t-27 -147zM160 35v-219h-88v639q0 73 4 96q5 32 14 54q43 115 194 115q92 0 145.5 -46.5t53.5 -129.5
q-1 -53 -29 -92t-74 -52v-3q68 -13 106 -64t38 -127q0 -105 -60 -165t-163 -60q-95 1 -141 54z" />
    <glyph glyph-name="gamma" unicode="&#x3b3;" horiz-adv-x="520" 
d="M321 50v-234h-88v234l-151 362q-10 21 -20.5 29.5t-28.5 8.5t-27 -4v62q1 0 4 0.5t9 1t11 0.5q28 2 30 2q40 0 64.5 -17.5t42.5 -59.5l114 -288l145 361h94z" />
    <glyph glyph-name="delta" unicode="&#x3b4;" horiz-adv-x="566" 
d="M136 236q0 -96 38 -145t109 -49q70 -1 108.5 48.5t38.5 145.5q0 95 -39 145.5t-108 50.5q-70 -1 -108.5 -51t-38.5 -145zM468 570h-88q-1 88 -98 88q-46 0 -72.5 -21t-25.5 -58q0 -35 19 -53q21 -18 129 -37q90 -15 140.5 -81.5t50.5 -171.5q-1 -120 -65 -187.5
t-175 -67.5q-112 0 -176 67.5t-64 187.5q0 92 38 155t104 80v2q-94 19 -94 108q-1 67 49.5 103t143.5 36q89 0 137 -38.5t47 -111.5z" />
    <glyph glyph-name="epsilon" unicode="&#x3b5;" horiz-adv-x="516" 
d="M400 156h84q-2 -45 -25 -86q-53 -90 -201 -90q-127 0 -176 54q-40 46 -40 102q0 54 31 89t76 42v2q-88 22 -88 111q0 16 3 32.5t15.5 38.5t33 38t59.5 27.5t90 11.5q60 0 119 -23q84 -31 90 -137h-84q0 36 -27 67t-93 31q-37 0 -62 -10t-35.5 -26.5t-14 -29.5t-3.5 -26
q0 -79 106 -79h65v-62h-75q-115 0 -115 -91q0 -49 35 -74.5t97 -25.5q63 0 99 32t36 82z" />
    <glyph glyph-name="zeta" unicode="&#x3b6;" horiz-adv-x="440" 
d="M260 638h-167v62h349v-62q-154 -13 -239 -142q-65 -101 -65 -245q0 -98 37 -143.5t121 -45.5h20q71 -1 110 -30.5t39 -86.5q0 -129 -172 -129h-35v62h29q48 1 69 14.5t21 44.5q0 63 -80 63h-20q-232 0 -232 250q-1 123 54 229q56 107 161 157v2z" />
    <glyph glyph-name="eta" unicode="&#x3b7;" horiz-adv-x="566" 
d="M160 277v-277h-88v390q0 31 -9 43.5t-33 12.5h-10v62q15 4 39 4q95 0 101 -67q59 83 174 83q166 0 166 -190v-522h-88v517q0 133 -106 133q-71 -1 -108.5 -49.5t-37.5 -139.5z" />
    <glyph glyph-name="theta" unicode="&#x3b8;" horiz-adv-x="620" 
d="M467 345h-314q-5 -137 37 -219q42 -84 120 -84q77 0 119 84q42 86 38 219zM155 407h310q-3 109 -43 179t-112 72q-72 0 -113 -72q-41 -71 -42 -179zM60 350q0 171 66 270q67 100 184 100q116 0 182 -100q67 -98 68 -270q0 -174 -67 -271q-68 -98 -183 -98q-116 0 -184 98
q-66 99 -66 271z" />
    <glyph glyph-name="iota" unicode="&#x3b9;" horiz-adv-x="232" 
d="M72 89v419h88v-390q0 -31 9 -43.5t33 -12.5h10v-62l-39 -3q-52 0 -76.5 21t-24.5 71z" />
    <glyph glyph-name="kappa" unicode="&#x3ba;" horiz-adv-x="489" 
d="M160 508v-222l217 222h103l-238 -236l251 -272h-105l-228 254v-254h-88v508h88z" />
    <glyph glyph-name="lambda" unicode="&#x3bb;" horiz-adv-x="530" 
d="M363 91l-100 306l-168 -397h-95l224 498l-35 106q-12 38 -45 38q-18 0 -27 -4v62q1 0 4 0.5t9 1t11 0.5q28 2 30 2q39 -1 60.5 -18t36.5 -59l180 -518q11 -33 20.5 -42.5t28.5 -8.5q20 0 27 4v-62q-7 0 -27 -1.5t-23 -1.5q-46 0 -69.5 19t-41.5 75z" />
    <glyph glyph-name="nu" unicode="&#x3bd;" horiz-adv-x="460" 
d="M0 508h100l142 -420l116 330q11 32 12 53q0 11 -8 37l84 12q8 -29 8 -47q0 -28 -11 -59l-153 -414h-104z" />
    <glyph glyph-name="xi" unicode="&#x3be;" horiz-adv-x="460" 
d="M48 638v62h370v-62h-96q-85 0 -124 -31t-39 -97t39 -94t133 -27h72v-62h-72q-118 -1 -157 -39t-39 -109q0 -117 129 -117h47q71 -1 110 -30.5t39 -86.5q0 -129 -172 -129h-35v62h29q49 1 69.5 15.5t20.5 45.5q0 32 -19 46.5t-61 14.5h-33q-217 0 -217 181
q0 71 35.5 117.5t99.5 61.5v2q-49 11 -78 50t-28 94q-1 94 71 130v2h-94z" />
    <glyph glyph-name="omicron" unicode="&#x3bf;" horiz-adv-x="586" 
d="M56 154q-26 107 2 207t118 143q50 24 117 24t117 -24q90 -42 119 -150q13 -50 13.5 -100.5t-12 -99t-43 -88.5t-77.5 -63q-51 -23 -117 -23t-117 23q-87 42 -120 151zM149 355q-13 -40 -13 -100q0 -59 13 -101t30 -63q36 -40 82 -47q32 -5 64 0q14 1 39 14q27 14 44 35
t29 61q13 42 13 101q0 60 -13 100q-14 44 -31 63q-16 19 -40 32t-41 16q-32 5 -64 0q-14 -1 -40 -15q-51 -25 -72 -96z" />
    <glyph glyph-name="pi" unicode="&#x3c0;" horiz-adv-x="598" 
d="M200 0h-88v446h-13q-35 0 -67 -20v62q37 20 85 20h449v-62h-64v-324q0 -20 1.5 -31t11.5 -21.5t30 -8.5l10 1v-62q-15 -4 -43 -4q-68 0 -86 30q-12 23 -12 63v357h-214v-446z" />
    <glyph glyph-name="rho" unicode="&#x3c1;" horiz-adv-x="590" 
d="M148 252q0 -95 43 -153q43 -57 113 -57q72 0 111 55.5t39 156.5q-1 100 -41 156t-114 56q-72 0 -111.5 -56.5t-39.5 -157.5zM154 73v-257h-88v413q0 153 61 226t188 73q116 0 174 -76t58 -198q0 -126 -60.5 -199.5t-166.5 -73.5q-57 0 -101 24t-65 68z" />
    <glyph glyph-name="sigma1" unicode="&#x3c2;" horiz-adv-x="540" 
d="M508 349h-84q-20 117 -137 117q-74 0 -112.5 -55t-38.5 -153q0 -92 42 -144t115 -52h66q71 -1 110 -30.5t39 -86.5q-2 -129 -172 -129h-35v62h29q48 1 68.5 14.5t21.5 44.5q-2 63 -80 63h-49q-122 0 -185 67t-63 191q0 127 62.5 198t179.5 72q93 -1 152.5 -48t70.5 -131z
" />
    <glyph glyph-name="sigma" unicode="&#x3c3;" horiz-adv-x="592" 
d="M139 255q-1 -105 40 -159t117 -54q75 0 116 54t41 159q0 104 -41 157.5t-116 53.5q-76 0 -116.5 -53.5t-40.5 -157.5zM405 508h187v-62h-108q62 -80 62 -196q0 -118 -64 -194q-64 -75 -186 -75q-117 0 -183.5 72.5t-66.5 200.5q-2 128 66 201q67 73 184 73q54 0 109 -20z
" />
    <glyph glyph-name="tau" unicode="&#x3c4;" horiz-adv-x="432" 
d="M179 89v357h-72q-61 0 -104 -22v65q42 19 104 19h322v-62h-162v-328q0 -31 9 -43.5t33 -12.5h10v-62l-39 -3q-52 0 -76.5 21t-24.5 71z" />
    <glyph glyph-name="upsilon" unicode="&#x3c5;" horiz-adv-x="546" 
d="M66 223v285h88v-284q0 -97 25.5 -139.5t84.5 -42.5q67 -1 98 52.5t31 172.5q-2 160 -44 241l81 12q56 -86 56 -253q0 -285 -220 -286q-103 0 -151.5 58.5t-48.5 183.5z" />
    <glyph glyph-name="phi" unicode="&#x3c6;" horiz-adv-x="774" 
d="M431 446v-384q101 0 153.5 51t53.5 145q0 93 -53 141.5t-154 46.5zM431 0v-184h-88v184q-300 6 -300 256q0 110 66 180q67 72 176 72v-62q-69 -7 -109 -57.5t-40 -133.5q0 -94 54.5 -145t152.5 -48v446h88q148 0 224 -65t76 -186q0 -125 -77 -189.5t-223 -67.5z" />
    <glyph glyph-name="chi" unicode="&#x3c7;" horiz-adv-x="450" 
d="M6 446v62q5 0 25 2t24 2q57 0 82 -48l104 -209l122 253h88l-171 -333l130 -261q18 -40 49 -40q16 0 27 4v-62q-6 0 -27.5 -2t-25.5 -2q-62 0 -85 50l-121 247l-147 -293h-93l199 376l-114 234q-14 24 -39 24q-18 0 -27 -4z" />
    <glyph glyph-name="psi" unicode="&#x3c8;" horiz-adv-x="736" 
d="M407 0v-184h-88v184q-142 0 -205 88q-25 31 -37 78q-11 52 -11 161v181h88v-173q0 -162 40 -214q44 -61 125 -59v638h88v-638q47 -2 84 20q92 48 92 201q0 63 -14 122q-12 51 -40 103l91 12q21 -38 39 -98q17 -70 17 -141q0 -198 -140 -258q-51 -23 -129 -23z" />
    <glyph glyph-name="omega" unicode="&#x3c9;" horiz-adv-x="740" 
d="M371 82h-2q-7 -40 -34 -67q-38 -34 -98 -34q-84 0 -130 52q-64 68 -64 203q0 104 41 174q65 107 193 108v-62q-77 -6 -114 -81q-27 -55 -27 -139q0 -114 35 -158q27 -36 68 -36q38 0 63 28q12 16 18 43t6 97v68h88v-68q-1 -66 5 -97q6 -27 19 -43q21 -28 63 -28
q38 0 68 36q35 49 35 158q0 80 -27 139q-41 75 -114 81v62q129 -2 193 -108q41 -73 41 -174q-2 -135 -64 -203q-48 -52 -130 -52q-61 0 -98 34q-28 22 -34 67z" />
    <glyph glyph-name="iotadieresis" unicode="&#x3ca;" horiz-adv-x="232" 
d="M72 89v419h88v-390q0 -31 9 -43.5t33 -12.5h10v-62l-39 -3q-52 0 -76.5 21t-24.5 71zM58 608h-88v92h88v-92zM256 608h-88v92h88v-92z" />
    <glyph glyph-name="upsilondieresis" unicode="&#x3cb;" horiz-adv-x="546" 
d="M66 223v285h88v-284q0 -97 25.5 -139.5t84.5 -42.5q67 -1 98 52.5t31 172.5q-2 160 -44 241l81 12q56 -86 56 -253q0 -285 -220 -286q-103 0 -151.5 58.5t-48.5 183.5zM215 608h-88v92h88v-92zM413 608h-88v92h88v-92z" />
    <glyph glyph-name="omicrontonos" unicode="&#x3cc;" horiz-adv-x="586" 
d="M56 154q-26 107 2 207t118 143q50 24 117 24t117 -24q90 -42 119 -150q13 -50 13.5 -100.5t-12 -99t-43 -88.5t-77.5 -63q-51 -23 -117 -23t-117 23q-87 42 -120 151zM149 355q-13 -40 -13 -100q0 -59 13 -101t30 -63q36 -40 82 -47q32 -5 64 0q14 1 39 14q27 14 44 35
t29 61q13 42 13 101q0 60 -13 100q-14 44 -31 63q-16 19 -40 32t-41 16q-32 5 -64 0q-14 -1 -40 -15q-51 -25 -72 -96zM303 568h-80l70 146h110z" />
    <glyph glyph-name="upsilontonos" unicode="&#x3cd;" horiz-adv-x="546" 
d="M66 223v285h88v-284q0 -97 25.5 -139.5t84.5 -42.5q67 -1 98 52.5t31 172.5q-2 160 -44 241l81 12q56 -86 56 -253q0 -285 -220 -286q-103 0 -151.5 58.5t-48.5 183.5zM283 571h-80l70 146h110z" />
    <glyph glyph-name="omegatonos" unicode="&#x3ce;" horiz-adv-x="740" 
d="M371 82h-2q-7 -40 -34 -67q-38 -34 -98 -34q-84 0 -130 52q-64 68 -64 203q0 104 41 174q65 107 193 108v-62q-77 -6 -114 -81q-27 -55 -27 -139q0 -114 35 -158q27 -36 68 -36q38 0 63 28q12 16 18 43t6 97v68h88v-68q-1 -66 5 -97q6 -27 19 -43q21 -28 63 -28
q38 0 68 36q35 49 35 158q0 80 -27 139q-41 75 -114 81v62q129 -2 193 -108q41 -73 41 -174q-2 -135 -64 -203q-48 -52 -130 -52q-61 0 -98 34q-28 22 -34 67zM380 568h-80l70 146h110z" />
    <glyph glyph-name="uni03D0" unicode="&#x3d0;" horiz-adv-x="588" 
d="M156 372l173 71q90 36 92 119q0 45 -24.5 70.5t-66.5 25.5q-80 0 -125.5 -75.5t-48.5 -210.5zM211 335l-58 -25q-6 -116 35 -193q40 -75 126 -75q67 0 106 44t39 122q0 70 -40 110.5t-112 40.5q-41 0 -96 -24zM386 410v-3q76 -10 121 -64t45 -137q0 -106 -64 -165.5
t-180 -59.5q-119 0 -183.5 85t-64.5 252q0 178 67 290t203 112q83 0 131 -45t48 -117q0 -52 -32 -91t-91 -57z" />
    <glyph glyph-name="theta1" unicode="&#x3d1;" horiz-adv-x="620" 
d="M334 508h109q-5 69 -43 109.5t-96 40.5q-36 0 -56 -19.5t-20 -52.5q-1 -42 23.5 -60t82.5 -18zM41 386h-21v62h52q54 0 78 -25.5t24 -80.5v-71q0 -131 33 -181t101 -48q76 0 110 68t34 223q0 64 -4 113h-130q-178 0 -178 134q0 66 43 103t122 37q100 0 160 -55t68 -157
h67v-62h-60q5 -65 5 -108q0 -182 -57.5 -269.5t-182.5 -87.5q-226 1 -224 261v67q-1 48 -8 62.5t-32 14.5z" />
    <glyph glyph-name="Upsilon1" unicode="&#x3d2;" horiz-adv-x="640" 
d="M320 410q34 118 108 193q80 83 199 97v-79q-95 -22 -161 -109q-43 -56 -71 -136q-28 -78 -28 -152v-224h-94v224q-1 72 -29 152q-27 77 -70 136q-67 87 -161 109v79q115 -14 199 -97q72 -75 108 -193z" />
    <glyph glyph-name="uni03D3" unicode="&#x3d3;" horiz-adv-x="860" 
d="M540 410q34 118 108 193q80 83 199 97v-79q-95 -22 -161 -109q-43 -56 -71 -136q-28 -78 -28 -152v-224h-94v224q-1 72 -29 152q-27 77 -70 136q-67 87 -161 109v79q115 -14 199 -97q72 -75 108 -193zM110 568h-80l70 146h110z" />
    <glyph glyph-name="uni03D4" unicode="&#x3d4;" horiz-adv-x="640" 
d="M320 410q34 118 108 193q80 83 199 97v-79q-95 -22 -161 -109q-43 -56 -71 -136q-28 -78 -28 -152v-224h-94v224q-1 72 -29 152q-27 77 -70 136q-67 87 -161 109v79q115 -14 199 -97q72 -75 108 -193zM264 730h-88v92h88v-92zM462 730h-88v92h88v-92z" />
    <glyph glyph-name="phi1" unicode="&#x3d5;" horiz-adv-x="794" 
d="M441 -185h-88v172q-87 2 -149.5 24.5t-96.5 61.5t-49 84t-15 100q0 73 31 136q61 130 279 127v180h88v-180q90 2 159 -26q45 -17 76 -45q34 -28 54.5 -78.5t20.5 -113.5q0 -126 -76 -196t-234 -74v-172zM353 49v409q-76 5 -141 -33q-76 -46 -76 -167q0 -102 54 -153
q64 -58 163 -56zM441 458v-409q129 0 177 73q40 61 40 136q0 24 -4 48.5t-18.5 54.5t-37 51.5t-63 35t-94.5 10.5z" />
    <glyph glyph-name="omega1" unicode="&#x3d6;" horiz-adv-x="700" 
d="M423 446h-146q-67 -5 -104 -59.5t-37 -150.5q0 -194 93 -194q37 -1 57 29q20 32 20 139v68h88v-68q0 -110 19 -138q20 -30 58 -30q93 0 93 194q0 96 -37.5 150.5t-103.5 59.5zM20 426v62q38 20 85 20h575v-62h-138v-2q113 -55 115 -228q0 -109 -49 -172t-135 -63
q-53 0 -85 26.5t-37 74.5h-2q-6 -48 -37.5 -74.5t-84.5 -26.5q-86 0 -135 63t-49 172q0 173 115 228v2h-53q-42 0 -85 -20z" />
    <glyph glyph-name="uni03DA" unicode="&#x3da;" horiz-adv-x="703" 
d="M665 484h-94q-8 75 -59 116.5t-137 41.5q-110 0 -170 -76t-60 -212q0 -128 64 -201q65 -74 173 -74h115q89 -1 128.5 -33t39.5 -101q0 -128 -172 -129h-65v79h59q84 0 84 51q0 54 -74 54h-119q-157 0 -245 91t-88 255q0 177 86.5 276t243.5 99q131 0 204.5 -61t85.5 -176
z" />
    <glyph glyph-name="uni03DC" unicode="&#x3dc;" horiz-adv-x="572" 
d="M559 621h-376v-228h329v-79h-329v-360q0 -76 -30 -108.5t-96 -33.5q-1 0 -31 2q-6 0 -12 0.5t-9.5 1t-4.5 0.5v79h14q42 1 58 19.5t17 65.5v720h470v-79z" />
    <glyph glyph-name="uni03DE" unicode="&#x3de;" horiz-adv-x="500" 
d="M260 -184l105 413h-345l120 471h94l-99 -392h345l-126 -492h-94z" />
    <glyph glyph-name="uni03E0" unicode="&#x3e0;" horiz-adv-x="900" 
d="M499 463l-321 -322l-56 56l313 312q-183 113 -415 112v79q396 1 633 -254q237 -257 227 -630h-94q3 140 -36 273q-37 130 -113 232l-318 -321l-55 55l323 324q-43 49 -88 84z" />
    <glyph glyph-name="uni03F0" unicode="&#x3f0;" 
d="M186 178h2l280 330h105l-55 -64q-24 -94 -24 -234q0 -100 17 -126q18 -25 55 -24q11 0 14 1v-61h-13q-9 -1 -35 -1q-82 0 -104 46q-22 44 -22 153q0 101 16 139h-2l-286 -337h-105l62 73q22 94 22 217q0 105 -20 131q-20 27 -58 27q-2 0 -8 -1t-7 -1v62q3 0 9.5 0.5t18 1
t22.5 0.5q80 0 105 -49q26 -50 26 -147q0 -74 -15 -136z" />
    <glyph glyph-name="uni03F1" unicode="&#x3f1;" horiz-adv-x="580" 
d="M138 252q0 -95 43 -153q43 -57 113 -57q72 0 111 55.5t39 156.5q0 100 -40.5 156t-114.5 56q-72 0 -111.5 -56.5t-39.5 -157.5zM537 254q0 -118 -57 -196q-57 -77 -171 -77q-72 0 -123.5 35t-73.5 101h-2q1 -87 35.5 -137.5t106.5 -71.5q236 -66 246 -84q10 -20 12 -48
h-75q-4 4 -4 8q-1 4 -187 47q-106 24 -153 105q-46 79 -46 249q0 167 64 255t190 88q114 0 176 -72t62 -202z" />
    <glyph glyph-name="uni03F2" unicode="&#x3f2;" horiz-adv-x="440" 
d="M136 258q0 -102 40.5 -159t116.5 -57q65 -1 114 26v-68q-51 -19 -116 -19q-122 1 -185 72.5t-63 204.5q0 129 62.5 199.5t179.5 70.5q65 0 122 -20v-68q-57 25 -120 26q-75 0 -113 -54t-38 -154z" />
    <glyph glyph-name="uni03F3" unicode="&#x3f3;" horiz-adv-x="231" 
d="M73 -36v544h88v-555q0 -74 -27.5 -108t-92.5 -34q-14 0 -57 4v62q42 7 53 12q4 1 11 2.5t9.5 3.5t5.5 7q1 2 3 4l3 3t1.5 3t1 5t0.5 8q1 16 1 39zM161 608h-88v92h88v-92z" />
    <glyph glyph-name="afii10023" unicode="&#x401;" horiz-adv-x="613" 
d="M179 621v-220h367v-79h-367v-243h417v-79h-511v700h500v-79h-406zM281 772h-94v79h94v-79zM497 772h-94v79h94v-79z" />
    <glyph glyph-name="afii10051" unicode="&#x402;" horiz-adv-x="756" 
d="M219 621h-206v79h527v-79h-227v-225q77 7 153 7q245 0 245 -204q0 -99 -56 -155.5t-155 -56.5q-43 0 -79 13v79q42 -13 71 -13q21 0 39.5 4.5t39.5 16t33.5 39t12.5 66.5q0 62 -36 97q-37 35 -133 35q-72 0 -135 -7v-317h-94v621z" />
    <glyph glyph-name="afii10052" unicode="&#x403;" horiz-adv-x="544" 
d="M531 621h-352v-621h-94v700h446v-79zM205 760l74 140h112l-102 -140h-84z" />
    <glyph glyph-name="afii10053" unicode="&#x404;" horiz-adv-x="724" 
d="M145 400h345v-79h-345q4 -135 64 -200q24 -25 59 -42q49 -21 111 -21q171 0 200 185h100q-13 -95 -69 -170q-71 -94 -231 -94q-80 0 -144 25.5t-101 66.5q-33 37 -56 93q-33 86 -33 194q0 104 38 192q72 168 290 171q74 0 132 -21t89 -58q58 -63 69 -146h-100
q-29 146 -192 146q-110 0 -167 -69q-58 -70 -59 -173z" />
    <glyph glyph-name="afii10054" unicode="&#x405;" horiz-adv-x="656" 
d="M45 222h94q-2 -72 52 -118q53 -46 148 -46q84 0 128 36t44 94q0 63 -47 89q-44 24 -94 34q-31 6 -47 10t-47 10l-42 10q-26 7 -74 27q-26 12 -56 42q-35 38 -35 110q0 96 71.5 148.5t193.5 52.5q123 0 187 -58q65 -57 72 -145h-94q-13 124 -168 124q-73 0 -117.5 -31.5
t-44.5 -85.5q-6 -48 52 -84q8 -6 38 -14l39 -10q11 -1 46 -9q37 -7 48 -10l45 -11q35 -8 86 -34q35 -17 63 -62q25 -33 25 -101q-4 -125 -92 -171q-50 -27 -106 -34q-34 -6 -79 -6q-277 0 -289 243z" />
    <glyph glyph-name="afii10055" unicode="&#x406;" horiz-adv-x="264" 
d="M85 0v700h94v-700h-94z" />
    <glyph glyph-name="afii10056" unicode="&#x407;" horiz-adv-x="304" 
d="M105 0v700h94v-700h-94zM121 772h-94v79h94v-79zM277 772h-94v79h94v-79z" />
    <glyph glyph-name="afii10057" unicode="&#x408;" horiz-adv-x="520" 
d="M23 196v36h94q0 -90 28 -132t93 -42q66 0 91 41.5t25 133.5v467h94v-458q0 -140 -49 -201.5t-162 -61.5q-214 0 -214 217z" />
    <glyph glyph-name="afii10058" unicode="&#x409;" horiz-adv-x="1078" 
d="M14 0v82q10 -2 12 -2h13q140 0 140 319v301h438v-285h201q48 0 96 -16q37 -12 64 -33q29 -22 48.5 -64.5t19.5 -96.5q0 -51 -21 -96q-49 -109 -207 -109h-295v621h-251v-242q0 -171 -46 -271q-52 -111 -178 -111q-18 0 -34 3zM794 336h-177v-257h189q30 0 78 17
q29 12 46.5 41.5t17.5 70.5q0 128 -154 128z" />
    <glyph glyph-name="afii10059" unicode="&#x40a;" horiz-adv-x="1083" 
d="M531 336h-352v-336h-94v700h94v-285h352v285h94v-285h201q44 0 92 -16q37 -12 64 -33q29 -22 49 -64.5t20 -96.5q0 -37 -10 -70.5t-33.5 -65t-70 -50.5t-111.5 -19h-295v336zM803 336h-178v-257h190q29 0 76 17q29 12 46.5 41.5t17.5 70.5q0 128 -152 128z" />
    <glyph glyph-name="afii10060" unicode="&#x40b;" horiz-adv-x="800" 
d="M710 220v-220h-94v205q0 76 -37 97q-35 22 -131 22q-41 0 -135 -7v-317h-94v621h-206v79h527v-79h-227v-225q80 7 153 7q102 -2 153.5 -20t70.5 -54.5t20 -108.5z" />
    <glyph glyph-name="afii10061" unicode="&#x40c;" horiz-adv-x="627" 
d="M179 700v-319l315 319h115l-333 -324l355 -376h-123l-329 365v-365h-94v700h94zM246 760l74 140h112l-102 -140h-84z" />
    <glyph glyph-name="afii10062" unicode="&#x40e;" horiz-adv-x="588" 
d="M124 700l201 -421l168 421h99l-237 -575q-41 -95 -91 -118q-37 -17 -87 -17q-44 0 -78 10v82q33 -11 66 -11q24 0 40.5 5t36.5 29t33 69l-266 526h115zM111 870h78q1 -38 30 -61t75 -23q50 0 76 24.5t29 59.5h78q-11 -52 -45 -91q-42 -49 -138 -49q-93 0 -139 49
q-34 42 -44 91z" />
    <glyph glyph-name="afii10145" unicode="&#x40f;" horiz-adv-x="724" 
d="M184 79h356v621h94v-700h-227v-189h-90v189h-227v700h94v-621z" />
    <glyph glyph-name="afii10017" unicode="&#x410;" horiz-adv-x="622" 
d="M459 181h-296l-66 -181h-101l265 700h100l265 -700h-101zM311 605l-122 -345h244z" />
    <glyph glyph-name="afii10018" unicode="&#x411;" horiz-adv-x="668" 
d="M582 621h-403v-210h215q234 0 234 -208q0 -39 -10.5 -72t-35 -64t-72.5 -49t-115 -18h-310v700h497v-79zM375 332h-196v-253h196q157 0 157 123q0 130 -157 130z" />
    <glyph glyph-name="afii10019" unicode="&#x412;" horiz-adv-x="689" 
d="M85 0v700h307q60 0 103 -15.5t65 -43t31.5 -56.5t9.5 -63q0 -56 -34 -99q-33 -43 -83 -51v-3q25 -4 48 -14t46.5 -29t38 -53t14.5 -78q0 -195 -250 -195h-296zM371 621h-192v-218h189q69 0 103 29.5t34 79.5q0 18 -5 34.5t-18 34.5t-41.5 29t-69.5 11zM374 324h-195v-245
h195q46 0 84 11q77 23 77 113q0 121 -161 121z" />
    <glyph glyph-name="afii10020" unicode="&#x413;" horiz-adv-x="544" 
d="M531 621h-352v-621h-94v700h446v-79z" />
    <glyph glyph-name="afii10021" unicode="&#x414;" horiz-adv-x="738" 
d="M624 700v-621h101l-9 -237h-82v158h-544v-158h-82l-8 237h63q133 166 133 477v144h428zM530 79v542h-240v-87q0 -149 -25 -253q-26 -108 -90 -202h355z" />
    <glyph glyph-name="afii10022" unicode="&#x415;" horiz-adv-x="612" 
d="M179 621v-220h367v-79h-367v-243h416v-79h-510v700h499v-79h-405z" />
    <glyph glyph-name="afii10024" unicode="&#x416;" horiz-adv-x="908" 
d="M501 0h-94v349l-297 -349h-114l323 375l-309 325h112l285 -308v308h94v-308l285 308h112l-309 -325l323 -375h-114l-297 349v-349z" />
    <glyph glyph-name="afii10025" unicode="&#x417;" horiz-adv-x="667" 
d="M45 215h94q12 -157 199 -157q93 0 134 41q41 43 41 98q0 132 -160 132h-92v79h83q39 0 81 14q60 22 60 97q0 41 -19 69t-52 38q-53 16 -90 16t-71 -10q-95 -21 -102 -126h-94q14 215 274 215q119 0 184.5 -50t65.5 -146q0 -58 -32.5 -100t-86.5 -52v-2q147 -35 147 -183
q0 -79 -52 -139q-60 -70 -213 -70q-288 0 -299 236z" />
    <glyph glyph-name="afii10026" unicode="&#x418;" horiz-adv-x="731" 
d="M179 700v-563l373 563h94v-700h-94v567l-373 -567h-94v700h94z" />
    <glyph glyph-name="afii10027" unicode="&#x419;" horiz-adv-x="731" 
d="M179 700v-563l373 563h94v-700h-94v567l-373 -567h-94v700h94zM194 858h75q3 -35 27.5 -57t69.5 -22t69.5 22t27.5 57h75q-29 -132 -172 -132q-144 0 -172 132z" />
    <glyph glyph-name="afii10028" unicode="&#x41a;" horiz-adv-x="627" 
d="M179 700v-319l315 319h115l-333 -324l355 -376h-123l-329 365v-365h-94v700h94z" />
    <glyph glyph-name="afii10029" unicode="&#x41b;" horiz-adv-x="702" 
d="M13 0v82q76 -13 121 59t44 258v301h439v-700h-94v621h-251v-242q0 -232 -78 -320q-68 -78 -181 -59z" />
    <glyph glyph-name="afii10030" unicode="&#x41c;" horiz-adv-x="890" 
d="M483 0h-76l-228 588h-2l2 -27v-561h-94v700h141l219 -576l219 576h141v-700h-94v561l2 27h-3z" />
    <glyph glyph-name="afii10031" unicode="&#x41d;" horiz-adv-x="710" 
d="M531 329h-352v-329h-94v700h94v-292h352v292h94v-700h-94v329z" />
    <glyph glyph-name="afii10032" unicode="&#x41e;" horiz-adv-x="758" 
d="M45 350q0 180 91 275q92 96 243 96q104 0 184 -49q69 -40 109 -120.5t41 -201.5q0 -73 -17 -136q-32 -110 -102 -164q-63 -48 -131 -61q-43 -10 -84 -10q-23 0 -34 1q-55 3 -117 29q-82 39 -126 107q-57 91 -57 234zM145 350q0 -82 25 -151q51 -141 209 -141q19 0 28 1
q43 2 84 25q122 64 122 266q0 131 -59 211q-58 81 -175 81q-58 0 -104 -23t-72 -58q-24 -33 -37 -76q-21 -65 -21 -135z" />
    <glyph glyph-name="afii10033" unicode="&#x41f;" horiz-adv-x="710" 
d="M531 621h-352v-621h-94v700h540v-700h-94v621z" />
    <glyph glyph-name="afii10034" unicode="&#x420;" horiz-adv-x="639" 
d="M85 0v700h285q237 0 237 -201q0 -220 -246 -220h-182v-279h-94zM351 621h-172v-263h172q83 0 121.5 34.5t38.5 104.5q0 65 -39 94.5t-121 29.5z" />
    <glyph glyph-name="afii10035" unicode="&#x421;" horiz-adv-x="712" 
d="M580 232h94q-8 -70 -45 -132q-70 -120 -251 -121q-156 0 -245 95q-88 95 -88 264q3 216 111 307q55 48 128 65q47 11 91 11q263 0 290 -237h-94q-5 50 -40 97q-41 61 -156 61q-63 0 -109.5 -25t-71.5 -68.5t-37 -95t-12 -111.5q0 -126 64 -205t173 -79q83 0 138 49
q56 50 60 125z" />
    <glyph glyph-name="afii10036" unicode="&#x422;" horiz-adv-x="575" 
d="M241 0v621h-228v79h549v-79h-227v-621h-94z" />
    <glyph glyph-name="afii10037" unicode="&#x423;" horiz-adv-x="588" 
d="M124 700l201 -421l168 421h99l-237 -575q-41 -95 -91 -118q-37 -17 -87 -17q-44 0 -78 10v82q33 -11 66 -11q24 0 40.5 5t36.5 29t33 69l-266 526h115z" />
    <glyph glyph-name="afii10038" unicode="&#x424;" horiz-adv-x="890" 
d="M492 -26h-94v105h-39q-24 0 -37 1q-66 8 -114 24q-166 66 -166 253q0 22 1 33q8 58 28 100q76 144 288 144h39v106h94v-106h39q89 0 163 -30q150 -56 154 -247q1 -85 -34.5 -143.5t-90.5 -88.5q-31 -19 -71 -30q-68 -16 -121 -16h-39v-105zM372 153h26v407h-26
q-119 0 -180 -57q-22 -20 -34 -54q-16 -44 -16 -92v-28q3 -41 19 -75q48 -101 211 -101zM492 560v-407h27q229 0 229 204q0 203 -229 203h-27z" />
    <glyph glyph-name="afii10039" unicode="&#x425;" horiz-adv-x="570" 
d="M110 700l175 -275l175 275h117l-232 -342l245 -358h-121l-184 291l-184 -291h-121l245 358l-232 342h117z" />
    <glyph glyph-name="afii10040" unicode="&#x426;" horiz-adv-x="739" 
d="M179 700v-621h355v621h94v-621h98l-7 -237h-82v158h-552v700h94z" />
    <glyph glyph-name="afii10041" unicode="&#x427;" horiz-adv-x="636" 
d="M58 480v220h94v-205q0 -76 37 -98q37 -21 132 -21q65 0 136 7v317h94v-700h-94v304q-80 -7 -154 -7q-135 0 -190 37t-55 146z" />
    <glyph glyph-name="afii10042" unicode="&#x428;" horiz-adv-x="1018" 
d="M179 700v-621h283v621h94v-621h283v621h94v-700h-848v700h94z" />
    <glyph glyph-name="afii10043" unicode="&#x429;" horiz-adv-x="1050" 
d="M85 700h94v-621h283v621h94v-621h283v621h94v-621h104l-9 -237h-82v158h-861v700z" />
    <glyph glyph-name="afii10044" unicode="&#x42a;" horiz-adv-x="718" 
d="M13 700h246v-285h201q63 0 115 -23q111 -44 111 -187q0 -101 -58 -152q-24 -20 -58 -33q-52 -20 -110 -20h-295v621h-152v79zM436 336h-177v-257h190q26 0 58 10q83 24 83 119q0 128 -154 128z" />
    <glyph glyph-name="afii10045" unicode="&#x42b;" horiz-adv-x="858" 
d="M85 700h94v-285h202q107 0 166 -55t59 -155q0 -102 -57 -152q-23 -20 -57 -34q-52 -19 -111 -19h-296v700zM318 336h-139v-257h189q46 0 89 22q53 28 53 107q-4 81 -53 105q-32 17 -70 20q-26 3 -35 3h-34zM679 0v700h94v-700h-94z" />
    <glyph glyph-name="afii10046" unicode="&#x42c;" horiz-adv-x="638" 
d="M85 700h94v-285h201q63 0 115 -23q111 -44 111 -187q0 -101 -58 -152q-24 -20 -58 -33q-52 -20 -110 -20h-295v700zM357 336h-178v-257h190q26 0 58 10q83 24 83 119q0 128 -153 128z" />
    <glyph glyph-name="afii10047" unicode="&#x42d;" horiz-adv-x="719" 
d="M244 322v79h330q0 54 -21 107q-20 57 -70.5 94.5t-133.5 39.5q-86 0 -138.5 -40.5t-61.5 -105.5h-94q8 93 79 158q73 67 206 67q77 0 139 -23.5t99 -62.5q35 -35 58 -87q38 -83 38 -190t-33 -193q-21 -53 -56 -93q-36 -41 -98.5 -67t-142.5 -26q-63 0 -114 17.5t-83 44.5
t-54.5 63.5t-33 70t-14.5 68.5h94q7 -47 30 -89q58 -96 179 -96q103 0 157 56q63 66 69 175q2 17 0 33h-330z" />
    <glyph glyph-name="afii10048" unicode="&#x42e;" horiz-adv-x="993" 
d="M179 700v-292h105q8 122 85 213q40 47 103.5 73.5t140.5 26.5q151 0 242 -97q93 -96 93 -274q0 -79 -19.5 -144.5t-58.5 -117t-105 -80.5t-152 -29q-145 0 -227 77q-99 99 -106 273h-101v-329h-94v700h94zM614 58q113 0 169 70q24 29 40 71q25 70 25 151q0 144 -60 215
q-26 30 -60 48q-52 29 -114 29q-59 0 -114 -28q-33 -17 -59 -48q-61 -74 -61 -216q0 -60 13 -110.5t39.5 -92.5t73 -65.5t108.5 -23.5z" />
    <glyph glyph-name="afii10049" unicode="&#x42f;" horiz-adv-x="680" 
d="M501 0v278h-159l-171 -278h-116l190 288q-58 1 -119 41q-32 22 -51.5 64.5t-19.5 97.5q0 98 59.5 153.5t181.5 55.5h299v-700h-94zM501 357v264h-197q-84 0 -119 -39q-34 -38 -34 -92q0 -133 166 -133h184z" />
    <glyph glyph-name="afii10065" unicode="&#x430;" horiz-adv-x="553" 
d="M139 358h-84q0 60 40 110q48 60 176 60q75 0 132 -30q33 -16 52 -53t18 -88l-5 -235q0 -29 6 -45q9 -16 47 -15v-62q-15 -4 -40 -4q-44 0 -63.5 15t-27.5 59q-49 -90 -174 -90q-86 0 -132.5 38.5t-46.5 114.5q0 72 52 109q52 39 197 52q67 5 80 13q19 13 19 57
q0 102 -114 102q-135 0 -132 -108zM383 217l2 43q-15 -11 -44 -18q-44 -3 -68 -7q-83 -14 -101 -23q-44 -21 -44 -76q0 -44 26.5 -69t71.5 -25q29 0 53.5 8t48 26.5t38 54.5t17.5 86z" />
    <glyph glyph-name="afii10066" unicode="&#x431;" horiz-adv-x="592" 
d="M433 733h75q-4 -73 -68 -97q-35 -12 -60 -16q-112 -14 -130 -19q-68 -19 -104 -68.5t-38 -141.5h2q48 129 197 129q121 0 181 -80q61 -79 61 -194q0 -110 -63 -188t-187 -78q-137 0 -203 104q-33 57 -45 128q-8 56 -8 111q0 193 59 270q52 67 141 86q84 19 142 22
q39 5 48 32zM136 240q0 -66 30 -127q35 -71 131 -71q76 0 117.5 51.5t41.5 142.5q0 75 -26 139q-33 83 -133 83t-135 -81q-26 -62 -26 -137z" />
    <glyph glyph-name="afii10067" unicode="&#x432;" horiz-adv-x="539" 
d="M72 0v508h242q161 0 161 -121q0 -87 -92 -119v-3q62 -15 86.5 -48t24.5 -85q0 -83 -61 -110q-50 -22 -122 -22h-239zM286 446h-126v-150h122q53 0 78.5 21.5t25.5 56.5q0 72 -100 72zM286 234h-126v-172h129q114 0 114 78q0 94 -117 94z" />
    <glyph glyph-name="afii10068" unicode="&#x433;" horiz-adv-x="433" 
d="M420 446h-260v-446h-88v508h348v-62z" />
    <glyph glyph-name="afii10069" unicode="&#x434;" horiz-adv-x="603" 
d="M8 -132l-8 194h64q83 122 83 361v85h364v-446h88l-7 -194h-74v132h-436v-132h-74zM423 62v384h-194v-71q0 -81 -18 -168q-16 -86 -54 -145h266z" />
    <glyph glyph-name="afii10070" unicode="&#x435;" horiz-adv-x="570" 
d="M438 147h84q-12 -67 -65 -117t-157 -50q-141 0 -207 93q-33 49 -43 105q-7 39 -7 74q0 67 20 126q13 42 38 73q27 33 77 55t113 22q112 0 169 -62q24 -26 39 -66q22 -58 27 -141q0 -3 0.5 -13t0.5 -12h-391q0 -76 40 -134t121 -58q58 0 95 29t46 76zM136 296h298
q-1 59 -28 109q-31 61 -113 61q-93 0 -128 -62q-29 -50 -29 -108z" />
    <glyph glyph-name="afii10072" unicode="&#x436;" horiz-adv-x="702" 
d="M395 0h-88v251l-202 -251h-109l233 267l-220 241h104l194 -230v230h88v-230l194 230h104l-220 -241l233 -267h-109l-202 251v-251z" />
    <glyph glyph-name="afii10073" unicode="&#x437;" horiz-adv-x="517" 
d="M32 156h84q0 -50 36 -82t99 -32q62 0 97 25.5t35 74.5q0 91 -115 91h-75v62h65q106 0 106 79q0 13 -3.5 26t-14 29.5t-35.5 26.5t-62 10q-66 0 -93 -31t-27 -67h-84q3 52 27 87t62 50q62 23 120 23q51 0 90 -11.5t59.5 -27.5t33 -38t15.5 -38.5t3 -32.5q0 -89 -88 -111
v-3q47 -7 77 -41t30 -89q0 -56 -40 -102q-49 -54 -176 -54q-107 0 -163 45q-63 55 -63 131z" />
    <glyph glyph-name="afii10074" unicode="&#x438;" horiz-adv-x="595" 
d="M160 508v-405l265 405h98v-508h-88v406l-264 -406h-99v508h88z" />
    <glyph glyph-name="afii10075" unicode="&#x439;" horiz-adv-x="595" 
d="M160 508v-405l265 405h98v-508h-88v406l-264 -406h-99v508h88zM392 700h75q-21 -110 -132 -129q-19 -3 -40 -3q-129 0 -165 105q-3 7 -7 27h75q-3 -26 18 -49q15 -16 35 -24q18 -6 44 -6q43 0 71 21.5t26 57.5z" />
    <glyph glyph-name="afii10076" unicode="&#x43a;" horiz-adv-x="489" 
d="M160 508v-222l217 222h103l-238 -236l251 -272h-105l-228 254v-254h-88v508h88z" />
    <glyph glyph-name="afii10077" unicode="&#x43b;" horiz-adv-x="559" 
d="M13 0v65q75 -22 106 71q8 23 11 57l4 61q1 16 1 63v191h352v-508h-88v446h-182v-129q0 -63 -3 -106q-3 -42 -15 -92q-17 -71 -61 -101t-125 -18z" />
    <glyph glyph-name="afii10078" unicode="&#x43c;" horiz-adv-x="732" 
d="M400 0h-68l-172 408h-2l2 -27v-381h-88v508h121l173 -413l173 413h121v-508h-88v381l3 27h-3z" />
    <glyph glyph-name="afii10079" unicode="&#x43d;" horiz-adv-x="571" 
d="M411 237h-251v-237h-88v508h88v-209h251v209h88v-508h-88v237z" />
    <glyph glyph-name="afii10080" unicode="&#x43e;" horiz-adv-x="586" 
d="M56 154q-26 107 2 207t118 143q50 24 117 24t117 -24q90 -42 119 -150q13 -50 13.5 -100.5t-12 -99t-43 -88.5t-77.5 -63q-51 -23 -117 -23t-117 23q-87 42 -120 151zM149 355q-13 -40 -13 -100q0 -59 13 -101t30 -63q36 -40 82 -47q32 -5 64 0q14 1 39 14q27 14 44 35
t29 61q13 42 13 101q0 60 -13 100q-14 44 -31 63q-16 19 -40 32t-41 16q-32 5 -64 0q-14 -1 -40 -15q-51 -25 -72 -96z" />
    <glyph glyph-name="afii10081" unicode="&#x43f;" horiz-adv-x="577" 
d="M417 446h-257v-446h-88v508h433v-508h-88v446z" />
    <glyph glyph-name="afii10082" unicode="&#x440;" horiz-adv-x="597" 
d="M72 -185v693h82v-70h3q60 90 168 90q99 0 164 -69q65 -70 65 -205q0 -138 -66 -206q-65 -68 -161 -68q-30 0 -73 13q-63 19 -94 80v-258h-88zM154 252q0 -106 48 -159q50 -51 109 -51q62 0 106 50q44 52 44 162q0 100 -40.5 156t-114.5 56q-39 0 -73 -21
q-79 -47 -79 -193z" />
    <glyph glyph-name="afii10083" unicode="&#x441;" horiz-adv-x="548" 
d="M428 181h84q-4 -58 -44 -122q-22 -36 -68.5 -57.5t-108.5 -21.5q-21 0 -30 1q-44 2 -90 23q-128 64 -128 254q0 100 46 178q57 92 196 92q98 0 156 -49.5t67 -129.5h-84q-20 117 -137 117q-76 0 -113.5 -55.5t-37.5 -152.5q0 -94 39 -155t118 -61q68 0 99 43q33 43 36 96
z" />
    <glyph glyph-name="afii10084" unicode="&#x442;" horiz-adv-x="466" 
d="M189 0v446h-176v62h440v-62h-176v-446h-88z" />
    <glyph glyph-name="afii10085" unicode="&#x443;" horiz-adv-x="498" 
d="M91 -184v65q38 -5 44 -5q38 0 54 28q10 15 13 25q3 5 13 33l12 38l-220 508h105l163 -411l135 411h88l-202 -568q-24 -68 -41 -89q-34 -40 -92 -40q-45 0 -72 5z" />
    <glyph glyph-name="afii10086" unicode="&#x444;" horiz-adv-x="794" 
d="M441 -185h-88v172q-87 2 -149.5 24.5t-96.5 61.5t-49 84t-15 100q0 73 31 136q61 130 279 127v180h88v-180q90 2 159 -26q45 -17 76 -45q34 -28 54.5 -78.5t20.5 -113.5q0 -126 -76 -196t-234 -74v-172zM353 49v409q-76 5 -141 -33q-76 -46 -76 -167q0 -102 54 -153
q64 -58 163 -56zM441 458v-409q129 0 177 73q40 61 40 136q0 24 -4 48.5t-18.5 54.5t-37 51.5t-63 35t-94.5 10.5z" />
    <glyph glyph-name="afii10087" unicode="&#x445;" horiz-adv-x="484" 
d="M112 508l130 -188l130 188h98l-178 -243l192 -265h-98l-144 209l-144 -209h-98l192 265l-178 243h98z" />
    <glyph glyph-name="afii10088" unicode="&#x446;" horiz-adv-x="596" 
d="M160 508v-446h256v446h88v-446h88l-7 -194h-74v132h-439v508h88z" />
    <glyph glyph-name="afii10089" unicode="&#x447;" horiz-adv-x="508" 
d="M45 338v170h88v-156q0 -41 14 -61q17 -22 101 -22q8 0 58 2q5 1 21 1h21v236h88v-508h-88v210q-44 -3 -118 -3q-128 0 -161 40q-15 20 -19.5 38t-4.5 53z" />
    <glyph glyph-name="afii10090" unicode="&#x448;" horiz-adv-x="832" 
d="M160 508v-446h212v446h88v-446h212v446h88v-508h-688v508h88z" />
    <glyph glyph-name="afii10091" unicode="&#x449;" horiz-adv-x="850" 
d="M160 508v-446h212v446h88v-446h212v446h88v-446h86l-8 -194h-74v132h-692v508h88z" />
    <glyph glyph-name="afii10092" unicode="&#x44a;" horiz-adv-x="590" 
d="M145 446h-132v62h220v-201h127q61 0 102 -12q97 -25 102 -143q0 -152 -173 -152h-246v446zM340 245h-107v-183h123q117 0 117 96q0 47 -31 68q-11 8 -33 13q-24 6 -62 6h-7z" />
    <glyph glyph-name="afii10093" unicode="&#x44b;" horiz-adv-x="714" 
d="M72 0v508h88v-201h128q61 0 102 -12q98 -25 102 -143q0 -70 -42.5 -111t-131.5 -41h-246zM267 245h-107v-183h123q118 0 118 96q0 47 -31 68q-10 8 -33 13q-24 6 -70 6zM554 0v508h88v-508h-88z" />
    <glyph glyph-name="afii10094" unicode="&#x44c;" horiz-adv-x="514" 
d="M72 0v508h88v-202h127q75 0 129 -22q75 -27 75 -126q0 -82 -48 -122q-20 -16 -47 -24q-36 -12 -79 -12h-245zM267 244h-107v-182h122q62 0 91 25q29 29 27 71q0 46 -30 68q-10 7 -32 12q-24 6 -63 6h-8z" />
    <glyph glyph-name="afii10095" unicode="&#x44d;" horiz-adv-x="553" 
d="M417 233h-219v62h219q-1 45 -13 78t-28 50t-38 27.5t-36.5 13t-28.5 2.5q-65 0 -104.5 -32.5t-43.5 -84.5h-84q13 105 99 153q22 14 48 18q41 8 76 8q246 0 246 -278q0 -270 -241 -270q-59 0 -103 15q-102 32 -129 181h84q17 -134 148 -134q48 0 81 21.5t46 57.5
q21 59 21 112z" />
    <glyph glyph-name="afii10096" unicode="&#x44e;" horiz-adv-x="780" 
d="M160 508v-209h80q10 94 70 161q62 68 177 68q107 0 178 -68q72 -67 72 -205q0 -73 -23 -129.5t-56 -85.5q-31 -26 -72 -41q-52 -19 -97 -19q-105 0 -168 58q-69 67 -81 199h-80v-237h-88v508h88zM333 255q0 -73 26 -135q15 -36 49 -57t81 -21q40 0 72.5 18t47.5 44
q16 25 23 58q12 47 12 93q0 47 -12 92q-23 114 -143 119q-38 0 -71 -16q-82 -35 -85 -195z" />
    <glyph glyph-name="afii10097" unicode="&#x44f;" horiz-adv-x="543" 
d="M383 200h-116l-133 -200h-97l140 201q-58 6 -94 45t-36 102q0 59 31 103q37 57 140 57h253v-508h-88v200zM383 262v184h-127q-118 0 -118 -95q0 -39 29 -64t92 -25h124z" />
    <glyph glyph-name="afii10071" unicode="&#x451;" horiz-adv-x="572" 
d="M436 147h84q-39 -167 -221 -167q-142 0 -202 86q-54 77 -54 186q0 103 45 183q54 93 197 93q121 0 182.5 -68t61.5 -201v-25h-393q0 -34 9 -67t27 -61.5t50 -46t74 -17.5q112 0 140 105zM136 296h300q-9 92 -43 131t-100 39q-45 0 -78 -17.5t-48.5 -46t-22.5 -54
t-8 -52.5zM219 608h-88v92h88v-92zM453 608h-88v92h88v-92z" />
    <glyph glyph-name="afii10099" unicode="&#x452;" horiz-adv-x="584" 
d="M80 637v63h88v-63h211v-62h-211v-158q64 91 167 91q92 0 136 -54q22 -25 32 -67q19 -67 19 -198q0 -69 -4 -116q-4 -59 -18 -109q-14 -48 -49 -88q-48 -61 -159 -61v65h22q45 0 66 29q28 35 35 71q11 55 12 97q1 22 1 51q1 12 1 52v7q0 133 -14 181q-26 77 -103 78
q-75 0 -111 -47q-15 -20 -22 -48q-11 -39 -11 -94v-257h-88v575h-80v62h80z" />
    <glyph glyph-name="afii10100" unicode="&#x453;" horiz-adv-x="433" 
d="M420 446h-260v-446h-88v508h348v-62zM154 568l70 132h106l-96 -132h-80z" />
    <glyph glyph-name="afii10101" unicode="&#x454;" horiz-adv-x="554" 
d="M136 295h233v-62h-233q3 -191 149 -191q133 0 148 135h84q-2 -25 -8.5 -49t-22.5 -52t-40 -48.5t-65.5 -34t-94.5 -13.5q-62 0 -113 20q-39 17 -64 42q-28 29 -47 83.5t-19 124.5q0 278 240 278q131 0 182 -66q42 -52 47 -113h-84q0 56 -46 86q-44 31 -107 31
q-55 0 -95 -38t-44 -133z" />
    <glyph glyph-name="afii10102" unicode="&#x455;" horiz-adv-x="506" 
d="M36 151h88q2 -54 40 -81.5t98 -27.5q61 0 92 27q11 11 17 27q8 19 8 42q0 29 -20 49q-18 18 -87 35l-54 12q-69 16 -111 40q-49 31 -49 108q0 78 56 112t137 34q193 0 206 -153h-84q-9 91 -119 91q-17 0 -41 -5q-64 -15 -64 -75q0 -19 11 -43q5 -9 31 -25q5 -3 24.5 -9
t20.5 -6l26 -6l27 -5q41 -9 60 -15q18 -4 47 -17q39 -16 54.5 -41.5t19.5 -74.5q0 -43 -19.5 -76.5t-47.5 -50.5q-24 -16 -60 -25q-45 -12 -82 -12q-105 0 -164 47t-61 124z" />
    <glyph glyph-name="afii10103" unicode="&#x456;" horiz-adv-x="228" 
d="M70 0v508h88v-508h-88zM158 608h-88v92h88v-92z" />
    <glyph glyph-name="afii10104" unicode="&#x457;" horiz-adv-x="273" 
d="M92 0v508h89v-508h-89zM111 608h-88v92h88v-92zM250 608h-88v92h88v-92z" />
    <glyph glyph-name="afii10105" unicode="&#x458;" horiz-adv-x="231" 
d="M73 -36v544h88v-555q0 -74 -27.5 -108t-92.5 -34q-14 0 -57 4v62q42 7 53 12q4 1 11 2.5t9.5 3.5t5.5 7q1 2 3 4l3 3t1.5 3t1 5t0.5 8q1 16 1 39zM161 608h-88v92h88v-92z" />
    <glyph glyph-name="afii10106" unicode="&#x459;" horiz-adv-x="843" 
d="M13 0v65q18 -2 19 -2q62 0 87 74q7 17 10 52q6 53 6 128v191h353v-199h128q60 0 103 -13q101 -25 101 -144q0 -152 -174 -152h-246v446h-182v-129q0 -51 -1 -68q0 -75 -14 -125q-17 -65 -49 -92q-40 -35 -106 -35q-17 0 -35 3zM596 247h-108v-185h123q118 0 118 96
q0 49 -33.5 69t-99.5 20z" />
    <glyph glyph-name="afii10107" unicode="&#x45a;" horiz-adv-x="855" 
d="M412 245h-252v-245h-88v508h88v-201h252v201h88v-201h127h29q22 0 43 -3t46.5 -12.5t43.5 -26t30.5 -45.5t12.5 -68q0 -152 -174 -152h-246v245zM608 245h-108v-183h123q118 0 118 96q0 87 -118 87h-9h-6z" />
    <glyph glyph-name="afii10108" unicode="&#x45b;" horiz-adv-x="580" 
d="M80 637v63h88v-63h211v-62h-211v-158q67 91 174 91q166 0 166 -190v-318h-88v291v7q0 43 -7 71q-13 72 -100 77q-82 0 -118 -64q-18 -30 -24 -72q-3 -28 -3 -53v-257h-88v575h-80v62h80z" />
    <glyph glyph-name="afii10109" unicode="&#x45c;" horiz-adv-x="489" 
d="M160 508v-222l217 222h103l-238 -236l251 -272h-105l-228 254v-254h-88v508h88zM182 568l70 132h106l-96 -132h-80z" />
    <glyph glyph-name="afii10110" unicode="&#x45e;" horiz-adv-x="498" 
d="M91 -184v65q38 -5 44 -5q38 0 54 28q10 15 13 25q3 5 13 33l12 38l-220 508h105l163 -411l135 411h88l-202 -568q-24 -68 -41 -89q-34 -40 -92 -40q-45 0 -72 5zM77 700h74q3 -35 28 -57t70 -22t70 22t28 57h74q-7 -50 -49 -92q-40 -40 -123 -40q-84 0 -124 40t-48 92z
" />
    <glyph glyph-name="afii10193" unicode="&#x45f;" horiz-adv-x="578" 
d="M160 62h258v446h88v-508h-178v-185h-78v185h-178v508h88v-446z" />
    <glyph glyph-name="uni0460" unicode="&#x460;" horiz-adv-x="936" 
d="M469 120h-2q-11 -57 -47 -92q-50 -48 -135 -48q-57 1 -94 17.5t-67 55.5q-79 92 -79 279q0 74 11 134q10 50 41 106q80 148 243 149v-79q-108 -6 -157 -114q-38 -78 -38 -196q0 -161 49 -223q34 -51 93 -51q63 0 97 40q19 22 27 58q9 39 10 141v93h94v-93q-1 -102 8 -141
q9 -33 29 -58q33 -40 97 -40q55 0 93 51q48 64 49 223q0 115 -38 196q-52 108 -157 114v79q160 -1 243 -149q28 -50 40 -106q12 -54 12 -134q0 -185 -79 -279q-31 -39 -68 -56t-93 -17q-87 0 -135 48q-39 36 -47 92z" />
    <glyph glyph-name="uni0461" unicode="&#x461;" horiz-adv-x="740" 
d="M371 82h-2q-7 -40 -34 -67q-38 -34 -98 -34q-84 0 -130 52q-64 68 -64 203q0 104 41 174q65 107 193 108v-62q-77 -6 -114 -81q-27 -55 -27 -139q0 -114 35 -158q27 -36 68 -36q38 0 63 28q12 16 18 43t6 97v68h88v-68q-1 -66 5 -97q6 -27 19 -43q21 -28 63 -28
q38 0 68 36q35 49 35 158q0 80 -27 139q-41 75 -114 81v62q129 -2 193 -108q41 -73 41 -174q-2 -135 -64 -203q-48 -52 -130 -52q-61 0 -98 34q-28 22 -34 67z" />
    <glyph glyph-name="afii10146" unicode="&#x462;" horiz-adv-x="744" 
d="M165 700h94v-80h220v-79h-220v-126h201q108 0 167 -55t59 -155q0 -101 -58 -152q-24 -20 -58 -33q-52 -20 -110 -20h-295v541h-152v79h152v80zM436 336h-177v-257h190q26 0 58 10q83 24 83 119q0 128 -154 128z" />
    <glyph glyph-name="afii10194" unicode="&#x463;" horiz-adv-x="590" 
d="M145 446h-132v62h132v192h88v-192h190v-62h-190v-139h127q61 0 102 -12q97 -25 102 -143q0 -152 -173 -152h-246v446zM360 245h-127v-183h123q117 0 117 96q0 87 -113 87z" />
    <glyph glyph-name="uni0464" unicode="&#x464;" horiz-adv-x="960" 
d="M179 0h-94v700h94v-300h106q5 83 37.5 152.5t86.5 110.5q76 58 205 58q106 -1 175 -45q97 -65 110 -180h-100q-17 80 -79 118q-52 27 -113 28q-126 0 -184 -91q-40 -61 -42 -151h345v-79h-345q1 -112 44 -174q58 -91 190 -89q67 -1 118 34q64 46 82 151h100
q-18 -139 -111 -210q-71 -53 -190 -53q-128 0 -205 57q-126 89 -127 284h-103v-321z" />
    <glyph glyph-name="uni0465" unicode="&#x465;" horiz-adv-x="752" 
d="M160 0h-88v508h88v-213h82q6 112 69 175q61 58 171 58q100 0 162 -47q60 -53 66 -132h-84q-2 42 -35 78q-39 37 -107 39q-89 0 -127 -68q-24 -44 -24 -103h234v-62h-233q0 -72 23 -116q35 -75 126 -75q84 0 122 56q20 29 26 79h84q-6 -91 -67 -146q-53 -48 -164 -50
q-131 0 -188 77q-54 67 -55 175h-81v-233z" />
    <glyph glyph-name="uni0466" unicode="&#x466;" horiz-adv-x="720" 
d="M-4 0l314 700h100l314 -700h-110l-95 221h-112v-221h-94v221h-112l-95 -221h-110zM490 300l-130 305l-130 -305h260z" />
    <glyph glyph-name="uni0467" unicode="&#x467;" horiz-adv-x="618" 
d="M10 0l248 508h102l248 -508h-98l-81 170h-76v-170h-88v170h-76l-81 -170h-98zM402 232l-93 196l-93 -196h186z" />
    <glyph glyph-name="uni0468" unicode="&#x468;" horiz-adv-x="980" 
d="M620 605l-130 -305h260zM179 300h212l179 400h100l314 -700h-110l-95 221h-112v-221h-94v221h-112l-95 -221h-110l99 221h-176v-221h-94v700h94v-400z" />
    <glyph glyph-name="uni0469" unicode="&#x469;" horiz-adv-x="820" 
d="M604 232l-93 196l-93 -196h186zM160 232h165l135 276h102l248 -508h-98l-81 170h-76v-170h-88v170h-76l-81 -170h-98l83 170h-135v-170h-88v508h88v-276z" />
    <glyph glyph-name="uni046A" unicode="&#x46a;" horiz-adv-x="828" 
d="M-4 0l331 396l-249 304h672l-249 -304l331 -396h-114l-257 316v-316h-94v316l-257 -316h-114zM256 621l158 -201l158 201h-316z" />
    <glyph glyph-name="uni046B" unicode="&#x46b;" horiz-adv-x="702" 
d="M36 0l256 290l-187 218h492l-187 -218l256 -290h-109l-162 195v-195h-88v195l-162 -195h-109zM262 446l89 -110l89 110h-178z" />
    <glyph glyph-name="uni046C" unicode="&#x46c;" horiz-adv-x="1080" 
d="M824 621h-316l158 -201zM179 700v-270h372l-221 270h672l-249 -304l331 -396h-114l-257 316v-316h-94v316l-257 -316h-114l293 351h-362v-351h-94v700h94z" />
    <glyph glyph-name="uni046D" unicode="&#x46d;" horiz-adv-x="880" 
d="M618 446h-178l89 -110zM160 508v-198h293l-170 198h492l-187 -218l256 -290h-109l-162 195v-195h-88v195l-162 -195h-109l219 248h-273v-248h-88v508h88z" />
    <glyph glyph-name="uni046E" unicode="&#x46e;" horiz-adv-x="655" 
d="M139 506h-94q6 94 59 147q46 44 118 58l-167 149h120l144 -139l125 109q24 21 43.5 28.5t48.5 7.5q8 0 26 -2t20 -2v-70q-32 4 -38 4q-34 0 -62 -23l-72 -62q55 -12 91 -39q68 -54 68 -147q0 -75 -52 -120q-32 -26 -67 -32v-2q49 -12 81 -34q66 -49 66 -141
q0 -104 -84 -156q-62 -40 -181 -40h-119q-38 0 -54 -11q-20 -12 -20 -43q0 -27 22 -40q17 -11 62 -11h234v-79h-240q-59 0 -98 14q-74 29 -74 115q0 73 47 108q35 26 121 26h115q72 -2 117 26q56 32 56 100q0 32 -15.5 60t-43.5 44q-38 20 -101 20h-92v79h83q53 0 87 17
q54 25 54 94q0 56 -44 92q-43 31 -117 31q-76 0 -118 -30q-54 -40 -55 -106z" />
    <glyph glyph-name="uni046F" unicode="&#x46f;" horiz-adv-x="567" 
d="M146 368h-84q1 63 49 111q35 35 86 42l-165 179h95l144 -172l125 140q32 36 84 36q3 0 21.5 -2t22.5 -2v-63q-22 5 -40 5q-34 0 -56 -24l-87 -96q43 -6 79 -33q52 -43 52 -109q0 -56 -36 -86q-23 -19 -52 -25v-2q33 -8 63 -28q44 -38 44 -93q0 -74 -65 -115
q-52 -31 -151 -31h-49q-46 0 -59 -13q-21 -15 -21 -50q0 -31 24 -47q20 -12 66 -12h195v-62h-201q-102 2 -142 44q-30 34 -30 85q0 62 48 94q35 23 101 23h66q59 0 86 15q41 21 41 70q-2 44 -36 68q-32 18 -79 18h-75v62h65q48 0 70 13q36 20 36 66t-36 73q-28 19 -79 19
q-67 -1 -97 -37q-23 -26 -23 -61z" />
    <glyph glyph-name="uni0470" unicode="&#x470;" horiz-adv-x="740" 
d="M417 209v-209h-94v209q-62 0 -117.5 19.5t-86.5 51.5q-34 34 -51 88q-15 54 -15 156v176h94v-177q0 -77 4 -102q5 -29 16 -52q19 -40 59.5 -61.5t96.5 -19.5v412h94v-412q113 -4 156 81q11 21 15 52q5 38 5 102v177h94v-176q0 -104 -15 -156q-13 -51 -52 -88
q-33 -32 -88 -51.5t-115 -19.5z" />
    <glyph glyph-name="uni0471" unicode="&#x471;" horiz-adv-x="736" 
d="M407 0v-184h-88v184q-142 0 -205 88q-25 31 -37 78q-11 52 -11 161v181h88v-173q0 -162 40 -214q44 -61 125 -59v638h88v-638q47 -2 84 20q92 48 92 201q0 63 -14 122q-12 51 -40 103l91 12q21 -38 39 -98q17 -70 17 -141q0 -198 -140 -258q-51 -23 -129 -23z" />
    <glyph glyph-name="afii10147" unicode="&#x472;" horiz-adv-x="960" 
d="M713 318h-466q1 -70 23 -121q52 -139 210 -139q73 0 127.5 35.5t82.5 103.5q19 50 23 121zM247 387h466q-6 67 -30 126q-59 129 -203 129q-148 0 -203 -129q-25 -59 -30 -126zM94 218h-84v169h137q4 96 49 179q86 155 284 155q195 0 284 -155q41 -78 49 -179h137v-169
h-84v100h-53q-4 -105 -48 -185q-85 -153 -285 -153q-201 0 -285 153q-47 80 -48 185h-53v-100z" />
    <glyph glyph-name="afii10195" unicode="&#x473;" horiz-adv-x="760" 
d="M535 226h-310q0 -75 34 -121q41 -63 121 -63t121 63q33 48 34 121zM225 288h310q-5 70 -33 116q-40 60 -122 62q-82 -1 -122 -62q-32 -47 -33 -116zM90 126h-80v162h123q4 55 25.5 104.5t55.5 80.5q61 55 166 55q102 0 166 -55q69 -64 81 -185h123v-162h-80v100h-43
q-2 -56 -24.5 -107.5t-56.5 -82.5q-59 -55 -166 -55q-108 0 -166 55q-36 31 -58 82.5t-23 107.5h-43v-100z" />
    <glyph glyph-name="afii10148" unicode="&#x474;" horiz-adv-x="700" 
d="M99 700l198 -603l127 435q32 111 85 145q44 29 100 29q45 0 78 -10v-82q-33 11 -66 11q-41 0 -66.5 -22.5t-43.5 -80.5l-158 -522h-112l-245 700h103z" />
    <glyph glyph-name="afii10196" unicode="&#x475;" horiz-adv-x="540" 
d="M91 508l144 -420l84 284q23 82 57 111q35 29 98 29q29 0 53 -4v-66q-22 5 -40 5q-21 0 -33 -4q-14 -3 -30.5 -25t-26.5 -57l-111 -361h-102l-188 508h95z" />
    <glyph glyph-name="uni0476" unicode="&#x476;" horiz-adv-x="700" 
d="M375 760l-96 140h106l70 -140h-80zM222 760l-96 140h106l70 -140h-80zM-3 700h102l198 -603l127 435q27 92 69 132.5t116 41.5q44 0 78 -10v-82q-38 11 -66 11q-43 0 -68.5 -24.5t-41.5 -78.5l-158 -522h-112z" />
    <glyph glyph-name="uni0477" unicode="&#x477;" horiz-adv-x="540" 
d="M295 568l-96 132h106l70 -132h-80zM142 568l-96 132h106l70 -132h-80zM-3 508h94l144 -420l84 284q24 82 57 111q35 29 98 29q8 0 29 -2t24 -2v-66q-25 5 -40 5q-36 -1 -56.5 -21t-33.5 -65l-111 -361h-102z" />
    <glyph glyph-name="uni0478" unicode="&#x478;" horiz-adv-x="1240" 
d="M833 -183v65q38 -5 44 -5q29 0 46 18t34 68l12 37l-220 508h105l163 -411l135 411h88l-202 -567q-29 -82 -58 -104q-30 -24 -75 -25q-42 0 -72 5zM145 350q0 -167 82 -239q59 -53 152 -53q92 0 151 53q83 74 83 239q0 77 -23 140.5t-63 100.5q-55 49 -148 51
q-92 -1 -148 -51q-86 -75 -86 -241zM45 350q0 212 132 311q83 60 202 60q118 0 202 -60q132 -99 132 -311q0 -104 -34.5 -185.5t-94.5 -126.5q-76 -57 -205 -58q-130 0 -204 58q-130 94 -130 312z" />
    <glyph glyph-name="uni0479" unicode="&#x479;" horiz-adv-x="1040" 
d="M636 -183v65q1 0 6 -0.5t16 -2t22 -2.5q29 0 46 18t34 68l12 37l-220 508h105l163 -411l135 411h88l-202 -567q-29 -80 -58 -105q-29 -24 -75 -24q-52 1 -72 5zM139 255q0 -98 35 -150q40 -63 122 -63t122 63q35 53 35 150q0 94 -35 150q-42 61 -122 63q-82 0 -122 -63
q-35 -53 -35 -150zM46 254q-2 141 84 218q65 56 166 56q98 0 166 -56q82 -75 84 -218q0 -144 -84 -218q-61 -55 -166 -55t-166 55q-84 72 -84 218z" />
    <glyph glyph-name="uni047A" unicode="&#x47a;" horiz-adv-x="852" 
d="M379 65v55h94v-55q73 4 134 50q100 75 100 235q0 157 -100 235q-62 44 -134 50v-55h-94v55q-77 -6 -136 -50q-98 -74 -98 -235q0 -163 98 -235q58 -46 136 -50zM473 -13v-60h-94v60q-112 8 -186 55q-148 94 -148 308q0 210 148 308q80 50 186 56v60h94v-60
q109 -8 187 -56q147 -98 147 -308q0 -212 -147 -308q-76 -47 -187 -55z" />
    <glyph glyph-name="uni047B" unicode="&#x47b;" horiz-adv-x="674" 
d="M295 50v40h88v-40q68 7 112 59q45 51 45 146q0 92 -45 146q-43 49 -112 59v-40h-88v40q-71 -10 -112 -59q-45 -51 -45 -146q0 -98 45 -146q42 -52 112 -59zM383 -12v-51h-88v51q-95 8 -151 52q-99 70 -99 214q-2 140 99 214q64 47 151 53v51h88v-51q86 -6 151 -53
q99 -74 99 -214t-99 -214q-58 -44 -151 -52z" />
    <glyph glyph-name="uni047C" unicode="&#x47c;" horiz-adv-x="936" 
d="M322 774h-66q20 114 95 158q44 26 117 28q65 -2 110 -24q34 -20 60 -52q22 -32 27 -36q5 -5 10 -6q16 -9 31 -8h24v-60h-32q-45 0 -68 20q-15 12 -29 34q-17 27 -28 38q-44 38 -105 38q-74 0 -114 -49q-28 -34 -32 -81zM420 730h-56q4 41 17 68q25 52 87 54q58 0 87 -54
q9 -19 17 -68h-56q-2 28 -9 48q-16 28 -39 28q-26 0 -39 -28q-9 -16 -9 -48zM469 120h-2q-11 -57 -47 -92q-48 -46 -135 -48q-56 0 -93.5 17t-67.5 56q-79 92 -79 279q0 138 51 219q37 60 101.5 94.5t142.5 35.5v-79q-106 -5 -157 -99q-38 -65 -38 -171q0 -159 49 -223
q38 -53 93 -51q63 0 97 40q19 22 27 58q9 39 10 141v93h94v-93q0 -101 8 -141q9 -33 29 -58q35 -42 97 -40q55 0 93 51q48 66 49 223q0 103 -38 171q-55 94 -157 99v79q77 -1 142 -35.5t102 -94.5q51 -84 51 -219q-2 -187 -79 -279q-31 -39 -68 -56t-93 -17q-87 0 -135 48
q-39 36 -47 92z" />
    <glyph glyph-name="uni047D" unicode="&#x47d;" horiz-adv-x="740" 
d="M224 590h-66q16 112 95 160q48 30 117 30q60 0 110 -26q38 -22 60 -54q7 -8 13 -16.5t9 -13t4 -5.5t11 -7q16 -9 31 -8h24v-60h-32q-42 -1 -68 20q-12 8 -30 35q-15 24 -27 37q-41 38 -105 38q-77 0 -114 -49q-28 -38 -32 -81zM322 530h-56q1 37 17 73q24 59 87 59
q61 0 87 -59q13 -30 17 -73h-56q-4 32 -10 55q-12 29 -38 31q-28 -1 -38 -31q-8 -21 -10 -55zM371 82h-2q-7 -40 -34 -67q-38 -34 -98 -34q-82 0 -130 52q-64 67 -64 193q0 98 41 160q59 86 193 92v-62q-81 -8 -115 -67q-28 -43 -26 -123q0 -105 35 -148q25 -36 68 -36
q65 0 81 69q6 29 6 99v68h88v-68q-2 -70 6 -99q14 -71 81 -69q39 0 68 36q35 44 35 148q0 77 -26 124q-18 28 -50.5 46.5t-64.5 19.5v62q128 -1 193 -93q41 -64 41 -159q0 -123 -64 -193q-49 -52 -130 -52q-61 0 -98 34q-28 22 -34 67z" />
    <glyph glyph-name="uni047E" unicode="&#x47e;" horiz-adv-x="936" 
d="M428 760v80h-118v60h316v-60h-118v-80h-80zM469 120h-2q-11 -57 -47 -92q-50 -48 -135 -48q-57 1 -94 17.5t-67 55.5q-79 92 -79 279q0 74 11 134q10 50 41 106q80 148 243 149v-79q-108 -6 -157 -114q-38 -78 -38 -196q0 -161 49 -223q34 -51 93 -51q63 0 97 40
q19 22 27 58q9 39 10 141v93h94v-93q-1 -102 8 -141q9 -33 29 -58q33 -40 97 -40q55 0 93 51q48 64 49 223q0 115 -38 196q-52 108 -157 114v79q160 -1 243 -149q28 -50 40 -106q12 -54 12 -134q0 -185 -79 -279q-31 -39 -68 -56t-93 -17q-87 0 -135 48q-39 36 -47 92z" />
    <glyph glyph-name="uni047F" unicode="&#x47f;" horiz-adv-x="740" 
d="M335 568v72h-123v60h316v-60h-123v-72h-70zM371 82h-2q-7 -40 -34 -67q-38 -34 -98 -34q-84 0 -130 52q-64 68 -64 203q0 104 41 174q65 107 193 108v-62q-77 -6 -114 -81q-27 -55 -27 -139q0 -114 35 -158q27 -36 68 -36q38 0 63 28q12 16 18 43t6 97v68h88v-68
q-1 -66 5 -97q6 -27 19 -43q21 -28 63 -28q38 0 68 36q35 49 35 158q0 80 -27 139q-41 75 -114 81v62q129 -2 193 -108q41 -73 41 -174q-2 -135 -64 -203q-48 -52 -130 -52q-61 0 -98 34q-28 22 -34 67z" />
    <glyph glyph-name="uni0480" unicode="&#x480;" horiz-adv-x="720" 
d="M672 493h-94q-6 69 -57 109t-136 40q-119 0 -180 -79q-60 -78 -60 -209q-1 -122 59 -211q62 -86 180 -85q69 0 120.5 36.5t73.5 100.5h94v-352h-94v222h-2q-62 -84 -202 -85q-152 0 -241 95q-88 94 -88 282q0 173 90 268.5t252 95.5q119 0 195 -61q77 -62 90 -167z" />
    <glyph glyph-name="uni0481" unicode="&#x481;" horiz-adv-x="548" 
d="M431 181h84v-338h-88v192h-2q-39 -55 -135 -55q-122 0 -184 77t-60 201q0 122 59 196q60 74 183 74q93 0 152.5 -47.5t70.5 -131.5h-84q-19 117 -137 117q-73 0 -112.5 -53.5t-38.5 -154.5q0 -102 42 -159t115 -57q59 0 95 38t40 101z" />
    <glyph glyph-name="uni0482" unicode="&#x482;" horiz-adv-x="364" 
d="M117 240l83 -50l67 116l55 -32l-67 -116l84 -50l-27 -46l-84 50l-38 -67l84 -49l-27 -46l-84 50l-70 -120l-55 32l70 119l-83 50l27 46l83 -50l38 67l-83 50z" />
    <glyph glyph-name="uni0483" unicode="&#x483;" horiz-adv-x="2" 
d="M-449 640v-60h-70v120h330v60h70v-120h-330z" />
    <glyph glyph-name="uni0484" unicode="&#x484;" horiz-adv-x="2" 
d="M-343 562h-74q17 14 30 34q18 24 18 47q1 15 -22 48q-28 38 -28 68q0 23 18 51q11 15 26 30h74q-19 -19 -30 -34q-18 -29 -18 -47q0 -17 22 -48q29 -42 28 -68q0 -29 -18 -51q-12 -19 -26 -30z" />
    <glyph glyph-name="uni0485" unicode="&#x485;" horiz-adv-x="2" 
d="M-331 655l-16 45q41 13 74 14q41 0 63.5 -17t22.5 -47q1 -25 -17 -47.5t-47 -34.5h-60v4q24 9 39 26t15 33q0 33 -37 33q-14 0 -37 -9z" />
    <glyph glyph-name="uni0486" unicode="&#x486;" horiz-adv-x="2" 
d="M-187 700l-16 -45q-23 9 -37 9q-37 -1 -37 -33q0 -16 15.5 -33t38.5 -26v-4h-60q-28 12 -46 35t-18 47q2 62 86 64q30 0 74 -14z" />
    <glyph glyph-name="uni048E" unicode="&#x48e;" horiz-adv-x="639" 
d="M85 0v700h285q237 0 237 -201q0 -106 -53 -154q-38 -35 -66 -47l92 -102l-52 -49l-103 115l-18 20q-17 -3 -46 -3h-182v-279h-94zM351 621h-172v-263h159l-72 80l54 47l105 -118q86 29 86 130q0 65 -39 94.5t-121 29.5z" />
    <glyph glyph-name="uni048F" unicode="&#x48f;" horiz-adv-x="597" 
d="M72 -185v693h82v-70h3q60 90 168 90q101 0 165 -69q64 -68 64 -205q0 -107 -53 -192l79 -87l-52 -49l-78 88q-47 -34 -123 -34q-30 0 -73 13q-63 19 -94 80v-258h-88zM306 173l54 47l79 -89q22 54 22 123q0 100 -40.5 156t-114.5 56q-39 0 -73 -21q-79 -47 -79 -193
q0 -106 48 -159q50 -51 109 -51q53 0 87 30z" />
    <glyph glyph-name="afii10050" unicode="&#x490;" horiz-adv-x="549" 
d="M536 621h-357v-621h-94v700h357v158h87z" />
    <glyph glyph-name="afii10098" unicode="&#x491;" horiz-adv-x="433" 
d="M420 446h-260v-446h-88v508h266v133h73z" />
    <glyph glyph-name="uni0492" unicode="&#x492;" horiz-adv-x="559" 
d="M194 621v-228h220v-79h-220v-314h-94v314h-100v79h100v307h446v-79h-352z" />
    <glyph glyph-name="uni0493" unicode="&#x493;" horiz-adv-x="433" 
d="M420 446h-260v-164h150v-62h-150v-220h-88v220h-82v62h82v226h348v-62z" />
    <glyph glyph-name="uni0494" unicode="&#x494;" horiz-adv-x="602" 
d="M531 621h-352v-225q2 0 56 3q49 4 77 4q22 0 31 -1q48 -3 88 -24q59 -32 87 -86q39 -70 39 -188q0 -142 -60 -216q-73 -88 -191 -86q-51 0 -99 13v79q48 -13 91 -13q88 0 126 62q39 62 39 154q0 122 -42 175q-17 24 -43 35q-35 17 -84 17q-58 0 -115 -7v-317h-94v700h446
v-79z" />
    <glyph glyph-name="uni0495" unicode="&#x495;" horiz-adv-x="457" 
d="M420 446h-260v-140h40q24 0 32 -1q47 0 83 -17q20 -8 42 -25.5t34 -39.5q33 -54 33 -144q0 -136 -53.5 -199t-176.5 -65v65h22q114 0 114 199q0 65 -21 109q-25 56 -109 56h-40v-244h-88v508h348v-62z" />
    <glyph glyph-name="uni0496" unicode="&#x496;" horiz-adv-x="966" 
d="M501 0h-94v349l-297 -349h-114l323 375l-309 325h112l285 -308v308h94v-308l285 308h112l-309 -325l255 -296h109l-7 -237h-82v158h-66l-297 349v-349z" />
    <glyph glyph-name="uni0497" unicode="&#x497;" horiz-adv-x="728" 
d="M395 0h-88v251l-202 -251h-109l233 267l-220 241h104l194 -230v230h88v-230l194 230h104l-220 -241l179 -205h72l-7 -194h-74v132h-46l-202 251v-251z" />
    <glyph glyph-name="uni0498" unicode="&#x498;" horiz-adv-x="667" 
d="M45 215h94q12 -157 199 -157q93 0 134 41q41 43 41 98q0 132 -160 132h-92v79h83q39 0 81 14q60 22 60 97q0 41 -19 69t-52 38q-53 16 -90 16t-71 -10q-95 -21 -102 -126h-94q14 215 274 215q119 0 184.5 -50t65.5 -146q0 -58 -32.5 -100t-86.5 -52v-2q147 -35 147 -183
q0 -92 -66 -149q-67 -57 -160 -58v-170h-90v169q-239 18 -248 235z" />
    <glyph glyph-name="uni0499" unicode="&#x499;" horiz-adv-x="517" 
d="M32 156h84q0 -50 36 -82t99 -32q62 0 97 25.5t35 74.5q0 91 -115 91h-75v62h65q106 0 106 79q0 13 -3.5 26t-14 29.5t-35.5 26.5t-62 10q-66 0 -93 -31t-27 -67h-84q3 52 27 87t62 50q62 23 120 23q51 0 90 -11.5t59.5 -27.5t33 -38t15.5 -38.5t3 -32.5q0 -89 -88 -111
v-3q47 -9 77 -39t30 -81q0 -42 -17 -74.5t-40 -49t-51.5 -26.5t-45 -12.5t-26.5 -2.5v-166h-78v165q-73 3 -125 46q-53 44 -59 130z" />
    <glyph glyph-name="uni049A" unicode="&#x49a;" horiz-adv-x="676" 
d="M179 700v-319l315 319h115l-333 -324l280 -297h107l-7 -237h-82v158h-66l-329 365v-365h-94v700h94z" />
    <glyph glyph-name="uni049B" unicode="&#x49b;" horiz-adv-x="519" 
d="M160 508v-222l217 222h103l-238 -236l193 -210h80l-7 -194h-74v132h-46l-228 254v-254h-88v508h88z" />
    <glyph glyph-name="uni049C" unicode="&#x49c;" horiz-adv-x="640" 
d="M85 0v700h94v-288h70v140h80v-140l199 288h94l-224 -319l246 -381h-103l-212 333v-160h-80v160h-70v-333h-94z" />
    <glyph glyph-name="uni049D" unicode="&#x49d;" horiz-adv-x="540" 
d="M72 0v508h88v-207h52v120h62v-120l163 207h94l-198 -236l211 -272h-96l-174 239v-140h-62v140h-52v-239h-88z" />
    <glyph glyph-name="uni049E" unicode="&#x49e;" horiz-adv-x="636" 
d="M94 640v60h94v-60h117v-62h-117v-197l315 319h115l-333 -324l355 -376h-123l-329 365v-365h-94v578h-94v62h94z" />
    <glyph glyph-name="uni049F" unicode="&#x49f;" horiz-adv-x="497" 
d="M80 637v63h88v-63h211v-62h-211v-289l217 222h103l-238 -236l251 -272h-105l-228 254v-254h-88v575h-80v62h80z" />
    <glyph glyph-name="uni04A0" unicode="&#x4a0;" horiz-adv-x="771" 
d="M323 700v-319l315 319h115l-333 -324l355 -376h-123l-329 365v-365h-94v621h-216v79h310z" />
    <glyph glyph-name="uni04A1" unicode="&#x4a1;" horiz-adv-x="562" 
d="M233 508v-222l217 222h103l-238 -236l251 -272h-105l-228 254v-254h-88v446h-132v62h220z" />
    <glyph glyph-name="uni04A2" unicode="&#x4a2;" horiz-adv-x="736" 
d="M531 329h-352v-329h-94v700h94v-292h352v292h94v-621h98l-7 -237h-82v158h-103v329z" />
    <glyph glyph-name="uni04A3" unicode="&#x4a3;" horiz-adv-x="591" 
d="M411 237h-251v-237h-88v508h88v-209h251v209h88v-446h88l-7 -194h-74v132h-95v237z" />
    <glyph glyph-name="uni04A4" unicode="&#x4a4;" horiz-adv-x="990" 
d="M531 329h-352v-329h-94v700h94v-292h352v292h446v-79h-352v-621h-94v329z" />
    <glyph glyph-name="uni04A5" unicode="&#x4a5;" horiz-adv-x="772" 
d="M411 237h-251v-237h-88v508h88v-209h251v209h348v-62h-260v-446h-88v237z" />
    <glyph glyph-name="uni04A6" unicode="&#x4a6;" horiz-adv-x="1048" 
d="M531 621h-352v-621h-94v700h540v-304q2 0 56 3q49 4 77 4q103 0 163 -54q82 -73 82 -238q0 -177 -91 -255q-66 -54 -160 -54q-51 0 -99 13v79q48 -13 91 -13q81 0 123 58q42 55 42 171q0 128 -56 181q-36 33 -114 33q-54 0 -114 -7v-317h-94v621z" />
    <glyph glyph-name="uni04A7" unicode="&#x4a7;" horiz-adv-x="792" 
d="M72 0v508h433v-202h40q108 0 158 -43q66 -59 66 -184q0 -151 -71 -216q-29 -27 -65.5 -37t-93.5 -11v65h22q53 0 86 51q28 46 28 148q0 88 -31 125q-37 40 -99 40h-40v-244h-88v446h-257v-446h-88z" />
    <glyph glyph-name="uni04A8" unicode="&#x4a8;" horiz-adv-x="880" 
d="M401 721v-79q-119 3 -191 -81q-65 -76 -65 -207q0 -136 74 -215q45 -48 115 -69q40 -12 91 -12q48 0 89 12q-76 47 -122 118q-30 44 -42 87q-14 50 -14 106q0 115 58 194q70 96 198 96q125 0 188 -90q54 -77 54 -199q0 -114 -58 -209q-25 -40 -52 -67q-20 -20 -47 -37
q30 -14 62 -14q62 0 111 34v-84q-57 -26 -114 -26q-35 0 -74 10q-30 9 -65 26q-43 -19 -76 -26q-41 -10 -105 -10q-159 0 -256 86q-60 54 -90 134q-25 66 -25 155q0 176 102 277q48 48 129 74q62 19 125 16zM602 104q54 36 89 99q24 43 34 90q9 42 9 87q0 84 -27 137
q-23 44 -58 63q-24 12 -59 12q-72 0 -113 -57q-41 -56 -41 -154q0 -87 50 -164q48 -74 116 -113z" />
    <glyph glyph-name="uni04A9" unicode="&#x4a9;" horiz-adv-x="660" 
d="M295 528v-62q-74 2 -118 -58q-41 -56 -41 -148q0 -102 49 -158q32 -38 77 -51q29 -8 54 -8q18 0 32 2q27 6 31 8q-47 24 -83 77q-19 31 -26 53q-14 42 -14 90q0 88 41 141q49 64 139 64q94 0 144 -66q41 -62 41 -146q0 -140 -103 -215q18 -8 40 -8q52 0 92 27v-70
q-39 -19 -94 -19q-68 0 -117 28q-23 -11 -53 -20q-34 -8 -75 -8q-111 0 -184 69q-42 39 -65 96q-19 48 -19 113q0 128 75 203q39 39 98 57q37 10 79 9zM447 82q57 45 73 109q8 34 8 73q0 56 -18 96q-14 32 -38 46q-16 10 -41 10q-42 0 -67 -34q-25 -32 -25 -103
q0 -59 29 -112q30 -55 79 -85z" />
    <glyph glyph-name="uni04AA" unicode="&#x4aa;" horiz-adv-x="712" 
d="M580 232h94q-14 -104 -76 -174q-63 -70 -171 -78v-169h-90v169q-123 8 -208 98q-84 92 -84 260q0 184 87 283q88 100 243 100q263 0 290 -237h-94q-5 50 -40 97q-41 61 -156 61q-63 0 -109.5 -25t-71.5 -68.5t-37 -95t-12 -111.5q0 -126 64 -205t173 -79q83 0 138 49
q56 50 60 125z" />
    <glyph glyph-name="uni04AB" unicode="&#x4ab;" horiz-adv-x="548" 
d="M428 181h84q-8 -75 -55 -134q-46 -60 -130 -66v-166h-78v166q-101 7 -154 86q-52 77 -52 191q0 100 46 178q57 92 196 92q98 0 156 -49.5t67 -129.5h-84q-20 117 -137 117q-76 0 -113.5 -55.5t-37.5 -152.5q0 -94 39 -155t118 -61q68 0 99 43q33 43 36 96z" />
    <glyph glyph-name="uni04AC" unicode="&#x4ac;" horiz-adv-x="575" 
d="M241 0v621h-228v79h549v-79h-227v-542h98l-7 -237h-82v158h-103z" />
    <glyph glyph-name="uni04AD" unicode="&#x4ad;" horiz-adv-x="466" 
d="M189 0v446h-176v62h440v-62h-176v-384h88l-7 -194h-74v132h-95z" />
    <glyph glyph-name="uni04AE" unicode="&#x4ae;" horiz-adv-x="453" 
d="M32 700l195 -324l194 324h112l-259 -408v-292h-94v292l-260 408h112z" />
    <glyph glyph-name="uni04AF" unicode="&#x4af;" horiz-adv-x="500" 
d="M294 -185h-88v195l-199 498h100l143 -401l143 401h100l-199 -498v-195z" />
    <glyph glyph-name="uni04B0" unicode="&#x4b0;" horiz-adv-x="691" 
d="M151 700l195 -324l194 324h112l-259 -408v-63h150v-79h-150v-150h-94v150h-150v79h150v63l-260 408h112z" />
    <glyph glyph-name="uni04B1" unicode="&#x4b1;" horiz-adv-x="500" 
d="M294 -185h-88v123h-120v62h120v10l-199 498h100l143 -401l143 401h100l-199 -498v-10h120v-62h-120v-123z" />
    <glyph glyph-name="uni04B2" unicode="&#x4b2;" horiz-adv-x="657" 
d="M130 700l175 -275l175 275h117l-232 -342l189 -279h90l-7 -237h-82v158h-66l-184 291l-184 -291h-121l245 358l-232 342h117z" />
    <glyph glyph-name="uni04B3" unicode="&#x4b3;" horiz-adv-x="517" 
d="M112 508l130 -188l130 188h98l-178 -243l147 -203h74l-7 -194h-74v132h-46l-144 209l-144 -209h-98l192 265l-178 243h98z" />
    <glyph glyph-name="uni04B4" unicode="&#x4b4;" horiz-adv-x="895" 
d="M241 0v621h-228v79h549v-79h-227v-542h355v621h94v-621h98l-7 -237h-82v158h-552z" />
    <glyph glyph-name="uni04B5" unicode="&#x4b5;" horiz-adv-x="713" 
d="M189 0v446h-176v62h424v-62h-160v-384h256v446h88v-446h88l-7 -194h-74v132h-439z" />
    <glyph glyph-name="uni04B6" unicode="&#x4b6;" horiz-adv-x="662" 
d="M58 480v220h94v-205q0 -76 37 -98q37 -21 132 -21q65 0 136 7v317h94v-621h98l-7 -237h-82v158h-103v304q-80 -7 -154 -7q-135 0 -190 37t-55 146z" />
    <glyph glyph-name="uni04B7" unicode="&#x4b7;" horiz-adv-x="528" 
d="M45 338v170h88v-156q0 -41 14 -61q17 -22 101 -22q8 0 58 2q5 1 21 1h21v236h88v-446h88l-7 -194h-74v132h-95v210q-44 -3 -118 -3q-128 0 -161 40q-15 20 -19.5 38t-4.5 53z" />
    <glyph glyph-name="uni04B8" unicode="&#x4b8;" horiz-adv-x="656" 
d="M58 480v220h94v-205q0 -65 29 -91.5t102 -27.5v140h80v-139q60 1 114 6v317h94v-700h-94v304l-114 -6v-161h-80v160q-114 -2 -170 36q-55 39 -55 147z" />
    <glyph glyph-name="uni04B9" unicode="&#x4b9;" horiz-adv-x="518" 
d="M45 338v170h88v-156q0 -26 5 -45q13 -37 84 -37v99h62v-99q7 1 35 1q30 0 39 1v236h88v-508h-88v210q-38 -3 -74 -3v-120h-62v120q-110 -5 -153 40q-24 33 -24 91z" />
    <glyph glyph-name="uni04BA" unicode="&#x4ba;" horiz-adv-x="637" 
d="M565 283v-283h-94v268q0 76 -38 97q-37 22 -131 22q-65 0 -136 -7v-380h-94v700h94v-241q80 7 154 7q134 0 190 -38q55 -37 55 -145z" />
    <glyph glyph-name="uni04BB" unicode="&#x4bb;" horiz-adv-x="572" 
d="M72 0v700h88v-263q67 91 174 91q166 0 166 -190v-338h-88v311q0 31 -1 39q0 11 -5 39q-7 37 -30 55t-70 22q-47 0 -90 -31q-56 -41 -56 -158v-277h-88z" />
    <glyph glyph-name="uni04BC" unicode="&#x4bc;" horiz-adv-x="920" 
d="M766 216h97q-26 -119 -123 -185q-40 -27 -99 -41q-52 -11 -95 -11q-128 0 -210 60q-95 71 -123 212q-9 43 -9 88h-54q-68 0 -104 40q-31 34 -31 103v70h84v-70q0 -28 12 -46q12 -14 37 -14h60q5 71 39 136t86 104q80 59 205 59q127 0 204 -61q68 -52 100 -142
q31 -88 30 -179h-568q2 -66 22 -127q23 -65 65 -101q59 -53 153 -53q80 0 142 39q65 41 80 119zM307 422h463q-6 49 -27.5 95t-53.5 73q-58 52 -151 52t-151 -52q-69 -61 -80 -168z" />
    <glyph glyph-name="uni04BD" unicode="&#x4bd;" horiz-adv-x="700" 
d="M568 147h84q-12 -64 -55 -107q-59 -60 -171 -60q-124 0 -188 72q-32 36 -52 95q-13 39 -13 87h-47q-63 0 -95 38q-23 29 -23 76v60h74v-60q0 -22 12 -36q13 -16 47 -16h34q4 98 64 162q66 70 182 70q125 0 187 -84q26 -36 36.5 -85t12.5 -125h-391q0 -95 52 -147
q44 -45 112 -45q56 0 93 29.5t45 75.5zM266 296h298q-1 70 -32 116q-18 26 -46 41q-26 13 -63 13q-73 0 -114 -44q-43 -47 -43 -126z" />
    <glyph glyph-name="uni04BE" unicode="&#x4be;" horiz-adv-x="920" 
d="M766 216h97q-12 -56 -41 -102q-32 -51 -82 -83q-60 -39 -149 -51v-169h-90v169q-94 7 -165 59q-95 71 -123 212q-9 43 -9 88h-54q-68 0 -104 40q-31 34 -31 103v70h84v-70q0 -28 12 -46q12 -14 37 -14h60q5 71 39 136t86 104q80 59 205 59q127 0 204 -61q68 -52 100 -142
q31 -88 30 -179h-568q2 -66 22 -127q23 -65 65 -101q59 -53 153 -53q80 0 142 39q65 41 80 119zM307 422h463q-6 49 -27.5 95t-53.5 73q-58 52 -151 52t-151 -52q-69 -61 -80 -168z" />
    <glyph glyph-name="uni04BF" unicode="&#x4bf;" horiz-adv-x="700" 
d="M568 147h84q-1 -7 -8 -30q-21 -61 -68.5 -95.5t-108.5 -40.5v-166h-78v166q-93 8 -151 71q-32 33 -52 95q-13 39 -13 87h-47q-63 0 -95 38q-23 29 -23 76v60h74v-60q0 -22 12 -36q13 -16 47 -16h34q4 98 64 162q66 70 182 70q125 0 187 -84q26 -36 36.5 -85t12.5 -125
h-391q0 -95 52 -147q44 -45 112 -45q56 0 93 29.5t45 75.5zM266 296h298q-2 33 -10 66q-7 27 -22 50q-36 54 -109 54t-114 -44q-43 -47 -43 -126z" />
    <glyph glyph-name="uni04C0" unicode="&#x4c0;" horiz-adv-x="232" 
d="M72 0v700h88v-700h-88z" />
    <glyph glyph-name="uni04C1" unicode="&#x4c1;" horiz-adv-x="908" 
d="M501 0h-94v349l-297 -349h-114l323 375l-309 325h112l285 -308v308h94v-308l285 308h112l-309 -325l323 -375h-114l-297 349v-349zM271 870h78q1 -38 30 -61t75 -23q50 0 76 24.5t29 59.5h78q-11 -52 -45 -91q-42 -49 -138 -49q-93 0 -139 49q-34 42 -44 91z" />
    <glyph glyph-name="uni04C2" unicode="&#x4c2;" horiz-adv-x="702" 
d="M395 0h-88v251l-202 -251h-109l233 267l-220 241h104l194 -230v230h88v-230l194 230h104l-220 -241l233 -267h-109l-202 251v-251zM179 700h74q3 -35 28 -57t70 -22t70 22t28 57h74q-7 -50 -49 -92q-40 -40 -123 -40q-84 0 -124 40t-48 92z" />
    <glyph glyph-name="uni04C3" unicode="&#x4c3;" horiz-adv-x="663" 
d="M179 700v-319l315 319h115l-333 -324l297 -314q56 0 93 -30t37 -87q0 -142 -173 -145v62q38 0 65.5 19t27.5 58q0 27 -16.5 44t-43.5 17h-55l-329 365v-365h-94v700h94z" />
    <glyph glyph-name="uni04C4" unicode="&#x4c4;" horiz-adv-x="525" 
d="M160 508v-222l217 222h103l-238 -236l194 -210q44 0 81.5 -26.5t37.5 -90.5q0 -79 -48 -112q-47 -33 -114 -33v62q32 0 62 18q30 16 30 59q0 27 -16 44t-43 17h-38l-228 254v-254h-88v508h88z" />
    <glyph glyph-name="uni04C7" unicode="&#x4c7;" horiz-adv-x="715" 
d="M531 329h-352v-329h-94v700h94v-292h352v292h94v-638q56 0 93 -30t37 -87q0 -142 -173 -145v62q38 0 65.5 19t27.5 58q0 27 -16.5 44t-43.5 17h-84v329z" />
    <glyph glyph-name="uni04C8" unicode="&#x4c8;" horiz-adv-x="588" 
d="M411 237h-251v-237h-88v508h88v-209h251v209h88v-446q44 0 81.5 -26.5t37.5 -90.5q0 -79 -48 -112q-46 -33 -114 -33v62q32 0 62 18q30 16 30 59q0 27 -16 44t-43 17h-78v237z" />
    <glyph glyph-name="uni04CB" unicode="&#x4cb;" horiz-adv-x="636" 
d="M58 480v220h94v-205q0 -76 37 -98q37 -21 132 -21q65 0 136 7v317h94v-700h-103v-158h-82l-7 237h98v225q-80 -7 -154 -7q-135 0 -190 37t-55 146z" />
    <glyph glyph-name="uni04CC" unicode="&#x4cc;" horiz-adv-x="508" 
d="M45 338v170h88v-156q0 -41 14 -61q17 -22 101 -22q8 0 58 2q5 1 21 1h21v236h88v-508h-95v-132h-74l-7 194h88v148q-44 -3 -118 -3q-128 0 -161 40q-15 20 -19.5 38t-4.5 53z" />
    <glyph glyph-name="uni04CD" unicode="&#x4cd;" horiz-adv-x="895" 
d="M483 0h-76l-228 588h-2l2 -27v-561h-94v700h141l219 -576l219 576h141v-638q56 0 93 -30t37 -87q0 -142 -173 -145v62q38 0 65.5 19t27.5 58q0 27 -16.5 44t-43.5 17h-84v561l2 27h-3z" />
    <glyph glyph-name="uni04CE" unicode="&#x4ce;" horiz-adv-x="749" 
d="M400 0h-68l-172 408h-2l2 -27v-381h-88v508h121l173 -413l173 413h121v-446q46 0 78 -25q41 -32 41 -95q0 -82 -57 -117q-38 -25 -105 -25v62q32 0 62 18q30 16 30 59q0 27 -16 44t-43 17h-78v381l3 27h-3z" />
    <glyph glyph-name="uni04D0" unicode="&#x4d0;" horiz-adv-x="622" 
d="M459 181h-296l-66 -181h-101l265 700h100l265 -700h-101zM311 605l-122 -345h244zM128 870h78q1 -38 30 -61t75 -23q50 0 76 24.5t29 59.5h78q-29 -140 -183 -140t-183 140z" />
    <glyph glyph-name="uni04D1" unicode="&#x4d1;" horiz-adv-x="553" 
d="M139 358h-84q0 60 40 110q48 60 176 60q75 0 132 -30q33 -16 52 -53t18 -88l-5 -235q0 -29 6 -45q9 -16 47 -15v-62q-15 -4 -40 -4q-44 0 -63.5 15t-27.5 59q-49 -90 -174 -90q-86 0 -132.5 38.5t-46.5 114.5q0 72 52 109q52 39 197 52q67 5 80 13q19 13 19 57
q0 102 -114 102q-135 0 -132 -108zM383 217l2 43q-15 -11 -44 -18q-44 -3 -68 -7q-83 -14 -101 -23q-44 -21 -44 -76q0 -44 26.5 -69t71.5 -25q29 0 53.5 8t48 26.5t38 54.5t17.5 86zM104 700h74q3 -35 28 -57t70 -22t70 22t28 57h74q-7 -50 -49 -92q-40 -40 -123 -40
q-84 0 -124 40t-48 92z" />
    <glyph glyph-name="uni04D2" unicode="&#x4d2;" horiz-adv-x="622" 
d="M459 181h-296l-66 -181h-101l265 700h100l265 -700h-101zM311 605l-122 -345h244zM250 772h-94v79h94v-79zM466 772h-94v79h94v-79z" />
    <glyph glyph-name="uni04D3" unicode="&#x4d3;" horiz-adv-x="553" 
d="M139 358h-84q0 60 40 110q48 60 176 60q75 0 132 -30q33 -16 52 -53t18 -88l-5 -235q0 -29 6 -45q9 -16 47 -15v-62q-15 -4 -40 -4q-44 0 -63.5 15t-27.5 59q-49 -90 -174 -90q-86 0 -132.5 38.5t-46.5 114.5q0 72 52 109q52 39 197 52q67 5 80 13q19 13 19 57
q0 102 -114 102q-135 0 -132 -108zM383 217l2 43q-15 -11 -44 -18q-44 -3 -68 -7q-83 -14 -101 -23q-44 -21 -44 -76q0 -44 26.5 -69t71.5 -25q29 0 53.5 8t48 26.5t38 54.5t17.5 86zM221 608h-88v92h88v-92zM419 608h-88v92h88v-92z" />
    <glyph glyph-name="uni04D4" unicode="&#x4d4;" horiz-adv-x="996" 
d="M979 0h-509v181h-264l-99 -181h-111l390 700h583v-79h-405v-220h366v-79h-366v-243h415v-79zM248 260h222v361h-27z" />
    <glyph glyph-name="uni04D5" unicode="&#x4d5;" horiz-adv-x="914" 
d="M144 358h-84q-2 75 54 122.5t161 47.5q139 0 174 -86q56 86 183 86q72 0 123 -26q113 -52 116 -243v-25h-393q0 -45 13 -85.5t51 -73.5t96 -33q110 0 140 105h84q-11 -66 -63.5 -116.5t-154.5 -50.5q-56 0 -109 16q-62 18 -104 94q-62 -110 -198 -110q-196 0 -196 153
q0 71 53 110q52 40 199 51q68 5 82 13q19 13 19 57q0 102 -114 102q-135 0 -132 -108zM390 217v43q-14 -10 -45 -17q-35 -3 -69 -8l-46 -7l-20 -5q-18 -4 -37 -12q-45 -16 -45 -75q0 -40 27 -67t76 -27q94 0 130 66q29 54 29 109zM478 296h302q1 28 -5 55.5t-21 54.5
t-45.5 43.5t-73.5 16.5q-76 0 -117 -50q-40 -49 -40 -120z" />
    <glyph glyph-name="uni04D6" unicode="&#x4d6;" horiz-adv-x="612" 
d="M179 621v-220h367v-79h-367v-243h416v-79h-510v700h499v-79h-405zM123 870h78q1 -38 30 -61t75 -23q50 0 76 24.5t29 59.5h78q-11 -52 -45 -91q-42 -49 -138 -49q-93 0 -139 49q-34 42 -44 91z" />
    <glyph glyph-name="uni04D7" unicode="&#x4d7;" horiz-adv-x="570" 
d="M438 147h84q-12 -67 -65 -117t-157 -50q-141 0 -207 93q-33 49 -43 105q-7 39 -7 74q0 67 20 126q13 42 38 73q27 33 77 55t113 22q112 0 169 -62q24 -26 39 -66q22 -58 27 -141q0 -3 0.5 -13t0.5 -12h-391q0 -76 40 -134t121 -58q58 0 95 29t46 76zM136 296h298
q-1 59 -28 109q-31 61 -113 61q-93 0 -128 -62q-29 -50 -29 -108zM113 700h74q3 -35 28 -57t70 -22t70 22t28 57h74q-7 -50 -49 -92q-40 -40 -123 -40q-84 0 -124 40t-48 92z" />
    <glyph glyph-name="uni04D8" unicode="&#x4d8;" horiz-adv-x="764" 
d="M49 361h568q-1 132 -62 204q-37 42 -84 60.5t-88 16.5q-46 0 -90 -12q-112 -27 -138 -146h-97q23 116 110 176q88 61 215 61q151 0 243 -96q91 -95 91 -275q0 -73 -17 -136q-32 -110 -102 -164q-63 -48 -131 -61q-43 -10 -84 -10q-75 0 -136.5 24t-99.5 65
q-102 110 -98 293zM614 278h-463q3 -26 10.5 -52.5t25 -58t42 -54.5t64.5 -39t90 -16q105 0 164 65q59 64 67 155z" />
    <glyph glyph-name="afii10846" unicode="&#x4d9;" horiz-adv-x="570" 
d="M142 361h-84q9 43 32.5 78t51.5 52q24 15 59 25q44 12 79 12q141 0 204 -92q31 -45 42 -104q7 -39 7 -76q0 -152 -86 -222q-45 -36 -96 -46q-35 -8 -66 -8q-242 0 -236 294h391q0 30 -7.5 61t-24.5 62t-49 50t-76 19q-52 0 -92.5 -29t-48.5 -76zM440 212h-299
q1 -84 44 -131q15 -15 39 -26q31 -13 59 -13q149 0 157 170z" />
    <glyph glyph-name="uni04DA" unicode="&#x4da;" horiz-adv-x="764" 
d="M49 361h568q-1 132 -62 204q-37 42 -84 60.5t-88 16.5q-46 0 -90 -12q-112 -27 -138 -146h-97q23 116 110 176q88 61 215 61q151 0 243 -96q91 -95 91 -275q0 -73 -17 -136q-32 -110 -102 -164q-63 -48 -131 -61q-43 -10 -84 -10q-75 0 -136.5 24t-99.5 65
q-102 110 -98 293zM614 278h-463q3 -26 10.5 -52.5t25 -58t42 -54.5t64.5 -39t90 -16q105 0 164 65q59 64 67 155zM322 772h-94v79h94v-79zM538 772h-94v79h94v-79z" />
    <glyph glyph-name="uni04DB" unicode="&#x4db;" horiz-adv-x="570" 
d="M142 361h-84q9 43 32.5 78t51.5 52q24 15 59 25q44 12 79 12q141 0 204 -92q31 -45 42 -104q7 -39 7 -76q0 -152 -86 -222q-45 -36 -96 -46q-35 -8 -66 -8q-242 0 -236 294h391q0 30 -7.5 61t-24.5 62t-49 50t-76 19q-52 0 -92.5 -29t-48.5 -76zM440 212h-299
q1 -84 44 -131q15 -15 39 -26q31 -13 59 -13q149 0 157 170zM236 608h-88v92h88v-92zM434 608h-88v92h88v-92z" />
    <glyph glyph-name="uni04DC" unicode="&#x4dc;" horiz-adv-x="908" 
d="M501 0h-94v349l-297 -349h-114l323 375l-309 325h112l285 -308v308h94v-308l285 308h112l-309 -325l323 -375h-114l-297 349v-349zM393 772h-94v79h94v-79zM609 772h-94v79h94v-79z" />
    <glyph glyph-name="uni04DD" unicode="&#x4dd;" horiz-adv-x="702" 
d="M395 0h-88v251l-202 -251h-109l233 267l-220 241h104l194 -230v230h88v-230l194 230h104l-220 -241l233 -267h-109l-202 251v-251zM296 608h-88v92h88v-92zM494 608h-88v92h88v-92z" />
    <glyph glyph-name="uni04DE" unicode="&#x4de;" horiz-adv-x="667" 
d="M45 215h94q12 -157 199 -157q93 0 134 41q41 43 41 98q0 132 -160 132h-92v79h83q39 0 81 14q60 22 60 97q0 41 -19 69t-52 38q-53 16 -90 16t-71 -10q-95 -21 -102 -126h-94q14 215 274 215q119 0 184.5 -50t65.5 -146q0 -58 -32.5 -100t-86.5 -52v-2q147 -35 147 -183
q0 -79 -52 -139q-60 -70 -213 -70q-288 0 -299 236zM272 772h-94v79h94v-79zM488 772h-94v79h94v-79z" />
    <glyph glyph-name="uni04DF" unicode="&#x4df;" horiz-adv-x="517" 
d="M32 156h84q0 -50 36 -82t99 -32q62 0 97 25.5t35 74.5q0 91 -115 91h-75v62h65q106 0 106 79q0 13 -3.5 26t-14 29.5t-35.5 26.5t-62 10q-66 0 -93 -31t-27 -67h-84q3 52 27 87t62 50q62 23 120 23q51 0 90 -11.5t59.5 -27.5t33 -38t15.5 -38.5t3 -32.5q0 -89 -88 -111
v-3q47 -7 77 -41t30 -89q0 -56 -40 -102q-49 -54 -176 -54q-107 0 -163 45q-63 55 -63 131zM203 608h-88v92h88v-92zM401 608h-88v92h88v-92z" />
    <glyph glyph-name="uni04E0" unicode="&#x4e0;" horiz-adv-x="660" 
d="M90 700h476v-79l-210 -177h20q104 0 165 -54q65 -62 65 -165q0 -136 -101 -202q-68 -44 -176 -44q-136 0 -206 58q-79 65 -83 185h94q-4 -59 37 -103q55 -61 163 -61q74 0 117 34q55 45 55 126q0 70 -45 111q-41 36 -126 36q-56 0 -98 -13l-35 60l245 209h-357v79z" />
    <glyph glyph-name="uni04E1" unicode="&#x4e1;" horiz-adv-x="520" 
d="M50 508h406v-62l-192 -211q90 5 147 -50q55 -52 55 -154q0 -123 -87 -184q-56 -40 -146 -40q-112 0 -167 61q-39 41 -44 106h84q4 -42 29 -68q33 -37 98 -37q57 0 94 33q46 40 46 124q0 71 -37 111q-32 36 -101 36q-23 0 -47 -6l-30 53l206 226h-314v62z" />
    <glyph glyph-name="uni04E2" unicode="&#x4e2;" horiz-adv-x="731" 
d="M179 700v-563l373 563h94v-700h-94v567l-373 -567h-94v700h94zM365 772h-158v60h316v-60h-158z" />
    <glyph glyph-name="uni04E3" unicode="&#x4e3;" horiz-adv-x="595" 
d="M160 508v-405l265 405h98v-508h-88v406l-264 -406h-99v508h88zM297 613h-158v60h316v-60h-158z" />
    <glyph glyph-name="uni04E4" unicode="&#x4e4;" horiz-adv-x="731" 
d="M179 700v-563l373 563h94v-700h-94v567l-373 -567h-94v700h94zM304 772h-94v79h94v-79zM520 772h-94v79h94v-79z" />
    <glyph glyph-name="uni04E5" unicode="&#x4e5;" horiz-adv-x="595" 
d="M160 508v-405l265 405h98v-508h-88v406l-264 -406h-99v508h88zM242 608h-88v92h88v-92zM440 608h-88v92h88v-92z" />
    <glyph glyph-name="uni04E6" unicode="&#x4e6;" horiz-adv-x="758" 
d="M45 350q0 180 91 275q92 96 243 96q104 0 184 -49q69 -40 109 -120.5t41 -201.5q0 -73 -17 -136q-32 -110 -102 -164q-63 -48 -131 -61q-43 -10 -84 -10q-23 0 -34 1q-55 3 -117 29q-82 39 -126 107q-57 91 -57 234zM145 350q0 -82 25 -151q51 -141 209 -141q19 0 28 1
q43 2 84 25q122 64 122 266q0 131 -59 211q-58 81 -175 81q-58 0 -104 -23t-72 -58q-24 -33 -37 -76q-21 -65 -21 -135zM318 772h-94v79h94v-79zM534 772h-94v79h94v-79z" />
    <glyph glyph-name="uni04E7" unicode="&#x4e7;" horiz-adv-x="586" 
d="M56 154q-26 107 2 207t118 143q50 24 117 24t117 -24q90 -42 119 -150q13 -50 13.5 -100.5t-12 -99t-43 -88.5t-77.5 -63q-51 -23 -117 -23t-117 23q-87 42 -120 151zM149 355q-13 -40 -13 -100q0 -59 13 -101t30 -63q36 -40 82 -47q32 -5 64 0q14 1 39 14q27 14 44 35
t29 61q13 42 13 101q0 60 -13 100q-14 44 -31 63q-16 19 -40 32t-41 16q-32 5 -64 0q-14 -1 -40 -15q-51 -25 -72 -96zM238 608h-88v92h88v-92zM436 608h-88v92h88v-92z" />
    <glyph glyph-name="uni04E8" unicode="&#x4e8;" horiz-adv-x="758" 
d="M45 350q0 180 91 275q92 96 243 96q104 0 184 -49q69 -40 109 -120.5t41 -201.5q0 -73 -17 -136q-32 -110 -102 -164q-63 -48 -131 -61q-43 -10 -84 -10q-23 0 -34 1q-55 3 -117 29q-82 39 -126 107q-57 91 -57 234zM147 391h465q-5 61 -26 114q-47 133 -207 137
q-128 0 -181 -89q-45 -75 -51 -162zM612 312h-466q0 -56 21 -113q15 -37 38 -68q26 -32 71.5 -52.5t102.5 -20.5q53 0 95 17.5t67 44t41 62t22.5 67t7.5 63.5z" />
    <glyph glyph-name="uni04E9" unicode="&#x4e9;" horiz-adv-x="569" 
d="M534 255q0 -73 -23 -129.5t-57 -85.5q-31 -26 -72 -41q-53 -19 -98 -19q-123 0 -186 76q-63 77 -63 199t63 197q63 76 186 76t186 -76q64 -74 64 -197zM129 288h311q-5 68 -35 117q-35 61 -121 61q-82 0 -120 -61q-30 -49 -35 -117zM440 226h-311q1 -56 30 -115
q35 -69 125 -69q71 0 110 46q41 52 46 138z" />
    <glyph glyph-name="uni04EA" unicode="&#x4ea;" horiz-adv-x="758" 
d="M45 350q0 180 91 275q92 96 243 96q104 0 184 -49q69 -40 109 -120.5t41 -201.5q0 -73 -17 -136q-32 -110 -102 -164q-63 -48 -131 -61q-43 -10 -84 -10q-23 0 -34 1q-55 3 -117 29q-82 39 -126 107q-57 91 -57 234zM147 391h465q-5 61 -26 114q-47 133 -207 137
q-128 0 -181 -89q-45 -75 -51 -162zM612 312h-466q0 -56 21 -113q15 -37 38 -68q26 -32 71.5 -52.5t102.5 -20.5q53 0 95 17.5t67 44t41 62t22.5 67t7.5 63.5zM318 772h-94v79h94v-79zM534 772h-94v79h94v-79z" />
    <glyph glyph-name="uni04EB" unicode="&#x4eb;" horiz-adv-x="569" 
d="M534 255q0 -73 -23 -129.5t-57 -85.5q-31 -26 -72 -41q-53 -19 -98 -19q-123 0 -186 76q-63 77 -63 199t63 197q63 76 186 76t186 -76q64 -74 64 -197zM129 288h311q-5 68 -35 117q-35 61 -121 61q-82 0 -120 -61q-30 -49 -35 -117zM440 226h-311q1 -56 30 -115
q35 -69 125 -69q71 0 110 46q41 52 46 138zM229 608h-88v92h88v-92zM427 608h-88v92h88v-92z" />
    <glyph glyph-name="uni04EE" unicode="&#x4ee;" horiz-adv-x="588" 
d="M124 700l201 -421l168 421h99l-237 -575q-41 -95 -91 -118q-37 -17 -87 -17q-44 0 -78 10v82q33 -11 66 -11q24 0 40.5 5t36.5 29t33 69l-266 526h115zM294 772h-158v60h316v-60h-158z" />
    <glyph glyph-name="uni04EF" unicode="&#x4ef;" horiz-adv-x="498" 
d="M91 -184v65q38 -5 44 -5q38 0 54 28q10 15 13 25q3 5 13 33l12 38l-220 508h105l163 -411l135 411h88l-202 -568q-24 -68 -41 -89q-34 -40 -92 -40q-45 0 -72 5zM249 613h-158v60h316v-60h-158z" />
    <glyph glyph-name="uni04F0" unicode="&#x4f0;" horiz-adv-x="588" 
d="M124 700l201 -421l168 421h99l-237 -575q-41 -95 -91 -118q-37 -17 -87 -17q-44 0 -78 10v82q33 -11 66 -11q24 0 40.5 5t36.5 29t33 69l-266 526h115zM233 772h-94v79h94v-79zM449 772h-94v79h94v-79z" />
    <glyph glyph-name="uni04F1" unicode="&#x4f1;" horiz-adv-x="498" 
d="M91 -184v65q38 -5 44 -5q38 0 54 28q10 15 13 25q3 5 13 33l12 38l-220 508h105l163 -411l135 411h88l-202 -568q-24 -68 -41 -89q-34 -40 -92 -40q-45 0 -72 5zM194 608h-88v92h88v-92zM392 608h-88v92h88v-92z" />
    <glyph glyph-name="uni04F2" unicode="&#x4f2;" horiz-adv-x="588" 
d="M124 700l201 -421l168 421h99l-237 -575q-41 -95 -91 -118q-37 -17 -87 -17q-44 0 -78 10v82q33 -11 66 -11q24 0 40.5 5t36.5 29t33 69l-266 526h115zM129 760l70 140h106l-96 -140h-80zM282 760l70 140h106l-96 -140h-80z" />
    <glyph glyph-name="uni04F3" unicode="&#x4f3;" horiz-adv-x="498" 
d="M91 -184v65q38 -5 44 -5q38 0 54 28q10 15 13 25q3 5 13 33l12 38l-220 508h105l163 -411l135 411h88l-202 -568q-24 -68 -41 -89q-34 -40 -92 -40q-45 0 -72 5zM84 568l70 132h106l-96 -132h-80zM237 568l70 132h106l-96 -132h-80z" />
    <glyph glyph-name="uni04F4" unicode="&#x4f4;" horiz-adv-x="636" 
d="M58 480v220h94v-205q0 -76 37 -98q37 -21 132 -21q65 0 136 7v317h94v-700h-94v304q-80 -7 -154 -7q-135 0 -190 37t-55 146zM257 772h-94v79h94v-79zM473 772h-94v79h94v-79z" />
    <glyph glyph-name="uni04F5" unicode="&#x4f5;" horiz-adv-x="508" 
d="M45 338v170h88v-156q0 -41 14 -61q17 -22 101 -22q8 0 58 2q5 1 21 1h21v236h88v-508h-88v210q-44 -3 -118 -3q-128 0 -161 40q-15 20 -19.5 38t-4.5 53zM199 608h-88v92h88v-92zM397 608h-88v92h88v-92z" />
    <glyph glyph-name="uni04F6" unicode="&#x4f6;" horiz-adv-x="544" 
d="M531 621h-352v-542h98l-7 -237h-82v158h-103v700h446v-79z" />
    <glyph glyph-name="uni04F7" unicode="&#x4f7;" horiz-adv-x="433" 
d="M420 446h-260v-384h88l-7 -194h-74v132h-95v508h348v-62z" />
    <glyph glyph-name="uni04F8" unicode="&#x4f8;" horiz-adv-x="858" 
d="M85 700h94v-285h202q107 0 166 -55t59 -155q0 -102 -57 -152q-23 -20 -57 -34q-52 -19 -111 -19h-296v700zM318 336h-139v-257h189q46 0 89 22q53 28 53 107q-4 81 -53 105q-32 17 -70 20q-26 3 -35 3h-34zM679 0v700h94v-700h-94zM368 772h-94v79h94v-79zM584 772h-94
v79h94v-79z" />
    <glyph glyph-name="uni04F9" unicode="&#x4f9;" horiz-adv-x="714" 
d="M72 0v508h88v-201h128q61 0 102 -12q98 -25 102 -143q0 -70 -42.5 -111t-131.5 -41h-246zM267 245h-107v-183h123q118 0 118 96q0 47 -31 68q-10 8 -33 13q-24 6 -70 6zM554 0v508h88v-508h-88zM302 608h-88v92h88v-92zM500 608h-88v92h88v-92z" />
    <glyph glyph-name="uni04FC" unicode="&#x4fc;" horiz-adv-x="636" 
d="M110 700l175 -275l175 275h117l-232 -342l201 -296q51 0 85 -25q45 -33 45 -92q0 -84 -61 -120q-43 -25 -112 -25v62q38 0 65.5 19t27.5 58q0 27 -16.5 44t-43.5 17h-67l-184 291l-184 -291h-121l245 358l-232 342h117z" />
    <glyph glyph-name="uni04FD" unicode="&#x4fd;" horiz-adv-x="527" 
d="M112 508l130 -188l130 188h98l-178 -243l146 -203q46 0 78 -25q41 -32 41 -95q0 -82 -57 -117q-38 -25 -105 -25v62q32 0 62 18q30 16 30 59q0 27 -16 44t-43 17h-42l-144 209l-144 -209h-98l192 265l-178 243h98z" />
    <glyph glyph-name="uni0510" unicode="&#x510;" horiz-adv-x="668" 
d="M528 215h94q-4 -94 -61 -160q-66 -76 -232 -76q-158 0 -219 71q-52 62 -52 142q0 148 147 179v2q-54 10 -86.5 52t-32.5 100q0 108 86 158q46 26 101 33q39 5 76 5q16 0 42 -2q74 -8 108 -29q103 -54 111 -184h-94q-1 36 -16.5 64t-37.5 42q-17 12 -48 20q-34 10 -71 10
t-90 -16q-33 -10 -52 -38t-19 -69q0 -75 60 -97q42 -14 81 -14h83v-79h-92q-48 0 -81.5 -12t-49.5 -32.5t-22.5 -41t-6.5 -44.5q0 -25 8 -47.5t27 -45t56.5 -35.5t90.5 -13q115 0 156 57q35 50 36 100z" />
    </font>
</defs>
</svg>
