<?xml version="1.0" standalone="no"?>
<!DOCTYPE svg PUBLIC "-//W3C//DTD SVG 1.1//EN" "http://www.w3.org/Graphics/SVG/1.1/DTD/svg11.dtd" >
<svg xmlns="http://www.w3.org/2000/svg" xmlns:xlink="http://www.w3.org/1999/xlink" version="1.1">
<metadata>
Created by FontForge 20170731 at Sat Feb 15 12:00:11 2014
 By Aleksey,,,
Copyright (c) 1990 ParaGraph Intl., (c) 1998 ParaType Inc., ParaType Ltd. All rights reserved.
</metadata>
<defs>
<font id="Pragmatica-Light" horiz-adv-x="576" >
  <font-face 
    font-family="Pragmatica"
    font-weight="300"
    font-stretch="normal"
    units-per-em="1000"
    panose-1="2 11 4 3 4 5 2 2 2 4"
    ascent="800"
    descent="-200"
    x-height="508"
    cap-height="700"
    bbox="-412 -251 1224 982"
    underline-thickness="50"
    underline-position="-250"
    unicode-range="U+000D-FB02"
  />
<missing-glyph horiz-adv-x="500" 
d="M58 8h384v496h-384v-496zM50 0v512h400v-512h-400z" />
    <glyph glyph-name="afii10017.var.accented" unicode="&#x410;`" horiz-adv-x="621" 
d="M158 201l-75 -201h-80l266 700h83l266 -700h-81l-74 201h-305zM179 264h262l-131 365zM326 900h92l-99 -140h-65z" />
    <glyph glyph-name="afii10022.var.accented" unicode="&#x415;`" horiz-adv-x="611" 
d="M321 900h92l-99 -140h-65zM166 394h374v-63h-374v-268h421v-63h-495v700h483v-63h-409v-243z" />
    <glyph glyph-name="afii10026.var.accented" unicode="&#x418;`" horiz-adv-x="731" 
d="M166 106l397 594h76v-700h-74v597l-397 -597h-76v700h74v-594zM381 900h92l-99 -140h-65z" />
    <glyph glyph-name="afii10032.var.accented" unicode="&#x41e;`" horiz-adv-x="790" 
d="M411 900h92l-99 -140h-65zM392 721q140 0 226 -80q106 -99 106 -291q0 -194 -104 -292q-83 -79 -223 -79q-150 0 -231 81q-12 10 -25.5 29t-32 53.5t-30.5 89.5t-12 118q0 186 102 288q83 83 224 83zM396 658q-99 0 -163 -57q-89 -81 -89 -255q0 -157 78 -238
q66 -66 174 -66q104 0 171 67q79 79 79 239q0 170 -90 254q-61 56 -160 56z" />
    <glyph glyph-name="afii10037.var.accented" unicode="&#x423;`" 
d="M318 254l179 446h79l-227 -557q-33 -82 -63 -112q-41 -41 -115 -41q-37 0 -70 10v64q29 -10 64 -10q41 0 67 24q28 28 47 90l-266 532h91zM304 900h92l-99 -140h-65z" />
    <glyph glyph-name="afii10045.var.accented" unicode="&#x42b;`" horiz-adv-x="843" 
d="M166 700v-293h200q109 0 169 -54q60 -56 60 -149t-55 -148q-56 -56 -168 -56h-280v700h74zM166 344v-281h198q82 0 119 40q36 37 36 100q0 64 -39 101q-42 40 -133 40h-181zM677 700h74v-700h-74v700zM437 900h92l-99 -140h-65z" />
    <glyph glyph-name="afii10047.var.accented" unicode="&#x42d;`" horiz-adv-x="733" 
d="M240 394h349q-6 141 -84 212q-61 53 -156 53q-87 0 -137 -36q-66 -46 -75 -126h-75q10 120 107 180q73 45 180 45q119 0 196 -59q59 -45 90.5 -127t31.5 -183q0 -99 -32.5 -185.5t-90.5 -133.5q-71 -58 -195 -58q-137 0 -215 78q-69 69 -84 180h75q10 -85 66 -139
q57 -56 155 -56q87 0 143 42q41 30 65.5 85t29.5 93t5 73h-349v62zM382 900h92l-99 -140h-65z" />
    <glyph glyph-name="afii10048.var.accented" unicode="&#x42e;`" horiz-adv-x="999" 
d="M166 401h111q11 151 102 238q86 82 224 82q141 0 223 -78q107 -102 107 -301q0 -190 -103 -286q-80 -77 -222 -77q-145 0 -229 79q-52 50 -78 124.5t-26 155.5h-109v-338h-74v700h74v-299zM604 42q109 0 175 68q76 77 76 234q0 168 -85 253q-64 61 -169 61
q-100 0 -164 -62q-84 -80 -84 -246q0 -169 85 -247q63 -61 166 -61zM515 900h92l-99 -140h-65z" />
    <glyph glyph-name="afii10049.var.accented" unicode="&#x42f;`" horiz-adv-x="687" 
d="M521 288h-186l-174 -288h-89l186 295q-84 7 -132 55q-54 52 -54 144q0 96 56 148q60 58 183 58h284v-700h-74v288zM521 637h-208q-83 0 -124 -38q-41 -36 -41 -104q0 -63 34 -100q42 -44 142 -44h197v286zM383 900h92l-99 -140h-65z" />
    <glyph glyph-name="afii10065.var.accented" unicode="&#x430;`" horiz-adv-x="556" 
d="M296 700h86l-95 -132h-61zM134 362h-67q0 84 66 131q50 35 143 35q102 0 149 -47q43 -43 41 -119l-6 -253q0 -36 10 -47q17 -20 46 -12v-50q-12 -4 -37 -4q-40 0 -59 19q-24 24 -22 66q-26 -43 -66 -65q-49 -28 -119 -28q-83 0 -125 41q-42 39 -42 107q0 59 37 96
q42 42 161 55l33 4q8 1 32 3.5t36 4.5q30 5 40 15q12 13 12 49q0 58 -31 87q-32 28 -96 28q-73 0 -104 -31q-30 -30 -32 -85zM393 217l2 52q-13 -12 -40 -17q-32 -6 -90 -11l-20 -2q-76 -9 -103 -35q-24 -24 -24 -69q0 -42 26 -68q26 -29 80 -29q66 0 109 35q55 45 60 144z
" />
    <glyph glyph-name="afii10070.var.accented" unicode="&#x435;`" 
d="M306 700h86l-95 -132h-61zM451 147h66q-13 -62 -55 -108q-57 -59 -162 -59q-110 0 -172 59q-75 73 -75 217q0 138 70 208q64 64 172 64q104 0 162 -60q38 -39 50.5 -92t15.5 -135h-398q4 -108 54 -161q45 -50 124 -50q65 0 105 38q27 24 43 79zM294 478q-78 0 -122 -49
q-47 -54 -47 -138h325q0 35 -13 79t-36 67q-39 41 -107 41z" />
    <glyph glyph-name="afii10074.var.accented" unicode="&#x438;`" horiz-adv-x="586" 
d="M148 80l281 428h78v-508h-69v429l-280 -429h-79v508h69v-428zM311 700h86l-95 -132h-61z" />
    <glyph glyph-name="afii10080.var.accented" unicode="&#x43e;`" horiz-adv-x="592" 
d="M314 700h86l-95 -132h-61zM296 528q103 0 166 -59q77 -73 77 -215q0 -143 -81 -218q-61 -56 -161 -56q-106 0 -164 56q-33 28 -56.5 83t-23.5 135q0 138 77 215q59 59 166 59zM296 479q-71 0 -113 -42q-58 -58 -58 -182q0 -128 62 -186q43 -39 109 -39q68 0 108 38
q62 57 62 187q0 119 -53 177q-45 47 -117 47z" />
    <glyph glyph-name="afii10085.var.accented" unicode="&#x443;`" horiz-adv-x="479" 
d="M257 700h86l-95 -132h-61zM89 -184v52q15 -4 39 -4q32 0 49 15q16 14 29 56l21 65l-214 508h83l168 -431l146 431h69l-209 -585q-25 -68 -45 -86q-28 -26 -80 -26q-28 0 -56 5z" />
    <glyph glyph-name="afii10093.var.accented" unicode="&#x44b;`" horiz-adv-x="693" 
d="M79 508h69v-204h133h31q65 0 103 -24q66 -41 66 -125q0 -90 -65 -130q-42 -25 -110 -25h-227v508zM148 254v-204h134q59 0 87 20q40 28 40 83q0 51 -29 76q-28 25 -98 25h-134zM545 508h69v-508h-69v508zM364 700h86l-95 -132h-61z" />
    <glyph glyph-name="afii10095.var.accented" unicode="&#x44d;`" horiz-adv-x="546" 
d="M189 241v50h232q0 64 -27 113q-43 74 -135 74q-72 0 -112 -42q-29 -31 -34 -81h-67q6 80 63 127q55 46 151 46q108 0 166 -58q67 -67 67 -210q0 -137 -52 -203q-58 -77 -178 -77q-108 0 -162 54q-54 52 -61 139h68q2 -49 26 -83q40 -60 133 -60q50 0 80.5 20.5t49.5 63.5
q26 59 24 127h-232zM291 700h86l-95 -132h-61z" />
    <glyph glyph-name="afii10096.var.accented" unicode="&#x44e;`" horiz-adv-x="769" 
d="M148 293h84q5 108 73 173q65 62 169 62q102 0 166 -60q76 -76 76 -213q0 -142 -80 -219q-59 -56 -160 -56q-104 0 -166 57q-38 37 -58.5 93t-20.5 113h-83v-243h-69v508h69v-215zM304 255q0 -125 56 -181q44 -44 116 -44q63 0 104 37q63 59 63 188t-62 186
q-40 37 -107 37q-71 0 -113 -42q-57 -57 -57 -181zM402 700h86l-95 -132h-61z" />
    <glyph glyph-name="afii10097.var.accented" unicode="&#x44f;`" horiz-adv-x="533" 
d="M247 207l-131 -207h-76l137 208q-53 7 -86 40q-41 39 -41 105q0 71 39 111q42 44 125 44h240v-508h-69v207h-138zM385 458h-140q-24 0 -36.5 -1t-29.5 -7t-30 -19q-28 -26 -28 -74q0 -45 27 -70q30 -30 102 -30h135v201zM284 700h86l-95 -132h-61z" />
    <glyph glyph-name="fi" unicode="fi" horiz-adv-x="499" 
d="M100 508v63q0 67 30 99q33 33 113 33q36 0 53 -3v-50q-14 2 -33 2q-51 0 -73 -19q-21 -19 -21 -65v-60h252v-508h-69v458h-183v-458h-69v458h-94v50h94zM351 616v84h72v-84h-72z" />
    <glyph glyph-name="fl" unicode="fl" horiz-adv-x="500" 
d="M421 700v-700h-69v458h-183v-458h-69v458h-94v50h94v63q0 67 30 99q33 33 113 33q36 0 53 -3v-50q-14 2 -33 2q-51 0 -73 -19q-21 -19 -21 -65v-60h183v192h69z" />
    <glyph glyph-name=".notdef" horiz-adv-x="500" 
d="M58 8h384v496h-384v-496zM50 0v512h400v-512h-400z" />
    <glyph glyph-name=".null" horiz-adv-x="0" 
 />
    <glyph glyph-name="uni000D" unicode="&#xd;" horiz-adv-x="233" 
 />
    <glyph glyph-name="NULL" horiz-adv-x="0" 
 />
    <glyph glyph-name="NULL" horiz-adv-x="0" 
 />
    <glyph glyph-name="space" unicode=" " horiz-adv-x="233" 
 />
    <glyph glyph-name="exclam" unicode="!" horiz-adv-x="300" 
d="M111 700h79v-286l-20 -224h-40l-19 224v286zM110 0v94h80v-94h-80z" />
    <glyph glyph-name="quotedbl" unicode="&#x22;" horiz-adv-x="372" 
d="M160 700l-34 -192h-42l-34 192h110zM322 700l-33 -192h-43l-33 192h109z" />
    <glyph glyph-name="numbersign" unicode="#" horiz-adv-x="669" 
d="M411 32h-54l24 161h-143l-24 -161h-54l24 161h-134l11 70h134l28 179h-134l11 70h134l25 160h54l-25 -160h143l25 160h54l-25 -160h134l-11 -70h-134l-28 -179h134l-10 -70h-134zM392 263l28 179h-143l-28 -179h143z" />
    <glyph glyph-name="dollar" unicode="$" 
d="M45 213h72q0 -83 49 -128q41 -36 105 -41v289q-62 17 -96 31t-59 39q-50 49 -50 129t48 128q29 29 71.5 43.5t85.5 12.5v61h45v-61q90 0 142 -52q22 -22 34.5 -52.5t14.5 -46t2 -26.5h-69q-5 56 -36 87q-34 34 -88 35v-269q124 -29 165 -73q49 -49 49 -132
q0 -92 -54 -144q-28 -28 -71.5 -43.5t-88.5 -13.5v-79h-45v79q-98 -4 -163 59q-31 31 -47 78t-16 90zM316 325v-282q66 0 104 38q38 35 38 99q0 65 -38 99q-41 36 -104 46zM271 401v260q-60 5 -101 -35q-34 -34 -34 -92q0 -54 33 -85q30 -30 102 -48z" />
    <glyph glyph-name="percent" unicode="%" horiz-adv-x="893" 
d="M214 708q63 0 109 -43q55 -55 55 -151q0 -107 -56 -163q-43 -43 -105 -43q-65 0 -109 44q-55 55 -55 156q0 97 54 155q43 45 107 45zM212 663q-36 0 -61 -25q-41 -41 -41 -128q0 -88 37 -128q26 -29 68 -29q38 0 67 29q40 44 40 129q0 83 -41 124q-28 28 -69 28zM182 0
l473 700h58l-473 -700h-58zM676 392q63 0 109 -43q55 -55 55 -151q0 -107 -56 -163q-43 -43 -105 -43q-65 0 -109 44q-55 55 -55 156q0 97 54 155q43 45 107 45zM674 347q-36 0 -61 -25q-41 -41 -41 -128q0 -88 37 -128q26 -29 68 -29q38 0 67 29q40 44 40 129q0 83 -41 124
q-28 28 -69 28z" />
    <glyph glyph-name="ampersand" unicode="&#x26;" horiz-adv-x="650" 
d="M504 306h64q-5 -49 -16 -84q-12 -40 -35 -80l120 -142h-85l-73 87q-44 -56 -87 -79q-50 -29 -128 -29q-108 0 -167 59q-57 57 -57 147q0 88 60 148q39 39 116 71q-24 27 -45 61q-28 46 -28 94q0 56 37 97q42 44 113 44q73 0 111 -38q39 -36 39 -101q0 -67 -50 -115
q-27 -27 -83 -57l165 -197q14 28 20 54q7 26 9 60zM440 133l-187 226q-57 -21 -94 -58q-46 -46 -46 -112t43 -109q40 -40 113 -40q63 0 110 29q38 25 61 64zM275 432q44 20 68 44q34 34 34 82q0 40 -24 64q-22 22 -59 22q-38 0 -60 -22q-23 -23 -23 -60q0 -38 24 -75l4 -6
q4 -6 13 -18.5t23 -30.5z" />
    <glyph glyph-name="quotesingle" unicode="'" horiz-adv-x="209" 
d="M159 700l-33 -192h-43l-33 192h109z" />
    <glyph glyph-name="parenleft" unicode="(" horiz-adv-x="351" 
d="M218 700h50q-50 -91 -84 -196q-41 -128 -41 -246t41 -246q34 -105 84 -196h-50q-62 101 -97 187q-50 128 -50 255t50 255q35 86 97 187z" />
    <glyph glyph-name="parenright" unicode=")" horiz-adv-x="351" 
d="M83 700h50q62 -101 97 -187q50 -128 50 -255t-50 -255q-35 -86 -97 -187h-50q50 91 84 196q41 128 41 246t-41 246q-34 105 -84 196z" />
    <glyph glyph-name="asterisk" unicode="*" horiz-adv-x="489" 
d="M245 508l-82 -112l-35 26l81 112l-130 41l14 41l131 -41v136h43v-136l129 41l14 -41l-129 -41l81 -112l-35 -26z" />
    <glyph glyph-name="plus" unicode="+" horiz-adv-x="600" 
d="M50 379h226v226h48v-226h226v-48h-226v-226h-48v226h-226v48z" />
    <glyph glyph-name="comma" unicode="," horiz-adv-x="300" 
d="M110 94h80v-115q0 -65 -29 -94q-19 -19 -51 -27v46q21 7 30 23q10 18 10 51v22h-40v94z" />
    <glyph glyph-name="hyphen" unicode="-" horiz-adv-x="404" 
d="M70 227v79h264v-79h-264z" />
    <glyph glyph-name="period" unicode="." horiz-adv-x="300" 
d="M110 0v94h80v-94h-80z" />
    <glyph glyph-name="slash" unicode="/" horiz-adv-x="408" 
d="M0 -185l357 885h51l-357 -885h-51z" />
    <glyph glyph-name="zero" unicode="0" 
d="M288 -21q-94 0 -150 59q-49 51 -70.5 137.5t-21.5 179.5q0 91 22 174.5t72 133.5q58 58 146 58q92 0 150 -58q94 -95 94 -307q0 -227 -95 -321q-56 -56 -147 -56zM288 42q54 0 94 39q74 74 74 269q0 191 -74 269q-39 39 -94 39q-57 0 -96 -39t-55.5 -116t-16.5 -153
q0 -199 74 -269q39 -39 94 -39z" />
    <glyph glyph-name="one" unicode="1" 
d="M151 536v39h19q63 0 107 30q51 35 57 95h50v-700h-75v536h-158z" />
    <glyph glyph-name="two" unicode="2" 
d="M523 63v-63h-456v10q0 61 18 104t64 89q56 54 156 116q72 47 95 73l10 12q36 46 36 109q0 69 -42 108q-39 37 -107 37q-71 0 -111 -40q-42 -40 -42 -124v-11h-74v18q0 99 63 162q58 58 166 58q107 0 165 -57t58 -155q0 -93 -59 -153q-34 -37 -123 -91l-51 -32
q-67 -43 -100 -80q-36 -41 -40 -90h374z" />
    <glyph glyph-name="three" unicode="3" 
d="M46 206h71q0 -77 45 -122q43 -44 121 -44q74 0 117 39q45 41 45 124q0 61 -39 96q-44 38 -120 38h-49v61h28q83 0 119 34q38 33 38 93q0 61 -39 100q-37 35 -100 35q-73 0 -110 -37q-41 -41 -41 -119v-12h-70v11q0 102 62 164q56 54 158 54q98 0 155 -53q55 -53 55 -139
q0 -74 -48 -119q-24 -24 -64 -36v-2q47 -7 84 -42q52 -51 52 -134q0 -94 -56 -151q-66 -66 -180 -66q-56 0 -99 16t-67.5 39.5t-40 56t-21 59.5t-6.5 56z" />
    <glyph glyph-name="four" unicode="4" 
d="M358 167h-326v63l324 470h76v-470h112v-63h-112v-167h-74v167zM106 230h252v370z" />
    <glyph glyph-name="five" unicode="5" 
d="M60 173h74q7 -59 44 -94q39 -39 113 -39q72 0 115 39q52 47 52 144q0 85 -45 130q-43 43 -119 43q-9 0 -21.5 -1.5t-35.5 -7t-46 -19.5t-40 -35h-69l50 367h359v-63h-303l-33 -234q27 23 60 38q38 16 88 16q101 0 161 -57q66 -63 66 -176q0 -117 -66 -183
q-62 -62 -178 -62q-108 0 -168 62q-47 50 -58 132z" />
    <glyph glyph-name="six" unicode="6" 
d="M515 549h-69q-7 45 -38 76q-35 35 -101 35q-71 0 -112 -44q-69 -72 -69 -257h2q26 48 67 70q45 24 110 24q94 0 153 -55q67 -61 67 -176q0 -110 -60 -177q-61 -66 -167 -66q-112 0 -168 63q-78 81 -78 293q0 231 96 325q62 61 163 61q92 0 146 -54q48 -45 58 -118z
M137 222q0 -91 48 -140q42 -42 114 -42q65 0 105 40q49 49 49 141q0 83 -46 129q-42 42 -111 42q-70 0 -113 -43q-46 -46 -46 -127z" />
    <glyph glyph-name="seven" unicode="7" 
d="M42 636v64h491v-50q-115 -130 -192 -323q-61 -154 -80 -327h-80q10 76 26.5 143.5t29 103t33.5 86.5q36 83 77.5 154t108.5 149h-414z" />
    <glyph glyph-name="eight" unicode="8" 
d="M191 381q-51 18 -77 57q-31 43 -31 99q0 75 50 128q56 56 153 56q95 0 151 -50q56 -51 56 -133q0 -61 -37 -109q-25 -32 -71 -48q47 -11 80 -44q55 -50 55 -142q0 -97 -58 -155q-61 -61 -173 -61q-113 0 -177 64q-56 58 -56 151q0 72 38.5 123.5t96.5 63.5zM288 408
q62 0 98 34q37 34 37 93t-38 93q-37 32 -97 32q-64 0 -99 -35q-36 -36 -36 -91q0 -56 36 -92q38 -34 99 -34zM292 40q66 0 109 41q46 46 46 118q0 75 -50 117q-39 33 -109 33q-79 0 -119 -42q-41 -41 -41 -108q0 -73 44 -115q44 -44 120 -44z" />
    <glyph glyph-name="nine" unicode="9" 
d="M61 151h69q7 -45 38 -76q35 -35 101 -35q71 0 112 44q69 72 69 257h-2q-26 -48 -67 -70q-44 -24 -104 -24q-101 0 -159 55q-67 61 -67 176q0 110 60 177q60 66 167 66t168 -63q78 -84 78 -293q0 -231 -96 -325q-62 -61 -163 -61q-92 0 -146 54q-48 45 -58 118zM278 660
q-66 0 -106 -40q-49 -49 -49 -141q0 -83 46 -129q42 -42 111 -42q70 0 113 43q46 46 46 127q0 91 -48 140q-38 42 -113 42z" />
    <glyph glyph-name="colon" unicode=":" horiz-adv-x="300" 
d="M110 414v94h80v-94h-80zM110 0v94h80v-94h-80z" />
    <glyph glyph-name="semicolon" unicode=";" horiz-adv-x="300" 
d="M110 414v94h80v-94h-80zM110 94h80v-115q0 -65 -29 -94q-19 -19 -51 -27v46q21 7 30 23q10 18 10 51v22h-40v94z" />
    <glyph glyph-name="less" unicode="&#x3c;" horiz-adv-x="663" 
d="M60 362l495 289l24 -44l-459 -265l459 -265l-24 -44l-495 289v40z" />
    <glyph glyph-name="equal" unicode="=" horiz-adv-x="600" 
d="M50 469h500v-48h-500v48zM50 269h500v-48h-500v48z" />
    <glyph glyph-name="greater" unicode="&#x3e;" horiz-adv-x="663" 
d="M603 322l-495 -289l-24 44l459 265l-459 265l24 44l495 -289v-40z" />
    <glyph glyph-name="question" unicode="?" horiz-adv-x="558" 
d="M236 0v94h80v-94h-80zM137 492h-71q-4 112 58 174q57 55 157 55q104 0 160 -53q51 -48 51 -130q0 -87 -66 -146l-42 -38q-49 -45 -61 -65q-18 -30 -18 -73v-20h-58v17q0 62 19 97q18 32 54 66l39 36q62 55 62 129q0 50 -35 85q-36 36 -104 36q-66 0 -101 -34
q-48 -40 -44 -136z" />
    <glyph glyph-name="at" unicode="@" horiz-adv-x="862" 
d="M592 71l25 -42q-86 -50 -200 -50q-156 0 -252 96q-105 101 -105 276q0 157 101 260q108 110 270 110q168 0 269 -96q102 -96 102 -246q0 -120 -68 -188q-44 -44 -104 -44q-39 0 -62 16q-20 14 -27 41q-15 -32 -51 -48q-36 -15 -78 -15q-78 0 -124 49q-51 51 -51 144
q0 96 59 155q46 46 121 46q48 0 80 -21q24 -16 37 -43h2v50h62v-261q0 -38 13 -51q9 -11 31 -11q33 0 59 26q48 48 48 147q0 142 -93 227q-84 78 -225 78q-66 0 -119 -20.5t-105 -70.5q-50 -49 -72 -105t-22 -129q0 -145 87 -235q42 -43 104 -67.5t126 -24.5q82 0 162 47z
M532 343q0 80 -36 112q-28 27 -77 27q-45 0 -72 -27q-38 -38 -38 -117q0 -78 41 -119q27 -26 68 -26q45 0 76 28q38 36 38 122z" />
    <glyph glyph-name="A" unicode="A" horiz-adv-x="621" 
d="M158 201l-75 -201h-80l266 700h83l266 -700h-81l-74 201h-305zM179 264h262l-131 365z" />
    <glyph glyph-name="B" unicode="B" horiz-adv-x="694" 
d="M92 700h293q111 0 161 -50q46 -46 46 -125q0 -66 -44 -113q-32 -32 -74 -41v-2q62 -9 102 -49q46 -46 46 -125q0 -83 -50 -135q-57 -60 -196 -60h-284v700zM166 637v-242h201q82 0 116 34t34 90q0 52 -31 83q-38 35 -113 35h-207zM166 332v-269h206q90 0 133 33
q41 36 41 103q0 73 -46 105q-38 28 -129 28h-205z" />
    <glyph glyph-name="C" unicode="C" horiz-adv-x="733" 
d="M608 228h75q-13 -107 -81 -175q-74 -74 -211 -74q-144 0 -228 87q-97 101 -97 285q0 190 98 285q89 85 224 85q141 0 219 -74q62 -62 68 -157h-75q-5 64 -50 112q-54 56 -156 56q-105 0 -167 -61q-82 -81 -82 -235q0 -174 86 -257q63 -63 165 -63q92 0 151 55
q56 56 61 131z" />
    <glyph glyph-name="D" unicode="D" horiz-adv-x="720" 
d="M92 700h245q69 0 126 -15t107 -62q97 -97 97 -271q0 -187 -99 -278q-80 -74 -241 -74h-235v700zM166 637v-574h139q30 0 50 1.5t51.5 7t59 19.5t50.5 37q73 73 73 222q0 151 -77 225q-62 62 -176 62h-170z" />
    <glyph glyph-name="E" unicode="E" horiz-adv-x="611" 
d="M166 394h374v-63h-374v-268h421v-63h-495v700h483v-63h-409v-243z" />
    <glyph glyph-name="F" unicode="F" horiz-adv-x="567" 
d="M166 388h336v-63h-336v-325h-74v700h455v-63h-381v-249z" />
    <glyph glyph-name="G" unicode="G" horiz-adv-x="747" 
d="M394 359h287v-359h-62v123h-2q-31 -63 -83 -101q-60 -43 -162 -43q-143 0 -222 84q-14 14 -27.5 33.5t-30.5 54.5t-28 88t-11 115q0 187 98 285q84 84 237 84q131 0 207 -70q61 -56 74 -154h-74q-11 67 -48 104q-55 57 -160 57q-120 0 -181 -68q-75 -78 -75 -239
q0 -155 80 -240q64 -71 173 -71q97 0 157 60q71 68 71 194h-218v63z" />
    <glyph glyph-name="H" unicode="H" horiz-adv-x="708" 
d="M166 338v-338h-74v700h74v-299h376v299h74v-700h-74v338h-376z" />
    <glyph glyph-name="I" unicode="I" horiz-adv-x="258" 
d="M92 700h74v-700h-74v700z" />
    <glyph glyph-name="J" unicode="J" horiz-adv-x="516" 
d="M30 225h74v-6q0 -108 44 -147q30 -30 88 -30q53 0 86 31q41 40 41 145v482h74v-472q0 -136 -56 -195q-52 -54 -149 -54q-94 0 -143 48q-59 59 -59 194v4z" />
    <glyph glyph-name="K" unicode="K" horiz-adv-x="655" 
d="M166 334l370 366h99l-292 -287l312 -413h-97l-269 364l-123 -120v-244h-74v700h74v-366z" />
    <glyph glyph-name="L" unicode="L" horiz-adv-x="530" 
d="M530 63v-63h-438v700h74v-637h364z" />
    <glyph glyph-name="M" unicode="M" horiz-adv-x="878" 
d="M407 0l-241 608h-2l2 -27v-581h-74v700h112l235 -603l236 603h111v-700h-74v581l2 27h-3l-240 -608h-64z" />
    <glyph glyph-name="N" unicode="N" horiz-adv-x="736" 
d="M166 589v-589h-74v700h85l393 -589v589h74v-700h-84z" />
    <glyph glyph-name="O" unicode="O" horiz-adv-x="790" 
d="M392 721q140 0 226 -80q106 -99 106 -291q0 -194 -104 -292q-83 -79 -223 -79q-150 0 -231 81q-12 10 -25.5 29t-32 53.5t-30.5 89.5t-12 118q0 186 102 288q83 83 224 83zM396 658q-99 0 -163 -57q-89 -81 -89 -255q0 -157 78 -238q66 -66 174 -66q104 0 171 67
q79 79 79 239q0 170 -90 254q-61 56 -160 56z" />
    <glyph glyph-name="P" unicode="P" horiz-adv-x="637" 
d="M92 700h272q123 0 180 -54q53 -49 53 -143q0 -98 -52 -150q-26 -28 -65 -42.5t-64 -16.5t-62 -2h-188v-292h-74v700zM166 637v-282h183q90 0 132 38q40 36 40 106q0 62 -37 99q-42 39 -135 39h-183z" />
    <glyph glyph-name="Q" unicode="Q" horiz-adv-x="790" 
d="M620 59l85 -86l-41 -41l-90 90q-62 -43 -174 -43q-157 0 -237 86q-43 45 -70 119.5t-27 166.5q0 184 99 283q87 87 231 87q142 0 226 -82q102 -102 102 -287q0 -101 -28 -176q-28 -73 -76 -117zM488 194l82 -83q34 38 54 90q22 65 22 149q0 166 -82 244q-63 63 -168 63
q-109 0 -172 -65q-80 -80 -80 -240q0 -168 84 -249q61 -61 165 -61q86 0 131 32l-79 80z" />
    <glyph glyph-name="R" unicode="R" horiz-adv-x="694" 
d="M92 0v700h297q67 0 109.5 -10.5t74.5 -43.5q48 -50 48 -130q0 -75 -42 -124q-30 -35 -80 -50v-2q36 -9 61 -34q39 -39 39 -130l2 -79v-7t0.5 -8.5t1 -8.5t1 -9.5t1.5 -9.5t2 -10t3 -10t4.5 -11t6 -11t7.5 -12h-80q-20 31 -23 91l-3 74q0 4 -1 19.5t-1.5 20t-2 16.5
t-3.5 17.5t-5.5 14t-9 15t-12.5 12.5q-34 28 -100 28h-221v-308h-74zM166 637v-266h216q81 0 121 37q39 39 39 104t-36 93q-37 32 -128 32h-212z" />
    <glyph glyph-name="S" unicode="S" horiz-adv-x="655" 
d="M53 221h75q-1 -73 46 -120q56 -57 163 -57q100 0 148 47q39 39 39 94q0 48 -31 83q-35 38 -134 56l-70 13q-131 25 -176 75q-41 47 -41 111q0 103 84 157q65 42 175 42q120 0 191 -64q53 -53 61 -137h-74q-6 60 -46 97q-44 41 -138 41q-73 0 -117 -27q-58 -36 -58 -104
q0 -41 27 -70q33 -34 124 -51l66 -13q134 -26 184 -73q51 -47 51 -129q0 -94 -60 -151q-67 -60 -198 -60q-153 0 -226 73q-65 65 -65 167z" />
    <glyph glyph-name="T" unicode="T" horiz-adv-x="550" 
d="M238 637h-232v63h538v-63h-232v-637h-74v637z" />
    <glyph glyph-name="U" unicode="U" horiz-adv-x="695" 
d="M79 700h74v-420q0 -39 2 -65t12.5 -59.5t30.5 -54.5q51 -56 150 -56t148 54q46 50 46 181v420h74v-428q0 -45 -3.5 -76.5t-20.5 -74.5t-49 -74q-68 -65 -196 -65q-130 0 -198 63q-70 66 -70 227v428z" />
    <glyph glyph-name="V" unicode="V" horiz-adv-x="593" 
d="M297 76l211 624h81l-247 -700h-91l-247 700h81z" />
    <glyph glyph-name="W" unicode="W" horiz-adv-x="884" 
d="M442 612l-158 -612h-95l-183 700h83l152 -609l158 609h87l157 -609l152 609h83l-184 -700h-95z" />
    <glyph glyph-name="X" unicode="X" horiz-adv-x="585" 
d="M293 412l187 288h91l-230 -342l240 -358h-95l-193 304l-194 -304h-95l240 358l-230 342h91z" />
    <glyph glyph-name="Y" unicode="Y" horiz-adv-x="603" 
d="M302 366l209 334h88l-260 -401v-299h-74v299l-261 401h89z" />
    <glyph glyph-name="Z" unicode="Z" horiz-adv-x="581" 
d="M49 700h487v-62l-422 -575h441v-63h-529v69l426 568h-403v63z" />
    <glyph glyph-name="bracketleft" unicode="[" horiz-adv-x="358" 
d="M106 700h199v-50h-129v-785h129v-50h-199v885z" />
    <glyph glyph-name="backslash" unicode="\" horiz-adv-x="408" 
d="M408 -185h-51l-357 885h51z" />
    <glyph glyph-name="bracketright" unicode="]" horiz-adv-x="358" 
d="M53 700h199v-885h-199v50h128v785h-128v50z" />
    <glyph glyph-name="asciicircum" unicode="^" horiz-adv-x="413" 
d="M302 482l-95 181l-95 -181h-56l116 218h69l116 -218h-55z" />
    <glyph glyph-name="underscore" unicode="_" horiz-adv-x="498" 
d="M0 -185v42h498v-42h-498z" />
    <glyph glyph-name="grave" unicode="`" horiz-adv-x="292" 
d="M128 700l70 -132h-60l-96 132h86z" />
    <glyph glyph-name="a" unicode="a" horiz-adv-x="556" 
d="M134 362h-67q0 84 66 131q50 35 143 35q102 0 149 -47q43 -43 41 -119l-6 -253q0 -36 10 -47q17 -20 46 -12v-50q-12 -4 -37 -4q-40 0 -59 19q-24 24 -22 66q-26 -43 -66 -65q-49 -28 -119 -28q-83 0 -125 41q-42 39 -42 107q0 59 37 96q42 42 161 55l33 4q8 1 32 3.5
t36 4.5q30 5 40 15q12 13 12 49q0 58 -31 87q-32 28 -96 28q-73 0 -104 -31q-30 -30 -32 -85zM393 217l2 52q-13 -12 -40 -17q-32 -6 -90 -11l-20 -2q-76 -9 -103 -35q-24 -24 -24 -69q0 -42 26 -68q26 -29 80 -29q66 0 109 35q55 45 60 144z" />
    <glyph glyph-name="b" unicode="b" horiz-adv-x="597" 
d="M79 700h69v-266q21 40 55 62q46 32 116 32q98 0 154 -56q71 -71 71 -211q0 -149 -73 -222q-55 -59 -153 -59q-70 0 -120 35q-34 27 -51 60h-2v-75h-66v700zM144 254q0 -122 59 -181q43 -43 106 -43q70 0 108 44q55 58 55 184q0 125 -60 181q-41 39 -101 39
q-69 0 -110 -45q-57 -59 -57 -179z" />
    <glyph glyph-name="c" unicode="c" horiz-adv-x="547" 
d="M441 178h66q-9 -91 -66 -148q-31 -31 -65.5 -40.5t-81.5 -9.5q-106 0 -164 56q-77 74 -77 223q0 133 65 203q58 66 172 66q100 0 155 -53q47 -47 57 -120h-66q-5 47 -35 80q-38 43 -106 43q-71 0 -116 -45q-53 -53 -53 -172q0 -127 61 -188q43 -43 108 -43t101 38
q40 43 45 110z" />
    <glyph glyph-name="d" unicode="d" horiz-adv-x="596" 
d="M448 700h69v-700h-66v75h-2q-19 -42 -60 -68q-43 -27 -111 -27q-95 0 -150 55q-75 73 -75 222q0 141 71 212q59 59 155 59q64 0 110 -29q37 -23 59 -65v266zM126 258q0 -126 54 -182q42 -46 107 -46q63 0 104 41q61 61 61 183q0 125 -63 185q-42 39 -103 39
q-58 0 -99 -36q-61 -56 -61 -184z" />
    <glyph glyph-name="e" unicode="e" 
d="M451 147h66q-13 -62 -55 -108q-57 -59 -162 -59q-110 0 -172 59q-75 73 -75 217q0 138 70 208q64 64 172 64q104 0 162 -60q38 -39 50.5 -92t15.5 -135h-398q4 -108 54 -161q45 -50 124 -50q65 0 105 38q27 24 43 79zM294 478q-78 0 -122 -49q-47 -54 -47 -138h325
q0 35 -13 79t-36 67q-39 41 -107 41z" />
    <glyph glyph-name="f" unicode="f" horiz-adv-x="284" 
d="M278 508v-50h-109v-458h-69v458h-94v50h94v72q0 62 27 91q32 32 103 32q24 0 48 -3v-50q-5 1 -15 1h-15q-46 0 -65 -19q-14 -16 -14 -53v-71h109z" />
    <glyph glyph-name="g" unicode="g" horiz-adv-x="592" 
d="M84 -62h69q10 -30 39 -55q34 -25 96 -25q73 0 109 34q47 42 47 138v59q-24 -49 -65 -74q-38 -23 -98 -23q-104 0 -161 64q-67 73 -67 204q0 139 67 209q58 59 156 59q65 0 108 -28q40 -25 62 -67h2v75h65v-484q0 -107 -56 -162t-163 -55q-116 0 -168 52q-33 33 -42 79z
M291 42q59 0 99 40q26 24 40 70t16 69.5t2 43.5q0 114 -51 168q-45 45 -115 45q-65 0 -105 -42q-51 -51 -51 -168q0 -123 54 -180q46 -46 111 -46z" />
    <glyph glyph-name="h" unicode="h" horiz-adv-x="566" 
d="M79 700h69v-266q21 38 62 64q47 30 109 30q81 0 125 -44q20 -20 30 -46.5t11.5 -45.5t1.5 -49v-343h-69v316v31q0 67 -29 98q-30 33 -83 33q-67 0 -111 -46q-47 -50 -47 -148v-284h-69v700z" />
    <glyph glyph-name="i" unicode="i" horiz-adv-x="223" 
d="M77 508h69v-508h-69v508zM76 616v84h71v-84h-71z" />
    <glyph glyph-name="j" unicode="j" horiz-adv-x="227" 
d="M81 508h69v-556q0 -83 -29 -112q-28 -28 -90 -28q-19 0 -38 3v51h4q44 0 64 16q20 18 20 73v553zM79 616v84h72v-84h-72z" />
    <glyph glyph-name="k" unicode="k" horiz-adv-x="510" 
d="M148 255l260 253h83l-201 -195l220 -313h-80l-189 270l-93 -91v-179h-69v700h69v-445z" />
    <glyph glyph-name="l" unicode="l" horiz-adv-x="227" 
d="M79 700h69v-700h-69v700z" />
    <glyph glyph-name="m" unicode="m" horiz-adv-x="859" 
d="M79 508h69v-73q21 38 57 64q41 29 99 29q56 0 95 -29q36 -29 49 -77q18 40 58 71q47 35 111 35q73 0 116 -43q47 -47 47 -143v-342h-69v328q0 90 -37 124q-31 26 -73 26q-56 0 -93 -37q-44 -44 -44 -132v-309h-69v327q0 86 -36 124q-27 27 -70 27q-51 0 -89 -36
q-52 -48 -52 -136v-306h-69v508z" />
    <glyph glyph-name="n" unicode="n" horiz-adv-x="567" 
d="M79 508h69v-74q25 40 70 67q47 27 100 27q80 0 124 -44q46 -46 46 -141v-343h-69v333q0 88 -37 119q-31 26 -78 26q-60 0 -104 -41q-52 -52 -52 -153v-284h-69v508z" />
    <glyph glyph-name="o" unicode="o" horiz-adv-x="592" 
d="M296 528q103 0 166 -59q77 -73 77 -215q0 -143 -81 -218q-61 -56 -161 -56q-106 0 -164 56q-33 28 -56.5 83t-23.5 135q0 138 77 215q59 59 166 59zM296 479q-71 0 -113 -42q-58 -58 -58 -182q0 -128 62 -186q43 -39 109 -39q68 0 108 38q62 57 62 187q0 119 -53 177
q-45 47 -117 47z" />
    <glyph glyph-name="p" unicode="p" horiz-adv-x="595" 
d="M79 508h66v-75h2q24 36 63 65q46 30 108 30q91 0 150 -55q74 -74 74 -214q0 -127 -56.5 -203t-159.5 -76q-67 0 -113 28q-40 25 -65 70v-263h-69v693zM144 252q0 -117 58 -175q45 -47 113 -47q57 0 98 41q57 60 57 186q0 122 -60 182q-39 39 -102 39q-58 0 -103 -40
q-61 -55 -61 -186z" />
    <glyph glyph-name="q" unicode="q" horiz-adv-x="595" 
d="M477 508h65v-693h-69v263q-26 -48 -68 -72q-44 -26 -106 -26q-92 0 -148 58q-72 75 -72 225q0 135 73 208q59 57 149 57q67 0 110 -28q41 -27 63 -67h3v75zM151 252q0 -125 61 -184q40 -38 100 -38q55 0 100 40q66 63 66 191q0 122 -59 179q-42 38 -108 38q-57 0 -99 -38
q-61 -57 -61 -188z" />
    <glyph glyph-name="r" unicode="r" horiz-adv-x="343" 
d="M343 518v-56h-10q-90 0 -135 -48q-30 -30 -40 -65.5t-10 -86.5v-262h-69v508h69v-101h2q19 48 63 79q47 32 119 32h11z" />
    <glyph glyph-name="s" unicode="s" horiz-adv-x="495" 
d="M40 148h70q0 -51 35 -84q34 -34 110 -34q62 0 95 27q34 28 34 79q0 36 -27 59q-21 19 -84 33l-56 12q-95 22 -124 51q-34 34 -34 88q0 75 63 119q46 30 126 30q97 0 150 -50q42 -40 43 -102h-67q0 44 -28 72q-32 30 -99 30q-63 0 -93 -30q-23 -23 -23 -62q0 -35 26 -58
q22 -18 81 -33l53 -12q5 -1 18.5 -4.5t19 -5t17 -5t18.5 -6t16 -6t16.5 -8t13.5 -9.5q45 -33 45 -97q0 -83 -60 -126q-48 -36 -143 -36q-109 0 -163 54q-41 44 -49 114z" />
    <glyph glyph-name="t" unicode="t" horiz-adv-x="292" 
d="M6 508h95v152h69v-152h109v-50h-109v-368q0 -26 10 -38q12 -13 40 -13q27 0 59 11v-50q-36 -14 -80 -14q-56 0 -76 25q-22 25 -22 78v369h-95v50z" />
    <glyph glyph-name="u" unicode="u" horiz-adv-x="567" 
d="M488 0h-69v73h-2q-28 -46 -66 -67q-42 -26 -110 -26q-75 0 -118 43q-44 43 -44 142v343h69v-316q0 -50 6 -80.5t27 -51.5q30 -30 80 -30q66 0 113 48q45 48 45 146v284h69v-508z" />
    <glyph glyph-name="v" unicode="v" horiz-adv-x="458" 
d="M229 70l153 438h76l-189 -508h-80l-189 508h75z" />
    <glyph glyph-name="w" unicode="w" horiz-adv-x="711" 
d="M355 428l-115 -428h-77l-157 508h72l126 -428l116 428h71l116 -428l126 428h72l-157 -508h-77z" />
    <glyph glyph-name="x" unicode="x" horiz-adv-x="463" 
d="M231 310l137 198h79l-175 -243l191 -265h-81l-151 221l-151 -221h-80l191 265l-175 243h78z" />
    <glyph glyph-name="y" unicode="y" horiz-adv-x="479" 
d="M89 -184v52q15 -4 39 -4q32 0 49 15q16 14 29 56l21 65l-214 508h83l168 -431l146 431h69l-209 -585q-25 -68 -45 -86q-28 -26 -80 -26q-28 0 -56 5z" />
    <glyph glyph-name="z" unicode="z" horiz-adv-x="456" 
d="M48 508h367v-52l-305 -406h320v-50h-404v49l315 409h-293v50z" />
    <glyph glyph-name="braceleft" unicode="{" horiz-adv-x="366" 
d="M75 229v56q34 4 55 23q34 30 34 112q0 19 -2 59q-2 38 -2 53q0 82 44 126q36 36 112 42v-45q-38 -5 -60 -27q-27 -27 -27 -83q0 -5 2 -47q3 -28 3 -64q0 -69 -30 -115q-27 -42 -77 -61v-2q50 -19 77 -61q30 -44 30 -114q0 -37 -3 -65q-2 -42 -2 -47q0 -56 27 -83
q22 -22 60 -27v-45q-76 6 -112 42q-44 44 -44 126q0 15 2 53q2 40 2 59q0 82 -34 112q-21 19 -55 23z" />
    <glyph glyph-name="bar" unicode="|" horiz-adv-x="466" 
d="M208 -224v1053h50v-1053h-50z" />
    <glyph glyph-name="braceright" unicode="}" horiz-adv-x="366" 
d="M291 285v-56q-34 -4 -55 -23q-34 -30 -34 -112q0 -19 2 -59q2 -38 2 -53q0 -82 -44 -126q-36 -36 -112 -42v45q38 5 60 27q27 27 27 83q0 5 -2 47q-3 28 -3 65q0 70 30 114q27 42 77 61v2q-50 19 -77 61q-30 46 -30 115q0 36 3 64q2 42 2 47q0 56 -27 83q-22 22 -60 27
v45q76 -6 112 -42q44 -44 44 -126q0 -15 -2 -53q-2 -40 -2 -59q0 -82 34 -112q21 -19 55 -23z" />
    <glyph glyph-name="asciitilde" unicode="~" horiz-adv-x="591" 
d="M84 294l-34 14q17 52 48 83q37 37 87 37q35 0 79 -23l96 -51q32 -17 56 -17q41 0 65 33q20 25 25 46l35 -14q-18 -50 -50 -84q-35 -36 -81 -36q-39 0 -83 23l-98 53q-28 15 -56 15q-34 0 -55 -23q-21 -21 -34 -56z" />
    <glyph glyph-name="Zcaron" horiz-adv-x="581" 
d="M49 700h487v-62l-422 -575h441v-63h-529v69l426 568h-403v63zM108 900h74l109 -112l108 112h74l-121 -140h-123z" />
    <glyph glyph-name="Zcaron" unicode="&#x17d;" horiz-adv-x="581" 
d="M49 700h487v-62l-422 -575h441v-63h-529v69l426 568h-403v63zM108 900h74l109 -112l108 112h74l-121 -140h-123z" />
    <glyph glyph-name="zcaron" horiz-adv-x="456" 
d="M48 508h367v-52l-305 -406h320v-50h-404v49l315 409h-293v50zM294 568h-115l-119 132h68l108 -105l109 105h68z" />
    <glyph glyph-name="zcaron" unicode="&#x17e;" horiz-adv-x="456" 
d="M48 508h367v-52l-305 -406h320v-50h-404v49l315 409h-293v50zM294 568h-115l-119 132h68l108 -105l109 105h68z" />
    <glyph glyph-name="uni00A0" unicode="&#xa0;" horiz-adv-x="233" 
 />
    <glyph glyph-name="exclamdown" unicode="&#xa1;" horiz-adv-x="300" 
d="M190 -185h-79v282l19 224h40l20 -224v-282zM190 508v-94h-80v94h80z" />
    <glyph glyph-name="cent" unicode="&#xa2;" 
d="M456 178h66q-7 -69 -42 -120q-51 -73 -149 -78v-72h-45v72q-103 4 -164 84q-54 73 -54 194q0 135 65 204q55 62 153 66v66h45v-66q77 -5 127 -51q51 -51 59 -122h-66q-5 47 -35 80q-30 34 -85 43v-448q60 9 95 58q25 38 30 90zM286 31v446q-54 -4 -89 -39
q-56 -56 -56 -177q0 -86 29 -145q37 -70 116 -85z" />
    <glyph glyph-name="sterling" unicode="&#xa3;" 
d="M499 86l33 -46q-54 -61 -123 -61q-34 0 -99 25q-61 26 -106 26q-60 0 -109 -38l-37 52q56 39 74 70q31 43 31 101q0 51 -21 94h-98v50h75q-41 81 -41 149q0 97 56 153q60 60 173 60q105 0 163 -59q56 -57 56 -170h-73v7q0 88 -41 129q-38 38 -110 38q-73 0 -112 -41
q-39 -43 -39 -106q0 -69 47 -160h159v-50h-139q15 -39 15 -83q0 -50 -24 -92q-20 -34 -43 -54l2 -4q33 12 69 12q41 0 98 -24q44 -20 77 -20q45 0 87 42z" />
    <glyph glyph-name="currency" unicode="&#xa4;" horiz-adv-x="699" 
d="M57 86l87 87q-53 69 -53 157q0 93 53 157l-87 88l46 46l87 -88q67 56 159 56q94 0 159 -56l88 88l46 -46l-87 -88q53 -69 53 -154q0 -88 -53 -160l87 -87l-46 -47l-88 88q-68 -55 -157 -55q-97 0 -161 55l-87 -88zM146 330q0 -84 59 -143q59 -61 144 -61t144 59
q60 60 60 146q0 84 -60 144q-59 59 -144 59q-83 0 -144 -61q-59 -59 -59 -143z" />
    <glyph glyph-name="yen" unicode="&#xa5;" 
d="M287 366l200 334h89l-252 -401v-21h115v-41h-115v-64h115v-41h-115v-132h-74v132h-115v41h115v64h-115v41h115v21l-250 401h89z" />
    <glyph glyph-name="brokenbar" unicode="&#xa6;" horiz-adv-x="466" 
d="M208 206h50v-430h-50v430zM258 399h-50v430h50v-430z" />
    <glyph glyph-name="section" unicode="&#xa7;" horiz-adv-x="554" 
d="M435 559h-61q-2 63 -23 85q-24 26 -77 26q-46 0 -66 -20q-21 -21 -21 -57q0 -37 27 -63q12 -11 27.5 -19.5t41 -19t36.5 -15.5l45 -20q65 -29 95 -59q42 -45 42 -113q0 -71 -44 -119q-34 -36 -83 -51q29 -10 48 -39q18 -28 18 -69q0 -63 -39 -102q-43 -45 -122 -45
q-86 0 -129 43q-21 21 -34 57t-12 74h61q-2 -61 27 -90q27 -28 82 -28q51 0 76 25q22 22 22 59q0 36 -23 59q-8 8 -20 15.5t-20 11t-31 12.5t-33 13l-49 20q-59 24 -97 62q-46 46 -46 118q0 68 45 116q30 33 82 51q-21 12 -39 36q-23 32 -23 73q0 58 35 96q42 44 121 44
q81 0 122 -41q39 -39 39 -126zM318 144q47 12 79 44q34 35 34 90q0 52 -33 85q-36 36 -165 82q-51 -13 -81 -43q-30 -31 -30 -83q0 -44 25 -78q32 -48 171 -97z" />
    <glyph glyph-name="dieresis" unicode="&#xa8;" horiz-adv-x="374" 
d="M50 616v84h72v-84h-72zM253 616v84h71v-84h-71z" />
    <glyph glyph-name="copyright" unicode="&#xa9;" horiz-adv-x="800" 
d="M491 297h57q-10 -63 -50 -96q-36 -29 -94 -29q-77 0 -119 45q-47 47 -47 139q0 93 47 140q43 43 113 43q69 0 107 -35q32 -28 36 -80h-55q0 29 -20 49q-21 23 -66 23q-43 0 -69 -26q-35 -35 -35 -114q0 -74 36 -112q29 -29 75 -29q37 0 61 25q18 21 23 57zM400 700
q69 0 133.5 -27t110.5 -71q47 -47 76.5 -113t29.5 -139q0 -150 -110 -254q-100 -96 -240 -96q-139 0 -240 95q-110 102 -110 257q0 146 110 253q101 95 240 95zM400 657q-115 0 -200 -80q-44 -43 -69.5 -103t-25.5 -125q0 -133 95 -224q83 -82 200 -82t199 79
q45 42 70.5 103t25.5 125t-25.5 124t-69.5 103q-85 80 -200 80z" />
    <glyph glyph-name="ordfeminine" unicode="&#xaa;" horiz-adv-x="358" 
d="M98 619h-44q0 43 27 70q32 32 96 32q57 0 84 -21q38 -27 36 -82l-3 -144q0 -26 7 -31q6 -5 22 -5h3v-34q-14 -2 -24 -2q-27 0 -38 11q-10 9 -12 33q-14 -22 -39 -37q-31 -16 -70 -16q-51 0 -76 25t-25 66q0 36 25 61q25 23 87 30l35 4q5 1 14 2t14.5 1.5t12 3t10.5 6.5
q10 10 10 29q0 32 -17 48q-19 18 -59 18q-37 0 -55 -15q-21 -19 -21 -53zM248 534l1 27q-6 -5 -23 -11q-5 -1 -72 -8q-36 -6 -49 -19q-15 -17 -15 -40q0 -25 15 -40q16 -16 48 -16q42 0 67 26q26 28 28 81zM37 323v31h289v-31h-289z" />
    <glyph glyph-name="guillemotleft" unicode="&#xab;" horiz-adv-x="462" 
d="M99 273l112 -95v-68l-149 131v65l149 131v-68zM275 273l112 -95v-68l-149 131v65l149 131v-68z" />
    <glyph glyph-name="logicalnot" unicode="&#xac;" horiz-adv-x="600" 
d="M50 375h500v-188h-48v140h-452v48z" />
    <glyph glyph-name="uni00AD" unicode="&#xad;" horiz-adv-x="404" 
d="M70 227v79h264v-79h-264z" />
    <glyph glyph-name="registered" unicode="&#xae;" horiz-adv-x="800" 
d="M272 178v350h153q60 0 91 -28q26 -26 26 -69q0 -33 -19 -58q-15 -19 -40 -28v-2q18 -4 31 -17q16 -16 18 -58l2 -43q2 -28 13 -47h-58q-9 13 -11 41l-2 39q-2 35 -14 48q-16 17 -52 17h-82v-145h-56zM328 486v-121h84q39 0 57 19q16 16 16 44q0 23 -14 39q-19 19 -62 19
h-81zM105 349q0 -133 95 -224q83 -82 200 -82t199 79q45 42 70.5 103t25.5 125t-25.5 124t-69.5 103q-85 80 -200 80t-200 -80q-44 -43 -69.5 -103t-25.5 -125zM50 352q0 146 110 253q101 95 240 95q69 0 133.5 -27t110.5 -71q47 -47 76.5 -113t29.5 -139q0 -150 -110 -254
q-100 -96 -240 -96q-139 0 -240 95q-110 102 -110 257z" />
    <glyph glyph-name="overscore" unicode="&#xaf;" horiz-adv-x="409" 
d="M50 620v46h309v-46h-309z" />
    <glyph glyph-name="degree" unicode="&#xb0;" horiz-adv-x="264" 
d="M76 605q0 -23 16.5 -39.5t39.5 -16.5t39.5 16.5t16.5 39.5t-16.5 39.5t-39.5 16.5t-39.5 -16.5t-16.5 -39.5zM37 605q0 39 28 67t67 28t67 -28t28 -67t-28 -67t-67 -28t-67 28t-28 67z" />
    <glyph glyph-name="plusminus" unicode="&#xb1;" horiz-adv-x="600" 
d="M50 444h226v206h48v-206h226v-48h-226v-186h-48v186h-226v48zM50 128h500v-48h-500v48z" />
    <glyph glyph-name="twosuperior" unicode="&#xb2;" horiz-adv-x="371" 
d="M324 322v-42h-277q0 75 50 125q22 22 88 66q47 33 56 42q30 29 30 75q0 40 -22 62q-21 21 -66 21q-40 0 -62 -23q-21 -22 -21 -73v-5h-51v4q0 66 37 103q36 36 104 36q64 0 100 -36q34 -34 34 -87q0 -62 -44 -105q-20 -20 -90 -66q-50 -34 -62 -46q-20 -22 -25 -51h221z
" />
    <glyph glyph-name="threesuperior" unicode="&#xb3;" horiz-adv-x="370" 
d="M42 404h50q0 -42 25 -70q25 -25 65 -25q44 0 66 20q27 23 27 70q0 37 -20 57q-22 22 -66 22h-32v42h23q43 0 65 22q19 19 19 55q0 35 -20 55q-19 19 -55 19q-43 0 -65 -22q-21 -21 -23 -73h-49q0 66 34 102q35 35 99 35t98 -34q31 -29 31 -79q0 -46 -28 -73
q-15 -15 -39 -23v-3q31 -4 52 -25q28 -28 28 -77q0 -59 -36 -95q-37 -37 -108 -37q-68 0 -105 37q-31 31 -36 100z" />
    <glyph glyph-name="acute" unicode="&#xb4;" horiz-adv-x="292" 
d="M164 700h86l-95 -132h-61z" />
    <glyph glyph-name="mu" unicode="&#xb5;" horiz-adv-x="569" 
d="M147 56v-241h-68v693h68v-299q0 -47 8.5 -77t33.5 -56q38 -38 89 -38q50 0 86 36q27 27 35 57.5t8 78.5v298h69v-398q0 -41 12 -52q14 -13 41 -8v-50q-21 -4 -43 -4q-41 0 -59 18q-20 20 -20 52q-19 -38 -48 -60q-33 -26 -83 -26q-44 0 -78 23q-32 23 -51 53z" />
    <glyph glyph-name="mu" unicode="&#x3bc;" horiz-adv-x="569" 
d="M147 56v-241h-68v693h68v-299q0 -47 8.5 -77t33.5 -56q38 -38 89 -38q50 0 86 36q27 27 35 57.5t8 78.5v298h69v-398q0 -41 12 -52q14 -13 41 -8v-50q-21 -4 -43 -4q-41 0 -59 18q-20 20 -20 52q-19 -38 -48 -60q-33 -26 -83 -26q-44 0 -78 23q-32 23 -51 53z" />
    <glyph glyph-name="paragraph" unicode="&#xb6;" horiz-adv-x="452" 
d="M196 -185v572q-76 4 -118 52q-38 40 -38 105q0 69 43 112q44 44 124 44h40v-885h-51zM334 -185v885h51v-885h-51z" />
    <glyph glyph-name="middot" unicode="&#xb7;" horiz-adv-x="300" 
d="M110 220v95h80v-95h-80z" />
    <glyph glyph-name="cedilla" unicode="&#xb8;" horiz-adv-x="298" 
d="M43 -232l14 45q23 -8 58 -8q58 0 75 18q11 11 11 31q0 21 -13 30q-18 16 -72 16h-31l12 42h28q86 0 116 -30q21 -21 21 -53q0 -44 -25 -69q-30 -30 -111 -30q-40 0 -83 8z" />
    <glyph glyph-name="onesuperior" unicode="&#xb9;" horiz-adv-x="367" 
d="M80 600v25h6q48 0 72 20q27 20 34 55h35v-420h-52v320h-95z" />
    <glyph glyph-name="ordmasculine" unicode="&#xba;" horiz-adv-x="386" 
d="M43 323v31h300v-31h-300zM193 687q-42 0 -65 -22q-36 -31 -36 -108q0 -76 34 -107q24 -24 67 -24t67 24q34 31 34 107q0 77 -36 108q-23 22 -65 22zM193 392q-64 0 -100 33q-50 46 -50 133q0 85 47 127q38 36 103 36t103 -36q47 -42 47 -127q0 -87 -50 -133
q-36 -33 -100 -33z" />
    <glyph glyph-name="guillemotright" unicode="&#xbb;" horiz-adv-x="462" 
d="M364 273l-113 96v68l149 -131v-65l-149 -131v68zM188 273l-113 96v68l149 -131v-65l-149 -131v68z" />
    <glyph glyph-name="onequarter" unicode="&#xbc;" horiz-adv-x="780" 
d="M639 95h-192v35l190 290h46v-290h69v-35h-69v-95h-44v95zM489 130h150v229zM160 0l464 700h36l-464 -700h-36zM80 606v19h10q40 0 67 20t34 55h29v-420h-46v326h-94z" />
    <glyph glyph-name="onehalf" unicode="&#xbd;" horiz-adv-x="780" 
d="M80 606v19h10q40 0 67 20t34 55h29v-420h-46v326h-94zM733 35v-35h-266q1 78 53 130q23 23 62 49l18 12q44 28 63 53q23 29 23 69t-23 63q-22 22 -65 22q-39 0 -61 -23q-22 -25 -22 -72v-7h-44v7q0 59 31 92q32 38 95 38t102 -35q33 -30 33 -85q0 -64 -43 -107
q-15 -15 -71 -54l-19 -13q-42 -28 -62 -52q-18 -22 -22 -52h218zM120 0l464 700h36l-464 -700h-36z" />
    <glyph glyph-name="threequarters" unicode="&#xbe;" horiz-adv-x="780" 
d="M42 398h44q0 -50 30 -76q21 -20 62 -20t66 23q27 27 27 72q0 46 -22 64q-21 21 -65 21h-33v35h17q47 0 68 19q24 20 24 61q0 38 -22 60q-21 21 -60 21q-41 0 -62 -25q-20 -25 -21 -71h-44q2 66 36 100q31 31 91 31q64 0 96 -32q30 -30 30 -80q0 -44 -22 -70
q-15 -20 -42 -27v-2q29 -4 49 -24q28 -28 28 -79q0 -58 -34 -92q-40 -40 -107 -40q-65 0 -98 33q-34 34 -36 98zM639 95h-192v35l190 290h46v-290h69v-35h-69v-95h-44v95zM489 130h150v229zM180 0l464 700h36l-464 -700h-36z" />
    <glyph glyph-name="questiondown" unicode="&#xbf;" horiz-adv-x="558" 
d="M322 508v-94h-80v94h80zM421 20h71q4 -112 -58 -174q-55 -55 -160 -55q-100 0 -157 53q-51 44 -51 130q0 87 66 146l42 38q49 45 61 65q18 30 18 73v20h58v-17q0 -62 -19 -97q-18 -32 -54 -66l-39 -36q-62 -55 -62 -129q0 -50 35 -85q36 -36 104 -36q66 0 101 34
q48 40 44 136z" />
    <glyph glyph-name="Agrave" unicode="&#xc0;" horiz-adv-x="621" 
d="M158 201l-75 -201h-80l266 700h83l266 -700h-81l-74 201h-305zM179 264h262l-131 365zM284 900l73 -140h-65l-100 140h92z" />
    <glyph glyph-name="Aacute" unicode="&#xc1;" horiz-adv-x="621" 
d="M158 201l-75 -201h-80l266 700h83l266 -700h-81l-74 201h-305zM179 264h262l-131 365zM336 900h92l-99 -140h-65z" />
    <glyph glyph-name="Acircumflex" unicode="&#xc2;" horiz-adv-x="621" 
d="M158 201l-75 -201h-80l266 700h83l266 -700h-81l-74 201h-305zM179 264h262l-131 365zM253 900h115l119 -132h-68l-109 105l-108 -105h-68z" />
    <glyph glyph-name="Atilde" unicode="&#xc3;" horiz-adv-x="621" 
d="M158 201l-75 -201h-80l266 700h83l266 -700h-81l-74 201h-305zM179 264h262l-131 365zM446 860h50q-14 -51 -40 -77q-25 -25 -61 -25q-45 0 -84 26l-24 16q-2 1 -6.5 4t-6.5 4.5t-6 3.5t-6.5 3t-7 2.5t-8 2t-8.5 1t-11 0.5q-23 0 -37 -14q-14 -17 -16 -39h-50q7 42 35 70
q30 30 72 30q39 0 74 -24l24 -17q30 -22 63 -22q19 0 32 13q17 16 22 42z" />
    <glyph glyph-name="Adieresis" unicode="&#xc4;" horiz-adv-x="621" 
d="M158 201l-75 -201h-80l266 700h83l266 -700h-81l-74 201h-305zM179 264h262l-131 365zM165 772v74h75v-74h-75zM369 772v74h75v-74h-75z" />
    <glyph glyph-name="Aring" unicode="&#xc5;" horiz-adv-x="621" 
d="M158 201l-75 -201h-80l266 700h83l266 -700h-81l-74 201h-305zM179 264h262l-131 365zM212 832q0 41 28.5 69.5t69.5 28.5t69.5 -28.5t28.5 -69.5t-28.5 -69.5t-69.5 -28.5t-69.5 28.5t-28.5 69.5zM248 832q0 -22 16.5 -42t45.5 -20q26 0 44 18t18 44t-18 44t-44 18
q-29 0 -45.5 -20t-16.5 -42z" />
    <glyph glyph-name="AE" unicode="&#xc6;" horiz-adv-x="971" 
d="M452 0v197h-255l-108 -197h-89l390 700h546v-63h-410v-243h374v-63h-374v-268h421v-63h-495zM452 260v377h-18l-204 -377h222z" />
    <glyph glyph-name="Ccedilla" unicode="&#xc7;" horiz-adv-x="733" 
d="M608 228h75q-13 -107 -81 -175q-74 -74 -211 -74q-144 0 -228 87q-97 101 -97 285q0 190 98 285q89 85 224 85q141 0 219 -74q62 -62 68 -157h-75q-5 64 -50 112q-54 56 -156 56q-105 0 -167 -61q-82 -81 -82 -235q0 -174 86 -257q63 -63 165 -63q92 0 151 55
q56 56 61 131zM273 -232l14 45q23 -8 58 -8q58 0 75 18q11 11 11 31q0 21 -13 30q-18 16 -72 16h-31l12 42h28q86 0 116 -30q21 -21 21 -53q0 -44 -25 -69q-30 -30 -111 -30q-40 0 -83 8z" />
    <glyph glyph-name="Egrave" unicode="&#xc8;" horiz-adv-x="611" 
d="M166 394h374v-63h-374v-268h421v-63h-495v700h483v-63h-409v-243zM319 900l73 -140h-65l-100 140h92z" />
    <glyph glyph-name="Eacute" unicode="&#xc9;" horiz-adv-x="611" 
d="M166 394h374v-63h-374v-268h421v-63h-495v700h483v-63h-409v-243zM351 900h92l-99 -140h-65z" />
    <glyph glyph-name="Ecircumflex" unicode="&#xca;" horiz-adv-x="611" 
d="M166 394h374v-63h-374v-268h421v-63h-495v700h483v-63h-409v-243zM279 900h115l119 -132h-68l-109 105l-108 -105h-68z" />
    <glyph glyph-name="Edieresis" unicode="&#xcb;" horiz-adv-x="611" 
d="M166 394h374v-63h-374v-268h421v-63h-495v700h483v-63h-409v-243zM200 772v74h75v-74h-75zM404 772v74h75v-74h-75z" />
    <glyph glyph-name="Igrave" unicode="&#xcc;" horiz-adv-x="258" 
d="M92 700h74v-700h-74v700zM104 900l73 -140h-65l-100 140h92z" />
    <glyph glyph-name="Iacute" unicode="&#xcd;" horiz-adv-x="258" 
d="M92 700h74v-700h-74v700zM153 900h92l-99 -140h-65z" />
    <glyph glyph-name="Icircumflex" unicode="&#xce;" horiz-adv-x="258" 
d="M92 700h74v-700h-74v700zM74 900h115l119 -132h-68l-109 105l-108 -105h-68z" />
    <glyph glyph-name="Idieresis" unicode="&#xcf;" horiz-adv-x="258" 
d="M92 700h74v-700h-74v700zM-7 772v74h75v-74h-75zM197 772v74h75v-74h-75z" />
    <glyph glyph-name="Eth" unicode="&#xd0;" horiz-adv-x="722" 
d="M93 700h246q69 0 126 -15t107 -62q97 -97 97 -271q0 -187 -99 -278q-80 -74 -241 -74h-236v372h-93v50h93v278zM167 637v-215h199v-50h-199v-309h139q29 0 49 1.5t51.5 7t59 19.5t50.5 37q73 73 73 222q0 151 -77 225q-62 62 -175 62h-170z" />
    <glyph glyph-name="Ntilde" unicode="&#xd1;" horiz-adv-x="736" 
d="M166 589v-589h-74v700h85l393 -589v589h74v-700h-84zM504 860h50q-14 -51 -40 -77q-25 -25 -61 -25q-45 0 -84 26l-24 16q-2 1 -6.5 4t-6.5 4.5t-6 3.5t-6.5 3t-7 2.5t-8 2t-8.5 1t-11 0.5q-23 0 -37 -14q-14 -17 -16 -39h-50q7 42 35 70q30 30 72 30q39 0 74 -24l24 -17
q30 -22 63 -22q19 0 32 13q17 16 22 42z" />
    <glyph glyph-name="Ograve" unicode="&#xd2;" horiz-adv-x="790" 
d="M392 721q140 0 226 -80q106 -99 106 -291q0 -194 -104 -292q-83 -79 -223 -79q-150 0 -231 81q-12 10 -25.5 29t-32 53.5t-30.5 89.5t-12 118q0 186 102 288q83 83 224 83zM396 658q-99 0 -163 -57q-89 -81 -89 -255q0 -157 78 -238q66 -66 174 -66q104 0 171 67
q79 79 79 239q0 170 -90 254q-61 56 -160 56zM378 900l73 -140h-65l-100 140h92z" />
    <glyph glyph-name="Oacute" unicode="&#xd3;" horiz-adv-x="790" 
d="M392 721q140 0 226 -80q106 -99 106 -291q0 -194 -104 -292q-83 -79 -223 -79q-150 0 -231 81q-12 10 -25.5 29t-32 53.5t-30.5 89.5t-12 118q0 186 102 288q83 83 224 83zM396 658q-99 0 -163 -57q-89 -81 -89 -255q0 -157 78 -238q66 -66 174 -66q104 0 171 67
q79 79 79 239q0 170 -90 254q-61 56 -160 56zM431 900h92l-99 -140h-65z" />
    <glyph glyph-name="Ocircumflex" unicode="&#xd4;" horiz-adv-x="790" 
d="M392 721q140 0 226 -80q106 -99 106 -291q0 -194 -104 -292q-83 -79 -223 -79q-150 0 -231 81q-12 10 -25.5 29t-32 53.5t-30.5 89.5t-12 118q0 186 102 288q83 83 224 83zM396 658q-99 0 -163 -57q-89 -81 -89 -255q0 -157 78 -238q66 -66 174 -66q104 0 171 67
q79 79 79 239q0 170 -90 254q-61 56 -160 56zM337 900h115l119 -132h-68l-109 105l-108 -105h-68z" />
    <glyph glyph-name="Otilde" unicode="&#xd5;" horiz-adv-x="790" 
d="M392 721q140 0 226 -80q106 -99 106 -291q0 -194 -104 -292q-83 -79 -223 -79q-150 0 -231 81q-12 10 -25.5 29t-32 53.5t-30.5 89.5t-12 118q0 186 102 288q83 83 224 83zM396 658q-99 0 -163 -57q-89 -81 -89 -255q0 -157 78 -238q66 -66 174 -66q104 0 171 67
q79 79 79 239q0 170 -90 254q-61 56 -160 56zM532 860h50q-14 -51 -40 -77q-25 -25 -61 -25q-45 0 -84 26l-24 16q-2 1 -6.5 4t-6.5 4.5t-6 3.5t-6.5 3t-7 2.5t-8 2t-8.5 1t-11 0.5q-23 0 -37 -14q-14 -17 -16 -39h-50q7 42 35 70q30 30 72 30q39 0 74 -24l24 -17
q30 -22 63 -22q19 0 32 13q17 16 22 42z" />
    <glyph glyph-name="Odieresis" unicode="&#xd6;" horiz-adv-x="790" 
d="M392 721q140 0 226 -80q106 -99 106 -291q0 -194 -104 -292q-83 -79 -223 -79q-150 0 -231 81q-12 10 -25.5 29t-32 53.5t-30.5 89.5t-12 118q0 186 102 288q83 83 224 83zM396 658q-99 0 -163 -57q-89 -81 -89 -255q0 -157 78 -238q66 -66 174 -66q104 0 171 67
q79 79 79 239q0 170 -90 254q-61 56 -160 56zM260 772v74h75v-74h-75zM464 772v74h75v-74h-75z" />
    <glyph glyph-name="multiply" unicode="&#xd7;" horiz-adv-x="614" 
d="M77 153l196 196l-196 196l34 34l196 -196l196 196l34 -34l-196 -196l196 -196l-34 -34l-196 196l-196 -196z" />
    <glyph glyph-name="Oslash" unicode="&#xd8;" horiz-adv-x="788" 
d="M40 -29l100 120q-75 101 -75 260q0 75 23 153.5t79 132.5q88 84 225 84q124 0 216 -71l81 97l40 -30l-86 -103q80 -102 80 -274q0 -184 -103 -282q-86 -79 -231 -79q-68 0 -118 17t-97 58l-96 -115zM189 149l373 447q-66 62 -166 62t-163 -58q-90 -82 -90 -244
q0 -113 46 -207zM594 556l-374 -447q72 -67 175 -67q105 0 169 64q81 81 81 252q0 109 -51 198z" />
    <glyph glyph-name="Ugrave" unicode="&#xd9;" horiz-adv-x="695" 
d="M79 700h74v-420q0 -39 2 -65t12.5 -59.5t30.5 -54.5q51 -56 150 -56t148 54q46 50 46 181v420h74v-428q0 -45 -3.5 -76.5t-20.5 -74.5t-49 -74q-68 -65 -196 -65q-130 0 -198 63q-70 66 -70 227v428zM319 900l73 -140h-65l-100 140h92z" />
    <glyph glyph-name="Uacute" unicode="&#xda;" horiz-adv-x="695" 
d="M79 700h74v-420q0 -39 2 -65t12.5 -59.5t30.5 -54.5q51 -56 150 -56t148 54q46 50 46 181v420h74v-428q0 -45 -3.5 -76.5t-20.5 -74.5t-49 -74q-68 -65 -196 -65q-130 0 -198 63q-70 66 -70 227v428zM371 900h92l-99 -140h-65z" />
    <glyph glyph-name="Ucircumflex" unicode="&#xdb;" horiz-adv-x="695" 
d="M79 700h74v-420q0 -39 2 -65t12.5 -59.5t30.5 -54.5q51 -56 150 -56t148 54q46 50 46 181v420h74v-428q0 -45 -3.5 -76.5t-20.5 -74.5t-49 -74q-68 -65 -196 -65q-130 0 -198 63q-70 66 -70 227v428zM289 900h115l119 -132h-68l-109 105l-108 -105h-68z" />
    <glyph glyph-name="Udieresis" unicode="&#xdc;" horiz-adv-x="695" 
d="M79 700h74v-420q0 -39 2 -65t12.5 -59.5t30.5 -54.5q51 -56 150 -56t148 54q46 50 46 181v420h74v-428q0 -45 -3.5 -76.5t-20.5 -74.5t-49 -74q-68 -65 -196 -65q-130 0 -198 63q-70 66 -70 227v428zM208 772v74h75v-74h-75zM412 772v74h75v-74h-75z" />
    <glyph glyph-name="Yacute" unicode="&#xdd;" horiz-adv-x="603" 
d="M302 366l209 334h88l-260 -401v-299h-74v299l-261 401h89zM331 900h92l-99 -140h-65z" />
    <glyph glyph-name="Thorn" unicode="&#xde;" horiz-adv-x="637" 
d="M92 700h74v-134h198q36 0 57 -1.5t54.5 -12.5t58.5 -32q63 -54 63 -154q0 -98 -57 -153q-58 -55 -178 -55h-196v-158h-74v700zM166 503v-282h183q90 0 126 31q46 36 46 111q0 77 -48 113q-36 27 -124 27h-183z" />
    <glyph glyph-name="germandbls" unicode="&#xdf;" horiz-adv-x="563" 
d="M79 0v459q0 44 2 70.5t14.5 63t36.5 62.5q51 53 151 53q90 0 136 -46q43 -43 43 -118q0 -59 -27 -97q-24 -37 -68 -49v-3q55 -12 92 -47q51 -50 51 -140q0 -103 -61 -162q-53 -53 -150 -53q-33 0 -73 7v52q27 -8 57 -8q75 0 112 39q44 44 44 127q0 76 -45 116
q-42 37 -141 37h-27v50l30 -1q62 -4 101 29q35 31 35 95q0 60 -31 91q-30 30 -85 30q-57 0 -89 -31q-25 -25 -32.5 -61t-7.5 -97v-468h-68z" />
    <glyph glyph-name="agrave" unicode="&#xe0;" horiz-adv-x="556" 
d="M134 362h-67q0 84 66 131q50 35 143 35q102 0 149 -47q43 -43 41 -119l-6 -253q0 -36 10 -47q17 -20 46 -12v-50q-12 -4 -37 -4q-40 0 -59 19q-24 24 -22 66q-26 -43 -66 -65q-49 -28 -119 -28q-83 0 -125 41q-42 39 -42 107q0 59 37 96q42 42 161 55l33 4q8 1 32 3.5
t36 4.5q30 5 40 15q12 13 12 49q0 58 -31 87q-32 28 -96 28q-73 0 -104 -31q-30 -30 -32 -85zM393 217l2 52q-13 -12 -40 -17q-32 -6 -90 -11l-20 -2q-76 -9 -103 -35q-24 -24 -24 -69q0 -42 26 -68q26 -29 80 -29q66 0 109 35q55 45 60 144zM263 700l70 -132h-60l-96 132
h86z" />
    <glyph glyph-name="aacute" unicode="&#xe1;" horiz-adv-x="556" 
d="M134 362h-67q0 84 66 131q50 35 143 35q102 0 149 -47q43 -43 41 -119l-6 -253q0 -36 10 -47q17 -20 46 -12v-50q-12 -4 -37 -4q-40 0 -59 19q-24 24 -22 66q-26 -43 -66 -65q-49 -28 -119 -28q-83 0 -125 41q-42 39 -42 107q0 59 37 96q42 42 161 55l33 4q8 1 32 3.5
t36 4.5q30 5 40 15q12 13 12 49q0 58 -31 87q-32 28 -96 28q-73 0 -104 -31q-30 -30 -32 -85zM393 217l2 52q-13 -12 -40 -17q-32 -6 -90 -11l-20 -2q-76 -9 -103 -35q-24 -24 -24 -69q0 -42 26 -68q26 -29 80 -29q66 0 109 35q55 45 60 144zM299 700h86l-95 -132h-61z" />
    <glyph glyph-name="acircumflex" unicode="&#xe2;" horiz-adv-x="556" 
d="M134 362h-67q0 84 66 131q50 35 143 35q102 0 149 -47q43 -43 41 -119l-6 -253q0 -36 10 -47q17 -20 46 -12v-50q-12 -4 -37 -4q-40 0 -59 19q-24 24 -22 66q-26 -43 -66 -65q-49 -28 -119 -28q-83 0 -125 41q-42 39 -42 107q0 59 37 96q42 42 161 55l33 4q8 1 32 3.5
t36 4.5q30 5 40 15q12 13 12 49q0 58 -31 87q-32 28 -96 28q-73 0 -104 -31q-30 -30 -32 -85zM393 217l2 52q-13 -12 -40 -17q-32 -6 -90 -11l-20 -2q-76 -9 -103 -35q-24 -24 -24 -69q0 -42 26 -68q26 -29 80 -29q66 0 109 35q55 45 60 144zM222 700h115l119 -132h-68
l-109 105l-108 -105h-68z" />
    <glyph glyph-name="atilde" unicode="&#xe3;" horiz-adv-x="556" 
d="M134 362h-67q0 84 66 131q50 35 143 35q102 0 149 -47q43 -43 41 -119l-6 -253q0 -36 10 -47q17 -20 46 -12v-50q-12 -4 -37 -4q-40 0 -59 19q-24 24 -22 66q-26 -43 -66 -65q-49 -28 -119 -28q-83 0 -125 41q-42 39 -42 107q0 59 37 96q42 42 161 55l33 4q8 1 32 3.5
t36 4.5q30 5 40 15q12 13 12 49q0 58 -31 87q-32 28 -96 28q-73 0 -104 -31q-30 -30 -32 -85zM393 217l2 52q-13 -12 -40 -17q-32 -6 -90 -11l-20 -2q-76 -9 -103 -35q-24 -24 -24 -69q0 -42 26 -68q26 -29 80 -29q66 0 109 35q55 45 60 144zM407 700h48q-15 -52 -40 -77
t-61 -25q-40 0 -79 26l-24 16q-33 21 -55 21q-23 0 -37 -14q-11 -12 -17 -39h-49q7 42 35 70q27 30 72 30q34 0 69 -24l24 -17q30 -22 58 -22q19 0 32 13q15 15 24 42z" />
    <glyph glyph-name="adieresis" unicode="&#xe4;" horiz-adv-x="556" 
d="M134 362h-67q0 84 66 131q50 35 143 35q102 0 149 -47q43 -43 41 -119l-6 -253q0 -36 10 -47q17 -20 46 -12v-50q-12 -4 -37 -4q-40 0 -59 19q-24 24 -22 66q-26 -43 -66 -65q-49 -28 -119 -28q-83 0 -125 41q-42 39 -42 107q0 59 37 96q42 42 161 55l33 4q8 1 32 3.5
t36 4.5q30 5 40 15q12 13 12 49q0 58 -31 87q-32 28 -96 28q-73 0 -104 -31q-30 -30 -32 -85zM393 217l2 52q-13 -12 -40 -17q-32 -6 -90 -11l-20 -2q-76 -9 -103 -35q-24 -24 -24 -69q0 -42 26 -68q26 -29 80 -29q66 0 109 35q55 45 60 144zM139 616v84h72v-84h-72z
M342 616v84h71v-84h-71z" />
    <glyph glyph-name="aring" unicode="&#xe5;" horiz-adv-x="556" 
d="M134 362h-67q0 84 66 131q50 35 143 35q102 0 149 -47q43 -43 41 -119l-6 -253q0 -36 10 -47q17 -20 46 -12v-50q-12 -4 -37 -4q-40 0 -59 19q-24 24 -22 66q-26 -43 -66 -65q-49 -28 -119 -28q-83 0 -125 41q-42 39 -42 107q0 59 37 96q42 42 161 55l33 4q8 1 32 3.5
t36 4.5q30 5 40 15q12 13 12 49q0 58 -31 87q-32 28 -96 28q-73 0 -104 -31q-30 -30 -32 -85zM393 217l2 52q-13 -12 -40 -17q-32 -6 -90 -11l-20 -2q-76 -9 -103 -35q-24 -24 -24 -69q0 -42 26 -68q26 -29 80 -29q66 0 109 35q55 45 60 144zM180 644q0 39 26.5 65.5
t65.5 26.5t65.5 -26.5t26.5 -65.5t-26.5 -65.5t-65.5 -26.5t-65.5 26.5t-26.5 65.5zM213 644q0 -24 16.5 -41.5t42.5 -17.5q24 0 41 17.5t17 41.5t-17 41.5t-41 17.5q-26 0 -42.5 -17.5t-16.5 -41.5z" />
    <glyph glyph-name="ae" unicode="&#xe6;" horiz-adv-x="916" 
d="M136 362h-67q0 92 76 137q47 29 128 29q76 0 118 -25q40 -23 60 -64q24 36 60 60q46 29 118 29q112 0 172 -62q36 -37 49 -88t13 -127v-10h-396q0 -105 55 -164q46 -47 118 -47q71 0 111 40q27 27 40 77h67q-18 -71 -58 -111q-56 -56 -161 -56q-84 0 -136 34
q-47 29 -74 88q-24 -53 -74 -86q-54 -33 -131 -33q-94 0 -138 43q-40 38 -40 107q0 60 38 98q29 28 67.5 39.5t97.5 17.5l38 4l30 2.5t31 3.5q33 8 41 17q10 14 10 54q0 53 -30 80q-31 29 -96 29q-61 0 -93 -22q-42 -29 -44 -94zM398 234v35q-10 -9 -30 -14q-24 -7 -62 -10
q-69 -6 -84 -9q-56 -9 -79 -32q-26 -26 -26 -66q0 -49 30 -77q28 -27 80 -27q78 0 125 49q46 48 46 151zM468 291h325q0 91 -48 144q-43 43 -110 43q-76 0 -119 -47q-41 -46 -48 -140z" />
    <glyph glyph-name="ccedilla" unicode="&#xe7;" horiz-adv-x="547" 
d="M441 178h66q-9 -91 -66 -148q-31 -31 -65.5 -40.5t-81.5 -9.5q-106 0 -164 56q-77 74 -77 223q0 133 65 203q58 66 172 66q100 0 155 -53q47 -47 57 -120h-66q-5 47 -35 80q-38 43 -106 43q-71 0 -116 -45q-53 -53 -53 -172q0 -127 61 -188q43 -43 108 -43t101 38
q40 43 45 110zM183 -232l14 45q23 -8 58 -8q58 0 75 18q11 11 11 31q0 21 -13 30q-18 16 -72 16h-31l12 42h28q86 0 116 -30q21 -21 21 -53q0 -44 -25 -69q-30 -30 -111 -30q-40 0 -83 8z" />
    <glyph glyph-name="egrave" unicode="&#xe8;" 
d="M451 147h66q-13 -62 -55 -108q-57 -59 -162 -59q-110 0 -172 59q-75 73 -75 217q0 138 70 208q64 64 172 64q104 0 162 -60q38 -39 50.5 -92t15.5 -135h-398q4 -108 54 -161q45 -50 124 -50q65 0 105 38q27 24 43 79zM294 478q-78 0 -122 -49q-47 -54 -47 -138h325
q0 35 -13 79t-36 67q-39 41 -107 41zM278 700l70 -132h-60l-96 132h86z" />
    <glyph glyph-name="eacute" unicode="&#xe9;" 
d="M451 147h66q-13 -62 -55 -108q-57 -59 -162 -59q-110 0 -172 59q-75 73 -75 217q0 138 70 208q64 64 172 64q104 0 162 -60q38 -39 50.5 -92t15.5 -135h-398q4 -108 54 -161q45 -50 124 -50q65 0 105 38q27 24 43 79zM294 478q-78 0 -122 -49q-47 -54 -47 -138h325
q0 35 -13 79t-36 67q-39 41 -107 41zM319 700h86l-95 -132h-61z" />
    <glyph glyph-name="ecircumflex" unicode="&#xea;" 
d="M451 147h66q-13 -62 -55 -108q-57 -59 -162 -59q-110 0 -172 59q-75 73 -75 217q0 138 70 208q64 64 172 64q104 0 162 -60q38 -39 50.5 -92t15.5 -135h-398q4 -108 54 -161q45 -50 124 -50q65 0 105 38q27 24 43 79zM294 478q-78 0 -122 -49q-47 -54 -47 -138h325
q0 35 -13 79t-36 67q-39 41 -107 41zM243 700h115l119 -132h-68l-109 105l-108 -105h-68z" />
    <glyph glyph-name="edieresis" unicode="&#xeb;" 
d="M451 147h66q-13 -62 -55 -108q-57 -59 -162 -59q-110 0 -172 59q-75 73 -75 217q0 138 70 208q64 64 172 64q104 0 162 -60q38 -39 50.5 -92t15.5 -135h-398q4 -108 54 -161q45 -50 124 -50q65 0 105 38q27 24 43 79zM294 478q-78 0 -122 -49q-47 -54 -47 -138h325
q0 35 -13 79t-36 67q-39 41 -107 41zM150 616v84h72v-84h-72zM353 616v84h71v-84h-71z" />
    <glyph glyph-name="igrave" unicode="&#xec;" horiz-adv-x="223" 
d="M79 508h70v-508h-70v508zM83 700l70 -132h-60l-96 132h86z" />
    <glyph glyph-name="iacute" unicode="&#xed;" horiz-adv-x="223" 
d="M79 508h70v-508h-70v508zM136 700h86l-95 -132h-61z" />
    <glyph glyph-name="icircumflex" unicode="&#xee;" horiz-adv-x="223" 
d="M79 508h70v-508h-70v508zM58 700h115l119 -132h-68l-109 105l-108 -105h-68z" />
    <glyph glyph-name="idieresis" unicode="&#xef;" horiz-adv-x="223" 
d="M79 508h70v-508h-70v508zM-21 616v84h72v-84h-72zM182 616v84h71v-84h-71z" />
    <glyph glyph-name="eth" unicode="&#xf0;" horiz-adv-x="597" 
d="M148 690l11 40q102 -17 173 -49l88 52l23 -28l-72 -43q51 -28 80 -57q93 -88 93 -281q0 -197 -84 -281q-63 -63 -171 -63q-100 0 -161 57q-75 69 -75 201q0 135 68 206q62 64 173 64q77 0 129 -36q46 -33 66 -88h2q-6 116 -86 196q-34 34 -79 54l-141 -87l-23 28l124 77
q-65 27 -138 38zM295 458q-69 0 -109 -39q-31 -29 -45.5 -79.5t-14.5 -100.5q0 -113 54 -167q42 -42 117 -42q76 0 119 43q55 55 55 174q0 113 -56 167q-44 44 -120 44z" />
    <glyph glyph-name="ntilde" unicode="&#xf1;" horiz-adv-x="567" 
d="M79 508h69v-74q25 40 70 67q47 27 100 27q80 0 124 -44q46 -46 46 -141v-343h-69v333q0 88 -37 119q-31 26 -78 26q-60 0 -104 -41q-52 -52 -52 -153v-284h-69v508zM429 700h48q-15 -52 -40 -77t-61 -25q-40 0 -79 26l-24 16q-33 21 -55 21q-23 0 -37 -14
q-11 -12 -17 -39h-49q7 42 35 70q27 30 72 30q34 0 69 -24l24 -17q30 -22 58 -22q19 0 32 13q15 15 24 42z" />
    <glyph glyph-name="ograve" unicode="&#xf2;" horiz-adv-x="592" 
d="M296 528q103 0 166 -59q77 -73 77 -215q0 -143 -81 -218q-61 -56 -161 -56q-106 0 -164 56q-33 28 -56.5 83t-23.5 135q0 138 77 215q59 59 166 59zM296 479q-71 0 -113 -42q-58 -58 -58 -182q0 -128 62 -186q43 -39 109 -39q68 0 108 38q62 57 62 187q0 119 -53 177
q-45 47 -117 47zM278 700l70 -132h-60l-96 132h86z" />
    <glyph glyph-name="oacute" unicode="&#xf3;" horiz-adv-x="592" 
d="M296 528q103 0 166 -59q77 -73 77 -215q0 -143 -81 -218q-61 -56 -161 -56q-106 0 -164 56q-33 28 -56.5 83t-23.5 135q0 138 77 215q59 59 166 59zM296 479q-71 0 -113 -42q-58 -58 -58 -182q0 -128 62 -186q43 -39 109 -39q68 0 108 38q62 57 62 187q0 119 -53 177
q-45 47 -117 47zM324 700h86l-95 -132h-61z" />
    <glyph glyph-name="ocircumflex" unicode="&#xf4;" horiz-adv-x="592" 
d="M296 528q103 0 166 -59q77 -73 77 -215q0 -143 -81 -218q-61 -56 -161 -56q-106 0 -164 56q-33 28 -56.5 83t-23.5 135q0 138 77 215q59 59 166 59zM296 479q-71 0 -113 -42q-58 -58 -58 -182q0 -128 62 -186q43 -39 109 -39q68 0 108 38q62 57 62 187q0 119 -53 177
q-45 47 -117 47zM241 700h115l119 -132h-68l-109 105l-108 -105h-68z" />
    <glyph glyph-name="otilde" unicode="&#xf5;" horiz-adv-x="592" 
d="M296 528q103 0 166 -59q77 -73 77 -215q0 -143 -81 -218q-61 -56 -161 -56q-106 0 -164 56q-33 28 -56.5 83t-23.5 135q0 138 77 215q59 59 166 59zM296 479q-71 0 -113 -42q-58 -58 -58 -182q0 -128 62 -186q43 -39 109 -39q68 0 108 38q62 57 62 187q0 119 -53 177
q-45 47 -117 47zM429 700h48q-15 -52 -40 -77t-61 -25q-40 0 -79 26l-24 16q-33 21 -55 21q-23 0 -37 -14q-11 -12 -17 -39h-49q7 42 35 70q27 30 72 30q34 0 69 -24l24 -17q30 -22 58 -22q19 0 32 13q15 15 24 42z" />
    <glyph glyph-name="odieresis" unicode="&#xf6;" horiz-adv-x="592" 
d="M296 528q103 0 166 -59q77 -73 77 -215q0 -143 -81 -218q-61 -56 -161 -56q-106 0 -164 56q-33 28 -56.5 83t-23.5 135q0 138 77 215q59 59 166 59zM296 479q-71 0 -113 -42q-58 -58 -58 -182q0 -128 62 -186q43 -39 109 -39q68 0 108 38q62 57 62 187q0 119 -53 177
q-45 47 -117 47zM158 616v84h72v-84h-72zM361 616v84h71v-84h-71z" />
    <glyph glyph-name="divide" unicode="&#xf7;" horiz-adv-x="600" 
d="M50 302v48h500v-48h-500zM300 205q23 0 38 -15t15 -38t-15 -38t-38 -15t-38 15t-15 38t15 38t38 15zM300 553q23 0 38 -15t15 -38t-15 -38t-38 -15t-38 15t-15 38t15 38t38 15z" />
    <glyph glyph-name="oslash" unicode="&#xf8;" horiz-adv-x="577" 
d="M40 -3l59 70q-53 78 -53 187q0 138 77 215q62 59 166 59q50 0 85.5 -11t70.5 -39l55 65l37 -32l-58 -69q53 -85 53 -188q0 -143 -81 -218q-61 -56 -161 -56q-95 0 -158 51l-55 -66zM144 120l262 312q-47 47 -117 47q-71 0 -113 -42q-58 -55 -58 -182q0 -74 26 -135z
M434 389l-262 -311q41 -48 117 -48q65 0 108 38q62 52 62 190q0 72 -25 131z" />
    <glyph glyph-name="ugrave" unicode="&#xf9;" horiz-adv-x="567" 
d="M488 0h-69v73h-2q-28 -46 -66 -67q-42 -26 -110 -26q-75 0 -118 43q-44 43 -44 142v343h69v-316q0 -50 6 -80.5t27 -51.5q30 -30 80 -30q66 0 113 48q45 48 45 146v284h69v-508zM258 700l70 -132h-60l-96 132h86z" />
    <glyph glyph-name="uacute" unicode="&#xfa;" horiz-adv-x="567" 
d="M488 0h-69v73h-2q-28 -46 -66 -67q-42 -26 -110 -26q-75 0 -118 43q-44 43 -44 142v343h69v-316q0 -50 6 -80.5t27 -51.5q30 -30 80 -30q66 0 113 48q45 48 45 146v284h69v-508zM301 700h86l-95 -132h-61z" />
    <glyph glyph-name="ucircumflex" unicode="&#xfb;" horiz-adv-x="567" 
d="M488 0h-69v73h-2q-28 -46 -66 -67q-42 -26 -110 -26q-75 0 -118 43q-44 43 -44 142v343h69v-316q0 -50 6 -80.5t27 -51.5q30 -30 80 -30q66 0 113 48q45 48 45 146v284h69v-508zM229 700h115l119 -132h-68l-109 105l-108 -105h-68z" />
    <glyph glyph-name="udieresis" unicode="&#xfc;" horiz-adv-x="567" 
d="M488 0h-69v73h-2q-28 -46 -66 -67q-42 -26 -110 -26q-75 0 -118 43q-44 43 -44 142v343h69v-316q0 -50 6 -80.5t27 -51.5q30 -30 80 -30q66 0 113 48q45 48 45 146v284h69v-508zM150 616v84h72v-84h-72zM353 616v84h71v-84h-71z" />
    <glyph glyph-name="yacute" unicode="&#xfd;" horiz-adv-x="479" 
d="M89 -184v52q15 -4 39 -4q32 0 49 15q16 14 29 56l21 65l-214 508h83l168 -431l146 431h69l-209 -585q-25 -68 -45 -86q-28 -26 -80 -26q-28 0 -56 5zM274 700h86l-95 -132h-61z" />
    <glyph glyph-name="thorn" unicode="&#xfe;" horiz-adv-x="595" 
d="M79 700h66v-267h2q24 36 63 65q46 30 108 30q91 0 150 -55q74 -74 74 -214q0 -127 -56.5 -203t-159.5 -76q-67 0 -113 28q-40 25 -65 70v-263h-69v885zM144 252q0 -117 58 -175q45 -47 113 -47q57 0 98 41q57 60 57 186q0 122 -60 182q-39 39 -102 39q-58 0 -103 -40
q-61 -55 -61 -186z" />
    <glyph glyph-name="ydieresis" unicode="&#xff;" horiz-adv-x="479" 
d="M89 -184v52q15 -4 39 -4q32 0 49 15q16 14 29 56l21 65l-214 508h83l168 -431l146 431h69l-209 -585q-25 -68 -45 -86q-28 -26 -80 -26q-28 0 -56 5zM115 616v84h72v-84h-72zM318 616v84h71v-84h-71z" />
    <glyph glyph-name="Amacron" unicode="&#x100;" horiz-adv-x="621" 
d="M158 201l-75 -201h-80l266 700h83l266 -700h-81l-74 201h-305zM179 264h262l-131 365zM156 778v49h309v-49h-309z" />
    <glyph glyph-name="amacron" unicode="&#x101;" horiz-adv-x="556" 
d="M134 362h-67q0 84 66 131q50 35 143 35q102 0 149 -47q43 -43 41 -119l-6 -253q0 -36 10 -47q17 -20 46 -12v-50q-12 -4 -37 -4q-40 0 -59 19q-24 24 -22 66q-26 -43 -66 -65q-49 -28 -119 -28q-83 0 -125 41q-42 39 -42 107q0 59 37 96q42 42 161 55l33 4q8 1 32 3.5
t36 4.5q30 5 40 15q12 13 12 49q0 58 -31 87q-32 28 -96 28q-73 0 -104 -31q-30 -30 -32 -85zM393 217l2 52q-13 -12 -40 -17q-32 -6 -90 -11l-20 -2q-76 -9 -103 -35q-24 -24 -24 -69q0 -42 26 -68q26 -29 80 -29q66 0 109 35q55 45 60 144zM118 620v46h309v-46h-309z" />
    <glyph glyph-name="Abreve" unicode="&#x102;" horiz-adv-x="621" 
d="M158 201l-75 -201h-80l266 700h83l266 -700h-81l-74 201h-305zM179 264h262l-131 365zM414 887h63q-9 -54 -41 -86q-46 -46 -123 -46q-83 0 -129 46q-32 34 -41 86h63q4 -36 24 -57q27 -28 80 -28t80 28q20 21 24 57z" />
    <glyph glyph-name="abreve" unicode="&#x103;" horiz-adv-x="556" 
d="M134 362h-67q0 84 66 131q50 35 143 35q102 0 149 -47q43 -43 41 -119l-6 -253q0 -36 10 -47q17 -20 46 -12v-50q-12 -4 -37 -4q-40 0 -59 19q-24 24 -22 66q-26 -43 -66 -65q-49 -28 -119 -28q-83 0 -125 41q-42 39 -42 107q0 59 37 96q42 42 161 55l33 4q8 1 32 3.5
t36 4.5q30 5 40 15q12 13 12 49q0 58 -31 87q-32 28 -96 28q-73 0 -104 -31q-30 -30 -32 -85zM393 217l2 52q-13 -12 -40 -17q-32 -6 -90 -11l-20 -2q-76 -9 -103 -35q-24 -24 -24 -69q0 -42 26 -68q26 -29 80 -29q66 0 109 35q55 45 60 144zM386 700h58q-7 -51 -41 -85
q-42 -40 -116 -40t-116 40q-34 34 -41 85h58q5 -37 27 -59q24 -23 72 -23t72 23q22 22 27 59z" />
    <glyph glyph-name="Aogonek" unicode="&#x104;" horiz-adv-x="621" 
d="M158 201l-75 -201h-80l266 700h83l266 -700q-33 -20 -52 -45q-22 -29 -22 -65q0 -28 16 -42q13 -13 39 -13q25 0 42 15q20 19 22 50h57q-4 -48 -38 -82q-35 -32 -91 -32q-55 0 -87 28q-29 25 -29 68q0 40 23 72q18 26 49 46h-10l-74 201h-305zM179 264h262l-131 365z" />
    <glyph glyph-name="aogonek" unicode="&#x105;" horiz-adv-x="556" 
d="M134 362h-67q0 84 66 131q50 35 143 35q102 0 149 -47q43 -43 41 -119l-6 -253q0 -37 11 -49q16 -18 45 -10v-50q-34 -22 -53 -46q-22 -29 -22 -64q0 -28 16 -42q13 -13 39 -13q25 0 42 15q20 19 22 50h57q-4 -48 -38 -82q-35 -32 -91 -32t-87 28q-29 25 -29 68
q0 40 23 72q18 26 49 46q-23 10 -35 32q-13 22 -11 49q-26 -41 -66 -65q-49 -28 -119 -28q-83 0 -125 41q-42 39 -42 107q0 59 37 96q42 42 161 55l33 4q8 1 32 3.5t36 4.5q30 5 40 15q12 13 12 49q0 58 -31 87q-32 28 -96 28q-73 0 -104 -31q-30 -30 -32 -85zM393 217l2 52
q-13 -12 -40 -17q-32 -6 -90 -11l-20 -2q-75 -7 -103 -35q-24 -24 -24 -65q0 -45 26 -72q29 -29 80 -29q68 0 109 35q55 45 60 144z" />
    <glyph glyph-name="Cacute" unicode="&#x106;" horiz-adv-x="733" 
d="M608 228h75q-13 -107 -81 -175q-74 -74 -211 -74q-144 0 -228 87q-97 101 -97 285q0 190 98 285q89 85 224 85q141 0 219 -74q62 -62 68 -157h-75q-5 64 -50 112q-54 56 -156 56q-105 0 -167 -61q-82 -81 -82 -235q0 -174 86 -257q63 -63 165 -63q92 0 151 55
q56 56 61 131zM426 900h92l-99 -140h-65z" />
    <glyph glyph-name="cacute" unicode="&#x107;" horiz-adv-x="547" 
d="M441 178h66q-9 -91 -66 -148q-31 -31 -65.5 -40.5t-81.5 -9.5q-106 0 -164 56q-77 74 -77 223q0 133 65 203q58 66 172 66q100 0 155 -53q47 -47 57 -120h-66q-5 47 -35 80q-38 43 -106 43q-71 0 -116 -45q-53 -53 -53 -172q0 -127 61 -188q43 -43 108 -43t101 38
q40 43 45 110zM324 700h86l-95 -132h-61z" />
    <glyph glyph-name="Ccircumflex" unicode="&#x108;" horiz-adv-x="733" 
d="M608 228h75q-13 -107 -81 -175q-74 -74 -211 -74q-144 0 -228 87q-97 101 -97 285q0 190 98 285q89 85 224 85q141 0 219 -74q62 -62 68 -157h-75q-5 64 -50 112q-54 56 -156 56q-105 0 -167 -61q-82 -81 -82 -235q0 -174 86 -257q63 -63 165 -63q92 0 151 55
q56 56 61 131zM339 900h115l119 -132h-68l-109 105l-108 -105h-68z" />
    <glyph glyph-name="ccircumflex" unicode="&#x109;" horiz-adv-x="547" 
d="M441 178h66q-9 -91 -66 -148q-31 -31 -65.5 -40.5t-81.5 -9.5q-106 0 -164 56q-77 74 -77 223q0 133 65 203q58 66 172 66q100 0 155 -53q47 -47 57 -120h-66q-5 47 -35 80q-38 43 -106 43q-71 0 -116 -45q-53 -53 -53 -172q0 -127 61 -188q43 -43 108 -43t101 38
q40 43 45 110zM239 700h115l119 -132h-68l-109 105l-108 -105h-68z" />
    <glyph glyph-name="Ccaron" unicode="&#x10c;" horiz-adv-x="733" 
d="M608 228h75q-13 -107 -81 -175q-74 -74 -211 -74q-144 0 -228 87q-97 101 -97 285q0 190 98 285q89 85 224 85q141 0 219 -74q62 -62 68 -157h-75q-5 64 -50 112q-54 56 -156 56q-105 0 -167 -61q-82 -81 -82 -235q0 -174 86 -257q63 -63 165 -63q92 0 151 55
q56 56 61 131zM210 900h74l109 -112l108 112h74l-121 -140h-123z" />
    <glyph glyph-name="ccaron" unicode="&#x10d;" horiz-adv-x="547" 
d="M441 178h66q-9 -91 -66 -148q-31 -31 -65.5 -40.5t-81.5 -9.5q-106 0 -164 56q-77 74 -77 223q0 133 65 203q58 66 172 66q100 0 155 -53q47 -47 57 -120h-66q-5 47 -35 80q-38 43 -106 43q-71 0 -116 -45q-53 -53 -53 -172q0 -127 61 -188q43 -43 108 -43t101 38
q40 43 45 110zM354 568h-115l-119 132h68l108 -105l109 105h68z" />
    <glyph glyph-name="Dcaron" unicode="&#x10e;" horiz-adv-x="720" 
d="M92 700h245q69 0 126 -15t107 -62q97 -97 97 -271q0 -187 -99 -278q-80 -74 -241 -74h-235v700zM166 637v-574h139q30 0 50 1.5t51.5 7t59 19.5t50.5 37q73 73 73 222q0 151 -77 225q-62 62 -176 62h-170zM150 900h74l109 -112l108 112h74l-121 -140h-123z" />
    <glyph glyph-name="dcaron" unicode="&#x10f;" horiz-adv-x="596" 
d="M448 700h69v-700h-66v75h-2q-19 -42 -60 -68q-43 -27 -111 -27q-95 0 -150 55q-75 73 -75 222q0 141 71 212q59 59 155 59q64 0 110 -29q37 -23 59 -65v266zM126 258q0 -126 54 -182q42 -46 107 -46q63 0 104 41q61 61 61 183q0 125 -63 185q-42 39 -103 39
q-58 0 -99 -36q-61 -56 -61 -184zM560 700h80v-115q0 -65 -29 -94q-19 -19 -51 -27v46q21 7 30 23q10 18 10 51v22h-40v94z" />
    <glyph glyph-name="Dcroat" unicode="&#x110;" horiz-adv-x="722" 
d="M93 700h246q69 0 126 -15t107 -62q97 -97 97 -271q0 -187 -99 -278q-80 -74 -241 -74h-236v372h-93v50h93v278zM167 637v-215h199v-50h-199v-309h139q29 0 49 1.5t51.5 7t59 19.5t50.5 37q73 73 73 222q0 151 -77 225q-62 62 -175 62h-170z" />
    <glyph glyph-name="dslash" unicode="&#x111;" horiz-adv-x="600" 
d="M448 700h69v-67h83v-46h-83v-587h-66v75h-2q-19 -42 -60 -68q-43 -27 -111 -27q-95 0 -150 55q-75 73 -75 222q0 141 71 212q59 59 157 59q64 0 108 -29q37 -23 59 -65v153h-182v46h182v67zM127 251q0 -118 54 -175q42 -46 107 -46q63 0 104 41q61 61 61 183
q0 125 -63 185q-42 39 -103 39q-58 0 -99 -36q-61 -56 -61 -191z" />
    <glyph glyph-name="Emacron" unicode="&#x112;" horiz-adv-x="611" 
d="M166 394h374v-63h-374v-268h421v-63h-495v700h483v-63h-409v-243zM185 778v49h309v-49h-309z" />
    <glyph glyph-name="emacron" unicode="&#x113;" 
d="M451 147h66q-13 -62 -55 -108q-57 -59 -162 -59q-110 0 -172 59q-75 73 -75 217q0 138 70 208q64 64 172 64q104 0 162 -60q38 -39 50.5 -92t15.5 -135h-398q4 -108 54 -161q45 -50 124 -50q65 0 105 38q27 24 43 79zM294 478q-78 0 -122 -49q-47 -54 -47 -138h325
q0 35 -13 79t-36 67q-39 41 -107 41zM139 620v46h309v-46h-309z" />
    <glyph glyph-name="Edotaccent" unicode="&#x116;" horiz-adv-x="611" 
d="M166 394h374v-63h-374v-268h421v-63h-495v700h483v-63h-409v-243zM300 772v74h75v-74h-75z" />
    <glyph glyph-name="edotaccent" unicode="&#x117;" 
d="M451 147h66q-13 -62 -55 -108q-57 -59 -162 -59q-110 0 -172 59q-75 73 -75 217q0 138 70 208q64 64 172 64q104 0 162 -60q38 -39 50.5 -92t15.5 -135h-398q4 -108 54 -161q45 -50 124 -50q65 0 105 38q27 24 43 79zM294 478q-78 0 -122 -49q-47 -54 -47 -138h325
q0 35 -13 79t-36 67q-39 41 -107 41zM260 616v84h74v-84h-74z" />
    <glyph glyph-name="Eogonek" unicode="&#x118;" horiz-adv-x="612" 
d="M166 394h374v-63h-374v-268h422v-63h-153q-33 -20 -52 -45q-22 -29 -22 -65q0 -28 16 -42q13 -13 39 -13q25 0 42 15q20 19 22 50h57q-4 -48 -38 -82q-35 -32 -91 -32t-87 28q-29 25 -29 68q0 40 23 72q18 26 49 46h-272v700h484v-63h-410v-243z" />
    <glyph glyph-name="eogonek" unicode="&#x119;" 
d="M451 147h66q-15 -68 -60 -113q-14 -13 -49 -38q-7 -6 -17 -12.5t-17 -11.5t-12 -10q-31 -31 -31 -72q0 -28 16 -42q13 -13 39 -13q25 0 42 15q20 19 22 50h57q-4 -48 -38 -82q-35 -32 -91 -32t-87 28q-29 25 -29 68q0 29 12 53q11 25 35 45q-63 -1 -104.5 11.5
t-76.5 47.5q-75 73 -75 217q0 138 70 208q64 64 172 64q104 0 162 -60q38 -39 50.5 -92t15.5 -135h-398q4 -108 54 -161q45 -50 124 -50q65 0 105 38q27 24 43 79zM294 478q-78 0 -122 -49q-47 -54 -47 -138h325q0 35 -13 79t-36 67q-39 41 -107 41z" />
    <glyph glyph-name="Ecaron" unicode="&#x11a;" horiz-adv-x="611" 
d="M166 394h374v-63h-374v-268h421v-63h-495v700h483v-63h-409v-243zM155 900h74l109 -112l108 112h74l-121 -140h-123z" />
    <glyph glyph-name="ecaron" unicode="&#x11b;" 
d="M451 147h66q-13 -62 -55 -108q-57 -59 -162 -59q-110 0 -172 59q-75 73 -75 217q0 138 70 208q64 64 172 64q104 0 162 -60q38 -39 50.5 -92t15.5 -135h-398q4 -108 54 -161q45 -50 124 -50q65 0 105 38q27 24 43 79zM294 478q-78 0 -122 -49q-47 -54 -47 -138h325
q0 35 -13 79t-36 67q-39 41 -107 41zM354 568h-115l-119 132h68l108 -105l109 105h68z" />
    <glyph glyph-name="Gcircumflex" unicode="&#x11c;" horiz-adv-x="747" 
d="M394 359h287v-359h-62v123h-2q-31 -63 -83 -101q-60 -43 -162 -43q-143 0 -222 84q-14 14 -27.5 33.5t-30.5 54.5t-28 88t-11 115q0 187 98 285q84 84 237 84q131 0 207 -70q61 -56 74 -154h-74q-11 67 -48 104q-55 57 -160 57q-120 0 -181 -68q-75 -78 -75 -239
q0 -155 80 -240q64 -71 173 -71q97 0 157 60q71 68 71 194h-218v63zM334 900h115l119 -132h-68l-109 105l-108 -105h-68z" />
    <glyph glyph-name="gcircumflex" unicode="&#x11d;" horiz-adv-x="592" 
d="M84 -62h69q10 -30 39 -55q34 -25 96 -25q73 0 109 34q47 42 47 138v59q-24 -49 -65 -74q-38 -23 -98 -23q-104 0 -161 64q-67 73 -67 204q0 139 67 209q58 59 156 59q65 0 108 -28q40 -25 62 -67h2v75h65v-484q0 -107 -56 -162t-163 -55q-116 0 -168 52q-33 33 -42 79z
M291 42q59 0 99 40q26 24 40 70t16 69.5t2 43.5q0 114 -51 168q-45 45 -115 45q-65 0 -105 -42q-51 -51 -51 -168q0 -123 54 -180q46 -46 111 -46zM229 700h115l119 -132h-68l-109 105l-108 -105h-68z" />
    <glyph glyph-name="Gbreve" unicode="&#x11e;" horiz-adv-x="747" 
d="M394 359h287v-359h-62v123h-2q-31 -63 -83 -101q-60 -43 -162 -43q-143 0 -222 84q-14 14 -27.5 33.5t-30.5 54.5t-28 88t-11 115q0 187 98 285q84 84 237 84q131 0 207 -70q61 -56 74 -154h-74q-11 67 -48 104q-55 57 -160 57q-120 0 -181 -68q-75 -78 -75 -239
q0 -155 80 -240q64 -71 173 -71q97 0 157 60q71 68 71 194h-218v63zM486 887h63q-9 -54 -41 -86q-46 -46 -123 -46q-83 0 -129 46q-32 34 -41 86h63q4 -36 24 -57q27 -28 80 -28t80 28q20 21 24 57z" />
    <glyph glyph-name="gbreve" unicode="&#x11f;" horiz-adv-x="592" 
d="M84 -62h69q10 -30 39 -55q34 -25 96 -25q73 0 109 34q47 42 47 138v59q-24 -49 -65 -74q-38 -23 -98 -23q-104 0 -161 64q-67 73 -67 204q0 139 67 209q58 59 156 59q65 0 108 -28q40 -25 62 -67h2v75h65v-484q0 -107 -56 -162t-163 -55q-116 0 -168 52q-33 33 -42 79z
M291 42q59 0 99 40q26 24 40 70t16 69.5t2 43.5q0 114 -51 168q-45 45 -115 45q-65 0 -105 -42q-51 -51 -51 -168q0 -123 54 -180q46 -46 111 -46zM376 700h58q-7 -51 -41 -85q-42 -40 -116 -40t-116 40q-34 34 -41 85h58q5 -37 27 -59q24 -23 72 -23t72 23q22 22 27 59z
" />
    <glyph glyph-name="Gcommaaccent" unicode="&#x122;" horiz-adv-x="747" 
d="M394 359h287v-359h-62v123h-2q-31 -63 -83 -101q-60 -43 -162 -43q-143 0 -222 84q-14 14 -27.5 33.5t-30.5 54.5t-28 88t-11 115q0 187 98 285q84 84 237 84q131 0 207 -70q61 -56 74 -154h-74q-11 67 -48 104q-55 57 -160 57q-120 0 -181 -68q-75 -78 -75 -239
q0 -155 80 -240q64 -71 173 -71q97 0 157 60q71 68 71 194h-218v63zM334 -60h79v-88q0 -53 -25 -78q-21 -21 -54 -25v46q17 3 27 13q13 13 13 39v12h-40v81z" />
    <glyph glyph-name="gcommaaccent" unicode="&#x123;" horiz-adv-x="592" 
d="M84 -62h69q10 -30 39 -55q34 -25 96 -25q73 0 109 34q47 42 47 138v59q-24 -49 -65 -74q-38 -23 -98 -23q-104 0 -161 64q-67 73 -67 204q0 139 67 209q58 59 156 59q65 0 108 -28q40 -25 62 -67h2v75h65v-484q0 -107 -56 -162t-163 -55q-116 0 -168 52q-33 33 -42 79z
M291 42q59 0 99 40q26 24 40 70t16 69.5t2 43.5q0 114 -51 168q-45 45 -115 45q-65 0 -105 -42q-51 -51 -51 -168q0 -123 54 -180q46 -46 111 -46zM315 560h-79v88q0 53 25 78q21 21 54 25v-46q-17 -3 -27 -13q-13 -13 -13 -39v-12h40v-81z" />
    <glyph glyph-name="Hcircumflex" unicode="&#x124;" horiz-adv-x="708" 
d="M166 338v-338h-74v700h74v-299h376v299h74v-700h-74v338h-376zM296 900h115l119 -132h-68l-109 105l-108 -105h-68z" />
    <glyph glyph-name="hcircumflex" unicode="&#x125;" horiz-adv-x="566" 
d="M79 700h69v-266q21 38 62 64q47 30 109 30q81 0 125 -44q20 -20 30 -46.5t11.5 -45.5t1.5 -49v-343h-69v316v31q0 67 -29 98q-30 33 -83 33q-67 0 -111 -46q-47 -50 -47 -148v-284h-69v700zM177 860h115l119 -132h-68l-109 105l-108 -105h-68z" />
    <glyph glyph-name="Imacron" unicode="&#x12a;" horiz-adv-x="258" 
d="M94 700h74v-700h-74v700zM-21 778v49h309v-49h-309z" />
    <glyph glyph-name="imacron" unicode="&#x12b;" horiz-adv-x="223" 
d="M79 508h70v-508h-70v508zM-38 620v46h309v-46h-309z" />
    <glyph glyph-name="Iogonek" unicode="&#x12e;" horiz-adv-x="243" 
d="M81 700h74v-700q-33 -20 -52 -45q-22 -29 -22 -65q0 -28 16 -42q13 -13 39 -13q25 0 42 15q20 19 22 50h57q-4 -48 -38 -82q-34 -32 -93 -32q-54 0 -85 28q-29 26 -29 70q0 38 23 70q18 26 49 46h-3v700z" />
    <glyph glyph-name="iogonek" unicode="&#x12f;" horiz-adv-x="213" 
d="M69 508h69v-508q-33 -20 -52 -45q-22 -29 -22 -65q0 -28 16 -42q13 -13 39 -13q25 0 42 15q20 19 22 50h57q-4 -48 -38 -82q-35 -32 -91 -32q-55 0 -87 28q-29 25 -29 70q0 37 23 70q20 28 51 46v508zM68 616v84h71v-84h-71z" />
    <glyph glyph-name="Idot" unicode="&#x130;" horiz-adv-x="258" 
d="M92 700h74v-700h-74v700zM90 772v74h75v-74h-75z" />
    <glyph glyph-name="dotlessi" unicode="&#x131;" horiz-adv-x="228" 
d="M79 508h70v-508h-70v508z" />
    <glyph glyph-name="Jcircumflex" unicode="&#x134;" horiz-adv-x="516" 
d="M30 225h74v-6q0 -108 44 -147q30 -30 88 -30q53 0 86 31q41 40 41 145v482h74v-472q0 -136 -56 -195q-52 -54 -149 -54q-94 0 -143 48q-59 59 -59 194v4zM339 900h115l119 -132h-68l-109 105l-108 -105h-68z" />
    <glyph glyph-name="jcircumflex" unicode="&#x135;" horiz-adv-x="226" 
d="M81 508h69v-556q0 -83 -29 -112q-28 -28 -90 -28q-19 0 -38 3v51h4q44 0 64 16q20 18 20 73v553zM63 700h115l119 -132h-68l-109 105l-108 -105h-68z" />
    <glyph glyph-name="Kcommaaccent" unicode="&#x136;" horiz-adv-x="655" 
d="M166 334l370 366h99l-292 -287l312 -413h-97l-269 364l-123 -120v-244h-74v700h74v-366zM315 -60h79v-88q0 -53 -25 -78q-21 -21 -54 -25v46q17 3 27 13q13 13 13 39v12h-40v81z" />
    <glyph glyph-name="kcommaaccent" unicode="&#x137;" horiz-adv-x="510" 
d="M148 255l260 253h83l-201 -195l220 -313h-80l-189 270l-93 -91v-179h-69v700h69v-445zM250 -60h79v-88q0 -53 -25 -78q-21 -21 -54 -25v46q17 3 27 13q13 13 13 39v12h-40v81z" />
    <glyph glyph-name="Lacute" unicode="&#x139;" horiz-adv-x="530" 
d="M530 63v-63h-438v700h74v-637h364zM186 900h92l-99 -140h-65z" />
    <glyph glyph-name="lacute" unicode="&#x13a;" horiz-adv-x="227" 
d="M79 700h69v-700h-69v700zM136 860h86l-95 -132h-61z" />
    <glyph glyph-name="Lcommaaccent" unicode="&#x13b;" horiz-adv-x="530" 
d="M530 63v-63h-438v700h74v-637h364zM275 -60h79v-88q0 -53 -25 -78q-21 -21 -54 -25v46q17 3 27 13q13 13 13 39v12h-40v81z" />
    <glyph glyph-name="lcommaaccent" unicode="&#x13c;" horiz-adv-x="227" 
d="M79 700h69v-700h-69v700zM73 -60h79v-88q0 -53 -25 -78q-21 -21 -54 -25v46q17 3 27 13q13 13 13 39v12h-40v81z" />
    <glyph glyph-name="Lcaron" unicode="&#x13d;" horiz-adv-x="530" 
d="M530 63v-63h-438v700h74v-637h364zM270 700h80v-115q0 -65 -29 -94q-19 -19 -51 -27v46q21 7 30 23q10 18 10 51v22h-40v94z" />
    <glyph glyph-name="lcaron" unicode="&#x13e;" horiz-adv-x="226" 
d="M79 700h69v-700h-69v700zM190 700h80v-115q0 -65 -29 -94q-19 -19 -51 -27v46q21 7 30 23q10 18 10 51v22h-40v94z" />
    <glyph glyph-name="Lslash" unicode="&#x141;" horiz-adv-x="523" 
d="M523 63v-63h-439v166l-84 -81v58l84 82v475h74v-407l234 231v-58l-234 -232v-171h365z" />
    <glyph glyph-name="lslash" unicode="&#x142;" horiz-adv-x="255" 
d="M93 700h69v-260l113 78v-57l-113 -78v-383h-69v342l-113 -77v57l113 77v301z" />
    <glyph glyph-name="Nacute" unicode="&#x143;" horiz-adv-x="736" 
d="M166 589v-589h-74v700h85l393 -589v589h74v-700h-84zM401 900h92l-99 -140h-65z" />
    <glyph glyph-name="nacute" unicode="&#x144;" horiz-adv-x="567" 
d="M79 508h69v-74q25 40 70 67q47 27 100 27q80 0 124 -44q46 -46 46 -141v-343h-69v333q0 88 -37 119q-31 26 -78 26q-60 0 -104 -41q-52 -52 -52 -153v-284h-69v508zM319 700h86l-95 -132h-61z" />
    <glyph glyph-name="Ncommaaccent" unicode="&#x145;" horiz-adv-x="736" 
d="M166 589v-589h-74v700h85l393 -589v589h74v-700h-84zM328 -60h79v-88q0 -53 -25 -78q-21 -21 -54 -25v46q17 3 27 13q13 13 13 39v12h-40v81z" />
    <glyph glyph-name="ncommaaccent" unicode="&#x146;" horiz-adv-x="567" 
d="M79 508h69v-74q25 40 70 67q47 27 100 27q80 0 124 -44q46 -46 46 -141v-343h-69v333q0 88 -37 119q-31 26 -78 26q-60 0 -104 -41q-52 -52 -52 -153v-284h-69v508zM245 -60h79v-88q0 -53 -25 -78q-21 -21 -54 -25v46q17 3 27 13q13 13 13 39v12h-40v81z" />
    <glyph glyph-name="Ncaron" unicode="&#x147;" horiz-adv-x="736" 
d="M166 589v-589h-74v700h85l393 -589v589h74v-700h-84zM185 900h74l109 -112l108 112h74l-121 -140h-123z" />
    <glyph glyph-name="ncaron" unicode="&#x148;" horiz-adv-x="567" 
d="M79 508h69v-74q25 40 70 67q47 27 100 27q80 0 124 -44q46 -46 46 -141v-343h-69v333q0 88 -37 119q-31 26 -78 26q-60 0 -104 -41q-52 -52 -52 -153v-284h-69v508zM364 568h-115l-119 132h68l108 -105l109 105h68z" />
    <glyph glyph-name="Omacron" unicode="&#x14c;" horiz-adv-x="790" 
d="M392 721q140 0 226 -80q106 -99 106 -291q0 -194 -104 -292q-83 -79 -223 -79q-150 0 -231 81q-12 10 -25.5 29t-32 53.5t-30.5 89.5t-12 118q0 186 102 288q83 83 224 83zM396 658q-99 0 -163 -57q-89 -81 -89 -255q0 -157 78 -238q66 -66 174 -66q104 0 171 67
q79 79 79 239q0 170 -90 254q-61 56 -160 56zM240 778v49h309v-49h-309z" />
    <glyph glyph-name="omacron" unicode="&#x14d;" horiz-adv-x="592" 
d="M296 528q103 0 166 -59q77 -73 77 -215q0 -143 -81 -218q-61 -56 -161 -56q-106 0 -164 56q-33 28 -56.5 83t-23.5 135q0 138 77 215q59 59 166 59zM296 479q-71 0 -113 -42q-58 -58 -58 -182q0 -128 62 -186q43 -39 109 -39q68 0 108 38q62 57 62 187q0 119 -53 177
q-45 47 -117 47zM137 620v46h309v-46h-309z" />
    <glyph glyph-name="Obreve" unicode="&#x14e;" horiz-adv-x="790" 
d="M392 721q140 0 226 -80q106 -99 106 -291q0 -194 -104 -292q-83 -79 -223 -79q-150 0 -231 81q-12 10 -25.5 29t-32 53.5t-30.5 89.5t-12 118q0 186 102 288q83 83 224 83zM396 658q-99 0 -163 -57q-89 -81 -89 -255q0 -157 78 -238q66 -66 174 -66q104 0 171 67
q79 79 79 239q0 170 -90 254q-61 56 -160 56zM506 887h63q-9 -54 -41 -86q-46 -46 -123 -46q-83 0 -129 46q-32 34 -41 86h63q4 -36 24 -57q27 -28 80 -28t80 28q20 21 24 57z" />
    <glyph glyph-name="obreve" unicode="&#x14f;" horiz-adv-x="592" 
d="M296 528q103 0 166 -59q77 -73 77 -215q0 -143 -81 -218q-61 -56 -161 -56q-106 0 -164 56q-33 28 -56.5 83t-23.5 135q0 138 77 215q59 59 166 59zM296 479q-71 0 -113 -42q-58 -58 -58 -182q0 -128 62 -186q43 -39 109 -39q68 0 108 38q62 57 62 187q0 119 -53 177
q-45 47 -117 47zM396 700h58q-7 -51 -41 -85q-42 -40 -116 -40t-116 40q-34 34 -41 85h58q5 -37 27 -59q24 -23 72 -23t72 23q22 22 27 59z" />
    <glyph glyph-name="Ohungarumlaut" unicode="&#x150;" horiz-adv-x="790" 
d="M392 721q140 0 226 -80q106 -99 106 -291q0 -194 -104 -292q-83 -79 -223 -79q-150 0 -231 81q-12 10 -25.5 29t-32 53.5t-30.5 89.5t-12 118q0 186 102 288q83 83 224 83zM396 658q-99 0 -163 -57q-89 -81 -89 -255q0 -157 78 -238q66 -66 174 -66q104 0 171 67
q79 79 79 239q0 170 -90 254q-61 56 -160 56zM340 900h86l-95 -140h-61zM483 900h86l-95 -140h-61z" />
    <glyph glyph-name="ohungarumlaut" unicode="&#x151;" horiz-adv-x="592" 
d="M296 528q103 0 166 -59q77 -73 77 -215q0 -143 -81 -218q-61 -56 -161 -56q-106 0 -164 56q-33 28 -56.5 83t-23.5 135q0 138 77 215q59 59 166 59zM296 479q-71 0 -113 -42q-58 -58 -58 -182q0 -128 62 -186q43 -39 109 -39q68 0 108 38q62 57 62 187q0 119 -53 177
q-45 47 -117 47zM260 700h86l-95 -132h-61zM403 700h86l-95 -132h-61z" />
    <glyph glyph-name="OE" unicode="&#x152;" horiz-adv-x="1166" 
d="M646 700h484v-63h-410v-243h374v-63h-374v-268h422v-63h-496v107q-38 -63 -100 -95q-66 -33 -160 -33q-133 0 -216 79q-104 104 -104 291q0 189 98 287q85 85 231 85q88 0 148 -31q70 -37 103 -102v112zM395 658q-101 0 -167 -63q-46 -44 -65 -112t-19 -133t19 -133
t65 -112q66 -63 167 -63t167 63q46 44 65 112t19 133t-19 133t-65 112q-66 63 -167 63z" />
    <glyph glyph-name="oe" unicode="&#x153;" horiz-adv-x="987" 
d="M862 148h67q-14 -68 -61 -113q-56 -55 -159 -55q-82 0 -135 34q-48 33 -74 88q-25 -60 -78 -90q-54 -32 -127 -32q-106 0 -166 60q-36 36 -56 93.5t-20 122.5t21 123.5t59 93.5q59 55 165 55q77 0 126 -31q54 -33 76 -89q26 53 77 88q51 32 128 32q103 0 165 -62
q64 -67 64 -215v-10h-398q0 -106 55 -163q47 -48 120 -48q71 0 111 40q31 31 40 78zM536 291h325q0 91 -48 144q-43 43 -108 43q-78 0 -121 -47q-41 -45 -48 -140zM126 254q0 -127 58 -183q44 -41 111 -41q69 0 112 41q58 58 58 183t-58 183q-43 41 -112 41q-67 0 -111 -41
q-58 -56 -58 -183z" />
    <glyph glyph-name="Racute" unicode="&#x154;" horiz-adv-x="694" 
d="M92 0v700h297q67 0 109.5 -10.5t74.5 -43.5q48 -50 48 -130q0 -75 -42 -124q-30 -35 -80 -50v-2q36 -9 61 -34q39 -39 39 -130l2 -79v-7t0.5 -8.5t1 -8.5t1 -9.5t1.5 -9.5t2 -10t3 -10t4.5 -11t6 -11t7.5 -12h-80q-20 31 -23 91l-3 74q0 4 -1 19.5t-1.5 20t-2 16.5
t-3.5 17.5t-5.5 14t-9 15t-12.5 12.5q-34 28 -100 28h-221v-308h-74zM166 637v-266h216q81 0 121 37q39 39 39 104t-36 93q-37 32 -128 32h-212zM371 900h92l-99 -140h-65z" />
    <glyph glyph-name="racute" unicode="&#x155;" horiz-adv-x="343" 
d="M343 518v-56h-10q-90 0 -135 -48q-30 -30 -40 -65.5t-10 -86.5v-262h-69v508h69v-101h2q19 48 63 79q47 32 119 32h11zM224 700h86l-95 -132h-61z" />
    <glyph glyph-name="Rcommaaccent" unicode="&#x156;" horiz-adv-x="694" 
d="M92 0v700h297q67 0 109.5 -10.5t74.5 -43.5q48 -50 48 -130q0 -75 -42 -124q-30 -35 -80 -50v-2q36 -9 61 -34q39 -39 39 -130l2 -79v-7t0.5 -8.5t1 -8.5t1 -9.5t1.5 -9.5t2 -10t3 -10t4.5 -11t6 -11t7.5 -12h-80q-20 31 -23 91l-3 74q0 4 -1 19.5t-1.5 20t-2 16.5
t-3.5 17.5t-5.5 14t-9 15t-12.5 12.5q-34 28 -100 28h-221v-308h-74zM166 637v-266h216q81 0 121 37q39 39 39 104t-36 93q-37 32 -128 32h-212zM315 -60h79v-88q0 -53 -25 -78q-21 -21 -54 -25v46q17 3 27 13q13 13 13 39v12h-40v81z" />
    <glyph glyph-name="rcommaaccent" unicode="&#x157;" horiz-adv-x="343" 
d="M343 518v-56h-10q-90 0 -135 -48q-30 -30 -40 -65.5t-10 -86.5v-262h-69v508h69v-101h2q19 48 63 79q47 32 119 32h11zM73 -60h79v-88q0 -53 -25 -78q-21 -21 -54 -25v46q17 3 27 13q13 13 13 39v12h-40v81z" />
    <glyph glyph-name="Rcaron" unicode="&#x158;" horiz-adv-x="694" 
d="M92 0v700h297q67 0 109.5 -10.5t74.5 -43.5q48 -50 48 -130q0 -75 -42 -124q-30 -35 -80 -50v-2q36 -9 61 -34q39 -39 39 -130l2 -79v-7t0.5 -8.5t1 -8.5t1 -9.5t1.5 -9.5t2 -10t3 -10t4.5 -11t6 -11t7.5 -12h-80q-20 31 -23 91l-3 74q0 4 -1 19.5t-1.5 20t-2 16.5
t-3.5 17.5t-5.5 14t-9 15t-12.5 12.5q-34 28 -100 28h-221v-308h-74zM166 637v-266h216q81 0 121 37q39 39 39 104t-36 93q-37 32 -128 32h-212zM165 900h74l109 -112l108 112h74l-121 -140h-123z" />
    <glyph glyph-name="rcaron" unicode="&#x159;" horiz-adv-x="343" 
d="M343 518v-56h-10q-90 0 -135 -48q-30 -30 -40 -65.5t-10 -86.5v-262h-69v508h69v-101h2q19 48 63 79q47 32 119 32h11zM216 568h-115l-119 132h68l108 -105l109 105h68z" />
    <glyph glyph-name="Sacute" unicode="&#x15a;" horiz-adv-x="655" 
d="M53 221h75q-1 -73 46 -120q56 -57 163 -57q100 0 148 47q39 39 39 94q0 48 -31 83q-35 38 -134 56l-70 13q-131 25 -176 75q-41 47 -41 111q0 103 84 157q65 42 175 42q120 0 191 -64q53 -53 61 -137h-74q-6 60 -46 97q-44 41 -138 41q-73 0 -117 -27q-58 -36 -58 -104
q0 -41 27 -70q33 -34 124 -51l66 -13q134 -26 184 -73q51 -47 51 -129q0 -94 -60 -151q-67 -60 -198 -60q-153 0 -226 73q-65 65 -65 167zM356 900h92l-99 -140h-65z" />
    <glyph glyph-name="sacute" unicode="&#x15b;" horiz-adv-x="495" 
d="M40 148h70q0 -51 35 -84q34 -34 110 -34q62 0 95 27q34 28 34 79q0 36 -27 59q-21 19 -84 33l-56 12q-95 22 -124 51q-34 34 -34 88q0 75 63 119q46 30 126 30q97 0 150 -50q42 -40 43 -102h-67q0 44 -28 72q-32 30 -99 30q-63 0 -93 -30q-23 -23 -23 -62q0 -35 26 -58
q22 -18 81 -33l53 -12q5 -1 18.5 -4.5t19 -5t17 -5t18.5 -6t16 -6t16.5 -8t13.5 -9.5q45 -33 45 -97q0 -83 -60 -126q-48 -36 -143 -36q-109 0 -163 54q-41 44 -49 114zM266 700h86l-95 -132h-61z" />
    <glyph glyph-name="Scircumflex" unicode="&#x15c;" horiz-adv-x="655" 
d="M53 221h75q-1 -73 46 -120q56 -57 163 -57q100 0 148 47q39 39 39 94q0 48 -31 83q-35 38 -134 56l-70 13q-131 25 -176 75q-41 47 -41 111q0 103 84 157q65 42 175 42q120 0 191 -64q53 -53 61 -137h-74q-6 60 -46 97q-44 41 -138 41q-73 0 -117 -27q-58 -36 -58 -104
q0 -41 27 -70q33 -34 124 -51l66 -13q134 -26 184 -73q51 -47 51 -129q0 -94 -60 -151q-67 -60 -198 -60q-153 0 -226 73q-65 65 -65 167zM279 900h115l119 -132h-68l-109 105l-108 -105h-68z" />
    <glyph glyph-name="scircumflex" unicode="&#x15d;" horiz-adv-x="495" 
d="M40 148h70q0 -51 35 -84q34 -34 110 -34q62 0 95 27q34 28 34 79q0 36 -27 59q-21 19 -84 33l-56 12q-95 22 -124 51q-34 34 -34 88q0 75 63 119q46 30 126 30q97 0 150 -50q42 -40 43 -102h-67q0 44 -28 72q-32 30 -99 30q-63 0 -93 -30q-23 -23 -23 -62q0 -35 26 -58
q22 -18 81 -33l53 -12q5 -1 18.5 -4.5t19 -5t17 -5t18.5 -6t16 -6t16.5 -8t13.5 -9.5q45 -33 45 -97q0 -83 -60 -126q-48 -36 -143 -36q-109 0 -163 54q-41 44 -49 114zM189 700h115l119 -132h-68l-109 105l-108 -105h-68z" />
    <glyph glyph-name="Scedilla" unicode="&#x15e;" horiz-adv-x="655" 
d="M53 221h75q-1 -73 46 -120q56 -57 163 -57q100 0 148 47q39 39 39 94q0 48 -31 83q-35 38 -134 56l-70 13q-131 25 -176 75q-41 47 -41 111q0 103 84 157q65 42 175 42q120 0 191 -64q53 -53 61 -137h-74q-6 60 -46 97q-44 41 -138 41q-73 0 -117 -27q-58 -36 -58 -104
q0 -41 27 -70q33 -34 124 -51l66 -13q134 -26 184 -73q51 -47 51 -129q0 -94 -60 -151q-67 -60 -198 -60q-153 0 -226 73q-65 65 -65 167zM223 -232l14 45q23 -8 58 -8q58 0 75 18q11 11 11 31q0 21 -13 30q-18 16 -72 16h-31l12 42h28q86 0 116 -30q21 -21 21 -53
q0 -44 -25 -69q-30 -30 -111 -30q-40 0 -83 8z" />
    <glyph glyph-name="scedilla" unicode="&#x15f;" horiz-adv-x="495" 
d="M40 148h70q0 -51 35 -84q34 -34 110 -34q62 0 95 27q34 28 34 79q0 36 -27 59q-21 19 -84 33l-56 12q-95 22 -124 51q-34 34 -34 88q0 75 63 119q46 30 126 30q97 0 150 -50q42 -40 43 -102h-67q0 44 -28 72q-32 30 -99 30q-63 0 -93 -30q-23 -23 -23 -62q0 -35 26 -58
q22 -18 81 -33l53 -12q5 -1 18.5 -4.5t19 -5t17 -5t18.5 -6t16 -6t16.5 -8t13.5 -9.5q45 -33 45 -97q0 -83 -60 -126q-48 -36 -143 -36q-109 0 -163 54q-41 44 -49 114zM133 -232l14 45q23 -8 58 -8q58 0 75 18q11 11 11 31q0 21 -13 30q-18 16 -72 16h-31l12 42h28
q86 0 116 -30q21 -21 21 -53q0 -44 -25 -69q-30 -30 -111 -30q-40 0 -83 8z" />
    <glyph glyph-name="Scaron" unicode="&#x160;" horiz-adv-x="655" 
d="M53 221h75q-1 -73 46 -120q56 -57 163 -57q100 0 148 47q39 39 39 94q0 48 -31 83q-35 38 -134 56l-70 13q-131 25 -176 75q-41 47 -41 111q0 103 84 157q65 42 175 42q120 0 191 -64q53 -53 61 -137h-74q-6 60 -46 97q-44 41 -138 41q-73 0 -117 -27q-58 -36 -58 -104
q0 -41 27 -70q33 -34 124 -51l66 -13q134 -26 184 -73q51 -47 51 -129q0 -94 -60 -151q-67 -60 -198 -60q-153 0 -226 73q-65 65 -65 167zM145 900h74l109 -112l108 112h74l-121 -140h-123z" />
    <glyph glyph-name="scaron" unicode="&#x161;" horiz-adv-x="495" 
d="M40 148h70q0 -51 35 -84q34 -34 110 -34q62 0 95 27q34 28 34 79q0 36 -27 59q-21 19 -84 33l-56 12q-95 22 -124 51q-34 34 -34 88q0 75 63 119q46 30 126 30q97 0 150 -50q42 -40 43 -102h-67q0 44 -28 72q-32 30 -99 30q-63 0 -93 -30q-23 -23 -23 -62q0 -35 26 -58
q22 -18 81 -33l53 -12q5 -1 18.5 -4.5t19 -5t17 -5t18.5 -6t16 -6t16.5 -8t13.5 -9.5q45 -33 45 -97q0 -83 -60 -126q-48 -36 -143 -36q-109 0 -163 54q-41 44 -49 114zM304 568h-115l-119 132h68l108 -105l109 105h68z" />
    <glyph glyph-name="Tcedilla" unicode="&#x162;" horiz-adv-x="550" 
d="M238 637h-232v63h538v-63h-232v-637h-74v637zM163 -232l14 45q23 -8 58 -8q58 0 75 18q11 11 11 31q0 21 -13 30q-18 16 -72 16h-31l12 42h28q86 0 116 -30q21 -21 21 -53q0 -44 -25 -69q-30 -30 -111 -30q-40 0 -83 8z" />
    <glyph glyph-name="tcedilla" unicode="&#x163;" horiz-adv-x="292" 
d="M6 508h95v152h69v-152h109v-50h-109v-368q0 -26 10 -38q12 -13 40 -13q27 0 59 11v-50q-36 -14 -80 -14q-56 0 -76 25q-22 25 -22 78v369h-95v50zM78 -232l14 45q23 -8 58 -8q58 0 75 18q11 11 11 31q0 21 -13 30q-18 16 -72 16h-31l12 42h28q86 0 116 -30q21 -21 21 -53
q0 -44 -25 -69q-30 -30 -111 -30q-40 0 -83 8z" />
    <glyph glyph-name="Tcaron" unicode="&#x164;" horiz-adv-x="550" 
d="M238 637h-232v63h538v-63h-232v-637h-74v637zM92 900h74l109 -112l108 112h74l-121 -140h-123z" />
    <glyph glyph-name="tcaron" unicode="&#x165;" horiz-adv-x="346" 
d="M6 508h95v152h69v-152h109v-50h-109v-368q0 -26 10 -38q12 -13 40 -13q27 0 59 11v-50q-36 -14 -80 -14q-56 0 -76 25q-22 25 -22 78v369h-95v50zM310 700h80v-115q0 -65 -29 -94q-19 -19 -51 -27v46q21 7 30 23q10 18 10 51v22h-40v94z" />
    <glyph glyph-name="Utilde" unicode="&#x168;" horiz-adv-x="695" 
d="M79 700h74v-420q0 -39 2 -65t12.5 -59.5t30.5 -54.5q51 -56 150 -56t148 54q46 50 46 181v420h74v-428q0 -45 -3.5 -76.5t-20.5 -74.5t-49 -74q-68 -65 -196 -65q-130 0 -198 63q-70 66 -70 227v428zM483 860h50q-14 -51 -40 -77q-25 -25 -61 -25q-45 0 -84 26l-24 16
q-2 1 -6.5 4t-6.5 4.5t-6 3.5t-6.5 3t-7 2.5t-8 2t-8.5 1t-11 0.5q-23 0 -37 -14q-14 -17 -16 -39h-50q7 42 35 70q30 30 72 30q40 0 74 -24l24 -17q30 -22 63 -22q19 0 32 13q17 16 22 42z" />
    <glyph glyph-name="utilde" unicode="&#x169;" horiz-adv-x="567" 
d="M488 0h-69v73h-2q-28 -46 -66 -67q-42 -26 -110 -26q-75 0 -118 43q-44 43 -44 142v343h69v-316q0 -50 6 -80.5t27 -51.5q30 -30 80 -30q66 0 113 48q45 48 45 146v284h69v-508zM416 700h48q-15 -52 -40 -77t-61 -25q-40 0 -79 26l-24 16q-33 21 -55 21q-23 0 -37 -14
q-11 -12 -17 -39h-49q7 42 35 70q27 30 72 30q34 0 69 -24l24 -17q30 -22 58 -22q19 0 32 13q15 15 24 42z" />
    <glyph glyph-name="Umacron" unicode="&#x16a;" horiz-adv-x="695" 
d="M79 700h74v-420q0 -39 2 -65t12.5 -59.5t30.5 -54.5q51 -56 150 -56t148 54q46 50 46 181v420h74v-428q0 -45 -3.5 -76.5t-20.5 -74.5t-49 -74q-68 -65 -196 -65q-130 0 -198 63q-70 66 -70 227v428zM193 778v49h309v-49h-309z" />
    <glyph glyph-name="umacron" unicode="&#x16b;" horiz-adv-x="567" 
d="M488 0h-69v73h-2q-28 -46 -66 -67q-42 -26 -110 -26q-75 0 -118 43q-44 43 -44 142v343h69v-316q0 -50 6 -80.5t27 -51.5q30 -30 80 -30q66 0 113 48q45 48 45 146v284h69v-508zM130 620v46h309v-46h-309z" />
    <glyph glyph-name="Ubreve" unicode="&#x16c;" horiz-adv-x="695" 
d="M79 700h74v-420q0 -39 2 -65t12.5 -59.5t30.5 -54.5q51 -56 150 -56t148 54q46 50 46 181v420h74v-428q0 -45 -3.5 -76.5t-20.5 -74.5t-49 -74q-68 -65 -196 -65q-130 0 -198 63q-70 66 -70 227v428zM451 887h63q-9 -54 -41 -86q-46 -46 -123 -46q-83 0 -129 46
q-32 34 -41 86h63q4 -36 24 -57q27 -28 80 -28t80 28q20 21 24 57z" />
    <glyph glyph-name="ubreve" unicode="&#x16d;" horiz-adv-x="567" 
d="M488 0h-69v73h-2q-28 -46 -66 -67q-42 -26 -110 -26q-75 0 -118 43q-44 43 -44 142v343h69v-316q0 -50 6 -80.5t27 -51.5q30 -30 80 -30q66 0 113 48q45 48 45 146v284h69v-508zM381 700h58q-7 -51 -41 -85q-42 -40 -116 -40t-116 40q-34 34 -41 85h58q5 -37 27 -59
q24 -23 72 -23t72 23q22 22 27 59z" />
    <glyph glyph-name="Uring" unicode="&#x16e;" horiz-adv-x="695" 
d="M79 700h74v-420q0 -39 2 -65t12.5 -59.5t30.5 -54.5q51 -56 150 -56t148 54q46 50 46 181v420h74v-428q0 -45 -3.5 -76.5t-20.5 -74.5t-49 -74q-68 -65 -196 -65q-130 0 -198 63q-70 66 -70 227v428zM249 832q0 41 28.5 69.5t69.5 28.5t69.5 -28.5t28.5 -69.5
t-28.5 -69.5t-69.5 -28.5t-69.5 28.5t-28.5 69.5zM285 832q0 -22 16.5 -42t45.5 -20q26 0 44 18t18 44t-18 44t-44 18q-29 0 -45.5 -20t-16.5 -42z" />
    <glyph glyph-name="uring" unicode="&#x16f;" horiz-adv-x="567" 
d="M488 0h-69v73h-2q-28 -46 -66 -67q-42 -26 -110 -26q-75 0 -118 43q-44 43 -44 142v343h69v-316q0 -50 6 -80.5t27 -51.5q30 -30 80 -30q66 0 113 48q45 48 45 146v284h69v-508zM188 644q0 39 26.5 65.5t65.5 26.5t65.5 -26.5t26.5 -65.5t-26.5 -65.5t-65.5 -26.5
t-65.5 26.5t-26.5 65.5zM221 644q0 -24 16.5 -41.5t42.5 -17.5q24 0 41 17.5t17 41.5t-17 41.5t-41 17.5q-26 0 -42.5 -17.5t-16.5 -41.5z" />
    <glyph glyph-name="Uhungarumlaut" unicode="&#x170;" horiz-adv-x="695" 
d="M79 700h74v-420q0 -39 2 -65t12.5 -59.5t30.5 -54.5q51 -56 150 -56t148 54q46 50 46 181v420h74v-428q0 -45 -3.5 -76.5t-20.5 -74.5t-49 -74q-68 -65 -196 -65q-130 0 -198 63q-70 66 -70 227v428zM295 900h86l-95 -140h-61zM438 900h86l-95 -140h-61z" />
    <glyph glyph-name="uhungarumlaut" unicode="&#x171;" horiz-adv-x="567" 
d="M488 0h-69v73h-2q-28 -46 -66 -67q-42 -26 -110 -26q-75 0 -118 43q-44 43 -44 142v343h69v-316q0 -50 6 -80.5t27 -51.5q30 -30 80 -30q66 0 113 48q45 48 45 146v284h69v-508zM235 700h86l-95 -132h-61zM378 700h86l-95 -132h-61z" />
    <glyph glyph-name="Uogonek" unicode="&#x172;" horiz-adv-x="695" 
d="M79 700h74v-420q0 -39 2 -65t12.5 -59.5t30.5 -54.5q51 -56 150 -56t148 54q46 50 46 181v420h74v-428q0 -45 -3.5 -76.5t-20.5 -74.5t-49 -74q-69 -67 -201 -65q-24 -24 -32 -37q-16 -25 -16 -55q0 -26 16 -42q13 -13 39 -13q25 0 42 15q20 19 22 50h57q-4 -48 -38 -82
q-35 -32 -92 -32q-59 0 -89 30q-26 26 -26 66q0 33 17 62q14 24 38 43q-84 16 -131 58q-70 64 -70 227v428z" />
    <glyph glyph-name="uogonek" unicode="&#x173;" horiz-adv-x="567" 
d="M488 508v-508q-33 -20 -52 -45q-22 -29 -22 -65q0 -28 16 -42q13 -13 39 -13q25 0 42 15q20 19 22 50h57q-4 -48 -38 -82q-35 -32 -91 -32q-55 0 -87 28q-29 25 -29 68q0 40 23 72q19 28 51 46v73h-2q-28 -46 -66 -67q-42 -26 -110 -26q-75 0 -118 43q-44 43 -44 142v343
h69v-316q0 -50 6 -80.5t27 -51.5q30 -30 80 -30q66 0 113 48q45 48 45 146v284h69z" />
    <glyph glyph-name="Ydieresis" unicode="&#x178;" horiz-adv-x="603" 
d="M302 366l209 334h88l-260 -401v-299h-74v299l-261 401h89zM162 772v74h75v-74h-75zM366 772v74h75v-74h-75z" />
    <glyph glyph-name="Zacute" unicode="&#x179;" horiz-adv-x="581" 
d="M49 700h487v-62l-422 -575h441v-63h-529v69l426 568h-403v63zM316 900h92l-99 -140h-65z" />
    <glyph glyph-name="zacute" unicode="&#x17a;" horiz-adv-x="456" 
d="M48 508h367v-52l-305 -406h320v-50h-404v49l315 409h-293v50zM250 700h86l-95 -132h-61z" />
    <glyph glyph-name="Zdotaccent" unicode="&#x17b;" horiz-adv-x="581" 
d="M49 700h487v-62l-422 -575h441v-63h-529v69l426 568h-403v63zM253 772v74h75v-74h-75z" />
    <glyph glyph-name="zdotaccent" unicode="&#x17c;" horiz-adv-x="456" 
d="M48 508h367v-52l-305 -406h320v-50h-404v49l315 409h-293v50zM200 616v84h74v-84h-74z" />
    <glyph glyph-name="uni018F" unicode="&#x18f;" horiz-adv-x="745" 
d="M602 332h-470q0 -167 72 -237q60 -56 156 -56q107 0 164 57q36 36 57 102t21 134zM154 497h-78q23 91 78 146q73 79 214 79q119 0 197 -64q15 -11 30 -29.5t36 -53t34.5 -89.5t13.5 -120q0 -100 -29 -190t-86 -137q-75 -63 -206 -63q-134 0 -207 77q-54 58 -75 150
t-14 191h539q0 20 -4 48.5t-22.5 77t-49.5 79.5q-62 60 -160 60q-92 0 -150 -54q-43 -38 -61 -108z" />
    <glyph glyph-name="florin" unicode="&#x192;" 
d="M453 508l-10 -50h-109l-108 -512q-15 -70 -46 -101q-34 -34 -98 -34q-23 0 -40 4l11 52q14 -2 22 -2q37 0 55 20q17 17 26 59l108 514h-93l11 50h93l15 69q15 58 38 82q40 41 113 41q28 0 53 -7l-9 -49q-21 6 -44 6q-37 0 -57 -20q-19 -19 -26 -56l-14 -66h109z" />
    <glyph glyph-name="uni019F" unicode="&#x19f;" horiz-adv-x="790" 
d="M396 658q-106 0 -172 -66q-72 -74 -78 -208h499q-3 60 -23 116.5t-54 91.5q-66 66 -172 66zM395 42q108 0 174 68q35 35 55.5 93t20.5 124h-500q0 -63 20 -122.5t57 -96.5q66 -66 173 -66zM393 721q142 0 228 -81q103 -98 103 -295q0 -191 -103 -287q-86 -79 -228 -79
q-141 0 -226 82q-44 42 -72.5 114t-28.5 171q0 194 102 291q90 84 225 84z" />
    <glyph glyph-name="uni01CF" unicode="&#x1cf;" horiz-adv-x="258" 
d="M92 700h74v-700h-74v700zM-54 900h74l109 -112l108 112h74l-121 -140h-123z" />
    <glyph glyph-name="uni01D0" unicode="&#x1d0;" horiz-adv-x="223" 
d="M79 508h70v-508h-70v508zM175 568h-115l-119 132h68l108 -105l109 105h68z" />
    <glyph glyph-name="uni01DD" unicode="&#x1dd;" 
d="M125 361h-66q13 62 55 108q57 59 162 59q110 0 172 -59q75 -75 75 -217q0 -138 -70 -208q-64 -64 -172 -64q-105 0 -162 60q-38 39 -50.5 92t-15.5 135h398q-4 108 -54 161q-45 50 -124 50q-65 0 -105 -38q-39 -38 -43 -79zM451 217h-325q0 -35 13 -79t36 -67
q39 -41 107 -41q78 0 122 49q47 54 47 138z" />
    <glyph glyph-name="Gcaron" unicode="&#x1e6;" horiz-adv-x="747" 
d="M394 359h287v-359h-62v123h-2q-31 -63 -83 -101q-60 -43 -162 -43q-143 0 -222 84q-14 14 -27.5 33.5t-30.5 54.5t-28 88t-11 115q0 187 98 285q84 84 237 84q131 0 207 -70q61 -56 74 -154h-74q-11 67 -48 104q-55 57 -160 57q-120 0 -181 -68q-75 -78 -75 -239
q0 -155 80 -240q64 -71 173 -71q97 0 157 60q71 68 71 194h-218v63zM200 900h74l109 -112l108 112h74l-121 -140h-123z" />
    <glyph glyph-name="gcaron" unicode="&#x1e7;" horiz-adv-x="592" 
d="M84 -62h69q10 -30 39 -55q34 -25 96 -25q73 0 109 34q47 42 47 138v59q-24 -49 -65 -74q-38 -23 -98 -23q-104 0 -161 64q-67 73 -67 204q0 139 67 209q58 59 156 59q65 0 108 -28q40 -25 62 -67h2v75h65v-484q0 -107 -56 -162t-163 -55q-116 0 -168 52q-33 33 -42 79z
M291 42q59 0 99 40q26 24 40 70t16 69.5t2 43.5q0 114 -51 168q-45 45 -115 45q-65 0 -105 -42q-51 -51 -51 -168q0 -123 54 -180q46 -46 111 -46zM353 568h-115l-119 132h68l108 -105l109 105h68z" />
    <glyph glyph-name="Scommaaccent" unicode="&#x218;" horiz-adv-x="655" 
d="M53 221h75q-1 -73 46 -120q56 -57 163 -57q100 0 148 47q39 39 39 94q0 48 -31 83q-35 38 -134 56l-70 13q-131 25 -176 75q-41 47 -41 111q0 103 84 157q65 42 175 42q120 0 191 -64q53 -53 61 -137h-74q-6 60 -46 97q-44 41 -138 41q-73 0 -117 -27q-58 -36 -58 -104
q0 -41 27 -70q33 -34 124 -51l66 -13q134 -26 184 -73q51 -47 51 -129q0 -94 -60 -151q-67 -60 -198 -60q-153 0 -226 73q-65 65 -65 167zM305 -60h79v-88q0 -53 -25 -78q-21 -21 -54 -25v46q17 3 27 13q13 13 13 39v12h-40v81z" />
    <glyph glyph-name="scommaaccent" unicode="&#x219;" horiz-adv-x="495" 
d="M40 148h70q0 -51 35 -84q34 -34 110 -34q62 0 95 27q34 28 34 79q0 36 -27 59q-21 19 -84 33l-56 12q-95 22 -124 51q-34 34 -34 88q0 75 63 119q46 30 126 30q97 0 150 -50q42 -40 43 -102h-67q0 44 -28 72q-32 30 -99 30q-63 0 -93 -30q-23 -23 -23 -62q0 -35 26 -58
q22 -18 81 -33l53 -12q5 -1 18.5 -4.5t19 -5t17 -5t18.5 -6t16 -6t16.5 -8t13.5 -9.5q45 -33 45 -97q0 -83 -60 -126q-48 -36 -143 -36q-109 0 -163 54q-41 44 -49 114zM215 -60h79v-88q0 -53 -25 -78q-21 -21 -54 -25v46q17 3 27 13q13 13 13 39v12h-40v81z" />
    <glyph glyph-name="Tcommaaccent" unicode="&#x21a;" horiz-adv-x="550" 
d="M238 637h-232v63h538v-63h-232v-637h-74v637zM235 -60h79v-88q0 -53 -25 -78q-21 -21 -54 -25v46q17 3 27 13q13 13 13 39v12h-40v81z" />
    <glyph glyph-name="tcommaaccent" unicode="&#x21b;" horiz-adv-x="292" 
d="M6 508h95v152h69v-152h109v-50h-109v-368q0 -26 10 -38q12 -13 40 -13q27 0 59 11v-50q-36 -14 -80 -14q-56 0 -76 25q-22 25 -22 78v369h-95v50zM160 -60h79v-88q0 -53 -25 -78q-21 -21 -54 -25v46q17 3 27 13q13 13 13 39v12h-40v81z" />
    <glyph glyph-name="uni0228" unicode="&#x228;" horiz-adv-x="611" 
d="M166 394h374v-63h-374v-268h421v-63h-495v700h483v-63h-409v-243zM228 -232l14 45q23 -8 58 -8q58 0 75 18q11 11 11 31q0 21 -13 30q-18 16 -72 16h-31l12 42h28q86 0 116 -30q21 -21 21 -53q0 -44 -25 -69q-30 -30 -111 -30q-40 0 -83 8z" />
    <glyph glyph-name="uni0229" unicode="&#x229;" 
d="M451 147h66q-13 -62 -55 -108q-57 -59 -162 -59q-110 0 -172 59q-75 73 -75 217q0 138 70 208q64 64 172 64q104 0 162 -60q38 -39 50.5 -92t15.5 -135h-398q4 -108 54 -161q45 -50 124 -50q65 0 105 38q27 24 43 79zM294 478q-78 0 -122 -49q-47 -54 -47 -138h325
q0 35 -13 79t-36 67q-39 41 -107 41zM200 -232l14 45q23 -8 58 -8q58 0 75 18q11 11 11 31q0 21 -13 30q-18 16 -72 16h-31l12 42h28q86 0 116 -30q21 -21 21 -53q0 -44 -25 -69q-30 -30 -111 -30q-40 0 -83 8z" />
    <glyph glyph-name="uni0237" unicode="&#x237;" horiz-adv-x="226" 
d="M81 508h69v-556q0 -83 -29 -112q-28 -28 -90 -28q-19 0 -38 3v51h4q44 0 64 16q20 18 20 73v553z" />
    <glyph glyph-name="uni0259" unicode="&#x259;" 
d="M125 361h-66q13 62 55 108q57 59 162 59q110 0 172 -59q75 -75 75 -217q0 -138 -70 -208q-64 -64 -172 -64q-105 0 -162 60q-38 39 -50.5 92t-15.5 135h398q-4 108 -54 161q-45 50 -124 50q-65 0 -105 -38q-39 -38 -43 -79zM451 217h-325q0 -35 13 -79t36 -67
q39 -41 107 -41q78 0 122 49q47 54 47 138z" />
    <glyph glyph-name="uni0275" unicode="&#x275;" horiz-adv-x="592" 
d="M296 478q-71 0 -112 -41q-51 -51 -58 -155h340q-7 104 -59 156q-41 40 -111 40zM296 30q67 0 111 41q51 49 59 161h-340q0 -36 13 -82t44 -77q43 -43 113 -43zM296 528q103 0 166 -59q77 -73 77 -215q0 -143 -81 -218q-61 -56 -161 -56q-106 0 -164 56q-33 28 -56.5 83
t-23.5 135q0 138 77 215q59 59 166 59z" />
    <glyph glyph-name="afii57929" unicode="&#x2bc;" horiz-adv-x="180" 
d="M50 700h80v-115q0 -65 -29 -94q-19 -19 -51 -27v46q21 7 30 23q10 18 10 51v22h-40v94z" />
    <glyph glyph-name="circumflex" unicode="&#x2c6;" horiz-adv-x="453" 
d="M169 700h115l119 -132h-68l-109 105l-108 -105h-68z" />
    <glyph glyph-name="caron" unicode="&#x2c7;" horiz-adv-x="453" 
d="M284 568h-115l-119 132h68l108 -105l109 105h68z" />
    <glyph glyph-name="breve" unicode="&#x2d8;" horiz-adv-x="414" 
d="M306 700h58q-7 -51 -41 -85q-42 -40 -116 -40t-116 40q-34 34 -41 85h58q5 -37 27 -59q24 -23 72 -23t72 23q22 22 27 59z" />
    <glyph glyph-name="dotaccent" unicode="&#x2d9;" horiz-adv-x="174" 
d="M50 616v84h74v-84h-74z" />
    <glyph glyph-name="ring" unicode="&#x2da;" horiz-adv-x="284" 
d="M50 644q0 39 26.5 65.5t65.5 26.5t65.5 -26.5t26.5 -65.5t-26.5 -65.5t-65.5 -26.5t-65.5 26.5t-26.5 65.5zM83 644q0 -24 16.5 -41.5t42.5 -17.5q24 0 41 17.5t17 41.5t-17 41.5t-41 17.5q-26 0 -42.5 -17.5t-16.5 -41.5z" />
    <glyph glyph-name="ogonek" unicode="&#x2db;" horiz-adv-x="341" 
d="M120 0h71q-33 -20 -52 -45q-22 -29 -22 -65q0 -28 16 -42q13 -13 39 -13q25 0 42 15q20 19 22 50h57q-4 -48 -38 -82q-35 -32 -91 -32t-87 28q-29 25 -29 68q0 40 23 72q18 26 49 46z" />
    <glyph glyph-name="tilde" unicode="&#x2dc;" horiz-adv-x="462" 
d="M364 700h48q-15 -52 -40 -77t-61 -25q-40 0 -79 26l-24 16q-33 21 -55 21q-23 0 -37 -14q-11 -12 -17 -39h-49q7 42 35 70q27 30 72 30q34 0 69 -24l24 -17q30 -22 58 -22q19 0 32 13q15 15 24 42z" />
    <glyph glyph-name="hungarumlaut" unicode="&#x2dd;" horiz-adv-x="399" 
d="M120 700h86l-95 -132h-61zM263 700h86l-95 -132h-61z" />
    <glyph glyph-name="acutecomb" unicode="&#x301;" horiz-adv-x="2" 
d="M-255 700h86l-95 -132h-61z" />
    <glyph glyph-name="acutecomb" unicode="&#xf400;" horiz-adv-x="2" 
d="M-255 700h86l-95 -132h-61z" />
    <glyph glyph-name="uni0313" unicode="&#x313;" horiz-adv-x="180" 
d="M50 700h80v-115q0 -65 -29 -94q-19 -19 -51 -27v46q21 7 30 23q10 18 10 51v22h-40v94z" />
    <glyph glyph-name="uni0315" unicode="&#x315;" horiz-adv-x="180" 
d="M50 700h80v-115q0 -65 -29 -94q-19 -19 -51 -27v46q21 7 30 23q10 18 10 51v22h-40v94z" />
    <glyph glyph-name="uni0326" unicode="&#x326;" horiz-adv-x="179" 
d="M50 -60h79v-88q0 -53 -25 -78q-21 -21 -54 -25v46q17 3 27 13q13 13 13 39v12h-40v81z" />
    <glyph glyph-name="anoteleia" unicode="&#x387;" horiz-adv-x="300" 
d="M110 220v95h80v-95h-80z" />
    <glyph glyph-name="uni0394" unicode="&#x394;" horiz-adv-x="614" 
d="M288 608l-205 -545h409zM3 0l271 700h66l271 -700h-608z" />
    <glyph glyph-name="uni0394" unicode="&#x2206;" horiz-adv-x="614" 
d="M288 608l-205 -545h409zM3 0l271 700h66l271 -700h-608z" />
    <glyph glyph-name="uni03A9" unicode="&#x3a9;" horiz-adv-x="728" 
d="M69 0v63h172v45q-62 16 -108 62q-80 80 -80 229q0 151 86 237q80 84 224 84t225 -84q87 -90 87 -237q0 -148 -84 -232q-46 -46 -104 -59v-45h172v-63h-235v148q68 14 113 65q59 78 59 186q0 135 -75 203q-57 55 -157 55q-101 0 -157 -55q-76 -73 -76 -203q0 -118 59 -186
q44 -50 114 -65v-148h-235z" />
    <glyph glyph-name="uni03A9" unicode="&#x2126;" horiz-adv-x="728" 
d="M69 0v63h172v45q-62 16 -108 62q-80 80 -80 229q0 151 86 237q80 84 224 84t225 -84q87 -90 87 -237q0 -148 -84 -232q-46 -46 -104 -59v-45h172v-63h-235v148q68 14 113 65q59 78 59 186q0 135 -75 203q-57 55 -157 55q-101 0 -157 -55q-76 -73 -76 -203q0 -118 59 -186
q44 -50 114 -65v-148h-235z" />
    <glyph glyph-name="pi" unicode="&#x3c0;" horiz-adv-x="598" 
d="M112 0v458h-10q-23 0 -41 -6q-12 -4 -29 -14v50q16 10 33 14q23 6 56 6h437v-50h-64v-348q0 -41 12 -52q14 -14 41 -8v-50q-17 -4 -41 -4q-47 0 -64 20q-17 17 -17 54v388h-244v-458h-69z" />
    <glyph glyph-name="afii10023" unicode="&#x401;" horiz-adv-x="611" 
d="M166 394h374v-63h-374v-268h421v-63h-495v700h484v-63h-410v-243zM201 772v74h75v-74h-75zM405 772v74h75v-74h-75z" />
    <glyph glyph-name="afii10051" unicode="&#x402;" horiz-adv-x="747" 
d="M6 637v63h509v-63h-232v-245q70 10 145 10q141 0 203 -62q50 -53 50 -140q0 -108 -60 -163q-52 -50 -142 -50q-50 0 -88 13v63q37 -13 75 -13q65 0 103 38q37 40 37 112q0 63 -34 97q-42 42 -151 42q-74 0 -138 -7v-332h-74v637h-203z" />
    <glyph glyph-name="afii10052" unicode="&#x403;" horiz-adv-x="537" 
d="M166 637v-637h-74v700h439v-63h-365zM331 900h92l-99 -140h-65z" />
    <glyph glyph-name="afii10053" unicode="&#x404;" horiz-adv-x="736" 
d="M502 394v-63h-357q0 -142 75 -223q61 -66 169 -66q101 0 156 55q54 54 63 137h78q-12 -107 -80 -177q-78 -78 -216 -78q-144 0 -224 83q-100 102 -100 294q0 92 28.5 166.5t76.5 121.5q79 77 217 77q147 0 219 -76q55 -58 67 -148h-79q-5 56 -48 104q-57 57 -161 57
q-103 0 -164 -62q-31 -31 -50 -78t-23 -75t-4 -49h357z" />
    <glyph glyph-name="afii10054" unicode="&#x405;" horiz-adv-x="655" 
d="M53 221h75q-1 -73 46 -120q56 -57 163 -57q100 0 148 47q39 39 39 94q0 48 -31 83q-35 38 -134 56l-70 13q-131 25 -176 75q-41 47 -41 111q0 103 84 157q65 42 175 42q120 0 191 -64q53 -53 61 -137h-74q-6 60 -46 97q-44 41 -138 41q-73 0 -117 -27q-58 -36 -58 -104
q0 -41 27 -70q33 -34 124 -51l66 -13q134 -26 184 -73q51 -47 51 -129q0 -94 -60 -151q-67 -60 -198 -60q-153 0 -226 73q-65 65 -65 167z" />
    <glyph glyph-name="afii10055" unicode="&#x406;" horiz-adv-x="258" 
d="M92 700h74v-700h-74v700z" />
    <glyph glyph-name="afii10056" unicode="&#x407;" horiz-adv-x="279" 
d="M102 700h74v-700h-74v700zM33 772v74h75v-74h-75zM171 772v74h75v-74h-75z" />
    <glyph glyph-name="afii10057" unicode="&#x408;" horiz-adv-x="516" 
d="M30 225h74v-6q0 -108 44 -147q30 -30 88 -30q53 0 86 31q41 40 41 145v482h74v-472q0 -136 -56 -195q-52 -54 -149 -54q-94 0 -143 48q-59 59 -59 194v4z" />
    <glyph glyph-name="afii10058" unicode="&#x409;" horiz-adv-x="1050" 
d="M581 407h200q116 0 176 -60q53 -53 53 -140q0 -100 -57 -154q-56 -53 -167 -53h-279v637h-264v-207q0 -119 -13 -207q-16 -119 -77 -180q-45 -45 -118 -45q-11 0 -35 2v65q57 -11 98 27q44 44 59 145q12 72 12 202v261h412v-293zM581 344v-281h199q78 0 117 39
q37 37 37 104q0 64 -37 98q-40 40 -128 40h-188z" />
    <glyph glyph-name="afii10059" unicode="&#x40a;" horiz-adv-x="1085" 
d="M616 407h200q116 0 176 -60q53 -53 53 -140q0 -100 -57 -154q-56 -53 -167 -53h-279v344h-376v-344h-74v700h74v-293h376v293h74v-293zM804 344h-188v-281h199q78 0 117 39q37 37 37 104q0 64 -37 98q-40 40 -128 40z" />
    <glyph glyph-name="afii10060" unicode="&#x40b;" horiz-adv-x="751" 
d="M679 0h-74v218q0 64 -25 89q-32 32 -156 32q-87 0 -141 -7v-332h-74v637h-203v63h509v-63h-232v-242q112 7 162 7q147 0 194 -47q40 -40 40 -130v-225z" />
    <glyph glyph-name="afii10061" unicode="&#x40c;" horiz-adv-x="614" 
d="M166 379l335 321h93l-347 -325l367 -375h-100l-348 366v-366h-74v700h74v-321zM346 900h92l-99 -140h-65z" />
    <glyph glyph-name="afii10062" unicode="&#x40e;" 
d="M318 254l179 446h79l-227 -557q-33 -82 -63 -112q-41 -41 -115 -41q-37 0 -70 10v64q29 -10 64 -10q41 0 67 24q28 28 47 90l-266 532h91zM401 887h63q-9 -54 -41 -86q-46 -46 -123 -46q-83 0 -129 46q-32 34 -41 86h63q4 -36 24 -57q27 -28 80 -28t80 28q20 21 24 57z
" />
    <glyph glyph-name="afii10145" unicode="&#x40f;" horiz-adv-x="710" 
d="M544 63v637h74v-700h-229v-185h-68v185h-229v700h74v-637h378z" />
    <glyph glyph-name="afii10017" unicode="&#x410;" horiz-adv-x="621" 
d="M158 201l-75 -201h-80l266 700h83l266 -700h-81l-74 201h-305zM179 264h262l-131 365z" />
    <glyph glyph-name="afii10018" unicode="&#x411;" horiz-adv-x="667" 
d="M166 637v-233h240q104 0 158 -54q57 -55 57 -149t-60 -150q-58 -51 -172 -51h-297v700h483v-63h-409zM166 342v-279h212q88 0 128 38q39 34 39 98q0 69 -40 104q-46 39 -128 39h-211z" />
    <glyph glyph-name="afii10019" unicode="&#x412;" horiz-adv-x="694" 
d="M92 700h293q111 0 161 -50q46 -46 46 -125q0 -66 -44 -113q-32 -32 -74 -41v-2q62 -9 102 -49q46 -46 46 -125q0 -83 -50 -135q-57 -60 -196 -60h-284v700zM166 637v-242h201q82 0 116 34t34 90q0 52 -31 83q-38 35 -113 35h-207zM166 332v-269h206q90 0 133 33
q41 36 41 103q0 73 -46 105q-38 28 -129 28h-205z" />
    <glyph glyph-name="afii10020" unicode="&#x413;" horiz-adv-x="537" 
d="M166 637v-637h-74v700h439v-63h-365z" />
    <glyph glyph-name="afii10021" unicode="&#x414;" horiz-adv-x="717" 
d="M603 63h101l-8 -221h-65v158h-558v-158h-66l-7 221h64q77 104 111 226q30 109 30 271v140h398v-637zM529 637h-256v-89q0 -199 -51 -341q-28 -79 -75 -144h382v574z" />
    <glyph glyph-name="afii10022" unicode="&#x415;" horiz-adv-x="611" 
d="M166 394h374v-63h-374v-268h421v-63h-495v700h483v-63h-409v-243z" />
    <glyph glyph-name="afii10024" unicode="&#x416;" horiz-adv-x="882" 
d="M404 0v357l-313 -357h-91l332 375l-321 325h88l305 -315v315h74v-315l306 315h88l-321 -325l331 -375h-90l-314 357v-357h-74z" />
    <glyph glyph-name="afii10025" unicode="&#x417;" horiz-adv-x="666" 
d="M53 208h74q4 -75 53 -120q49 -46 152 -46q101 0 150 49q42 42 42 107q0 47 -18.5 76t-41.5 42q-41 23 -112 23h-90v63h83q77 0 116 33q35 31 35 88q0 70 -54 106q-45 29 -118 29q-84 0 -126 -32q-52 -40 -56 -111h-74q3 85 61 143q66 63 198 63q125 0 191 -59
q53 -51 53 -132q0 -70 -39 -111q-33 -33 -81 -44v-2q61 -6 101 -48q48 -51 48 -126q0 -99 -62 -157q-66 -63 -208 -63q-143 0 -212 71q-61 64 -65 158z" />
    <glyph glyph-name="afii10026" unicode="&#x418;" horiz-adv-x="731" 
d="M166 106l397 594h76v-700h-74v597l-397 -597h-76v700h74v-594z" />
    <glyph glyph-name="afii10027" unicode="&#x419;" horiz-adv-x="731" 
d="M166 106l397 594h76v-700h-74v597l-397 -597h-76v700h74v-594zM471 862h63q-9 -54 -41 -86q-46 -46 -123 -46q-83 0 -129 46q-32 34 -41 86h63q4 -36 24 -57q27 -28 80 -28t80 28q20 21 24 57z" />
    <glyph glyph-name="afii10028" unicode="&#x41a;" horiz-adv-x="614" 
d="M166 379l335 321h93l-347 -325l367 -375h-100l-348 366v-366h-74v700h74v-321z" />
    <glyph glyph-name="afii10029" unicode="&#x41b;" horiz-adv-x="671" 
d="M0 0v65q57 -11 98 27q44 44 59 145q12 72 12 202v261h410v-700h-74v637h-268v-207q0 -119 -13 -207q-16 -119 -77 -180q-47 -45 -116 -45q-9 0 -31 2z" />
    <glyph glyph-name="afii10030" unicode="&#x41c;" horiz-adv-x="878" 
d="M407 0l-241 608h-2l2 -27v-581h-74v700h112l235 -603l236 603h111v-700h-74v581l2 27h-3l-240 -608h-64z" />
    <glyph glyph-name="afii10031" unicode="&#x41d;" horiz-adv-x="708" 
d="M166 338v-338h-74v700h74v-299h376v299h74v-700h-74v338h-376z" />
    <glyph glyph-name="afii10032" unicode="&#x41e;" horiz-adv-x="790" 
d="M392 721q140 0 226 -80q106 -99 106 -291q0 -194 -104 -292q-83 -79 -223 -79q-150 0 -231 81q-12 10 -25.5 29t-32 53.5t-30.5 89.5t-12 118q0 186 102 288q83 83 224 83zM396 658q-99 0 -163 -57q-89 -81 -89 -255q0 -157 78 -238q66 -66 174 -66q104 0 171 67
q79 79 79 239q0 170 -90 254q-61 56 -160 56z" />
    <glyph glyph-name="afii10033" unicode="&#x41f;" horiz-adv-x="708" 
d="M166 637v-637h-74v700h524v-700h-74v637h-376z" />
    <glyph glyph-name="afii10034" unicode="&#x420;" horiz-adv-x="637" 
d="M92 700h272q123 0 180 -54q53 -49 53 -143q0 -98 -52 -150q-26 -28 -65 -42.5t-64 -16.5t-62 -2h-188v-292h-74v700zM166 637v-282h183q90 0 132 38q40 36 40 106q0 62 -37 99q-42 39 -135 39h-183z" />
    <glyph glyph-name="afii10035" unicode="&#x421;" horiz-adv-x="733" 
d="M608 228h75q-13 -107 -81 -175q-74 -74 -211 -74q-144 0 -228 87q-97 101 -97 285q0 190 98 285q89 85 224 85q141 0 219 -74q62 -62 68 -157h-75q-5 64 -50 112q-54 56 -156 56q-105 0 -167 -61q-82 -81 -82 -235q0 -174 86 -257q63 -63 165 -63q92 0 151 55
q56 56 61 131z" />
    <glyph glyph-name="afii10036" unicode="&#x422;" horiz-adv-x="550" 
d="M238 637h-232v63h538v-63h-232v-637h-74v637z" />
    <glyph glyph-name="afii10037" unicode="&#x423;" 
d="M318 254l179 446h79l-227 -557q-33 -82 -63 -112q-41 -41 -115 -41q-37 0 -70 10v64q29 -10 64 -10q41 0 67 24q28 28 47 90l-266 532h91z" />
    <glyph glyph-name="afii10038" unicode="&#x424;" horiz-adv-x="880" 
d="M403 -23v107h-51q-153 0 -228 72q-76 72 -76 199q0 114 66 189q76 84 243 84h46v103h74v-103h46q164 0 243 -84q66 -70 66 -185q0 -125 -76 -201q-75 -74 -228 -74h-51v-107h-74zM477 144h44q117 0 174 52q59 58 59 163q0 98 -57 153q-59 56 -183 56h-37v-424zM403 144
v424h-37q-124 0 -183 -56q-57 -55 -57 -153q0 -105 59 -163q55 -52 174 -52h44z" />
    <glyph glyph-name="afii10039" unicode="&#x425;" horiz-adv-x="585" 
d="M293 412l187 288h91l-230 -342l240 -358h-95l-193 304l-194 -304h-95l240 358l-230 342h91z" />
    <glyph glyph-name="afii10040" unicode="&#x426;" horiz-adv-x="731" 
d="M166 63h378v637h74v-637h100l-7 -221h-65v158h-554v700h74v-637z" />
    <glyph glyph-name="afii10041" unicode="&#x427;" horiz-adv-x="634" 
d="M72 700h74v-215q0 -62 23 -86q31 -34 152 -34q68 0 147 7v328h74v-700h-74v309q-86 -7 -153 -7q-151 0 -200 43q-43 38 -43 134v221z" />
    <glyph glyph-name="afii10042" unicode="&#x428;" horiz-adv-x="1028" 
d="M166 63h311v637h74v-637h311v637h74v-700h-844v700h74v-637z" />
    <glyph glyph-name="afii10043" unicode="&#x429;" horiz-adv-x="1052" 
d="M166 700v-637h312v637h74v-637h311v637h74v-637h102l-7 -221h-66v158h-874v700h74z" />
    <glyph glyph-name="afii10044" unicode="&#x42a;" horiz-adv-x="702" 
d="M233 700v-293h200q109 0 169 -54q60 -52 60 -149q0 -102 -59 -154q-55 -50 -164 -50h-280v637h-155v63h229zM233 344v-281h199q77 0 114 35q40 38 40 105t-42 105q-41 36 -124 36h-187z" />
    <glyph glyph-name="afii10045" unicode="&#x42b;" horiz-adv-x="843" 
d="M166 700v-293h200q109 0 169 -54q60 -56 60 -149t-55 -148q-56 -56 -168 -56h-280v700h74zM166 344v-281h198q82 0 119 40q36 37 36 100q0 64 -39 101q-42 40 -133 40h-181zM677 700h74v-700h-74v700z" />
    <glyph glyph-name="afii10046" unicode="&#x42c;" horiz-adv-x="635" 
d="M166 700v-293h200q116 0 176 -60q53 -53 53 -140q0 -100 -57 -154q-56 -53 -167 -53h-279v700h74zM166 344v-281h199q78 0 117 39q37 37 37 104q0 64 -37 98q-40 40 -128 40h-188z" />
    <glyph glyph-name="afii10047" unicode="&#x42d;" horiz-adv-x="733" 
d="M240 394h349q-6 141 -84 212q-61 53 -156 53q-87 0 -137 -36q-66 -46 -75 -126h-75q10 120 107 180q73 45 180 45q119 0 196 -59q59 -45 90.5 -127t31.5 -183q0 -99 -32.5 -185.5t-90.5 -133.5q-71 -58 -195 -58q-137 0 -215 78q-69 69 -84 180h75q10 -85 66 -139
q57 -56 155 -56q87 0 143 42q41 30 65.5 85t29.5 93t5 73h-349v62z" />
    <glyph glyph-name="afii10048" unicode="&#x42e;" horiz-adv-x="999" 
d="M166 401h111q11 151 102 238q86 82 224 82q141 0 223 -78q107 -102 107 -301q0 -190 -103 -286q-80 -77 -222 -77q-145 0 -229 79q-52 50 -78 124.5t-26 155.5h-109v-338h-74v700h74v-299zM604 42q109 0 175 68q76 77 76 234q0 168 -85 253q-64 61 -169 61
q-100 0 -164 -62q-84 -80 -84 -246q0 -169 85 -247q63 -61 166 -61z" />
    <glyph glyph-name="afii10049" unicode="&#x42f;" horiz-adv-x="687" 
d="M521 288h-186l-174 -288h-89l186 295q-84 7 -132 55q-54 52 -54 144q0 96 56 148q60 58 183 58h284v-700h-74v288zM521 637h-208q-83 0 -124 -38q-41 -36 -41 -104q0 -63 34 -100q42 -44 142 -44h197v286z" />
    <glyph glyph-name="afii10065" unicode="&#x430;" horiz-adv-x="556" 
d="M134 362h-67q0 84 66 131q50 35 143 35q102 0 149 -47q43 -43 41 -119l-6 -253q0 -36 10 -47q17 -20 46 -12v-50q-12 -4 -37 -4q-40 0 -59 19q-24 24 -22 66q-26 -43 -66 -65q-49 -28 -119 -28q-83 0 -125 41q-42 39 -42 107q0 59 37 96q42 42 161 55l33 4q8 1 32 3.5
t36 4.5q30 5 40 15q12 13 12 49q0 58 -31 87q-32 28 -96 28q-73 0 -104 -31q-30 -30 -32 -85zM393 217l2 52q-13 -12 -40 -17q-32 -6 -90 -11l-20 -2q-76 -9 -103 -35q-24 -24 -24 -69q0 -42 26 -68q26 -29 80 -29q66 0 109 35q55 45 60 144z" />
    <glyph glyph-name="afii10066" unicode="&#x431;" horiz-adv-x="612" 
d="M461 730h61q-4 -45 -31 -70q-26 -25 -90 -33q-17 -2 -54 -6.5t-57 -8.5q-70 -14 -107 -51q-58 -55 -58 -166h2q16 45 49 74q56 51 146 51q107 0 168 -63q69 -72 69 -199q0 -60 -18.5 -119t-56.5 -97q-37 -37 -76 -49.5t-92 -12.5q-112 0 -169 60q-79 83 -79 266
q0 230 83 310q41 41 114 57q43 9 109 15q51 6 66 14q14 8 21 28zM141 257q0 -129 61 -187q40 -40 111 -40q73 0 112 37q61 56 61 176q0 129 -56 185q-43 42 -117 42q-71 0 -112 -40q-60 -58 -60 -173z" />
    <glyph glyph-name="afii10067" unicode="&#x432;" horiz-adv-x="535" 
d="M79 508h223q47 0 74.5 -6.5t51.5 -30.5q33 -33 33 -84q0 -55 -36 -89q-22 -21 -53 -29v-2q50 -14 75 -39q33 -33 33 -90q0 -60 -37 -97q-42 -41 -144 -41h-220v508zM148 458v-167h133q62 0 89 29q21 22 21 60q0 32 -19 52q-25 26 -86 26h-138zM148 241v-191h138
q70 0 97 27q26 26 26 69q0 40 -24 64q-29 31 -102 31h-135z" />
    <glyph glyph-name="afii10068" unicode="&#x433;" horiz-adv-x="420" 
d="M148 458v-458h-69v508h335v-50h-266z" />
    <glyph glyph-name="afii10069" unicode="&#x434;" horiz-adv-x="590" 
d="M4 50h61q43 69 63 134q10 32 15 72.5t5.5 72t0.5 96.5v83h345v-458h88l-5 -182h-60v132h-447v-132h-60zM425 458h-211v-76q0 -115 -21 -198q-20 -74 -57 -134h289v408z" />
    <glyph glyph-name="afii10070" unicode="&#x435;" 
d="M451 147h66q-13 -62 -55 -108q-57 -59 -162 -59q-110 0 -172 59q-75 73 -75 217q0 138 70 208q64 64 172 64q104 0 162 -60q38 -39 50.5 -92t15.5 -135h-398q4 -108 54 -161q45 -50 124 -50q65 0 105 38q27 24 43 79zM294 478q-78 0 -122 -49q-47 -54 -47 -138h325
q0 35 -13 79t-36 67q-39 41 -107 41z" />
    <glyph glyph-name="afii10072" unicode="&#x436;" horiz-adv-x="677" 
d="M304 0v256l-218 -256h-86l239 267l-225 241h82l208 -234v234h69v-234l208 234h82l-225 -241l239 -267h-86l-218 256v-256h-69z" />
    <glyph glyph-name="afii10073" unicode="&#x437;" horiz-adv-x="512" 
d="M40 152h66q0 -56 37 -89q36 -33 112 -33q69 0 103 30q33 29 33 84q0 49 -31 75q-29 24 -92 24h-80v50h71q59 0 87 22q29 24 29 64q0 48 -33 75q-31 24 -91 24q-59 0 -90 -24q-36 -28 -37 -79h-66q4 63 45 104q49 49 154 49q100 0 148 -47q40 -37 40 -100q0 -49 -32 -81
q-26 -23 -57 -28v-2q41 -8 70 -35q36 -34 36 -92q0 -84 -59 -128q-49 -35 -148 -35q-115 0 -166 49q-49 49 -49 123z" />
    <glyph glyph-name="afii10074" unicode="&#x438;" horiz-adv-x="586" 
d="M148 80l281 428h78v-508h-69v429l-280 -429h-79v508h69v-428z" />
    <glyph glyph-name="afii10075" unicode="&#x439;" horiz-adv-x="586" 
d="M148 80l281 428h78v-508h-69v429l-280 -429h-79v508h69v-428zM392 700h58q-7 -51 -41 -85q-42 -40 -116 -40t-116 40q-34 34 -41 85h58q5 -37 27 -59q24 -23 72 -23t72 23q22 22 27 59z" />
    <glyph glyph-name="afii10076" unicode="&#x43a;" horiz-adv-x="476" 
d="M148 280l231 228h82l-245 -236l260 -272h-86l-242 259v-259h-69v508h69v-228z" />
    <glyph glyph-name="afii10077" unicode="&#x43b;" horiz-adv-x="540" 
d="M6 0v52q44 -11 76 20q36 36 44 117q5 39 5 117v24v178h330v-508h-69v458h-196v-127q0 -68 -7 -145q-12 -88 -35 -125q-9 -15 -20 -26q-50 -49 -128 -35z" />
    <glyph glyph-name="afii10078" unicode="&#x43c;" horiz-adv-x="719" 
d="M330 0l-182 427h-2l2 -27v-400h-69v508h95l185 -433l185 433h96v-508h-69v400l2 27h-2l-183 -427h-58z" />
    <glyph glyph-name="afii10079" unicode="&#x43d;" horiz-adv-x="566" 
d="M148 244v-244h-69v508h69v-214h270v214h69v-508h-69v244h-270z" />
    <glyph glyph-name="afii10080" unicode="&#x43e;" horiz-adv-x="592" 
d="M296 528q103 0 166 -59q77 -73 77 -215q0 -143 -81 -218q-61 -56 -161 -56q-106 0 -164 56q-33 28 -56.5 83t-23.5 135q0 138 77 215q59 59 166 59zM296 479q-71 0 -113 -42q-58 -58 -58 -182q0 -128 62 -186q43 -39 109 -39q68 0 108 38q62 57 62 187q0 119 -53 177
q-45 47 -117 47z" />
    <glyph glyph-name="afii10081" unicode="&#x43f;" horiz-adv-x="570" 
d="M148 458v-458h-69v508h412v-508h-69v458h-274z" />
    <glyph glyph-name="afii10082" unicode="&#x440;" horiz-adv-x="595" 
d="M79 508h66v-75h2q24 36 63 65q46 30 108 30q91 0 150 -55q74 -74 74 -214q0 -127 -56.5 -203t-159.5 -76q-67 0 -113 28q-40 25 -65 70v-263h-69v693zM144 252q0 -117 58 -175q45 -47 113 -47q57 0 98 41q57 60 57 186q0 122 -60 182q-39 39 -102 39q-58 0 -103 -40
q-61 -55 -61 -186z" />
    <glyph glyph-name="afii10083" unicode="&#x441;" horiz-adv-x="547" 
d="M441 178h66q-9 -91 -66 -148q-31 -31 -65.5 -40.5t-81.5 -9.5q-106 0 -164 56q-77 74 -77 223q0 133 65 203q58 66 172 66q100 0 155 -53q47 -47 57 -120h-66q-5 47 -35 80q-38 43 -106 43q-71 0 -116 -45q-53 -53 -53 -172q0 -127 61 -188q43 -43 108 -43t101 38
q40 43 45 110z" />
    <glyph glyph-name="afii10084" unicode="&#x442;" horiz-adv-x="434" 
d="M183 458h-177v50h422v-50h-176v-458h-69v458z" />
    <glyph glyph-name="afii10085" unicode="&#x443;" horiz-adv-x="479" 
d="M89 -184v52q15 -4 39 -4q32 0 49 15q16 14 29 56l21 65l-214 508h83l168 -431l146 431h69l-209 -585q-25 -68 -45 -86q-28 -26 -80 -26q-28 0 -56 5z" />
    <glyph glyph-name="afii10086" unicode="&#x444;" horiz-adv-x="783" 
d="M357 -185v172q-155 -6 -237 83q-67 74 -67 187q0 121 66 187q47 48 115 63.5t123 12.5v180h69v-180q154 4 233 -73q71 -68 71 -187q0 -124 -72 -196q-83 -83 -232 -77v-172h-69zM357 37v433q-117 5 -177 -57q-55 -57 -55 -156q0 -102 58 -160q58 -60 174 -60zM426 470
v-433q113 -2 175 60q57 57 57 161q0 103 -55 155q-32 30 -81.5 44.5t-95.5 12.5z" />
    <glyph glyph-name="afii10087" unicode="&#x445;" horiz-adv-x="463" 
d="M231 310l137 198h79l-175 -243l191 -265h-81l-151 221l-151 -221h-80l191 265l-175 243h78z" />
    <glyph glyph-name="afii10088" unicode="&#x446;" horiz-adv-x="586" 
d="M147 50h274v458h69v-458h88l-5 -182h-60v132h-434v508h68v-458z" />
    <glyph glyph-name="afii10089" unicode="&#x447;" horiz-adv-x="502" 
d="M53 508h69v-166q0 -43 16 -59q13 -13 40 -17t84 -4q5 0 92 3v243h69v-508h-69v215q-57 -4 -118 -4q-123 0 -158 35q-25 27 -25 88v174z" />
    <glyph glyph-name="afii10090" unicode="&#x448;" horiz-adv-x="814" 
d="M147 50h225v458h69v-458h225v458h69v-508h-656v508h68v-458z" />
    <glyph glyph-name="afii10091" unicode="&#x449;" horiz-adv-x="831" 
d="M148 50h225v458h68v-458h226v458h68v-458h88l-6 -182h-60v132h-678v508h69v-458z" />
    <glyph glyph-name="afii10092" unicode="&#x44a;" horiz-adv-x="577" 
d="M6 458v50h199v-204h159q92 0 136 -44q37 -37 37 -105q0 -67 -38 -109q-46 -46 -136 -46h-227v458h-130zM205 254v-204h134q73 0 101 31q26 28 26 75q0 46 -26 70q-30 28 -95 28h-140z" />
    <glyph glyph-name="afii10093" unicode="&#x44b;" horiz-adv-x="693" 
d="M79 508h69v-204h133h31q65 0 103 -24q66 -41 66 -125q0 -90 -65 -130q-42 -25 -110 -25h-227v508zM148 254v-204h134q59 0 87 20q40 28 40 83q0 51 -29 76q-28 25 -98 25h-134zM545 508h69v-508h-69v508z" />
    <glyph glyph-name="afii10094" unicode="&#x44c;" horiz-adv-x="520" 
d="M79 508h69v-205h138q89 0 128 -23q66 -39 66 -126q0 -69 -40 -109q-45 -45 -135 -45h-226v508zM148 253v-203h134q56 0 85 19q42 26 42 84q0 48 -26 72q-28 28 -94 28h-141z" />
    <glyph glyph-name="afii10095" unicode="&#x44d;" horiz-adv-x="546" 
d="M189 241v50h232q0 64 -27 113q-43 74 -135 74q-72 0 -112 -42q-29 -31 -34 -81h-67q6 80 63 127q55 46 151 46q108 0 166 -58q67 -67 67 -210q0 -137 -52 -203q-58 -77 -178 -77q-108 0 -162 54q-54 52 -61 139h68q2 -49 26 -83q40 -60 133 -60q50 0 80.5 20.5t49.5 63.5
q26 59 24 127h-232z" />
    <glyph glyph-name="afii10096" unicode="&#x44e;" horiz-adv-x="769" 
d="M148 293h84q5 108 73 173q65 62 169 62q102 0 166 -60q76 -76 76 -213q0 -142 -80 -219q-59 -56 -160 -56q-104 0 -166 57q-38 37 -58.5 93t-20.5 113h-83v-243h-69v508h69v-215zM304 255q0 -125 56 -181q44 -44 116 -44q63 0 104 37q63 59 63 188t-62 186
q-40 37 -107 37q-71 0 -113 -42q-57 -57 -57 -181z" />
    <glyph glyph-name="afii10097" unicode="&#x44f;" horiz-adv-x="533" 
d="M247 207l-131 -207h-76l137 208q-53 7 -86 40q-41 39 -41 105q0 71 39 111q42 44 125 44h240v-508h-69v207h-138zM385 458h-140q-24 0 -36.5 -1t-29.5 -7t-30 -19q-28 -26 -28 -74q0 -45 27 -70q30 -30 102 -30h135v201z" />
    <glyph glyph-name="afii10071" unicode="&#x451;" 
d="M145 616v84h71v-84h-71zM367 616v84h72v-84h-72zM294 478q-73 0 -122 -49q-47 -54 -47 -138h325q0 35 -13 79t-36 67q-39 41 -107 41zM295 528q104 0 162 -60q38 -39 50.5 -92t15.5 -135h-398q4 -108 54 -161q45 -50 124 -50q65 0 105 38q27 24 43 79h66
q-13 -62 -55 -108q-57 -59 -162 -59q-110 0 -172 59q-75 73 -75 217q0 138 70 208q64 64 172 64z" />
    <glyph glyph-name="afii10099" unicode="&#x452;" horiz-adv-x="568" 
d="M79 700h69v-66h215v-45h-215v-155q27 41 62 64q43 30 104 30q83 0 127 -47q36 -39 47 -107t11 -187q0 -113 -14.5 -192.5t-62.5 -127.5q-52 -52 -136 -52h-7v52h6q51 0 83 28q21 19 34 48.5t17.5 74t5.5 72t1 82.5q0 125 -8.5 187t-36.5 90q-29 29 -80 29q-57 0 -100 -40
q-53 -53 -53 -154v-284h-69v589h-80v45h80v66z" />
    <glyph glyph-name="afii10100" unicode="&#x453;" horiz-adv-x="420" 
d="M148 458v-458h-69v508h335v-50h-266zM264 700h86l-95 -132h-61z" />
    <glyph glyph-name="afii10101" unicode="&#x454;" horiz-adv-x="550" 
d="M365 291v-50h-239q0 -52 15 -98t42 -73q40 -40 107 -40q71 0 111 40q38 41 43 106h66q-5 -93 -63 -146q-53 -50 -156 -50q-106 0 -164 58q-74 74 -74 221q0 138 67 207q61 62 167 62q100 0 163 -53q48 -45 54 -120h-66q-4 50 -36 82q-41 41 -111 41q-68 0 -110 -38
q-25 -24 -40 -65.5t-15 -83.5h239z" />
    <glyph glyph-name="afii10102" unicode="&#x455;" horiz-adv-x="495" 
d="M40 148h70q0 -51 35 -84q34 -34 110 -34q62 0 95 27q34 28 34 79q0 36 -27 59q-21 19 -84 33l-56 12q-95 22 -124 51q-34 34 -34 88q0 75 63 119q46 30 126 30q97 0 150 -50q42 -40 43 -102h-67q0 44 -28 72q-32 30 -99 30q-63 0 -93 -30q-23 -23 -23 -62q0 -35 26 -58
q22 -18 81 -33l53 -12q5 -1 18.5 -4.5t19 -5t17 -5t18.5 -6t16 -6t16.5 -8t13.5 -9.5q45 -33 45 -97q0 -83 -60 -126q-48 -36 -143 -36q-109 0 -163 54q-41 44 -49 114z" />
    <glyph glyph-name="afii10103" unicode="&#x456;" horiz-adv-x="223" 
d="M77 508h69v-508h-69v508zM76 616v84h71v-84h-71z" />
    <glyph glyph-name="afii10104" unicode="&#x457;" horiz-adv-x="249" 
d="M90 508h69v-508h-69v508zM29 616v84h72v-84h-72zM148 616v84h72v-84h-72z" />
    <glyph glyph-name="afii10105" unicode="&#x458;" horiz-adv-x="227" 
d="M81 508h69v-556q0 -83 -29 -112q-28 -28 -90 -28q-19 0 -38 3v51h4q44 0 64 16q20 18 20 73v553zM79 616v84h72v-84h-72z" />
    <glyph glyph-name="afii10106" unicode="&#x459;" horiz-adv-x="833" 
d="M461 303h138q89 0 128 -23q66 -39 66 -126q0 -69 -40 -109q-45 -45 -135 -45h-226v458h-196v-127q0 -68 -7 -145q-12 -88 -35 -125q-9 -15 -20 -26q-50 -49 -128 -35v52q44 -11 76 20q36 36 44 117q5 39 5 117v24v178h330v-205zM461 253v-203h134q56 0 85 19q42 26 42 84
q0 48 -26 72q-28 28 -94 28h-141z" />
    <glyph glyph-name="afii10107" unicode="&#x45a;" horiz-adv-x="859" 
d="M418 508h69v-205h138q89 0 128 -23q66 -39 66 -126q0 -69 -40 -109q-45 -45 -135 -45h-226v253h-270v-253h-69v508h69v-205h270v205zM487 253v-203h134q56 0 85 19q42 26 42 84q0 48 -26 72q-28 28 -94 28h-141z" />
    <glyph glyph-name="afii10108" unicode="&#x45b;" horiz-adv-x="566" 
d="M79 700h69v-66h215v-45h-215v-155q21 38 62 64q47 30 109 30q81 0 125 -44q20 -20 30 -46.5t11.5 -45.5t1.5 -49v-343h-69v316v31q0 67 -29 98q-30 33 -83 33q-67 0 -111 -46q-47 -50 -47 -148v-284h-69v589h-80v45h80v66z" />
    <glyph glyph-name="afii10109" unicode="&#x45c;" horiz-adv-x="476" 
d="M148 280l231 228h82l-245 -236l260 -272h-86l-242 259v-259h-69v508h69v-228zM279 700h86l-95 -132h-61z" />
    <glyph glyph-name="afii10110" unicode="&#x45e;" horiz-adv-x="479" 
d="M346 700h58q-7 -51 -41 -85q-42 -40 -116 -40t-116 40q-34 34 -41 85h58q5 -37 27 -59q24 -23 72 -23t72 23q22 22 27 59zM89 -184v52q15 -4 39 -4q32 0 49 15q16 14 29 56l21 65l-214 508h83l168 -431l146 431h69l-209 -585q-25 -68 -45 -86q-28 -26 -80 -26
q-28 0 -56 5z" />
    <glyph glyph-name="afii10193" unicode="&#x45f;" horiz-adv-x="571" 
d="M423 50v458h69v-508h-175v-185h-63v185h-175v508h69v-458h275z" />
    <glyph glyph-name="afii10146" unicode="&#x462;" horiz-adv-x="702" 
d="M233 700v-89h220v-63h-220v-141h200q116 0 176 -60q53 -53 53 -140q0 -100 -57 -154q-56 -53 -166 -53h-280v548h-155v63h155v89h74zM233 344v-281h199q78 0 117 39q37 37 37 104q0 64 -37 98q-40 40 -128 40h-188z" />
    <glyph glyph-name="afii10194" unicode="&#x463;" horiz-adv-x="577" 
d="M6 458v50h130v192h69v-192h186v-50h-186v-154h132q92 0 134 -24q66 -39 66 -126q0 -69 -40 -109q-45 -45 -135 -45h-226v458h-130zM205 253v-203h134q56 0 85 19q42 26 42 84q0 48 -26 72q-28 28 -94 28h-141z" />
    <glyph glyph-name="afii10147" unicode="&#x472;" horiz-adv-x="790" 
d="M396 658q-106 0 -172 -66q-72 -74 -78 -208h499q-3 60 -23 116.5t-54 91.5q-66 66 -172 66zM395 42q108 0 174 68q35 35 55.5 93t20.5 124h-500q0 -63 20 -122.5t57 -96.5q66 -66 173 -66zM393 721q142 0 228 -81q103 -98 103 -295q0 -191 -103 -287q-86 -79 -228 -79
q-141 0 -226 82q-44 42 -72.5 114t-28.5 171q0 194 102 291q90 84 225 84z" />
    <glyph glyph-name="afii10195" unicode="&#x473;" horiz-adv-x="592" 
d="M296 478q-71 0 -112 -41q-51 -51 -58 -155h340q-7 104 -59 156q-41 40 -111 40zM296 30q67 0 111 41q51 49 59 161h-340q0 -36 13 -82t44 -77q43 -43 113 -43zM296 528q103 0 166 -59q77 -73 77 -215q0 -143 -81 -218q-61 -56 -161 -56q-106 0 -164 56q-33 28 -56.5 83
t-23.5 135q0 138 77 215q59 59 166 59z" />
    <glyph glyph-name="afii10148" unicode="&#x474;" horiz-adv-x="696" 
d="M297 76l141 468q28 89 60 121q41 42 114 42q32 0 71 -9v-65q-27 10 -60 10q-48 0 -75 -28q-21 -21 -42 -86l-164 -529h-91l-247 700h82z" />
    <glyph glyph-name="afii10196" unicode="&#x475;" horiz-adv-x="517" 
d="M229 70l101 323q21 65 46 89q33 30 93 30q25 0 42 -4v-53q-11 4 -31 4q-37 0 -57 -20q-19 -19 -35 -69l-119 -370h-80l-189 508h76z" />
    <glyph glyph-name="afii10050" unicode="&#x490;" horiz-adv-x="539" 
d="M166 637v-637h-74v700h369v158h65l7 -221h-367z" />
    <glyph glyph-name="afii10098" unicode="&#x491;" horiz-adv-x="420" 
d="M148 458v-458h-69v508h269v132h60l6 -182h-266z" />
    <glyph glyph-name="uni0492" unicode="&#x492;" horiz-adv-x="619" 
d="M218 388h240v-63h-240v-325h-74v325h-124v63h124v312h455v-63h-381v-249z" />
    <glyph glyph-name="uni0493" unicode="&#x493;" horiz-adv-x="439" 
d="M433 508v-50h-266v-164h118v-50h-118v-244h-69v244h-88v50h88v214h335z" />
    <glyph glyph-name="uni049A" unicode="&#x49a;" horiz-adv-x="634" 
d="M166 379l335 321h93l-347 -325l303 -312h84l-7 -221h-65v158h-48l-348 366v-366h-74v700h74v-321z" />
    <glyph glyph-name="uni049B" unicode="&#x49b;" horiz-adv-x="494" 
d="M79 508h69v-228l231 228h82l-245 -236l212 -222h76l-5 -182h-60v132h-49l-242 259v-259h-69v508z" />
    <glyph glyph-name="uni04A2" unicode="&#x4a2;" horiz-adv-x="729" 
d="M166 338v-338h-74v700h74v-299h377v299h74v-637h99l-7 -221h-65v158h-101v338h-377z" />
    <glyph glyph-name="uni04A3" unicode="&#x4a3;" horiz-adv-x="583" 
d="M148 244v-244h-69v508h69v-214h270v214h69v-458h88l-5 -182h-60v132h-92v244h-270z" />
    <glyph glyph-name="uni04AE" unicode="&#x4ae;" horiz-adv-x="603" 
d="M302 366l209 334h88l-260 -401v-299h-74v299l-261 401h89z" />
    <glyph glyph-name="uni04AF" unicode="&#x4af;" horiz-adv-x="472" 
d="M212 -185v185l-209 508h81l165 -428l149 428h71l-187 -508v-185h-70z" />
    <glyph glyph-name="uni04B0" unicode="&#x4b0;" horiz-adv-x="603" 
d="M302 366l209 334h88l-260 -401v-84h162v-63h-162v-152h-74v152h-162v63h162v84l-261 401h89z" />
    <glyph glyph-name="uni04B1" unicode="&#x4b1;" horiz-adv-x="472" 
d="M212 -185v95h-128v50h128v40l-209 508h81l165 -428l149 428h71l-187 -508v-40h128v-50h-128v-95h-70z" />
    <glyph glyph-name="uni04BA" unicode="&#x4ba;" horiz-adv-x="635" 
d="M563 0h-74v248q0 63 -24 87q-32 33 -160 33q-71 0 -139 -7v-361h-74v700h74v-276q75 7 158 7q46 0 74.5 -2t65 -12t56.5 -30q43 -41 43 -132v-255z" />
    <glyph glyph-name="uni04BB" unicode="&#x4bb;" horiz-adv-x="566" 
d="M79 700h69v-266q21 38 62 64q47 30 109 30q81 0 125 -44q20 -20 30 -46.5t11.5 -45.5t1.5 -49v-343h-69v316v31q0 67 -29 98q-30 33 -83 33q-67 0 -111 -46q-47 -50 -47 -148v-284h-69v700z" />
    <glyph glyph-name="uni04C1" unicode="&#x4c1;" horiz-adv-x="882" 
d="M404 0v357l-313 -357h-91l332 375l-321 325h88l305 -315v315h74v-315l306 315h88l-321 -325l331 -375h-90l-314 357v-357h-74zM545 862h63q-9 -54 -41 -86q-46 -46 -123 -46q-83 0 -129 46q-32 34 -41 86h63q4 -36 24 -57q27 -28 80 -28t80 28q20 21 24 57z" />
    <glyph glyph-name="uni04C2" unicode="&#x4c2;" horiz-adv-x="677" 
d="M304 0v256l-218 -256h-86l239 267l-225 241h82l208 -234v234h69v-234l208 234h82l-225 -241l239 -267h-86l-218 256v-256h-69zM437 700h58q-7 -51 -41 -85q-42 -40 -116 -40t-116 40q-34 34 -41 85h58q5 -37 27 -59q24 -23 72 -23t72 23q22 22 27 59z" />
    <glyph glyph-name="uni04D0" unicode="&#x4d0;" horiz-adv-x="621" 
d="M414 887h63q-9 -54 -41 -86q-46 -46 -123 -46q-83 0 -129 46q-32 34 -41 86h63q4 -36 24 -57q27 -28 80 -28t80 28q20 21 24 57zM158 201l-75 -201h-80l266 700h83l266 -700h-81l-74 201h-305zM179 264h262l-131 365z" />
    <glyph glyph-name="uni04D1" unicode="&#x4d1;" horiz-adv-x="556" 
d="M371 700h58q-7 -51 -41 -85q-42 -40 -116 -40t-116 40q-34 34 -41 85h58q5 -37 27 -59q24 -23 72 -23t72 23q22 22 27 59zM134 362h-67q0 84 66 131q50 35 143 35q102 0 149 -47q43 -43 41 -119l-6 -253q0 -36 10 -47q17 -20 46 -12v-50q-12 -4 -37 -4q-40 0 -59 19
q-24 24 -22 66q-26 -43 -66 -65q-49 -28 -119 -28q-83 0 -125 41q-42 39 -42 107q0 59 37 96q42 42 161 55l33 4q8 1 32 3.5t36 4.5q30 5 40 15q12 13 12 49q0 58 -31 87q-32 28 -96 28q-73 0 -104 -31q-30 -30 -32 -85zM393 217l2 52q-13 -12 -40 -17q-32 -6 -90 -11
l-20 -2q-76 -9 -103 -35q-24 -24 -24 -69q0 -42 26 -68q26 -29 80 -29q66 0 109 35q55 45 60 144z" />
    <glyph glyph-name="uni04D2" unicode="&#x4d2;" horiz-adv-x="621" 
d="M171 772v74h75v-74h-75zM375 772v74h75v-74h-75zM158 201l-75 -201h-80l266 700h83l266 -700h-81l-74 201h-305zM179 264h262l-131 365z" />
    <glyph glyph-name="uni04D3" unicode="&#x4d3;" horiz-adv-x="556" 
d="M151 616v84h72v-84h-72zM354 616v84h71v-84h-71zM150 362h-67q0 84 66 131q50 35 143 35q102 0 149 -47q43 -43 41 -119l-6 -253q0 -36 10 -47q17 -20 46 -12v-50q-12 -4 -37 -4q-40 0 -59 19q-24 24 -22 66q-26 -43 -66 -65q-49 -28 -119 -28q-83 0 -125 41
q-42 39 -42 107q0 59 37 96q42 42 161 55l33 4q8 1 32 3.5t36 4.5q30 5 40 15q12 13 12 49q0 58 -31 87q-32 28 -96 28q-73 0 -104 -31q-30 -30 -32 -85zM409 217l2 52q-13 -12 -40 -17q-32 -6 -90 -11l-20 -2q-76 -9 -103 -35q-24 -24 -24 -69q0 -42 26 -68q26 -29 80 -29
q66 0 109 35q55 45 60 144z" />
    <glyph glyph-name="uni04D4" unicode="&#x4d4;" horiz-adv-x="971" 
d="M452 0v197h-255l-108 -197h-89l390 700h546v-63h-410v-243h374v-63h-374v-268h421v-63h-495zM452 260v377h-18l-204 -377h222z" />
    <glyph glyph-name="uni04D5" unicode="&#x4d5;" horiz-adv-x="916" 
d="M136 362h-67q0 92 76 137q47 29 128 29q76 0 118 -25q40 -23 60 -64q24 36 60 60q46 29 118 29q112 0 172 -62q36 -37 49 -88t13 -127v-10h-396q0 -105 55 -164q46 -47 118 -47q71 0 111 40q27 27 40 77h67q-18 -71 -58 -111q-56 -56 -161 -56q-84 0 -136 34
q-47 29 -74 88q-24 -53 -74 -86q-54 -33 -131 -33q-94 0 -138 43q-40 38 -40 107q0 60 38 98q29 28 67.5 39.5t97.5 17.5l38 4l30 2.5t31 3.5q33 8 41 17q10 14 10 54q0 53 -30 80q-31 29 -96 29q-61 0 -93 -22q-42 -29 -44 -94zM398 234v35q-10 -9 -30 -14q-24 -7 -62 -10
q-69 -6 -84 -9q-56 -9 -79 -32q-26 -26 -26 -66q0 -49 30 -77q28 -27 80 -27q78 0 125 49q46 48 46 151zM468 291h325q0 91 -48 144q-43 43 -110 43q-76 0 -119 -47q-41 -46 -48 -140z" />
    <glyph glyph-name="uni04D6" unicode="&#x4d6;" horiz-adv-x="611" 
d="M441 887h63q-9 -54 -41 -86q-46 -46 -123 -46q-83 0 -129 46q-32 34 -41 86h63q4 -36 24 -57q27 -28 80 -28t80 28q20 21 24 57zM166 394h374v-63h-374v-268h421v-63h-495v700h483v-63h-409v-243z" />
    <glyph glyph-name="uni04D7" unicode="&#x4d7;" 
d="M391 700h58q-7 -51 -41 -85q-42 -40 -116 -40t-116 40q-34 34 -41 85h58q5 -37 27 -59q24 -23 72 -23t72 23q22 22 27 59zM451 147h66q-13 -62 -55 -108q-57 -59 -162 -59q-110 0 -172 59q-75 73 -75 217q0 138 70 208q64 64 172 64q104 0 162 -60q38 -39 50.5 -92
t15.5 -135h-398q4 -108 54 -161q45 -50 124 -50q65 0 105 38q27 24 43 79zM294 478q-78 0 -122 -49q-47 -54 -47 -138h325q0 35 -13 79t-36 67q-39 41 -107 41z" />
    <glyph glyph-name="uni04D8" unicode="&#x4d8;" horiz-adv-x="745" 
d="M602 332h-470q0 -167 72 -237q60 -56 156 -56q107 0 164 57q36 36 57 102t21 134zM154 497h-78q23 91 78 146q73 79 214 79q119 0 197 -64q15 -11 30 -29.5t36 -53t34.5 -89.5t13.5 -120q0 -100 -29 -190t-86 -137q-75 -63 -206 -63q-134 0 -207 77q-54 58 -75 150
t-14 191h539q0 20 -4 48.5t-22.5 77t-49.5 79.5q-62 60 -160 60q-92 0 -150 -54q-43 -38 -61 -108z" />
    <glyph glyph-name="afii10846" unicode="&#x4d9;" 
d="M125 361h-66q13 62 55 108q57 59 162 59q110 0 172 -59q75 -75 75 -217q0 -138 -70 -208q-64 -64 -172 -64q-105 0 -162 60q-38 39 -50.5 92t-15.5 135h398q-4 108 -54 161q-45 50 -124 50q-65 0 -105 -38q-39 -38 -43 -79zM451 217h-325q0 -35 13 -79t36 -67
q39 -41 107 -41q78 0 122 49q47 54 47 138z" />
    <glyph glyph-name="uni04DC" unicode="&#x4dc;" horiz-adv-x="882" 
d="M404 0v357l-313 -357h-91l332 375l-321 325h88l305 -315v315h74v-315l306 315h88l-321 -325l331 -375h-90l-314 357v-357h-74zM301 772v74h75v-74h-75zM505 772v74h75v-74h-75z" />
    <glyph glyph-name="uni04DD" unicode="&#x4dd;" horiz-adv-x="677" 
d="M304 0v256l-218 -256h-86l239 267l-225 241h82l208 -234v234h69v-234l208 234h82l-225 -241l239 -267h-86l-218 256v-256h-69zM200 616v84h72v-84h-72zM403 616v84h71v-84h-71z" />
    <glyph glyph-name="uni04DE" unicode="&#x4de;" horiz-adv-x="666" 
d="M53 208h74q4 -75 53 -120q49 -46 152 -46q101 0 150 49q42 42 42 107q0 47 -18.5 76t-41.5 42q-41 23 -112 23h-90v63h83q77 0 116 33q35 31 35 88q0 70 -54 106q-45 29 -118 29q-84 0 -126 -32q-52 -40 -56 -111h-74q3 85 61 143q66 63 198 63q125 0 191 -59
q53 -51 53 -132q0 -70 -39 -111q-33 -33 -81 -44v-2q61 -6 101 -48q48 -51 48 -126q0 -99 -62 -157q-66 -63 -208 -63q-143 0 -212 71q-61 64 -65 158zM180 772v74h75v-74h-75zM384 772v74h75v-74h-75z" />
    <glyph glyph-name="uni04DF" unicode="&#x4df;" horiz-adv-x="512" 
d="M40 152h66q0 -56 37 -89q36 -33 112 -33q69 0 103 30q33 29 33 84q0 49 -31 75q-29 24 -92 24h-80v50h71q59 0 87 22q29 24 29 64q0 48 -33 75q-31 24 -91 24q-59 0 -90 -24q-36 -28 -37 -79h-66q4 63 45 104q49 49 154 49q100 0 148 -47q40 -37 40 -100q0 -49 -32 -81
q-26 -23 -57 -28v-2q41 -8 70 -35q36 -34 36 -92q0 -84 -59 -128q-49 -35 -148 -35q-115 0 -166 49q-49 49 -49 123zM119 616v84h72v-84h-72zM322 616v84h71v-84h-71z" />
    <glyph glyph-name="uni04E2" unicode="&#x4e2;" horiz-adv-x="731" 
d="M166 106l397 594h76v-700h-74v597l-397 -597h-76v700h74v-594zM211 778v49h309v-49h-309z" />
    <glyph glyph-name="uni04E3" unicode="&#x4e3;" horiz-adv-x="586" 
d="M148 80l281 428h78v-508h-69v429l-280 -429h-79v508h69v-428zM145 620v46h309v-46h-309z" />
    <glyph glyph-name="uni04E4" unicode="&#x4e4;" horiz-adv-x="731" 
d="M166 106l397 594h76v-700h-74v597l-397 -597h-76v700h74v-594zM226 772v74h75v-74h-75zM430 772v74h75v-74h-75z" />
    <glyph glyph-name="uni04E5" unicode="&#x4e5;" horiz-adv-x="586" 
d="M148 80l281 428h78v-508h-69v429l-280 -429h-79v508h69v-428zM165 616v84h72v-84h-72zM368 616v84h71v-84h-71z" />
    <glyph glyph-name="uni04E6" unicode="&#x4e6;" horiz-adv-x="790" 
d="M255 772v74h75v-74h-75zM459 772v74h75v-74h-75zM392 721q140 0 226 -80q106 -99 106 -291q0 -194 -104 -292q-83 -79 -223 -79q-150 0 -231 81q-12 10 -25.5 29t-32 53.5t-30.5 89.5t-12 118q0 186 102 288q83 83 224 83zM396 658q-99 0 -163 -57q-89 -81 -89 -255
q0 -157 78 -238q66 -66 174 -66q104 0 171 67q79 79 79 239q0 170 -90 254q-61 56 -160 56z" />
    <glyph glyph-name="uni04E7" unicode="&#x4e7;" horiz-adv-x="592" 
d="M160 616v84h72v-84h-72zM363 616v84h71v-84h-71zM296 528q103 0 166 -59q77 -73 77 -215q0 -143 -81 -218q-61 -56 -161 -56q-106 0 -164 56q-33 28 -56.5 83t-23.5 135q0 138 77 215q59 59 166 59zM296 479q-71 0 -113 -42q-58 -58 -58 -182q0 -128 62 -186
q43 -39 109 -39q68 0 108 38q62 57 62 187q0 119 -53 177q-45 47 -117 47z" />
    <glyph glyph-name="uni04E8" unicode="&#x4e8;" horiz-adv-x="790" 
d="M396 658q-106 0 -172 -66q-72 -74 -78 -208h499q-3 60 -23 116.5t-54 91.5q-66 66 -172 66zM395 42q108 0 174 68q35 35 55.5 93t20.5 124h-500q0 -63 20 -122.5t57 -96.5q66 -66 173 -66zM393 721q142 0 228 -81q103 -98 103 -295q0 -191 -103 -287q-86 -79 -228 -79
q-141 0 -226 82q-44 42 -72.5 114t-28.5 171q0 194 102 291q90 84 225 84z" />
    <glyph glyph-name="uni04E9" unicode="&#x4e9;" horiz-adv-x="592" 
d="M296 478q-71 0 -112 -41q-51 -51 -58 -155h340q-7 104 -59 156q-41 40 -111 40zM296 30q67 0 111 41q51 49 59 161h-340q0 -36 13 -82t44 -77q43 -43 113 -43zM296 528q103 0 166 -59q77 -73 77 -215q0 -143 -81 -218q-61 -56 -161 -56q-106 0 -164 56q-33 28 -56.5 83
t-23.5 135q0 138 77 215q59 59 166 59z" />
    <glyph glyph-name="uni04EA" unicode="&#x4ea;" horiz-adv-x="790" 
d="M396 658q-106 0 -172 -66q-72 -74 -78 -208h499q-3 60 -23 116.5t-54 91.5q-66 66 -172 66zM395 42q108 0 174 68q35 35 55.5 93t20.5 124h-500q0 -63 20 -122.5t57 -96.5q66 -66 173 -66zM393 721q142 0 228 -81q103 -98 103 -295q0 -191 -103 -287q-86 -79 -228 -79
q-141 0 -226 82q-44 42 -72.5 114t-28.5 171q0 194 102 291q90 84 225 84zM255 772v74h75v-74h-75zM459 772v74h75v-74h-75z" />
    <glyph glyph-name="uni04EB" unicode="&#x4eb;" horiz-adv-x="592" 
d="M296 478q-71 0 -112 -41q-51 -51 -58 -155h340q-7 104 -59 156q-41 40 -111 40zM296 30q67 0 111 41q51 49 59 161h-340q0 -36 13 -82t44 -77q43 -43 113 -43zM296 528q103 0 166 -59q77 -73 77 -215q0 -143 -81 -218q-61 -56 -161 -56q-106 0 -164 56q-33 28 -56.5 83
t-23.5 135q0 138 77 215q59 59 166 59zM155 616v84h72v-84h-72zM358 616v84h71v-84h-71z" />
    <glyph glyph-name="uni04EE" unicode="&#x4ee;" 
d="M318 254l179 446h79l-227 -557q-33 -82 -63 -112q-41 -41 -115 -41q-37 0 -70 10v64q29 -10 64 -10q41 0 67 24q28 28 47 90l-266 532h91zM145 778v49h309v-49h-309z" />
    <glyph glyph-name="uni04EF" unicode="&#x4ef;" horiz-adv-x="479" 
d="M95 620v46h309v-46h-309zM89 -184v52q15 -4 39 -4q32 0 49 15q16 14 29 56l21 65l-214 508h83l168 -431l146 431h69l-209 -585q-25 -68 -45 -86q-28 -26 -80 -26q-28 0 -56 5z" />
    <glyph glyph-name="uni04F0" unicode="&#x4f0;" 
d="M318 254l179 446h79l-227 -557q-33 -82 -63 -112q-41 -41 -115 -41q-37 0 -70 10v64q29 -10 64 -10q41 0 67 24q28 28 47 90l-266 532h91zM160 772v74h75v-74h-75zM364 772v74h75v-74h-75z" />
    <glyph glyph-name="uni04F1" unicode="&#x4f1;" horiz-adv-x="479" 
d="M110 616v84h72v-84h-72zM313 616v84h71v-84h-71zM89 -184v52q15 -4 39 -4q32 0 49 15q16 14 29 56l21 65l-214 508h83l168 -431l146 431h69l-209 -585q-25 -68 -45 -86q-28 -26 -80 -26q-28 0 -56 5z" />
    <glyph glyph-name="uni04F2" unicode="&#x4f2;" 
d="M318 254l179 446h79l-227 -557q-33 -82 -63 -112q-41 -41 -115 -41q-37 0 -70 10v64q29 -10 64 -10q41 0 67 24q28 28 47 90l-266 532h91zM250 900h86l-95 -140h-61zM393 900h86l-95 -140h-61z" />
    <glyph glyph-name="uni04F3" unicode="&#x4f3;" horiz-adv-x="479" 
d="M200 700h86l-95 -132h-61zM343 700h86l-95 -132h-61zM89 -184v52q15 -4 39 -4q32 0 49 15q16 14 29 56l21 65l-214 508h83l168 -431l146 431h69l-209 -585q-25 -68 -45 -86q-28 -26 -80 -26q-28 0 -56 5z" />
    <glyph glyph-name="uni04F4" unicode="&#x4f4;" horiz-adv-x="634" 
d="M72 700h74v-215q0 -62 23 -86q31 -34 152 -34q68 0 147 7v328h74v-700h-74v309q-86 -7 -153 -7q-151 0 -200 43q-43 38 -43 134v221zM170 772v74h75v-74h-75zM374 772v74h75v-74h-75z" />
    <glyph glyph-name="uni04F5" unicode="&#x4f5;" horiz-adv-x="502" 
d="M53 508h69v-166q0 -43 16 -59q13 -13 40 -17t84 -4q5 0 92 3v243h69v-508h-69v215q-57 -4 -118 -4q-123 0 -158 35q-25 27 -25 88v174zM100 616v84h72v-84h-72zM303 616v84h71v-84h-71z" />
    <glyph glyph-name="uni04F8" unicode="&#x4f8;" horiz-adv-x="843" 
d="M166 700v-293h200q109 0 169 -54q60 -56 60 -149t-55 -148q-56 -56 -168 -56h-280v700h74zM166 344v-281h198q82 0 119 40q36 37 36 100q0 64 -39 101q-42 40 -133 40h-181zM677 700h74v-700h-74v700zM282 772v74h75v-74h-75zM486 772v74h75v-74h-75z" />
    <glyph glyph-name="uni04F9" unicode="&#x4f9;" horiz-adv-x="693" 
d="M79 508h69v-204h133h31q65 0 103 -24q66 -41 66 -125q0 -90 -65 -130q-42 -25 -110 -25h-227v508zM148 254v-204h134q59 0 87 20q40 28 40 83q0 51 -29 76q-28 25 -98 25h-134zM545 508h69v-508h-69v508zM205 616v84h72v-84h-72zM408 616v84h71v-84h-71z" />
    <glyph glyph-name="uni1E9E" unicode="&#x1e9e;" horiz-adv-x="1277" 
d="M673 221h75q-1 -73 46 -120q56 -57 163 -57q100 0 148 47q39 39 39 94q0 48 -31 83q-35 38 -134 56l-70 13q-131 25 -176 75q-41 47 -41 111q0 103 84 157q65 42 175 42q120 0 191 -64q53 -53 61 -137h-74q-6 60 -46 97q-44 41 -138 41q-73 0 -117 -27q-58 -36 -58 -104
q0 -41 27 -70q33 -34 124 -51l66 -13q134 -26 184 -73q51 -47 51 -129q0 -94 -60 -151q-67 -60 -198 -60q-153 0 -226 73q-65 65 -65 167zM53 221h75q-1 -73 46 -120q56 -57 163 -57q100 0 148 47q39 39 39 94q0 48 -31 83q-35 38 -134 56l-70 13q-131 25 -176 75
q-41 47 -41 111q0 103 84 157q65 42 175 42q120 0 191 -64q53 -53 61 -137h-74q-6 60 -46 97q-44 41 -138 41q-73 0 -117 -27q-58 -36 -58 -104q0 -41 27 -70q33 -34 124 -51l66 -13q134 -26 184 -73q51 -47 51 -129q0 -94 -60 -151q-67 -60 -198 -60q-153 0 -226 73
q-65 65 -65 167z" />
    <glyph glyph-name="uni2010" unicode="&#x2010;" horiz-adv-x="404" 
d="M70 227v79h264v-79h-264z" />
    <glyph glyph-name="uni2011" unicode="&#x2011;" horiz-adv-x="404" 
d="M70 227v79h264v-79h-264z" />
    <glyph glyph-name="figuredash" unicode="&#x2012;" horiz-adv-x="600" 
d="M50 384h500v-48h-500v48z" />
    <glyph glyph-name="endash" unicode="&#x2013;" horiz-adv-x="600" 
d="M50 290h500v-48h-500v48z" />
    <glyph glyph-name="emdash" unicode="&#x2014;" horiz-adv-x="984" 
d="M50 242v48h884v-48h-884z" />
    <glyph glyph-name="afii00208" unicode="&#x2015;" horiz-adv-x="984" 
d="M50 242v48h884v-48h-884z" />
    <glyph glyph-name="quoteleft" unicode="&#x2018;" horiz-adv-x="300" 
d="M190 482h-80v115q0 65 29 94q19 19 51 27v-46q-21 -7 -30 -23q-10 -18 -10 -51v-22h40v-94z" />
    <glyph glyph-name="quoteright" unicode="&#x2019;" horiz-adv-x="300" 
d="M110 700h80v-115q0 -65 -29 -94q-19 -19 -51 -27v46q21 7 30 23q10 18 10 51v22h-40v94z" />
    <glyph glyph-name="quotesinglbase" unicode="&#x201a;" horiz-adv-x="300" 
d="M110 94h80v-115q0 -65 -29 -94q-19 -19 -51 -27v46q21 7 30 23q10 18 10 51v22h-40v94z" />
    <glyph glyph-name="quotedblleft" unicode="&#x201c;" horiz-adv-x="368" 
d="M150 482h-80v115q0 65 29 94q19 19 51 27v-46q-21 -7 -30 -23q-10 -18 -10 -51v-22h40v-94zM298 482h-80v115q0 65 29 94q19 19 51 27v-46q-21 -7 -30 -23q-10 -18 -10 -51v-22h40v-94z" />
    <glyph glyph-name="quotedblright" unicode="&#x201d;" horiz-adv-x="368" 
d="M218 699h80v-115q0 -65 -29 -94q-19 -19 -51 -27v46q21 7 30 23q10 18 10 51v22h-40v94zM70 699h80v-115q0 -65 -29 -94q-19 -19 -51 -27v46q21 7 30 23q10 18 10 51v22h-40v94z" />
    <glyph glyph-name="quotedblbase" unicode="&#x201e;" horiz-adv-x="367" 
d="M70 94h80v-115q0 -65 -29 -94q-19 -19 -51 -27v46q21 7 30 23q10 18 10 51v22h-40v94zM217 94h80v-115q0 -65 -29 -94q-19 -19 -51 -27v46q21 7 30 23q10 18 10 51v22h-40v94z" />
    <glyph glyph-name="dagger" unicode="&#x2020;" horiz-adv-x="500" 
d="M218 700h64v-192h185v-54h-185v-639h-64v639h-185v54h185v192z" />
    <glyph glyph-name="daggerdbl" unicode="&#x2021;" horiz-adv-x="500" 
d="M218 700h64v-192h185v-54h-185v-206h185v-54h-185v-379h-64v379h-185v54h185v206h-185v54h185v192z" />
    <glyph glyph-name="bullet" unicode="&#x2022;" horiz-adv-x="522" 
d="M170 350q0 38 26.5 64.5t64.5 26.5t64.5 -26.5t26.5 -64.5t-26.5 -64.5t-64.5 -26.5t-64.5 26.5t-26.5 64.5z" />
    <glyph glyph-name="ellipsis" unicode="&#x2026;" horiz-adv-x="889" 
d="M110 0v94h80v-94h-80zM405 0v94h80v-94h-80zM700 0v94h79v-94h-79z" />
    <glyph glyph-name="perthousand" unicode="&#x2030;" horiz-adv-x="1277" 
d="M214 708q63 0 109 -43q55 -55 55 -151q0 -107 -56 -163q-43 -43 -105 -43q-65 0 -109 44q-55 55 -55 156q0 97 54 155q43 45 107 45zM212 663q-36 0 -61 -25q-41 -41 -41 -128q0 -88 37 -128q26 -29 68 -29q38 0 67 29q40 44 40 129q0 83 -41 124q-28 28 -69 28zM182 0
l474 700h58l-474 -700h-58zM674 392q63 0 109 -43q55 -55 55 -151q0 -107 -56 -163q-43 -43 -105 -43q-65 0 -109 44q-55 55 -55 156q0 97 54 155q43 45 107 45zM672 347q-36 0 -61 -25q-41 -41 -41 -128q0 -88 37 -128q26 -29 68 -29q38 0 67 29q40 44 40 129q0 83 -41 124
q-28 28 -69 28zM1060 392q63 0 109 -43q55 -55 55 -151q0 -107 -56 -163q-43 -43 -105 -43q-65 0 -109 44q-55 55 -55 156q0 97 54 155q43 45 107 45zM1058 347q-36 0 -61 -25q-41 -41 -41 -128q0 -88 37 -128q26 -29 68 -29q38 0 67 29q40 44 40 129q0 83 -41 124
q-28 28 -69 28z" />
    <glyph glyph-name="guilsinglleft" unicode="&#x2039;" horiz-adv-x="286" 
d="M98 273l113 -95v-68l-149 131v65l149 131v-68z" />
    <glyph glyph-name="guilsinglright" unicode="&#x203a;" horiz-adv-x="286" 
d="M187 273l-112 96v68l149 -131v-65l-149 -131v68z" />
    <glyph glyph-name="fraction" unicode="&#x2044;" horiz-adv-x="200" 
d="M-150 0l464 700h36l-464 -700h-36z" />
    <glyph glyph-name="Euro" unicode="&#x20ac;" 
d="M528 125v-80q-33 -24 -73 -42q-58 -24 -116 -24q-123 0 -191 79q-63 71 -76 193h-92l25 58h61q-2 41 0 76h-86l23 58h69q12 115 80 194q73 84 199 84q65 0 120 -30q46 -26 77 -69l-35 -65q-27 46 -73 76q-41 25 -93 25q-89 0 -141 -60q-53 -61 -59 -155h322l-23 -58h-302
q-1 -39 0 -76h273l-25 -58h-242q7 -93 62 -153q54 -56 134 -56q52 0 105 26q37 18 77 57z" />
    <glyph glyph-name="afii61352" unicode="&#x2116;" horiz-adv-x="1079" 
d="M166 589v-589h-74v700h85l393 -589v589h74v-700h-84zM732 138v65h291v-65h-291zM878 293q-67 0 -110 43q-48 48 -48 140q0 89 46 140q40 45 112 45t112 -45q46 -51 46 -140q0 -92 -48 -140q-43 -43 -110 -43zM783 477q0 -73 33 -107q25 -25 61 -25q37 0 62 25
q34 36 34 107q0 70 -34 107q-25 25 -62 25q-36 0 -61 -25q-33 -34 -33 -107z" />
    <glyph glyph-name="uni2117" unicode="&#x2117;" horiz-adv-x="800" 
d="M292 178v350h153q61 0 91 -28q26 -26 26 -69q0 -48 -25 -73q-35 -35 -119 -35h-70v-145h-56zM348 486v-121h84q39 0 57 19q16 16 16 44q0 23 -14 39q-19 19 -62 19h-81zM105 349q0 -133 95 -224q83 -82 200 -82t199 79q45 42 70.5 103t25.5 125t-25.5 124t-69.5 103
q-85 80 -200 80t-200 -80q-44 -43 -69.5 -103t-25.5 -125zM50 352q0 146 110 253q101 95 240 95q69 0 133.5 -27t110.5 -71q47 -47 76.5 -113t29.5 -139q0 -150 -110 -254q-100 -96 -240 -96q-139 0 -240 95q-110 102 -110 257z" />
    <glyph glyph-name="trademark" unicode="&#x2122;" horiz-adv-x="811" 
d="M133 654h-113v46h288v-46h-113v-304h-62v304zM550 350l-103 272h-3l3 -45v-227h-61v350h80l96 -247l9 -35h3l8 35l95 247h81v-350h-62v227l4 45h-4l-103 -272h-43z" />
    <glyph glyph-name="partialdiff" unicode="&#x2202;" horiz-adv-x="565" 
d="M234 695l12 38q56 -8 122.5 -32t109.5 -63q73 -71 73 -200q0 -60 -8 -121t-35.5 -137t-72.5 -122q-76 -78 -203 -78q-99 0 -149 57q-48 55 -48 142q0 83 38.5 164.5t102.5 122.5q67 42 156 42q73 0 112 -29q36 -25 50 -75h3q9 132 -63 204q-56 56 -200 87zM242 30
q81 0 139 60q40 42 59 106.5t19 118.5q0 77 -39 113q-32 30 -95 30q-85 0 -138 -60q-33 -34 -56 -95.5t-23 -123.5q0 -72 37 -111q38 -38 97 -38z" />
    <glyph glyph-name="product" unicode="&#x220f;" horiz-adv-x="697" 
d="M160 637v-637h-74v637h-44v63h613v-63h-45v-637h-74v637h-376z" />
    <glyph glyph-name="summation" unicode="&#x2211;" horiz-adv-x="547" 
d="M509 700v-63h-359l214 -267l-229 -307h388v-63h-479v57l234 313l-220 272v58h451z" />
    <glyph glyph-name="minus" unicode="&#x2212;" horiz-adv-x="600" 
d="M50 379h500v-48h-500v48z" />
    <glyph glyph-name="uni2215" unicode="&#x2215;" horiz-adv-x="100" 
d="M-200 0l453 700h47l-453 -700h-47z" />
    <glyph glyph-name="uni2219" unicode="&#x2219;" horiz-adv-x="300" 
d="M110 220v95h80v-95h-80z" />
    <glyph glyph-name="radical" unicode="&#x221a;" horiz-adv-x="637" 
d="M219 500l120 -413l114 742h164v-48h-115l-141 -881h-51l-169 552h-121v48h199z" />
    <glyph glyph-name="infinity" unicode="&#x221e;" horiz-adv-x="990" 
d="M474 300q-31 -37 -79 -74q-73 -54 -151 -54q-76 0 -126 50q-48 48 -48 126q0 73 48 123q55 58 164 58q77 0 130 -33q49 -31 97 -95q49 59 88 86q60 41 143 41q84 0 131 -46q49 -47 49 -123q0 -85 -55 -136q-54 -51 -150 -51q-84 0 -154 46q-48 33 -87 82zM448 333
q-35 54 -77 94q-63 61 -132 61q-52 0 -88 -36q-37 -37 -37 -99q0 -61 39 -100t101 -39q61 0 120 47q39 31 74 72zM538 371q36 -50 79 -89q63 -59 132 -59q55 0 91 36t36 97q0 58 -34 92q-38 38 -110 38q-63 0 -113 -34q-16 -10 -31.5 -24.5t-24.5 -25t-16.5 -20.5t-8.5 -11z
" />
    <glyph glyph-name="integral" unicode="&#x222b;" horiz-adv-x="309" 
d="M158 130l-85 236q-18 53 -27 85q-12 49 -12 99q0 91 42 133q36 38 101 38q48 0 71 -23q17 -17 17 -46q0 -19 -12 -31q-10 -10 -29 -10q-22 0 -33 11q-5 4 -12 22q-7 21 -10 24q-8 8 -23 8q-20 0 -33 -12q-22 -20 -22 -62q0 -39 20 -103q4 -14 40 -114l85 -236
q17 -43 27 -85q12 -60 12 -99q0 -91 -42 -133q-36 -38 -101 -38q-48 0 -71 23q-17 17 -17 46q0 19 12 31q10 10 29 10q22 0 33 -11q5 -5 12 -22q7 -21 10 -24q8 -8 23 -8q19 0 33 12q22 20 22 62q0 39 -20 103q-4 14 -40 114z" />
    <glyph glyph-name="approxequal" unicode="&#x2248;" horiz-adv-x="591" 
d="M84 392l-34 14q17 52 48 83q37 37 87 37q35 0 79 -23l96 -51q32 -17 56 -17q41 0 65 33q20 25 25 46l35 -14q-18 -50 -50 -84q-35 -36 -81 -36q-39 0 -83 23l-98 53q-28 15 -56 15q-34 0 -55 -23q-21 -21 -34 -56zM84 197l-34 14q17 52 48 83q37 37 87 37q35 0 79 -23
l96 -51q32 -17 56 -17q41 0 65 33q20 25 25 46l35 -14q-18 -50 -50 -84q-35 -36 -81 -36q-39 0 -83 23l-98 53q-28 15 -56 15q-34 0 -55 -23q-21 -21 -34 -56z" />
    <glyph glyph-name="notequal" unicode="&#x2260;" horiz-adv-x="600" 
d="M50 469h293l73 125l43 -25l-58 -100h149v-48h-177l-88 -152h265v-48h-293l-73 -125l-43 25l59 100h-150v48h177l88 152h-265v48z" />
    <glyph glyph-name="lessequal" unicode="&#x2264;" horiz-adv-x="663" 
d="M60 391v40l495 289l24 -44l-459 -265l459 -265l-24 -44zM60 231l24 43l495 -288l-24 -44z" />
    <glyph glyph-name="greaterequal" unicode="&#x2265;" horiz-adv-x="663" 
d="M603 391l-495 -289l-24 44l459 265l-459 265l24 44l495 -289v-40zM603 231l-495 -289l-24 44l495 288z" />
    <glyph glyph-name="dotmath" unicode="&#x22c5;" horiz-adv-x="300" 
d="M110 220v95h80v-95h-80z" />
    <glyph glyph-name="lozenge" unicode="&#x25ca;" horiz-adv-x="414" 
d="M312 350l-105 229l-105 -229l105 -229zM362 350l-155 -335l-155 335l155 335z" />
    <glyph glyph-name="openbullet" unicode="&#x25e6;" horiz-adv-x="264" 
d="M76 605q0 -23 16.5 -39.5t39.5 -16.5t39.5 16.5t16.5 39.5t-16.5 39.5t-39.5 16.5t-39.5 -16.5t-16.5 -39.5zM37 605q0 39 28 67t67 28t67 -28t28 -67t-28 -67t-67 -28t-67 28t-28 67z" />
    <glyph glyph-name="uniF401" unicode="&#xf401;" horiz-adv-x="2" 
d="M-340 900h92l-99 -140h-65z" />
    <glyph glyph-name="uniF406" unicode="&#xf406;" horiz-adv-x="434" 
d="M321 887h63q-9 -54 -41 -86q-46 -46 -123 -46q-83 0 -129 46q-32 34 -41 86h63q4 -36 24 -57q27 -28 80 -28t80 28q20 21 24 57z" />
    <glyph glyph-name="uniF407" unicode="&#xf407;" horiz-adv-x="298" 
d="M43 -232l14 45q23 -8 58 -8q58 0 75 18q11 11 11 31q0 21 -13 30q-18 16 -72 16h-31l12 42h28q86 0 116 -30q21 -21 21 -53q0 -44 -25 -69q-30 -30 -111 -30q-40 0 -83 8z" />
    <glyph glyph-name="uniF408" unicode="&#xf408;" horiz-adv-x="453" 
d="M169 900h115l119 -132h-68l-109 105l-108 -105h-68z" />
    <glyph glyph-name="uniF409" unicode="&#xf409;" horiz-adv-x="179" 
d="M50 -60h79v-88q0 -53 -25 -78q-21 -21 -54 -25v46q17 3 27 13q13 13 13 39v12h-40v81z" />
    <glyph glyph-name="uniF40A" unicode="&#xf40a;" horiz-adv-x="180" 
d="M50 700h80v-115q0 -65 -29 -94q-19 -19 -51 -27v46q21 7 30 23q10 18 10 51v22h-40v94z" />
    <glyph glyph-name="uniF40B" unicode="&#xf40b;" horiz-adv-x="175" 
d="M50 772v74h75v-74h-75z" />
    <glyph glyph-name="uniF40C" unicode="&#xf40c;" horiz-adv-x="296" 
d="M50 832q0 41 28.5 69.5t69.5 28.5t69.5 -28.5t28.5 -69.5t-28.5 -69.5t-69.5 -28.5t-69.5 28.5t-28.5 69.5zM86 832q0 -22 16.5 -42t45.5 -20q26 0 44 18t18 44t-18 44t-44 18q-29 0 -45.5 -20t-16.5 -42z" />
    <glyph glyph-name="uniF40D" unicode="&#xf40d;" horiz-adv-x="472" 
d="M372 860h50q-14 -51 -40 -77q-25 -25 -61 -25q-45 0 -84 26l-24 16q-2 1 -6.5 4t-6.5 4.5t-6 3.5t-6.5 3t-7 2.5t-8 2t-8.5 1t-11 0.5q-23 0 -37 -14q-14 -17 -16 -39h-50q7 42 35 70q30 30 72 30q39 0 74 -24l24 -17q30 -22 63 -22q19 0 32 13q17 16 22 42z" />
    <glyph glyph-name="uniF40E" unicode="&#xf40e;" horiz-adv-x="341" 
d="M120 0h71q-33 -20 -52 -45q-22 -29 -22 -65q0 -28 16 -42q13 -13 39 -13q25 0 42 15q20 19 22 50h57q-4 -48 -38 -82q-35 -32 -91 -32t-87 28q-29 25 -29 68q0 40 23 72q18 26 49 46z" />
    <glyph glyph-name="uniF47E" unicode="&#xf47e;" horiz-adv-x="695" 
d="M79 700h74v-420q0 -39 2 -65t12.5 -59.5t30.5 -54.5q51 -56 150 -56t148 54q46 50 46 181v420h74v-428q0 -45 -3.5 -76.5t-20.5 -74.5t-49 -74q-68 -65 -196 -65q-130 0 -198 63q-70 66 -70 227v428zM305 772v74h75v-74h-75z" />
    <glyph glyph-name="uniF47F" unicode="&#xf47f;" horiz-adv-x="567" 
d="M488 0h-69v73h-2q-28 -46 -66 -67q-42 -26 -110 -26q-75 0 -118 43q-44 43 -44 142v343h69v-316q0 -50 6 -80.5t27 -51.5q30 -30 80 -30q66 0 113 48q45 48 45 146v284h69v-508zM250 616v84h74v-84h-74z" />
    <glyph glyph-name="uniF481" unicode="&#xf481;" horiz-adv-x="621" 
d="M158 201l-75 -201h-80l266 700h83l266 -700h-81l-74 201h-305zM179 264h262l-131 365zM208 -232l14 45q23 -8 58 -8q58 0 75 18q11 11 11 31q0 21 -13 30q-18 16 -72 16h-31l12 42h28q86 0 116 -30q21 -21 21 -53q0 -44 -25 -69q-30 -30 -111 -30q-40 0 -83 8z" />
    <glyph glyph-name="uniF482" unicode="&#xf482;" horiz-adv-x="556" 
d="M134 362h-67q0 84 66 131q50 35 143 35q102 0 149 -47q43 -43 41 -119l-6 -253q0 -36 10 -47q17 -20 46 -12v-50q-12 -4 -37 -4q-40 0 -59 19q-24 24 -22 66q-26 -43 -66 -65q-49 -28 -119 -28q-83 0 -125 41q-42 39 -42 107q0 59 37 96q42 42 161 55l33 4q8 1 32 3.5
t36 4.5q30 5 40 15q12 13 12 49q0 58 -31 87q-32 28 -96 28q-73 0 -104 -31q-30 -30 -32 -85zM393 217l2 52q-13 -12 -40 -17q-32 -6 -90 -11l-20 -2q-76 -9 -103 -35q-24 -24 -24 -69q0 -42 26 -68q26 -29 80 -29q66 0 109 35q55 45 60 144zM159 -232l14 45q23 -8 58 -8
q58 0 75 18q11 11 11 31q0 21 -13 30q-18 16 -72 16h-31l12 42h28q86 0 116 -30q21 -21 21 -53q0 -44 -25 -69q-30 -30 -111 -30q-40 0 -83 8z" />
    <glyph glyph-name="uniF483" unicode="&#xf483;" horiz-adv-x="581" 
d="M49 700h487v-62l-422 -575h441v-63h-529v69l426 568h-403v63zM200 832q0 41 28.5 69.5t69.5 28.5t69.5 -28.5t28.5 -69.5t-28.5 -69.5t-69.5 -28.5t-69.5 28.5t-28.5 69.5zM236 832q0 -22 16.5 -42t45.5 -20q26 0 44 18t18 44t-18 44t-44 18q-29 0 -45.5 -20t-16.5 -42z
" />
    <glyph glyph-name="uniF484" unicode="&#xf484;" horiz-adv-x="456" 
d="M48 508h367v-52l-305 -406h320v-50h-404v49l315 409h-293v50zM145 644q0 39 26.5 65.5t65.5 26.5t65.5 -26.5t26.5 -65.5t-26.5 -65.5t-65.5 -26.5t-65.5 26.5t-26.5 65.5zM178 644q0 -24 16.5 -41.5t42.5 -17.5q24 0 41 17.5t17 41.5t-17 41.5t-41 17.5
q-26 0 -42.5 -17.5t-16.5 -41.5z" />
    <glyph glyph-name="uniF4C4" unicode="&#xf4c4;" horiz-adv-x="550" 
d="M163 -232l14 45q23 -8 58 -8q58 0 75 18q11 11 11 31q0 21 -13 30q-18 16 -72 16h-31l12 42h28q86 0 116 -30q21 -21 21 -53q0 -44 -25 -69q-30 -30 -111 -30q-40 0 -83 8zM238 637h-232v63h538v-63h-232v-637h-74v637z" />
    <glyph glyph-name="uniF4C5" unicode="&#xf4c5;" horiz-adv-x="434" 
d="M183 458h-177v50h422v-50h-176v-458h-69v458zM103 -232l14 45q23 -8 58 -8q58 0 75 18q11 11 11 31q0 21 -13 30q-18 16 -72 16h-31l12 42h28q86 0 116 -30q21 -21 21 -53q0 -44 -25 -69q-30 -30 -111 -30q-40 0 -83 8z" />
    <glyph glyph-name="uniF4C8" unicode="&#xf4c8;" horiz-adv-x="733" 
d="M288 -232l14 45q23 -8 58 -8q58 0 75 18q11 11 11 31q0 21 -13 30q-18 16 -72 16h-31l12 42h28q86 0 116 -30q21 -21 21 -53q0 -44 -25 -69q-30 -30 -111 -30q-40 0 -83 8zM608 228h75q-13 -107 -81 -175q-74 -74 -211 -74q-144 0 -228 87q-97 101 -97 285q0 190 98 285
q89 85 224 85q141 0 219 -74q62 -62 68 -157h-75q-5 64 -50 112q-54 56 -156 56q-105 0 -167 -61q-82 -81 -82 -235q0 -174 86 -257q63 -63 165 -63q92 0 151 55q56 56 61 131z" />
    <glyph glyph-name="uniF4C9" unicode="&#xf4c9;" horiz-adv-x="547" 
d="M173 -232l14 45q23 -8 58 -8q58 0 75 18q11 11 11 31q0 21 -13 30q-18 16 -72 16h-31l12 42h28q86 0 116 -30q21 -21 21 -53q0 -44 -25 -69q-30 -30 -111 -30q-40 0 -83 8zM441 178h66q-9 -91 -66 -148q-31 -31 -65.5 -40.5t-81.5 -9.5q-106 0 -164 56q-77 74 -77 223
q0 133 65 203q58 66 172 66q100 0 155 -53q47 -47 57 -120h-66q-5 47 -35 80q-38 43 -106 43q-71 0 -116 -45q-53 -53 -53 -172q0 -127 61 -188q43 -43 108 -43t101 38q40 43 45 110z" />
    <glyph glyph-name="uniF4CC" unicode="&#xf4cc;" 
d="M318 254l179 446h79l-227 -557q-33 -82 -63 -112q-41 -41 -115 -41q-37 0 -70 10v64q29 -10 64 -10q41 0 67 24q28 28 47 90l-266 532h91zM326 900h92l-99 -140h-65z" />
    <glyph glyph-name="uniF4CD" unicode="&#xf4cd;" horiz-adv-x="479" 
d="M279 700h86l-95 -132h-61zM89 -184v52q15 -4 39 -4q32 0 49 15q16 14 29 56l21 65l-214 508h83l168 -431l146 431h69l-209 -585q-25 -68 -45 -86q-28 -26 -80 -26q-28 0 -56 5z" />
    <glyph glyph-name="dollar.fitted" unicode="&#xf5f5;" horiz-adv-x="526" 
d="M20 213h72q0 -83 49 -128q41 -36 105 -41v289q-62 17 -96 31t-59 39q-50 49 -50 129t48 128q29 29 71.5 43.5t85.5 12.5v61h45v-61q90 0 142 -52q22 -22 34.5 -52.5t14.5 -46t2 -26.5h-69q-5 56 -36 87q-34 34 -88 35v-269q124 -29 165 -73q49 -49 49 -132
q0 -92 -54 -144q-28 -28 -71.5 -43.5t-88.5 -13.5v-79h-45v79q-98 -4 -163 59q-31 31 -47 78t-16 90zM291 325v-282q66 0 104 38q38 35 38 99q0 65 -38 99q-41 36 -104 46zM246 401v260q-60 5 -101 -35q-34 -34 -34 -92q0 -54 33 -85q30 -30 102 -48z" />
    <glyph glyph-name="Euro.fitted" unicode="&#xf5f6;" horiz-adv-x="619" 
d="M566 125v-80q-33 -24 -73 -42q-58 -24 -116 -24q-123 0 -191 79q-63 71 -76 193h-92l25 58h61q-2 41 0 76h-86l23 58h69q12 115 80 194q74 84 199 84q65 0 120 -30q46 -26 77 -69l-35 -65q-27 46 -73 76q-41 25 -93 25q-89 0 -141 -60q-53 -61 -59 -155h322l-23 -58h-302
q-1 -39 0 -76h273l-25 -58h-242q7 -93 62 -153q54 -56 134 -56q52 0 105 26q37 18 77 57z" />
    <glyph glyph-name="cent.fitted" unicode="&#xf5f7;" horiz-adv-x="493" 
d="M411 178h66q-7 -69 -42 -120q-51 -73 -149 -78v-72h-45v72q-103 4 -164 84q-54 73 -54 194q0 135 65 204q55 62 153 66v66h45v-66q77 -5 127 -51q51 -51 59 -122h-66q-5 47 -35 80q-30 34 -85 43v-448q60 9 95 58q25 38 30 90zM241 31v446q-54 -4 -89 -39
q-56 -56 -56 -177q0 -86 29 -145q37 -70 116 -85z" />
    <glyph glyph-name="sterling.fitted" unicode="&#xf5f8;" horiz-adv-x="544" 
d="M482 86l33 -46q-54 -61 -123 -61q-34 0 -99 25q-61 26 -106 26q-60 0 -109 -38l-37 52q56 39 74 70q31 43 31 101q0 51 -21 94h-98v50h75q-41 81 -41 149q0 97 56 153q60 60 173 60q105 0 163 -59q56 -57 56 -170h-73v7q0 88 -41 129q-38 38 -110 38q-73 0 -112 -41
q-39 -43 -39 -106q0 -69 47 -160h159v-50h-139q15 -39 15 -83q0 -50 -24 -92q-20 -34 -43 -54l2 -4q33 12 69 12q41 0 98 -24q44 -20 77 -20q45 0 87 42z" />
    <glyph glyph-name="yen.fitted" unicode="&#xf5f9;" horiz-adv-x="605" 
d="M302 366l200 334h89l-252 -401v-21h115v-41h-115v-64h115v-41h-115v-132h-74v132h-115v41h115v64h-115v41h115v21l-250 401h89z" />
    <glyph glyph-name="florin.fitted" unicode="&#xf5fa;" horiz-adv-x="461" 
d="M417 508l-10 -50h-109l-108 -512q-15 -70 -46 -101q-34 -34 -98 -34q-23 0 -40 4l11 52q14 -2 22 -2q37 0 55 20q17 17 26 59l108 514h-93l11 50h93l15 69q15 58 38 82q40 41 113 41q28 0 53 -7l-9 -49q-21 6 -44 6q-37 0 -57 -20q-19 -19 -26 -56l-14 -66h109z" />
    <glyph glyph-name="numbersign.fitted" unicode="&#xf5ff;" horiz-adv-x="601" 
d="M377 32h-54l24 161h-143l-24 -161h-54l24 161h-134l11 70h134l28 179h-134l11 70h134l25 160h54l-25 -160h143l25 160h54l-25 -160h134l-11 -70h-134l-28 -179h134l-10 -70h-134zM358 263l28 179h-143l-28 -179h143z" />
    <glyph glyph-name="uniF639" unicode="&#xf639;" horiz-adv-x="550" 
d="M275 -21q-94 0 -150 59q-49 51 -70.5 137.5t-21.5 179.5q0 91 22 174.5t72 133.5q58 58 146 58q92 0 150 -58q94 -95 94 -307q0 -227 -95 -321q-56 -56 -147 -56zM275 42q53 0 94 39q74 74 74 269q0 191 -74 269q-39 39 -94 39q-57 0 -96 -39t-55.5 -116t-16.5 -153
q0 -199 74 -269q39 -39 94 -39z" />
    <glyph glyph-name="uniF63A" unicode="&#xf63a;" horiz-adv-x="515" 
d="M491 63v-63h-456v10q0 61 18 104t64 89q56 54 156 116q72 47 95 73l10 12q36 46 36 109q0 69 -42 108q-39 37 -107 37q-71 0 -111 -40q-42 -40 -42 -124v-11h-74v18q0 99 63 162q58 58 166 58q107 0 165 -57t58 -155q0 -93 -59 -153q-34 -37 -123 -91l-51 -32
q-67 -43 -100 -80q-36 -41 -40 -90h374z" />
    <glyph glyph-name="uniF63B" unicode="&#xf63b;" horiz-adv-x="529" 
d="M28 206h71q0 -77 45 -122q43 -44 121 -44q74 0 117 39q45 41 45 124q0 61 -39 96q-44 38 -120 38h-49v61h28q83 0 119 34q38 33 38 93q0 61 -39 100q-37 35 -100 35q-73 0 -110 -37q-41 -41 -41 -119v-12h-70v11q0 102 62 164q56 54 158 54q98 0 155 -53q55 -53 55 -139
q0 -74 -48 -119q-24 -24 -64 -36v-2q47 -7 84 -42q52 -51 52 -134q0 -94 -56 -151q-66 -66 -180 -66q-56 0 -99 16t-67.5 39.5t-40 56t-21 59.5t-6.5 56z" />
    <glyph glyph-name="uniF63C" unicode="&#xf63c;" horiz-adv-x="535" 
d="M331 167h-326v63l324 470h76v-470h112v-63h-112v-167h-74v167zM79 230h252v370z" />
    <glyph glyph-name="uniF63D" unicode="&#xf63d;" horiz-adv-x="523" 
d="M29 173h74q7 -59 44 -94q39 -39 113 -39q72 0 115 39q52 47 52 144q0 85 -45 130q-43 43 -119 43q-9 0 -21.5 -1.5t-35.5 -7t-46 -19.5t-40 -35h-69l50 367h359v-63h-303l-33 -234q27 23 60 38q38 16 88 16q101 0 161 -57q66 -63 66 -176q0 -117 -66 -183
q-62 -62 -178 -62q-108 0 -168 62q-47 50 -58 132z" />
    <glyph glyph-name="uniF63E" unicode="&#xf63e;" horiz-adv-x="538" 
d="M496 549h-69q-7 45 -38 76q-35 35 -101 35q-71 0 -112 -44q-69 -72 -69 -257h2q26 48 67 70q45 24 110 24q94 0 153 -55q67 -61 67 -176q0 -110 -60 -177q-61 -66 -167 -66q-112 0 -168 63q-78 81 -78 293q0 231 96 325q62 61 163 61q92 0 146 -54q48 -45 58 -118z
M118 222q0 -91 48 -140q42 -42 114 -42q65 0 105 40q49 49 49 141q0 83 -46 129q-42 42 -111 42q-70 0 -113 -43q-46 -46 -46 -127z" />
    <glyph glyph-name="uniF63F" unicode="&#xf63f;" horiz-adv-x="512" 
d="M10 636v64h491v-50q-115 -130 -192 -323q-61 -154 -80 -327h-80q10 76 26.5 143.5t29 103t33.5 86.5q36 83 77.5 154t108.5 149h-414z" />
    <glyph glyph-name="uniF640" unicode="&#xf640;" horiz-adv-x="526" 
d="M166 381q-51 18 -77 57q-31 43 -31 99q0 75 50 128q56 56 153 56q95 0 151 -50q56 -51 56 -133q0 -61 -37 -109q-25 -32 -71 -48q47 -11 80 -44q55 -50 55 -142q0 -97 -58 -155q-61 -61 -173 -61q-113 0 -177 64q-56 58 -56 151q0 72 38.5 123.5t96.5 63.5zM263 408
q62 0 98 34q37 34 37 93t-38 93q-37 32 -97 32q-64 0 -99 -35q-36 -36 -36 -91q0 -56 36 -92q38 -34 99 -34zM267 40q66 0 109 41q46 46 46 118q0 75 -50 117q-39 33 -109 33q-79 0 -119 -42q-41 -41 -41 -108q0 -73 44 -115q44 -44 120 -44z" />
    <glyph glyph-name="uniF641" unicode="&#xf641;" horiz-adv-x="538" 
d="M42 151h69q7 -45 38 -76q35 -35 101 -35q71 0 112 44q69 72 69 257h-2q-26 -48 -67 -70q-44 -24 -104 -24q-101 0 -159 55q-67 61 -67 176q0 110 60 177q60 66 167 66t168 -63q78 -84 78 -293q0 -231 -96 -325q-62 -61 -163 -61q-92 0 -146 54q-48 45 -58 118zM259 660
q-66 0 -106 -40q-49 -49 -49 -141q0 -83 46 -129q42 -42 111 -42q70 0 113 43q46 46 46 127q0 91 -48 140q-38 42 -113 42z" />
    <glyph glyph-name="uniF6BA" unicode="&#xf6ba;" horiz-adv-x="404" 
d="M70 321v79h264v-79h-264z" />
    <glyph glyph-name="uniF6BB" unicode="&#xf6bb;" horiz-adv-x="600" 
d="M50 384h500v-48h-500v48z" />
    <glyph glyph-name="uniF6BC" unicode="&#xf6bc;" horiz-adv-x="984" 
d="M50 336v48h884v-48h-884z" />
    <glyph glyph-name="uniF6C3" unicode="&#xf6c3;" horiz-adv-x="179" 
d="M50 -60h79v-88q0 -53 -25 -78q-21 -21 -54 -25v46q17 3 27 13q13 13 13 39v12h-40v81z" />
    <glyph glyph-name="uniF6C9" unicode="&#xf6c9;" horiz-adv-x="300" 
d="M166 900h92l-99 -140h-65z" />
    <glyph glyph-name="uniF6CA" unicode="&#xf6ca;" horiz-adv-x="465" 
d="M50 900h74l109 -112l108 112h74l-121 -140h-123z" />
    <glyph glyph-name="uniF6CB" unicode="&#xf6cb;" horiz-adv-x="379" 
d="M50 772v74h75v-74h-75zM254 772v74h75v-74h-75z" />
    <glyph glyph-name="uniF6CE" unicode="&#xf6ce;" horiz-adv-x="301" 
d="M134 900l73 -140h-65l-100 140h92z" />
    <glyph glyph-name="uniF6CF" unicode="&#xf6cf;" horiz-adv-x="399" 
d="M120 900h86l-95 -140h-61zM263 900h86l-95 -140h-61z" />
    <glyph glyph-name="uniF6D0" unicode="&#xf6d0;" horiz-adv-x="409" 
d="M50 778v49h309v-49h-309z" />
    <glyph glyph-name="uniF6D1" unicode="&#xf6d1;" horiz-adv-x="434" 
d="M321 862h63q-9 -54 -41 -86q-46 -46 -123 -46q-83 0 -129 46q-32 34 -41 86h63q4 -36 24 -57q27 -28 80 -28t80 28q20 21 24 57z" />
    <glyph glyph-name="uniF6D4" unicode="&#xf6d4;" horiz-adv-x="414" 
d="M306 700h58q-7 -51 -41 -85q-42 -40 -116 -40t-116 40q-34 34 -41 85h58q5 -37 27 -59q24 -23 72 -23t72 23q22 22 27 59z" />
    <glyph glyph-name="uniF6DC" unicode="&#xf6dc;" horiz-adv-x="278" 
d="M0 536v39h19q63 0 107 30q51 35 57 95h50v-700h-75v536h-158z" />
    <glyph glyph-name="uniF6DE" unicode="&#xf6de;" horiz-adv-x="738" 
d="M37 242v48h663v-48h-663z" />
    <glyph glyph-name="uniF8FF" unicode="&#xf8ff;" horiz-adv-x="833" 
d="M808 656q-108 -82 -108 -195q0 -72 36.5 -127.5t100.5 -80.5q-25 -71 -72 -144q-79 -124 -158 -124q-32 0 -83 19t-92 19q-29 0 -53 -9l-57 -21q-24 -10 -55 -10q-64 0 -125 79q-142 178 -142 382q0 136 67 221q68 86 175 86q39 0 120 -23q40 -13 66 -13q28 0 90 22
q53 19 100 19q117 0 190 -100zM608 982q2 -18 2 -27q0 -87 -67 -157q-24 -26 -46 -38q-31 -19 -87 -20l3 42q10 76 61 130.5t134 69.5z" />
    <glyph glyph-name="mu1" horiz-adv-x="569" 
d="M147 56v-241h-68v693h68v-299q0 -47 8.5 -77t33.5 -56q38 -38 89 -38q50 0 86 36q27 27 35 57.5t8 78.5v298h69v-398q0 -41 12 -52q14 -13 41 -8v-50q-21 -4 -43 -4q-41 0 -59 18q-20 20 -20 52q-19 -38 -48 -60q-33 -26 -83 -26q-44 0 -78 23q-32 23 -51 53z" />
    <glyph glyph-name="dotlessi1" horiz-adv-x="228" 
d="M79 508h70v-508h-70v508z" />
    <glyph glyph-name="uni021A" horiz-adv-x="550" 
d="M238 637h-232v63h538v-63h-232v-637h-74v637zM235 -60h79v-88q0 -53 -25 -78q-21 -21 -54 -25v46q17 3 27 13q13 13 13 39v12h-40v81z" />
    <glyph glyph-name="uni021B" horiz-adv-x="292" 
d="M6 508h95v152h69v-152h109v-50h-109v-368q0 -26 10 -38q12 -13 40 -13q27 0 59 11v-50q-36 -14 -80 -14q-56 0 -76 25q-22 25 -22 78v369h-95v50zM160 -60h79v-88q0 -53 -25 -78q-21 -21 -54 -25v46q17 3 27 13q13 13 13 39v12h-40v81z" />
    </font>
</defs>
</svg>
