<svg width="40" height="24" viewBox="0 0 40 24" fill="none" xmlns="http://www.w3.org/2000/svg">
<path d="M18.1892 7.07271C18.1892 10.518 15.3962 13.3109 11.9509 13.3109C8.50564 13.3109 5.71268 10.518 5.71268 7.07271C5.71268 3.62743 8.50564 0.834473 11.9509 0.834473C15.3962 0.834473 18.1892 3.62743 18.1892 7.07271Z" fill="white"/>
<path d="M34.6899 7.07271C34.6899 10.518 31.897 13.3109 28.4517 13.3109C25.0064 13.3109 22.2135 10.518 22.2135 7.07271C22.2135 3.62743 25.0064 0.834473 28.4517 0.834473C31.897 0.834473 34.6899 3.62743 34.6899 7.07271Z" fill="white"/>
<path d="M39.1173 22.5677C39.1173 23.2795 38.477 23.7751 37.7652 23.7751H23.8703C24.7189 21.5314 22.8633 18.6197 21.1982 16.7499C23.0963 15.6094 25.5592 14.9208 28.2507 14.9208C34.2521 14.9208 39.1173 18.3445 39.1173 22.5677Z" fill="white"/>
<path d="M21.264 23.7751C21.9757 23.7751 22.616 23.2795 22.616 22.5677C22.616 18.3445 17.7509 14.9208 11.7494 14.9208C5.74796 14.9208 0.882812 18.3445 0.882812 22.5677C0.882812 23.2795 1.52309 23.7751 2.23486 23.7751H21.264Z" fill="white"/>
</svg>
