<svg width="22" height="28" viewBox="0 0 22 28" fill="none" xmlns="http://www.w3.org/2000/svg">
<path fill-rule="evenodd" clip-rule="evenodd" d="M22 20.6642V1.23975C22 0.687462 21.5523 0.239746 21 0.239746H5.49976C4.94747 0.239746 4.49976 0.687461 4.49976 1.23975V3.23985H17.9999C18.5522 3.23985 18.9999 3.68756 18.9999 4.23985V20.8282L20.5742 21.569C21.2374 21.8812 22 21.3972 22 20.6642Z" fill="white"/>
<path d="M17.5 6.24023V25.6647C17.5 26.3977 16.7374 26.8816 16.0742 26.5695L9.41378 23.4352C9.15093 23.3115 8.84729 23.3083 8.58184 23.4262L1.40589 26.6155C0.744607 26.9095 -0.000244141 26.4254 -0.000244141 25.7017V6.24023C-0.000244141 5.68795 0.447473 5.24023 0.999757 5.24023H16.5C17.0523 5.24023 17.5 5.68795 17.5 6.24023Z" fill="white"/>
</svg>
