<svg width="30" height="26" viewBox="0 0 30 26" fill="none" xmlns="http://www.w3.org/2000/svg">
<path fill-rule="evenodd" clip-rule="evenodd" d="M15.0001 24.9756C22.8159 24.9756 29.1518 19.5715 29.1518 12.9051C29.1518 6.23866 22.8159 0.834473 15.0001 0.834473C7.18433 0.834473 0.848389 6.23866 0.848389 12.9051C0.848389 15.5979 1.88223 18.0848 3.62983 20.0927L2.36059 25.1697C2.25699 25.5841 2.68719 25.9292 3.06927 25.7382L7.87391 23.3359C9.96678 24.3783 12.4017 24.9756 15.0001 24.9756ZM12.7288 8.3162C12.6074 6.98063 13.659 5.82909 15.0001 5.82909C16.3411 5.82909 17.3927 6.98063 17.2713 8.3162L16.8157 13.328C16.7303 14.2671 15.943 14.9861 15.0001 14.9861C14.0571 14.9861 13.2698 14.2671 13.1844 13.328L12.7288 8.3162ZM15.0106 19.9808C16.1599 19.9808 17.0917 19.0491 17.0917 17.8997C17.0917 16.7503 16.1599 15.8186 15.0106 15.8186C13.8612 15.8186 12.9294 16.7503 12.9294 17.8997C12.9294 19.0491 13.8612 19.9808 15.0106 19.9808Z" fill="white"/>
</svg>
