<svg width="26" height="26" viewBox="0 0 26 26" fill="none" xmlns="http://www.w3.org/2000/svg">
<path d="M0 2.77489C0 1.24236 1.24236 0 2.77489 0H9.43464C10.9672 0 12.2095 1.24236 12.2095 2.77489V9.43464C12.2095 10.9672 10.9672 12.2095 9.43464 12.2095H2.77489C1.24236 12.2095 0 10.9672 0 9.43464V2.77489Z" fill="white"/>
<path d="M0 16.5654C0 15.0328 1.24236 13.7905 2.77489 13.7905H9.43464C10.9672 13.7905 12.2095 15.0328 12.2095 16.5654V23.2251C12.2095 24.7576 10.9672 26 9.43464 26H2.77489C1.24236 26 0 24.7576 0 23.2251V16.5654Z" fill="white"/>
<path d="M13.7905 2.77489C13.7905 1.24236 15.0328 0 16.5654 0H23.2251C24.7576 0 26 1.24236 26 2.77489V9.43464C26 10.9672 24.7576 12.2095 23.2251 12.2095H16.5654C15.0328 12.2095 13.7905 10.9672 13.7905 9.43464V2.77489Z" fill="white"/>
<path d="M13.7905 16.5654C13.7905 15.0328 15.0328 13.7905 16.5654 13.7905H23.2251C24.7576 13.7905 26 15.0328 26 16.5654V23.2251C26 24.7576 24.7576 26 23.2251 26H16.5654C15.0328 26 13.7905 24.7576 13.7905 23.2251V16.5654Z" fill="white"/>
</svg>
