<svg width="1920" height="2115" viewBox="0 0 1920 2115" fill="none" xmlns="http://www.w3.org/2000/svg">
<g opacity="0.8" filter="url(#filter0_f)">
<circle cx="1010" cy="1075" r="115" fill="#C4C4C4"/>
<circle cx="1010" cy="1075" r="115" fill="url(#paint0_linear)"/>
</g>
<circle cx="900" cy="1056" r="572.25" stroke="url(#paint1_radial)" stroke-width="1.5"/>
<circle cx="960" cy="1053" r="400.25" stroke="url(#paint2_radial)" stroke-width="1.5"/>
<circle cx="943.753" cy="1074.75" r="684.5" transform="rotate(161.345 943.753 1074.75)" stroke="url(#paint3_radial)" stroke-width="2"/>
<circle cx="960.329" cy="1057.33" r="833.298" transform="rotate(161.345 960.329 1057.33)" stroke="url(#paint4_radial)" stroke-width="2"/>
<g filter="url(#filter1_f)">
<path d="M1373 1056.5C1373 1286.53 1186.53 1473 956.5 1473C726.473 1473 540 1286.53 540 1056.5C540 826.473 726.473 640 956.5 640C1186.53 640 1373 826.473 1373 1056.5ZM576.91 1056.5C576.91 1266.14 746.858 1436.09 956.5 1436.09C1166.14 1436.09 1336.09 1266.14 1336.09 1056.5C1336.09 846.858 1166.14 676.91 956.5 676.91C746.858 676.91 576.91 846.858 576.91 1056.5Z" fill="#C4C4C4"/>
<path d="M1373 1056.5C1373 1286.53 1186.53 1473 956.5 1473C726.473 1473 540 1286.53 540 1056.5C540 826.473 726.473 640 956.5 640C1186.53 640 1373 826.473 1373 1056.5ZM576.91 1056.5C576.91 1266.14 746.858 1436.09 956.5 1436.09C1166.14 1436.09 1336.09 1266.14 1336.09 1056.5C1336.09 846.858 1166.14 676.91 956.5 676.91C746.858 676.91 576.91 846.858 576.91 1056.5Z" fill="url(#paint5_linear)"/>
</g>
<g filter="url(#filter2_f)">
<path d="M1491.48 846.567C1614.05 1159.15 1460.01 1511.91 1147.43 1634.48C834.851 1757.05 482.092 1603.01 359.523 1290.43C236.953 977.85 390.988 625.091 703.569 502.521C1016.15 379.952 1368.91 533.987 1491.48 846.567ZM377.35 1283.44C496.059 1586.18 837.706 1735.36 1140.44 1616.65C1443.18 1497.94 1592.36 1156.29 1473.65 853.558C1354.94 550.823 1013.29 401.64 710.559 520.349C407.824 639.058 258.641 980.705 377.35 1283.44Z" fill="#C4C4C4"/>
<path d="M1491.48 846.567C1614.05 1159.15 1460.01 1511.91 1147.43 1634.48C834.851 1757.05 482.092 1603.01 359.523 1290.43C236.953 977.85 390.988 625.091 703.569 502.521C1016.15 379.952 1368.91 533.987 1491.48 846.567ZM377.35 1283.44C496.059 1586.18 837.706 1735.36 1140.44 1616.65C1443.18 1497.94 1592.36 1156.29 1473.65 853.558C1354.94 550.823 1013.29 401.64 710.559 520.349C407.824 639.058 258.641 980.705 377.35 1283.44Z" fill="url(#paint6_linear)"/>
</g>
<g opacity="0.5" filter="url(#filter3_f)">
<path d="M65 1057C65 570.437 459.437 176 946 176C1432.56 176 1827 570.437 1827 1057C1827 1543.56 1432.56 1938 946 1938C459.437 1938 64.9999 1543.56 65 1057ZM1766.57 1057C1766.57 603.813 1399.19 236.433 946 236.433C492.813 236.433 125.432 603.813 125.432 1057C125.432 1510.19 492.813 1877.57 946 1877.57C1399.19 1877.57 1766.57 1510.19 1766.57 1057Z" fill="#C4C4C4"/>
<path d="M65 1057C65 570.437 459.437 176 946 176C1432.56 176 1827 570.437 1827 1057C1827 1543.56 1432.56 1938 946 1938C459.437 1938 64.9999 1543.56 65 1057ZM1766.57 1057C1766.57 603.813 1399.19 236.433 946 236.433C492.813 236.433 125.432 603.813 125.432 1057C125.432 1510.19 492.813 1877.57 946 1877.57C1399.19 1877.57 1766.57 1510.19 1766.57 1057Z" fill="url(#paint7_linear)"/>
</g>
<g opacity="0.5" filter="url(#filter4_f)">
<path d="M254 1052C254 663.192 569.192 348 958 348C1346.81 348 1662 663.192 1662 1052C1662 1440.81 1346.81 1756 958 1756C569.191 1756 254 1440.81 254 1052ZM1613.71 1052C1613.71 689.862 1320.14 396.291 958 396.291C595.862 396.291 302.291 689.862 302.291 1052C302.291 1414.14 595.862 1707.71 958 1707.71C1320.14 1707.71 1613.71 1414.14 1613.71 1052Z" fill="#C4C4C4"/>
<path d="M254 1052C254 663.192 569.192 348 958 348C1346.81 348 1662 663.192 1662 1052C1662 1440.81 1346.81 1756 958 1756C569.191 1756 254 1440.81 254 1052ZM1613.71 1052C1613.71 689.862 1320.14 396.291 958 396.291C595.862 396.291 302.291 689.862 302.291 1052C302.291 1414.14 595.862 1707.71 958 1707.71C1320.14 1707.71 1613.71 1414.14 1613.71 1052Z" fill="url(#paint8_linear)"/>
</g>
<defs>
<filter id="filter0_f" x="751" y="816" width="518" height="518" filterUnits="userSpaceOnUse" color-interpolation-filters="sRGB">
<feFlood flood-opacity="0" result="BackgroundImageFix"/>
<feBlend mode="normal" in="SourceGraphic" in2="BackgroundImageFix" result="shape"/>
<feGaussianBlur stdDeviation="72" result="effect1_foregroundBlur"/>
</filter>
<filter id="filter1_f" x="426" y="526" width="1061" height="1061" filterUnits="userSpaceOnUse" color-interpolation-filters="sRGB">
<feFlood flood-opacity="0" result="BackgroundImageFix"/>
<feBlend mode="normal" in="SourceGraphic" in2="BackgroundImageFix" result="shape"/>
<feGaussianBlur stdDeviation="57" result="effect1_foregroundBlur"/>
</filter>
<filter id="filter2_f" x="23.5909" y="166.59" width="1803.82" height="1803.82" filterUnits="userSpaceOnUse" color-interpolation-filters="sRGB">
<feFlood flood-opacity="0" result="BackgroundImageFix"/>
<feBlend mode="normal" in="SourceGraphic" in2="BackgroundImageFix" result="shape"/>
<feGaussianBlur stdDeviation="57" result="effect1_foregroundBlur"/>
</filter>
<filter id="filter3_f" x="-49.0001" y="62" width="1990" height="1990" filterUnits="userSpaceOnUse" color-interpolation-filters="sRGB">
<feFlood flood-opacity="0" result="BackgroundImageFix"/>
<feBlend mode="normal" in="SourceGraphic" in2="BackgroundImageFix" result="shape"/>
<feGaussianBlur stdDeviation="57" result="effect1_foregroundBlur"/>
</filter>
<filter id="filter4_f" x="140" y="234" width="1636" height="1636" filterUnits="userSpaceOnUse" color-interpolation-filters="sRGB">
<feFlood flood-opacity="0" result="BackgroundImageFix"/>
<feBlend mode="normal" in="SourceGraphic" in2="BackgroundImageFix" result="shape"/>
<feGaussianBlur stdDeviation="57" result="effect1_foregroundBlur"/>
</filter>
<linearGradient id="paint0_linear" x1="915.097" y1="1006.89" x2="1088.16" y2="1154.27" gradientUnits="userSpaceOnUse">
<stop stop-color="#72A79D"/>
<stop offset="0.36443" stop-color="#314D46"/>
<stop offset="0.724687" stop-color="#020202"/>
</linearGradient>
<radialGradient id="paint1_radial" cx="0" cy="0" r="1" gradientUnits="userSpaceOnUse" gradientTransform="translate(378.5 724.5) rotate(38.5733) scale(1165.14)">
<stop stop-color="#72A79D"/>
<stop offset="0.934037" stop-color="#314D46"/>
<stop offset="1" stop-color="#020202"/>
</radialGradient>
<radialGradient id="paint2_radial" cx="0" cy="0" r="1" gradientUnits="userSpaceOnUse" gradientTransform="translate(595.041 821.008) rotate(38.5733) scale(815.393)">
<stop stop-color="#72A79D"/>
<stop offset="0.934037" stop-color="#314D46"/>
<stop offset="1" stop-color="#020202"/>
</radialGradient>
<radialGradient id="paint3_radial" cx="0" cy="0" r="1" gradientUnits="userSpaceOnUse" gradientTransform="translate(319.864 678.168) rotate(38.5733) scale(1393.89)">
<stop stop-color="#72A79D"/>
<stop offset="0.934037" stop-color="#314D46"/>
<stop offset="1" stop-color="#020202"/>
</radialGradient>
<radialGradient id="paint4_radial" cx="0" cy="0" r="1" gradientUnits="userSpaceOnUse" gradientTransform="translate(201.016 574.658) rotate(38.5733) scale(1696.46)">
<stop stop-color="#72A79D"/>
<stop offset="0.934037" stop-color="#314D46"/>
<stop offset="1" stop-color="#020202"/>
</radialGradient>
<linearGradient id="paint5_linear" x1="612.786" y1="809.835" x2="1239.56" y2="1343.6" gradientUnits="userSpaceOnUse">
<stop stop-color="#72A79D"/>
<stop offset="0.36443" stop-color="#314D46"/>
<stop offset="0.724687" stop-color="#020202"/>
</linearGradient>
<linearGradient id="paint6_linear" x1="326.996" y1="916.456" x2="1463.13" y2="1307.81" gradientUnits="userSpaceOnUse">
<stop stop-color="#72A79D"/>
<stop offset="0.36443" stop-color="#314D46"/>
<stop offset="0.724687" stop-color="#020202"/>
</linearGradient>
<linearGradient id="paint7_linear" x1="1673.04" y1="1578.76" x2="347.262" y2="449.708" gradientUnits="userSpaceOnUse">
<stop stop-color="#72A79D"/>
<stop offset="0.36443" stop-color="#314D46"/>
<stop offset="0.724687" stop-color="#020202"/>
</linearGradient>
<linearGradient id="paint8_linear" x1="1538.97" y1="1468.93" x2="479.554" y2="566.718" gradientUnits="userSpaceOnUse">
<stop stop-color="#72A79D"/>
<stop offset="0.36443" stop-color="#314D46"/>
<stop offset="0.724687" stop-color="#020202"/>
</linearGradient>
</defs>
</svg>
