<svg width="124" height="46" viewBox="0 0 124 46" fill="none" xmlns="http://www.w3.org/2000/svg">
<g opacity="0.8">
<path d="M2.28125 38.2469H3.25079V41.1556H6.96751V38.2469H7.90483V45.0339H6.96751V41.9313H3.25079V45.0339H2.28125V38.2469Z" fill="white"/>
<path d="M22.9334 42.5776C22.9334 44.2906 21.8992 45.1955 20.1216 45.1955C18.3117 45.1955 17.2129 44.3875 17.2129 42.5776V38.2469H18.1824V42.5776C18.1824 43.7735 18.8935 44.4522 20.1216 44.4522C21.3174 44.4522 21.9961 43.7735 21.9961 42.5776V38.2469H22.9334V42.5776Z" fill="white"/>
<path d="M34.666 45.2278C32.533 45.3571 31.2402 43.5472 31.2402 41.7696C31.2402 39.7982 32.3714 38.0852 34.6337 38.0852C36.1851 38.0852 37.4131 38.7316 37.6717 40.3476H36.7345C36.5406 39.3134 35.6679 38.8286 34.6337 38.8286C32.8885 38.8286 32.1774 40.2829 32.1774 41.7373C32.1774 43.1594 33.0824 44.5168 34.7953 44.4844C35.6679 44.4521 36.3789 44.2905 36.7345 43.7088C36.993 43.3533 36.9284 42.7069 36.896 42.2221H34.6337V41.4464H37.7364C37.7364 41.4464 37.7364 43.224 37.7364 43.9996C36.9284 45.0015 35.9588 45.1631 34.666 45.2278Z" fill="white"/>
<path d="M49.3389 44.4521C51.0518 44.4521 51.7952 42.9978 51.7952 41.6403C51.7952 40.2829 51.0518 38.8286 49.3389 38.8286C47.5937 38.8286 46.8826 40.2829 46.8826 41.6403C46.8826 42.9978 47.5937 44.4521 49.3389 44.4521ZM49.3389 38.0852C51.6012 38.0852 52.7324 39.7982 52.7324 41.6403C52.7324 43.4825 51.6012 45.1955 49.3389 45.1955C47.0765 45.1955 45.9453 43.4825 45.9453 41.6403C45.9453 39.7982 47.0765 38.0852 49.3389 38.0852Z" fill="white"/>
<path d="M71.7673 41.1556H73.6418C74.7084 41.1556 75.1609 40.8001 75.1609 40.0891C75.1609 39.1518 74.4822 38.9902 73.6418 38.9902H71.7673V41.1556ZM71.7673 44.2906H74.1266C74.9346 44.2906 75.4517 43.8058 75.4517 43.0624C75.4517 42.1898 74.7084 41.9313 73.9004 41.9313H71.7673V44.2906ZM70.8301 38.2469H73.3833C74.0297 38.2469 74.8376 38.2469 75.2578 38.4731C75.7426 38.764 76.0981 39.2488 76.0981 39.8951C76.0981 40.6385 75.7103 41.1879 75.0639 41.4465C75.9365 41.6081 76.4213 42.2544 76.4213 43.0947C76.4213 44.0966 75.6456 45.0339 74.2559 45.0339H70.8301V38.2469Z" fill="white"/>
<path d="M88.2841 44.4521C90.0293 44.4521 90.7404 42.9978 90.7404 41.6403C90.7404 40.2829 90.0293 38.8286 88.2841 38.8286C86.5712 38.8286 85.8278 40.2829 85.8278 41.6403C85.8278 42.9978 86.5712 44.4521 88.2841 44.4521ZM88.2841 38.0852C90.5464 38.0852 91.7099 39.7982 91.7099 41.6403C91.7099 43.4825 90.5464 45.1955 88.2841 45.1955C86.0218 45.1955 84.8906 43.4825 84.8906 41.6403C84.8906 39.7982 86.0218 38.0852 88.2841 38.0852Z" fill="white"/>
<path d="M104.735 40.2506C104.638 39.2487 103.959 38.8286 102.989 38.8286C102.181 38.8286 101.406 39.1194 101.406 39.9921C101.406 40.8324 102.537 40.9617 103.668 41.2202C104.799 41.4464 105.93 41.8343 105.93 43.1917C105.93 44.6137 104.444 45.1955 103.151 45.1955C101.567 45.1955 100.242 44.4521 100.242 42.8038H101.115C101.115 43.935 102.117 44.4521 103.183 44.4521C104.056 44.4521 104.993 44.1936 104.993 43.1917C104.993 42.2544 103.862 42.1251 102.731 41.8666C101.6 41.6403 100.436 41.3172 100.436 40.0567C100.436 38.6993 101.729 38.0852 103.022 38.0852C104.476 38.0852 105.575 38.7316 105.639 40.2506H104.735Z" fill="white"/>
<path d="M120.054 40.2506C119.925 39.2487 119.246 38.8286 118.276 38.8286C117.501 38.8286 116.693 39.1194 116.693 39.9921C116.693 40.8324 117.824 40.9617 118.987 41.2202C120.119 41.4464 121.25 41.8343 121.25 43.1917C121.25 44.6137 119.763 45.1955 118.47 45.1955C116.887 45.1955 115.529 44.4521 115.529 42.8038H116.434C116.434 43.935 117.436 44.4521 118.503 44.4521C119.343 44.4521 120.313 44.1936 120.313 43.1917C120.313 42.2544 119.149 42.1251 118.018 41.8666C116.887 41.6403 115.755 41.3172 115.755 40.0567C115.755 38.6993 117.016 38.0852 118.341 38.0852C119.763 38.0852 120.894 38.7316 120.927 40.2506H120.054Z" fill="white"/>
<path d="M10.62 2.37251V14.5892H15.0477C15.0477 14.5892 15.4355 14.5568 15.6618 14.4922C18.2473 14.266 19.8956 11.1633 20.0571 8.90098C20.3157 6.47705 18.829 2.46946 15.1124 2.37251C14.0134 2.34018 10.62 2.37251 10.62 2.37251ZM10.62 16.0112V30.6518H14.6275C14.6275 30.6518 16.8899 30.8134 18.926 29.1651C20.9298 27.5492 21.964 25.1575 21.7378 22.4104C21.5762 19.9542 19.7017 16.4637 15.5002 16.0112C13.2702 16.0112 10.62 16.0112 10.62 16.0112ZM20.0571 0.950455C23.3861 1.14437 25.5514 2.92193 25.7454 3.14816C27.4583 4.73181 27.9754 7.12343 27.5553 9.4181C27.0058 13.2641 22.2226 14.88 22.2226 14.88C26.2301 15.3648 29.2358 18.3705 29.6883 21.6024C30.0762 24.7697 28.9127 27.5815 26.2948 29.553C23.6446 31.5244 19.7663 32.1708 17.6655 32.1708C17.6655 32.1708 1.44128 32.1708 0.536394 32.1708C0.536394 31.6537 0.536394 31.2659 0.536394 30.8134C2.73407 30.8457 2.99266 30.8457 2.99266 29.9731C2.96034 26.6766 2.99266 3.66527 2.99266 3.05121C2.99266 2.34018 2.63709 2.30787 0.536394 2.30787C0.504071 1.75844 0.568719 0.950455 0.568719 0.950455H20.0571Z" fill="white"/>
<path d="M46.4953 2.63107C44.3623 4.05312 42.8755 7.31737 42.1646 10.0322C41.0333 14.1367 41.2596 18.9846 42.3908 23.9618C43.5542 28.9389 46.7539 30.6842 48.6607 31.1043C52.2158 31.9123 54.5428 29.8439 55.8033 27.937C58.2595 24.2203 58.8736 16.5607 58.0979 12.1652C57.3869 8.09302 56.288 5.24893 54.155 3.3421C51.7634 1.24135 48.3375 1.40294 46.4953 2.63107ZM65.6607 21.958C64.1739 26.3857 61.2006 29.1652 57.7748 30.975C53.2823 33.399 46.8509 33.7868 42.3584 31.1043C39.579 29.456 32.5011 25.0606 33.4384 14.6861C33.6323 12.4561 34.7635 6.86489 41.0011 2.6634C45.2672 -0.116059 51.4078 -0.924039 57.1284 1.72614C66.0485 5.79836 67.923 15.8496 65.6607 21.958Z" fill="white"/>
<path d="M91.8704 2.40488C91.9027 4.73187 91.8704 9.54743 91.8704 9.54743L90.7392 9.57975C90.0605 6.57407 88.6061 3.98852 86.1176 2.79271C83.726 1.62922 80.1062 1.04748 77.7468 3.1159C76.3572 4.34404 76.1632 5.60448 76.648 7.02653C77.4883 9.12728 79.8153 9.77367 81.6252 10.5816C83.1119 11.1634 86.2791 12.1976 86.2791 12.1976C89.8019 13.4257 93.7126 15.8174 94.7791 19.7926C95.2638 21.5055 95.2638 23.4447 94.876 25.1899C94.0034 29.0682 91.5149 30.0055 90.0928 30.9751C89.3818 31.4599 82.724 34.0131 74.7089 31.3952C73.0605 30.8458 71.1537 30.1994 71.1537 30.1994V21.5055C71.1537 21.5055 72.0264 21.5379 72.3818 21.5379C72.9312 22.9276 73.4161 24.6082 74.5796 26.2888C77.2944 30.2317 81.1404 31.4275 85.3742 30.5226C87.0548 30.1348 88.897 28.9713 89.3818 27.226C89.9958 25.2546 89.8019 21.9903 83.8552 19.7926C79.5567 17.8212 74.1594 17.0132 71.6062 12.2299C70.6043 9.54744 70.8952 4.89346 74.1917 2.63111C77.5206 0.368768 80.7525 -0.148335 84.6632 0.368768C88.5415 0.918197 89.5757 1.4353 91.8704 2.40488Z" fill="white"/>
<path d="M120.182 2.40488C120.214 4.73187 120.182 9.54743 120.182 9.54743L119.051 9.57975C118.372 6.57407 116.918 3.98852 114.429 2.79271C112.037 1.62922 108.418 1.04748 106.058 3.1159C104.669 4.34404 104.475 5.60448 104.959 7.02653C105.8 9.12728 108.127 9.77367 109.937 10.5816C111.423 11.1634 114.591 12.1976 114.591 12.1976C118.113 13.4257 122.024 15.8174 123.091 19.7926C123.575 21.5055 123.575 23.4447 123.187 25.1899C122.315 29.0682 119.826 30.0055 118.404 30.9751C117.693 31.4599 111.035 34.0131 103.02 31.3952C101.372 30.8458 99.4651 30.1994 99.4651 30.1994V21.5055C99.4651 21.5055 100.338 21.5379 100.693 21.5379C101.243 22.9276 101.728 24.6082 102.891 26.2888C105.606 30.2317 109.452 31.4275 113.686 30.5226C115.366 30.1348 117.208 28.9713 117.693 27.226C118.307 25.2546 118.113 21.9903 112.167 19.7926C107.868 17.8212 102.471 17.0132 99.9177 12.2299C98.9157 9.54744 99.2067 4.89346 102.535 2.63111C105.832 0.368768 109.064 -0.148335 112.942 0.368768C116.853 0.918197 117.887 1.4353 120.182 2.40488Z" fill="white"/>
</g>
</svg>
