<svg width="494" height="91" viewBox="0 0 494 91" fill="none" xmlns="http://www.w3.org/2000/svg">
<path fill-rule="evenodd" clip-rule="evenodd" d="M494 44.5891H490.338V24.7892H476.591V32.8677H462.138V10.1374L449.033 0H391.988V20.1166H386.978V32.7885H382.416V22.5718H367.449V32.3925H361.025L354.986 39.8371H322.674V33.0263L320.233 30.0165H314.13V33.8972H298.905V43.0051L292.738 35.4023H288.563V5.86068H286.186V39.0451H279.377V35.4023H273.595V41.0251L271.09 37.9364H267.364V26.0565L264.987 19.5624H259.527L258.434 25.8983V35.323H255.03V31.4423H251.368L248.221 35.323V46.9651H241.09L239.612 45.1436V34.6892L237.493 32.0757H228.563L226.893 34.135V45.3022L224.58 48.1531V54.093H220.662V51.1629H218.863V21.3838H230.362V26.3732L229.398 27.4031H229.334L229.527 27.9572H231.39L231.711 27.4031H231.519L230.683 26.3732V21.3838H233.317L234.602 20.8293H220.726V17.8199H218.863V15.2853L217.707 14.4144V20.4333H216.679V18.1366H211.926V20.4333H211.219V21.8591H217.771V51.0836H216.229V48.1531H210.769V40.867H202.996V44.6684H188.992V51.1629H183.724L182.44 49.5789H182.182V28.3532H186.744V27.5612H186.23V25.1064H182.889V27.5612H182.247V20.5126L181.283 22.4133V25.1064H179.741V27.5612H164.389L163.682 28.3532H164.645V31.8383L164.598 31.9172H164.517L163.746 33.2637H163.793L163.746 33.343H165.673L164.71 31.8383V28.2743H181.283V49.4203H177.493V41.3422H167.215V46.7276H160.598V38.7284H156.872L153.403 46.2524H151.862V31.2045H150.127V28.7492H144.86V31.6797H142.868V48.3909H139.592V44.9062H135.673V32.2343L129.763 27.6405V33.2637H125.203V25.8191H108.179V48.3116H102.269V44.8269H92.7618V14.3352H104.581V27.4031L103.554 28.4325H103.425L103.618 28.987H105.481L105.802 28.4325H105.61L104.774 27.4031V14.3352H107.472L108.822 13.7806H94.6243V10.6919H92.6971V8.15738L91.541 7.20722V13.3846H90.4488V11.0879H85.5668V13.3846H84.7958V14.8893H91.477V44.9851H90.3848V48.4702H80.7489V29.8583L81.7125 29.4623V29.0663H82.8687V27.3238L82.2263 27.0863L82.1623 23.2053V23.1264L81.9051 22.9678V22.6511H81.7125L72.012 19.9584L81.7765 22.7304V22.8093L81.4553 23.0471L80.2991 27.3238L79.3355 27.7198L72.3978 20.2751L71.9568 19.9352L71.9888 19.9441L71.884 19.8791L71.9568 19.9352L71.7554 19.8791L70.5346 18.9286L70.1494 20.2751L70.4706 20.3544V34.3725L70.278 34.6103L70.4706 35.1644V39.9164H62.5047L61.0913 41.6589H57.6227V8.79121H65.1389V7.12794H64.3033V4.51452H58.7789V7.12794H57.5581V0.237443L56.2733 1.26727V4.19741H54.1536V7.68249H38.2864L39.7644 8.31593H42.8477V22.9678H42.7831L41.8841 24.0765H41.9487L41.8841 24.1558H41.6269L42.0127 24.7892H44.1325L44.3251 24.1558H44.1965L43.2919 23.2884L44.0679 24.0765H41.9487L42.8477 22.9678H42.9763L43.0403 23.0328V8.23666H56.2733V41.6589H55.6956V46.8069H44.9035V27.6405H36.6164V30.571H30.9635V42.7677H28.1367V40.3124H24.6681V35.323H19.4004V25.8983H0V91H494V44.5891ZM82.1623 23.2053L81.1987 27.0071H82.1623V23.2053ZM163.793 33.2637H165.48L164.645 31.9172H164.598L163.793 33.2637ZM70.4706 19.7206V20.1958H70.5346V34.3725L70.7272 34.531L70.5346 35.0852V39.9164H72.012L77.2797 41.9757V48.4702H79.7207V29.6205L79.3355 29.0663L70.7918 19.6413L70.4706 19.7206ZM231.325 27.4031L230.555 26.4525H230.426L229.463 27.4031H231.325ZM105.545 28.4325L104.71 27.4031L104.581 27.4823L103.618 28.4325H105.545Z" fill="black"/>
<path fill-rule="evenodd" clip-rule="evenodd" d="M494 44.5891H490.338V24.7892H476.591V32.8677H462.138V10.1374L449.033 0H391.988V20.1166H386.978V32.7885H382.416V22.5718H367.449V32.3925H361.025L354.986 39.8371H322.674V33.0263L320.233 30.0165H314.13V33.8972H298.905V43.0051L292.738 35.4023H288.563V5.86068H286.186V39.0451H279.377V35.4023H273.595V41.0251L271.09 37.9364H267.364V26.0565L264.987 19.5624H259.527L258.434 25.8983V35.323H255.03V31.4423H251.368L248.221 35.323V46.9651H241.09L239.612 45.1436V34.6892L237.493 32.0757H228.563L226.893 34.135V45.3022L224.58 48.1531V54.093H220.662V51.1629H218.863V21.3838H230.362V26.3732L229.398 27.4031H229.334L229.527 27.9572H231.39L231.711 27.4031H231.519L230.683 26.3732V21.3838H233.317L234.602 20.8293H220.726V17.8199H218.863V15.2853L217.707 14.4144V20.4333H216.679V18.1366H211.926V20.4333H211.219V21.8591H217.771V51.0836H216.229V48.1531H210.769V40.867H202.996V44.6684H188.992V51.1629H183.724L182.44 49.5789H182.182V28.3532H186.744V27.5612H186.23V25.1064H182.889V27.5612H182.247V20.5126L181.283 22.4133V25.1064H179.741V27.5612H164.389L163.682 28.3532H164.645V31.8383L164.598 31.9172H164.517L163.746 33.2637H163.793L163.746 33.343H165.673L164.71 31.8383V28.2743H181.283V49.4203H177.493V41.3422H167.215V46.7276H160.598V38.7284H156.872L153.403 46.2524H151.862V31.2045H150.127V28.7492H144.86V31.6797H142.868V48.3909H139.592V44.9062H135.673V32.2343L129.763 27.6405V33.2637H125.203V25.8191H108.179V48.3116H102.269V44.8269H92.7618V14.3352H104.581V27.4031L103.554 28.4325H103.425L103.618 28.987H105.481L105.802 28.4325H105.61L104.774 27.4031V14.3352H107.472L108.822 13.7806H94.6243V10.6919H92.6971V8.15738L91.541 7.20722V13.3846H90.4488V11.0879H85.5668V13.3846H84.7958V14.8893H91.477V44.9851H90.3848V48.4702H80.7489V29.8583L81.7125 29.4623V29.0663H82.8687V27.3238L82.2263 27.0863L82.1623 23.2053V23.1264L81.9051 22.9678V22.6511H81.7125L72.012 19.9584L81.7765 22.7304V22.8093L81.4553 23.0471L80.2991 27.3238L79.3355 27.7198L72.3978 20.2751L71.9568 19.9352L71.9888 19.9441L71.884 19.8791L71.9568 19.9352L71.7554 19.8791L70.5346 18.9286L70.1494 20.2751L70.4706 20.3544V34.3725L70.278 34.6103L70.4706 35.1644V39.9164H62.5047L61.0913 41.6589H57.6227V8.79121H65.1389V7.12794H64.3033V4.51452H58.7789V7.12794H57.5581V0.237443L56.2733 1.26727V4.19741H54.1536V7.68249H38.2864L39.7644 8.31593H42.8477V22.9678H42.7831L41.8841 24.0765H41.9487L41.8841 24.1558H41.6269L42.0127 24.7892H44.1325L44.3251 24.1558H44.1965L43.2919 23.2884L44.0679 24.0765H41.9487L42.8477 22.9678H42.9763L43.0403 23.0328V8.23666H56.2733V41.6589H55.6956V46.8069H44.9035V27.6405H36.6164V30.571H30.9635V42.7677H28.1367V40.3124H24.6681V35.323H19.4004V25.8983H0V91H494V44.5891ZM82.1623 23.2053L81.1987 27.0071H82.1623V23.2053ZM163.793 33.2637H165.48L164.645 31.9172H164.598L163.793 33.2637ZM70.4706 19.7206V20.1958H70.5346V34.3725L70.7272 34.531L70.5346 35.0852V39.9164H72.012L77.2797 41.9757V48.4702H79.7207V29.6205L79.3355 29.0663L70.7918 19.6413L70.4706 19.7206ZM231.325 27.4031L230.555 26.4525H230.426L229.463 27.4031H231.325ZM105.545 28.4325L104.71 27.4031L104.581 27.4823L103.618 28.4325H105.545Z" fill="url(#paint1_linear)"/>
<defs>
<linearGradient id="paint1_linear" x1="241" y1="-59" x2="247" y2="91" gradientUnits="userSpaceOnUse">
<stop stop-color="#219653"/>
<stop offset="1"/>
</linearGradient>
</defs>
</svg>
