<svg width="613" height="161" viewBox="0 0 613 161" fill="none" xmlns="http://www.w3.org/2000/svg">
<path fill-rule="evenodd" clip-rule="evenodd" d="M606.62 131.717V112.134H607.053L606.728 111.687V110.882V110.435H606.512V110.077H606.62V109.719H606.512V109.362L606.404 108.378H606.08L605.971 109.362V109.719H605.863V110.167H605.971V110.524H605.863V110.703H605.431V109.541H605.106V109.362H604.998V103.371H605.106V103.102H605.323V102.745H605.106V102.476H604.89V102.208H604.998V102.029H604.89V101.94L604.782 100.42H604.89V100.241H604.674L604.458 99.2572L604.241 100.241H604.025V100.42H604.133L604.025 101.94V102.029H603.917V102.208H604.025V102.476H603.809V102.745H603.593V103.013V102.476H603.268V102.208H603.052V99.6149H602.944V99.4361H603.268V98.989H602.403V98.6313L602.727 97.8265H602.836V97.7371V97.3794H602.619V97.7371H602.079V97.3794H601.862V97.7371H601.106V97.3794H600.889V97.7371H600.349V97.3794H600.132V97.7371V97.8265H600.24L600.565 98.6313V98.989H599.7V99.3466H600.024V99.5255H599.916V102.119H599.7V102.387H599.375V102.745H599.159V102.476H598.943V102.208H599.051V102.029H598.943V101.94L598.835 100.42H598.943V100.241H598.727L598.51 99.2572L598.294 100.241H598.078V100.42H598.186L598.078 101.94V102.029H597.862V102.208H597.97V102.476H597.753V102.745H597.537V103.102H597.645V103.371H597.862V109.362H597.645V109.541H597.321V110.703H596.997V110.524H596.888V110.167H596.997V109.719H596.888V109.362L596.78 108.378H596.456L596.348 109.362V109.719H596.24V110.167H596.348V110.524H596.24V110.971V111.776H593.644L593.32 112.134H577.749V111.418H577.533V109.719H577.749V109.541H577.857V109.272H577.316V109.004H576.776V108.736H576.451V108.378C576.56 108.289 576.56 108.199 576.56 108.11C576.56 107.931 576.343 107.752 576.127 107.752C575.911 107.752 575.695 107.931 575.695 108.11C575.695 108.199 575.694 108.289 575.803 108.378V108.736H575.478V109.004H575.154V109.272H574.613V109.541H574.721V109.719H574.938V111.418H574.721V112.134H571.586V97.6477H572.018V96.8429H571.477V96.0381V95.4121V94.6968H571.369V94.0708L571.045 94.6968H570.829V95.4121H570.72V95.9487H570.504V96.7534H568.666V96.0381H568.342V95.591H567.909V94.6073H567.801C567.801 94.5179 567.693 94.2497 567.693 94.0708C567.693 93.8026 567.801 93.3555 567.693 93.266C567.585 93.0872 567.693 92.9084 567.693 92.8189C567.693 92.7295 567.693 92.2824 567.693 92.1035C567.693 91.9247 567.801 91.6565 567.693 91.567C567.585 91.4776 567.044 91.4776 567.152 91.6564C567.26 91.8353 567.26 92.1035 567.26 92.193C567.26 92.2824 567.152 92.4612 567.152 92.5507C567.152 92.6401 566.936 92.5507 566.936 92.5507C566.936 92.5507 566.828 92.3718 566.936 92.3718C566.936 92.3718 567.152 92.1036 566.936 92.0141C566.72 91.9247 566.395 91.9247 566.503 92.193C566.611 92.4612 566.72 92.5507 566.503 92.5507C566.395 92.5507 566.179 92.5507 566.179 92.8189C566.071 93.0872 566.071 93.1766 565.963 93.4449C565.854 93.7131 565.746 93.8026 565.854 93.8026C565.963 93.892 566.071 94.0708 566.071 94.0708C566.071 94.0708 566.179 94.2496 566.179 94.3391C566.179 94.4285 566.179 94.4285 566.179 94.5179V95.5016H565.746V95.9487H565.422V96.664H564.989V83.8768H565.206V83.6086H565.422V83.1615H564.881V82.7143H564.773V82.4461V82.0884H564.665V81.999C564.773 81.999 564.773 81.999 564.773 81.9096V81.8201C564.773 81.8201 564.773 81.7307 564.665 81.7307V81.1048C564.773 81.1048 564.773 81.1048 564.773 81.0154V80.9259L564.665 80.8365H564.557L564.665 80.7471C564.665 80.6577 564.557 80.5683 564.449 80.5683C564.341 80.5683 564.233 80.6577 564.233 80.7471C564.233 80.8365 564.232 80.8365 564.341 80.8365H564.233C564.124 80.8365 564.124 80.8365 564.124 80.9259V81.0154C564.124 81.0154 564.124 81.1048 564.233 81.1048V81.8201C564.124 81.8201 564.124 81.8201 564.124 81.9096V81.999C564.124 81.999 564.124 82.0884 564.233 82.0884V82.1778H564.124V82.5355V82.8038H563.259V82.5355V82.1778V82.0884C563.367 82.0884 563.367 82.0884 563.367 81.999V81.9096C563.367 81.9096 563.367 81.8201 563.259 81.8201V81.1048C563.367 81.1048 563.367 81.1048 563.367 81.0154V80.9259L563.259 80.8365H563.151L563.259 80.7471C563.259 80.6577 563.151 80.6577 563.151 80.5683V80.3894H562.719V80.0317H562.178V79.5846H561.745V74.8453H561.962V73.7723H561.745V73.6829V73.504V73.4146H561.854V73.3251C561.854 73.3251 561.854 73.3251 561.745 73.3251V72.878H561.854V72.7887C561.854 72.7887 561.854 72.7887 561.745 72.7887H561.637C561.637 72.7887 561.637 72.7886 561.637 72.6992C561.637 72.6098 561.637 72.6098 561.529 72.6098C561.421 72.6098 561.421 72.6098 561.421 72.6992V72.7887H561.313H561.205V72.878C561.205 72.878 561.205 72.878 561.313 72.878V73.3251H561.205V73.4146C561.205 73.4146 561.205 73.4146 561.313 73.4146V73.504V73.6829V73.7723H560.88V73.6829V73.504V73.4146H560.989V73.3251C560.989 73.3251 560.989 73.3251 560.88 73.3251V72.878H560.989V72.7887C560.989 72.7887 560.989 72.7887 560.88 72.7887H560.772C560.772 72.7887 560.772 72.7886 560.772 72.6992C560.772 72.6098 560.772 72.6098 560.664 72.6098C560.556 72.6098 560.556 72.6098 560.556 72.6992V72.7887H560.448H560.34V72.878C560.34 72.878 560.34 72.878 560.448 72.878V73.3251H560.34V73.4146C560.34 73.4146 560.34 73.4146 560.448 73.4146V73.504V73.6829V73.7723H560.232V72.9675H560.015V71.3579H560.232V71.0896H560.556V70.6425H560.015V70.1954H559.799L558.393 69.033V68.5859H558.934V67.4234L559.583 66.9763V66.5292H558.285V66.0821H558.61V64.8302H558.826V64.5619H559.042V64.3831H558.826H558.718V64.2937H558.285L557.853 55.7092L558.718 56.0669L558.285 55.6198C559.042 55.441 559.691 54.815 559.691 54.0997C559.691 53.4737 559.258 52.9372 558.61 52.6689C559.15 52.9372 559.475 53.4737 559.475 54.0103C559.475 54.815 558.718 55.5304 557.745 55.5304C556.771 55.5304 556.014 54.815 556.014 54.0103C556.014 53.4737 556.339 52.9372 556.88 52.6689C556.231 52.9372 555.798 53.4737 555.798 54.0997C555.798 54.815 556.339 55.441 557.204 55.6198L556.771 56.0669L557.528 55.7092L557.096 64.2937H556.663V64.3831H556.555H556.339V64.5619H556.555V64.8302H556.771V66.0821H557.096V66.5292H555.798V66.9763L556.447 67.4234V68.5859H556.988V68.9435L555.582 70.106H555.366V70.5531H554.609V71.0002H554.933V71.2685H555.149V72.878H554.933V73.6829H554.609V73.5934V73.4146V73.3251H554.717V73.2357C554.717 73.2357 554.717 73.2357 554.609 73.2357V72.7887H554.717V72.6992C554.717 72.6992 554.717 72.6992 554.609 72.6992H554.501C554.501 72.6992 554.501 72.6992 554.501 72.6098C554.501 72.5204 554.501 72.5204 554.393 72.5204C554.284 72.5204 554.284 72.5204 554.284 72.6098V72.6992H554.176H554.068V72.7887C554.068 72.7887 554.068 72.7887 554.176 72.7887V73.2357H554.068V73.3251C554.068 73.3251 554.068 73.3251 554.176 73.3251V73.4146V73.5934V73.6829H553.744V73.5934V73.4146V73.3251H553.852V73.2357C553.852 73.2357 553.852 73.2357 553.744 73.2357V72.7887H553.852V72.6992C553.852 72.6992 553.852 72.6992 553.744 72.6992H553.635C553.635 72.6992 553.635 72.6992 553.635 72.6098C553.635 72.5204 553.636 72.5204 553.527 72.5204C553.419 72.5204 553.419 72.5204 553.419 72.6098V72.6992V72.7887C553.419 72.7887 553.419 72.7887 553.527 72.7887V73.2357H553.419V73.3251C553.419 73.3251 553.419 73.3251 553.527 73.3251V73.4146V73.5934V73.6829H553.311V74.7559H553.527V79.4952H553.095V79.9423H552.662V80.3H552.23V80.4788C552.122 80.4788 552.122 80.5683 552.122 80.6577C552.122 80.7471 552.122 80.7471 552.23 80.7471H552.122C552.014 80.7471 552.014 80.7471 552.014 80.8365V80.9259C552.014 80.9259 552.014 81.0154 552.122 81.0154V81.7307C552.014 81.7307 552.014 81.7307 552.014 81.8201V81.9096C552.014 81.9096 552.014 81.999 552.122 81.999V82.0884H552.014V82.4461V82.7143H551.257V82.4461V82.0884H551.148V81.999C551.257 81.999 551.257 81.999 551.257 81.9096V81.8201L551.148 81.7307V81.1048C551.257 81.1048 551.257 81.1048 551.257 81.0154V80.9259L551.148 80.8365H551.04L551.148 80.7471C551.148 80.6577 551.04 80.5683 550.932 80.5683C550.824 80.5683 550.716 80.6577 550.716 80.7471C550.716 80.8365 550.716 80.8365 550.824 80.8365H550.716C550.608 80.8365 550.608 80.8365 550.608 80.9259V81.0154C550.608 81.0154 550.608 81.1048 550.716 81.1048V81.8201C550.608 81.8201 550.608 81.8201 550.608 81.9096V81.999C550.608 81.999 550.608 82.0884 550.716 82.0884V82.1778H550.608V82.5355V82.8038H550.283V83.2509H549.743V83.698H549.959V83.9663H550.175V96.7534H549.743V96.0381H549.418V95.591H548.986V94.6073H548.878C548.878 94.6073 548.878 94.5179 548.878 94.4285C548.878 94.3391 548.77 94.0708 548.77 94.0708L549.202 93.266C549.202 93.266 548.986 92.9978 548.878 92.9084C548.77 92.8189 548.445 92.7295 548.337 92.7295C548.229 92.7295 548.337 92.6401 548.337 92.4613C548.337 92.2824 548.121 92.193 547.905 92.2824C547.688 92.4612 547.905 92.7295 547.905 92.7295C547.905 92.7295 547.796 92.8189 547.688 92.8189C547.58 92.8189 547.256 92.8189 547.148 93.0872C546.931 93.4449 547.472 93.7131 547.472 93.7131C547.472 93.7131 547.472 93.7131 547.58 93.892C547.58 94.0708 547.905 94.1602 547.905 94.1602C547.905 94.1602 547.796 94.3391 547.58 94.4285C547.364 94.5179 547.58 94.6073 547.58 94.6073V94.6968H547.256V95.6804H546.823V96.1275H546.499V96.8429H544.661V96.0381H544.444V95.4121H544.336V94.6968H544.12L543.796 94.0708V94.6968H543.687V95.4121V95.9487V96.7534H543.147V97.5582H543.579V112.044H540.443V111.329H540.227V109.63H540.443V109.451H540.552V109.183H540.011V108.915H539.47V108.646H539.146V108.289C539.254 108.199 539.254 108.11 539.254 108.02C539.254 107.842 539.038 107.663 538.821 107.663C538.605 107.663 538.389 107.842 538.389 108.02C538.389 108.11 538.389 108.199 538.497 108.289V108.646H538.173V108.915H537.632V109.183H537.091V109.451H537.199V109.63H537.416V111.329H537.308V112.044H521.737L521.412 111.687H518.817V110.882V110.435H518.709V110.077H518.817V109.719H518.709V109.362L518.601 108.378H518.276L518.168 109.362V109.719H518.06V110.167H518.168V110.524H518.06V110.703H517.736V109.541H517.411V109.362H517.195V103.371H517.411V103.102H517.519V102.745H517.303V102.476H517.087V102.208H517.195V102.029H517.087V101.94L516.979 100.42H517.087V100.241H516.871L516.654 99.2572L516.438 100.241H516.222V100.42H516.33L516.222 101.94V102.029H516.114V102.208H516.222V102.476H516.006V102.745H515.789V102.387H515.465V102.119H515.249V99.5255H515.141V99.3466H515.465V98.989H514.6V98.6313L514.924 97.8265H515.032V97.7371V97.3794H514.816V97.7371H514.276V97.3794H514.059V97.7371H513.519V97.3794H513.302V97.7371H512.762V97.3794H512.437V97.7371V97.8265H512.545L512.87 98.6313V98.989H512.005V99.3466H512.329V99.5255H512.221V102.119H512.005V102.387H511.68V102.923V102.655H511.356V102.387H511.14V102.119H511.248V101.94H511.14V101.85L511.032 100.33H511.14V100.151H510.923L510.707 99.1678L510.491 100.151H510.275V100.33H510.383L510.275 101.85V101.94H510.167V102.119H510.275V102.387H510.058V102.655H509.842V103.013H510.058V103.281H510.167V109.272H510.058V109.451H509.734V110.614H509.193V110.435V110.077H509.301V109.719H509.193V109.362L509.085 108.378H508.761L508.653 109.362V109.719H508.545V110.167H508.653V110.524H508.545V110.971V111.776L508.22 112.223H508.653V117.231H507.679H507.463V117.678H507.679V117.857H507.463V118.93H502.057V97.7371V97.6477V96.8429H501.624V97.1111C501.3 96.9323 500.975 96.7534 500.435 96.7534V96.3063H499.786V96.7534C498.921 96.7534 498.056 96.7534 497.299 96.7534V96.1275H496.65V96.7534C495.677 96.7534 494.704 96.7534 493.73 96.7534V96.1275H492.974V96.7534C492.541 96.7534 492 96.7534 491.568 96.7534V94.8756H489.73V95.7698H475.24V90.9411H475.024V90.7622V90.2257H474.483V90.7622H473.942V90.9411H472.861V84.4134C473.618 83.9663 474.375 85.2182 475.24 85.3076V83.6086C474.267 83.9662 473.942 82.8038 472.861 82.8038V82.5355H472.645V90.9411H471.563V90.7622H471.023V90.2257H470.482V90.7622V90.9411H470.266V95.6804H455.776V94.7862H454.046V96.664C453.613 96.664 453.073 96.664 452.64 96.664V96.0381H451.992V96.664C451.018 96.664 450.045 96.664 449.072 96.664V96.0381H448.423V96.664C447.558 96.664 446.693 96.664 445.936 96.664V96.2169H445.287V96.664C444.747 96.664 444.422 96.8429 444.098 97.0217V96.7534H443.665V97.5582V97.6477V118.84H438.259V117.767H438.043V117.589H438.259V117.141H438.043H435.015L434.474 115.621L434.15 106.143H434.799V105.427H434.15L433.609 91.6564H434.042V90.9411H433.609V89.868H434.15V89.1527H433.609V88.3479H434.799V87.9902H435.555V87.0066H434.582V84.9499H435.123V83.4297H433.501L433.177 72.9675H433.285V71.805H433.501V70.3743H433.177V69.1224H433.501V67.6916H433.068L432.744 58.3919H433.501V57.6765H433.933V57.2294H434.474V54.1891H433.933V53.5631H433.501V50.8805H433.825V49.6286H433.285V49.0921H432.744V46.32H433.068V45.0682H432.744V42.1173H433.068V40.8654H432.744V37.6462H434.042V35.3213H434.258H434.474V32.8175H434.258V28.883H433.501V28.257H433.177V27.9888H432.311V25.1273H432.744V24.6802H432.311H431.879V18.5101H432.311V18.063H431.446V12.2507H431.987V11.8036H431.23V7.95846H431.446V7.51135H431.014V3.66625H431.338V3.21915H430.906V0.447105H431.122V0H430.257V0.447105H430.473V3.21915H430.041V3.66625H430.365V7.51135H429.933V7.95846H430.149V11.8036H429.392V12.2507H429.933V18.1525H429.176V18.5996H429.608V24.7696H429.176H428.743V25.2167H429.176V28.0782H428.311V28.3464H427.986V28.9724H427.229V32.9069H427.013V35.5001H427.229H427.446V37.8251H428.743V41.0442H428.419V42.2961H428.743V45.247H428.419V46.4989H428.743V49.2709H428.203V49.8075H427.662V51.0593H427.986V53.742H427.554V54.3679H427.013V57.4082H427.554V57.8553H427.986V58.5707H428.743L428.419 67.8705H427.986V69.3012H428.311V70.5531H427.986V71.9838H428.203V73.1463H428.311L427.986 83.6086H426.364V85.1287H426.905V87.1854H426.04V88.169H426.797V88.5267H427.986V89.3315H427.446V90.0469H427.986V91.1199H427.554V91.8353H427.986L427.446 105.606H426.797V106.321H427.446L427.121 115.8L426.581 117.32H424.526H424.31V117.767H424.526V117.946H424.31V124.027L420.958 131.449V128.14V118.214H421.39L419.768 117.141H419.119V108.825C419.011 107.931 418.687 107.305 418.362 107.305H418.254V107.126H417.173L411.766 84.9499H411.442V84.5028H411.766V83.9663H411.442V82.4461H411.766V81.9096H411.442V81.6413C411.875 81.5519 412.199 81.2836 412.199 80.8365C412.199 80.2106 410.901 79.5846 410.793 78.601V77.9751C410.901 77.9751 411.01 77.8856 411.01 77.7068C411.01 77.6174 410.901 77.4385 410.685 77.4385V74.9347H411.118V74.8453H410.685V74.4876H410.577V74.8453H410.144V74.9347H410.577V77.4385C410.469 77.4385 410.361 77.528 410.361 77.7068C410.361 77.7962 410.469 77.8856 410.577 77.9751V78.601C410.469 79.5846 409.171 80.2106 409.171 80.8365C409.171 81.2836 409.496 81.4625 409.928 81.6413V81.9096H409.604V82.4461H409.928V83.9663H409.604V84.5028H409.928V84.9499H409.604L404.197 107.126H402.9V107.305H402.792C402.359 107.305 402.035 108.02 402.035 108.825V117.052H401.061L399.439 118.125H399.872V121.612L393.925 123.311V128.051H392.951V121.076H392.411V119.556H393.492V117.231H393.925L389.491 115.8V113.654H389.599L390.14 112.939H391.005V112.223H389.167L388.194 103.46H388.41V102.298H388.842V101.224H388.951L389.491 100.42H389.708V99.9726H388.734C388.734 99.7938 388.734 99.7043 388.734 99.5255C388.734 98.2736 387.977 97.29 387.112 97.29L386.031 94.6968V91.4776H386.139L386.896 90.1363V88.7056H387.22V88.169H387.653V86.8277H387.329C389.167 86.2018 390.248 85.1287 390.356 82.9826C390.464 79.1375 382.03 76.3655 381.381 69.9272H381.273L381.057 67.334C381.381 67.1551 381.598 66.9763 381.598 66.6186C381.598 66.1715 381.165 65.9032 380.733 65.8138V61.9687H381.49V61.7899H380.733V61.1639H380.516V61.7899H379.759V61.9687H380.516V65.8138C379.976 65.9032 379.651 66.1715 379.651 66.6186C379.651 66.8868 379.759 67.0657 380.084 67.2445L379.868 69.9272H379.759C379.219 75.0242 373.92 77.7962 371.758 80.6577C371.001 77.1703 363.54 74.3088 362.891 68.2282H362.783L362.566 65.635C362.891 65.4561 363.107 65.2773 363.107 64.9196C363.107 64.4725 362.675 64.2042 362.242 64.1148V60.2697H362.999V60.0909H362.242V59.6438H362.026V60.2697H361.269V60.4485H362.026V64.2937C361.485 64.3831 361.161 64.6513 361.161 65.0984C361.161 65.3667 361.269 65.5455 361.593 65.7244L361.377 68.407H361.269C361.053 70.0166 360.404 71.4473 359.539 72.6992C359.431 72.3415 359.214 72.0733 358.89 71.8944V69.8377H358.025V67.6916H358.566V67.0657H358.89V66.3503H359.322V65.9032H359.863V65.5455L358.241 65.1879H357.809L351.104 47.8402H350.78V46.8566H351.321V46.4095H351.645V45.247H351.321V44.7999H350.996V42.8326H351.321V42.1173H350.996V41.5807H351.429V41.1336H350.996V40.8654H352.078V40.5077H350.888C351.969 40.0606 352.726 39.2558 352.726 38.3616C352.726 35.9472 348.726 35.679 349.266 31.7444C349.374 31.655 349.374 31.5656 349.374 31.4762C349.374 31.2079 349.158 31.0291 348.834 31.0291V26.9157H349.591V26.558H348.834V25.9321H348.617V26.558H347.86V26.7369H348.617V30.8502C348.293 30.8502 348.077 31.1185 348.077 31.2973C348.077 31.3867 348.185 31.4762 348.185 31.5656C348.726 35.5001 344.725 35.7684 344.725 38.1827C344.725 39.0769 345.482 39.8817 346.563 40.3288H345.373V40.6865H346.455V40.9548H346.022V41.4019H346.455V41.9384H346.13V42.6538H346.455V44.6211H346.13V45.0682H345.806V46.2306H346.13V46.6777H346.671V47.6614H346.347L339.642 65.009H339.21L337.588 65.3667V65.7244H338.129V66.1715H338.561V66.8869H338.885V67.5128H339.426V69.6589H338.561V71.7156C338.02 72.1627 337.696 72.8781 337.696 73.6829C337.696 74.13 337.804 74.4876 337.912 74.8453C337.48 75.2924 337.155 75.9184 337.155 76.6337C337.155 77.0808 337.264 77.4385 337.372 77.7962C336.939 78.2433 336.615 78.8692 336.615 79.5846C336.615 80.1211 336.723 80.5683 336.939 80.9259L334.452 82.0884V82.5355H335.425V83.2509L336.398 83.6086V84.0557H334.993V85.3076H335.642V86.3806H334.993V87.6325H335.642V87.8114C333.803 89.7786 331.965 91.4776 331.965 93.0872C331.965 93.3554 331.965 93.5343 332.073 93.8026H331.208V91.8353H331.641V91.6564L331.1 90.9411H328.937V87.3643H329.154V86.8277H328.937V85.5758H329.154V84.8605H329.37V84.2345H329.802V83.2509H328.397C329.911 82.5355 330.884 81.373 330.884 79.674C330.992 76.7232 324.504 73.504 323.963 68.4964H323.855L323.747 66.4398C324.18 66.3503 324.396 65.9927 324.396 65.635C324.396 65.1879 323.963 64.9196 323.531 64.8302V60.9851H324.288V60.8062H323.531V60.1803H323.315V60.8062H322.558V60.9851H323.315V64.8302C322.774 64.9196 322.449 65.1879 322.449 65.635C322.449 65.9032 322.666 66.1715 322.99 66.3503L322.774 68.4964C322.774 68.4964 322.774 68.4964 322.666 68.4964C322.125 73.504 315.637 76.7232 315.745 79.674C315.745 81.373 316.718 82.5355 318.232 83.2509H316.827V84.2345H317.259V84.8605H317.475V85.5758H317.692V86.7383H317.475V87.2748H317.692V91.0305H315.529L314.988 91.7459V91.9247H315.421V92.9084C315.313 92.9084 315.205 92.8189 314.988 92.8189C313.799 92.8189 312.934 94.3391 312.934 96.3063C312.934 96.4852 312.934 96.664 312.934 96.7534H312.393V97.2006H312.934V97.5582L313.583 100.777H313.907V110.435H313.583L312.934 110.793V110.882H313.474V113.565C313.258 113.475 313.042 113.475 312.826 113.475L313.042 114.28H313.15V115.174H312.177V114.28H312.285L312.501 113.475C312.177 113.475 311.744 113.565 311.42 113.743C311.096 113.654 310.771 113.565 310.447 113.565L309.582 111.955L308.609 113.743C308.284 113.654 307.96 113.565 307.635 113.565L307.852 114.369H307.96V115.085L307.635 115.711H306.987V114.191H307.095L307.311 113.386C306.987 113.386 306.554 113.475 306.23 113.654C305.905 113.565 305.473 113.475 305.148 113.386L305.365 114.191H305.473V115.532H304.5V114.191H304.608L304.824 113.386C304.608 113.386 304.391 113.475 304.283 113.475V108.11H304.716V107.752H304.283V105.785H304.716V105.427H304.283V97.4688H304.716V97.1111H304.283V88.169H304.716V87.5431H304.932V87.1854H304.716H303.743V86.2018H303.202V85.7547H303.743V84.5028H303.202V84.0557H303.743V83.0721H304.175V80.3894H303.743L303.31 77.6174L303.094 78.7798L302.229 73.1463L301.364 78.7798L301.147 77.6174L300.715 80.3894H300.174V80.9259L298.769 80.3894H297.904V75.829H296.93V68.407H296.714L296.282 63.4888L296.065 66.0821H295.633V62.4158H295.957V60.6274H296.39V58.3024H295.957V53.0266H296.282L295.849 48.2873L295.633 51.0593L294.551 48.4661H294.011L293.794 46.0518L293.578 48.4661H291.74L287.523 25.6638L289.685 27.0945L288.712 24.9484L290.983 23.6965L288.28 23.786L287.523 21.5504L286.766 23.786L284.063 23.6965L286.333 24.9484L285.36 27.0945L287.523 25.6638L283.306 48.4661H281.467L281.251 46.0518L281.035 48.4661H280.602L279.521 51.0593L279.305 48.2873L278.872 53.0266H279.197V58.3024H278.764V60.6274H279.197V62.4158H279.521V66.0821H278.872L278.656 63.4888L278.223 68.407H278.007V75.829H277.034V80.3894H276.169L274.763 80.9259V80.3894H274.223L273.79 77.6174L273.574 78.7798L272.709 73.1463L271.844 78.7798L271.627 77.6174L271.195 80.3894H270.654V83.0721H271.087V84.0557H271.627V84.5028H271.087V85.7547H271.627V86.2018H271.087V87.1854H270.871H270.654V87.5431H270.871V88.169H271.303V97.1111H270.871V97.4688H271.303V105.427H270.871V105.785H271.303V107.752H270.871V108.11H271.303V115.621H270.762V114.191H270.871L271.087 113.386C270.762 113.386 270.33 113.475 270.005 113.654C269.681 113.565 269.249 113.475 268.924 113.386L269.14 114.191H269.249V115.532H268.275V114.191H268.383L268.6 113.386C268.275 113.386 267.843 113.475 267.518 113.654C267.194 113.565 266.762 113.475 266.437 113.386L266.653 114.191H266.762V115.532H265.788V114.191H265.896L266.113 113.386C265.788 113.386 265.356 113.475 265.031 113.654C264.707 113.565 264.274 113.475 263.95 113.386L264.166 114.191H264.274V115.532H262.652V114.191H262.761L262.977 113.386C262.652 113.386 262.22 113.475 261.896 113.654C261.571 113.565 261.139 113.475 260.814 113.386L261.031 114.191H261.139V115.532H260.165V114.191H260.274L260.49 113.386C260.165 113.386 259.733 113.475 259.409 113.654C259.084 113.565 258.652 113.475 258.327 113.386L258.543 114.191H258.652V115.532H257.678V114.191H257.787L258.003 113.386C257.678 113.386 257.246 113.475 256.921 113.654C256.597 113.565 256.165 113.475 255.84 113.386L256.056 114.191H256.165V115.532H255.191V114.191H255.3L255.516 113.386C255.191 113.386 254.759 113.475 254.434 113.654C254.11 113.565 253.678 113.475 253.353 113.386L253.569 114.191H253.678V115.532H253.029V110.614H253.245V109.183H251.839L251.623 107.663L251.407 109.183H251.299V109.272H250.974L249.569 104.086L248.163 109.272H247.73V109.183H247.622L247.406 107.663L247.19 109.183H246.865V110.614H247.081V115.532H246.433V114.191H246.541L246.757 113.386C246.433 113.386 246 113.475 245.676 113.654C245.351 113.565 244.919 113.475 244.594 113.386L244.811 114.191H244.919V115.532H243.946V114.191H244.054L244.27 113.386C243.946 113.386 243.513 113.475 243.189 113.654C242.864 113.565 242.432 113.475 242.107 113.386L242.324 114.191H242.432V115.532H241.459V114.191H241.567L241.783 113.386C241.459 113.386 241.026 113.475 240.702 113.654C240.377 113.565 239.945 113.475 239.62 113.386L239.729 114.191H238.863L238.972 113.386C238.647 113.386 238.215 113.475 237.89 113.654C237.674 113.565 237.458 113.565 237.241 113.475V109.451H237.782V109.094H237.241V105.07H237.782V104.712H234.863L232.376 103.46L230.754 104.801H225.671L223.617 103.46L221.562 104.801H217.561V105.159H218.102V109.183H217.561V109.541H218.102V113.386H217.561V111.597H217.778V110.703H217.345V110.077L215.939 105.785H216.156V105.338H215.831V101.672H216.156V101.224H214.858L213.236 97.5582L211.614 101.224H210.317V101.672H210.641V105.07H210.317V105.517H210.533L209.127 109.809V110.435H209.019V96.1275H209.452V95.6804H209.019V83.6086H209.452V83.1615H208.911V81.7307H208.478L208.262 79.4058L208.154 77.7962C208.37 77.7068 208.478 77.6174 208.478 77.4385C208.478 77.1703 208.262 76.9914 207.938 76.9914C207.613 76.9914 207.397 77.1703 207.397 77.4385C207.397 77.6174 207.505 77.7962 207.721 77.7962L207.613 79.4058L207.397 81.7307H206.965V82.3567H205.126V81.6413L203.18 80.7471H202.639L200.693 81.6413V82.3567H198.855V81.7307H198.422L198.206 79.4058L198.098 77.7962C198.314 77.7068 198.422 77.6174 198.422 77.4385C198.422 77.1703 198.206 76.9914 197.881 76.9914C197.557 76.9914 197.341 77.1703 197.341 77.4385C197.341 77.6174 197.449 77.7962 197.665 77.7962L197.557 79.4058L197.341 81.7307H196.908V83.1615H196.368V83.6086H196.8V90.9411H193.989V72.3415H194.097V69.8377H193.448L193.124 66.7974L192.907 64.6513C193.124 64.5619 193.34 64.3831 193.34 64.1148C193.34 63.7571 193.016 63.5783 192.691 63.5783C192.259 63.5783 192.042 63.8465 192.042 64.1148C192.042 64.3831 192.259 64.5619 192.475 64.6513L192.259 66.7974L191.934 69.8377H191.285V71.6262H188.582V70.0166H186.852V56.3352H186.744V55.7092H186.528L186.419 54.7256L186.311 54.0103C186.419 54.0103 186.419 53.9208 186.419 53.8314C186.419 53.742 186.311 53.6525 186.203 53.6525C186.095 53.6525 185.987 53.742 185.987 53.8314C185.987 53.9208 186.095 53.9208 186.095 54.0103L185.987 54.7256L185.879 55.7092V56.3352H185.338V55.6198H184.473V55.2621H183.284C183.392 55.0833 183.392 54.815 183.392 54.5468C183.392 53.6525 182.851 52.9372 182.094 52.4901V51.6853H181.662L181.121 42.7432L180.905 38.0039L181.554 38.2722L181.121 37.9145C181.77 37.7356 182.202 37.1991 182.202 36.6626C182.202 36.1261 181.878 35.6789 181.337 35.5001C181.77 35.6789 181.986 36.126 181.986 36.5732C181.986 37.2885 181.337 37.8251 180.58 37.8251C179.823 37.8251 179.175 37.2885 179.175 36.5732C179.175 36.126 179.499 35.6789 179.823 35.5001C179.283 35.6789 178.958 36.2155 178.958 36.6626C178.958 37.2885 179.391 37.7356 180.148 37.9145L179.715 38.2722L180.364 38.0039L180.148 42.7432L179.607 51.6853H179.175V52.4901C178.418 52.9372 177.877 53.6525 177.877 54.5468C177.877 54.815 177.877 54.9939 177.985 55.2621H176.796V55.6198H175.931V56.3352H175.39V55.7092H175.174L175.066 54.7256L174.957 54.0103C175.066 54.0103 175.066 53.9208 175.066 53.8314C175.066 53.742 174.957 53.6525 174.849 53.6525C174.741 53.6525 174.633 53.742 174.633 53.8314C174.633 53.9208 174.741 53.9208 174.741 54.0103L174.633 54.7256L174.525 55.7092H174.309V56.3352H174.201V70.0166H172.47V71.6262H169.767V69.8377H169.227L168.902 66.7974L168.686 64.6513C168.902 64.5619 169.118 64.3831 169.118 64.1148C169.118 63.7571 168.794 63.5783 168.47 63.5783C168.037 63.5783 167.821 63.8465 167.821 64.1148C167.821 64.3831 168.037 64.5619 168.253 64.6513L168.037 66.7974L167.713 69.8377H167.172V72.3415H167.28V90.9411H161.333V83.6086H161.765V83.1615H161.225V81.7307H160.792L160.576 79.4058L160.468 77.7962C160.684 77.7068 160.792 77.6174 160.792 77.4385C160.792 77.1703 160.576 76.9914 160.252 76.9914C159.927 76.9914 159.711 77.1703 159.711 77.4385C159.711 77.6174 159.819 77.7962 160.035 77.7962L159.927 79.4058L159.711 81.7307H159.278V82.3567H157.44V81.6413L155.494 80.7471H154.953L153.007 81.6413V82.3567H151.168V81.7307H150.736L150.52 79.4058L150.412 77.7962C150.628 77.7068 150.736 77.6174 150.736 77.4385C150.736 77.1703 150.52 76.9914 150.195 76.9914C149.871 76.9914 149.655 77.1703 149.655 77.4385C149.655 77.6174 149.763 77.7962 149.979 77.7962L149.871 79.4058L149.655 81.7307H149.222V83.1615H148.681V83.6086H149.114V95.6804H148.681V96.1275H149.114V115.89H148.465V114.727H144.897V113.475H141.977L138.193 51.9536H137.219V51.5959H136.138V50.1651H132.57C131.921 46.4095 131.272 44.0845 130.407 44.0845C130.191 44.0845 129.975 44.2634 129.758 44.6211H117.864V44.174H117.648V44.6211H116.35V43.7268H116.134V44.6211H113.322C113.106 44.2634 112.89 44.0845 112.673 44.0845C110.727 44.0845 109.105 57.3188 109.105 73.504C109.105 78.2433 109.213 82.8038 109.538 86.7383L108.132 86.6489V75.829H108.889V55.8881H108.132V41.1336H108.889V22.7129H104.239V20.6562H96.1293V22.7129H94.7236V40.5971V41.1336V55.8881V56.8717V75.3819V75.829V85.397L93.3179 86.47V81.5519H93.9667V59.912H92.4528V41.4019H92.8853V18.1525H88.7763V15.8275H80.1258V18.1525H78.1794V41.223H76.99V62.0581H77.855V80.6577H77.7469L76.99 81.6413V63.2206C72.4484 63.2206 68.2313 64.7407 64.3385 67.6022C62.6084 80.1211 61.2027 92.6401 62.0677 104.622H61.0945V107.931H59.9051V86.2912C59.797 85.8441 59.2563 85.4864 58.4994 85.0393C58.175 83.698 56.6611 82.3567 53.6334 81.1942V28.6147H52.2277V26.9157H51.5789V25.3955C50.822 25.1273 50.0651 24.859 49.2 24.6802V24.2331C49.3082 24.2331 49.4163 24.3225 49.4163 24.3225V23.9648C40.7657 21.0139 32.6558 20.8351 25.1947 23.9648L25.3029 24.3225C25.411 24.3225 25.5191 24.2331 25.6273 24.2331V24.5908C24.8703 24.859 24.1134 25.1273 23.3565 25.3955V28.6147V30.8502V110.524H21.8427V60.4485C21.1939 60.538 20.5451 60.538 19.7881 60.6274V60.0909C13.6246 60.538 8.65056 61.5216 7.56924 64.2937C6.92044 65.009 6.48792 65.8138 6.48792 66.7974V113.296H3.67649V114.727H0.54066V131.717H0V160.6H613V131.717H606.62ZM548.445 94.2497C548.445 94.1602 548.553 94.0708 548.661 94.2497C548.661 94.3391 548.661 94.5179 548.661 94.6073H548.445C548.445 94.5179 548.445 94.3391 548.445 94.2497ZM370.893 84.0557C371.217 85.5758 372.298 86.47 373.812 87.0066H373.488V88.3479H373.92V88.8844H374.028C372.623 90.7623 370.244 92.0141 369.919 93.5343L369.162 91.6564V87.096H369.703V86.47H370.136V85.1287H369.487C370.027 84.771 370.568 84.5028 370.893 84.0557ZM49.0919 24.5908C48.9838 24.5013 48.7675 24.5013 48.6594 24.4119V23.8754C48.7675 23.9648 48.9838 23.9648 49.0919 24.0542V24.5908ZM37.4137 21.9975C37.5218 21.9975 37.738 21.9975 37.8462 21.9975V22.7129C37.738 22.7129 37.5218 22.7129 37.4137 22.7129V21.9975ZM38.1706 21.9975C38.3868 21.9975 38.6031 21.9975 38.8194 21.9975H38.7112V22.7129C38.6031 22.7129 38.3868 22.7129 38.2787 22.7129V21.9975H38.1706ZM38.8194 22.087C38.9275 22.087 39.1438 22.087 39.2519 22.087V22.8023C39.1438 22.8023 38.9275 22.8023 38.8194 22.8023V22.087ZM39.5763 22.087C39.6844 22.087 39.9007 22.087 40.0088 22.087V22.8023C39.9007 22.8023 39.6844 22.8023 39.5763 22.8023V22.087ZM40.3332 22.1764C40.4413 22.1764 40.6576 22.1764 40.7657 22.2658V22.9812C40.6576 22.9812 40.4413 22.9812 40.3332 22.9812V22.1764ZM41.0901 22.2658C41.1983 22.2658 41.4145 22.2658 41.5227 22.3552V23.0706C41.4145 23.0706 41.1983 23.0706 41.0901 22.9812V22.2658ZM41.8471 22.3552C41.9552 22.3552 42.1715 22.4446 42.2796 22.4446V23.16C42.1715 23.16 41.9552 23.16 41.8471 23.0706V22.3552ZM42.604 22.4446C42.7121 22.4446 42.9284 22.5341 43.0365 22.5341V23.2494C42.9284 23.2494 42.7121 23.16 42.604 23.16V22.4446ZM43.3609 22.6235C43.5772 22.6235 43.7934 22.7129 43.9016 22.7129H43.7934V23.3389C43.6853 23.3389 43.469 23.2494 43.3609 23.2494V22.6235ZM44.1178 22.8023C44.3341 22.8023 44.4422 22.8918 44.6585 22.8918H44.5504V23.5177C44.4422 23.5177 44.226 23.4283 44.1178 23.4283V22.8023ZM44.8748 22.8918C44.9829 22.8918 45.1992 22.9812 45.3073 22.9812V23.6071C45.1992 23.6071 44.9829 23.5177 44.8748 23.5177V22.8918ZM45.6317 23.0706C45.7398 23.0706 45.9561 23.16 46.0642 23.16V23.786C45.9561 23.786 45.7398 23.6965 45.6317 23.6965V23.0706ZM46.3886 23.2494C46.4967 23.2494 46.713 23.3389 46.8211 23.3389V23.8754C46.713 23.8754 46.4967 23.786 46.3886 23.786V23.2494ZM47.1455 23.5177C47.2537 23.6071 47.4699 23.6071 47.5781 23.6965V24.2331C47.4699 24.2331 47.2537 24.1437 47.1455 24.1437V23.5177ZM47.9025 23.6965C48.0106 23.786 48.2268 23.786 48.335 23.8754V24.4119C48.2268 24.4119 48.0106 24.3225 47.9025 24.3225V23.6965ZM37.0893 21.9975V22.7129C36.9811 22.7129 36.7649 22.7129 36.6567 22.7129V21.9975C36.7649 21.9975 36.9811 21.9975 37.0893 21.9975ZM27.5736 24.0542V23.5177C27.6818 23.4283 27.898 23.4283 28.0062 23.3389V23.8754C27.898 23.8754 27.7899 23.9648 27.5736 24.0542ZM28.3306 23.2494C28.4387 23.16 28.655 23.16 28.7631 23.16V23.6965C28.655 23.6965 28.4387 23.786 28.3306 23.786V23.2494ZM29.0875 23.0706C29.1956 23.0706 29.4119 22.9812 29.52 22.9812V23.6071C29.4119 23.6071 29.1956 23.6965 29.0875 23.6965V23.0706ZM29.8444 22.8023C29.9525 22.8023 30.1688 22.7129 30.2769 22.7129V23.3389C30.1688 23.3389 29.9525 23.4283 29.8444 23.4283V22.8023ZM30.6013 22.7129C30.7095 22.7129 30.9257 22.6235 31.0339 22.6235V23.2494C30.9257 23.2494 30.7095 23.3389 30.6013 23.3389V22.7129ZM31.3583 22.5341C31.4664 22.5341 31.6827 22.4446 31.7908 22.4446V23.0706C31.6827 23.0706 31.4664 23.16 31.3583 23.16V22.5341ZM32.1152 22.3552C32.2233 22.3552 32.4396 22.2658 32.5477 22.2658V22.9812C32.4396 22.9812 32.2233 22.9812 32.1152 23.0706V22.3552ZM32.8721 22.2658C32.9802 22.2658 33.1965 22.2658 33.3046 22.1764V22.8918C33.1965 22.8918 32.9802 22.8918 32.8721 22.9812V22.2658ZM33.629 22.1764C33.7372 22.1764 33.9534 22.1764 34.0616 22.087V22.8023C33.9534 22.8023 33.7372 22.8023 33.629 22.8023V22.1764ZM34.386 22.087C34.4941 22.087 34.7104 22.087 34.8185 22.087V22.8023C34.7104 22.8023 34.4941 22.8023 34.386 22.8023V22.087ZM35.1429 22.087C35.251 22.087 35.4673 22.087 35.5754 22.087V22.8023C35.4673 22.8023 35.251 22.8023 35.1429 22.8023V22.087ZM35.8998 21.9975C36.0079 21.9975 36.2242 21.9975 36.3323 21.9975V22.7129C36.2242 22.7129 36.0079 22.7129 35.8998 22.7129V21.9975ZM26.0598 24.0542C26.4923 23.8754 26.9249 23.6965 27.2492 23.6071V24.0542C26.8167 24.1436 26.3842 24.3225 26.0598 24.4119V24.0542Z" fill="url(#paint0_linear)"/>
<defs>
<linearGradient id="paint0_linear" x1="316" y1="-33" x2="306.5" y2="160.6" gradientUnits="userSpaceOnUse">
<stop stop-color="#219653"/>
<stop offset="1"/>
</linearGradient>
</defs>
</svg>
