<svg width="282" height="188" viewBox="0 0 282 188" fill="none" xmlns="http://www.w3.org/2000/svg">
<path d="M282 188V152.796C281.706 152.784 281.412 152.77 281.117 152.757C279.832 152.698 278.537 152.638 277.244 152.638C276.958 135.27 276.672 118.215 276.244 99.5165C276.012 99.2875 275.794 99.0832 275.575 98.8821C275.121 98.4657 274.658 98.063 274.031 97.4827C274.103 95.5266 273.96 92.6323 274.031 90.598C273.588 89.0915 272.869 87.6758 272.148 86.2567C271.708 85.3912 271.269 84.5241 270.89 83.6351C270.857 82.6559 270.824 81.5702 270.789 80.4063C270.595 74.0401 270.329 65.3412 269.605 58.9914C268.962 67.2061 268.606 75.3422 268.249 83.5569C268.249 84.0481 267.774 85.1694 267.179 86.3819C266.353 88.067 265.297 89.9286 264.964 90.5198C264.964 92.7885 264.964 94.8228 264.893 97.5609C264.251 98.1865 263.251 99.0471 262.609 99.5952C262.609 105.161 262.636 110.719 262.663 116.272C262.724 128.751 262.784 141.203 262.537 153.655H253.471C253.437 153.655 253.452 154.335 253.469 155.112C253.488 155.961 253.509 156.927 253.471 157.254H249.402V155.611H243.262V158.193C242.504 158.193 241.782 158.212 241.069 158.232C240.372 158.252 239.684 158.271 238.979 158.271V141.841C237.944 141.841 236.926 141.822 235.909 141.802C234.892 141.782 233.874 141.763 232.839 141.763V135.427H230.983V130.028H229.199V126.821H225.7C225.7 127.759 225.772 129.011 225.7 130.106H223.63V136.443H222.487V139.495L219.275 139.573V141.45C218.49 141.529 217.918 141.529 217.062 141.529H214.706V152.951C213.92 152.951 213.207 152.873 212.422 152.873V147.631L211.779 147.553C211.779 146.298 211.92 144.948 212.06 143.628C212.276 141.574 212.484 139.593 212.136 138.165C211.954 137.414 211.721 136.928 211.46 136.565C211.229 136.241 210.978 136.015 210.724 135.787C210.373 135.471 210.019 135.153 209.708 134.566L209.138 111.878H210.423L210.28 105.619C210.044 105.619 209.845 105.614 209.667 105.607C209.486 105.599 209.324 105.589 209.164 105.578L208.828 105.559C208.625 105.548 208.407 105.541 208.138 105.541C208.074 105.173 208.058 104.684 208.04 104.106C207.957 101.484 207.816 97.0396 202.784 93.9622C202.784 93.13 202.737 92.2853 202.69 91.4591V91.4312C202.623 90.2483 202.558 89.1041 202.641 88.0943C202.673 87.7053 202.793 87.3321 202.921 86.9753C203.077 86.5425 203.244 86.1332 203.283 85.7475C203.317 85.3787 203.271 84.7142 203.221 83.9837C203.165 83.1646 203.103 82.2625 203.141 81.6008C203.199 80.291 203.266 79.0102 203.334 77.7234L203.34 77.6169L203.344 77.5792C203.527 74.1477 203.712 70.6698 203.712 66.5018C203.283 65.9543 203.212 65.4063 202.499 65.0937C202.212 64.9369 201.785 64.4675 201.785 64.155C201.785 62.5174 202.387 61.8557 203.084 61.0913C203.485 60.6509 203.917 60.176 204.283 59.4608C204.554 58.9417 204.905 58.4756 205.259 58.004C205.653 57.48 206.053 56.9489 206.353 56.3315C206.838 55.3818 207.409 54.4322 207.989 53.4732C208.603 52.4574 209.23 51.4318 209.781 50.3854C209.781 48.1949 209.637 46.5518 209.209 44.4394H204.64C204.425 45.3 204.14 46.2393 203.926 47.178C203.212 47.178 202.713 47.0999 202.07 46.7868C201.794 46.7004 201.736 45.7563 201.679 44.8356C201.633 44.0875 201.588 43.3548 201.428 43.1094C201.23 42.7586 201.016 42.3887 200.797 42.0101C200.38 41.2915 199.946 40.5408 199.572 39.8239C199.188 39.095 198.602 38.4764 198.008 37.8497C196.946 36.7279 195.859 35.5788 195.859 33.7216C196.002 33.6434 196.502 31.6873 196.502 31.1398C196.502 30.8693 196.515 30.589 196.529 30.3076C196.548 29.9257 196.57 29.5415 196.564 29.1754C196.558 28.7197 196.508 28.2919 196.359 27.9323L196.599 27.8072C197.975 27.0898 199.005 26.5516 200.357 25.6631C199.406 25.8194 198.456 25.9063 197.506 25.9931C197.028 26.0368 196.551 26.0806 196.074 26.133C195.954 25.7844 195.856 25.6298 195.733 25.4801L195.625 25.356C195.55 25.2719 195.464 25.1746 195.359 25.0375C195.573 24.49 196.43 21.9863 196.644 21.3607C195.716 21.9863 194.788 23.0819 194.075 24.0987C193.646 23.8638 193.075 23.8638 192.575 23.8638C192.37 23.3004 192.065 22.6644 191.725 22.0262C191.357 21.335 190.947 20.6405 190.576 20.0307C190.576 21.3607 190.648 22.7688 190.791 24.0987C190.362 24.0987 189.791 24.49 189.434 24.8025C189.095 24.5905 188.034 24.1621 187.162 23.8108L186.709 23.6272C186.484 23.5365 186.29 23.4562 186.15 23.3944C186.402 23.908 186.819 24.4812 187.251 25.044C187.676 25.5959 188.116 26.1374 188.434 26.6024V29.4186C188.363 30.4355 188.792 32.1566 189.077 33.1741C187.848 33.1741 187.699 31.2491 187.554 29.3885C187.483 28.4706 187.413 27.5679 187.215 26.9204C187.022 26.2887 186.707 25.8997 186.15 25.9762C185.579 26.0543 185.15 24.255 185.079 23.7075C184.294 19.4827 183.509 16.0403 182.581 12.0504L182.723 9.31232C182.723 8.45172 183.438 7.43485 184.222 7.35672V5.32243H182.581C182.49 5.00169 182.525 4.64543 182.622 4.27278C182.721 3.89466 182.885 3.50015 183.047 3.10947C183.35 2.3811 183.647 1.66585 183.509 1.09759C183.469 0.879023 183.162 1.07518 182.825 1.29102C182.558 1.46204 182.27 1.64509 182.08 1.64509C182.005 1.64509 181.79 1.43308 181.538 1.16152C181.394 1.00579 181.238 0.830392 181.09 0.663737C180.76 0.293271 180.471 -0.0323898 180.439 0.00258049C180.376 0.105306 180.396 0.434791 180.396 0.745152C180.395 1.14185 180.362 1.50794 180.082 1.33254C179.226 0.706357 177.797 0.471947 178.511 2.27128C178.612 2.51388 178.764 2.82424 178.926 3.15755C179.341 4.00832 179.827 5.00715 179.725 5.40057H177.941C177.941 5.66175 177.928 5.9366 177.923 6.21363C177.921 6.3852 177.921 6.55732 177.93 6.7278C177.942 6.94199 177.966 7.15345 178.012 7.35672C179.511 7.90422 180.724 12.9891 180.724 14.4759C180.724 14.9595 180.683 15.8545 180.703 16.7102C180.73 17.7932 180.857 18.8133 181.296 18.857C181.456 18.8789 181.577 18.8089 181.676 18.7516C181.929 18.604 182.038 18.5406 182.295 20.3433C182.35 20.7307 182.392 21.2399 182.424 21.8257C182.469 22.6551 182.495 23.6381 182.512 24.6457C182.526 25.5216 182.534 26.4166 182.541 27.2455C182.551 28.3269 182.559 29.2967 182.581 29.9661C182.52 30.0983 182.18 30.2027 181.796 30.3202C181.271 30.4814 180.664 30.6671 180.582 30.9835C179.873 33.5959 180.676 34.934 181.785 36.7804C181.905 36.9798 182.028 37.1853 182.153 37.3984C182.83 38.5704 183.311 40.4632 183.766 42.2505C184.221 44.0433 184.65 45.7295 185.222 46.4737C186.183 47.7239 185.881 48.1993 185.42 48.9243C185.334 49.0609 185.241 49.2068 185.15 49.3686C185.007 49.6254 184.849 49.8472 184.693 50.0658C184.233 50.7127 183.794 51.3291 183.794 52.7323C183.794 56.0315 184.366 56.3025 184.849 56.5309C184.978 56.5921 185.101 56.6506 185.205 56.7631C185.385 56.9577 185.508 57.3145 185.508 58.1308C185.508 59.3335 185.192 59.5739 184.873 59.8165C184.549 60.0629 184.222 60.3115 184.222 61.5732C184.222 63.3627 184.476 65.4767 184.706 67.3979L184.709 67.4143C184.902 69.0142 185.079 70.4791 185.079 71.5086C185.079 75.1078 184.936 80.0364 184.722 84.7306C184.722 84.9907 184.698 85.2688 184.662 85.5508C184.613 85.9273 184.54 86.3108 184.473 86.6693C184.379 87.1714 184.294 87.6244 184.294 87.938C184.294 88.3091 184.433 88.7019 184.564 89.0363C184.682 89.3363 184.794 89.5893 184.794 89.7374C184.875 90.8051 184.632 91.5946 184.422 92.3503C184.262 92.9235 184.12 93.4776 184.151 94.1185C180.724 96.1528 179.725 100.377 179.939 105.776L177.298 105.697C177.298 107.653 177.226 110.157 177.298 112.034H178.226C178.226 120.006 178.45 128.53 178.651 136.137L178.725 139.025H171.301C171.301 137.99 171.266 136.766 171.23 135.531V135.49C171.194 134.217 171.158 132.933 171.158 131.827H166.875V137.148L162.449 137.226C162.306 132.375 162.306 122.048 162.377 117.354H152.383C152.383 120.718 152.454 125.491 152.454 128.698H150.598C150.313 128.62 150.384 122.596 150.384 121.97H149.313C149.313 120.611 149.261 118.711 149.207 116.798L149.204 116.693C149.151 114.788 149.098 112.879 149.098 111.487H144.601V118.919H142.531V128.698H139.461V140.981H134.821V146.066C134.821 146.376 134.826 146.94 134.833 147.591C134.849 149.247 134.872 151.464 134.821 151.464H132.107V124.474C131.106 124.474 130.002 124.455 128.88 124.436L128.244 124.426C127.256 124.409 126.265 124.395 125.326 124.395C125.326 123.62 125.326 122.819 125.312 122.023C125.302 121.451 125.284 120.882 125.254 120.327H117.258L117.116 112.817H115.332V106.089H111.619C111.619 106.96 111.619 107.819 111.623 108.672C111.63 110.039 111.646 111.389 111.69 112.739H109.835C109.835 113.273 109.848 114.488 109.864 116.018V116.082L109.868 116.264C109.916 121.025 109.994 128.542 109.835 128.542H107.907C107.907 129.165 107.911 129.783 107.918 130.4C107.925 131.091 107.933 131.781 107.942 132.474C107.96 133.803 107.978 135.142 107.978 136.522H99.7682V147.162C99.2503 147.126 98.7906 147.123 98.343 147.122C97.8043 147.122 97.2831 147.126 96.6983 147.083L96.841 118.215H91.4154L91.4867 99.4383H89.7027C89.7027 96.0746 89.559 89.3461 89.4877 86.2169C89.2551 86.0081 88.972 85.765 88.6703 85.506L88.2161 85.1147C87.6291 84.6055 87.03 84.0716 86.6328 83.6351L86.2038 70.3354H85.2043C85.167 71.5414 85.1341 72.7473 85.1045 73.9488C85.0299 77.0355 84.9783 80.0927 84.9289 83.046L84.9191 83.7132C84.4681 84.152 83.597 85.1289 82.8948 85.9163C82.5952 86.2524 82.3264 86.554 82.1344 86.7644V99.3602H79.9927C79.9927 105.697 79.9928 112.034 80.0652 118.371H75.2102V133.627C74.8294 133.627 74.4487 133.618 74.068 133.61C73.8168 133.604 73.5655 133.598 73.3142 133.594C72.8041 133.588 72.2939 133.592 71.7837 133.627V120.327H65.7865V116.337C64.787 116.337 63.7875 116.318 62.788 116.298C61.7884 116.278 60.7889 116.259 59.7894 116.259V112.973H54.0073V116.337L50.0092 116.259C50.0092 119.672 49.9554 123.104 49.9017 126.527C49.8479 129.93 49.7952 133.324 49.7952 136.678H47.0819C47.0819 137.674 47.0984 138.757 47.1148 139.862L47.1214 140.284C47.1302 140.84 47.139 141.399 47.1456 141.953C47.151 142.497 47.1543 143.036 47.1543 143.563C46.2974 143.563 45.6545 143.641 44.7976 143.641L44.5837 129.402C43.5128 127.603 41.5851 125.099 40.3716 123.3H31.8049L31.4373 123.744C29.9024 125.592 27.2 128.847 25.9515 130.576C25.9515 133.616 26.0414 136.737 26.1303 139.805L26.1336 139.872C26.2214 142.861 26.308 145.801 26.308 148.57H24.5229C24.49 143.918 24.4417 138.783 24.3858 133.673C24.32 127.697 24.2432 121.753 24.1663 116.65H21.9534C21.9534 116.283 21.938 115.674 21.9215 115.043L21.9182 114.967C21.9007 114.277 21.882 113.57 21.882 113.13C20.9264 112.194 18.4512 109.398 16.6957 107.414C15.9562 106.579 15.3451 105.888 15.028 105.541V99.7514H9.96014V105.854L8.38789 107.436L8.17065 107.655C6.30436 109.529 3.63823 112.21 2.74952 113.13V116.963H0.0362067C0.0362067 119.609 0.0285265 122.297 0.0208463 125.001C0.0043887 130.451 -0.0109717 135.96 0.0362067 141.294H0V188H282Z" fill="black"/>
<path d="M282 188V152.796C281.706 152.784 281.412 152.77 281.117 152.757C279.832 152.698 278.537 152.638 277.244 152.638C276.958 135.27 276.672 118.215 276.244 99.5165C276.012 99.2875 275.794 99.0832 275.575 98.8821C275.121 98.4657 274.658 98.063 274.031 97.4827C274.103 95.5266 273.96 92.6323 274.031 90.598C273.588 89.0915 272.869 87.6758 272.148 86.2567C271.708 85.3912 271.269 84.5241 270.89 83.6351C270.857 82.6559 270.824 81.5702 270.789 80.4063C270.595 74.0401 270.329 65.3412 269.605 58.9914C268.962 67.2061 268.606 75.3422 268.249 83.5569C268.249 84.0481 267.774 85.1694 267.179 86.3819C266.353 88.067 265.297 89.9286 264.964 90.5198C264.964 92.7885 264.964 94.8228 264.893 97.5609C264.251 98.1865 263.251 99.0471 262.609 99.5952C262.609 105.161 262.636 110.719 262.663 116.272C262.724 128.751 262.784 141.203 262.537 153.655H253.471C253.437 153.655 253.452 154.335 253.469 155.112C253.488 155.961 253.509 156.927 253.471 157.254H249.402V155.611H243.262V158.193C242.504 158.193 241.782 158.212 241.069 158.232C240.372 158.252 239.684 158.271 238.979 158.271V141.841C237.944 141.841 236.926 141.822 235.909 141.802C234.892 141.782 233.874 141.763 232.839 141.763V135.427H230.983V130.028H229.199V126.821H225.7C225.7 127.759 225.772 129.011 225.7 130.106H223.63V136.443H222.487V139.495L219.275 139.573V141.45C218.49 141.529 217.918 141.529 217.062 141.529H214.706V152.951C213.92 152.951 213.207 152.873 212.422 152.873V147.631L211.779 147.553C211.779 146.298 211.92 144.948 212.06 143.628C212.276 141.574 212.484 139.593 212.136 138.165C211.954 137.414 211.721 136.928 211.46 136.565C211.229 136.241 210.978 136.015 210.724 135.787C210.373 135.471 210.019 135.153 209.708 134.566L209.138 111.878H210.423L210.28 105.619C210.044 105.619 209.845 105.614 209.667 105.607C209.486 105.599 209.324 105.589 209.164 105.578L208.828 105.559C208.625 105.548 208.407 105.541 208.138 105.541C208.074 105.173 208.058 104.684 208.04 104.106C207.957 101.484 207.816 97.0396 202.784 93.9622C202.784 93.13 202.737 92.2853 202.69 91.4591V91.4312C202.623 90.2483 202.558 89.1041 202.641 88.0943C202.673 87.7053 202.793 87.3321 202.921 86.9753C203.077 86.5425 203.244 86.1332 203.283 85.7475C203.317 85.3787 203.271 84.7142 203.221 83.9837C203.165 83.1646 203.103 82.2625 203.141 81.6008C203.199 80.291 203.266 79.0102 203.334 77.7234L203.34 77.6169L203.344 77.5792C203.527 74.1477 203.712 70.6698 203.712 66.5018C203.283 65.9543 203.212 65.4063 202.499 65.0937C202.212 64.9369 201.785 64.4675 201.785 64.155C201.785 62.5174 202.387 61.8557 203.084 61.0913C203.485 60.6509 203.917 60.176 204.283 59.4608C204.554 58.9417 204.905 58.4756 205.259 58.004C205.653 57.48 206.053 56.9489 206.353 56.3315C206.838 55.3818 207.409 54.4322 207.989 53.4732C208.603 52.4574 209.23 51.4318 209.781 50.3854C209.781 48.1949 209.637 46.5518 209.209 44.4394H204.64C204.425 45.3 204.14 46.2393 203.926 47.178C203.212 47.178 202.713 47.0999 202.07 46.7868C201.794 46.7004 201.736 45.7563 201.679 44.8356C201.633 44.0875 201.588 43.3548 201.428 43.1094C201.23 42.7586 201.016 42.3887 200.797 42.0101C200.38 41.2915 199.946 40.5408 199.572 39.8239C199.188 39.095 198.602 38.4764 198.008 37.8497C196.946 36.7279 195.859 35.5788 195.859 33.7216C196.002 33.6434 196.502 31.6873 196.502 31.1398C196.502 30.8693 196.515 30.589 196.529 30.3076C196.548 29.9257 196.57 29.5415 196.564 29.1754C196.558 28.7197 196.508 28.2919 196.359 27.9323L196.599 27.8072C197.975 27.0898 199.005 26.5516 200.357 25.6631C199.406 25.8194 198.456 25.9063 197.506 25.9931C197.028 26.0368 196.551 26.0806 196.074 26.133C195.954 25.7844 195.856 25.6298 195.733 25.4801L195.625 25.356C195.55 25.2719 195.464 25.1746 195.359 25.0375C195.573 24.49 196.43 21.9863 196.644 21.3607C195.716 21.9863 194.788 23.0819 194.075 24.0987C193.646 23.8638 193.075 23.8638 192.575 23.8638C192.37 23.3004 192.065 22.6644 191.725 22.0262C191.357 21.335 190.947 20.6405 190.576 20.0307C190.576 21.3607 190.648 22.7688 190.791 24.0987C190.362 24.0987 189.791 24.49 189.434 24.8025C189.095 24.5905 188.034 24.1621 187.162 23.8108L186.709 23.6272C186.484 23.5365 186.29 23.4562 186.15 23.3944C186.402 23.908 186.819 24.4812 187.251 25.044C187.676 25.5959 188.116 26.1374 188.434 26.6024V29.4186C188.363 30.4355 188.792 32.1566 189.077 33.1741C187.848 33.1741 187.699 31.2491 187.554 29.3885C187.483 28.4706 187.413 27.5679 187.215 26.9204C187.022 26.2887 186.707 25.8997 186.15 25.9762C185.579 26.0543 185.15 24.255 185.079 23.7075C184.294 19.4827 183.509 16.0403 182.581 12.0504L182.723 9.31232C182.723 8.45172 183.438 7.43485 184.222 7.35672V5.32243H182.581C182.49 5.00169 182.525 4.64543 182.622 4.27278C182.721 3.89466 182.885 3.50015 183.047 3.10947C183.35 2.3811 183.647 1.66585 183.509 1.09759C183.469 0.879023 183.162 1.07518 182.825 1.29102C182.558 1.46204 182.27 1.64509 182.08 1.64509C182.005 1.64509 181.79 1.43308 181.538 1.16152C181.394 1.00579 181.238 0.830392 181.09 0.663737C180.76 0.293271 180.471 -0.0323898 180.439 0.00258049C180.376 0.105306 180.396 0.434791 180.396 0.745152C180.395 1.14185 180.362 1.50794 180.082 1.33254C179.226 0.706357 177.797 0.471947 178.511 2.27128C178.612 2.51388 178.764 2.82424 178.926 3.15755C179.341 4.00832 179.827 5.00715 179.725 5.40057H177.941C177.941 5.66175 177.928 5.9366 177.923 6.21363C177.921 6.3852 177.921 6.55732 177.93 6.7278C177.942 6.94199 177.966 7.15345 178.012 7.35672C179.511 7.90422 180.724 12.9891 180.724 14.4759C180.724 14.9595 180.683 15.8545 180.703 16.7102C180.73 17.7932 180.857 18.8133 181.296 18.857C181.456 18.8789 181.577 18.8089 181.676 18.7516C181.929 18.604 182.038 18.5406 182.295 20.3433C182.35 20.7307 182.392 21.2399 182.424 21.8257C182.469 22.6551 182.495 23.6381 182.512 24.6457C182.526 25.5216 182.534 26.4166 182.541 27.2455C182.551 28.3269 182.559 29.2967 182.581 29.9661C182.52 30.0983 182.18 30.2027 181.796 30.3202C181.271 30.4814 180.664 30.6671 180.582 30.9835C179.873 33.5959 180.676 34.934 181.785 36.7804C181.905 36.9798 182.028 37.1853 182.153 37.3984C182.83 38.5704 183.311 40.4632 183.766 42.2505C184.221 44.0433 184.65 45.7295 185.222 46.4737C186.183 47.7239 185.881 48.1993 185.42 48.9243C185.334 49.0609 185.241 49.2068 185.15 49.3686C185.007 49.6254 184.849 49.8472 184.693 50.0658C184.233 50.7127 183.794 51.3291 183.794 52.7323C183.794 56.0315 184.366 56.3025 184.849 56.5309C184.978 56.5921 185.101 56.6506 185.205 56.7631C185.385 56.9577 185.508 57.3145 185.508 58.1308C185.508 59.3335 185.192 59.5739 184.873 59.8165C184.549 60.0629 184.222 60.3115 184.222 61.5732C184.222 63.3627 184.476 65.4767 184.706 67.3979L184.709 67.4143C184.902 69.0142 185.079 70.4791 185.079 71.5086C185.079 75.1078 184.936 80.0364 184.722 84.7306C184.722 84.9907 184.698 85.2688 184.662 85.5508C184.613 85.9273 184.54 86.3108 184.473 86.6693C184.379 87.1714 184.294 87.6244 184.294 87.938C184.294 88.3091 184.433 88.7019 184.564 89.0363C184.682 89.3363 184.794 89.5893 184.794 89.7374C184.875 90.8051 184.632 91.5946 184.422 92.3503C184.262 92.9235 184.12 93.4776 184.151 94.1185C180.724 96.1528 179.725 100.377 179.939 105.776L177.298 105.697C177.298 107.653 177.226 110.157 177.298 112.034H178.226C178.226 120.006 178.45 128.53 178.651 136.137L178.725 139.025H171.301C171.301 137.99 171.266 136.766 171.23 135.531V135.49C171.194 134.217 171.158 132.933 171.158 131.827H166.875V137.148L162.449 137.226C162.306 132.375 162.306 122.048 162.377 117.354H152.383C152.383 120.718 152.454 125.491 152.454 128.698H150.598C150.313 128.62 150.384 122.596 150.384 121.97H149.313C149.313 120.611 149.261 118.711 149.207 116.798L149.204 116.693C149.151 114.788 149.098 112.879 149.098 111.487H144.601V118.919H142.531V128.698H139.461V140.981H134.821V146.066C134.821 146.376 134.826 146.94 134.833 147.591C134.849 149.247 134.872 151.464 134.821 151.464H132.107V124.474C131.106 124.474 130.002 124.455 128.88 124.436L128.244 124.426C127.256 124.409 126.265 124.395 125.326 124.395C125.326 123.62 125.326 122.819 125.312 122.023C125.302 121.451 125.284 120.882 125.254 120.327H117.258L117.116 112.817H115.332V106.089H111.619C111.619 106.96 111.619 107.819 111.623 108.672C111.63 110.039 111.646 111.389 111.69 112.739H109.835C109.835 113.273 109.848 114.488 109.864 116.018V116.082L109.868 116.264C109.916 121.025 109.994 128.542 109.835 128.542H107.907C107.907 129.165 107.911 129.783 107.918 130.4C107.925 131.091 107.933 131.781 107.942 132.474C107.96 133.803 107.978 135.142 107.978 136.522H99.7682V147.162C99.2503 147.126 98.7906 147.123 98.343 147.122C97.8043 147.122 97.2831 147.126 96.6983 147.083L96.841 118.215H91.4154L91.4867 99.4383H89.7027C89.7027 96.0746 89.559 89.3461 89.4877 86.2169C89.2551 86.0081 88.972 85.765 88.6703 85.506L88.2161 85.1147C87.6291 84.6055 87.03 84.0716 86.6328 83.6351L86.2038 70.3354H85.2043C85.167 71.5414 85.1341 72.7473 85.1045 73.9488C85.0299 77.0355 84.9783 80.0927 84.9289 83.046L84.9191 83.7132C84.4681 84.152 83.597 85.1289 82.8948 85.9163C82.5952 86.2524 82.3264 86.554 82.1344 86.7644V99.3602H79.9927C79.9927 105.697 79.9928 112.034 80.0652 118.371H75.2102V133.627C74.8294 133.627 74.4487 133.618 74.068 133.61C73.8168 133.604 73.5655 133.598 73.3142 133.594C72.8041 133.588 72.2939 133.592 71.7837 133.627V120.327H65.7865V116.337C64.787 116.337 63.7875 116.318 62.788 116.298C61.7884 116.278 60.7889 116.259 59.7894 116.259V112.973H54.0073V116.337L50.0092 116.259C50.0092 119.672 49.9554 123.104 49.9017 126.527C49.8479 129.93 49.7952 133.324 49.7952 136.678H47.0819C47.0819 137.674 47.0984 138.757 47.1148 139.862L47.1214 140.284C47.1302 140.84 47.139 141.399 47.1456 141.953C47.151 142.497 47.1543 143.036 47.1543 143.563C46.2974 143.563 45.6545 143.641 44.7976 143.641L44.5837 129.402C43.5128 127.603 41.5851 125.099 40.3716 123.3H31.8049L31.4373 123.744C29.9024 125.592 27.2 128.847 25.9515 130.576C25.9515 133.616 26.0414 136.737 26.1303 139.805L26.1336 139.872C26.2214 142.861 26.308 145.801 26.308 148.57H24.5229C24.49 143.918 24.4417 138.783 24.3858 133.673C24.32 127.697 24.2432 121.753 24.1663 116.65H21.9534C21.9534 116.283 21.938 115.674 21.9215 115.043L21.9182 114.967C21.9007 114.277 21.882 113.57 21.882 113.13C20.9264 112.194 18.4512 109.398 16.6957 107.414C15.9562 106.579 15.3451 105.888 15.028 105.541V99.7514H9.96014V105.854L8.38789 107.436L8.17065 107.655C6.30436 109.529 3.63823 112.21 2.74952 113.13V116.963H0.0362067C0.0362067 119.609 0.0285265 122.297 0.0208463 125.001C0.0043887 130.451 -0.0109717 135.96 0.0362067 141.294H0V188H282Z" fill="url(#paint2_linear)"/>
<defs>
<linearGradient id="paint2_linear" x1="141" y1="-73" x2="136.748" y2="190.942" gradientUnits="userSpaceOnUse">
<stop stop-color="#219653"/>
<stop offset="1"/>
</linearGradient>
</defs>
</svg>
