<svg width="303" height="303" viewBox="0 0 303 303" fill="none" xmlns="http://www.w3.org/2000/svg">
<path d="M36.8488 249C14.492 222.736 1 188.694 1 151.5C1 68.3811 68.3811 1 151.5 1C234.619 1 302 68.3811 302 151.5C302 188.694 288.508 222.736 266.151 249" stroke="#5B5B5B"/>
<path d="M35.9918 249.847C19.5705 230.546 8.27096 207.422 3.13439 182.607C-2.00219 157.791 -0.810594 132.081 6.59937 107.847L50.6641 121.321C45.5153 138.16 44.6873 156.024 48.2564 173.267C51.8256 190.51 59.677 206.577 71.0872 219.989L35.9918 249.847Z" fill="url(#paint1_radial)" fill-opacity="0.18"/>
<defs>
<radialGradient id="paint1_radial" cx="0" cy="0" r="1" gradientUnits="userSpaceOnUse" gradientTransform="translate(174.5 150) rotate(169.174) scale(162.39)">
<stop offset="0.541985" stop-opacity="0"/>
<stop offset="0.905492" stop-color="#219653"/>
</radialGradient>
</defs>
</svg>
