<svg width="303" height="303" viewBox="0 0 303 303" fill="none" xmlns="http://www.w3.org/2000/svg">
<path d="M36.8488 249C14.492 222.736 1 188.694 1 151.5C1 68.3811 68.3811 1 151.5 1C234.619 1 302 68.3811 302 151.5C302 188.694 288.508 222.736 266.151 249" stroke="#5B5B5B"/>
<path d="M36.9918 249.847C13.6468 222.408 0.881557 187.526 1.00083 151.5C1.1201 115.474 14.1161 80.6773 37.6422 53.3932L72.5392 83.4836C56.1921 102.442 47.162 126.62 47.0791 151.653C46.9962 176.685 55.8661 200.923 72.0872 219.989L36.9918 249.847Z" fill="url(#paint3_radial)" fill-opacity="0.18"/>
<defs>
<radialGradient id="paint3_radial" cx="0" cy="0" r="1" gradientUnits="userSpaceOnUse" gradientTransform="translate(170 138.5) rotate(164.745) scale(159.625 171.997)">
<stop offset="0.541985" stop-opacity="0"/>
<stop offset="0.905492" stop-color="#219653"/>
</radialGradient>
</defs>
</svg>
