<svg width="303" height="303" viewBox="0 0 303 303" fill="none" xmlns="http://www.w3.org/2000/svg">
<path d="M36.8488 249C14.492 222.736 1 188.694 1 151.5C1 68.3811 68.3811 1 151.5 1C234.619 1 302 68.3811 302 151.5C302 188.694 288.508 222.736 266.151 249" stroke="#5B5B5B"/>
<path d="M35.9918 249.847C10.5877 219.988 -2.20744 181.418 0.312177 142.295C2.83179 103.172 20.4686 66.5628 49.4931 40.2085C78.5175 13.8542 116.654 -0.178574 155.838 1.07753C195.022 2.33362 232.182 18.7801 259.458 46.9392L226.362 78.9991C207.409 59.433 181.588 48.0052 154.362 47.1324C127.135 46.2596 100.636 56.0102 80.4685 74.3223C60.301 92.6344 48.0462 118.072 46.2954 145.257C44.5447 172.441 53.4353 199.241 71.0872 219.989L35.9918 249.847Z" fill="url(#paint4_radial)" fill-opacity="0.18"/>
<defs>
<radialGradient id="paint4_radial" cx="0" cy="0" r="1" gradientUnits="userSpaceOnUse" gradientTransform="translate(174.5 150) rotate(169.174) scale(162.39)">
<stop offset="0.541985" stop-opacity="0"/>
<stop offset="0.905492" stop-color="#219653"/>
</radialGradient>
</defs>
</svg>
