<svg width="303" height="303" viewBox="0 0 303 303" fill="none" xmlns="http://www.w3.org/2000/svg">
<path d="M36.8488 249C14.492 222.736 1 188.694 1 151.5C1 68.3811 68.3811 1 151.5 1C234.619 1 302 68.3811 302 151.5C302 188.694 288.508 222.736 266.151 249" stroke="#5B5B5B"/>
<path d="M35.9918 249.847C21.5073 232.823 10.9831 212.794 5.1791 191.208C-0.62494 169.622 -1.56413 147.016 2.42933 125.023C6.42279 103.03 15.2493 82.1975 28.2717 64.0297C41.2941 45.862 58.1877 30.812 77.7329 19.9662L100.091 60.257C86.5099 67.7933 74.7715 78.2506 65.723 90.8744C56.6744 103.498 50.5414 117.973 47.7665 133.255C44.9917 148.537 45.6443 164.244 49.6772 179.243C53.7101 194.242 61.0227 208.159 71.0872 219.989L35.9918 249.847Z" fill="url(#paint2_radial)" fill-opacity="0.18"/>
<defs>
<radialGradient id="paint2_radial" cx="0" cy="0" r="1" gradientUnits="userSpaceOnUse" gradientTransform="translate(174.5 150) rotate(169.174) scale(162.39)">
<stop offset="0.541985" stop-opacity="0"/>
<stop offset="0.905492" stop-color="#219653"/>
</radialGradient>
</defs>
</svg>
