<?xml version="1.0" encoding="UTF-8" standalone="no"?>
<svg
   xmlns:dc="http://purl.org/dc/elements/1.1/"
   xmlns:cc="http://creativecommons.org/ns#"
   xmlns:rdf="http://www.w3.org/1999/02/22-rdf-syntax-ns#"
   xmlns:svg="http://www.w3.org/2000/svg"
   xmlns="http://www.w3.org/2000/svg"
   id="svg13"
   version="1.1"
   fill="none"
   viewBox="0 0 303 303"
   height="303"
   width="303">
  <metadata
     id="metadata17">
    <rdf:RDF>
      <cc:Work
         rdf:about="">
        <dc:format>image/svg+xml</dc:format>
        <dc:type
           rdf:resource="http://purl.org/dc/dcmitype/StillImage" />
        <dc:title></dc:title>
      </cc:Work>
    </rdf:RDF>
  </metadata>
  <path
     id="path2"
     stroke="#5B5B5B"
     d="M36.8488 249C14.492 222.736 1 188.694 1 151.5C1 68.3811 68.3811 1 151.5 1C234.619 1 302 68.3811 302 151.5C302 188.694 288.508 222.736 266.151 249" />
  <path
     id="path824"
     d="m 54.244703,234.63241 c 0,0 -10.735005,-13.00163 -18.601905,-27.93968 -7.8669,-14.93804 -12.204804,-31.34583 -13.26933,-51.9157 C 20.2057,112.88918 44.770744,73.020907 68.688559,53.281779 91.126211,34.764215 125.90307,19.257604 170.78731,24.089772 c 38.56221,4.151548 73.66236,38.335059 73.66236,38.335059"
     style="fill:none;stroke:#219653;stroke-width:44;stroke-linecap:butt;stroke-linejoin:miter;stroke-miterlimit:4;stroke-opacity:0.15686275" />
</svg>
