<svg width="18" height="18" viewBox="0 0 18 18" fill="none" xmlns="http://www.w3.org/2000/svg">
<path d="M17.4531 8.63056C17.4531 9.84098 17.4288 11.0549 17.4601 12.2653C17.5123 14.4079 16.1662 16.0635 14.4514 16.8009C13.7627 17.0966 13.0393 17.2531 12.2914 17.2531C9.95059 17.2566 7.60627 17.2879 5.26542 17.2427C3.50195 17.2079 2.05153 16.4705 1.01154 15.0166C0.465457 14.2514 0.20459 13.3818 0.20459 12.4392C0.20459 9.94533 0.20459 7.45492 0.20459 4.96102C0.20459 2.92626 1.19589 1.50366 2.95587 0.578451C3.72108 0.178455 4.55238 0.00802123 5.41846 0.004543C7.68974 0.004543 9.96451 -0.00936993 12.2358 0.0114995C13.9993 0.0254124 15.4705 0.700189 16.5558 2.11931C17.161 2.91234 17.4531 3.82364 17.4531 4.82537C17.4531 6.09145 17.4531 7.361 17.4531 8.63056ZM1.48806 8.63056C1.48806 9.90707 1.48806 11.1801 1.48806 12.4566C1.48806 13.027 1.62023 13.5627 1.91588 14.0462C2.69152 15.3157 3.86369 15.9348 5.31759 15.9592C7.65148 15.994 9.98885 15.9731 12.3262 15.9661C12.9001 15.9661 13.4567 15.8479 13.9749 15.6009C15.3871 14.9262 16.1766 13.8514 16.1697 12.2375C16.1558 9.76794 16.1662 7.29839 16.1662 4.82885C16.1662 4.12973 15.9679 3.48973 15.554 2.92626C14.754 1.84453 13.648 1.31236 12.3262 1.29845C9.99581 1.27062 7.6654 1.28801 5.33498 1.29149C4.83759 1.29149 4.3576 1.39236 3.89152 1.56627C2.61153 2.04279 1.42197 3.24973 1.47762 5.02711C1.51936 6.23058 1.48806 7.43057 1.48806 8.63056Z" fill="white"/>
<path d="M8.84713 12.3163C6.60367 12.3163 4.79499 10.5285 4.79151 8.30246C4.78803 6.11118 6.61062 4.31641 8.84017 4.31641C11.0767 4.31293 12.8923 6.10422 12.8958 8.3129C12.8958 10.5181 11.0836 12.3129 8.84713 12.3163ZM8.84713 11.0294C10.3741 11.0294 11.6123 9.80854 11.6088 8.30594C11.6054 6.81726 10.3671 5.59988 8.84713 5.59988C7.32018 5.59988 6.07498 6.81378 6.07498 8.3129C6.07845 9.81549 7.32018 11.0329 8.84713 11.0294Z" fill="white"/>
<path d="M13.3657 3.10156C13.8354 3.10156 14.2181 3.50165 14.2181 3.99218C14.2146 4.48272 13.8284 4.87932 13.3588 4.87584C12.8961 4.87236 12.5169 4.47576 12.5169 3.99566C12.5134 3.50512 12.8961 3.10156 13.3657 3.10156Z" fill="white"/>
</svg>