<svg width="164" height="41" viewBox="0 0 164 41" fill="none" xmlns="http://www.w3.org/2000/svg">
<g opacity="0.8">
<path d="M32.3289 2.47067H31.8438V38.0797H32.3289V2.47067Z" fill="white"/>
<path d="M32.6679 2.08244H31.4551V38.4192H32.6679V2.08244Z" fill="white"/>
<path d="M37.2293 2.47067H36.7441V38.0797H37.2293V2.47067Z" fill="white"/>
<path d="M37.5683 2.08244H36.3555V38.4192H37.5683V2.08244Z" fill="white"/>
<path d="M34.7527 2.47064H34.2676V38.0797H34.7527V2.47064Z" fill="white"/>
<path d="M35.0937 2.08249H33.8809V38.4193H35.0937V2.08249Z" fill="white"/>
<path d="M55.2272 37.5461H39.6543V38.0312H55.2272V37.5461Z" fill="white"/>
<path d="M55.6151 37.1579H39.3145V38.3707H55.6151V37.1579Z" fill="white"/>
<path d="M55.2272 32.6462H39.6543V33.1313H55.2272V32.6462Z" fill="white"/>
<path d="M55.6151 32.2581H39.3145V33.4709H55.6151V32.2581Z" fill="white"/>
<path d="M55.2272 35.0718H39.6543V35.557H55.2272V35.0718Z" fill="white"/>
<path d="M55.6151 34.6838H39.3145V35.8966H55.6151V34.6838Z" fill="white"/>
<path d="M54.2569 21.8276H39.6543V22.3128H54.2569V21.8276Z" fill="white"/>
<path d="M54.6448 21.4395H39.3145V22.6524H54.6448V21.4395Z" fill="white"/>
<path d="M54.2569 16.9277H39.6543V17.4129H54.2569V16.9277Z" fill="white"/>
<path d="M54.6448 16.5396H39.3145V17.7525H54.6448V16.5396Z" fill="white"/>
<path d="M54.2569 19.4019H39.6543V19.887H54.2569V19.4019Z" fill="white"/>
<path d="M54.6448 19.0138H39.3145V20.2266H54.6448V19.0138Z" fill="white"/>
<path d="M55.2272 7.37047H39.6543V7.85561H55.2272V7.37047Z" fill="white"/>
<path d="M55.6151 6.98239H39.3145V8.19523H55.6151V6.98239Z" fill="white"/>
<path d="M55.2272 2.47067H39.6543V2.95581H55.2272V2.47067Z" fill="white"/>
<path d="M55.6151 2.08249H39.3145V3.29533H55.6151V2.08249Z" fill="white"/>
<path d="M55.2272 4.89635H39.6543V5.38148H55.2272V4.89635Z" fill="white"/>
<path d="M55.6151 4.50815H39.3145V5.72099H55.6151V4.50815Z" fill="white"/>
<path d="M1.6199 2.47067H1.13477V38.0797H1.6199V2.47067Z" fill="white"/>
<path d="M1.95894 2.08249H0.746094V38.4193H1.95894V2.08249Z" fill="white"/>
<path d="M6.52029 2.47067H6.03516V38.0797H6.52029V2.47067Z" fill="white"/>
<path d="M6.85933 2.08249H5.64648V38.4193H6.85933V2.08249Z" fill="white"/>
<path d="M4.04373 2.47064H3.55859V38.0797H4.04373V2.47064Z" fill="white"/>
<path d="M4.43355 2.08244H3.2207V38.4192H4.43355V2.08244Z" fill="white"/>
<path d="M9.13887 23.1859L9.47847 22.8464L24.1296 37.4975L23.79 37.8371L9.13887 23.1859ZM10.8854 21.4395L11.225 21.0999L25.8761 35.751L25.5365 36.0906L10.8854 21.4395ZM11.7586 18.8197L25.682 4.84777L26.0216 5.18736L12.3893 18.8197L27.6226 34.0045L27.283 34.3441L11.7586 18.8197ZM10.0121 17.0732L23.9841 3.10128L24.3237 3.44087L10.3517 17.4613L10.0121 17.0732ZM8.26562 15.3267L22.2376 1.35478L22.5772 1.69438L8.60522 15.7148L8.26562 15.3267Z" fill="white"/>
<path d="M22.238 0.821182L7.73242 15.3268L8.60567 16.2L23.1113 1.69443L22.238 0.821182ZM23.9845 2.56768L9.47892 17.0733L10.3522 17.9465L24.8578 3.44092L23.9845 2.56768ZM25.6825 4.36268L11.2254 18.8198L12.0016 19.596L27.2834 34.9263L28.1567 34.0531L12.9234 18.8198L26.5557 5.18742L25.6825 4.36268ZM11.2254 20.5663L10.3522 21.4395L25.537 36.6243L26.4102 35.751L11.2254 20.5663ZM9.47892 22.3128L8.60567 23.186L23.7905 38.3708L24.6637 37.4975L9.47892 22.3128Z" fill="white"/>
<path d="M67.5428 6.69246L67.125 6.93906L82.9071 33.6783L83.3249 33.4317L67.5428 6.69246Z" fill="white"/>
<path d="M67.6943 6.15768L66.627 6.78836L82.782 34.1501L83.8493 33.5194L67.6943 6.15768Z" fill="white"/>
<path d="M60.2722 2.47067H59.7871V38.0797H60.2722V2.47067Z" fill="white"/>
<path d="M60.6113 2.08244H59.3984V38.4192H60.6113V2.08244Z" fill="white"/>
<path d="M65.1726 2.47067H64.6875V38.0797H65.1726V2.47067Z" fill="white"/>
<path d="M65.5117 2.08244H64.2988V38.4192H65.5117V2.08244Z" fill="white"/>
<path d="M62.698 2.47067H62.2129V38.0797H62.698V2.47067Z" fill="white"/>
<path d="M63.0371 2.08244H61.8242V38.4192H63.0371V2.08244Z" fill="white"/>
<path d="M85.8387 2.47067H85.3535V38.0797H85.8387V2.47067Z" fill="white"/>
<path d="M86.2265 2.08249H85.0137V38.4193H86.2265V2.08249Z" fill="white"/>
<path d="M90.7879 2.47064H90.3027V38.0797H90.7879V2.47064Z" fill="white"/>
<path d="M91.1738 2.08244H89.9609V38.4192H91.1738V2.08244Z" fill="white"/>
<path d="M88.3621 2.47067H87.877V38.0797H88.3621V2.47067Z" fill="white"/>
<path d="M88.7011 2.08249H87.4883V38.4193H88.7011V2.08249Z" fill="white"/>
<path d="M123.145 37.546H94.959V38.0312H123.145V37.546Z" fill="white"/>
<path d="M123.533 37.1579H94.6191V38.3707H123.533V37.1579Z" fill="white"/>
<path d="M123.145 32.6461H94.959V33.1313H123.145V32.6461Z" fill="white"/>
<path d="M123.533 32.2581H94.6191V33.4709H123.533V32.2581Z" fill="white"/>
<path d="M123.145 35.0718H94.959V35.5569H123.145V35.0718Z" fill="white"/>
<path d="M123.533 34.6838H94.6191V35.8966H123.533V34.6838Z" fill="white"/>
<path d="M101.413 30.2204L118.296 13.3377L118.635 13.6773L101.753 30.56L101.413 30.2204ZM99.6664 28.5225L116.549 11.6397L116.889 11.9793L99.9575 28.862L99.6664 28.5225ZM97.9199 26.776L114.803 9.89319L115.142 10.2328L98.2595 27.1641L97.9199 26.776Z" fill="white"/>
<path d="M114.801 9.35959L97.3848 26.776L98.258 27.6493L115.674 10.2328L114.801 9.35959ZM116.548 11.1061L99.1313 28.5225L100.005 29.3472L117.421 11.9793L116.548 11.1061ZM118.294 12.8041L100.878 30.2205L101.751 31.0937L119.167 13.6773L118.294 12.8041Z" fill="white"/>
<path d="M123.145 7.37045H94.959V7.85559H123.145V7.37045Z" fill="white"/>
<path d="M123.533 6.98239H94.6191V8.19523H123.533V6.98239Z" fill="white"/>
<path d="M123.145 2.47064H94.959V2.95578H123.145V2.47064Z" fill="white"/>
<path d="M123.533 2.08249H94.6191V3.29533H123.533V2.08249Z" fill="white"/>
<path d="M123.145 4.89632H94.959V5.38145H123.145V4.89632Z" fill="white"/>
<path d="M123.533 4.50815H94.6191V5.72099H123.533V4.50815Z" fill="white"/>
<path d="M162.782 20.2267C162.782 9.50514 154.098 0.821182 143.376 0.821182C132.655 0.821182 123.971 9.50514 123.971 20.2267C123.971 30.9482 132.655 39.6321 143.376 39.6321C154.098 39.6321 162.782 30.9482 162.782 20.2267ZM161.569 20.2267C161.569 30.269 153.419 38.4193 143.376 38.4193C133.334 38.4193 125.184 30.269 125.184 20.2267C125.184 10.1843 133.334 2.03402 143.376 2.03402C153.419 2.03402 161.569 10.1843 161.569 20.2267Z" fill="white"/>
<path d="M143.376 40.0202C132.46 40.0202 123.582 31.1422 123.582 20.2266C123.582 9.31106 132.46 0.481567 143.376 0.481567C154.291 0.481567 163.169 9.35957 163.169 20.2752C163.169 31.1907 154.291 40.0202 143.376 40.0202ZM143.376 1.20927C132.897 1.20927 124.358 9.74768 124.358 20.2266C124.358 30.7056 132.897 39.2925 143.376 39.2925C153.855 39.2925 162.393 30.7541 162.393 20.2752C162.393 9.7962 153.855 1.20927 143.376 1.20927ZM143.376 38.8074C133.139 38.8074 124.843 30.463 124.843 20.2752C124.843 10.0388 133.188 1.74292 143.376 1.74292C153.564 1.74292 161.908 10.0873 161.908 20.2752C161.908 30.463 153.612 38.8074 143.376 38.8074ZM143.376 2.42212C133.527 2.42212 125.523 10.4269 125.523 20.2752C125.523 30.1234 133.527 38.1282 143.376 38.1282C153.224 38.1282 161.229 30.1234 161.229 20.2752C161.229 10.4269 153.224 2.42212 143.376 2.42212Z" fill="white"/>
<path d="M160.258 20.2267C160.258 10.912 152.69 3.3439 143.375 3.3439C134.06 3.3439 126.492 10.912 126.492 20.2267C126.492 29.5413 134.06 37.1094 143.375 37.1094C152.69 37.1094 160.258 29.5898 160.258 20.2267ZM158.996 20.2267C158.996 28.8621 152.01 35.8481 143.375 35.8481C134.74 35.8481 127.754 28.8621 127.754 20.2267C127.754 11.5912 134.74 4.60526 143.375 4.60526C152.01 4.60526 158.996 11.5912 158.996 20.2267Z" fill="white"/>
<path d="M143.374 37.4975C133.866 37.4975 126.104 29.7838 126.104 20.2752C126.104 10.7665 133.866 3.00429 143.374 3.00429C152.883 3.00429 160.597 10.718 160.597 20.2752C160.597 29.7353 152.883 37.4975 143.374 37.4975ZM143.374 3.73199C134.254 3.73199 126.88 11.1546 126.88 20.2752C126.88 29.3957 134.302 36.7698 143.374 36.7698C152.495 36.7698 159.869 29.3472 159.869 20.2267C159.869 11.1546 152.495 3.73199 143.374 3.73199ZM143.374 36.2362C134.545 36.2362 127.365 29.0561 127.365 20.2267C127.365 11.3972 134.545 4.21713 143.374 4.21713C152.155 4.21713 159.335 11.3972 159.335 20.1781H158.608C158.608 11.7853 151.767 4.94484 143.374 4.94484C134.982 4.94484 128.093 11.7853 128.093 20.2267C128.093 28.668 134.933 35.5085 143.374 35.5085C151.816 35.5085 158.656 28.668 158.656 20.2267H159.384C159.384 29.0561 152.204 36.2362 143.374 36.2362Z" fill="white"/>
<path d="M157.736 20.2267C157.736 12.3189 151.283 5.86661 143.376 5.86661C135.468 5.86661 129.016 12.3189 129.016 20.2267C129.016 28.1344 135.468 34.5867 143.376 34.5867C151.283 34.5867 157.736 28.1829 157.736 20.2267ZM156.474 20.2267C156.474 27.4552 150.604 33.3254 143.376 33.3254C136.147 33.3254 130.277 27.4552 130.277 20.2267C130.277 12.9981 136.147 7.12796 143.376 7.12796C150.604 7.12796 156.474 12.9981 156.474 20.2267Z" fill="white"/>
<path d="M143.375 34.9748C135.274 34.9748 128.676 28.3769 128.676 20.2752C128.676 12.1734 135.274 5.52699 143.375 5.52699C151.477 5.52699 158.075 12.1249 158.075 20.2752C158.075 28.3769 151.477 34.9748 143.375 34.9748ZM143.375 6.2547C135.662 6.2547 129.403 12.513 129.403 20.2752C129.403 28.0374 135.662 34.2471 143.375 34.2471C151.089 34.2471 157.347 27.9888 157.347 20.2752C157.347 12.5615 151.089 6.2547 143.375 6.2547ZM143.375 33.7135C135.953 33.7135 129.889 27.6978 129.889 20.2266C129.889 12.804 135.904 6.73984 143.375 6.73984C150.847 6.73984 156.862 12.7555 156.862 20.2266C156.862 27.6978 150.798 33.7135 143.375 33.7135ZM143.375 7.51605C136.341 7.51605 130.665 13.2407 130.665 20.2266C130.665 27.2611 136.389 32.9372 143.375 32.9372C150.361 32.9372 156.086 27.2126 156.086 20.2266C156.086 13.2407 150.41 7.51605 143.375 7.51605Z" fill="white"/>
<path d="M135.128 18.3346L135.42 18.4317C136.196 18.6257 136.972 18.4802 137.215 17.6069C137.409 16.8307 137.118 16.2971 135.856 15.9575L135.274 15.8119L134.158 19.9841L134.692 20.1297L135.128 18.3346ZM135.614 16.3941L135.759 16.4426C136.293 16.5882 136.875 16.8307 136.681 17.4614C136.487 18.0921 135.905 18.0921 135.371 17.9465L135.226 17.898L135.614 16.3941ZM140.222 20.4693L140.416 21.6336L140.999 21.7791L140.174 16.8792L137.021 20.7118L137.603 20.8574L138.379 19.9356L140.222 20.4693ZM140.174 19.9356L138.67 19.5475L139.883 18.0436L140.174 19.9356ZM144.152 20.7118C144.783 20.8088 145.365 20.4207 145.462 19.7901C145.559 19.4019 145.462 18.9653 145.171 18.6257C144.88 18.3832 144.492 18.1891 144.104 18.1406L143.473 17.9951L142.406 22.1672L142.939 22.3128L143.424 20.5663L143.618 20.6148L144.395 22.7009L145.025 22.8464L144.152 20.7118ZM143.909 18.6257L144.055 18.6742C144.589 18.8198 145.171 19.0624 144.977 19.7415C144.783 20.4207 144.201 20.3722 143.667 20.2267L143.521 20.1782L143.909 18.6257ZM148.276 19.3049L147.742 19.1594L146.626 23.3316L147.16 23.4771L148.276 19.3049ZM152.399 20.9544C152.302 20.4693 151.963 20.1297 151.478 20.0326C150.847 19.8871 150.119 20.1297 149.974 20.7603C149.828 21.391 150.168 21.7306 150.604 22.0702L150.847 22.2643C151.187 22.5068 151.478 22.7979 151.332 23.2345C151.235 23.6712 150.798 23.9622 150.362 23.8652C149.925 23.7682 149.683 23.3801 149.78 22.9434C149.78 22.8949 149.78 22.8949 149.78 22.8464L149.246 22.7979C149.149 23.4771 149.537 24.1078 150.216 24.3018C150.944 24.4959 151.672 24.1078 151.914 23.3801C152.108 22.7009 151.769 22.2157 151.235 21.8276L150.944 21.6336C150.653 21.488 150.507 21.197 150.507 20.8574C150.653 20.5178 150.992 20.3237 151.381 20.4693C151.672 20.5663 151.866 20.7603 151.963 21.0514L152.399 20.9544Z" fill="white"/>
<path d="M135.274 15.8119L134.158 19.9841L134.692 20.1297L135.128 18.3346L135.42 18.4317C135.614 18.4802 135.808 18.5287 136.002 18.5287C136.584 18.5772 137.118 18.1891 137.215 17.6069C137.409 16.8307 137.118 16.2971 135.856 15.9575L135.274 15.8119ZM135.905 18.0436C135.711 18.0436 135.565 17.9951 135.371 17.9465L135.226 17.898L135.614 16.3941L135.759 16.4426C136.293 16.5882 136.875 16.8307 136.681 17.4614C136.584 17.8495 136.244 18.0921 135.905 18.0436ZM140.174 16.8792L137.021 20.7118L137.603 20.8574L138.379 19.9356L140.222 20.4693L140.416 21.6336L140.999 21.7791L140.174 16.8792ZM140.174 19.9356L138.67 19.5475L139.883 18.0436L140.174 19.9356ZM143.473 17.9951L142.406 22.1672L142.939 22.3128L143.424 20.5663L143.618 20.6148L144.395 22.7009L145.025 22.8464L144.152 20.7118C144.201 20.7118 144.298 20.7118 144.346 20.7118C144.88 20.7118 145.365 20.3237 145.462 19.7901C145.559 19.4019 145.462 18.9653 145.171 18.6257C144.88 18.3832 144.492 18.1891 144.104 18.1406L143.473 17.9951ZM144.201 20.3237C144.006 20.3237 143.812 20.2752 143.667 20.2267L143.521 20.1782L143.909 18.6257L144.055 18.6742C144.589 18.8198 145.171 19.0624 144.977 19.7415C144.928 20.1297 144.589 20.3722 144.201 20.3237ZM147.742 19.1594L146.626 23.3316L147.16 23.4771L148.276 19.3049L147.742 19.1594ZM151.138 20.0326C150.604 19.9841 150.168 20.3237 149.974 20.8088C149.828 21.4395 150.168 21.7791 150.604 22.1187L150.847 22.3128C151.187 22.5553 151.478 22.8464 151.332 23.283C151.235 23.6712 150.895 23.9137 150.507 23.9137C150.459 23.9137 150.41 23.9137 150.362 23.9137C149.925 23.8167 149.683 23.4286 149.78 22.992C149.78 22.9434 149.78 22.9434 149.78 22.8949L149.246 22.8464C149.149 23.5256 149.537 24.1563 150.216 24.3503C150.362 24.3989 150.459 24.3989 150.604 24.3989C151.187 24.3989 151.769 24.0108 151.914 23.4286C152.108 22.7494 151.769 22.2643 151.235 21.8761L150.944 21.6821C150.653 21.5366 150.507 21.2455 150.507 20.9059C150.604 20.6633 150.847 20.4693 151.138 20.4693C151.235 20.4693 151.284 20.4693 151.381 20.5178C151.672 20.6148 151.866 20.8088 151.963 21.0999L152.399 21.0029C152.302 20.5178 151.963 20.1782 151.478 20.0811C151.381 20.0326 151.235 20.0326 151.138 20.0326Z" fill="white"/>
</g>
</svg>
