<svg width="113" height="54" viewBox="0 0 113 54" fill="none" xmlns="http://www.w3.org/2000/svg">
<g opacity="0.8">
<path d="M85.7346 23.405C85.5101 23.1125 85.1483 22.9954 84.898 22.8831C84.6534 22.7675 84.6885 22.5288 84.4839 22.4596C84.2744 22.3923 83.9081 22.8191 83.6234 22.7305C83.3391 22.6373 83.36 22.1061 83.1224 22.0275C82.8792 21.9508 82.4565 22.3492 82.2354 22.2785C82.0128 22.2138 81.9694 21.6556 81.7546 21.5845C81.5421 21.5198 81.0909 21.9167 80.8709 21.8486C80.6498 21.7742 80.6356 21.2306 80.3902 21.1498C80.1459 21.075 79.7164 21.4813 79.5031 21.4079C79.2827 21.3398 79.2614 20.7973 79.0272 20.7184C78.7904 20.6432 78.356 21.0417 78.1375 20.9698C77.9123 20.8972 77.8509 20.3398 77.6459 20.2724C77.4364 20.2085 77.0275 20.5373 76.6949 20.5182C74.3869 20.3031 73.5039 18.8511 73.3468 19.2806C73.1927 19.7015 73.8279 20.7255 74.6263 21.0712C75.2631 21.3481 82.1381 23.2513 82.3184 23.3362C82.4939 23.423 82.9283 23.6164 82.7737 23.8671C82.5343 24.1877 81.8631 23.8704 81.6921 23.729C81.5193 23.5854 81.5586 23.533 81.3966 23.4896C81.0277 23.402 80.8234 24.0736 80.4339 23.9838C80.0793 23.9041 80.104 23.1914 79.7437 23.1083C79.3463 23.0118 79.1664 23.6875 78.7881 23.5992C78.4742 23.5285 78.4312 22.8027 78.0945 22.7215C77.7077 22.628 77.5322 23.3051 77.1292 23.2112C76.7828 23.13 76.8023 22.4222 76.4397 22.335C76.0776 22.2493 75.825 22.9056 75.4831 22.8281C75.14 22.7484 75.0899 22.0252 74.7853 21.953C74.4737 21.8838 74.2282 22.2516 73.8096 22.3062C73.8096 22.3062 72.6068 22.6313 70.7054 20.6451C68.8 18.6629 68.0188 18.2776 66.9346 19.0853C65.1642 20.4038 64.0646 19.532 63.7444 19.14C63.3594 18.6906 63.7623 18.2776 63.7623 18.2776C63.7623 18.2776 64.3247 19.1456 65.0325 19.1613C66.1729 19.1953 67.033 17.6389 68.9874 17.6113C71.4634 17.5222 72.1088 18.4018 72.7856 18.4718C73.4126 18.5331 73.6218 18.4321 74.0558 18.1803H74.0532C74.4041 18.0554 74.7094 18.7336 75.0771 18.5967C75.4659 18.4501 75.1815 17.7665 75.6002 17.609C75.9915 17.4691 76.2471 18.156 76.6216 18.0164C77.0155 17.8728 76.7645 17.1702 77.1427 17.0332C77.5322 16.8926 77.7597 17.5866 78.1637 17.4384C78.5696 17.294 78.3074 16.5985 78.677 16.4586C79.0583 16.3194 79.334 17.0025 79.7085 16.8694C80.0632 16.7425 79.8604 16.0152 80.2297 15.8828C80.6131 15.7451 80.8608 16.4305 81.2694 16.2805C81.6053 16.1634 81.4194 15.4353 81.7677 15.3033C82.1156 15.1734 82.4389 15.8484 82.8011 15.7129C83.1408 15.5876 82.9421 14.864 83.3035 14.7286C83.6862 14.5905 83.9814 15.2655 84.3432 15.1383C84.7013 15.0096 84.4296 14.4259 84.8966 14.194C84.8966 14.194 85.5431 13.9815 85.5023 13.5071C85.497 13.4274 85.3635 12.4131 84.2987 12.198C83.2747 11.9922 75.1886 14.2288 75.0839 14.0997C74.3397 12.6293 73.3861 13.0379 73.2409 13.0708C73.0928 13.1082 72.19 13.4925 71.1903 13.1082C69.2265 12.2197 67.6589 14.4798 66.5833 14.1824C65.593 13.904 64.8357 14.0645 64.4204 14.2059C64.0403 14.3376 63.4241 14.8326 62.1177 14.3833C52.0214 10.936 44.1306 13.9497 44.1306 13.9497C39.6815 15.4361 39.1124 13.9497 39.1124 13.9497C39.1124 13.9497 37.6481 11.9608 47.9572 9.58842C62.775 6.18459 63.2217 0.551691 63.0463 0.19552C62.8031 -0.321153 62.7103 0.287556 62.2224 0.847628C61.8128 1.31305 61.3369 1.08296 61.3369 1.08296C60.8707 0.859226 60.5725 1.39161 60.5725 1.39161C60.5725 1.39161 59.9728 2.32245 59.4423 1.79305C58.9327 1.28349 58.2559 2.43356 58.003 2.47921C57.7003 2.53271 57.5525 2.38493 57.1462 2.19824C56.5375 1.92924 55.8843 3.03816 55.5498 3.11672C55.0376 3.23383 54.6781 2.51325 54.2377 2.81742C52.9212 3.72656 52.7139 3.85301 52.3592 3.49909C52.0974 3.23158 52.0588 2.94126 51.1792 3.78342C50.4306 4.50138 50.0722 4.63569 49.7718 4.17925C49.4624 3.71982 49.542 3.09278 48.2558 4.32703C47.6418 4.91666 47.3276 4.92789 46.9759 4.663C46.711 4.46397 46.7129 3.5148 45.7903 4.37418C44.9541 5.14788 44.3469 5.48684 44.1101 4.79993C43.8485 4.0281 42.8631 4.9421 42.6352 5.15723C42.3988 5.37235 41.8922 5.9414 41.5372 5.35402C41.1825 4.76327 40.3325 5.64509 39.827 6.20479C39.4372 6.63953 39.1218 6.30394 38.7106 6.0282C38.243 5.70757 36.8433 7.66128 36.7165 7.77838C36.5886 7.8895 36.4909 7.77838 36.1703 7.50639C35.6775 7.08886 34.3483 9.40996 34.1331 9.56148C34.1331 9.56148 34.0422 9.76164 33.6797 9.41557C33.1638 8.92509 30.4263 12.5291 29.3929 16.6067C28.0711 21.8341 30.1771 25.8425 30.1771 25.8425C30.1771 25.8425 30.8097 25.8619 31.0791 25.4343L31.4892 24.5102C31.8214 23.7399 32.3661 23.9823 32.3661 23.9823L31.0754 27.8254C30.8715 28.3316 30.9946 29.0477 31.4458 29.7245C31.8708 30.4046 32.1637 30.8644 32.5046 31.1806C33.5525 32.1675 33.4455 31.0002 33.4728 30.8543C33.5955 30.2295 34.2873 30.7095 34.8309 31.0088C35.8167 31.5622 35.7071 30.3403 35.9233 29.9418C36.0734 29.6564 36.5582 29.6436 37.0843 30.0844C37.4939 30.4267 37.901 29.2669 37.901 29.2669C38.4121 26.7958 37.2115 26.5099 36.562 26.4736L35.2473 26.4134C35.2473 26.4134 35.3337 26.0374 35.4707 25.6854L35.5294 25.4358C36.9631 21.8632 34.5671 21.1737 33.8503 21.2306C33.0594 21.3013 33.1148 20.7973 33.1148 20.7973C33.1148 20.7973 37.4453 19.9447 36.6379 24.5371C36.6379 24.5371 36.4786 25.337 36.3828 25.7542L37.5729 25.893C38.5969 26.0209 38.7787 27.2324 38.7787 27.2324C38.7787 27.2324 42.5454 28.2279 44.6817 27.8299C44.6817 27.8299 45.6365 27.6024 45.9018 27.0083C45.9018 27.0083 47.2853 23.7485 51.3244 23.6108C51.3244 23.6108 51.4666 24.0328 50.8212 24.2524C50.0475 24.5132 47.4694 24.7179 46.9336 27.6795V27.6911C46.8752 28.1771 47.0054 29.2119 48.0597 29.6912C48.9577 30.0963 49.2742 31.7317 49.4605 32.1731C49.9835 33.4268 50.7666 32.2285 50.7666 32.2285C50.7666 32.2285 51.2627 31.2169 51.6884 31.7781C52.4079 32.7246 52.742 32.2476 52.9055 31.6449C53.0843 30.9943 53.3447 30.7107 54.0978 31.5016C54.4196 31.845 55.0511 31.5798 55.114 30.992C55.2472 29.6983 56.1211 30.7271 56.2461 30.7769C56.3957 30.8337 57.3108 30.628 56.7987 29.1689C56.7987 29.1689 56.1069 27.7786 52.9882 27.1789C52.2564 27.0401 52.3727 26.5103 52.3727 26.5103L53.0596 26.6068C53.2646 26.6401 55.0784 26.8414 55.2715 26.8721C62.8794 27.623 68.6518 25.0422 68.8254 24.8581C74.7352 25.9906 82.7711 25.6045 84.2796 25.0609C85.796 24.5267 85.9089 23.6411 85.7346 23.405ZM73.5324 13.9743C73.6558 13.7753 73.7726 13.6627 73.8799 13.6084C74.3386 13.3477 74.6312 14.164 74.5754 14.194C74.5728 14.1955 74.5623 14.1988 74.5579 14.2007C74.5571 14.2018 74.5571 14.2048 74.5564 14.2059C74.4842 14.2407 73.5993 14.4918 73.5122 14.4341C73.3371 14.3126 73.5324 13.9743 73.5324 13.9743ZM70.1723 14.2325C70.1723 14.2325 70.2864 14.0885 70.5075 14.0151C70.7256 13.9358 71.0552 13.9223 71.4919 14.2037C71.9939 14.5228 71.9812 14.772 71.9812 14.772C71.9648 14.7802 71.9423 14.7884 71.9172 14.7974C71.5532 14.9381 70.0601 15.1214 70.0601 15.1214C69.7697 14.5864 70.1723 14.2325 70.1723 14.2325ZM42.3191 7.00618C42.5701 7.1996 42.3296 8.31339 42.1507 8.14914L40.8611 7.4671C40.8611 7.4671 42.0621 6.81836 42.3191 7.00618ZM40.2217 7.7174C40.4754 7.90633 40.2378 9.02274 40.0579 8.85662L38.772 8.17309C38.7723 8.17309 39.9669 7.52397 40.2217 7.7174ZM39.4963 9.89521C39.7511 10.0856 39.512 11.2039 39.3302 11.0423L38.042 10.3505C38.042 10.3505 39.24 9.70627 39.4963 9.89521ZM38.2688 12.8194L36.9791 12.1344C36.9791 12.1344 38.1786 11.4845 38.433 11.6757C38.6908 11.8661 38.4446 12.9836 38.2688 12.8194ZM38.026 15.0249L36.7401 14.3399C36.7401 14.3399 37.9369 13.693 38.1921 13.8801C38.4469 14.0686 38.2093 15.1817 38.026 15.0249ZM38.0024 8.49372C38.2583 8.68377 38.017 9.79531 37.837 9.63706L36.5466 8.94978C36.547 8.94978 37.7484 8.30104 38.0024 8.49372ZM36.8837 10.1915C37.1363 10.3812 36.8972 11.4931 36.7191 11.3349L35.4314 10.6498C35.431 10.6498 36.629 9.99884 36.8837 10.1915ZM34.5851 12.8553C34.5851 12.8553 35.7868 12.2032 36.0382 12.3963C36.2945 12.5852 36.0532 13.699 35.8732 13.5377L34.5851 12.8553ZM35.5724 15.6452L34.2869 14.9576C34.2869 14.9576 35.486 14.3126 35.7389 14.503C35.9948 14.6923 35.755 15.8053 35.5724 15.6452ZM34.6558 10.9648C34.9095 11.1504 34.6696 12.2664 34.4897 12.1052L33.206 11.4179C33.206 11.4179 34.3984 10.7729 34.6558 10.9648ZM33.4971 13.2111C33.7523 13.4001 33.5132 14.5206 33.3291 14.3556L32.044 13.6717C32.0444 13.6717 33.2427 13.0278 33.4971 13.2111ZM31.8042 15.8723C31.8042 15.8723 33.0025 15.2281 33.2566 15.4177C33.5136 15.6055 33.2689 16.7227 33.0923 16.5607L31.8042 15.8723ZM34.1017 18.3894L32.8151 17.7037C32.8151 17.7037 34.0142 17.0542 34.2689 17.2446C34.5237 17.4358 34.2805 18.5488 34.1017 18.3894ZM35.9473 19.8845L34.6603 19.2017C34.6603 19.2017 35.8601 18.5522 36.1145 18.7408C36.3671 18.9278 36.1235 20.0495 35.9473 19.8845ZM36.5242 17.5506L35.2364 16.8626C35.2364 16.8626 36.4359 16.2184 36.6903 16.4028C36.9451 16.5936 36.7038 17.7074 36.5242 17.5506ZM38.2362 20.8916L36.9515 20.207C36.9515 20.207 38.1438 19.559 38.4012 19.749C38.6552 19.9402 38.4188 21.0488 38.2362 20.8916ZM38.8543 18.7419L37.5684 18.0572C37.5684 18.0572 38.7652 17.413 39.0189 17.603C39.2733 17.7905 39.0365 18.9061 38.8543 18.7419ZM39.28 16.71L37.9942 16.0238C37.9942 16.0238 39.191 15.3796 39.448 15.5689C39.7032 15.7604 39.4596 16.8701 39.28 16.71ZM41.0893 20.632L39.8031 19.9428C39.8031 19.9428 41.0003 19.2997 41.2569 19.4864C41.5147 19.6761 41.2708 20.7947 41.0893 20.632ZM41.6464 18.4916L40.3609 17.8081C40.3609 17.8081 41.56 17.1567 41.8148 17.3494C42.0654 17.5334 41.8241 18.6513 41.6464 18.4916ZM42.113 16.224L40.8267 15.5386C40.8267 15.5386 42.0243 14.8962 42.2813 15.0825C42.5342 15.2729 42.2929 16.3856 42.113 16.224ZM43.92 20.2305L42.6296 19.5455C42.6296 19.5455 43.8291 18.8968 44.0861 19.0857C44.3386 19.2806 44.0951 20.3955 43.92 20.2305ZM44.3521 17.9409L43.0662 17.2525C43.0662 17.2525 44.2657 16.6063 44.5194 16.7942C44.7745 16.9865 44.5328 18.0958 44.3521 17.9409ZM44.8007 15.5902L43.5144 14.9041C43.5144 14.9041 44.7117 14.2587 44.9676 14.4465C45.2216 14.641 44.9814 15.7518 44.8007 15.5902ZM46.7372 19.3255L45.4494 18.6465C45.4494 18.6465 46.6485 17.9981 46.8999 18.1867C47.1585 18.3756 46.9172 19.4883 46.7372 19.3255ZM47.0893 17.0703L45.7996 16.3886C45.7996 16.3886 46.998 15.7414 47.2509 15.928C47.5124 16.1192 47.2673 17.2379 47.0893 17.0703ZM47.536 14.8599L46.2456 14.1786C46.2456 14.1786 47.4469 13.5273 47.6995 13.7151C47.9539 13.9074 47.7133 15.0249 47.536 14.8599ZM49.5069 18.8489L48.2199 18.1627C48.2199 18.1627 49.4156 17.5144 49.673 17.704C49.9304 17.8956 49.6876 19.0071 49.5069 18.8489ZM49.8582 16.7433L48.5701 16.0601C48.5701 16.0601 49.7706 15.4073 50.0232 15.6018C50.2776 15.7859 50.037 16.906 49.8582 16.7433ZM50.2821 14.497L48.9925 13.8131C48.9925 13.8131 50.1919 13.1587 50.4489 13.3537C50.7033 13.5445 50.465 14.656 50.2821 14.497ZM52.0655 18.8885L50.7812 18.2035C50.7812 18.2035 51.9784 17.5529 52.2328 17.7471C52.4879 17.9345 52.2463 19.0483 52.0655 18.8885ZM52.4906 16.6277L51.2002 15.9441C51.2002 15.9441 52.4015 15.292 52.6567 15.4855C52.9092 15.6766 52.6679 16.7885 52.4906 16.6277ZM52.9724 14.3773L51.6843 13.6934C51.6843 13.6934 52.8838 13.0413 53.1389 13.2354C53.396 13.424 53.1524 14.54 52.9724 14.3773ZM54.7477 18.8885L53.4596 18.2001C53.4596 18.2001 54.6571 17.5533 54.9119 17.7474C55.1663 17.9345 54.9295 19.0483 54.7477 18.8885ZM55.1596 16.753L53.8748 16.0657C53.8748 16.0657 55.0709 15.4241 55.3253 15.607C55.5809 15.799 55.3407 16.9158 55.1596 16.753ZM55.6467 14.5677L54.3631 13.8834C54.3631 13.8834 55.5603 13.2373 55.8162 13.424C56.0672 13.6137 55.8267 14.729 55.6467 14.5677ZM57.2689 19.211L55.9812 18.5189C55.9812 18.5189 57.1807 17.8773 57.4351 18.0684C57.6925 18.254 57.4519 19.3704 57.2689 19.211ZM57.7243 17.1402L56.4373 16.4574C56.4373 16.4574 57.6378 15.8102 57.8904 15.9995C58.1478 16.1926 57.8994 17.3045 57.7243 17.1402ZM58.2159 15.0249L56.9255 14.3432C56.9255 14.3432 58.1257 13.6949 58.382 13.8801C58.6356 14.0686 58.391 15.1817 58.2159 15.0249ZM60.2223 17.5869L58.9368 16.909C58.9368 16.909 60.1337 16.2592 60.3907 16.4455C60.6436 16.637 60.4027 17.7508 60.2223 17.5869Z" fill="white"/>
<path d="M26.399 37.0933C26.1304 36.3798 25.6197 36.0723 24.6844 36.0581C24.5991 36.0554 20.2719 36.0622 20.2719 36.0622L13.8672 53.5015C13.8672 53.5015 16.9826 53.5015 16.9848 53.5015C17.2534 53.5209 17.5034 53.4787 17.7278 53.3776C18.3347 53.1012 18.6321 52.3978 18.7185 52.158C18.7185 52.164 19.5899 49.7284 19.6497 49.569C20.0957 49.569 25.7503 49.5668 26.0934 49.5668C26.2281 49.9776 27.4025 53.4936 27.4025 53.4936H31.6219L28.9454 45.0065L26.399 37.0933ZM25.0997 45.9875C24.4599 45.9875 21.0101 45.9882 20.7579 45.9882C21.2263 44.7061 22.3921 41.4624 22.8901 40.1492C23.3203 41.4736 25.0885 45.9444 25.0997 45.9875Z" fill="white"/>
<path d="M56.762 35.9227H56.7598C51.7685 35.9294 48.1484 39.676 48.1484 44.827C48.1484 49.874 51.8486 53.6815 56.762 53.6815C61.6729 53.6815 65.5234 49.7947 65.5234 44.827C65.5234 39.8331 61.6729 35.9227 56.762 35.9227ZM56.887 49.791C54.3429 49.791 52.3492 47.5907 52.3492 44.7799C52.3492 41.9948 54.2999 39.8967 56.884 39.8967C59.4494 39.8967 61.3099 41.9488 61.3099 44.7799C61.3096 47.6386 59.4071 49.791 56.887 49.791Z" fill="white"/>
<path d="M76.8135 43.2623L76.6496 43.2144C76.6541 43.2167 75.0267 42.7217 75.0226 42.7172L74.7794 42.6308C73.4501 42.1504 72.5062 41.7479 72.5062 40.9738C72.5062 40.9547 72.5062 40.9349 72.5062 40.9169C72.6382 39.6325 75.0229 39.6187 75.0461 39.6187C76.3608 39.6187 77.3717 39.82 78.6524 40.3344L78.6797 40.3445L78.7347 40.3606C79.0302 40.4204 79.2891 40.4287 79.4986 40.3823L79.8533 40.248C80.3621 39.9681 80.8683 38.4854 81.0625 37.861L81.1254 37.6609L80.9686 37.5172C80.9072 37.4581 80.5342 37.1509 79.1776 36.6447C77.7978 36.128 75.8438 36.0472 75.8438 36.0472L74.8796 36.0431C69.8446 36.0431 67.9223 39.1503 67.8613 41.2372C67.8198 43.3162 69.0032 44.3862 70.7923 45.3582C71.5405 45.7727 72.9076 46.154 73.8987 46.4312C73.8934 46.4267 74.9245 46.732 74.9245 46.732C76.8 47.3213 77.5169 47.9756 77.3837 48.9906C77.3238 49.3262 76.69 49.8814 75.25 49.8814C74.1542 49.8814 73.1643 49.7131 72.1335 49.3535C71.6386 49.1567 71.1264 48.9027 70.5854 48.5817L70.5596 48.5652L70.5042 48.5413C70.2049 48.4298 69.9366 48.383 69.7065 48.4025L69.3103 48.4878C68.7323 48.704 67.9283 50.1718 67.6069 50.7924L67.4805 51.0375L67.699 51.2107C67.7379 51.2369 68.6324 51.9481 69.3923 52.393C70.2872 52.8887 71.2917 53.2479 72.4781 53.4877C72.9562 53.5748 73.7157 53.6852 74.9058 53.6852C78.8072 53.6852 81.6417 51.7087 81.9675 48.7658C82.1093 46.0956 80.471 44.3533 76.8135 43.2623Z" fill="white"/>
<path d="M85.1548 36.0836C84.9928 36.0809 84.1417 36.0978 83.6523 36.5505C83.4271 36.7574 83.3093 37.0338 83.3093 37.3455L83.3066 40.1047C83.3066 40.1047 88.0136 40.101 88.6301 40.101C88.6301 40.7497 88.6301 53.5083 88.6301 53.5083L92.9906 53.5045C92.9906 53.5045 92.9906 40.7486 92.9906 40.101C93.572 40.1002 96.4169 40.1002 96.4169 40.1002C96.5781 40.1002 97.4274 40.0819 97.9187 39.6314C98.1413 39.42 98.2625 39.1499 98.2625 38.8338V36.0836H85.1548Z" fill="white"/>
<path d="M10.356 49.5616C10.356 49.5616 6.69443 49.5616 5.46092 49.5616C5.46092 48.9185 5.44708 37.6744 5.44708 37.6744C5.44708 37.1809 5.29967 36.7892 5.00261 36.5153C4.52821 36.0701 3.82223 36.0724 3.55884 36.078L0.986328 36.0724L0.993062 53.5016H11.9057L11.9139 50.7319C11.9139 50.3772 11.7624 49.5616 10.356 49.5616Z" fill="white"/>
<path d="M41.5577 39.7886C42.6154 39.7182 43.5054 39.7886 44.345 40.0183C44.7958 40.1687 45.2028 40.1986 45.5478 40.1013C45.5489 40.1006 45.8957 39.9468 45.8957 39.9468C46.384 39.646 46.7334 38.114 46.8984 37.231L46.9362 37.0241L46.7585 36.8962C46.7139 36.8636 46.5751 36.7667 44.9948 36.3402C43.5555 35.9522 42.2745 35.9047 41.643 35.9092L41.5734 35.91C37.9619 35.91 32.5232 38.2939 32.3672 44.858V44.8954C32.5232 51.4618 37.9623 53.845 41.576 53.845L41.643 53.8476C42.2745 53.8502 43.5533 53.7986 44.9948 53.4114C46.5755 52.9886 46.7139 52.8906 46.76 52.8573L46.9365 52.7323L46.8988 52.5243C46.7338 51.6365 46.3843 50.1078 45.8961 49.8048V49.8025L45.5493 49.6499C45.2032 49.5556 44.7958 49.5863 44.3386 49.7397C43.5035 49.9641 42.6139 50.0367 41.545 49.9664C38.8097 49.6989 37.1669 47.8372 37.0431 44.8618C37.1665 41.9151 38.8097 40.0538 41.5577 39.7886Z" fill="white"/>
<path d="M111.181 53.4937C111.855 53.4787 112.999 53.0818 112.999 51.7427L112.986 49.5556L105.301 49.559C105.301 49.559 105.315 47.0523 105.315 46.637C105.945 46.637 111.658 46.637 111.658 46.637L111.647 42.6046C111.647 42.6046 105.953 42.6114 105.325 42.6114C105.324 42.1347 105.325 40.5847 105.325 40.1051C105.954 40.1051 111.149 40.098 111.149 40.098C111.308 40.1006 112.178 40.1013 112.649 39.6314C112.978 39.3018 112.993 38.7017 112.993 38.3893V36.0869H100.904L100.907 53.5075L111.181 53.4937Z" fill="white"/>
</g>
</svg>
