<svg width="564" height="42" viewBox="0 0 564 42" fill="none" xmlns="http://www.w3.org/2000/svg">
<g opacity="0.8">
<path d="M67.3936 41.6628H68.5556V39.3828H70.7196C71.7297 39.3828 73.4015 39.3828 73.4015 37.5946C73.4015 35.8069 71.7477 35.7799 70.7196 35.7799H67.3891L67.3936 41.6628ZM68.5556 38.3727V36.7455H70.9696C71.6403 36.7455 72.2215 36.799 72.2215 37.5501C72.2215 38.3013 71.6403 38.3727 70.9696 38.3727H68.5556ZM74.7874 41.6673H76.0258L76.6605 40.3259H80.1026L80.7283 41.6673H81.9532L79.061 35.7619H77.7196L74.7874 41.6673ZM77.1478 39.3428L78.3993 36.6605L79.6422 39.3428H77.1478ZM84.868 41.6938H86.03V39.3383H87.8852L89.6284 41.6763H91.0593L89.2261 39.2624C89.6815 39.2615 90.1171 39.0749 90.4317 38.7459C90.7464 38.4168 90.9132 37.9736 90.8938 37.5187C90.8938 36.0748 89.8833 35.7574 88.4664 35.7574H84.89L84.868 41.6938ZM86.03 38.3993V36.7005H88.292C89.2486 36.7005 89.7359 36.8349 89.7359 37.5366C89.7359 38.2383 89.2441 38.3727 88.2965 38.3727L86.03 38.3993ZM94.5233 35.7619H95.6858V41.6628H94.5233V35.7619ZM103.942 37.5501C103.755 37.0359 103.272 36.5756 101.855 36.5756C101.059 36.5756 100.268 36.7769 100.268 37.3177C100.268 37.5681 100.42 37.836 101.609 37.9749L103.017 38.1983C104.358 38.3948 105.145 38.9135 105.145 39.8971C105.145 41.283 103.804 41.8193 102.212 41.8193C99.651 41.8193 99.0248 40.5588 98.8864 40.1115L100.004 39.7672C100.227 40.2145 100.675 40.8222 102.239 40.8222C103.2 40.8222 103.983 40.5093 103.983 39.9996C103.983 39.6197 103.535 39.3738 102.686 39.2624L101.256 39.07C99.8834 38.8911 99.1188 38.2878 99.1188 37.3892C99.1188 35.6235 101.434 35.6235 101.891 35.6235C104.465 35.6235 104.899 36.7945 105.051 37.1968L103.942 37.5501ZM148.748 26.464C149.239 30.5677 151.394 29.9595 151.501 30.3173C151.501 30.3173 143.187 30.3173 143.187 30.2903C143.142 30.1429 145.574 30.2458 145.087 26.6429L142.918 10.6393C142.829 10.2145 142.829 9.74524 142.588 9.83469C142.418 9.91516 135.257 27.1342 135.257 27.1342C135.154 27.416 134.975 27.5815 134.738 27.1791C134.568 26.8888 128.033 12.606 128.033 12.606C127.711 11.8908 127.139 10.7508 127.049 10.5499C126.87 10.1921 126.602 10.1476 126.638 11.3545L124.939 27.5815C124.537 30.4067 127.219 30.1919 127.174 30.3663H121.309C121.233 30.2323 123.285 30.4917 123.741 27.519L125.681 9.61083C125.538 6.13781 123.088 6.32526 123.088 6.03487H129.284L129.374 6.22726L135.954 20.4781C136.043 20.657 136.101 20.7465 136.151 20.8359C136.343 21.2472 136.321 21.5286 136.553 20.9878L142.999 6.02138H148.958C149.003 6.23131 146.566 6.12432 146.566 9.09702L148.748 26.464ZM12.8834 29.5036C18.6189 29.4277 18.3505 25.1005 18.7303 25.1361L17.7468 30.3353H0C0 30.1919 3.4065 30.1384 3.45549 27.7334V9.56633C3.45549 6.59812 0.250385 6.51765 0.393334 6.31177H10.4069C10.1966 6.53564 6.94245 6.54912 6.94245 9.44136V28.2967C6.94245 29.6825 8.34587 29.4591 9.51733 29.5036H12.8789H12.8834ZM50.6749 27.8319C51.0192 30.827 53.3122 30.0669 53.3122 30.3528H46.893C46.893 30.0624 49.4634 30.3528 49.423 27.644V9.38742C49.4679 6.2358 46.6961 6.23131 46.6337 5.98991H53.0798L66.4325 22.4137L66.3966 9.07904C66.3071 5.86045 63.8262 6.08386 63.7862 5.91844H70.5227C70.4958 6.07937 67.8404 6.1423 67.7244 9.08354L67.6975 29.736C67.6975 29.736 67.9344 31.3008 66.9733 30.0669C66.553 29.5306 50.9253 9.87021 50.9253 9.87021C50.7823 9.70478 50.7149 9.87021 50.7019 10.3755V27.5635L50.6749 27.8319ZM29.0253 18.4889C28.3771 18.4889 28.4666 18.1091 28.7125 17.5054C28.7125 17.5054 30.903 12.0877 31.1709 11.426C31.5063 10.5764 31.8641 10.7553 32.11 11.4795L34.3225 17.6038C34.5374 18.2835 34.8053 18.4979 34.0677 18.4979H29.0163L29.0253 18.4889ZM42.0206 27.2686L33.0531 6.12432C32.4004 5.40913 32.159 6.22726 32.159 6.22726C31.2649 8.26091 23.0664 27.8764 23.0664 27.8764C21.9489 30.4917 20.4961 30.1833 20.4961 30.3618H26.3075C26.3075 30.0714 23.1784 30.5497 24.2514 27.8274L27.3536 20.2727C27.6799 19.7944 27.7109 19.6689 28.4711 19.6689H34.2825C34.9887 19.6689 35.0247 19.6689 35.3286 20.3711L38.2653 27.5235C39.1239 30.3843 36.5131 30.2053 36.549 30.4022H44.7965C44.8769 30.1563 43.545 30.9745 42.0472 27.3311L42.0206 27.2686ZM108.077 1.83271L98.2427 4.82789L108.077 0L117.943 4.82789L108.077 1.83271ZM108.077 29.4322H107.988C103.276 29.4322 100.165 25.0246 100.165 18.1581C100.165 10.2905 103.348 6.49068 108.068 6.49068C112.78 6.49068 115.989 10.2995 115.989 18.1581C115.989 24.9886 112.744 29.3787 108.068 29.4232L108.077 29.4322ZM108.122 5.56107C104.77 5.50667 101.539 6.8076 99.1592 9.16895C96.7804 11.5308 95.4552 14.7525 95.4844 18.1046C95.4844 24.5683 100.402 30.3353 108.055 30.3353C115.708 30.3353 120.795 24.5863 120.795 18.1136C120.821 14.7579 119.491 11.5339 117.107 9.17255C114.723 6.81119 111.486 5.51207 108.131 5.57006L108.122 5.56107ZM84.707 29.3787C90.2587 29.2892 92.7531 25.4579 93.2448 25.2839C93.4862 25.2075 90.536 30.3038 84.6396 30.3038C71.4079 30.3038 71.6313 18.3905 71.6313 18.3905C72.0426 10.0221 78.8596 5.03332 85.3908 5.7175C86.689 5.84517 87.9656 6.13691 89.1906 6.58463C89.7938 6.77703 91.4256 7.65765 92.0693 7.41176C92.5162 7.23285 92.856 6.29424 92.9634 6.23131L93.0259 12.758C92.5791 12.758 91.1038 6.48169 84.8005 6.48169C79.6422 6.48169 75.726 12.3511 75.8064 18.1046C75.9408 27.6974 82.6819 29.4277 84.7111 29.3917L84.707 29.3787ZM160.192 18.328V27.4561C160.192 29.2712 160.044 29.4946 161.233 29.5036H167.786C169.387 29.4052 170.411 28.9984 171.072 28.4756C172.579 27.2911 172.225 25.5119 172.529 25.4489L172.377 30.3218H153.978C153.906 30.1518 156.718 30.6167 156.718 26.6204V9.81222C156.718 5.78897 154.125 6.41471 154.157 6.10184H172.395L172.552 10.9073C172.185 10.8852 173.151 7.1389 167.724 6.81254H161.671C160.625 6.81254 160.196 6.81254 160.196 8.80618V13.9919L160.223 15.1409C160.223 16.035 160.223 16.111 161.492 16.111H167.349C170.299 16.111 169.896 13.4731 170.156 13.4731V19.7319C169.896 19.7319 170.281 16.8261 167.473 16.9156H161.555C160.259 16.8931 160.214 17.3624 160.214 18.2565L160.192 18.328Z" fill="white"/>
</g>
<path opacity="0.8" d="M460.249 6.1344C459.857 6.22436 459.419 6.46424 459.222 6.70412L458.875 7.09393V14.9051C458.875 22.2365 458.89 22.7762 459.177 23.9757C459.494 25.235 460.068 26.4794 460.793 27.424C461.594 28.4585 463.512 29.6129 465.324 30.1376C467.56 30.7823 468.119 30.8123 477.77 30.8723L487.09 30.9323L489.521 33.391C492.029 35.9248 492.361 36.1497 493.282 35.9398C493.871 35.8049 494.476 35.2351 494.763 34.5155C495.125 33.6009 494.898 33.2261 492.603 30.9023L490.594 28.8633V21.307C490.594 12.9111 490.564 12.6412 489.536 10.7521C489.053 9.83759 487.603 8.21838 487.044 7.9635C486.878 7.88854 486.546 7.70863 486.289 7.5587C485.7 7.19888 484.31 6.73411 482.891 6.38927C481.879 6.14939 480.716 6.10442 471.351 6.02945C463.754 5.96948 460.748 5.99947 460.249 6.1344ZM481.305 9.56772C484.174 10.0325 485.519 11.067 486.259 13.3759C486.501 14.1255 486.531 14.8301 486.485 20.7972L486.44 27.394L478.269 27.439C470.264 27.4689 468.104 27.394 466.729 27.0042C465.627 26.7043 464.524 25.9097 463.965 25.0401C463.059 23.6158 463.044 23.5259 462.998 16.2994C462.968 12.6712 462.983 9.62769 463.014 9.52274C463.074 9.37281 464.811 9.32784 471.442 9.32784C478.45 9.32784 480.021 9.37281 481.305 9.56772ZM449.027 6.19437C448.801 6.28433 448.483 6.56919 448.302 6.83905C448 7.33381 448 7.52872 448 18.5483V29.7628L448.529 30.2576C449.329 31.0072 450.235 31.0822 451.142 30.4975C451.927 29.9877 451.927 30.0927 451.927 18.3234V7.42377L451.58 6.91402C451.021 6.08942 450.084 5.81955 449.027 6.19437ZM506.196 6.17938C505.441 6.23935 504.746 6.3443 504.671 6.38927C504.58 6.43425 504.157 6.55419 503.719 6.62916C502.33 6.89903 500.457 7.90353 499.399 8.96801C498.871 9.47776 498.388 10.0625 498.297 10.2574C498.221 10.4373 498.085 10.7072 498.025 10.8271C497.632 11.5018 497.511 11.8166 497.376 12.5213C497.285 12.9561 497.149 13.5708 497.073 13.9006C497.013 14.2304 496.953 16.2544 496.953 18.3984C496.953 20.5423 497.013 22.5663 497.073 22.8962C497.149 23.226 497.285 23.8257 497.36 24.2455C497.753 26.0896 499.551 28.4435 501.167 29.2231C502.239 29.7328 502.934 30.0177 503.13 30.0177C503.221 30.0177 503.614 30.1077 504.006 30.2276C505.441 30.6474 507.359 30.7673 512.812 30.7673C518.234 30.7673 521.255 30.5724 522.01 30.1676C522.161 30.0777 522.418 30.0177 522.554 30.0177C522.886 30.0177 524.608 29.1931 525.439 28.6384C526.617 27.8438 527.856 26.1196 528.203 24.7853C528.279 24.4854 528.415 23.9757 528.49 23.6458C528.686 22.8812 528.702 13.9456 528.505 13.1809C528.415 12.8811 528.294 12.4013 528.233 12.1315C527.735 10.2724 526.179 8.42828 524.352 7.54371C522.917 6.85405 522.871 6.83905 521.406 6.46424C520.213 6.17938 519.669 6.14939 513.854 6.10442C510.41 6.07443 506.967 6.10442 506.196 6.17938ZM519.79 9.56772C522.358 10.1075 523.536 11.037 524.367 13.151C524.623 13.8406 524.654 14.3054 524.654 18.3984C524.654 22.4914 524.623 22.9562 524.367 23.6458C523.611 25.5499 522.569 26.4944 520.5 27.1091C519.594 27.379 519.02 27.394 512.797 27.394C506.272 27.394 506.045 27.379 505.064 27.0641C503.674 26.6144 503.311 26.4045 502.586 25.6398C501.861 24.8902 501.605 24.4254 501.257 23.241C500.91 22.0116 500.91 14.7852 501.257 13.5558C501.922 11.2769 503.115 10.1974 505.622 9.6127C507.163 9.25287 518.159 9.2079 519.79 9.56772ZM542.779 6.16439C539.426 6.43425 536.888 7.45376 535.967 8.89305C535.257 10.0175 535.091 10.7521 535.091 12.8511C535.106 17.154 536.344 19.0431 539.607 19.7028C540.03 19.7927 544.153 19.8977 548.971 19.9576C557.415 20.0626 557.596 20.0776 558.26 20.3924C558.638 20.5723 559.046 20.8122 559.182 20.9022C559.907 21.4869 560.179 22.6713 559.997 24.5454C559.907 25.6099 559.846 25.7448 559.333 26.2545C558.955 26.6294 558.487 26.8842 557.807 27.0941C556.886 27.379 556.357 27.394 548.896 27.394C541.027 27.394 540.966 27.394 540.286 27.0641C539.365 26.6144 539.154 26.4345 538.791 25.7148C538.127 24.4554 537.084 24.0356 535.876 24.5304C535.076 24.8602 534.924 25.1451 534.94 26.1796C534.97 28.0687 536.269 29.433 538.701 30.1676C540.709 30.7523 542.039 30.8423 549.424 30.8423C556.81 30.8423 557.732 30.7823 559.62 30.1676C560.768 29.7928 561.251 29.5229 562.021 28.8783C563.426 27.6788 564 26.1646 564 23.6458C564 20.4074 563.033 18.5783 560.768 17.5138C559.076 16.7192 558.14 16.6443 549.47 16.5693C540.392 16.4943 540.483 16.4943 539.577 15.3249C539.078 14.7102 539.078 14.6802 539.078 13.076C539.078 11.6967 539.123 11.3668 539.395 10.9171C539.818 10.1824 540.453 9.85258 541.903 9.55273C542.96 9.34283 544.062 9.31284 549.757 9.35782C555.557 9.4028 556.463 9.44778 557.158 9.67267C558.019 9.95753 558.729 10.5722 559.106 11.3518C559.454 12.0715 560.164 12.4763 561.085 12.4763C562.928 12.4763 563.456 10.7072 562.218 8.71314C561.598 7.72362 560.315 6.98898 558.26 6.44925C557.218 6.17938 556.569 6.14939 550.633 6.10442C547.068 6.07443 543.534 6.10442 542.779 6.16439Z" fill="white"/>
<path d="M254.178 10.1355C256.327 15.4162 258.43 20.6739 260.624 26.0917C261.013 25.1773 261.356 24.4229 261.653 23.6686C263.299 19.6224 264.922 15.5533 266.568 11.4843C266.659 11.2328 266.797 11.0042 266.888 10.7528C267.071 10.227 267.505 9.95266 268.008 9.9298C269.723 9.88408 271.437 9.88408 273.152 9.9298C273.609 9.9298 274.043 10.1355 273.929 10.8213C273.426 10.867 272.946 10.8899 272.466 10.9356C271.597 11.0271 271.094 11.53 271.026 12.3987C271.003 12.6273 271.026 12.8559 271.026 13.0845C271.026 17.9765 271.026 22.8685 271.026 27.7605C271.026 28.1491 271.026 28.5149 271.094 28.8806C271.369 30.1608 271.826 30.5494 273.129 30.8008C273.495 30.8694 273.86 30.9837 274.203 31.1437C274.34 31.2123 274.386 31.4181 274.569 31.7381C273.266 31.7152 272.123 31.7381 270.98 31.6695C270.408 31.6238 269.837 31.3495 269.105 31.1437C267.642 32.241 265.791 31.6009 264.031 31.7152C263.939 31.1209 264.328 31.0066 264.671 30.8694C264.876 30.8008 265.128 30.8237 265.356 30.8008C266.568 30.6637 267.3 29.955 267.368 28.7663C267.414 28.2405 267.437 27.7148 267.437 27.1661C267.437 23.1428 267.437 19.1195 267.437 15.0961C267.437 14.8447 267.414 14.5703 267.391 14.0217C267.14 14.4789 267.002 14.7075 266.888 14.9361C264.831 19.8967 262.773 24.8573 260.693 29.795C260.487 30.2979 260.213 30.8008 259.939 31.3495C259.321 31.0523 259.161 30.5265 258.956 30.0465C257.493 26.6175 256.052 23.1656 254.612 19.7138C253.904 18.045 253.218 16.3763 252.349 14.7304C252.326 14.959 252.281 15.1647 252.281 15.3933C252.281 19.5538 252.281 23.7371 252.281 27.8976C252.281 28.2405 252.303 28.5834 252.372 28.9035C252.669 30.2293 253.172 30.6637 254.544 30.8008C255.047 30.8466 255.527 30.8694 255.732 31.5781C254.201 31.921 252.761 31.9667 251.435 31.0752C249.903 31.8524 249.857 31.8524 247 31.6009C247.16 31.3495 247.251 31.1209 247.411 31.0066C247.571 30.8923 247.823 30.8466 248.052 30.8237C249.857 30.5951 250.452 29.9779 250.475 28.1948C250.498 25.3602 250.498 22.5027 250.498 19.6681C250.498 17.7021 250.498 15.7133 250.475 13.7474C250.475 13.2673 250.383 12.7644 250.246 12.3072C250.017 11.5071 249.446 11.0499 248.623 10.9585C248.143 10.9128 247.64 10.867 247.183 10.8213C246.954 10.387 247.16 10.1584 247.457 10.0441C247.686 9.95266 247.96 9.90694 248.234 9.90694C249.789 9.90694 251.343 9.88408 252.921 9.90694C253.309 9.95266 253.721 10.067 254.178 10.1355Z" fill="white"/>
<path d="M409.259 31.6258C407.705 31.8544 406.242 32.0144 404.916 31.0543C403.567 32.0373 402.104 31.8773 400.595 31.6258C400.595 31.0543 400.984 30.94 401.35 30.8714C401.601 30.8029 401.875 30.8486 402.15 30.8257C403.064 30.6886 403.75 30.0256 403.887 29.1112C403.933 28.814 403.956 28.5169 403.956 28.1968C403.956 23.2362 403.956 18.2528 403.91 13.2922C403.887 11.6006 403.247 11.0519 401.532 10.9148C401.212 10.8919 400.892 10.8462 400.572 10.8005C400.572 10.1375 400.961 9.95467 401.395 9.95467C402.835 9.93181 404.276 9.90895 405.716 9.95467C406.424 9.97753 406.859 10.5033 407.247 11.0291C408.413 12.6064 409.579 14.2066 410.745 15.7839C412.894 18.71 415.043 21.6589 417.191 24.6078C417.351 24.8136 417.511 25.0193 417.786 25.3393C417.809 24.8822 417.831 24.585 417.831 24.2649C417.831 20.8588 417.831 17.4298 417.831 14.0237C417.831 13.4979 417.717 12.9722 417.626 12.4693C417.443 11.532 416.826 11.0748 415.866 10.9834C415.523 10.9605 415.18 10.9148 414.86 10.7776C414.654 10.6862 414.517 10.4576 414.357 10.2518C415.477 9.58891 417.146 9.81751 418.746 10.6405C420.026 9.81751 421.466 9.79465 423.112 10.0461C422.952 10.3204 422.906 10.5947 422.723 10.6862C422.472 10.8462 422.152 10.9148 421.855 10.9376C420.3 11.1205 419.683 11.8063 419.615 13.3836C419.592 14.0694 419.592 14.7552 419.592 15.441C419.592 20.5159 419.592 25.6137 419.592 30.6886C419.592 30.94 419.569 31.2143 419.546 31.4429C418.7 31.8315 418.586 31.8087 418.083 31.1686C417.329 30.1856 416.597 29.1569 415.866 28.1511C412.779 23.922 409.693 19.693 406.607 15.4639C406.356 15.1439 406.104 14.8238 405.739 14.3438C405.716 14.8695 405.67 15.2124 405.67 15.5325C405.67 19.2129 405.647 22.8933 405.67 26.5738C405.67 27.4425 405.784 28.3111 405.899 29.1569C406.036 30.0713 406.744 30.6657 407.705 30.78C407.933 30.8029 408.162 30.78 408.39 30.8257C408.848 30.9172 408.87 30.9172 409.259 31.6258Z" fill="white"/>
<path d="M228.861 11.3329C228.175 11.1958 227.489 11.0815 226.781 10.9443C224.517 10.5328 222.254 10.1213 219.991 9.73273C215.716 8.97835 211.784 9.75559 208.287 12.4302C206.938 13.4589 205.818 14.6476 205.109 16.2021C204.172 18.2594 204.995 19.8825 206.047 20.8426C206.641 21.3912 207.395 21.7799 208.173 21.8484C212.036 22.2142 215.259 20.9341 217.705 17.8937C218.322 17.1165 218.574 16.2249 218.46 15.242C218.345 14.2818 217.819 13.7103 216.859 13.4132C215.625 13.0474 214.459 13.3217 213.339 13.7561C212.882 13.9389 212.47 14.2133 212.013 14.3961C211.784 14.4876 211.533 14.5104 211.19 14.419C211.419 14.1904 211.602 13.9161 211.853 13.7332C213.522 12.6588 215.305 12.2016 217.271 12.7502C218.78 13.1846 219.58 14.579 219.26 16.1106C218.894 17.8251 217.865 19.1053 216.516 20.1568C214.482 21.7341 212.15 22.5571 209.59 22.6485C208.63 22.6943 207.693 22.5114 206.824 22.1685C204.424 21.1855 203.189 18.6481 204.218 16.0878C204.995 14.1675 206.321 12.6816 208.013 11.5158C210.664 9.68701 213.59 8.58973 216.814 8.13254C219.443 7.76678 221.934 8.22398 224.472 8.70403C226.986 9.18409 229.501 9.80131 232.038 10.1671C234.324 10.4871 236.565 10.0528 238.645 8.97835C239.125 8.72689 239.559 8.2697 240.314 8.45258C240.154 8.68117 240.062 8.88691 239.902 9.04693C238.988 9.89275 237.845 10.3271 236.656 10.6014C235.49 10.8757 234.279 10.99 233.067 11.1043C231.261 11.2872 229.615 11.8816 228.152 12.956C226.095 14.4876 224.357 16.3392 222.826 18.3737C221.134 20.614 219.557 22.9229 217.819 25.1403C215.351 28.2492 212.379 30.7409 208.607 32.1582C206.664 32.8898 204.675 33.2555 202.595 32.7297C200.377 32.1582 198.823 30.8552 198.069 28.6607C198.023 28.5464 198.023 28.4092 198 28.1806C198.64 28.3864 198.777 28.8893 199.029 29.2779C200.012 30.7866 201.406 31.7468 203.166 32.0211C204.492 32.2268 205.795 32.0668 207.098 31.701C209.544 30.9924 211.556 29.6208 213.248 27.7691C215.191 25.6432 216.859 23.2886 218.505 20.9112C219.694 19.1967 220.974 17.5508 222.46 16.0649C224.015 14.4876 225.752 13.1617 227.741 12.1559C228.152 11.9501 228.541 11.7215 228.929 11.4929C228.884 11.4701 228.884 11.4015 228.861 11.3329Z" fill="white"/>
<path d="M282.684 31.647C281.335 31.6927 280.009 31.9899 278.843 31.0298C277.677 31.8756 276.397 31.9213 275.071 31.6241C275.049 31.0755 275.391 30.8698 275.78 30.8469C276.992 30.7783 277.586 29.9782 277.975 28.9953C279.026 26.4578 280.055 23.8975 281.061 21.3372C282.478 17.6796 283.872 14.0221 285.267 10.3645C285.427 9.95302 285.656 9.5644 285.838 9.17578C286.524 9.26722 286.547 9.81586 286.707 10.1816C287.576 12.2619 288.399 14.365 289.244 16.4681C290.845 20.4228 292.445 24.3776 294.045 28.3323C294.228 28.7895 294.457 29.2239 294.708 29.6582C295.074 30.2983 295.577 30.8012 296.4 30.8241C296.834 30.8469 297.2 31.0298 297.245 31.6013C295.645 31.8756 294.091 32.0356 292.696 31.0527C291.165 31.8756 289.61 32.1728 287.941 31.6241C287.941 30.8926 288.467 30.8698 288.947 30.8012C290.09 30.664 290.09 30.6412 290.89 29.6582C290.936 28.1952 290.045 26.9607 289.587 25.6806C288.422 25.2005 282.958 25.1548 281.038 25.612C280.466 26.595 280.055 27.7151 279.872 28.9038C279.689 30.1154 280.123 30.6412 281.381 30.8012C281.952 30.8698 282.432 30.9384 282.684 31.647ZM288.833 23.9432C288.056 21.1086 285.656 15.1879 285.061 14.5936C283.895 17.7025 282.752 20.7886 281.564 23.9432C284.032 23.9432 286.364 23.9432 288.833 23.9432Z" fill="white"/>
<path d="M388.412 8.99414C388.778 9.65708 389.052 10.0686 389.235 10.5029C391.544 16.2636 393.853 22.0471 396.162 27.8307C396.413 28.4479 396.733 29.0651 397.053 29.6594C397.419 30.3224 397.922 30.8024 398.745 30.8482C399.225 30.871 399.614 31.0768 399.659 31.6711C398.105 31.7626 396.551 32.1054 395.087 31.0768C393.624 32.1054 391.979 31.8311 390.287 31.6711C390.264 31.1453 390.63 30.9625 391.041 30.871C391.293 30.8024 391.567 30.8482 391.841 30.8024C392.984 30.551 393.51 29.728 393.167 28.6079C393.007 28.0593 392.756 27.5563 392.527 27.0306C392.344 26.5734 392.116 26.139 391.887 25.6361C391.498 25.5447 391.087 25.3618 390.698 25.3618C388.344 25.3389 385.989 25.3389 383.68 25.3389C382.88 26.2762 382.149 28.6765 382.263 29.9338C382.629 30.5738 383.223 30.8253 383.978 30.8253C384.503 30.8253 384.983 30.9167 385.052 31.5797C383.246 31.9454 382.56 31.854 381.189 31.0768C379.794 31.854 379.177 31.9454 377.485 31.6025C377.463 31.0768 377.828 30.871 378.263 30.8482C379.337 30.8024 379.886 30.1395 380.251 29.248C382.126 24.516 384.023 19.784 385.898 15.0749C386.515 13.4975 387.109 11.8973 387.727 10.32C387.841 9.93139 388.069 9.5885 388.412 8.99414ZM387.544 14.229C386.286 17.5894 385.121 20.7212 383.909 23.9445C386.401 23.9445 388.732 23.9445 391.247 23.9445C390.013 20.7212 388.824 17.5894 387.544 14.229Z" fill="white"/>
<path d="M338.599 31.6009C335.856 31.921 335.536 31.8753 333.959 31.0752C332.564 32.1724 330.918 31.7152 329.272 31.6924C329.135 31.1666 329.501 30.9837 329.912 30.8466C330.164 30.778 330.438 30.8237 330.712 30.778C331.878 30.5951 332.45 29.6578 332.084 28.5377C332.015 28.3548 331.947 28.1948 331.878 28.0119C331.558 27.2576 331.238 26.4803 330.872 25.6117C330.438 25.5202 329.958 25.3145 329.501 25.3145C327.123 25.3831 324.723 25.063 322.254 25.5431C321.889 26.5946 321.477 27.6005 321.226 28.652C320.906 29.955 321.363 30.5265 322.712 30.778C323.237 30.8694 323.763 30.938 324.037 31.4866C322.414 31.921 321.477 31.8295 320.083 31.0066C318.963 31.8524 317.682 31.8295 316.356 31.5781C316.334 31.0294 316.699 30.8466 317.088 30.8237C318.3 30.7323 318.894 29.955 319.283 28.9492C320.311 26.3889 321.363 23.8514 322.346 21.2911C323.74 17.7479 325.089 14.1817 326.461 10.6385C326.666 10.1127 326.918 9.63262 327.146 9.08398C327.764 9.40402 327.878 9.88408 328.061 10.3413C329.958 15.0733 331.855 19.7824 333.753 24.5144C334.279 25.8174 334.804 27.0975 335.353 28.3777C335.536 28.8349 335.764 29.2692 336.016 29.7036C336.382 30.3208 336.862 30.7323 337.639 30.8237C338.188 30.8923 338.188 30.938 338.599 31.6009ZM326.643 14.5475C326.575 14.5246 326.483 14.5246 326.415 14.5018C325.249 17.6107 324.083 20.7425 322.894 23.92C325.386 23.92 327.741 23.92 330.232 23.92C328.998 20.7425 327.832 17.6564 326.643 14.5475Z" fill="white"/>
<path d="M315.168 24.1734C315.373 24.3106 315.419 24.3334 315.419 24.3563C315.511 24.5163 315.602 24.6992 315.693 24.8592C315.533 26.3908 315.03 27.8081 314.116 29.0425C312.584 31.0542 310.596 32.1515 307.99 32.1515C305.018 32.1515 302.503 31.1685 300.446 29.0425C298.549 27.0766 297.611 24.6992 297.52 21.9788C297.474 20.4015 297.451 18.8013 297.977 17.2697C299.303 13.3835 301.749 10.6632 305.887 9.74883C307.898 9.31449 309.864 9.52023 311.762 10.366C312.082 10.5032 312.379 10.6404 312.699 10.7547C312.79 10.7775 312.927 10.7547 313.133 10.7318C313.362 10.2517 313.636 9.72597 313.887 9.2002C314.688 9.42879 314.802 9.56595 314.848 10.2517C314.916 11.4633 314.962 12.6749 315.076 13.8636C315.168 14.8009 315.282 15.7381 315.442 16.6525C315.533 17.1783 315.556 17.1783 315.122 17.7726C314.459 17.7041 314.322 17.1783 314.208 16.6525C314.07 16.0581 314.025 15.4638 313.842 14.8923C312.996 12.3091 311.121 11.189 308.561 10.9604C306.184 10.7318 304.378 11.8291 302.983 13.6579C301.817 15.2123 301.292 17.0183 301.177 18.9385C301.109 20.1043 301.109 21.2931 301.177 22.4589C301.292 24.7678 302.115 26.8251 303.738 28.4939C307.03 31.9229 312.676 30.9399 314.253 26.3222C314.39 25.9336 314.505 25.5221 314.665 25.1564C314.756 24.8592 314.962 24.5392 315.168 24.1734Z" fill="white"/>
<path d="M344.681 10.6842C346.304 9.88412 348.521 9.67838 349.961 10.1584C349.824 10.89 349.275 10.9357 348.681 10.9814C347.309 11.0957 346.624 11.8043 346.555 13.1531C346.532 13.7246 346.487 14.2961 346.487 14.8676C346.487 19.1195 346.487 23.3714 346.487 27.6005C346.487 27.9434 346.532 28.2863 346.555 28.6292C346.624 29.8408 347.424 30.3437 348.27 30.3665C350.007 30.4123 351.767 30.5037 353.482 30.1151C354.716 29.8408 355.516 29.0178 355.95 27.8291C356.225 27.0519 356.522 26.2746 356.796 25.4745C356.933 25.0631 357.116 24.6973 357.665 24.6744C358.054 24.8573 358.145 25.1316 358.031 25.5888C357.734 26.9376 357.482 28.3092 357.231 29.6807C357.162 30.0465 357.139 30.4351 357.048 30.8009C356.956 31.1438 356.842 31.4867 356.751 31.8067C355.79 31.8981 355.79 31.8982 355.379 31.0752C354.167 31.7839 352.819 31.8067 351.447 31.7381C350.053 31.6696 348.635 31.7153 347.218 31.7381C346.326 31.761 345.458 31.761 344.772 31.0295C343.972 31.6696 343.08 31.8524 342.166 31.8524C341.297 31.8524 340.452 31.7381 339.537 31.6696C339.56 31.0752 340.04 31.0066 340.429 30.8466C340.634 30.778 340.886 30.8237 341.114 30.778C342.349 30.4808 342.898 29.8179 342.943 28.5378C342.966 27.1433 342.966 25.726 342.966 24.3315C342.966 20.7654 342.966 17.1993 342.943 13.6331C342.943 13.1988 342.852 12.7416 342.715 12.3073C342.463 11.4843 341.846 11.1186 341.023 11.0043C340.726 10.9585 340.406 10.9814 340.131 10.89C339.766 10.7757 339.423 10.5699 339.606 9.97556C341.32 10.0213 343.08 9.58694 344.681 10.6842Z" fill="white"/>
<path d="M369.117 10.1807C369.186 10.7065 368.775 10.7979 368.432 10.9122C368.18 11.0037 367.906 10.958 367.654 11.0265C366.237 11.3694 365.757 12.0781 365.757 13.3125C365.757 18.3645 365.78 23.3937 365.757 28.4457C365.757 29.4744 366.329 30.2974 367.563 30.3431C369.232 30.4117 370.901 30.5031 372.569 30.1374C373.804 29.863 374.695 29.1544 375.152 27.9885C375.427 27.3256 375.587 26.6169 375.861 25.954C376.044 25.5197 376.295 25.1082 376.501 24.7424C377.118 24.7424 377.256 25.0396 377.233 25.4054C377.164 26.0454 377.027 26.6627 376.913 27.3027C376.707 28.4915 376.501 29.6802 376.295 30.846C376.227 31.1889 376.067 31.5318 375.975 31.8061C375.175 32.0804 374.855 31.6918 374.627 31.0746C373.392 31.7604 372.089 31.7833 370.718 31.7147C369.232 31.6461 367.746 31.669 366.26 31.7147C365.437 31.7376 364.683 31.6233 364.065 31.0746C362.328 31.9433 362.191 31.8976 358.739 31.6918C358.762 31.0975 359.173 30.9375 359.631 30.846C361.779 30.4574 362.145 30.0688 362.145 27.8742C362.168 23.1651 362.145 18.4788 362.145 13.7697C362.145 13.5411 362.145 13.3125 362.122 13.0839C362.031 11.8266 361.299 11.0723 360.042 10.9808C359.448 10.9351 358.899 10.8894 358.693 10.2036C359.928 9.6778 362.259 9.88354 363.974 10.6608C365.437 9.88354 367.814 9.65494 369.117 10.1807Z" fill="white"/>
<path d="M225.913 23.8846C226.119 23.816 226.347 23.7931 226.553 23.7017C227.582 23.2445 228.633 22.7873 229.639 22.2844C230.371 21.9186 231.125 21.7815 231.948 21.9415C232.634 22.6273 232.725 22.7873 232.291 23.4731C231.834 24.2046 231.285 24.8904 230.691 25.5305C229.525 26.742 228.313 27.8622 227.125 29.0509C226.759 29.4166 226.416 29.851 226.119 30.2853C226.005 30.4453 226.005 30.6739 225.913 31.0168C226.233 30.9483 226.462 30.9483 226.645 30.8568C227.673 30.2625 228.725 29.7138 229.662 29.028C230.348 28.5251 230.965 27.8622 231.491 27.1764C232.931 25.3247 234.668 23.7931 236.749 22.7416C237.503 22.353 238.349 22.1015 239.195 21.8729C239.903 21.69 239.972 21.7586 240.703 22.3072C240.932 22.7873 240.703 23.1988 240.429 23.5645C239.469 24.8904 238.075 25.5305 236.543 25.9419C235.994 26.0791 235.423 26.1477 234.714 26.262C233.845 27.3135 232.908 28.4337 231.994 29.5995C231.72 29.9653 231.514 30.3768 231.742 30.9254C232.702 31.2226 233.594 30.9254 234.371 30.3768C235.4 29.6681 236.383 28.868 237.389 28.1365C238.075 27.6336 238.669 26.9706 239.698 26.582C239.538 26.9249 239.515 27.1764 239.378 27.2678C237.823 28.4794 236.337 29.7824 234.691 30.8568C233.914 31.3826 232.862 31.5426 231.902 31.7483C231.239 31.9084 230.554 31.3826 230.325 30.7197C230.211 30.3996 230.165 30.0567 230.074 29.6224C229.685 29.851 229.365 30.0796 229.022 30.2853C228.176 30.7197 227.353 31.1997 226.485 31.5655C225.936 31.7941 225.319 31.9312 224.793 31.4283C224.313 30.8797 224.381 30.2853 224.702 29.7367C225.204 28.8909 225.685 28.0222 226.37 27.3135C227.628 25.9877 229.022 24.799 230.325 23.5417C230.599 23.2902 230.828 23.0159 231.079 22.7416C230.577 22.3301 230.256 22.673 229.936 22.7873C226.096 24.3646 222.873 26.742 220.495 30.1939C220.107 30.7654 219.81 31.474 219.009 31.7483C218.438 31.0397 218.781 30.3539 219.147 29.7824C219.878 28.6394 220.632 27.4964 221.501 26.4449C223.353 24.1817 225.342 22.0329 227.559 20.1127C229.182 18.6954 230.851 17.3009 232.52 15.9293C233.617 15.0378 234.897 14.4434 236.314 14.2377C236.497 14.2148 236.703 14.2148 236.886 14.2148C236.954 14.2148 237 14.2834 237.137 14.3291C236.406 14.8549 235.674 15.335 234.966 15.8608C231.788 18.2153 228.908 20.9128 226.096 23.7017C226.05 23.7474 226.027 23.8388 226.005 23.9074C225.982 23.9531 225.936 23.9989 225.913 24.0674C225.867 23.9989 225.89 23.9531 225.913 23.8846ZM239.789 22.6273C238.852 22.6501 238.28 23.3359 237.617 23.7931C236.932 24.2732 236.291 24.8218 235.629 25.3247C235.674 25.3933 235.743 25.4619 235.789 25.5305C237.48 25.119 238.852 24.2046 239.789 22.6273Z" fill="white"/>
</svg>
