<svg width="507" height="40" viewBox="0 0 507 40" fill="none" xmlns="http://www.w3.org/2000/svg">
<path opacity="0.8" fill-rule="evenodd" clip-rule="evenodd" d="M91.1835 28.0322C91.1835 29.9133 92.0663 31.2106 92.5713 31.307C92.7294 31.3388 92.8244 31.632 92.5713 31.599H83.9295C83.7085 31.599 83.7406 31.307 83.9295 31.307C84.4345 31.2106 85.3174 29.9133 85.3174 28.0322V11.172C85.3174 9.29088 84.4345 7.99364 83.9295 7.89591C83.7406 7.89591 83.7085 7.60397 83.9295 7.60397H92.5713C92.8244 7.57224 92.7294 7.86417 92.5713 7.89591C92.0676 7.99364 91.1835 9.29088 91.1835 11.172V28.0322ZM190.284 24.3347V11.172C190.284 9.29088 189.402 7.99364 188.898 7.89591C188.708 7.89591 188.676 7.60397 188.898 7.60397H194.384C194.637 7.57224 194.543 7.86417 194.384 7.89591C193.88 7.99364 192.997 9.29088 192.997 11.172V31.599H188.645L176.219 13.8299V28.0309C176.219 29.9121 177.101 31.2093 177.605 31.3058C177.764 31.3375 177.858 31.6307 177.605 31.5977H172.119C171.897 31.5977 171.929 31.3058 172.119 31.3058C172.623 31.2093 173.506 29.9121 173.506 28.0309V11.172C173.506 9.29088 172.623 7.99364 172.119 7.89591C171.929 7.89591 171.897 7.60397 172.119 7.60397H178.553L190.284 24.3347ZM196.594 7.60397L196.437 12.5974C196.437 12.9211 196.72 12.8894 196.781 12.6952C196.847 12.501 198.39 9.38862 203.785 9.61455V28.0309C203.785 29.9121 202.902 31.2093 202.398 31.3058C202.208 31.3058 202.176 31.5977 202.398 31.5977H211.039C211.292 31.6294 211.196 31.3375 211.039 31.3058C210.535 31.2093 209.652 29.9121 209.652 28.0309V9.61455C215.044 9.38735 216.59 12.4997 216.653 12.6952C216.716 12.8906 217 12.9224 217 12.5974L216.843 7.60397H196.594ZM81.6577 31.599L82.6035 26.5421C82.6664 26.0534 82.2886 26.2171 82.2565 26.443C82.2244 26.6715 80.5217 29.3612 77.714 29.3612H74.4025V11.172C74.4025 9.29088 75.2853 7.99364 75.7903 7.89591C75.9483 7.86417 76.0422 7.57224 75.7903 7.60397H67.1473C66.9263 7.60397 66.9584 7.89591 67.1473 7.89591C67.6523 7.99364 68.5363 9.29088 68.5363 11.172V28.0322C68.5363 29.9133 67.6523 31.2106 67.1473 31.307C66.9584 31.307 66.9263 31.599 67.1473 31.599H81.6577ZM0.153957 7.60397C-0.0670571 7.60397 -0.0349545 7.89591 0.153957 7.89591C0.658957 7.99364 1.54178 9.29088 1.54178 11.172V28.0322C1.54178 29.9133 0.658957 31.2106 0.153957 31.307C-0.0349545 31.307 -0.0670571 31.599 0.153957 31.599H8.79698C9.0501 31.6307 8.95502 31.3388 8.79698 31.307C8.29322 31.2106 7.40916 29.9133 7.40916 28.0322V9.29087H10.1218C11.0047 9.29087 14.3483 10.1337 14.3483 14.4138C14.3483 18.6939 10.1218 20.0572 9.49089 19.9251C8.85995 19.7957 8.79698 20.3148 9.30198 20.6385C15.1064 22.9093 19.2699 18.369 19.2057 14.2183C19.1427 10.069 16.7449 7.60397 12.5505 7.60397H0.153957ZM101.749 21.6108L100.298 25.8604C100.015 26.6715 99.7611 30.8539 100.677 31.307C100.898 31.3718 100.803 31.599 100.646 31.599H94.3999C94.1172 31.599 94.1789 31.274 94.3999 31.307C94.6222 31.3388 95.9767 29.4285 96.42 28.3242L103.39 10.6198C103.705 9.80876 103.485 8.02538 103.075 7.92764C102.886 7.86291 102.854 7.60397 103.138 7.60397H109.352L117.742 28.2594C118.026 28.9385 119.257 31.0456 119.824 31.2423C120.046 31.307 120.046 31.599 119.824 31.599H113.265L109.197 21.6108H101.749ZM102.569 19.4073H108.341L105.312 11.9501L102.569 19.4073ZM22.3283 21.6108L20.8775 25.8604C20.5947 26.6715 20.3416 30.8539 21.2565 31.307C21.4775 31.3718 21.3837 31.599 21.2256 31.599H14.9804C14.6965 31.599 14.7594 31.274 14.9804 31.307C15.2015 31.34 16.5572 29.4285 16.9992 28.3242L23.9704 10.6198C24.2853 9.80876 24.0643 8.02538 23.6543 7.92764C23.4654 7.86291 23.4333 7.60397 23.7173 7.60397H29.9316L38.3215 28.2594C38.6055 28.9385 39.8353 31.0456 40.4033 31.2423C40.6243 31.307 40.6243 31.599 40.4033 31.599H33.8432L29.7748 21.6108H22.3283ZM23.1481 19.4073H28.9204L25.8916 11.9501L23.1481 19.4073ZM49.6748 20.5103H50.2415L56.9287 29.9781C57.4337 30.6927 58.6944 31.6536 59.8933 31.5875L64.8136 31.6002C65.1285 31.6002 65.0655 31.2753 64.8136 31.2106C64.3086 31.0151 63.3629 29.7826 62.985 29.1352L55.857 19.4073C59.6414 17.9158 61.3453 15.7758 61.3453 12.4032C61.3453 9.42035 57.8758 7.60397 54.9742 7.60397H42.7986C42.5789 7.60397 42.6097 7.89591 42.7986 7.89591C43.3036 7.99364 44.1877 9.29088 44.1877 11.172V28.0322C44.1877 29.9133 43.3049 31.2106 42.7986 31.307C42.6097 31.307 42.5789 31.599 42.7986 31.599H51.0626C51.3145 31.6307 51.2206 31.3388 51.0626 31.307C50.5576 31.2106 49.6748 29.9133 49.6748 28.0322V20.5103ZM49.6748 9.29087H52.1356C54.2803 9.29087 55.7311 11.106 55.7311 13.8299C55.7311 16.5539 54.6581 19.0176 51.9467 19.0176C51.5676 19.0823 50.4959 18.9529 49.676 18.7574V9.29087H49.6748ZM152.814 7.60397C152.592 7.60397 152.624 7.89591 152.814 7.89591C153.318 7.99364 154.201 9.29088 154.201 11.172V28.0322C154.201 29.9133 153.318 31.2106 152.814 31.307C152.624 31.307 152.592 31.599 152.814 31.599H169.531L170.73 26.0204C170.793 25.5342 170.414 25.6954 170.383 25.9239C170.352 26.1498 168.397 29.3599 165.589 29.3599H159.691V19.7309H163.571C165.558 19.7309 166.851 21.3849 166.883 21.871C166.883 22.1629 167.262 22.1629 167.262 21.871V15.97C167.262 15.678 166.883 15.678 166.883 15.97C166.852 16.4561 165.559 18.11 163.571 18.11H159.691V9.84176H164.96C167.767 9.84176 168.397 11.4957 168.429 11.7229C168.46 11.9488 168.839 12.1113 168.776 11.6251L168.902 7.60397H152.814ZM124.49 11.172C124.49 9.29088 123.607 7.99364 123.101 7.89591C122.913 7.89591 122.881 7.60397 123.101 7.60397H131.018L136.698 22.5526L142.28 7.60397H149.975C150.228 7.57224 150.131 7.86417 149.975 7.89591C149.471 7.99364 148.586 9.29088 148.586 11.172L149.408 27.9675C149.408 29.8486 150.604 31.2106 151.111 31.307C151.267 31.3388 151.361 31.632 151.111 31.599H142.027C141.804 31.599 141.837 31.307 142.027 31.307C142.53 31.2106 143.666 29.9133 143.666 28.0322L142.94 12.7929L135.246 31.599H134.3L127.172 13.4733L126.509 27.1234C126.509 29.0045 127.392 30.9491 128.591 31.3058C128.75 31.3375 128.844 31.6307 128.591 31.5977H121.653C121.43 31.5977 121.462 31.3058 121.653 31.3058C122.535 31.0798 123.796 29.0692 123.796 27.1881L124.49 11.172Z" fill="white"/>
<path d="M280.128 29.9595C277.802 29.9595 275.779 29.9595 273.513 29.9595C274.752 28.9023 274.812 27.6035 274.812 26.2745C274.782 19.992 274.812 13.7396 274.812 7.45706C274.812 6.91338 274.812 6.3697 274.812 5.82602C271.188 13.9813 267.926 22.2271 264.422 30.6844C260.797 22.1969 257.324 14.0115 253.88 5.82602C253.82 5.82602 253.729 5.85622 253.669 5.85622C253.669 13.8302 253.669 21.8042 253.669 29.8991C252.974 29.8991 252.4 29.8991 251.827 29.8991C251.796 29.8689 251.736 29.8387 251.706 29.8085C251.676 29.7783 251.645 29.7178 251.645 29.6876C251.615 20.1128 251.585 10.5379 251.555 0.963077C251.555 0.72144 251.585 0.479803 251.615 0.147553C253.095 -0.0940838 254.515 0.0267346 256.055 0.0569391C259.106 7.7289 262.156 15.4009 265.328 23.2843C266.355 21.2606 266.989 19.2671 267.775 17.3642C268.56 15.4613 269.255 13.5282 270.01 11.6253C270.765 9.662 271.55 7.7289 272.335 5.76561C273.091 3.86272 273.846 1.95983 274.601 0.0569391C276.443 0.0569391 278.195 0.0569391 280.098 0.0569391C278.829 1.1443 278.678 2.4431 278.709 3.89292C278.739 11.3535 278.739 18.8442 278.709 26.3047C278.678 27.6941 278.86 28.9023 280.128 29.9595Z" fill="white"/>
<path d="M367.691 29.9882C365.365 29.9882 363.341 29.9882 361.167 29.9882C361.408 29.6559 361.62 29.4445 361.741 29.1424C361.952 28.6592 362.254 28.1155 362.254 27.6322C362.284 23.313 362.254 19.0239 362.254 14.7047C362.254 14.6745 362.194 14.614 362.103 14.5234C356.998 14.5234 351.864 14.5234 346.578 14.5234C346.336 15.792 346.487 17.0908 346.457 18.3594C346.427 19.5978 346.457 20.8664 346.457 22.135C346.457 23.4338 346.457 24.7326 346.457 26.0314C346.457 27.2698 346.457 28.5384 346.457 29.8372C345.128 30.1392 343.92 30.0486 342.621 29.9278C342.621 19.9905 342.621 10.1438 342.621 0.176248C343.799 -0.0955931 344.977 0.0554298 346.336 0.0856344C346.608 1.41464 346.427 2.77384 346.457 4.10284C346.487 5.49226 346.457 6.91187 346.457 8.30128C346.457 9.66049 346.457 10.9895 346.457 12.3185C347.726 12.6205 360.865 12.6507 362.284 12.3487C362.284 11.4728 362.284 10.5968 362.284 9.69069C362.284 7.57637 362.254 5.49226 362.284 3.37793C362.314 2.16975 362.133 1.08239 360.955 0.146044C363.251 0.146044 365.335 0.146044 367.51 0.146044C366.301 1.2032 366.181 2.53221 366.181 3.95182C366.211 11.3822 366.211 18.7823 366.181 26.2126C366.211 27.5718 366.332 28.8706 367.691 29.9882Z" fill="white"/>
<path d="M417.74 29.9298C416.683 29.9298 415.746 29.9298 414.629 29.9298C414.417 26.4261 414.568 22.9525 414.538 19.479C414.508 15.9753 414.538 12.4715 414.538 8.847C415.625 8.847 416.592 8.847 417.74 8.847C417.74 9.66252 417.74 10.478 417.74 11.5654C418.344 11.1123 418.736 10.8405 419.129 10.5385C420.488 9.57191 421.938 8.847 423.63 8.57516C427.043 8.09188 429.973 10.176 430.456 13.5891C430.577 14.4651 430.637 15.3712 430.637 16.2773C430.667 19.9321 430.637 23.5868 430.637 27.2718C430.637 28.1779 430.516 29.0841 431.543 29.9298C429.731 29.9298 428.251 29.9298 426.65 29.9298C427.466 28.8122 427.375 27.5134 427.375 26.2448C427.375 22.8317 427.375 19.4186 427.375 16.0055C427.375 15.5222 427.315 15.0087 427.254 14.5255C426.952 11.656 424.203 10.2666 421.576 10.9915C420.126 11.3842 418.948 12.1695 417.74 13.2569C417.74 18.7541 417.74 24.3117 417.74 29.9298Z" fill="white"/>
<path d="M396.083 8.81636C396.113 9.7225 396.174 10.5078 396.204 11.4744C396.808 11.0515 397.291 10.7193 397.775 10.387C398.983 9.54127 400.251 8.87677 401.731 8.63514C406.504 7.81961 409.011 11.2931 409.041 14.5552C409.071 18.7537 409.071 22.9823 409.041 27.1808C409.041 28.1473 409.101 29.0836 409.887 29.9294C408.256 29.9294 406.776 29.9294 405.114 29.9294C405.93 28.842 405.749 27.664 405.749 26.486C405.749 22.6803 405.779 18.8745 405.749 15.0687C405.718 12.8034 404.329 11.1421 402.245 10.8401C401.127 10.689 400.01 10.8099 399.013 11.3535C398.046 11.867 397.14 12.5013 396.144 13.1054C396.144 18.7537 396.144 24.2811 396.144 29.9294C395.056 29.9294 394.12 29.9294 393.123 29.9294C393.123 22.8917 393.123 15.9144 393.123 8.84657C394.059 8.81636 394.996 8.81636 396.083 8.81636Z" fill="white"/>
<path d="M283.48 19.3261C283.48 16.6983 284.266 14.3121 285.836 12.1978C289.491 7.27446 296.166 7.33487 299.761 12.2884C302.993 16.7587 302.781 22.8298 299.277 27.0585C295.653 31.4381 289.34 31.2871 285.897 26.7564C284.266 24.5817 283.48 22.1955 283.48 19.3261ZM287.256 19.7792C287.226 21.4706 287.558 23.736 288.343 25.367C288.736 26.2127 289.31 26.9981 289.974 27.6626C291.334 29.0218 294.445 29.4446 296.136 27.2699C296.801 26.4242 297.344 25.4274 297.646 24.4005C298.643 21.229 298.583 17.9971 297.616 14.7954C297.224 13.4362 296.589 12.1978 295.532 11.2011C293.961 9.75124 291.908 9.63042 290.186 10.8688C289.25 11.5333 288.706 12.4697 288.253 13.4966C287.437 15.3089 287.377 17.242 287.256 19.7792Z" fill="white"/>
<path d="M323.563 17.757C318.82 17.757 314.229 17.757 309.668 17.757C308.974 20.9587 310.544 24.8853 313.142 26.5466C315.377 27.9964 318.216 27.936 320.512 26.3955C320.874 26.1539 321.237 25.8519 321.75 25.4592C321.992 25.731 322.234 25.9727 322.445 26.1841C320.965 28.4495 319.153 29.8389 316.555 30.1711C313.474 30.5638 310.877 29.5972 308.823 27.3621C304.866 23.0428 304.866 15.9146 308.702 11.5047C311.904 7.84993 317.22 7.6385 320.361 10.2663C322.113 11.7161 322.928 13.6794 323.351 15.8541C323.442 16.3978 323.442 16.9415 323.563 17.757ZM320.119 15.8541C319.727 14.646 319.485 13.619 319.032 12.7129C318.458 11.5047 317.522 10.659 316.193 10.1757C313.595 9.23934 309.578 11.8973 309.85 15.8843C313.172 15.8541 316.464 15.8541 320.119 15.8541Z" fill="white"/>
<path d="M386.842 25.4905C387.144 25.8228 387.325 26.0342 387.506 26.2456C384.395 31.7731 376.3 31.5314 372.797 25.8228C370.169 21.5337 370.441 15.8251 373.582 11.8683C375.666 9.24046 379.019 7.85105 382.734 8.81759C384.395 9.24046 385.724 10.1768 386.751 11.5662C388.05 13.3785 388.564 15.4022 388.715 17.7279C384.033 17.7279 379.412 17.7279 374.851 17.7279C373.793 22.1076 376.784 26.8195 380.952 27.5142C382.674 27.7861 384.244 27.333 385.664 26.3967C386.026 26.155 386.359 25.853 386.842 25.4905ZM374.911 15.7646C376.814 16.0667 384.093 15.9761 385.09 15.674C384.909 14.0128 384.365 12.4723 383.127 11.2642C382.009 10.1768 380.71 9.75393 379.14 10.1768C376.814 10.7809 375.122 12.8952 374.911 15.7646Z" fill="white"/>
<path d="M451.267 25.4595C451.448 25.7012 451.63 25.9126 451.901 26.2449C450.663 28.2686 449.002 29.6882 446.616 30.0808C442.568 30.7756 439.336 29.2955 437.222 25.8522C434.564 21.5027 434.624 17.0023 437.343 12.6528C438.853 10.2062 441.118 8.75641 444.018 8.54497C446.948 8.33354 449.485 9.20948 451.207 11.7467C452.385 13.4985 452.928 15.4316 453.049 17.697C451.841 17.7272 450.723 17.7272 449.576 17.7574C448.367 17.7574 447.159 17.7574 445.951 17.7574C444.803 17.7574 443.625 17.7574 442.478 17.7574C441.33 17.7574 440.182 17.7574 438.883 17.7574C438.853 21.0497 439.457 23.9493 442.024 26.0938C444.229 27.9665 447.431 28.0571 449.878 26.4563C450.331 26.1845 450.723 25.8824 451.267 25.4595ZM439.215 15.8545C442.659 15.8545 445.981 15.8545 449.334 15.8545C449.364 13.9818 448.488 11.9279 447.159 10.9311C446.162 10.176 445.075 9.84377 443.776 10.1156C441.239 10.6593 439.487 12.7434 439.215 15.8545Z" fill="white"/>
<path d="M494.973 27.8442C492.648 21.4408 490.231 15.2187 487.996 8.90591C488.298 8.81529 488.449 8.75488 488.6 8.75488C489.446 8.75488 490.292 8.75488 491.288 8.75488C493.101 13.5876 494.913 18.4204 496.816 23.5249C497.178 22.8 497.42 22.3772 497.631 21.9241C499.081 18.6922 500.501 15.4301 501.92 12.1982C502.615 10.6276 502.524 10.0839 501.226 8.81529C502.857 8.81529 504.427 8.81529 506.119 8.81529C503.884 11.0504 503.189 14.0407 502.011 16.7289C498.84 23.9176 495.789 31.1365 492.678 38.3554C492.527 38.7178 492.346 39.0803 492.164 39.4427C491.409 39.4427 490.745 39.4427 489.839 39.4427C491.47 35.4557 493.312 31.7104 494.973 27.8442Z" fill="white"/>
<path d="M456.916 28.3898C456.916 26.94 456.916 25.5807 456.916 24.2215C456.916 24.0403 456.976 23.8289 457.037 23.406C457.399 24.0705 457.641 24.5236 457.883 24.9767C458.547 26.1546 459.302 27.3024 460.51 27.9971C461.507 28.6012 462.564 28.7824 463.682 28.42C466.642 27.4836 466.763 24.0101 465.162 22.6207C464.346 21.8958 463.41 21.2917 462.504 20.6574C461.416 19.9325 460.269 19.2982 459.242 18.5129C457.55 17.1839 456.705 15.4622 456.976 13.2573C457.158 11.6564 457.913 10.4483 459.242 9.54211C461.658 7.91107 465.887 8.33393 467.82 10.3274C467.82 11.5054 467.82 12.7438 467.82 14.1634C467.367 13.3479 467.065 12.6532 466.672 12.0491C465.555 10.3274 463.682 9.63273 461.839 10.2066C459.876 10.8107 459.151 12.8042 460.269 14.5259C460.571 14.9789 460.963 15.4018 461.386 15.7038C462.413 16.4288 463.501 17.0329 464.558 17.7276C465.524 18.3619 466.491 18.9961 467.367 19.7513C469.119 21.2313 469.813 23.1644 469.27 25.3995C468.696 27.8159 467.095 29.3563 464.739 29.9302C461.96 30.6551 459.363 30.1114 456.916 28.3898Z" fill="white"/>
<path d="M484.432 10.3566C484.432 11.595 484.432 12.7428 484.432 14.0718C483.949 13.2261 483.617 12.4709 483.134 11.8367C481.956 10.2056 480.113 9.63172 478.361 10.2358C476.458 10.9003 475.733 12.9844 476.942 14.6155C477.455 15.28 478.15 15.8237 478.814 16.3069C479.72 16.9412 480.717 17.4245 481.623 18.0286C482.56 18.6931 483.496 19.3576 484.342 20.1429C487.241 22.8311 486.184 27.8149 482.62 29.4761C480.355 30.5333 478.059 30.4427 475.764 29.597C475.008 29.3251 474.344 28.9022 473.619 28.5398C473.619 26.8483 473.619 25.2173 473.619 23.556C474.344 24.6736 474.978 25.7308 475.703 26.7577C476.277 27.543 477.032 28.0867 477.969 28.419C479.509 28.9325 481.2 28.419 482.137 27.1202C483.073 25.8516 483.073 24.0393 481.925 22.8311C481.2 22.0458 480.234 21.4417 479.328 20.8074C478.15 19.9919 476.821 19.2972 475.703 18.4213C473.589 16.7298 473.045 14.4342 473.891 11.9575C474.193 11.0211 474.827 10.2962 475.613 9.72233C478.21 7.81944 482.59 8.30271 484.432 10.3566Z" fill="white"/>
<path d="M328.396 10.6285C327.641 10.5681 327.127 10.5077 326.402 10.4473C328.154 8.60481 329.815 6.85295 331.688 4.88965C331.688 6.27906 331.688 7.39663 331.688 8.60481C333.591 8.90686 335.373 8.57461 337.155 8.78604C337.216 8.99747 337.306 9.11829 337.306 9.26931C337.336 9.60156 337.306 9.96402 337.306 10.4775C335.464 10.4775 333.682 10.4775 331.779 10.4775C331.749 11.1722 331.718 11.7159 331.718 12.2294C331.718 16.1862 331.718 20.143 331.688 24.0998C331.688 27.09 333.47 28.6003 336.43 28.0264C337.095 27.9055 337.095 27.9055 337.759 28.4492C336.128 30.1105 334.165 30.624 331.99 29.9293C329.876 29.2345 328.789 27.6035 328.486 25.459C328.366 24.6737 328.396 23.8581 328.396 23.0728C328.396 19.4785 328.396 15.8539 328.396 12.2596C328.396 11.7763 328.396 11.293 328.396 10.6285Z" fill="white"/>
<path d="M319.364 4.70698C318.67 5.85475 318.217 6.12659 317.492 5.88496C316.888 5.67353 316.495 5.06943 316.525 4.52575C316.585 3.95186 317.099 3.40818 317.673 3.31757C318.458 3.16654 318.881 3.529 319.364 4.70698Z" fill="white"/>
<path d="M314.077 4.88926C313.624 5.31212 313.171 5.70478 312.808 6.03703C311.449 5.55376 311.177 5.31212 311.207 4.55701C311.237 3.95292 311.691 3.43944 312.295 3.31862C313.02 3.1676 313.473 3.49985 314.077 4.88926Z" fill="white"/>
</svg>
