<svg width="622" height="57" viewBox="0 0 622 57" fill="none" xmlns="http://www.w3.org/2000/svg">
<g filter="url(#filter0_d)">
<g opacity="0.8">
<path fill-rule="evenodd" clip-rule="evenodd" d="M457.668 5.6295C459.996 6.31921 462.194 8.32144 462.194 11.1909C462.194 16.7982 462.29 24.0363 462.118 29.985C462.118 31.3576 461.529 32.0442 460.45 32.804L456.138 35.3768C454.864 35.8679 453.785 35.7688 453.099 34.8868L450.813 32.1854L450.845 37.7289C450.845 39.2975 449.503 40.0072 449.145 40.2902C446.642 42.2661 443.979 44.0575 441.416 45.9802L441.502 10.673L441.201 10.3711L435.207 9.2509C438.268 6.31921 441.027 2.18092 445.942 3.64676L457.668 5.6295ZM450.942 12.1388V27.1419C451.029 27.7025 451.675 27.918 452.15 27.9612C452.71 27.8748 453.35 27.311 453.393 26.7509L453.314 13.2601C453.012 12.1388 451.804 12.2685 450.942 12.1388ZM481.767 9.6387C482.716 9.6387 483.62 10.6193 483.62 11.4923L483.836 27.6582C484.051 28.1324 484.656 28.4354 485.173 28.1767L485.194 17.4632C485.194 14.9304 487.889 9.53332 495.92 9.53332L503.354 9.54175C505.024 9.54175 505.865 11.1799 505.865 12.1826L505.887 29.0498C505.887 30.8818 504.539 32.2834 504.539 32.2834L496.241 43.1149C495.756 43.6529 494.677 43.8146 493.923 43.4379L485.475 37.7047C485.776 36.3247 487.802 36.2383 489.225 36.0223C492.113 35.8937 494.57 36.8427 496.769 38.3944V30.7638C495.044 34.342 490.819 33.9542 487.328 33.7382C486.863 33.6127 486.439 33.3675 486.099 33.0271C485.758 32.6867 485.513 32.2629 485.388 31.7981L485.258 28.996C484.568 29.2121 484.525 30.2896 484.137 30.9804C483.577 32.7908 481.637 33.48 479.999 33.7382C477.973 33.8678 475.257 34.2988 474.308 32.1864C474.222 31.5399 474.147 31.2601 474.093 30.2464C473.36 31.9277 472.11 33.8246 469.955 33.7382C467.756 33.911 465.729 32.962 464.695 30.9804C463.78 28.7927 462.866 26.3852 463.068 23.9283C463.085 23.7207 463.316 23.0689 463.977 22.7175L467.67 21.1499L464.566 15.0284C465.17 12.5709 467.886 10.7605 470.084 9.94114C473.705 9.2509 477.93 9.59549 481.767 9.6387ZM469.049 15.7602C468.64 15.7602 468.532 16.0079 468.532 16.2777L469.567 20.2869L474.223 18.5628L474.229 16.5432C474.176 16.2176 474.04 15.7608 473.501 15.7608H469.049V15.7602ZM474.093 21.9687L470.385 23.305C470.777 24.3746 470.963 25.5612 471.454 26.5976C471.614 27.1092 471.829 27.2994 472.364 27.2994L473.608 27.2325C474.039 27.2325 474.093 26.8937 474.093 26.3547V21.9687ZM494.485 15.9757V27.3784C494.485 28.4022 496.726 28.457 496.726 27.3247L496.769 15.9752C496.425 14.9846 494.829 14.9846 494.485 15.9757ZM516.719 9.64976L525.125 9.70351C526.58 9.70351 527.809 10.9433 527.809 12.0746V31.4208C527.809 32.7349 526.72 33.7371 525.665 33.7371H509.768C508.733 33.7371 507.332 32.8429 507.332 31.5821V18.5623C507.332 14.8229 509.66 9.64976 516.719 9.64976ZM516.525 15.9757V27.3784C516.525 28.4022 518.766 28.457 518.766 27.3247L518.81 15.9752C518.465 14.9846 516.87 14.9846 516.525 15.9757Z" fill="white"/>
</g>
<path opacity="0.8" d="M216.941 11C213.431 11.1137 210.108 12.5626 207.687 15.0342C205.267 17.5059 203.943 20.8024 204.002 24.2131C204.06 27.6239 205.496 30.8757 208 33.2676C210.504 35.6596 213.875 37 217.387 37C220.899 37 224.27 35.6596 226.774 33.2676C229.278 30.8757 230.714 27.6239 230.772 24.2131C230.831 20.8024 229.507 17.5059 227.087 15.0342C224.667 12.5626 221.343 11.1137 217.833 11H216.941ZM235.683 11C232.173 11.1137 228.85 12.5626 226.429 15.0342C224.009 17.5059 222.685 20.8024 222.744 24.2131C222.802 27.6239 224.238 30.8757 226.742 33.2676C229.246 35.6596 232.617 37 236.129 37C239.641 37 243.012 35.6596 245.516 33.2676C248.02 30.8757 249.456 27.6239 249.514 24.2131C249.573 20.8024 248.249 17.5059 245.829 15.0342C243.408 12.5626 240.085 11.1137 236.575 11H235.683ZM254.425 11C250.915 11.1137 247.592 12.5626 245.171 15.0342C242.751 17.5059 241.427 20.8024 241.486 24.2131C241.544 27.6239 242.98 30.8757 245.484 33.2676C247.988 35.6596 251.359 37 254.871 37C258.383 37 261.754 35.6596 264.258 33.2676C266.762 30.8757 268.198 27.6239 268.256 24.2131C268.315 20.8024 266.991 17.5059 264.571 15.0342C262.15 12.5626 258.827 11.1137 255.317 11H254.425ZM273.167 11C269.657 11.1137 266.333 12.5626 263.913 15.0342C261.493 17.5059 260.169 20.8024 260.228 24.2131C260.286 27.6239 261.722 30.8757 264.226 33.2676C266.73 35.6596 270.101 37 273.613 37C277.125 37 280.496 35.6596 283 33.2676C285.504 30.8757 286.94 27.6239 286.998 24.2131C287.057 20.8024 285.733 17.5059 283.313 15.0342C280.892 12.5626 277.569 11.1137 274.059 11H273.167Z" stroke="white" stroke-width="3"/>
<g opacity="0.8">
<path fill-rule="evenodd" clip-rule="evenodd" d="M560.318 29.4403C560.318 24.9533 560.318 16.4119 560.318 16.4119C560.318 15.2766 560.642 14.9522 561.724 15.1144C561.724 14.1954 561.291 12.952 560.48 11.9789C560.48 11.9789 560.48 11.9789 560.48 12.033C560.48 12.7358 560.048 13.3304 559.507 13.3304C558.967 13.3304 558.534 12.6817 558.534 11.9789C558.534 11.4383 558.75 11.0059 559.129 10.7896C558.48 10.4653 557.723 10.249 556.858 10.249C555.291 10.249 553.777 10.8437 552.479 11.8168C552.858 11.9789 553.182 12.4655 553.182 13.0601C553.182 13.7629 552.75 14.3576 552.209 14.3576C551.669 14.3576 551.236 13.7629 551.236 13.0601C551.236 13.0061 551.236 12.952 551.236 12.952C550.317 13.817 549.506 14.8441 548.857 15.9253L549.614 17.2227C550.641 16.2497 551.236 17.0065 551.236 18.0336C551.236 18.0336 551.236 29.3862 551.236 36.414C551.236 38.3602 550.155 37.9817 549.722 36.6843C548.641 38.0899 549.398 40.6847 551.236 39.9279C551.236 40.5766 551.236 41.1172 551.236 41.4416C551.236 42.4687 550.209 42.7931 549.614 42.6309C551.29 45.8745 554.263 43.5499 554.372 41.4416C556.264 42.3065 557.453 40.6847 556.966 38.5223C556.047 40.036 554.372 39.4414 554.372 38.0899V33.9813C554.534 34.63 555.507 35.9815 557.183 35.9815C558.804 35.9815 560.372 33.657 560.426 32.0892C561.345 31.7649 561.67 32.4676 561.507 33.7651C562.805 33.0082 563.021 28.9537 560.318 29.4403ZM557.075 30.7377C557.075 31.7108 556.48 32.4676 555.723 32.4136C554.966 32.3595 554.372 31.5486 554.372 30.5755V16.9524C554.372 15.9794 554.966 15.1685 555.723 15.1144C556.48 15.0604 557.075 15.8172 557.075 16.7903V30.7377Z" fill="white"/>
<path fill-rule="evenodd" clip-rule="evenodd" d="M571.183 19.4379V14.4103C571.183 12.2479 568.426 10.8424 566.426 11.6533C563.02 13.0048 562.371 15.3293 562.371 18.7351V23.5464C562.371 27.3306 564.479 29.7633 567.561 28.5199C570.264 27.4387 571.183 25.3845 571.183 23.2761V21.1678L568.21 21.9787V24.5195C568.21 25.6548 567.561 26.2494 567.02 26.4116C566.48 26.5738 565.561 26.5197 565.561 24.952V21.0056L571.183 19.4379ZM565.615 16.7889C565.615 14.8968 565.885 14.1941 566.912 13.7616C567.669 13.4372 568.047 14.1941 568.047 15.3834V18.0323L565.615 18.7351V16.7889Z" fill="white"/>
<path fill-rule="evenodd" clip-rule="evenodd" d="M606.485 21.6552V16.6277C606.485 14.4653 604.539 11.6001 602.485 11.3298C599.079 10.8432 597.619 12.7894 597.619 16.2492V23.0608C597.619 25.7097 599.998 27.9802 602.322 28.3046C605.458 28.7371 606.485 26.1963 606.485 24.5204V23.4933L603.512 22.6824V24.7907C603.512 25.926 602.863 26.1422 602.322 26.0341C601.782 25.926 600.863 25.3854 600.863 23.7636V20.1956L606.485 21.6552ZM600.863 15.9789C600.863 14.0868 601.133 13.5462 602.16 13.6544C602.917 13.7625 603.295 14.6815 603.295 15.8708V18.5198L600.863 17.9251V15.9789Z" fill="white"/>
<path fill-rule="evenodd" clip-rule="evenodd" d="M588.809 9.59863C587.619 9.59863 586.862 10.5717 586.051 11.6529V9.70675H581.673V11.2204C581.835 11.2204 582.754 11.2204 582.754 12.5179V22.2486C582.754 23.5461 581.835 23.7623 581.402 23.7623V25.0598H587.403V23.7623C586.971 23.7623 586.051 23.5461 586.051 22.2486V12.9503C587.349 12.3016 588.809 13.1125 588.809 14.6262V16.6805L590.43 15.9777V9.59863C590.43 9.59863 590.106 9.59863 588.809 9.59863Z" fill="white"/>
<path fill-rule="evenodd" clip-rule="evenodd" d="M614.704 15.9786C613.514 15.9786 612.758 16.4651 611.947 17.222V15.2758L607.46 13.5459V15.0596C607.784 15.1677 608.703 15.5461 608.703 16.8436V27.169C608.703 28.4664 607.784 28.3042 607.189 27.9799V29.3854L613.352 32.3047V30.7369C612.92 30.5207 612.001 29.926 612.001 28.6286V18.5735C613.298 18.4113 614.758 19.8168 614.758 21.3305V23.7632L616.163 23.7092V16.2489C616.109 16.2489 615.515 15.9786 614.704 15.9786Z" fill="white"/>
<path fill-rule="evenodd" clip-rule="evenodd" d="M579.293 9.7078C578.104 9.92404 577.347 11.0052 576.536 12.1946V10.0862L572.157 10.8431V12.573C572.319 12.5189 573.238 12.4108 573.238 13.7082V23.439C573.238 24.7364 572.319 25.1149 571.887 25.223V26.5204L577.887 25.4933V24.1418C577.455 24.1958 576.536 24.1418 576.536 22.8443V13.5461C577.833 12.6811 579.293 13.2217 579.293 14.7894V16.8978L580.915 15.9247V9.4375C580.915 9.4375 580.59 9.49156 579.293 9.7078Z" fill="white"/>
<path fill-rule="evenodd" clip-rule="evenodd" d="M595.51 23.0607V10.5188L591.132 9.87012V11.3838C591.294 11.3838 592.213 11.546 592.213 12.8434V22.5742C592.213 23.8716 591.294 23.9797 590.861 23.9257V25.2231L596.862 26.0881V24.7906C596.429 24.6825 595.51 24.3582 595.51 23.0607Z" fill="white"/>
<path fill-rule="evenodd" clip-rule="evenodd" d="M593.836 9.49102C594.863 9.49102 595.674 8.40982 595.674 7.05832C595.674 5.76089 594.863 4.67969 593.836 4.67969C592.809 4.67969 591.998 5.76089 591.998 7.11238C591.998 8.40982 592.809 9.49102 593.836 9.49102Z" fill="white"/>
<path fill-rule="evenodd" clip-rule="evenodd" d="M616.433 34.0876C615.568 34.0876 614.865 33.3848 614.865 32.5199C614.865 31.6549 615.568 30.9521 616.433 30.9521C617.298 30.9521 618.001 31.6549 618.001 32.5199C618.001 33.3848 617.298 34.0876 616.433 34.0876V33.8173C617.136 33.8173 617.73 33.2767 617.73 32.5199C617.73 31.763 617.136 31.2224 616.433 31.2224C615.73 31.2224 615.136 31.763 615.136 32.5199C615.136 33.2767 615.73 33.8173 616.433 33.8173V34.0876Z" fill="white"/>
<path fill-rule="evenodd" clip-rule="evenodd" d="M616.055 33.4399H615.785V31.71H616.488C616.866 31.71 617.083 31.8181 617.083 32.1965C617.083 32.5749 616.812 32.629 616.65 32.629L617.137 33.4399H616.812L616.38 32.629H616.055V32.3587H616.488C616.704 32.3587 616.812 32.3587 616.812 32.1424C616.812 31.9803 616.704 31.9262 616.488 31.9262H616.055V33.4399Z" fill="white"/>
</g>
<g opacity="0.8">
<path d="M397.07 25.4695C396.983 30.2535 398.017 32.7875 401.96 32.7875C405.897 32.7875 406.463 28.471 406.463 25.1863C406.463 21.8994 405.715 18.7087 401.579 18.7087C399.041 18.7087 397.168 20.6805 397.07 25.4695ZM389.092 45.4609V13.0779H397.168C397.168 13.0779 397.168 13.5468 397.168 14.3914C397.168 16.1436 397.874 15.4211 398.444 14.7383C398.539 14.6241 400.339 12.4211 404.392 12.4211C408.434 12.4211 414.721 15.2361 414.721 25.1863C414.721 32.8829 410.97 38.5137 404.492 38.5137C400.923 38.5137 398.859 37.1083 398.387 36.5411C397.915 35.9819 397.259 35.8843 397.259 36.5411C397.259 37.1993 397.259 45.4609 397.259 45.4609H389.092Z" fill="white"/>
<path d="M326.673 2.56744H335.403C335.403 2.56744 335.403 21.5256 335.403 25.4693C335.403 29.4086 333.711 37.6709 321.605 37.6709C309.497 37.6709 308.184 29.97 308.184 25.6557V21.4324H316.632C316.632 21.4324 316.632 23.0278 316.632 25.5603C316.632 28.0943 318.322 30.4397 321.511 30.4397C324.702 30.4397 326.673 28.6571 326.673 25.6557C326.673 22.6521 326.673 2.56744 326.673 2.56744Z" fill="white"/>
<path d="M353.658 21.9952C353.658 19.6462 352.347 17.394 349.343 17.394C346.434 17.394 345.4 19.4569 345.4 21.9952H353.658ZM348.502 12.1389C355.357 12.1389 361.362 14.7661 361.362 26.8745H345.125C345.125 30.7228 346.719 32.3189 349.535 32.3189C352.351 32.3189 353.289 30.0646 353.289 30.0646H361.27C361.27 33.5386 356.482 38.2315 349.253 38.1383C340.996 38.1383 336.959 32.0371 336.959 25.7481C336.959 19.4569 340.523 12.1389 348.502 12.1389Z" fill="white"/>
<path d="M379.616 21.9952C379.616 19.6462 378.303 17.394 375.299 17.394C372.391 17.394 371.356 19.4569 371.356 21.9952H379.616ZM374.459 12.1389C381.314 12.1389 387.317 14.7661 387.317 26.8745H371.081C371.081 30.7228 372.676 32.3189 375.494 32.3189C378.308 32.3189 379.247 30.0646 379.247 30.0646H387.228C387.228 33.5386 382.439 38.2315 375.213 38.1383C366.951 38.1383 362.914 32.0371 362.914 25.7481C362.914 19.4569 366.483 12.1389 374.459 12.1389Z" fill="white"/>
</g>
<g opacity="0.8">
<path d="M58.8455 0C54.8055 0.000686492 50.8308 1.01911 47.2882 2.96126C43.7457 4.90341 40.7495 7.7067 38.5762 11.1124H4L7.44213 14.5545H36.7801C36.2232 15.8499 35.7814 17.1918 35.4597 18.5647H11.4523L14.8525 21.9648H34.9031C34.8373 22.6579 34.8016 23.3536 34.7962 24.0498C34.8025 24.6927 34.8346 25.3351 34.8924 25.9754H18.8631L22.2632 29.3756H35.4153C35.7202 30.7468 36.1447 32.0887 36.6838 33.3858H26.2734L29.7156 36.8279H38.5057C40.6665 40.2731 43.6657 43.1141 47.2228 45.0853C50.7799 47.0564 54.7788 48.0934 58.8455 48.0991C62.9123 48.0934 66.9113 47.0565 70.4685 45.0854C74.0257 43.1142 77.0249 40.2732 79.1857 36.8279H87.9759L91.418 33.3858H81.0076C81.5467 32.0887 81.9712 30.7468 82.2761 29.3756H95.4282L98.8283 25.9754H82.799C82.8568 25.3351 82.8889 24.6927 82.8953 24.0498C82.8899 23.3536 82.8544 22.6579 82.7887 21.9648H102.839L106.239 18.5647H82.2317C81.91 17.1918 81.4682 15.8499 80.9114 14.5545H110.249L113.691 11.1124H79.1152C76.9419 7.70664 73.9456 4.90331 70.403 2.96116C66.8604 1.019 62.8856 0.000618662 58.8455 0ZM58.8455 3.25991C61.5757 3.25991 64.2791 3.79765 66.8014 4.84244C69.3238 5.88723 71.6156 7.4186 73.5462 9.34912C75.4767 11.2796 77.008 13.5715 78.0528 16.0938C79.0976 18.6162 79.6354 21.3196 79.6354 24.0498C79.6354 26.7799 79.0976 29.4834 78.0528 32.0057C77.008 34.528 75.4767 36.8199 73.5462 38.7504C71.6156 40.6809 69.3238 42.2123 66.8014 43.2571C64.2791 44.3019 61.5757 44.8396 58.8455 44.8396C53.3317 44.8396 48.0437 42.6493 44.1449 38.7504C40.246 34.8515 38.0557 29.5636 38.0557 24.0498C38.0557 18.536 40.246 13.248 44.1449 9.34912C48.0437 5.45026 53.3317 3.25991 58.8455 3.25991ZM42.3071 18.6614V29.4378H44.5545V20.9551L46.925 29.4378H49.2544L51.6328 20.9551V29.4378H53.8806V18.6614H50.2515L48.102 26.0123L45.9279 18.6614H42.3071ZM56.2262 18.6614V29.4378H58.6455V18.6614H56.2262ZM60.9665 18.6614V29.4378H63.2142V22.4105L68.0449 29.4378H70.4725V18.6614H68.2247V25.8578L63.3208 18.6614H60.9665ZM72.965 18.6614V29.4378H75.3843V18.6614H72.965Z" fill="white"/>
</g>
<g opacity="0.8">
<path d="M158.624 48.5053C158.327 48.5053 158.031 48.5161 157.734 48.5053C157.362 48.4891 156.99 48.4622 156.619 48.4352C156.392 48.4191 156.16 48.4029 155.934 48.376C155.643 48.3436 155.352 48.3113 155.066 48.2628C154.495 48.1657 153.918 48.0633 153.347 47.9448C152.371 47.7346 151.417 47.4543 150.479 47.1201C149.827 46.8883 149.191 46.6296 148.561 46.3386C147.908 46.0421 147.267 45.7133 146.642 45.3576C145.699 44.824 144.798 44.2257 143.936 43.5682C143.456 43.2016 142.982 42.8244 142.535 42.4147C142.147 42.0536 141.753 41.7033 141.381 41.326C141.004 40.9433 140.643 40.539 140.287 40.1402C139.57 39.3317 138.923 38.4639 138.331 37.5584C137.943 36.9709 137.587 36.3619 137.253 35.742C136.692 34.7018 136.212 33.6238 135.808 32.5135C135.479 31.6026 135.199 30.6755 134.989 29.7269C134.87 29.1933 134.762 28.6543 134.671 28.1153C134.595 27.668 134.547 27.2206 134.498 26.7679C134.461 26.4283 134.444 26.0887 134.418 25.7492C134.358 25.0054 134.358 24.2616 134.374 23.5177C134.385 23.1351 134.418 22.747 134.444 22.3643C134.471 22.0355 134.493 21.7013 134.536 21.3726C134.595 20.9198 134.665 20.4671 134.741 20.0197C134.849 19.3621 135 18.71 135.167 18.0632C135.436 17.0337 135.765 16.0258 136.18 15.0448C136.412 14.4951 136.66 13.9507 136.918 13.4171C137.29 12.6571 137.716 11.9187 138.174 11.2072C138.649 10.4634 139.166 9.74655 139.721 9.05665C140.001 8.71169 140.298 8.37752 140.589 8.04335C140.945 7.63371 141.327 7.24564 141.715 6.86835C142.228 6.37248 142.761 5.89817 143.316 5.44542C143.915 4.95494 144.534 4.50218 145.176 4.07099C145.682 3.73143 146.2 3.40803 146.739 3.11698C147.246 2.84209 147.763 2.5726 148.28 2.31927C148.986 1.97432 149.714 1.68327 150.452 1.41377C151.288 1.11733 152.134 0.869392 152.991 0.659186C153.649 0.502879 154.312 0.373522 154.985 0.271114C155.379 0.211825 155.778 0.168706 156.171 0.130976C156.511 0.098637 156.85 0.0770774 157.19 0.0501279C157.831 0.00161885 158.473 -0.00916095 159.114 0.00700874C159.524 0.0177885 159.928 0.0339582 160.338 0.0609077C160.796 0.0932471 161.248 0.136366 161.701 0.195655C162.946 0.351962 164.17 0.605287 165.372 0.950241C166.353 1.23052 167.312 1.57547 168.245 1.97971C168.934 2.28155 169.614 2.61033 170.277 2.97145C170.966 3.34875 171.635 3.75838 172.287 4.20035C172.891 4.61537 173.473 5.05195 174.044 5.51548C174.847 6.16766 175.596 6.87913 176.308 7.62832C176.804 8.15114 177.267 8.69553 177.715 9.26146C178.361 10.0861 178.954 10.9431 179.493 11.8432C179.978 12.6517 180.41 13.4871 180.798 14.3495C181.153 15.1472 181.471 15.9665 181.741 16.7965C182.037 17.7128 182.28 18.6453 182.463 19.5939C182.56 20.0952 182.641 20.6018 182.711 21.1085C182.765 21.4965 182.792 21.8846 182.83 22.2727C182.857 22.5637 182.867 22.8548 182.884 23.1458C182.932 23.8196 182.91 24.4933 182.9 25.1671C182.894 25.5336 182.857 25.9001 182.83 26.2666C182.808 26.5738 182.781 26.881 182.743 27.1883C182.695 27.5709 182.641 27.9536 182.576 28.3309C182.463 29.0154 182.318 29.6946 182.14 30.3683C181.854 31.4732 181.493 32.5512 181.051 33.6076C180.501 34.9228 179.844 36.1786 179.073 37.3806C178.561 38.1729 178.006 38.9329 177.407 39.6659C177.052 40.0971 176.685 40.5229 176.292 40.9271C176.044 41.1804 175.807 41.4445 175.548 41.6871C175.138 42.0698 174.723 42.4471 174.297 42.8136C173.672 43.358 173.009 43.8484 172.33 44.3174C171.764 44.7054 171.182 45.0719 170.584 45.4061C170.142 45.6487 169.7 45.8858 169.252 46.1068C168.449 46.5003 167.625 46.8452 166.784 47.1417C165.911 47.4543 165.027 47.7076 164.127 47.9178C163.523 48.0579 162.919 48.1819 162.305 48.2628C161.868 48.3221 161.432 48.3759 160.995 48.4191C160.623 48.4568 160.246 48.4837 159.869 48.4999C159.459 48.5215 159.044 48.5269 158.629 48.543C158.624 48.5161 158.624 48.5107 158.624 48.5053ZM181.897 25.6144C181.897 21.0653 181.288 18.0093 180.027 15.0879C178.76 12.1612 176.965 9.60642 174.669 7.40195C172.368 5.19748 169.716 3.54278 166.73 2.43785C163.739 1.33292 160.656 0.864002 157.476 1.02031C153.686 1.21435 150.145 2.24921 146.884 4.18418C143.295 6.3078 140.438 9.16984 138.379 12.8026C136.277 16.5217 135.285 20.5371 135.382 24.8059C135.469 28.7945 136.514 32.5243 138.546 35.9684C140.664 39.5635 143.526 42.4309 147.159 44.4952C151.002 46.6727 155.147 47.6591 159.561 47.4974C163.458 47.3519 167.102 46.2847 170.454 44.2904C174.012 42.1722 176.847 39.3263 178.89 35.7151C180.9 32.1578 181.886 28.3309 181.897 25.6144Z" fill="white"/>
<path d="M158.612 46.7867C158.413 46.7867 158.208 46.792 158.009 46.7867C157.707 46.7759 157.41 46.7543 157.108 46.7381C156.963 46.7274 156.823 46.722 156.677 46.7058C156.456 46.6896 156.23 46.6735 156.009 46.6465C155.772 46.6196 155.529 46.5872 155.292 46.5441C154.866 46.474 154.435 46.404 154.009 46.3177C153.012 46.1129 152.037 45.838 151.077 45.4931C150.452 45.2721 149.838 45.0188 149.234 44.7439C148.091 44.2211 147.002 43.6066 145.968 42.9005C145.272 42.4262 144.599 41.9142 143.963 41.3644C143.429 40.9063 142.912 40.4266 142.421 39.9145C141.37 38.8258 140.438 37.6454 139.624 36.368C138.799 35.0798 138.114 33.7215 137.57 32.2878C137.198 31.3176 136.896 30.3313 136.67 29.3234C136.562 28.8329 136.471 28.3424 136.384 27.8466C136.32 27.4908 136.277 27.1297 136.228 26.7686C136.201 26.5314 136.185 26.2943 136.169 26.0571C136.153 25.8631 136.136 25.6744 136.12 25.4804C136.12 25.4588 136.115 25.4373 136.115 25.4157C136.104 24.8929 136.093 24.3755 136.088 23.8526C136.088 23.5885 136.099 23.3244 136.115 23.0603C136.131 22.7585 136.163 22.462 136.19 22.1656C136.217 21.8799 136.233 21.5943 136.277 21.3086C136.352 20.8073 136.433 20.3115 136.524 19.8156C136.638 19.2281 136.778 18.6514 136.945 18.0801C137.214 17.1368 137.543 16.2098 137.931 15.3096C138.513 13.9568 139.225 12.6794 140.06 11.4667C140.491 10.8414 140.955 10.2431 141.445 9.66104C141.952 9.06276 142.486 8.49682 143.052 7.95783C143.86 7.18168 144.723 6.47561 145.639 5.82882C146.647 5.11735 147.709 4.48673 148.824 3.95313C150.064 3.35486 151.352 2.86977 152.683 2.50864C153.33 2.33078 153.988 2.18525 154.645 2.06128C154.963 2.00199 155.281 1.96426 155.599 1.91575C155.869 1.87802 156.138 1.84569 156.413 1.81335C156.564 1.79718 156.715 1.79179 156.871 1.78101C157.065 1.76484 157.265 1.74867 157.459 1.73789C157.486 1.73789 157.513 1.7325 157.54 1.7325C158.009 1.72172 158.483 1.71094 158.952 1.71094C159.205 1.71094 159.464 1.72172 159.717 1.7325C160.035 1.75406 160.353 1.78101 160.666 1.80796C160.887 1.82413 161.102 1.8403 161.323 1.86724C161.587 1.89958 161.857 1.93192 162.121 1.97504C162.45 2.02894 162.773 2.08823 163.097 2.15291C163.517 2.24454 163.937 2.33617 164.353 2.44396C166.023 2.86977 167.619 3.50038 169.144 4.30348C170.319 4.92871 171.429 5.64556 172.475 6.46483C172.949 6.83673 173.418 7.21402 173.85 7.62905C174.281 8.04407 174.723 8.45909 175.132 8.89567C176.35 10.2 177.396 11.6283 178.275 13.186C178.911 14.3125 179.444 15.4875 179.881 16.7056C180.247 17.7351 180.538 18.7861 180.743 19.8641C180.824 20.2899 180.894 20.7211 180.959 21.1469C181.002 21.4541 181.034 21.7667 181.067 22.0794C181.11 22.4728 181.126 22.8663 181.153 23.2597C181.185 23.7664 181.174 24.273 181.169 24.7797C181.169 25.0977 181.137 25.4157 181.12 25.7337C181.11 25.9062 181.104 26.0733 181.088 26.2458C181.067 26.4667 181.045 26.6823 181.018 26.8979C180.991 27.1189 180.964 27.3399 180.932 27.5609C180.894 27.8034 180.862 28.046 180.819 28.2885C180.689 28.9946 180.528 29.6899 180.334 30.3798C180.069 31.3176 179.746 32.2339 179.363 33.1287C178.927 34.142 178.426 35.1175 177.849 36.05C177.375 36.8207 176.857 37.5538 176.297 38.2652C175.677 39.0414 175.014 39.7798 174.297 40.4697C173.817 40.9332 173.321 41.3698 172.804 41.7848C171.791 42.6041 170.713 43.3317 169.575 43.9677C168.589 44.5175 167.57 44.9864 166.514 45.3799C165.657 45.6979 164.784 45.962 163.894 46.1776C163.372 46.3016 162.849 46.4147 162.315 46.4902C161.959 46.5441 161.609 46.598 161.253 46.6411C161.032 46.6681 160.806 46.6842 160.585 46.7004C160.235 46.7274 159.89 46.7597 159.539 46.7705C159.232 46.7813 158.93 46.7705 158.623 46.7705C158.612 46.7813 158.612 46.7813 158.612 46.7867ZM143.779 24.2515C143.79 32.5681 150.495 39.009 158.44 39.1114C166.864 39.2192 173.494 32.3902 173.499 24.273C173.499 16.0535 166.864 9.40232 158.65 9.40232C150.409 9.39154 143.785 16.0481 143.779 24.2515ZM159.06 8.41058C159.076 8.36207 159.092 8.32973 159.108 8.292C159.302 7.72067 159.496 7.14934 159.69 6.57802C159.987 5.70485 160.283 4.83169 160.58 3.95852C160.59 3.9208 160.607 3.88846 160.623 3.85612C160.65 3.94236 160.666 4.02859 160.666 4.10944C160.677 4.69155 160.687 5.27366 160.693 5.86116C160.704 6.41093 160.709 6.96609 160.72 7.51586C160.725 7.7584 160.725 8.00095 160.725 8.24349C160.725 8.28661 160.731 8.32973 160.731 8.37285C160.887 8.3998 161.577 8.39441 161.679 8.36207C161.679 8.34051 161.685 8.31895 161.685 8.29739C161.679 7.79074 161.668 7.28409 161.663 6.77744C161.652 6.23845 161.647 5.69946 161.636 5.16047C161.625 4.6107 161.614 4.06632 161.609 3.51655C161.604 3.23089 161.604 2.93983 161.604 2.65417C161.604 2.60566 161.604 2.55715 161.604 2.51403C161.577 2.50325 161.561 2.49786 161.55 2.49786C161.146 2.49786 160.741 2.49786 160.337 2.50325C160.283 2.50325 160.224 2.51942 160.175 2.5302C159.674 4.0771 159.173 5.61322 158.677 7.14934C158.628 7.11161 158.607 7.0685 158.591 7.02538C158.354 6.38937 158.122 5.75875 157.89 5.12274C157.594 4.31965 157.297 3.52194 157.001 2.71885C156.979 2.66495 156.952 2.61644 156.925 2.55715C156.812 2.56254 156.704 2.57332 156.596 2.57871C156.284 2.5841 155.966 2.5841 155.653 2.58949C155.605 2.58949 155.562 2.59488 155.508 2.60027C155.508 2.66495 155.508 2.71346 155.508 2.76197C155.513 3.17699 155.518 3.58662 155.529 4.00164C155.54 4.55141 155.545 5.09579 155.556 5.64556C155.567 6.18455 155.572 6.72354 155.583 7.26253C155.589 7.61827 155.589 7.974 155.589 8.32434C155.589 8.37285 155.594 8.42136 155.594 8.46448C155.804 8.49143 156.462 8.48604 156.57 8.44831C156.564 8.36746 156.553 8.28661 156.553 8.20037C156.543 7.35416 156.532 6.50256 156.521 5.65634C156.521 5.45153 156.521 5.24132 156.516 5.0365C156.51 4.69694 156.499 4.35738 156.494 4.01242C156.494 3.98008 156.499 3.95313 156.505 3.9208C156.51 3.9208 156.521 3.9208 156.526 3.9208C157.098 5.41919 157.664 6.92297 158.235 8.42136C158.51 8.41058 158.779 8.41058 159.06 8.41058ZM170.319 11.5152C170.319 11.4828 170.314 11.472 170.314 11.4667C171.187 10.2108 172.06 8.94957 172.939 7.68294C172.712 7.42962 172.486 7.18168 172.249 6.92297C171.133 8.62618 170.023 10.3186 168.912 12.0164C169.144 12.2805 169.371 12.5392 169.608 12.798C170.308 12.4422 170.998 12.0865 171.688 11.7361C172.383 11.3858 173.079 11.0355 173.801 10.6689C173.774 10.7282 173.763 10.7606 173.747 10.7875C173.693 10.8684 173.639 10.9546 173.585 11.0355C172.82 12.1835 172.06 13.3369 171.295 14.485C171.273 14.5227 171.252 14.5605 171.225 14.5982C171.343 14.7275 171.462 14.8515 171.575 14.9809C171.688 15.1048 171.801 15.2342 171.915 15.3635C173.736 14.458 175.553 13.5579 177.385 12.647C177.148 12.3883 176.927 12.1458 176.701 11.8925C176.512 11.9571 176.356 12.0703 176.183 12.1566C176.011 12.2428 175.844 12.3398 175.671 12.4261C175.499 12.5177 175.332 12.6093 175.159 12.6955C174.987 12.7872 174.82 12.8788 174.653 12.9704C174.48 13.0621 174.302 13.1537 174.13 13.2507C173.957 13.3423 173.79 13.434 173.618 13.5202C173.445 13.6118 173.278 13.7088 173.106 13.7951C172.939 13.8813 172.777 13.9837 172.588 14.043C173.429 12.7387 174.297 11.4559 175.154 10.1623C174.917 9.89819 174.69 9.64487 174.459 9.38615C173.09 10.0976 171.71 10.8037 170.319 11.5152ZM145.784 14.7599C145.838 14.7114 145.876 14.6736 145.914 14.6359C146.329 14.2155 146.738 13.8005 147.153 13.3801C147.374 13.1591 147.601 12.9381 147.811 12.7063C148.043 12.4584 148.242 12.1889 148.371 11.8763C148.566 11.4128 148.587 10.9492 148.328 10.5072C148.129 10.1677 147.838 9.91436 147.477 9.74728C147.347 9.68799 147.207 9.64487 147.062 9.63409C146.781 9.61253 146.517 9.66643 146.275 9.81195C146.248 9.82812 146.216 9.83351 146.167 9.84429C146.189 9.76883 146.205 9.70955 146.221 9.65565C146.323 9.29452 146.275 8.95496 146.086 8.63157C146 8.49143 145.887 8.37824 145.763 8.27044C145.348 7.90932 144.884 7.82308 144.378 8.0279C144.113 8.13031 143.887 8.292 143.688 8.49143C143.003 9.18134 142.324 9.87124 141.645 10.5611C141.629 10.5773 141.613 10.5989 141.591 10.6258C141.629 10.6689 141.666 10.7013 141.699 10.739C142.076 11.1109 142.459 11.4774 142.836 11.8493C143.558 12.5608 144.281 13.2723 145.003 13.9891C145.224 14.2047 145.439 14.4257 145.66 14.6467C145.698 14.6844 145.736 14.7168 145.784 14.7599Z" fill="white"/>
<path d="M144.48 24.2021C144.497 16.3814 150.835 10.0752 158.613 10.0752C166.466 10.0752 172.745 16.4838 172.74 24.2129C172.729 31.9797 166.39 38.329 158.602 38.3236C150.911 38.3236 144.502 32.0875 144.48 24.2021ZM158.866 23.965C158.942 23.965 159.006 23.965 159.066 23.965C163.394 23.965 167.722 23.965 172.05 23.965C172.088 23.965 172.12 23.965 172.158 23.965C172.185 23.965 172.217 23.9542 172.255 23.9488C172.222 22.3372 171.92 20.7903 171.344 19.2973C170.546 17.2438 169.323 15.4867 167.679 14.0206C166.056 12.5761 164.191 11.5736 162.089 11.0184C161.087 10.7543 159.26 10.5118 158.871 10.598C158.866 15.0393 158.866 19.4913 158.866 23.965ZM144.982 24.5848C145.019 26.1371 145.321 27.6301 145.871 29.0692C146.647 31.0904 147.838 32.8313 149.439 34.2866C151.067 35.7688 152.943 36.7983 155.066 37.375C156.144 37.6661 157.238 37.8224 158.365 37.8386C158.365 33.4135 158.365 29.0045 158.365 24.5848C153.907 24.5848 149.455 24.5848 144.982 24.5848Z" fill="white"/>
<path d="M145.908 13.4545C145.456 13.0341 145.019 12.6029 144.588 12.161C144.615 12.1286 144.631 12.1017 144.653 12.0801C145.041 11.6866 145.434 11.2878 145.828 10.8943C145.93 10.7919 146.049 10.6949 146.173 10.6194C146.491 10.42 146.814 10.4416 147.11 10.6626C147.326 10.8243 147.488 11.0291 147.536 11.3094C147.569 11.4764 147.536 11.6327 147.461 11.7783C147.401 11.8915 147.331 12.0047 147.245 12.1017C146.83 12.5329 146.404 12.9587 145.984 13.3845C145.968 13.4114 145.941 13.4276 145.908 13.4545Z" fill="white"/>
<path d="M144.061 11.6434C143.657 11.2715 143.29 10.8834 142.902 10.5008C142.929 10.463 142.956 10.4307 142.978 10.4037C143.253 10.1181 143.528 9.83779 143.802 9.55213C143.937 9.41199 144.072 9.27185 144.212 9.14789C144.358 9.01853 144.53 8.9269 144.735 8.94846C144.805 8.95385 144.88 8.97002 144.94 8.99697C145.139 9.0886 145.301 9.22335 145.419 9.41199C145.587 9.68149 145.565 10.0157 145.36 10.2905C145.306 10.3606 145.247 10.4307 145.188 10.4954C144.853 10.8403 144.514 11.1799 144.18 11.5194C144.147 11.568 144.11 11.6003 144.061 11.6434Z" fill="white"/>
</g>
</g>
<defs>
<filter id="filter0_d" x="0" y="0" width="622.001" height="56.543" filterUnits="userSpaceOnUse" color-interpolation-filters="sRGB">
<feFlood flood-opacity="0" result="BackgroundImageFix"/>
<feColorMatrix in="SourceAlpha" type="matrix" values="0 0 0 0 0 0 0 0 0 0 0 0 0 0 0 0 0 0 127 0"/>
<feOffset dy="4"/>
<feGaussianBlur stdDeviation="2"/>
<feColorMatrix type="matrix" values="0 0 0 0 0 0 0 0 0 0 0 0 0 0 0 0 0 0 0.25 0"/>
<feBlend mode="normal" in2="BackgroundImageFix" result="effect1_dropShadow"/>
<feBlend mode="normal" in="SourceGraphic" in2="effect1_dropShadow" result="shape"/>
</filter>
</defs>
</svg>
