<svg width="87" height="106" viewBox="0 0 87 106" fill="none" xmlns="http://www.w3.org/2000/svg">
<path d="M0.55835 26.037C0.627362 25.8989 0.682573 25.8022 0.765388 25.6502C1.05524 25.6502 1.3451 25.6502 1.63495 25.6502C9.17115 25.6502 16.7073 25.6502 24.2435 25.6502C24.4506 25.6502 24.6576 25.6502 24.8647 25.6502C25.4444 25.6226 25.8446 25.2635 25.8861 24.6695C25.9137 24.3933 25.8999 24.117 25.8999 23.8408C25.8999 16.3405 25.8999 8.85405 25.8999 1.35379C25.8999 1.07754 25.8999 0.801283 25.8999 0.566468C26.2449 0.290215 26.4934 0.414529 26.728 0.649344C27.777 1.71292 28.8398 2.76268 29.8888 3.82625C30.717 4.65501 31.5313 5.49758 32.3457 6.32634C33.4085 7.40373 34.4574 8.49493 35.534 9.57231C38.9433 12.984 42.3525 16.3958 45.7756 19.8075C45.8998 19.9318 46.0516 20.0423 46.2172 20.1942C46.3691 20.0699 46.5347 19.987 46.6589 19.8627C50.2476 16.2714 53.8501 12.6802 57.4387 9.08887C60.3097 6.21584 63.1944 3.329 66.0653 0.455967C66.2862 0.234964 66.4656 -0.0689139 66.9349 0.013962C67.0729 0.138276 67.2661 0.304027 67.4318 0.483592C72.4145 5.46996 77.411 10.4701 82.3938 15.4565C84.6022 17.6803 85.9686 20.36 86.3965 23.454C86.9762 27.584 85.9962 31.3549 83.3875 34.6423C82.7802 35.4158 82.0349 36.0788 81.3448 36.7832C79.3296 38.8275 77.3006 40.8718 75.2716 42.9022C73.85 44.3249 72.3869 45.7338 70.9652 47.1703C69.2261 48.9107 67.5146 50.6649 65.7755 52.4053C63.8707 54.3115 61.966 56.19 60.0612 58.0823C58.6948 59.4498 57.3421 60.8172 55.9894 62.1847C55.0785 63.0963 54.1951 64.0218 53.2289 64.8781C50.9791 66.8672 48.329 67.7235 45.3477 67.4335C42.7666 67.1848 40.5306 66.1489 38.6948 64.3118C35.396 61.0106 32.0972 57.7094 28.8122 54.4081C26.3139 51.9081 23.8295 49.3803 21.3312 46.8803C17.6735 43.2199 14.002 39.5734 10.3444 35.9268C7.61146 33.2057 4.89235 30.4708 2.15945 27.7359C1.78678 27.363 1.40031 26.9901 1.04144 26.6171C0.862006 26.4375 0.72398 26.2304 0.55835 26.037Z"/>
<path d="M20.0175 87.0886C20.4868 87.4201 21.1631 87.4201 21.591 87.945C21.5358 88.1936 21.4805 88.4561 21.4391 88.6909C20.7904 88.8704 14.8001 88.8566 14.2618 88.6771C14.2894 88.4975 14.3032 88.3318 14.3308 88.1522C14.3446 88.0693 14.386 87.9726 14.4274 87.8069C15.0762 87.5721 15.7663 87.3372 16.4564 87.0886C17.3536 83.0691 18.2369 79.0635 19.1203 75.0578C19.1479 74.9059 19.1203 74.7539 19.1203 74.45C16.4288 79.4364 13.406 84.036 10.6317 88.7738C10.2315 88.7738 9.9002 88.7738 9.48612 88.7738C9.25148 87.5306 9.03064 86.3289 8.8098 85.1134C8.58896 83.9117 8.35431 82.7238 8.14727 81.5221C7.92643 80.3066 7.69179 79.0911 7.49855 77.8618C7.31912 76.6739 7.18109 75.4722 6.93265 74.2705C6.55998 75.3064 6.39435 76.3838 6.17351 77.4474C5.95267 78.4971 5.73183 79.5607 5.51098 80.6105C5.29014 81.6879 5.0417 82.7653 4.83466 83.8426C4.64142 84.8924 4.29636 85.9284 4.24115 87.0057C4.83466 87.3372 5.52479 87.4063 6.02168 87.9174C5.96647 88.166 5.91126 88.4284 5.86985 88.6771C5.27634 88.8704 0.569667 88.8704 0.0313669 88.6909C0.0175643 88.6356 -0.0100408 88.5528 0.00376178 88.4975C0.0451695 88.2903 0.114182 88.0969 0.169393 87.9036C0.80431 87.3925 1.60486 87.282 2.3778 86.9367C3.28877 82.5995 4.19974 78.2485 5.11071 73.8975C5.13831 73.787 5.09691 73.6765 5.09691 73.5522C4.55861 73.2621 3.90989 73.2621 3.4268 72.7649C3.4682 72.5163 3.52342 72.24 3.56482 71.9776C4.22735 71.8394 9.51373 71.8533 10.1486 71.9914C10.7284 75.8313 11.4323 79.685 11.8878 83.6907C12.4261 83.1244 12.5227 82.4614 12.8678 81.9365C13.2404 81.384 13.5441 80.79 13.8753 80.2099C14.2066 79.6574 14.5379 79.1049 14.8829 78.5662C15.2142 78.0137 15.5454 77.4612 15.8905 76.9225C16.2218 76.37 16.5668 75.8313 16.8981 75.2788C17.2432 74.7125 17.5744 74.1323 17.9333 73.566C18.2646 73.0273 18.6096 72.4748 18.9547 71.9361C20.9699 71.9361 22.9436 71.9361 25.0002 71.9361C24.945 72.2676 24.9036 72.5439 24.8622 72.7787C24.2687 73.2621 23.5923 73.3312 22.9988 73.5384C22.6952 74.0495 20.1693 85.804 20.0175 87.0886Z"/>
<path d="M85.9493 76.5374C85.8527 77.1175 85.7699 77.6562 85.6595 78.1949C85.1488 80.8746 84.6243 83.5542 84.1136 86.2339C84.0722 86.4687 84.0722 86.7173 84.0308 87.0488C84.5829 87.0488 85.0522 87.0488 85.5767 87.0488C85.5767 87.3941 85.5767 87.6566 85.5767 87.9467C85.2316 88.2643 84.7761 88.4439 84.3344 88.6097C83.5753 88.8721 82.7885 89.0378 81.9742 89.024C81.2703 89.0102 80.5111 88.513 80.6491 87.5461C80.6906 87.2284 80.7596 86.9107 80.801 86.593C80.8424 86.3306 80.87 86.0543 80.9114 85.7366C80.5801 85.8195 80.5387 86.0681 80.4283 86.2477C79.821 87.2698 79.0618 88.14 77.9714 88.6787C77.3365 88.9964 76.6878 89.1345 75.9701 89.0655C74.8245 88.955 74.1481 88.292 73.7755 87.256C73.6788 86.9798 73.6098 86.6759 73.5822 86.3858C73.4028 84.0377 73.7341 81.8 75.0177 79.7834C76.398 77.601 78.3579 76.4269 80.9804 76.4821C81.4083 76.496 81.85 76.5788 82.2502 76.7308C82.6643 76.8827 83.0232 76.8827 83.4511 76.786C84.0998 76.6341 84.7623 76.565 85.4248 76.4821C85.5767 76.4545 85.7285 76.5098 85.9493 76.5374ZM82.2778 78.2363C82.0294 78.1258 81.85 78.0015 81.6291 77.9325C80.8148 77.7115 80.097 77.9601 79.4483 78.4712C78.7996 78.9684 78.3303 79.6176 77.9852 80.3497C77.1571 82.0763 76.9225 83.8995 77.0329 85.7781C77.0467 86.0405 77.1295 86.3306 77.2399 86.5654C77.4608 87.0626 77.9438 87.2422 78.4407 87.035C78.634 86.9659 78.8134 86.8554 78.9652 86.7173C80.1937 85.6399 80.9942 84.2587 81.4083 82.7255C81.8224 81.2889 81.988 79.7972 82.2778 78.2363Z"/>
<path d="M60.2373 76.7033C60.2649 77.1177 60.0578 77.4216 59.8508 77.6702C59.2159 78.4161 58.5672 79.162 57.8632 79.8526C57.3249 80.3775 56.7038 80.8333 56.1241 81.3167C55.9309 81.4825 55.7376 81.6344 55.4892 81.8554C56.2759 83.7201 57.3663 85.4053 58.5534 87.0352C58.9674 87.0628 59.3401 87.0766 59.7818 87.1042C59.8094 87.3805 59.8232 87.6291 59.8508 87.9468C59.5747 88.1126 59.3125 88.3059 59.0226 88.4441C58.3463 88.7341 57.6562 88.9689 56.9109 89.0242C55.9861 89.0794 55.2821 88.7618 54.8405 87.9468C54.4402 87.2285 54.0675 86.4827 53.7363 85.7368C53.405 84.9771 53.1428 84.1898 52.8253 83.361C52.6735 83.2919 52.4664 83.2091 52.1766 83.0848C51.6659 85.0047 51.4312 86.9109 51.0034 88.7617C50.2718 88.9137 48.1186 88.8861 47.5803 88.7203C47.9116 87.0214 48.229 85.3086 48.5603 83.6096C48.8916 81.9245 49.2918 80.2532 49.5265 78.499C48.9882 78.3746 48.5051 78.2642 47.9944 78.1398C47.9944 77.8636 47.9944 77.6288 47.9944 77.394C49.1676 76.6895 52.4388 76.2613 53.336 76.7033C53.3084 76.9381 53.3084 77.2144 53.2532 77.4768C52.9771 78.9133 52.6735 80.3499 52.3836 81.8278C52.7011 82.0626 52.9909 82.035 53.267 81.814C54.2056 80.999 55.1027 80.1427 55.8066 79.1067C56.0827 78.7062 56.0965 78.2365 56.0551 77.7807C56.0275 77.4906 55.9999 77.1868 55.9723 76.9105C56.3173 76.4961 56.8004 76.5652 57.2145 76.5099C58.3601 76.2889 59.5609 76.4133 60.2373 76.7033Z"/>
<path d="M69.3214 82.0332C69.625 82.1437 69.8321 82.2266 70.0529 82.2957C71.5712 82.7929 72.0819 84.1189 71.585 85.5969C71.1847 86.7709 70.329 87.5721 69.2938 88.1522C67.6237 89.0777 65.8431 89.3539 63.9798 88.8705C62.3235 88.4561 61.2193 87.1991 61.0812 85.514C60.8328 82.6962 61.6057 80.2099 63.6623 78.1933C64.7803 77.1021 66.1744 76.6048 67.6927 76.4805C68.3138 76.4253 68.9349 76.4391 69.556 76.4529C70.1081 76.4667 70.6464 76.6187 71.1295 76.9087C72.3855 77.627 72.6616 79.3121 71.7092 80.4033C71.2261 80.9696 70.6464 81.4116 69.9701 81.7155C69.7492 81.7984 69.5698 81.8951 69.3214 82.0332ZM64.6009 83.2073C64.5457 83.7184 64.4767 84.1742 64.4767 84.63C64.4629 85.2516 64.4353 85.8731 64.6423 86.4671C65.0978 87.7655 66.2848 88.0832 67.2786 87.1439C67.9687 86.4947 68.2448 85.6936 68.231 84.7405C68.2172 83.6493 67.5684 83.083 66.4918 83.0415C65.8983 83.0139 65.3048 83.1382 64.6009 83.2073ZM64.7941 81.8813C64.9598 81.9227 65.0702 81.9642 65.1806 81.9642C66.4228 81.9642 67.458 81.4945 68.2586 80.5553C68.7279 79.9889 68.9349 79.3121 68.8107 78.5662C68.7003 77.9447 68.2724 77.6684 67.6651 77.8342C67.1682 77.9723 66.7403 78.2347 66.3952 78.6215C65.5257 79.5469 65.1392 80.6796 64.7941 81.8813Z"/>
<path d="M35.4072 81.2038C35.4624 83.1238 34.9655 84.8918 33.8061 86.425C32.3016 88.414 30.245 89.229 27.7882 89.0356C26.9738 88.9803 26.2147 88.7732 25.5245 88.3173C24.5722 87.6958 23.9925 86.7979 23.7578 85.7068C23.0953 82.5989 24.4479 78.8142 27.5259 77.1705C28.3265 76.7423 29.1822 76.4799 30.0794 76.4385C30.7833 76.4108 31.5011 76.4247 32.205 76.549C34.0131 76.8805 35.214 78.1789 35.421 80.1679C35.4348 80.5132 35.4072 80.8585 35.4072 81.2038ZM31.9841 80.969C31.9841 80.6651 32.0256 80.3613 31.9703 80.0712C31.8875 79.5739 31.8047 79.0767 31.6115 78.6209C31.3078 77.9302 30.6867 77.6816 29.9552 77.8612C29.3755 78.0131 28.8924 78.3308 28.5887 78.8419C28.2436 79.4082 27.9262 80.0021 27.7053 80.6237C27.2637 81.8392 27.098 83.1238 27.0566 84.4084C27.0428 85.0852 27.0704 85.8034 27.2637 86.4388C27.6915 87.8201 29.058 88.1101 30.0518 87.0604C30.4245 86.6736 30.7281 86.1902 30.9766 85.7068C31.7081 84.215 31.9427 82.5989 31.9841 80.969Z"/>
<path d="M56.0828 98.3325C54.7577 98.8712 54.4541 98.7883 53.5017 97.6971C53.4051 97.7247 53.2947 97.7385 53.198 97.78C52.2871 98.1944 51.3347 98.4292 50.3409 98.512C50.1891 98.5259 50.0235 98.5811 49.8854 98.6364C48.864 99.0507 48.5604 98.9402 48.0497 97.9595C47.2077 98.001 46.3382 98.0562 45.2892 98.1115C45.1926 98.2358 45.0269 98.4982 44.8061 98.6916C44.1436 99.2579 43.3982 99.548 42.5149 99.3546C42.0042 99.2441 41.5901 98.9679 41.2588 98.5673C41.0242 98.2772 40.831 97.9734 40.6101 97.6833C40.4583 97.4899 40.3065 97.2965 40.0994 97.0617C39.8924 97.2689 39.7405 97.4485 39.5749 97.5866C39.2575 97.849 38.94 98.1253 38.6087 98.3463C38.3603 98.512 38.0566 98.5949 37.7668 98.4292C37.5045 98.1805 37.615 97.9181 37.753 97.6695C38.0566 97.1722 38.4845 96.7855 39.0228 96.5507C39.1884 96.4816 39.3679 96.4125 39.5473 96.3435C39.9476 95.7771 40.3617 95.197 40.6791 94.755C40.5963 93.9263 40.5273 93.2771 40.4859 92.6141C40.4721 92.3516 40.5273 92.0615 40.5963 91.7991C40.9138 90.7355 41.7695 90.1968 42.8599 90.3764C43.1498 90.4178 43.4396 90.4869 43.6467 90.5283C44.0608 90.4731 44.3368 89.9897 44.7371 90.4317C44.7095 90.5836 44.6681 90.7632 44.6267 90.9842C46.7937 92.7522 46.697 95.0174 45.8413 97.3932C45.9241 97.4485 45.9655 97.5175 46.0207 97.5175C46.9593 97.5866 47.8979 97.5728 48.7812 97.1446C49.3333 96.8683 49.5542 96.896 50.1615 97.2413C50.2443 97.4485 50.3271 97.6695 50.4375 97.9457C51.5003 97.9043 52.4665 97.628 53.3775 97.0341C53.6811 94.9622 54.8268 93.3461 56.2484 91.8958C56.6625 91.4814 57.1042 91.0532 57.6977 90.9427C58.0151 91.0256 58.1394 91.2328 58.1256 91.509C58.098 91.7991 58.0842 92.103 57.9875 92.3792C57.5459 93.7191 56.6901 94.7965 55.7515 95.8186C55.4479 96.1501 55.089 96.454 54.7439 96.744C54.5921 96.8822 54.3989 96.9788 54.3161 97.0341C54.4265 97.8352 54.5921 98.0562 55.0062 98.0977C55.4203 98.1391 55.6549 97.9457 55.8067 97.5175C55.8757 97.2965 56 97.0755 56.0966 96.8545C56.8281 97.0065 56.4693 97.5175 56.5383 97.9181C57.4768 98.1391 58.3326 97.7109 59.1608 97.6695C60.4444 96.3987 61.3968 96.2191 61.9351 97.117C61.7832 97.8767 60.9689 97.6695 60.5134 98.0562C60.7757 98.291 61.0655 98.2358 61.314 98.2082C63.1773 97.9595 65.0406 97.6419 66.7798 96.8822C67.9116 96.3849 68.7397 95.5423 69.2918 94.4373C69.4437 94.1473 69.5265 93.7467 70.0234 93.8572C70.2718 94.1196 70.1062 94.3683 69.9544 94.5893C69.5817 95.1694 69.1952 95.7357 68.8363 96.3297C68.5465 96.8131 68.2981 97.3242 67.9944 97.8767C68.3257 97.9734 68.5051 97.7938 68.6983 97.6971C69.6093 97.2413 70.5617 96.9098 71.5831 96.8683C71.7901 96.8545 71.9971 96.8131 72.1628 97.0893C72.0247 97.3242 71.8591 97.5866 71.7211 97.8214C71.8867 98.1253 72.1214 98.07 72.356 98.0286C73.0599 97.9043 73.7501 97.7662 74.454 97.6419C74.7438 97.5866 75.0337 97.5728 75.3236 97.5452C75.4892 97.7524 75.6134 97.9043 75.7514 98.0839C76.9661 97.9181 78.1393 97.5175 79.3953 97.3932C79.4643 97.6142 79.5195 97.78 79.6023 98.0286C80.3201 97.9043 81.024 97.78 81.7003 97.6695C82.8045 96.523 83.5913 96.302 84.3642 96.896C84.378 97.4485 84.309 97.559 83.7983 97.7385C83.5913 97.8214 83.3704 97.8767 83.1496 97.9595C83.122 97.9734 83.122 98.0424 83.0944 98.1253C84.033 98.3877 84.9163 97.9457 85.8273 97.8629C85.9791 98.1391 85.8687 98.291 85.6479 98.3601C85.358 98.443 85.0682 98.512 84.7783 98.5535C84.309 98.6225 83.8259 98.7192 83.3428 98.7192C82.7769 98.7331 82.2524 98.5673 81.8246 98.1805C80.6375 98.222 79.5471 98.7607 78.3601 98.6778C78.2635 98.4844 78.1945 98.3187 78.1117 98.1391C76.9661 98.291 75.8895 98.7331 74.7024 98.7883C74.6058 98.5811 74.523 98.4015 74.454 98.222C74.385 98.2082 74.316 98.1805 74.247 98.1944C73.7501 98.2772 73.2532 98.3877 72.7563 98.4706C72.356 98.5397 71.9419 98.6225 71.5278 98.6364C71.2656 98.6502 71.0034 98.5673 70.6859 98.5259C70.6583 98.1805 70.6307 97.8905 70.6031 97.5866C70.5065 97.5866 70.4098 97.559 70.3408 97.5866C69.3885 97.8905 68.4913 98.291 67.7045 98.8988C67.4837 99.0784 67.2905 99.327 67.1524 99.5756C66.5727 100.612 66.0344 101.689 65.4409 102.725C65.0544 103.402 64.5714 104.023 64.1159 104.645C63.895 104.935 63.6052 105.184 63.1635 105.004C63.0393 104.631 63.0807 104.286 63.2049 103.927C63.5638 102.794 64.1849 101.813 64.9302 100.888C65.2201 100.529 65.4961 100.156 65.8274 99.8381C66.5175 99.1751 66.9454 98.3325 67.4423 97.5313C67.4837 97.4623 67.4975 97.3656 67.5389 97.2551C67.4561 97.2413 67.3871 97.1998 67.3319 97.2275C66.062 97.8629 64.668 98.0839 63.3015 98.3739C62.6252 98.512 61.9489 98.5811 61.2587 98.6778C60.5686 98.7883 59.9337 98.6916 59.3264 98.1667C58.8985 98.2358 58.4292 98.291 57.9599 98.3877C57.3388 98.5259 56.7177 98.5811 56.0828 98.3325ZM45.1788 97.3932C45.2754 97.2137 45.4272 97.0203 45.5238 96.7855C45.8965 95.8462 46.0069 94.8655 45.8551 93.8848C45.7309 93.0975 45.4272 92.3792 44.8199 91.8405C44.6267 91.661 44.392 91.5505 44.1298 91.3709C43.2464 92.5174 42.4459 93.6224 41.7143 94.6998C42.2388 96.2191 43.7433 97.3932 45.1788 97.3932ZM41.1346 95.3904C40.8586 95.8324 40.6515 96.1777 40.4307 96.523C41.0656 97.117 41.6591 97.6695 42.2388 98.2082C42.3768 98.3325 42.5287 98.443 42.6805 98.5259C43.3154 98.885 44.185 98.6502 44.6129 97.9595C44.1712 97.78 43.7019 97.6418 43.3016 97.4208C42.8875 97.186 42.5011 96.896 42.1422 96.5645C41.8109 96.2468 41.5349 95.86 41.1346 95.3904ZM54.6197 96.1777C54.8406 95.9981 55.0338 95.8876 55.1718 95.7219C55.7515 95.0175 56.345 94.3268 56.8695 93.5671C57.187 93.0975 57.3802 92.5588 57.6149 92.0339C57.6563 91.9372 57.6149 91.7991 57.6149 91.661C57.0076 91.8958 56.6211 92.2964 55.9034 93.3323C55.0476 94.5893 54.6335 95.4733 54.6197 96.1777ZM41.3693 93.7191C41.8937 93.3185 43.2188 91.5229 43.3568 91.0394C42.5149 90.7079 41.8938 90.8875 41.4659 91.5643C41.1484 92.0754 41.0932 93.0008 41.3693 93.7191ZM63.9502 103.457C64.4747 103.07 64.8888 102.311 64.944 101.744C64.5576 102.393 64.2539 102.932 63.9502 103.457ZM49.6646 97.5866C49.3057 97.5728 49.1677 97.7523 49.0987 97.9734C49.0711 98.07 49.1677 98.1944 49.2229 98.3187C49.637 98.222 49.6784 97.9595 49.6646 97.5866ZM60.7204 97.2137C60.7619 97.2137 60.7895 97.2137 60.8309 97.1998C60.8171 97.186 60.8033 97.1584 60.8033 97.1584C60.7757 97.186 60.748 97.1998 60.7204 97.2137ZM83.3152 97.2137C83.2738 97.1998 83.2462 97.1998 83.2186 97.186C83.2186 97.1998 83.2324 97.2275 83.2324 97.2275C83.2462 97.2275 83.2738 97.2275 83.3152 97.2137Z"/>
<path d="M45.6078 85.5141C45.7873 85.7212 45.9391 85.8732 46.1047 86.0528C45.9805 86.3014 45.9115 86.4671 45.8011 86.6053C44.2552 88.4838 42.2952 89.3678 39.8522 88.9672C38.3753 88.7324 37.2021 87.5445 36.926 86.0389C36.5947 84.2985 36.8708 82.6134 37.5333 80.9835C38.2235 79.2846 39.3277 77.9447 40.984 77.116C42.6955 76.2596 44.4622 76.2181 46.2703 76.7292C46.5188 76.7983 46.7396 76.9778 46.9467 77.0883C47.0847 78.1243 46.436 79.3536 45.4422 79.8647C44.9453 79.1879 44.4346 78.4972 43.9377 77.8066C42.8887 77.9309 42.2124 78.5387 41.6603 79.2846C40.9564 80.2238 40.5975 81.315 40.4043 82.4615C40.2524 83.3178 40.1972 84.188 40.3352 85.0582C40.5975 86.6881 41.9639 87.3373 43.4132 86.8263C43.9515 86.6329 44.4346 86.3014 44.9315 86.0251C45.0971 85.9146 45.2766 85.7627 45.6078 85.5141Z"/>
</svg>
