<svg width="179" height="46" viewBox="0 0 179 46" fill="none" xmlns="http://www.w3.org/2000/svg">
<path d="M119.09 22.8192C114.222 22.8192 109.607 22.8192 104.823 22.8192C104.823 21.3375 104.823 19.9827 104.823 18.4586C107.279 17.8659 106.813 15.9185 106.686 14.0133C104.865 13.5053 103.087 13.8863 101.352 13.8017C100.674 16.7228 100.886 17.3155 103.045 18.6703C103.045 19.9404 103.045 21.2528 103.045 22.8192C98.3034 23.1156 93.6464 22.9039 88.8625 22.9462C88.8625 21.3375 88.8625 19.9827 88.8625 18.501C91.0639 18.3316 91.2333 16.7652 91.1486 15.0294C91.1063 13.1243 91.0639 11.2615 91.1486 9.35636C91.2333 7.62058 90.8523 6.30816 88.6931 6.01181C88.6931 4.95341 88.6931 3.97968 88.6931 3.00595C88.6931 2.07456 89.0318 1.52419 90.0479 1.52419C94.4085 1.52419 98.7691 1.52419 103.13 1.52419C103.765 3.00595 103.426 4.36071 103.426 5.67312C102.622 6.18116 101.733 6.56218 101.225 7.19722C100.886 7.66292 101.055 8.50964 101.013 9.27169C102.96 9.65272 104.738 9.44103 106.601 9.44103C107.025 7.57825 106.517 6.43517 104.781 5.84247C104.781 4.91107 104.738 4.06435 104.781 3.25997C104.823 1.7782 105.035 1.56652 106.517 1.52419C109.057 1.48185 111.597 1.52419 114.095 1.52419C115.704 1.52419 117.312 1.52419 119.048 1.52419C119.048 3.13296 119.048 4.48771 119.048 5.84247C117.058 6.8162 117.058 6.8162 117.058 9.01767C117.058 11.1768 117.101 13.336 117.058 15.5374C117.016 17.0192 117.185 18.2469 119.09 18.3739C119.09 19.8557 119.09 21.2528 119.09 22.8192Z"/>
<path d="M61.2167 6.10136C59.3539 6.18604 59.1422 7.41378 59.1846 8.89555C59.2269 11.0547 59.1846 13.2138 59.1846 15.4153C59.1846 17.6168 59.1846 17.6168 61.2167 18.6328C61.2167 19.9876 61.2167 21.3424 61.2167 22.6548C59.2269 23.1205 48.6852 23.0781 46.9494 22.6124C46.9494 21.3424 46.9494 20.0299 46.9494 18.6328C50.0823 17.5321 48.6005 14.9073 48.9816 12.4518C46.8648 13.6372 45.0443 14.6109 43.3085 15.627C42.6312 16.008 42.5888 16.9394 43.2662 17.6168C43.6896 18.0401 44.2399 18.3365 44.7903 18.6752C44.7903 19.9453 44.7903 21.2577 44.7903 22.7394C44.1553 22.8241 43.6472 22.9511 43.0969 22.9511C39.583 22.9511 36.0691 22.9935 32.5552 22.9511C30.6924 22.9511 30.523 22.7394 30.4807 20.919C30.4807 20.1569 30.4807 19.3949 30.4807 18.7599C31.2851 18.2518 32.1741 17.9555 32.5128 17.4051C32.8939 16.7277 32.8939 15.7963 32.9362 14.9919C32.9785 13.1715 32.8939 11.351 32.9785 9.53059C33.0632 7.75247 32.7668 6.31305 30.8194 6.01669C30.6924 5.80501 30.6077 5.72034 30.6077 5.678C30.142 1.5714 30.2267 1.52907 34.2486 1.52907C37.1275 1.52907 40.0063 1.52907 42.8852 1.52907C43.5625 1.52907 44.2823 1.52907 45.129 1.52907C45.129 3.0955 45.129 4.45026 45.129 5.93202C44.8326 6.01669 44.5363 6.18604 44.2399 6.22837C43.2662 6.44005 42.8428 7.07509 42.8428 8.04882C42.8428 9.23424 42.8428 10.4196 42.8428 11.9014C44.8326 10.7583 46.6531 9.7846 48.4312 8.7262C49.1933 8.2605 49.2356 7.41378 48.5582 6.77874C48.1772 6.39772 47.6268 6.18604 47.1611 5.88968C47.1188 5.72034 47.0341 5.50866 47.0341 5.29698C46.9494 0.978698 46.9071 1.5714 50.7173 1.52907C53.5115 1.52907 56.348 1.52907 59.1422 1.52907C59.8196 1.52907 60.497 1.61374 61.3014 1.65608C61.2167 3.18017 61.2167 4.45026 61.2167 6.10136Z"/>
<path d="M134.034 6.26762C134.034 7.5377 134.034 8.5961 134.034 9.56983C134.796 9.90852 135.515 9.95086 135.769 9.27348C136.193 8.04574 137.082 8.21508 137.971 8.21508C138.606 8.21508 139.199 8.21508 140.045 8.21508C140.045 10.7552 140.045 13.1684 140.045 15.7086C138.86 15.7086 137.675 15.7086 136.32 15.7086C135.769 15.3275 135.769 13.5918 134.076 14.3961C134.076 15.5392 134.076 16.767 134.076 18.2064C136.023 18.2064 137.886 18.2911 139.749 18.1641C141.061 18.0794 141.866 17.1057 142.162 15.8779C142.332 15.2852 142.332 14.6502 142.416 14.0575C143.94 13.5494 147.92 13.4648 150.375 13.9305C150.375 15.3275 150.375 16.767 150.418 18.2064C150.418 19.6458 150.418 21.1276 150.418 22.7364C149.698 22.821 149.19 22.948 148.64 22.948C140.342 22.948 132.044 22.948 123.746 22.948C121.841 22.948 121.672 22.7364 121.629 20.9159C121.629 20.1539 121.629 19.3918 121.629 18.5028C123.788 18.1641 124.127 16.6823 124.085 14.9465C124.042 13.0414 124.085 11.1786 124.085 9.27348C124.085 7.62238 123.873 6.14061 121.883 5.97127C121.206 1.65299 121.291 1.48364 125.355 1.48364C132.806 1.48364 140.257 1.48364 147.708 1.48364C148.47 1.48364 149.232 1.48364 149.952 1.48364C150.502 3.09241 150.587 9.10414 150.079 11.602C147.624 11.729 145.168 11.6443 142.416 11.6443C142.374 10.8399 142.289 10.1625 142.289 9.5275C142.205 7.28369 141.57 6.52164 139.283 6.30996C137.632 6.18295 135.939 6.26762 134.034 6.26762Z"/>
<path d="M0.424927 22.7362C0.424927 21.2544 0.424927 19.9844 0.424927 18.6719C2.45706 17.5712 2.45706 17.5712 2.4994 15.285C2.4994 13.2529 2.41472 11.2208 2.54173 9.18865C2.58407 7.53755 2.33005 6.26746 0.467263 5.97111C0.467263 4.53168 0.467263 3.21926 0.467263 1.94918C2.07603 1.44115 25.9113 1.35648 28.1974 1.82217C28.1974 3.98131 28.1974 6.18279 28.1974 8.55361C26.758 8.55361 25.4032 8.55361 23.8791 8.55361C23.4981 6.81783 22.228 6.47914 20.4922 6.56382C18.0367 6.69082 15.5812 6.60615 12.8294 6.60615C12.7871 7.66455 12.7447 8.59595 12.6601 9.65435C13.3374 9.73902 13.8878 9.82369 14.4382 9.82369C16.8513 9.82369 19.2222 9.82369 21.6353 9.82369C23.5828 9.82369 25.4032 10.4164 26.9273 11.6018C30.8222 14.6923 29.2558 19.561 26.1653 21.2968C24.3448 22.3128 22.355 22.8632 20.3229 22.8632C14.0148 22.9902 7.74907 22.9479 1.48333 22.9479C1.22931 22.9479 0.93296 22.8209 0.424927 22.7362ZM12.9564 13.9303C12.4484 15.158 12.6177 16.4281 12.8717 17.8252C14.3535 17.8252 15.7083 17.8675 17.1053 17.8252C17.8674 17.7829 18.3331 17.2325 18.5024 16.4705C18.6718 15.6661 18.5024 14.904 17.7827 14.4383C17.3594 14.1843 16.8937 13.9726 16.428 13.9726C15.2849 13.888 14.1842 13.9303 12.9564 13.9303Z"/>
<path d="M172.689 3.09344C174.297 1.10364 176.202 2.33139 178.108 1.9927C178.108 5.16791 178.108 8.04676 178.108 11.1796C175.525 11.349 173.027 11.2643 170.445 11.2643C170.318 10.4176 170.233 9.7402 170.064 9.10516C169.556 7.20004 167.778 6.26864 165.999 7.07303C165.491 7.28471 164.899 7.79274 164.772 8.30078C163.967 10.8833 164.137 13.5505 164.56 16.1753C164.772 17.4877 165.999 18.3344 167.1 18.3344C168.37 18.3344 169.513 17.53 169.979 16.26C170.191 15.6673 170.275 15.0746 170.445 14.2278C172.943 14.1432 175.44 14.1855 178.108 14.2278C178.362 17.276 177.218 19.5198 175.017 21.2556C172.773 22.9914 170.106 23.6264 167.354 23.8805C165.026 24.0921 162.697 23.8805 160.496 23.1184C157.067 21.9753 154.399 19.9009 153.002 16.514C151.309 12.3227 152.875 7.1577 156.643 4.5752C161.215 1.39999 166.169 0.637944 171.418 2.67008C171.842 2.71241 172.223 2.88176 172.689 3.09344Z"/>
<path d="M73.7082 19.0116C74.2162 19.0962 74.4702 19.1809 74.7242 19.2232C75.9096 19.3502 76.7564 18.9269 77.1374 18.0802C77.6031 17.0218 77.2644 15.7093 76.1637 15.159C75.3169 14.6933 74.3432 14.4393 73.4118 14.1852C72.5228 13.9312 71.6337 13.8042 70.787 13.6349C70.66 13.4655 70.533 13.3809 70.4906 13.2539C70.0249 10.756 70.0249 10.756 72.6921 10.6714C73.5388 10.629 74.3432 10.502 75.1899 10.375C76.7564 10.0786 77.3914 8.93557 77.5608 7.53848C77.8571 5.59102 76.587 4.70196 74.4279 5.37934C74.4279 5.67569 74.4279 6.01438 74.4279 6.35307C74.4279 8.2582 73.6658 9.23193 71.803 9.48594C70.1096 9.73996 68.4162 9.52828 66.8074 8.93557C64.8599 8.21586 64.1826 5.71803 65.495 4.06692C66.257 3.09319 67.1884 2.41581 68.3738 2.07713C73.6658 0.468355 78.8308 0.553027 83.9958 2.71217C87.0017 3.98225 88.2718 8.59688 84.4192 10.9677C84.0805 11.1794 83.6995 11.3911 83.1491 11.7721C83.7842 12.1955 84.2499 12.4918 84.7579 12.8305C87.5097 14.5663 87.9754 18.2495 85.7316 20.6203C84.5885 21.8481 83.1068 22.5255 81.5827 22.9912C76.6717 24.4306 71.8454 23.9649 67.1037 22.3138C66.257 22.0174 65.4526 21.4671 64.7753 20.8743C62.8701 19.2232 63.2512 16.5984 65.495 15.54C68.0775 14.3546 70.6176 14.8203 72.9885 16.1327C74.1739 16.6831 74.4279 17.7415 73.7082 19.0116Z"/>
<path d="M19.2629 25.4455C19.5169 26.8849 19.8133 27.9857 18.5009 28.8747C18.2045 29.0864 18.2892 29.8061 18.1198 30.7375C18.8819 30.3142 19.2629 30.1871 19.5169 29.8908C19.898 29.4251 20.279 28.8747 20.533 28.3244C22.0148 25.3608 24.3009 24.8528 26.9681 25.0645C28.4498 25.1915 28.7039 25.5725 28.7462 27.0543C28.7462 27.6046 28.7462 28.155 28.7462 28.663C27.2644 29.7638 25.9097 30.7798 24.3432 31.9229C25.698 32.2193 26.6717 33.0237 27.2221 34.3784C27.4338 34.8865 28.3228 35.0558 29.0426 35.4792C29.0426 36.5376 29.0426 37.723 29.0426 38.866C25.317 40.3478 22.4381 39.3741 20.66 36.0295C20.152 35.0558 19.771 33.9551 18.4162 33.5317C18.1198 34.5054 17.7812 35.2675 18.9242 36.0295C20.0673 36.7916 19.1359 37.9347 19.5593 38.9931C18.9242 39.1201 18.5432 39.2894 18.1198 39.2894C15.9607 39.3317 13.7592 39.2894 11.6001 39.2894C10.838 39.2894 9.99132 39.3317 9.77964 38.3157C9.52562 37.2573 9.82197 36.4952 10.7957 35.9025C10.965 35.7755 11.1344 35.6485 11.3037 35.5215C11.3037 34.9711 11.3037 34.4208 11.3037 33.9127C11.1344 33.828 10.965 33.701 10.8804 33.7434C10.3723 34.0821 9.82197 34.3361 9.44095 34.8018C9.01759 35.3521 8.80591 36.0719 8.46722 36.6646C7.45115 38.4003 6.01172 39.5434 3.85258 39.3741C2.66717 39.2894 1.5241 39.2894 0.254017 39.2471C0.169344 37.85 0.0846722 36.7069 0 35.4368C1.35475 35.1405 2.20148 34.4208 2.92119 33.32C3.34455 32.6426 4.31828 32.3039 5.03799 31.8383C3.68324 30.8222 2.20148 29.7638 0.550369 28.6207C0.550369 27.8587 0.550369 26.8003 0.550369 25.8265C4.06426 24.2178 6.77377 24.9375 8.76357 28.028C9.1446 28.6207 9.44095 29.2558 9.86431 29.8061C10.1183 30.1448 10.584 30.2718 11.0074 30.5682C11.3461 29.0017 11.3461 29.0017 9.82197 28.028C9.82197 27.3083 9.82197 26.5886 9.82197 25.7419C11.3884 25.1491 12.9125 25.4878 14.4366 25.4455C16.003 25.4032 17.5271 25.4455 19.2629 25.4455Z"/>
<path d="M56.0961 28.789C55.5881 28.5349 55.0801 28.3233 54.572 28.0692C54.572 27.1379 54.572 26.2911 54.572 25.1904C56.6465 24.9787 58.6786 24.9787 60.6684 25.1481C61.2611 25.1904 61.8538 25.8254 62.5312 26.2488C64.1823 25.4021 66.0028 25.0634 67.9502 24.9787C73.3692 24.8094 75.7401 29.7627 74.597 33.827C73.4539 37.8489 71.3794 38.9073 67.5692 39.2883C66.2144 39.4153 64.8174 39.1613 63.3779 39.119C62.6582 40.8971 62.7852 41.0664 65.3254 41.6168C65.3254 42.4212 65.3254 43.2679 65.3254 44.284C61.7692 44.284 58.2976 44.284 54.6567 44.284C54.6567 43.3949 54.6567 42.5905 54.6567 41.7438C55.1224 41.5321 55.6304 41.3204 56.1385 41.0664C56.0961 36.9175 56.0961 32.8956 56.0961 28.789ZM62.9546 32.2605C62.9546 32.8956 62.9122 33.5306 62.9546 34.1233C63.0392 35.5204 63.9706 36.1978 65.3254 35.7744C66.2991 35.4781 66.9342 34.8007 67.0188 33.8693C67.1458 32.6415 67.1458 31.3715 67.0188 30.1437C66.8918 29.0853 66.0028 28.4503 64.9444 28.4926C63.8013 28.5349 62.9969 29.2547 62.9122 30.3977C62.9546 30.9904 62.9546 31.6255 62.9546 32.2605Z"/>
<path d="M98.4302 28.0295C96.3981 28.8339 96.3981 28.8339 96.3558 30.612C96.3558 32.2208 96.3558 33.8296 96.3558 35.5654C96.8215 35.7347 97.2872 35.8617 97.7105 36.0734C98.6843 36.5814 98.4302 37.5128 98.3456 38.3172C98.3032 38.9946 97.8375 39.2909 97.2025 39.2909C95.001 39.3333 92.8419 39.3333 90.6404 39.2909C90.09 39.2909 89.5397 39.2063 88.9046 39.1639C88.7353 37.8092 88.2272 36.5391 89.6243 35.523C89.9207 35.3113 89.836 34.6763 89.963 34.0413C88.3966 34.0413 87.0418 34.0413 85.4331 34.0413C85.4754 34.634 85.3484 35.4383 85.6024 35.6077C87.1265 36.4544 86.5761 37.7245 86.5761 38.8676C85.1367 39.4179 79.4637 39.5026 77.0505 39.0369C77.0505 38.1902 77.0505 37.3011 77.0505 36.3274C77.4315 36.1157 77.9396 35.904 78.4899 35.6077C78.4899 33.4062 78.4899 31.1624 78.4899 28.8339C78.0666 28.6222 77.5585 28.3682 77.0082 28.1142C77.0082 27.3098 77.0082 26.5478 77.0082 25.7434C78.744 25.32 84.2053 25.2777 86.4068 25.6587C86.6608 26.7594 87.0418 27.9025 85.7294 28.7492C85.5177 28.8763 85.4331 29.2149 85.3907 29.469C85.3484 29.6806 85.4331 29.8923 85.4754 30.1887C86.8725 30.6544 88.3119 30.485 89.836 30.2733C89.9207 28.6222 87.7192 27.5215 88.947 25.7434C90.2594 25.32 95.3397 25.2353 98.2609 25.6164C98.3456 26.3784 98.3879 27.1828 98.4302 28.0295Z"/>
<path d="M30.9075 27.8597C30.9075 27.267 30.9075 26.505 30.9075 25.7853C32.5162 25.3619 39.3747 25.2772 42.1265 25.6582C42.1689 26.4203 42.2112 27.1823 42.2535 28.0714C41.6608 28.3254 41.1951 28.5371 40.5601 28.8335C40.8564 30.6539 42.2112 31.797 43.2696 33.6174C44.1163 31.8816 44.7937 30.4422 45.5134 28.9181C44.9631 28.6218 44.2433 28.4524 44.1163 28.0714C43.8623 27.394 43.947 26.5896 43.9046 25.8276C45.3864 25.1925 46.8258 25.5736 48.1806 25.4889C49.5777 25.4466 50.9748 25.4889 52.6259 25.4889C52.6682 26.4203 52.7529 27.2247 52.7952 28.1984C50.001 28.6218 49.7047 31.1619 48.6886 33.0247C47.1222 35.9036 45.8944 38.9518 44.328 41.8306C42.3382 45.4715 38.9513 46.6146 35.3104 45.0058C35.3104 43.6087 35.3104 42.254 35.3104 40.6452C35.9878 40.6452 36.5805 40.6876 37.2155 40.6452C38.8243 40.5605 39.2053 39.8832 38.3586 38.4861C37.1732 36.4963 35.9455 34.5912 34.7177 32.6014C34.2097 31.7546 33.744 30.9079 33.1089 30.1459C32.5586 29.3415 31.7965 28.7064 30.9075 27.8597Z"/>
<path d="M100.888 29.5965C101.523 27.2257 102.878 26.0826 104.699 25.5746C108.001 24.6856 111.388 24.8126 114.69 25.6593C117.018 26.252 117.865 27.4797 117.865 29.9352C117.865 31.2053 117.823 32.4331 117.865 33.7031C117.908 34.6345 117.527 35.7353 118.839 36.1586C118.966 37.09 119.093 38.0214 119.22 39.2068C116.553 39.3762 114.14 40.0112 111.938 38.0638C109.61 39.5879 106.985 39.4185 104.402 39.3338C103.132 39.2915 101.989 38.8681 100.973 37.9791C99.322 36.582 99.5337 33.4068 101.608 32.2637C103.048 31.4593 104.529 30.909 106.18 30.909C107.493 30.8666 108.848 30.6973 110.16 30.5279C110.456 30.4856 110.922 30.0622 110.922 29.8082C110.922 29.5119 110.626 29.0885 110.287 28.9192C109.61 28.4958 108.763 28.3688 108.128 28.9192C106.985 29.8929 105.672 29.8082 104.36 29.7659C103.302 29.6389 102.201 29.6389 100.888 29.5965ZM110.922 33.7031C109.864 33.2375 108.975 33.4915 108.255 34.0842C108.001 34.2958 107.832 34.8039 107.832 35.1426C107.832 35.3966 108.213 35.7353 108.509 35.82C110.16 36.455 111.049 35.6929 110.922 33.7031Z"/>
<path d="M140.807 25.5741C140.765 26.4631 140.68 27.2252 140.638 28.1142C139.326 28.4529 138.86 29.3843 138.987 30.7391C139.114 32.3478 139.029 33.9566 139.029 35.6077C139.664 35.8617 140.257 36.0734 140.85 36.2851C140.765 37.2588 140.68 38.1055 140.596 39.1639C137.42 39.1639 134.372 39.1639 131.197 39.1639C130.943 37.9362 130.35 36.6661 131.917 35.7347C132.213 35.5654 132.213 34.8457 132.255 34.38C132.298 32.6442 132.255 30.9084 132.255 29.0033C131.282 29.0033 130.223 29.0033 128.911 29.0033C128.742 30.5697 128.657 32.0938 128.445 33.5756C128.276 34.761 128.149 35.9464 127.81 37.0471C127.344 38.5289 126.201 39.2909 124.635 39.3333C124 39.3756 123.365 39.3756 122.73 39.3333C121.036 39.2486 120.825 39.0369 120.782 37.3435C120.782 37.0048 120.825 36.6661 120.867 36.3698C121.036 36.2427 121.121 36.0734 121.206 36.0311C123.619 35.3537 124 34.888 124.085 32.3902C124.127 31.2048 124.085 30.0193 124.085 28.8763C123.323 28.5799 122.772 28.3259 122.137 28.0719C122.137 27.2252 122.137 26.4631 122.137 25.4894C128.445 25.5741 134.542 25.5741 140.807 25.5741Z"/>
</svg>
