<svg width="188" height="38" viewBox="0 0 188 38" fill="none" xmlns="http://www.w3.org/2000/svg">
<path d="M24.1707 0.380859C24.1707 2.2903 24.1707 4.19974 24.1707 6.2489C21.2833 6.5749 18.5356 6.34204 15.7412 6.38861C12.9469 6.43519 10.1526 6.38861 7.26519 6.38861C6.7529 6.85433 6.19404 7.41319 5.63518 7.92548C5.63518 15.1907 5.63518 22.3627 5.63518 29.8608C6.05433 30.2334 6.61319 30.7922 7.17205 31.3511C12.6209 31.3511 18.0233 31.3511 23.5653 31.3511C23.5653 33.3537 23.5653 35.2165 23.5653 37.2657C23.053 37.3123 22.5873 37.3588 22.1681 37.3588C17.6973 37.3588 13.1798 37.452 8.70892 37.3588C5.12289 37.2191 2.23544 35.6357 0.558861 32.3757C0.186287 31.6771 0.0465717 30.7922 0.0465717 29.9539C0 22.875 0 15.8427 0 8.76377C0.0465717 4.4326 2.65459 1.45201 6.98576 0.800005C7.17205 0.753433 7.31176 0.520575 7.45148 0.380859C13.0401 0.380859 18.6287 0.380859 24.1707 0.380859Z"/>
<path d="M163.653 37.2172C162.116 37.2172 160.905 37.2172 159.508 37.2172C159.508 30.3246 159.508 23.5251 159.508 16.7256C159.415 16.7256 159.275 16.6791 159.182 16.6791C156.341 23.2923 153.547 29.9054 150.845 36.2392C149.402 37.7295 147.865 37.2172 146.468 37.3569C144.651 36.2858 144.046 34.7489 144.093 32.6998C144.186 25.8071 144.139 18.8679 144.139 11.9753C144.139 11.2767 144.139 10.6247 144.139 9.78645C145.536 9.78645 146.84 9.78645 148.284 9.78645C148.284 16.9119 148.284 24.0374 148.284 31.1629C148.377 31.1629 148.517 31.2095 148.61 31.2095C149.448 29.2069 150.24 27.1577 151.078 25.1551C152.801 21.0102 154.478 16.8654 156.248 12.767C157.179 10.6247 158.763 9.32073 161.371 9.73988C163.094 10.7645 163.699 12.3013 163.653 14.3039C163.56 21.1965 163.606 28.1357 163.606 35.0283C163.653 35.6803 163.653 36.3323 163.653 37.2172Z"/>
<path d="M187.727 9.60267C187.727 18.9636 187.727 27.9985 187.727 37.1731C186.376 37.1731 185.119 37.1731 183.675 37.1731C183.675 35.3103 183.675 33.494 183.675 31.538C181.486 31.864 179.484 31.7708 177.248 31.6311C176.131 33.1214 175.851 35.1706 175.013 37.1731C173.662 37.1731 172.219 37.1731 170.635 37.1731C170.868 35.0774 172.126 33.3543 172.452 31.2585C171.846 30.886 171.194 30.56 170.635 30.1408C168.446 28.6505 168.027 26.2754 167.888 23.9002C167.748 21.6182 167.748 19.2896 167.888 17.0076C167.981 15.5639 168.167 14.0736 169.005 12.6764C170.076 10.9067 171.613 10.3478 173.523 9.97525C175.898 9.50953 178.273 9.5561 180.648 9.5561C182.93 9.60267 185.212 9.60267 187.727 9.60267ZM183.489 27.0671C183.489 22.6893 183.489 18.591 183.489 14.2598C180.322 14.2598 177.248 14.2133 174.221 14.3064C173.662 14.3064 173.104 14.679 172.545 14.9119C172.545 18.6842 172.545 22.3633 172.545 26.0891C172.871 26.4616 173.243 26.8342 173.43 27.0671C176.922 27.0671 180.182 27.0671 183.489 27.0671Z"/>
<path d="M119.969 14.1654C115.591 14.1654 111.493 14.1654 107.348 14.1654C106.882 14.5845 106.463 15.0037 106.044 15.3762C106.044 17.2391 106.044 19.0088 106.044 20.8717C107.534 21.3374 109.071 21.058 110.608 21.1046C112.098 21.1511 113.542 21.1046 115.032 21.1046C116.569 21.1046 118.106 21.1046 119.736 21.1046C120.155 22.4551 119.922 23.7126 119.922 25.2494C115.312 25.3426 110.794 25.2494 106.184 25.3426C106.184 27.4383 106.184 29.4409 106.184 31.5366C106.882 32.4215 107.907 32.6544 109.118 32.6544C111.819 32.6078 114.52 32.6544 117.221 32.6544C117.92 32.6544 118.572 32.6544 119.41 32.6544C119.41 34.2378 119.41 35.6815 119.41 37.265C117.081 37.265 114.893 37.265 112.657 37.265C110.748 37.265 108.838 37.265 106.929 36.8458C103.809 36.1938 102.272 34.3309 101.806 31.1175C101.154 26.8329 101.48 22.5483 101.48 18.3103C101.48 16.4474 101.759 14.5845 102.551 12.7682C103.343 11.0451 104.88 10.3465 106.556 10.0205C110.887 9.1822 115.312 9.64791 119.643 9.5082C120.295 10.2533 119.969 11.0916 120.016 11.7902C119.969 12.5819 119.969 13.2339 119.969 14.1654Z"/>
<path d="M72.6076 9.64941C73.7254 9.64941 74.6568 9.64941 75.5882 9.64941C77.3114 11.4657 77.7771 13.7943 78.5688 15.9832C81.0371 22.5032 83.4123 29.0698 85.834 35.5899C86.0203 36.0556 86.1134 36.6145 86.2532 37.1733C84.7629 37.1733 83.3191 37.1733 81.7823 37.1733C81.0371 35.2639 80.292 33.3544 79.5003 31.3984C75.8211 31.3984 72.1885 31.3984 68.4162 31.3984C66.9725 32.8887 67.0656 35.2639 65.9479 37.1267C64.5042 37.1267 63.0604 37.1267 61.4304 37.1267C62.4084 34.379 63.2933 31.6778 64.2713 29.0233C65.8547 24.7387 67.4848 20.5006 69.0682 16.2626C69.5805 14.8654 69.9531 13.3752 70.6516 12.0246C71.1639 11.1397 72.0022 10.3946 72.6076 9.64941ZM77.8237 27.0672C76.8922 23.1086 74.7034 17.4735 73.6322 16.3092C72.3748 19.8486 71.1173 23.3881 69.8133 27.0672C72.6076 27.0672 75.2157 27.0672 77.8237 27.0672Z"/>
<path d="M49.2288 27.1583C49.2288 30.6977 49.2288 33.8646 49.2288 37.2178C47.8783 37.2178 46.6674 37.2178 45.41 37.2178C44.9442 35.6343 44.758 15.9811 45.1771 9.78701C45.6428 9.74044 46.1551 9.60073 46.6674 9.60073C49.8343 9.60073 53.0012 9.50758 56.168 9.6473C57.6118 9.69387 59.0089 10.0199 60.4526 10.3459C62.6881 10.8116 64.6907 13.373 64.5975 15.7016C64.551 17.4714 64.5975 19.2411 64.5975 21.0108C64.551 24.4105 61.8964 27.1583 58.3103 27.1583C55.4229 27.1583 52.4889 27.1583 49.2288 27.1583ZM49.3686 22.9202C52.6286 22.9202 55.7023 22.9202 58.8692 22.9202C59.3815 22.4545 59.9869 21.9422 60.4061 21.5231C60.4061 19.3342 60.4061 17.4248 60.4061 15.4222C60.0801 15.003 59.7075 14.5373 59.5678 14.351C55.8886 14.351 52.6752 14.351 49.4151 14.351C49.3686 17.2385 49.3686 19.9397 49.3686 22.9202Z"/>
<path d="M36.2821 37.219C34.7453 37.219 33.5344 37.219 32.1838 37.219C32.1838 29.6278 32.1838 22.1298 32.1838 14.5386C30.3675 13.8866 28.5512 14.492 26.6884 14.1194C26.3624 12.7688 26.5021 11.3251 26.5952 9.92797C28.4115 9.5554 39.4956 9.50883 42.2433 9.83483C42.2433 11.232 42.2433 12.6291 42.2433 14.2126C40.3339 14.2126 38.471 14.2126 36.4219 14.2126C36.2821 16.8672 36.3753 19.382 36.3287 21.8503C36.3287 24.3652 36.3287 26.9267 36.3287 29.4415C36.2821 32.003 36.2821 34.5179 36.2821 37.219Z"/>
<path d="M98.9175 9.78968C98.9175 11.28 98.9175 12.6771 98.9175 14.1674C97.0081 14.1674 95.1452 14.1674 93.2358 14.1674C92.7235 16.17 93.0495 18.0794 93.0029 19.9423C92.9563 21.8518 93.0029 23.8078 93.0029 25.7172C93.0029 27.5801 93.0029 29.3964 93.0029 31.2593C93.0029 33.1687 93.0029 35.0781 93.0029 37.0807C91.6523 37.4533 90.3483 37.267 88.9512 37.2204C88.6717 34.659 88.858 32.0975 88.8115 29.6292C88.7649 27.1144 88.8115 24.5529 88.8115 22.038C88.8115 19.5232 88.8115 17.0083 88.8115 14.3071C86.9486 14.3071 85.272 14.3071 83.5023 14.3071C82.99 12.7703 83.2694 11.3265 83.2694 9.92939C84.946 9.51025 95.3781 9.4171 98.9175 9.78968Z"/>
<path d="M127.84 37.2206C126.303 37.2206 125.092 37.2206 123.742 37.2206C123.695 36.7083 123.648 36.2891 123.648 35.8234C123.648 29.3499 123.648 22.923 123.648 16.4496C123.648 14.3538 124.44 12.6307 125.977 11.187C127.234 9.97609 128.864 9.69666 130.401 9.65009C133.941 9.4638 137.48 9.60352 141.206 9.60352C141.206 11.1404 141.206 12.5375 141.206 14.1676C137.154 14.2607 133.056 14.1676 129.097 14.2607C128.026 15.1921 127.886 16.2633 127.886 17.4741C127.933 23.249 127.886 28.9774 127.886 34.7523C127.84 35.4974 127.84 36.2426 127.84 37.2206Z"/>
</svg>
