<svg width="166" height="42" viewBox="0 0 166 42" fill="none" xmlns="http://www.w3.org/2000/svg">
<path d="M0 0.179688C38.8338 0.179688 77.5594 0.179688 116.393 0.179688C116.393 13.9542 116.393 27.7287 116.393 41.5844C77.6135 41.5844 38.8609 41.5844 0 41.5844C0 27.7557 0 14.0083 0 0.179688ZM98.6676 21.288H98.6406C98.6406 18.5547 98.7488 15.7944 98.6135 13.0611C98.397 9.27248 96.3674 6.94516 92.7411 5.94387C90.3326 5.29438 87.9241 5.26732 85.5155 5.7815C82.0246 6.51217 79.2913 8.86655 79.2101 11.7622C78.9936 17.824 78.9936 23.913 79.1289 29.9748C79.1831 33.2764 81.321 35.2789 84.3519 36.3073C86.9228 37.2003 89.5748 37.1733 92.2269 36.632C96.3132 35.7661 98.5323 33.1681 98.7217 29.0006C98.7759 26.4297 98.6676 23.8588 98.6676 21.288ZM18.5645 24.8601C18.5645 28.2429 18.6186 31.5173 18.5374 34.7918C18.5103 36.0367 18.9163 36.3344 20.0799 36.2802C21.7848 36.199 23.5168 36.172 25.2217 36.2802C26.5206 36.3614 26.7913 35.8472 26.7913 34.6565C26.7371 25.6449 26.7642 16.6333 26.7642 7.6217C26.7642 7.18871 26.7101 6.75572 26.683 6.24155C23.9498 6.24155 21.3248 6.24155 18.5374 6.24155C18.5374 9.78665 18.5374 13.2235 18.5374 16.6604C17.4279 16.6604 16.4536 16.6604 15.3441 16.6604C15.3441 13.1153 15.3441 9.65135 15.3441 6.24155C12.4755 6.24155 9.74228 6.24155 6.98197 6.24155C6.98197 16.2274 6.98197 26.132 6.98197 36.2261C9.28223 36.2261 11.5284 36.1449 13.7745 36.2532C15.0735 36.3073 15.4794 35.9284 15.4253 34.6024C15.3441 31.382 15.3982 28.1346 15.3982 24.8331C16.5077 24.8601 17.482 24.8601 18.5645 24.8601ZM37.3454 13.3318C39.3209 13.3318 41.1611 13.3588 43.0013 13.3047C43.3531 13.3047 43.9756 12.8717 44.0026 12.6282C44.0838 10.5173 44.0567 8.43356 44.0567 6.29567C39.1044 6.29567 34.3145 6.29567 29.5786 6.29567C29.4975 6.51217 29.4433 6.59335 29.4433 6.67454C29.4163 16.2274 29.4163 25.7802 29.3892 35.306C29.3892 36.1179 29.8222 36.2532 30.4987 36.2532C34.6392 36.2261 38.7797 36.2261 42.9201 36.2532C43.8403 36.2532 44.0838 35.8743 44.0567 35.0354C44.0026 33.2222 43.9756 31.4362 44.0838 29.623C44.1379 28.4323 43.7591 28.0264 42.5683 28.1075C40.8364 28.2158 39.1044 28.1346 37.4266 28.1346C37.4266 26.7545 37.4266 25.5908 37.4266 24.4001C39.1315 24.4001 40.7011 24.373 42.2707 24.4271C43.1908 24.4542 43.5696 24.1836 43.5426 23.2093C43.4884 21.5044 43.4614 19.7725 43.5426 18.0676C43.5967 17.0392 43.2178 16.7145 42.2165 16.7686C40.6199 16.8498 38.9962 16.7957 37.3454 16.7957C37.3454 15.5779 37.3454 14.5766 37.3454 13.3318ZM63.0001 6.18743C63.0001 16.2544 63.0001 26.1591 63.0001 36.172C67.5194 36.172 71.9575 36.172 76.4228 36.172C76.4228 33.574 76.4228 31.1114 76.4228 28.4594C74.7179 28.4594 73.1212 28.4594 71.3622 28.4594C71.3622 27.8369 71.3622 27.3498 71.3622 26.8627C71.3622 23.6153 71.3622 20.3949 71.3622 17.1475C71.3622 13.9001 71.3893 10.6526 71.3351 7.43227C71.3351 7.02634 70.9292 6.26861 70.7127 6.26861C68.1689 6.16036 65.6251 6.18743 63.0001 6.18743ZM54.8815 6.16036C52.3106 6.16036 49.9292 6.1333 47.5477 6.21449C47.25 6.21449 46.7629 6.86397 46.7629 7.21578C46.7088 16.5521 46.7359 25.8614 46.7088 35.1978C46.7088 35.9284 46.9253 36.2532 47.7101 36.2532C51.5529 36.2261 55.3686 36.2261 59.2114 36.2532C59.9691 36.2532 60.2668 35.9826 60.2398 35.2248C60.2127 33.4117 60.1586 31.6256 60.2668 29.8124C60.3209 28.6758 59.8609 28.4052 58.8325 28.4594C57.5606 28.5135 56.2617 28.4864 54.8815 28.4864C54.8815 20.9361 54.8815 13.6565 54.8815 6.16036ZM101.266 6.24155C101.266 7.21578 101.266 8.08176 101.266 8.9748C101.266 14.8202 101.266 20.6926 101.266 26.538C101.266 27.0792 101.022 27.8369 101.969 27.8369C104.351 27.864 106.732 27.8369 109.141 27.8369C109.141 20.5302 109.141 13.4129 109.141 6.24155C106.543 6.24155 103.999 6.24155 101.266 6.24155ZM109.817 33.3034C109.817 30.6784 107.815 28.6758 105.19 28.7029C102.727 28.73 100.616 30.8137 100.616 33.2493C100.616 35.7119 102.7 37.7145 105.244 37.7145C107.842 37.7416 109.817 35.8472 109.817 33.3034Z"/>
<path d="M141.996 6.37482C144.675 6.37482 147.165 6.3207 149.682 6.42895C149.98 6.42895 150.386 7.2408 150.521 7.72792C151.549 11.9496 152.523 16.1983 153.498 20.447C153.552 20.7176 153.687 20.9882 154.066 21.2589C154.553 19.2022 155.067 17.1455 155.554 15.0617C156.15 12.5179 156.772 10.0011 157.313 7.4573C157.476 6.6725 157.773 6.3207 158.639 6.34776C160.967 6.40188 163.294 6.37482 165.811 6.37482C164.837 9.7305 163.916 12.8697 163.023 16.0089C161.21 22.2601 159.397 28.5114 157.638 34.7898C157.395 35.6558 157.043 36.0617 156.069 36.0076C154.634 35.9264 153.173 35.9264 151.739 36.0076C150.737 36.0617 150.413 35.6287 150.169 34.7627C147.842 26.6171 145.487 18.4715 143.133 10.2988C142.754 9.05395 142.402 7.8091 141.996 6.37482Z"/>
<path d="M135.928 12.6825C135.928 20.5034 135.928 28.1078 135.928 35.9287C133.466 35.9287 131.111 35.9558 128.73 35.8746C128.513 35.8746 128.162 35.0627 128.162 34.6297C128.107 30.9493 128.134 27.2418 128.134 23.5614C128.134 20.5034 128.134 17.4454 128.134 14.3874C128.134 13.8733 128.08 13.332 128.026 12.6825C126.727 12.6825 125.564 12.6555 124.4 12.6825C123.669 12.7096 123.344 12.466 123.344 11.6813C123.399 10.1928 123.317 8.70444 123.399 7.21604C123.426 6.91836 123.94 6.37712 124.238 6.37712C129.379 6.323 134.521 6.35006 139.636 6.323C140.339 6.323 140.61 6.59362 140.61 7.27016C140.583 8.75857 140.583 10.247 140.61 11.7354C140.61 12.439 140.312 12.6825 139.636 12.6555C138.445 12.6555 137.281 12.6825 135.928 12.6825Z"/>
<path d="M87.5979 21.1526C87.5979 19.2583 87.5979 17.364 87.5979 15.4697C87.5979 14.9825 87.4897 14.4142 87.6791 14.0083C87.9227 13.5212 88.4368 13.1965 88.8157 12.7905C89.1946 13.1965 89.8711 13.6024 89.8711 14.0354C89.9523 18.7712 89.9523 23.48 89.8711 28.2158C89.8711 28.7029 89.2487 29.4877 88.7887 29.5689C87.8415 29.7854 87.625 28.9194 87.625 28.1617C87.5979 25.8344 87.625 23.48 87.625 21.1526C87.625 21.1526 87.625 21.1526 87.5979 21.1526Z"/>
</svg>
