<svg width="199" height="42" viewBox="0 0 199 42" fill="none" xmlns="http://www.w3.org/2000/svg">
<path d="M31.4967 40.721C27.5544 40.721 23.633 40.721 19.6907 40.721C19.6907 39.9367 19.6907 39.1838 19.6907 38.3577C20.4645 38.3577 21.2383 38.3577 22.033 38.3577C22.033 30.243 22.033 22.1806 22.033 14.0241C21.9703 14.1601 21.918 14.2124 21.9075 14.2751C20.8932 18.6043 19.8789 22.9335 18.8645 27.2628C17.8607 31.5711 16.8568 35.8689 15.8425 40.1668C15.6961 40.7942 15.8425 40.7315 15.1105 40.7315C14.2216 40.7315 13.3328 40.7106 12.4439 40.7419C12.0884 40.7524 11.9524 40.6478 11.8688 40.2923C10.8858 36.1408 9.89238 31.9998 8.89896 27.8484C7.85325 23.4564 6.80755 19.0749 5.76184 14.6829C5.73047 14.5365 5.68864 14.3901 5.59453 14.2437C5.59453 22.2538 5.59453 30.2639 5.59453 38.3263C6.43109 38.3263 7.24674 38.3263 8.11468 38.3263C8.11468 39.0897 8.12514 39.8008 8.09377 40.5223C8.09377 40.5955 7.85325 40.721 7.72777 40.721C6.45201 40.7315 5.16579 40.7315 3.89003 40.7315C2.73975 40.7315 1.58947 40.7315 0.439197 40.7315C0.303255 40.7315 0.156856 40.721 0 40.7105C0 39.9158 0 39.1525 0 38.3473C0.721537 38.3473 1.4117 38.3473 2.1437 38.3473C2.1437 26.6772 2.1437 15.0594 2.1437 3.39976C1.44307 3.39976 0.742451 3.39976 0.0104571 3.39976C0.0104571 2.60502 0.0104571 1.86257 0.0104571 1.06783C0.17777 1.06783 0.334626 1.06783 0.481025 1.06783C3.69134 1.06783 6.91212 1.07829 10.1224 1.05737C10.4675 1.05737 10.6139 1.15149 10.6976 1.50703C12.2348 7.81263 13.7929 14.1182 15.3405 20.4239C15.5287 21.2081 15.717 21.9924 15.9157 22.7767C15.9366 22.8708 15.9784 22.9649 16.083 23.059C16.1248 22.8917 16.1666 22.7244 16.2084 22.5571C17.4633 17.0985 18.7181 11.6295 19.973 6.17088C20.339 4.5814 20.705 2.99193 21.0605 1.40246C21.1128 1.16194 21.2069 1.05737 21.4684 1.05737C24.6996 1.06783 27.9204 1.06783 31.1516 1.06783C31.2562 1.06783 31.3503 1.08874 31.4758 1.0992C31.4758 1.85211 31.4758 2.59456 31.4758 3.37884C30.8693 3.37884 30.2837 3.37884 29.6458 3.37884C29.6353 3.56707 29.6249 3.70301 29.6249 3.83895C29.6249 15.1953 29.6249 26.5412 29.6144 37.8976C29.6144 38.2636 29.719 38.3786 30.0745 38.3577C30.5242 38.3263 30.9843 38.3473 31.4653 38.3473C31.4967 39.1525 31.4967 39.9158 31.4967 40.721Z"/>
<path d="M102.542 1.06824C102.719 1.06824 102.876 1.06824 103.023 1.06824C106.724 1.06824 110.416 1.06824 114.118 1.06824C114.619 1.06824 114.619 1.06824 114.619 1.58063C114.619 2.16623 114.619 2.75182 114.619 3.38971C113.929 3.38971 113.291 3.38971 112.591 3.38971C112.591 3.6093 112.591 3.77662 112.591 3.94393C112.591 15.248 112.591 26.5416 112.591 37.8457C112.591 38.3581 112.591 38.3581 113.093 38.3581C113.574 38.3581 114.055 38.3581 114.578 38.3581C114.578 39.1529 114.578 39.9267 114.578 40.7214C110.562 40.7214 106.557 40.7214 102.531 40.7214C102.531 39.9476 102.531 39.1842 102.531 38.3581C103.336 38.3581 104.142 38.3581 104.957 38.3581C104.957 33.0564 104.957 27.8174 104.957 22.5366C102.395 22.5366 99.8437 22.5366 97.2608 22.5366C97.2608 27.7756 97.2608 33.025 97.2608 38.3372C98.0869 38.3372 98.913 38.3372 99.7705 38.3372C99.7705 39.1529 99.7705 39.9162 99.7705 40.7214C99.6345 40.7319 99.4986 40.7423 99.3522 40.7423C95.5458 40.7423 91.7499 40.7423 87.9435 40.7528C87.5984 40.7528 87.4834 40.6691 87.5043 40.3136C87.5357 39.6757 87.5148 39.0378 87.5148 38.3581C88.2363 38.3581 88.9056 38.3581 89.6062 38.3581C89.6062 26.688 89.6062 15.0702 89.6062 3.40016C88.916 3.40016 88.2468 3.40016 87.5252 3.40016C87.5252 2.64725 87.5252 1.95709 87.5357 1.25646C87.5357 1.19372 87.6612 1.11007 87.7344 1.08915C87.8285 1.05778 87.9435 1.07869 88.0481 1.07869C91.8022 1.07869 95.5458 1.07869 99.2999 1.07869C99.8018 1.07869 99.8123 1.07869 99.8123 1.59109C99.8123 2.17669 99.8123 2.76228 99.8123 3.40016C98.9444 3.40016 98.1182 3.40016 97.2608 3.40016C97.2608 8.87966 97.2608 14.2964 97.2608 19.755C99.8227 19.755 102.374 19.755 104.957 19.755C104.957 14.3278 104.957 8.89012 104.957 3.42108C104.152 3.42108 103.357 3.42108 102.542 3.42108C102.542 2.61588 102.542 1.87343 102.542 1.06824Z"/>
<path d="M186.973 38.3464C186.973 39.162 186.973 39.9254 186.973 40.7097C183.742 40.7097 180.542 40.7097 177.31 40.7097C177.31 39.9149 177.31 39.162 177.31 38.3464C177.771 38.3464 178.21 38.3464 178.67 38.3464C178.67 26.8436 178.67 15.3931 178.67 3.89037C178.116 3.89037 177.572 3.87991 177.039 3.90083C176.746 3.91128 176.641 3.82763 176.652 3.52437C176.673 2.99106 176.662 2.45775 176.652 1.92444C176.652 1.68393 176.714 1.57936 176.976 1.54799C179.412 1.28656 181.849 1.02513 184.285 0.753251C184.641 0.711422 184.996 0.64868 185.404 0.585938C185.404 5.08247 185.404 9.51627 185.404 13.9396C185.436 13.9501 185.467 13.971 185.498 13.9814C185.582 13.8769 185.655 13.7723 185.739 13.6677C187.537 11.3672 190.947 10.4469 193.655 11.5554C195.129 12.1619 195.945 13.3436 196.29 14.8389C196.478 15.6859 196.604 16.5643 196.604 17.4323C196.625 24.2189 196.614 31.0055 196.614 37.7817C196.614 37.949 196.614 38.1163 196.614 38.3359C197.263 38.3359 197.869 38.3359 198.528 38.3359C198.528 39.1098 198.528 39.8418 198.517 40.5633C198.517 40.6156 198.413 40.6992 198.35 40.7201C198.256 40.7515 198.141 40.7306 198.036 40.7306C194.857 40.7306 191.689 40.7306 188.51 40.7306C188.364 40.7306 188.228 40.7306 188.05 40.7306C188.05 39.9359 188.05 39.1725 188.05 38.3359C188.405 38.3359 188.771 38.315 189.127 38.3464C189.514 38.3778 189.608 38.2418 189.608 37.8654C189.598 32.0303 189.598 26.2057 189.598 20.3707C189.598 19.3041 189.618 18.227 189.535 17.1708C189.451 16.1774 189.064 15.7696 188.353 15.6336C187.527 15.4768 186.659 15.8951 186.23 16.648C185.676 17.6414 185.572 18.7289 185.572 19.8269C185.561 25.8711 185.572 31.9048 185.561 37.949C185.561 38.2732 185.676 38.3568 185.969 38.3359C186.293 38.3359 186.607 38.3464 186.973 38.3464Z"/>
<path d="M57.628 11.1057C57.628 12.0677 57.628 12.988 57.628 13.9918C57.7535 13.8768 57.8267 13.835 57.8685 13.7722C59.7403 11.4612 62.1663 10.6979 65.0316 11.2939C66.8302 11.6704 67.9073 12.8939 68.3569 14.6193C68.5974 15.529 68.7334 16.4911 68.7334 17.4322C68.7647 24.2293 68.7543 31.0264 68.7543 37.8235C68.7543 38.3359 68.7543 38.3359 69.2562 38.3359C69.5386 38.3359 69.8209 38.3359 70.1346 38.3359C70.1346 39.1411 70.1346 39.9044 70.1346 40.6992C66.8616 40.6992 63.5885 40.6992 60.2841 40.6992C60.2841 39.9358 60.2841 39.1725 60.2841 38.3463C60.7755 38.3463 61.2775 38.3463 61.8213 38.3463C61.8213 38.1477 61.8213 38.0117 61.8213 37.8653C61.8213 31.246 61.8213 24.6371 61.8213 18.0178C61.8213 17.6727 61.7899 17.3172 61.7376 16.9721C61.5389 15.5709 60.4305 15.4035 59.458 15.7591C58.7782 15.9996 58.36 16.5538 58.1927 17.2126C57.994 18.0178 57.8057 18.8439 57.8057 19.67C57.7744 25.7456 57.7848 31.8316 57.7848 37.9071C57.7848 38.0326 57.7953 38.1581 57.8057 38.3359C58.2659 38.3359 58.705 38.3359 59.1652 38.3359C59.1652 39.1515 59.1652 39.9149 59.1652 40.6992C55.6725 40.6992 52.2008 40.6992 48.6872 40.6992C48.6872 39.9567 48.6767 39.2352 48.6976 38.5032C48.6976 38.4405 48.8754 38.3463 48.98 38.3463C49.4505 38.3254 49.9211 38.315 50.3917 38.3463C50.7263 38.3673 50.81 38.2418 50.7995 37.9281C50.7891 34.906 50.7891 31.8734 50.7891 28.8513C50.7891 24.2189 50.7891 19.5864 50.7891 14.9539C50.7891 14.8075 50.7891 14.6716 50.7891 14.4624C50.2453 14.4624 49.7329 14.4415 49.2205 14.4729C48.8336 14.4938 48.729 14.3578 48.7499 13.9918C48.7813 13.4481 48.7604 12.8939 48.7604 12.3501C48.7604 12.1723 48.8022 12.0677 49.0114 12.0468C51.8766 11.7331 54.7104 11.4194 57.628 11.1057Z"/>
<path d="M150.633 38.3471C151.156 38.3471 151.616 38.3471 152.139 38.3471C152.139 39.1 152.149 39.8216 152.118 40.5327C152.118 40.6059 151.877 40.7313 151.752 40.7313C150.403 40.7418 149.064 40.7418 147.715 40.7418C146.722 40.7418 145.728 40.7418 144.735 40.7418C144.599 40.7418 144.453 40.7313 144.264 40.7209C144.264 39.8007 144.264 38.9118 144.264 37.9498C143.877 38.4622 143.574 38.9327 143.208 39.3405C142.016 40.7 140.521 41.3588 138.701 41.2751C137.101 41.2019 135.731 40.6372 134.738 39.3196C134.006 38.3576 133.64 37.2491 133.441 36.0779C133.096 33.997 133.138 31.9265 133.546 29.856C134.037 27.3463 135.543 25.6104 137.718 24.3765C139.496 23.3622 141.399 22.6511 143.334 21.9923C143.637 21.8877 143.752 21.7518 143.752 21.4171C143.731 19.8904 143.762 18.3637 143.731 16.8369C143.721 16.2827 143.679 15.718 143.564 15.1638C143.292 13.8462 141.828 13.2711 140.824 14.0867C140.291 14.5155 140.165 15.1534 140.134 15.7808C140.071 16.9415 140.071 18.1023 140.061 19.263C140.05 19.7754 140.05 20.2773 140.061 20.7897C140.071 21.0825 139.977 21.1766 139.684 21.1662C138.262 21.1557 136.84 21.1557 135.407 21.1557C135.02 21.1557 134.623 21.1662 134.236 21.1453C134.142 21.1348 133.964 21.0093 133.964 20.9257C133.933 19.5558 133.87 18.1755 134.341 16.8579C135.48 13.6685 137.802 11.8594 141.075 11.2424C142.675 10.9392 144.275 11.0333 145.854 11.3993C148.384 11.9849 149.88 13.6057 150.371 16.1259C150.528 16.952 150.622 17.8095 150.622 18.646C150.643 25.0039 150.633 31.3514 150.633 37.7092C150.633 37.9079 150.633 38.0962 150.633 38.3471ZM143.721 24.4288C143.637 24.4497 143.595 24.4497 143.564 24.4601C143.396 24.5543 143.219 24.6484 143.051 24.7529C141.472 25.6941 140.406 27.0117 140.259 28.8939C140.134 30.5671 140.082 32.2507 140.071 33.9238C140.071 34.6035 140.197 35.3041 140.395 35.9525C140.782 37.2178 141.912 37.1655 142.664 36.7786C143.072 36.5694 143.334 36.193 143.417 35.7747C143.564 35.0322 143.71 34.2898 143.721 33.5369C143.752 30.6403 143.731 27.7437 143.731 24.8471C143.742 24.7216 143.731 24.5856 143.721 24.4288Z"/>
<path d="M49.2424 26.1116C45.6347 26.1116 42.0898 26.1116 38.5762 26.1116C38.5344 26.1848 38.5135 26.2057 38.5135 26.2266C38.4821 29.0709 38.4612 31.9152 39.1304 34.7073C39.3187 35.502 39.5905 36.2654 40.1448 36.8823C41.5356 38.4195 44.223 38.0744 45.2269 36.234C45.7393 35.2824 45.9171 34.2472 45.9798 33.1805C46.0216 32.5217 46.0216 31.8525 46.053 31.1832C46.053 31.0787 46.0739 30.9846 46.0844 30.8382C46.8582 30.8382 47.6111 30.8382 48.364 30.8382C48.5209 30.8382 48.6673 30.8382 48.8346 30.8382C48.8346 31.6643 48.9078 32.4485 48.8137 33.2224C48.6673 34.3831 48.5104 35.5543 48.1653 36.6732C47.3811 39.2352 45.5824 40.7201 42.9368 41.1175C41.9643 41.2638 40.95 41.3684 39.9775 41.2638C37.0599 40.9397 34.7594 39.5593 33.2222 37.0078C31.9987 34.9792 31.4027 32.7413 31.1517 30.4199C31.0053 29.0395 30.9112 27.6383 30.9321 26.2475C30.9635 23.3091 31.3399 20.4229 32.4379 17.6623C33.2536 15.6127 34.3934 13.8036 36.2129 12.486C37.8547 11.2939 39.7056 10.8965 41.6924 11.0534C42.9159 11.1475 44.0871 11.4298 45.1328 12.12C46.5027 13.0298 47.3497 14.3369 47.9039 15.8532C48.5209 17.5159 48.845 19.2413 48.981 21.0085C49.096 22.5352 49.1483 24.0829 49.2215 25.6096C49.2529 25.7456 49.2424 25.892 49.2424 26.1116ZM42.78 23.5182C42.78 23.3404 42.78 23.194 42.78 23.0581C42.7486 21.6255 42.7695 20.1824 42.6649 18.7603C42.5917 17.6623 42.4244 16.5643 42.2048 15.4767C42.0166 14.5565 41.5042 14.1696 40.7199 14.2114C40.1448 14.2428 39.7369 14.5147 39.4755 15.0271C39.0572 15.8427 38.9108 16.7316 38.8272 17.6309C38.7017 18.8335 38.6076 20.0465 38.5448 21.249C38.503 22.0019 38.5344 22.7444 38.5344 23.5182C39.9461 23.5182 41.3264 23.5182 42.78 23.5182Z"/>
<path d="M121.717 26.1121C121.717 27.2101 121.675 28.2349 121.728 29.2701C121.78 30.4936 121.885 31.7171 122.01 32.9301C122.125 33.9863 122.334 35.0215 122.794 35.9836C123.464 37.3744 124.405 37.9077 126.057 37.7926C127.416 37.6985 128.232 36.8933 128.703 35.6699C129.173 34.4255 129.257 33.1288 129.257 31.8217C129.257 31.508 129.257 31.2047 129.257 30.8596C130.219 30.8596 131.139 30.8596 132.112 30.8596C132.112 31.4138 132.164 31.9576 132.101 32.4909C131.955 33.7458 131.84 35.0111 131.547 36.2345C131.129 37.96 130.219 39.4344 128.587 40.2814C127.824 40.6788 126.967 40.9507 126.12 41.0971C125.22 41.2644 124.269 41.3271 123.369 41.2539C121.487 41.0866 119.762 40.4697 118.319 39.1939C116.248 37.3534 115.234 34.9588 114.721 32.3236C113.822 27.6388 113.937 22.9854 115.412 18.4157C116.039 16.4602 117.022 14.6825 118.528 13.2499C120.389 11.4931 122.606 10.8134 125.147 11.0749C126.862 11.2422 128.368 11.8173 129.55 13.114C130.606 14.2747 131.181 15.676 131.578 17.1713C132.049 18.9177 132.268 20.6954 132.362 22.494C132.415 23.5397 132.425 24.5749 132.478 25.6206C132.498 26.018 132.394 26.133 131.986 26.133C128.744 26.1121 125.503 26.1226 122.271 26.1226C122.083 26.1121 121.916 26.1121 121.717 26.1121ZM125.963 23.5083C125.963 22.8077 125.984 22.1384 125.963 21.4587C125.921 20.0993 125.9 18.7503 125.775 17.4014C125.691 16.5857 125.471 15.7701 125.231 14.9753C125.084 14.4839 124.656 14.2224 124.112 14.212C123.537 14.2015 123.014 14.3688 122.773 14.9231C122.522 15.5191 122.292 16.1361 122.177 16.774C121.79 18.949 121.759 21.1555 121.707 23.3514C121.707 23.4037 121.728 23.4456 121.738 23.5083C123.15 23.5083 124.562 23.5083 125.963 23.5083Z"/>
<path d="M71.3072 30.1477C72.0915 30.1477 72.834 30.1477 73.5869 30.1477C73.6287 30.7856 73.6496 31.413 73.7019 32.03C73.8483 33.6404 74.0574 35.2507 74.8208 36.7147C75.5946 38.1996 76.9331 38.8898 78.5749 38.6493C79.9238 38.4506 80.8022 37.3944 80.9486 35.8886C81.1264 34.1214 80.5826 32.6051 79.3801 31.3503C78.3344 30.2523 77.1841 29.2379 76.0547 28.2131C74.4653 26.7805 72.9176 25.3165 72.0601 23.3088C70.868 20.4958 70.753 17.6515 72.217 14.8908C73.1686 13.0818 74.7685 12.0151 76.7135 11.5028C79.8716 10.6662 82.9041 11.1368 85.8112 12.5275C85.9471 12.5903 86.0935 12.789 86.0935 12.9249C86.1144 15.7274 86.104 18.5404 86.104 21.3428C86.104 21.3951 86.0935 21.4474 86.0726 21.5415C85.372 21.5415 84.6713 21.552 83.9707 21.5206C83.8975 21.5206 83.7929 21.2696 83.772 21.1232C83.6256 19.9625 83.5524 18.7913 83.3538 17.641C83.1551 16.5012 82.7786 15.4241 81.963 14.5458C80.8127 13.2909 78.7213 13.2595 77.686 14.4935C77.09 15.2046 76.9854 16.0829 77.0168 16.9718C77.0795 18.4672 77.7069 19.7325 78.7736 20.7468C79.8925 21.803 81.0741 22.7859 82.2349 23.7898C83.793 25.1283 85.2883 26.54 86.1353 28.4641C87.3797 31.3189 87.4947 34.2155 86.1458 37.0598C85.1628 39.1303 83.3956 40.3015 81.2205 40.9185C79.8297 41.3158 78.4076 41.4204 76.9959 41.274C75.124 41.0858 73.2836 40.6989 71.5686 39.8623C71.37 39.7682 71.2445 39.6636 71.2445 39.4022C71.2549 36.4219 71.2549 33.4521 71.2549 30.4719C71.2863 30.3673 71.2968 30.2836 71.3072 30.1477Z"/>
<path d="M164.921 14.2856C164.335 14.2856 163.812 14.2856 163.3 14.2856C162.798 14.2856 162.798 14.2856 162.798 13.7627C162.798 13.1771 162.798 12.5915 162.798 11.9641C163.498 11.9641 164.147 11.9536 164.795 11.9745C165.088 11.985 165.234 11.8909 165.36 11.6295C166.583 9.02565 167.828 6.42185 169.062 3.81804C169.198 3.52524 169.365 3.42067 169.679 3.43113C170.431 3.45204 171.195 3.44158 172 3.44158C172 6.17088 172 8.87926 172 11.6399C172.209 11.6399 172.356 11.6399 172.512 11.6399C173.778 11.6399 175.043 11.6504 176.319 11.6295C176.685 11.619 176.789 11.7445 176.768 12.1C176.737 12.7379 176.748 13.3758 176.768 14.0137C176.779 14.3169 176.664 14.3901 176.382 14.3901C175.054 14.3797 173.715 14.3797 172.387 14.3797C172.241 14.3797 172.105 14.3797 171.927 14.3797C171.916 14.547 171.906 14.6934 171.906 14.8293C171.906 21.731 171.906 28.6326 171.906 35.5343C171.906 36.0049 171.958 36.4754 172.042 36.9356C172.136 37.4584 172.429 37.6989 172.878 37.7198C173.422 37.7512 173.767 37.563 173.903 37.0192C174.029 36.5068 174.081 35.963 174.091 35.4402C174.112 34.0808 174.102 32.7214 174.102 31.3724C174.102 31.2155 174.102 31.0691 174.102 30.8809C174.991 30.8809 175.848 30.8809 176.716 30.8809C176.727 30.9437 176.758 31.0064 176.758 31.0691C176.748 32.7527 176.768 34.4363 176.727 36.1199C176.706 37.1029 176.434 38.0545 175.932 38.9119C175.21 40.1354 174.112 40.8256 172.753 41.1288C171.331 41.4425 169.909 41.338 168.497 41.0243C166.51 40.5746 165.485 39.2466 165.182 37.3225C165.036 36.3709 164.952 35.4088 164.942 34.4468C164.921 27.932 164.931 21.4277 164.931 14.913C164.921 14.7143 164.921 14.5365 164.921 14.2856Z"/>
<path d="M154.493 3.87997C153.74 3.87997 153.04 3.87997 152.297 3.87997C152.297 3.14798 152.287 2.45781 152.308 1.76765C152.308 1.69445 152.465 1.56896 152.559 1.5585C154.807 1.30753 157.045 1.07748 159.293 0.836967C159.785 0.784681 160.266 0.690568 160.757 0.627825C160.945 0.606911 161.144 0.627825 161.384 0.627825C161.384 13.2077 161.384 25.7561 161.384 38.3465C162.116 38.3465 162.807 38.3465 163.518 38.3465C163.518 39.1516 163.518 39.915 163.518 40.7097C160.046 40.7097 156.595 40.7097 153.113 40.7097C153.113 39.9359 153.113 39.1726 153.113 38.3465C153.468 38.3465 153.814 38.336 154.159 38.3465C154.41 38.3569 154.525 38.2733 154.493 38.0118C154.483 37.9386 154.493 37.855 154.493 37.7818C154.493 26.6764 154.493 15.571 154.493 4.46557C154.493 4.2878 154.493 4.11003 154.493 3.87997Z"/>
<path d="M73.7113 1.04683C73.6068 2.37488 73.8473 3.69247 73.5022 5.01006C72.8957 7.32107 72.331 9.63208 71.7663 11.9535C71.6931 12.2463 71.5885 12.3614 71.2748 12.3509C70.6788 12.33 70.0827 12.3405 69.4449 12.3405C69.4449 10.6255 69.4449 8.96283 69.4449 7.23741C68.9534 7.23741 68.5037 7.22696 68.0436 7.23741C67.7822 7.24787 67.6776 7.16421 67.6776 6.88187C67.6881 5.03097 67.6881 3.18007 67.6776 1.32917C67.6776 1.12003 67.6985 0.973633 67.96 0.973633C69.8318 0.994547 71.6931 0.994547 73.5649 0.994547C73.5859 0.994547 73.6068 1.01546 73.7113 1.04683Z"/>
</svg>
