<svg width="137" height="56" viewBox="0 0 137 56" fill="none" xmlns="http://www.w3.org/2000/svg">
<path d="M84.4434 38.6323C84.5796 38.6777 84.625 38.7079 84.6704 38.7079C86.7739 38.602 86.7739 38.602 86.789 36.4683C86.789 32.8666 86.789 29.2801 86.789 25.6785C86.789 23.4086 86.9252 23.3026 89.1649 23.0605C91.0414 22.8638 92.9179 22.6065 94.7792 22.3947C95.1575 22.3493 95.5359 22.3039 95.9142 22.3039C96.7162 22.2887 97.0945 22.6065 97.1551 23.3934C97.2156 24.0593 97.2005 24.7403 97.2005 25.4212C97.2005 29.2196 97.2005 33.018 97.2005 36.8315C97.2005 36.9071 97.2459 36.9676 97.2761 37.0736C97.3821 37.1038 97.5031 37.1341 97.6242 37.1492C98.7592 37.3308 99.1375 37.9664 98.7592 39.1014C98.2598 40.5844 97.7453 42.0523 97.2307 43.5202C96.459 45.7447 95.672 47.9844 94.9305 50.2241C94.6581 51.0261 94.2344 51.4801 93.3416 51.5558C91.6316 51.7071 89.9518 51.9644 88.2418 52.1611C87.3792 52.2519 86.8798 51.8584 86.8344 51.011C86.789 50.0425 86.8193 49.0588 86.8193 47.9541C85.4271 48.1055 84.2164 48.2265 83.0058 48.3779C80.4635 48.6957 77.9211 49.0286 75.3637 49.3312C74.5011 49.4372 73.9866 48.9075 73.9866 47.9541C73.9715 44.0044 73.9866 40.0548 73.9866 36.0899C73.9866 32.8364 73.9866 29.5979 73.9866 26.3443C73.9866 25.285 74.3346 24.9067 75.3939 24.7857C77.7093 24.5133 80.0398 24.2257 82.3551 23.9382C83.9894 23.7264 84.398 24.0744 84.398 25.739C84.398 29.7946 84.398 33.8503 84.398 37.9059C84.4434 38.1177 84.4434 38.3901 84.4434 38.6323Z" fill="#FFFFFF"/>
<path d="M58.5182 34.0897C58.9268 33.3785 59.3202 32.6672 59.7288 31.956C60.5762 30.4124 61.4388 28.884 62.2711 27.3253C62.6343 26.6595 63.058 26.266 63.8752 26.1904C66.2208 25.9634 68.5664 25.6002 70.912 25.358C72.3194 25.2067 72.6523 25.5396 72.6523 26.9167C72.6523 34.0141 72.6523 41.1265 72.6523 48.2239C72.6523 49.4042 72.3951 49.6615 71.2298 49.8128C68.9599 50.0852 66.6899 50.3879 64.42 50.6603C62.9672 50.8419 62.5435 50.4635 62.5435 48.9957C62.5435 47.2705 62.5435 45.5302 62.4073 43.7445C62.2863 43.911 62.1652 44.0623 62.0593 44.2439C60.9092 46.3171 59.7591 48.3752 58.6392 50.4635C58.2912 51.1143 57.8372 51.4926 57.0805 51.5682C54.6593 51.8255 52.238 52.1433 49.8167 52.4308C48.6666 52.567 48.2278 52.1887 48.2127 51.0235C48.1975 44.0926 48.2127 37.1768 48.2127 30.246C48.2127 28.1425 48.2127 28.1274 50.2859 27.8701C52.4347 27.5977 54.5836 27.3405 56.7325 27.0681C57.7918 26.9319 58.3214 27.3859 58.3214 28.4452C58.3366 30.3065 58.3214 32.1679 58.3214 34.0292C58.382 34.0443 58.4576 34.0595 58.5182 34.0897Z" fill="#FFFFFF"/>
<path d="M12.6965 16.0993C10.3963 16.0539 10.3963 16.0539 10.3963 18.1423C10.3963 22.0012 10.3963 25.8449 10.3963 29.7038C10.3963 31.1566 10.1844 31.4138 8.74682 31.5954C6.35582 31.883 3.94969 32.1856 1.55869 32.4277C0.378323 32.5488 0 32.1553 0 30.9901C0 23.8322 0 16.6895 0 9.53164C0 8.41181 0.332924 8.06375 1.45276 7.92756C6.56768 7.30711 11.6826 6.67152 16.8127 6.05107C18.4622 5.85435 20.1116 5.64249 21.7611 5.46089C22.6388 5.37009 23.108 5.77868 23.108 6.65639C23.108 14.011 23.108 21.3656 23.1231 28.705C23.1231 29.5071 22.6691 29.8551 21.9881 29.9459C19.4458 30.2789 16.9035 30.5815 14.346 30.869C13.211 30.9901 12.8024 30.5815 12.7873 29.4012C12.757 25.2547 12.7268 21.0932 12.7116 16.9468C12.6965 16.7046 12.6965 16.4323 12.6965 16.0993Z" fill="#FFFFFF"/>
<path d="M34.1075 37.163C34.849 37.0722 35.4997 37.0268 36.1202 36.8755C36.2564 36.8452 36.4077 36.4518 36.4077 36.2248C36.438 34.4693 36.4228 32.6988 36.4228 30.9434C36.4228 29.8538 36.7255 29.5209 37.8302 29.3847C40.2968 29.082 42.7786 28.7642 45.2453 28.507C46.4711 28.3859 46.8343 28.7794 46.8343 29.99C46.8343 37.1176 46.8343 44.2452 46.8343 51.3728C46.8343 52.538 46.5165 52.8558 45.3361 52.992C43.0662 53.2644 40.7962 53.5519 38.5263 53.8395C38.3447 53.8546 38.1782 53.8849 37.9966 53.8849C36.8465 53.9303 36.4228 53.5368 36.4228 52.4018C36.4228 50.6918 36.4228 48.9818 36.4228 47.2718C36.4228 46.9994 36.4228 46.727 36.4228 46.3335C35.6359 46.4243 34.9247 46.5151 34.1226 46.6059C34.1226 46.9237 34.1226 47.181 34.1226 47.4534C34.1226 49.3147 34.1377 51.1761 34.1226 53.0374C34.1075 54.0362 33.7746 54.3994 32.7909 54.5205C30.294 54.8382 27.7971 55.1409 25.3001 55.4133C24.0744 55.5495 23.7112 55.1863 23.6809 53.9454C23.6809 53.8243 23.6809 53.6881 23.6809 53.5671C23.6809 46.6362 23.6809 39.7205 23.6809 32.7896C23.6809 31.3217 23.9382 31.0644 25.3909 30.898C27.6609 30.6407 29.9308 30.3532 32.2007 30.0505C33.5627 29.8689 34.0923 30.2927 34.1075 31.6546C34.1226 33.183 34.1075 34.7266 34.1075 36.255C34.1075 36.5274 34.1075 36.7998 34.1075 37.163Z" fill="#FFFFFF"/>
<path d="M36.3508 25.3608C35.9422 26.1325 35.5941 26.9497 35.125 27.6761C34.898 28.0242 34.444 28.4025 34.0354 28.4479C31.251 28.8413 28.4514 29.1743 25.6518 29.4921C25.0465 29.5677 24.426 29.6282 24.0326 28.9775C23.6542 28.3268 23.9266 27.782 24.2596 27.2221C25.7426 24.8009 27.2105 22.3645 28.6784 19.9281C28.7389 19.8221 28.7994 19.7162 28.7843 19.7313C27.9823 18.9293 27.0591 18.2937 26.4992 17.416C24.078 13.5571 25.8334 7.74606 30.0101 5.40046C32.1438 4.20496 34.5045 3.82664 36.8804 3.55425C39.6346 3.23646 42.3737 2.90353 45.1278 2.55547C46.2931 2.40415 46.8076 2.81273 46.8076 3.97797C46.8076 11.2115 46.8076 18.4299 46.8076 25.6634C46.8076 26.526 46.5352 26.8892 45.7029 27.0103C43.1152 27.3583 40.5123 27.6761 37.9094 27.9636C37.1377 28.0544 36.6231 27.5702 36.5626 26.7681C36.5172 26.299 36.5626 25.8299 36.5626 25.3608C36.487 25.3759 36.4264 25.3759 36.3508 25.3608Z" fill="#FFFFFF"/>
<path d="M115.073 44.4265C114.437 44.3811 113.968 44.1693 113.771 43.4883C113.62 42.9586 113.499 42.2323 113.121 41.9901C112.757 41.7631 112.061 42.0355 111.516 42.0961C110.972 42.1566 110.412 42.2323 109.867 42.2928C109.489 42.3382 109.277 42.5047 109.186 42.9284C108.641 45.4102 108.792 45.1832 106.417 45.4858C104.222 45.7734 102.028 46.0457 99.8338 46.303C98.1238 46.4997 97.5639 45.8188 98.1087 44.1995C100.636 36.7844 103.178 29.3693 105.705 21.9542C105.917 21.3337 106.296 20.9554 106.992 20.8646C109.716 20.5619 112.44 20.1987 115.163 19.8809C116.525 19.7296 116.707 19.8658 117.161 21.1218C119.613 27.8106 122.064 34.5145 124.516 41.2183C125.03 42.6408 124.606 43.2613 123.078 43.4278C120.505 43.7153 117.933 44.0482 115.36 44.3509C115.269 44.3963 115.163 44.4114 115.073 44.4265Z" fill="#FFFFFF"/>
<path d="M52.5568 11.468C51.4521 11.5588 50.4533 11.6648 49.4546 11.695C48.592 11.7253 48.1985 11.347 48.1985 10.4693C48.1834 8.07825 48.1985 5.68725 48.2137 3.29626C48.2137 2.50934 48.5617 2.17642 49.4394 2.05536C51.7548 1.7527 54.0852 1.46517 56.4006 1.17765C59.5028 0.799325 62.5899 0.405869 65.6922 0.0275464C66.8574 -0.123783 67.4173 0.345338 67.4173 1.51057C67.4173 3.78051 67.4173 6.03531 67.3871 8.30525C67.3719 9.27375 67.0541 9.59155 66.1008 9.72774C65.2987 9.8488 64.5118 9.985 63.7098 10.0153C63.1196 10.0455 62.9682 10.2725 62.9682 10.8476C62.9834 15.0545 62.9834 19.2615 62.9834 23.4684C62.9834 24.6337 62.6353 25.012 61.5155 25.1482C59.185 25.4206 56.8697 25.6778 54.5392 25.9654C53.0108 26.1469 52.5719 25.7838 52.5719 24.2251C52.5568 20.2754 52.5719 16.3257 52.5719 12.3609C52.5568 12.0733 52.5568 11.7707 52.5568 11.468Z" fill="#FFFFFF"/>
<path d="M134.668 17.4747C136.469 17.4595 136.817 17.853 136.681 19.2301C136.242 23.891 135.803 28.5368 135.41 33.1978C135.198 35.5888 135.183 35.6342 132.746 35.8914C131.127 36.0579 129.508 36.3151 127.874 36.4816C126.527 36.6178 126.149 36.2697 126.027 34.938C125.589 30.2771 125.135 25.6313 124.726 20.9704C124.575 19.2755 124.393 18.655 126.678 18.428C129.478 18.1556 132.277 17.7622 134.668 17.4747Z" fill="#FFFFFF"/>
<path d="M125.606 42.6417C125.606 41.5673 125.591 40.4777 125.606 39.4033C125.621 38.4499 125.879 38.1321 126.802 37.9959C129.314 37.6479 131.826 37.3301 134.353 37.0274C135.14 36.9366 135.7 37.3755 135.715 38.1775C135.745 40.5382 135.745 42.899 135.73 45.2597C135.73 45.9407 135.322 46.3493 134.671 46.4249C132.159 46.7579 129.632 47.0605 127.12 47.348C126.106 47.4691 125.621 47 125.606 45.9558C125.591 44.8663 125.606 43.7616 125.606 42.6417Z" fill="#FFFFFF"/>
</svg>
