<svg width="209" height="55" viewBox="0 0 209 55" fill="none" xmlns="http://www.w3.org/2000/svg">
<path d="M162.872 0.798828C177.932 0.798828 192.905 0.798828 207.965 0.798828C207.965 1.14703 208.052 1.49523 208.052 1.84343C208.052 15.5104 208.052 29.0902 208.052 42.7571C208.052 47.719 205.266 50.6787 200.304 50.9399C198.563 51.0269 196.909 51.0269 195.168 51.0269C191.512 50.9399 188.117 51.6363 185.331 54.3349C182.546 51.4622 178.977 50.9399 175.234 50.9399C173.057 50.9399 170.881 51.0269 168.792 50.6787C165.136 50.0694 162.872 47.3708 162.872 43.6277C162.872 29.6125 162.872 15.6845 162.872 1.66933C162.785 1.40818 162.785 1.14703 162.872 0.798828ZM172.622 32.3111C174.798 31.0924 177.062 29.8737 179.238 28.4809C181.501 27.0881 183.503 25.5212 184.809 23.0837C186.637 19.6888 185.157 16.4679 181.501 15.6845C178.019 14.9881 174.798 15.5974 171.752 17.4255C171.49 17.5996 171.229 18.1219 171.229 18.383C171.316 19.6017 171.577 20.8204 171.839 21.9521C171.926 22.2132 172.274 22.6485 172.535 22.7355C172.883 22.7355 173.406 22.4744 173.58 22.2132C174.102 21.3427 174.537 20.4722 174.798 19.6017C175.234 18.2089 176.104 17.8607 177.497 17.9478C179.847 18.0348 180.979 19.4276 180.195 21.6039C179.76 22.9096 179.064 24.1284 178.193 25.26C175.582 28.5679 172.013 30.9183 168.444 33.2686C167.138 34.1392 167.051 35.1838 166.964 36.4025C167.138 36.4895 167.225 36.4895 167.312 36.4895C172.1 36.4895 176.888 36.4895 181.588 36.4895C182.198 36.4895 182.372 36.2284 182.459 35.7061C182.633 33.965 182.894 32.224 183.068 30.483C183.155 30.0478 183.068 29.5255 183.068 29.1773C182.111 28.8291 181.675 29.1773 181.24 29.8737C180.805 30.5701 180.37 31.1794 179.847 31.8758C179.673 32.137 179.412 32.3111 179.151 32.3111C177.062 32.3981 174.885 32.3111 172.622 32.3111ZM199.172 31.3535C199.956 31.3535 200.739 31.3535 201.436 31.3535C203.09 31.3535 203.09 31.3535 203.351 29.7866C203.351 29.6125 203.351 29.4384 203.351 29.1773C202.132 29.1773 200.913 29.1773 199.608 29.1773C200.565 24.5636 201.523 20.124 202.48 15.5974C201.262 15.3363 200.391 15.4233 199.434 16.2938C194.82 20.5593 190.206 24.7377 185.506 28.9161C184.722 29.6125 184.548 30.396 184.461 31.3535C187.595 31.3535 190.642 31.3535 193.775 31.3535C193.775 31.4406 193.862 31.5276 193.862 31.5276C193.514 33.965 193.514 34.0521 191.251 34.5744C190.206 34.8356 189.945 35.3579 190.032 36.4025C193.253 36.4025 196.474 36.4025 199.695 36.4025C200.478 36.4025 200.739 36.0543 200.826 35.4449C201.001 34.6615 200.391 34.6615 199.956 34.5744C199.521 34.4003 199.085 34.3133 198.65 34.1392C198.824 33.1816 198.998 32.3981 199.172 31.3535Z"/>
<path d="M22.1979 26.5653C25.5058 20.1236 29.8583 14.4653 33.6885 8.37179C33.8626 8.11064 34.1238 7.93654 34.3849 7.93654C38.3022 7.93654 42.1324 7.93654 46.0497 7.93654C45.8756 9.7646 45.8756 9.9387 43.8734 10.461C42.3936 10.8092 42.0454 11.5927 41.7842 12.8984C40.3914 19.6013 38.9115 26.2171 37.5187 32.92C38.041 33.0941 38.5633 33.2682 38.9986 33.4423C40.6526 34.0517 40.6526 34.1387 40.2173 35.8797C35.6036 35.8797 30.99 35.8797 26.3763 35.8797C26.2022 34.7481 26.6374 33.9646 27.7691 33.7035C27.9432 33.6164 28.1173 33.5294 28.3784 33.5294C30.1195 33.4423 30.5547 32.3977 30.9029 30.8308C32.1216 24.8243 33.5144 18.9049 34.9072 12.8984C34.9072 12.8114 34.9072 12.6373 34.7331 12.3761C34.559 12.6373 34.3849 12.9855 34.2108 13.2466C29.5101 20.6459 24.8964 28.0452 20.1957 35.4445C20.0216 35.7056 19.5863 35.8797 19.3252 35.9668C18.8029 36.0538 18.1935 35.9668 17.4971 35.9668C15.7561 28.0452 14.0151 20.1236 12.2741 12.0279C10.7943 18.9919 9.3144 25.7819 7.83454 32.6589C8.53094 32.92 9.3144 33.1812 10.0108 33.4423C11.5777 34.1387 11.5777 34.1387 11.0554 35.8797C7.39929 35.8797 3.74317 35.8797 0 35.8797C0 34.8351 0.174101 34.0517 1.21871 33.7035C1.65396 33.5294 2.08921 33.2682 2.61151 33.1812C3.91727 33.0071 4.35252 32.1366 4.61367 30.7438C5.91943 24.215 7.39929 17.5991 8.7921 11.0704C7.83454 10.7222 6.96404 10.374 6.00648 10.0257C5.22303 9.7646 5.48418 9.24229 5.57123 8.63294C5.65828 8.11064 5.83238 7.84949 6.44173 7.84949C10.272 7.84949 14.1022 7.84949 17.9324 7.84949C18.5417 7.84949 18.7158 8.11064 18.8029 8.63294C19.8475 14.5524 20.8921 20.4718 22.0238 26.3912C22.0238 26.4783 22.1108 26.4783 22.1979 26.5653Z"/>
<path d="M151.731 32.834C152.776 32.834 153.734 32.834 154.604 32.834C155.039 34.3139 154.952 34.575 153.646 35.0103C151.993 35.5326 150.252 35.9678 148.511 36.316C147.988 36.4031 147.292 36.316 146.77 36.1419C145.551 35.7937 144.941 34.9232 145.028 33.7045C145.116 32.834 145.29 31.9635 145.29 31.093C145.116 31.3542 144.941 31.6153 144.767 31.8765C142.939 34.575 140.502 36.4901 137.107 36.5772C134.408 36.5772 132.667 35.2714 131.971 32.747C130.143 25.87 134.408 18.0354 141.024 16.2074C143.375 15.598 145.725 15.4239 148.075 16.3815C148.423 16.5556 148.946 16.4685 149.381 16.3815C151.209 16.1203 153.037 15.9462 154.952 15.598C153.908 21.4304 152.863 27.0887 151.731 32.834ZM138.761 29.439C138.761 29.7002 138.761 30.2225 138.848 30.7448C139.109 33.0081 140.502 33.6175 142.243 32.2247C144.245 30.6578 145.725 28.6556 146.247 26.0441C146.595 23.9549 146.944 21.7786 147.379 19.6894C147.64 18.6448 147.205 18.2966 146.334 18.2095C143.897 17.8613 142.243 18.993 141.024 20.9081C139.37 23.4326 138.935 26.3052 138.761 29.439Z"/>
<path d="M94.8839 24.4777C97.3213 24.5647 98.1918 22.5626 99.5846 21.3439C101.239 19.864 101.413 18.123 100.89 16.1208C102.631 15.3374 107.245 15.2503 109.769 16.0338C107.854 19.777 104.459 21.9532 100.977 24.4777C102.457 26.5669 103.85 28.7432 105.243 30.8324C106.113 32.1381 106.984 33.618 108.899 32.9216C109.334 34.4014 109.334 34.5755 108.028 35.0978C106.723 35.6201 105.33 36.0554 103.937 36.3165C101.5 36.7518 100.02 36.0554 98.8011 33.8791C97.8436 31.964 96.9731 29.9619 96.1896 27.9597C95.8414 27.0892 95.4062 26.741 94.4486 26.741C93.8392 29.7878 93.2299 32.8345 92.6205 35.8813C90.2702 35.8813 88.0069 35.8813 85.5695 35.8813C86.6141 30.3101 87.7457 24.7388 88.7903 19.1676C88.0069 18.9935 87.3975 18.8194 86.7011 18.6453C86.0918 18.5583 85.8306 18.3842 85.8306 17.6877C85.8306 17.0784 86.0047 16.7302 86.6141 16.6431C89.3997 16.2949 92.1853 15.7726 94.9709 15.5115C96.1026 15.4244 96.3637 15.7726 96.1896 16.9043C95.9285 19.3417 95.4062 21.7791 94.8839 24.4777Z"/>
<path d="M125.264 24.9109C125.699 24.9979 126.396 25.172 127.005 25.3461C129.617 26.2166 130.574 28.567 129.356 31.0044C128.92 31.8749 128.311 32.7454 127.615 33.2677C123.349 36.5756 118.561 37.2721 113.599 35.531C110.814 34.4864 109.421 32.2231 109.247 29.2634C108.986 22.0382 113.948 16.3799 121.173 15.6835C123.436 15.4224 125.699 15.2483 127.876 16.1188C129.356 16.7281 130.4 17.6857 130.574 19.4267C130.661 20.7325 130.139 21.7771 129.181 22.5605C127.876 23.344 126.57 24.1274 125.264 24.9109ZM118.822 26.5648C118.3 26.5648 117.778 26.5648 117.256 26.7389C116.994 26.826 116.646 27.0001 116.646 27.1742C116.385 28.8282 116.211 30.4821 116.82 32.1361C117.43 33.703 118.822 34.2253 120.302 33.4418C120.999 33.0936 121.608 32.4843 122.043 31.8749C122.827 30.5692 123.175 29.0893 122.304 27.6965C121.521 26.3907 120.128 26.4778 118.822 26.5648ZM116.907 24.5627C119.606 24.8238 122.304 23.431 123.262 21.3418C123.784 20.1231 123.697 18.8174 123.001 18.2951C122.392 17.8598 121.086 18.0339 120.128 18.7303C118.213 20.2972 117.517 22.3864 116.907 24.5627Z"/>
<path d="M55.0157 15.2491C56.4085 15.5103 57.8884 15.6844 59.2812 16.1197C62.2409 17.0772 63.8949 19.3405 64.156 22.3873C65.0265 33.8779 54.7546 38.1434 47.0071 35.706C43.7862 34.7484 42.1322 32.3981 41.784 29.0902C41.0876 21.3427 46.833 15.4232 55.0157 15.2491ZM57.279 23.2578C57.1049 22.0391 57.0179 20.8204 56.6697 19.6887C56.2344 18.2959 55.1898 17.8607 53.797 18.1218C52.2301 18.383 51.2725 19.5146 50.5761 20.8204C49.5315 22.8225 49.0092 25.0858 48.9222 27.3492C48.8351 28.742 48.7481 30.2218 49.0963 31.6146C49.7056 34.052 52.143 34.7484 53.9711 32.9204C54.4934 32.3981 55.0157 31.7017 55.3639 31.0053C56.6697 28.5679 57.0179 25.9563 57.279 23.2578Z"/>
<path d="M81.3059 21.865C80.5224 20.7333 79.739 19.7758 79.1296 18.7312C78.6944 18.0348 78.1721 17.8607 77.5627 18.2089C76.6922 18.7312 75.7347 19.2535 75.0383 20.0369C72.862 22.6485 72.2526 25.7823 72.6879 29.0031C73.0361 31.7888 75.2994 33.0945 78.085 32.137C79.4778 31.7017 80.6965 30.8312 82.2634 30.0477C82.4375 30.2218 82.8728 30.57 83.3081 30.9182C80.7836 35.3578 73.9937 37.6211 69.467 35.4449C66.9426 34.2262 65.7239 32.137 65.5498 29.4384C65.2016 23.4319 68.5095 17.2513 75.5606 15.7715C78.1721 15.2492 80.7836 15.3362 83.3951 16.2938C84.6138 16.729 84.7009 17.0772 84.2656 18.2959C83.6563 19.7758 82.8728 20.9945 81.3059 21.865Z"/>
<path d="M188.55 29.1777C191.074 26.9144 193.599 24.6511 196.036 22.5619C195.601 24.477 195.079 26.6533 194.469 28.7425C194.382 28.9166 193.947 29.1777 193.686 29.1777C191.945 29.1777 190.204 29.1777 188.55 29.1777Z"/>
</svg>
