<svg width="139" height="38" viewBox="0 0 139 38" fill="none" xmlns="http://www.w3.org/2000/svg">
<path d="M34.6112 0.000244141H0V34.5837L34.6112 0.000244141Z"/>
<path d="M3.08875 37.7465H37.6888V3.16858L3.08875 37.7465Z"/>
<path d="M57.7879 0.04996H45.5477V37.742H53.1083V23.6644H57.9545C66.7863 23.6644 71.8489 19.4233 71.8489 12.0404V11.835C71.8433 4.34097 66.7197 0.04996 57.7879 0.04996ZM64.4548 12.0348C64.4548 15.9483 62.1511 18.0134 57.7935 18.0134H53.1083V6.05626H57.7935C62.3287 6.05626 64.4548 7.87148 64.4548 11.8239V12.0348ZM90.2619 14.8548H84.0947V6.16729H100.504V0.04996H76.584V37.742H90.1176C98.7551 37.742 103.712 33.562 103.712 26.2734V26.0514C103.712 18.8405 98.9383 14.8548 90.2619 14.8548ZM84.0724 20.5058H89.6513C94.2032 20.5058 96.407 22.321 96.407 26.0125V26.2179C96.407 29.9149 94.2254 31.7857 89.9122 31.7857H84.0947L84.0724 20.5058ZM122.386 18.0467L138.002 0H129.703L116.014 16.237V0.04996H108.453V37.742H116.014V21.0554L129.753 37.7365H138.762L122.386 18.0467Z"/>
</svg>
