<svg width="184" height="46" viewBox="0 0 184 46" fill="none" xmlns="http://www.w3.org/2000/svg">
<path d="M6.15558 7.71533C6.24161 8.40357 6.32764 9.04401 6.38499 9.68445C6.68131 13.0969 8.01955 16.0889 10.0747 18.7844C12.4357 21.8815 15.4467 24.2234 18.8115 26.1352C21.2107 27.4925 23.7629 28.5344 26.382 29.3469C28.332 29.9491 30.3394 30.3602 32.3372 30.7903C35.0614 31.3638 37.8239 31.6697 40.6247 31.6315C41.4372 31.6219 42.2401 31.6315 43.1386 31.6315C42.1636 34.0021 40.8636 36.0859 39.1908 37.9308C35.9791 41.4675 32.0695 43.8859 27.3761 44.8513C15.4276 47.3175 5.90705 40.7602 2.09308 32.4727C-2.36133 22.7896 0.907788 12.9153 6.15558 7.71533Z"/>
<path d="M107.471 34.0572C108.159 34.5734 108.867 34.9653 109.393 35.5293C110.97 37.2212 110.501 40.4138 108.571 41.6851C107.309 42.5072 105.913 42.8226 104.441 42.8322C101.64 42.8513 98.8396 42.8322 96.0389 42.8513C95.6661 42.8513 95.5514 42.7175 95.5514 42.3447C95.561 37.1256 95.561 31.9065 95.5514 26.6778C95.5514 26.305 95.6374 26.1329 96.058 26.1329C98.6389 26.1521 101.22 26.1138 103.791 26.1616C105.234 26.1807 106.64 26.4388 107.882 27.2704C109.316 28.2263 109.727 29.5932 109.498 31.2182C109.335 32.3462 108.723 33.216 107.777 33.8565C107.672 33.9138 107.567 33.9903 107.471 34.0572C107.452 34.1241 107.452 34.0859 107.471 34.0572ZM102.157 35.8734C102.157 35.8543 102.157 35.8351 102.157 35.816C101.392 35.816 100.627 35.8256 99.8624 35.816C99.5374 35.8065 99.4132 35.9403 99.4132 36.2653C99.4227 37.3741 99.4227 38.4925 99.4132 39.6013C99.4132 39.8976 99.5183 40.0315 99.8337 40.0219C101.248 40.0028 102.663 40.0315 104.078 39.9932C104.479 39.9837 104.9 39.8881 105.282 39.7256C106.123 39.3815 106.534 38.4829 106.372 37.5079C106.219 36.5998 105.559 35.9498 104.575 35.8829C103.782 35.8256 102.959 35.8734 102.157 35.8734ZM101.717 33.1013C101.717 33.0918 101.717 33.0726 101.717 33.0631C102.396 33.0631 103.084 33.1109 103.762 33.0535C104.508 32.9866 105.148 32.6903 105.445 31.9256C105.99 30.4726 105.148 29.1726 103.59 29.1153C102.348 29.0771 101.115 29.1057 99.872 29.0771C99.5087 29.0675 99.4132 29.2204 99.4132 29.555C99.4323 30.5873 99.4323 31.6197 99.4132 32.6521C99.4132 32.977 99.5183 33.1109 99.8529 33.1013C100.474 33.0918 101.096 33.1013 101.717 33.1013Z"/>
<path d="M172.461 36.9335C172.499 36.8093 172.518 36.6659 172.585 36.5703C175.013 33.2438 177.45 29.9269 179.878 26.5909C180.117 26.2659 180.366 26.1129 180.786 26.1225C181.78 26.1512 182.784 26.1321 183.845 26.1321C183.845 26.3615 183.845 26.5335 183.845 26.696C183.845 31.896 183.836 37.1056 183.855 42.3056C183.855 42.7262 183.769 42.8982 183.31 42.8791C182.421 42.8409 181.522 42.8409 180.633 42.8791C180.136 42.8982 180.022 42.7166 180.022 42.2482C180.041 39.0843 180.031 35.9107 180.031 32.7468C180.031 32.5938 180.031 32.4409 180.031 32.2879C179.993 32.2688 179.955 32.2593 179.916 32.2401C179.802 32.374 179.668 32.4887 179.563 32.632C177.221 35.8247 174.869 39.0173 172.547 42.2195C172.202 42.6879 171.849 42.9269 171.247 42.8791C170.453 42.8217 169.66 42.8504 168.857 42.8695C168.494 42.8791 168.35 42.7644 168.35 42.382C168.36 37.1343 168.36 31.8769 168.35 26.6291C168.35 26.2659 168.465 26.1129 168.838 26.1225C169.774 26.1416 170.721 26.1416 171.658 26.1225C172.078 26.1129 172.202 26.2659 172.202 26.6769C172.193 29.8791 172.193 33.0718 172.193 36.274C172.193 36.4365 172.212 36.6085 172.222 36.771C172.308 36.8284 172.384 36.8857 172.461 36.9335Z"/>
<path d="M82.8185 8.9758C82.6942 9.12874 82.5699 9.28168 82.4552 9.43462C80.0751 12.6751 77.6949 15.9251 75.3244 19.1751C75.0949 19.4905 74.8464 19.6243 74.4545 19.6148C73.5751 19.5861 72.7052 19.5956 71.8258 19.6148C71.4626 19.6243 71.3192 19.4905 71.3192 19.1177C71.3288 13.8986 71.3288 8.67948 71.3192 3.46036C71.3192 3.03978 71.4626 2.90595 71.8736 2.91551C72.7817 2.93463 73.6898 2.94419 74.5979 2.91551C75.0472 2.90595 75.1714 3.06845 75.1714 3.4986C75.1619 6.68169 75.1619 9.86477 75.1619 13.0479C75.1619 13.2295 75.181 13.4015 75.1905 13.5832C75.2288 13.5927 75.2766 13.6023 75.3148 13.6214C75.678 13.1339 76.0508 12.6368 76.4141 12.1493C78.5839 9.1861 80.7538 6.22286 82.9427 3.26919C83.067 3.09713 83.3442 2.95375 83.5641 2.94419C84.4722 2.90595 85.3802 2.94419 86.2883 2.92507C86.6611 2.91551 86.7949 3.04934 86.7949 3.42213C86.7854 8.66992 86.7854 13.9273 86.7949 19.1751C86.7949 19.5861 86.6324 19.7008 86.2501 19.6912C85.3611 19.6721 84.4626 19.6626 83.5736 19.6912C83.0957 19.7104 82.9427 19.567 82.9427 19.0795C82.9619 15.9155 82.9523 12.742 82.9523 9.57801C82.9523 9.39639 82.9332 9.21477 82.9332 9.03315C82.8949 9.00448 82.8567 8.99492 82.8185 8.9758Z"/>
<path d="M131.11 34.6033C131.205 39.0004 127.898 42.3842 123.682 43.0437C121.073 43.4548 118.626 43.0151 116.446 41.5048C113.646 39.5643 112.537 36.8209 112.871 33.4849C113.292 29.3842 116.456 26.679 120.174 26.0673C123.682 25.4842 126.741 26.3636 129.16 29.0592C130.555 30.6077 131.129 32.4812 131.11 34.6033ZM121.981 39.8702C125.116 39.8415 127.21 37.6621 127.229 34.4982C127.238 31.468 124.944 29.1452 121.933 29.193C118.893 29.2408 116.685 31.468 116.695 34.5173C116.714 37.6717 118.903 39.8989 121.981 39.8702Z"/>
<path d="M91.9562 34.5378C92.0709 38.9731 88.8018 42.376 84.5959 43.0356C81.3172 43.5518 78.3731 42.8062 76.0025 40.4165C73.8518 38.2466 73.2305 35.5415 73.89 32.6165C74.7408 28.8599 77.3025 26.8143 80.9731 26.0974C84.0319 25.4951 86.8327 26.1738 89.2033 28.2385C91.115 29.8922 91.9849 32.0238 91.9562 34.5378ZM82.8658 39.8716C85.9341 39.862 88.104 37.6444 88.104 34.5187C88.104 31.4312 85.8959 29.204 82.8275 29.1944C79.7974 29.1753 77.5511 31.4598 77.5702 34.5378C77.5797 37.6922 79.7591 39.8812 82.8658 39.8716Z"/>
<path d="M54.7121 34.5162C54.7121 31.9258 54.7217 29.3258 54.7025 26.7353C54.7025 26.2861 54.8173 26.114 55.2856 26.1331C56.2224 26.1618 57.1592 26.1618 58.1055 26.1331C58.507 26.1236 58.6312 26.267 58.6217 26.6589C58.6025 28.4846 58.6312 30.3199 58.6025 32.1456C58.593 32.5853 58.7268 32.7287 59.1665 32.7192C61.3268 32.7 63.4967 32.7 65.657 32.7192C66.1062 32.7192 66.2209 32.5662 66.2114 32.1361C66.1923 30.3199 66.2114 28.5037 66.1923 26.6971C66.1923 26.2669 66.2974 26.1044 66.7562 26.1236C67.693 26.1618 68.6298 26.1427 69.5761 26.1236C69.9584 26.114 70.0731 26.2574 70.0731 26.6206C70.0636 31.8684 70.0636 37.1258 70.0731 42.3736C70.0731 42.7464 69.9393 42.8802 69.5665 42.8706C68.6106 42.8515 67.6547 42.8515 66.6989 42.8706C66.2878 42.8802 66.1923 42.7177 66.1923 42.3353C66.2114 40.414 66.1827 38.4831 66.2114 36.5618C66.2209 36.1125 66.068 35.9978 65.6378 35.9978C63.4775 36.0169 61.3077 36.0169 59.1474 35.9978C58.7364 35.9978 58.593 36.1125 58.6025 36.5427C58.6217 38.4544 58.6025 40.3662 58.6217 42.2684C58.6312 42.7272 58.4878 42.8897 58.029 42.8706C57.1209 42.8419 56.2128 42.8324 55.3048 42.8706C54.8077 42.8897 54.693 42.6986 54.693 42.2302C54.7217 39.6684 54.7121 37.0971 54.7121 34.5162Z"/>
<path d="M15.7917 1.64331C15.4762 2.72346 15.1417 3.74625 14.8931 4.79772C14.4534 6.63301 14.5299 8.46831 14.9314 10.3227C15.8203 14.3852 18.2387 17.3771 21.4123 19.8529C24.1939 22.0132 27.3387 23.4852 30.7034 24.4793C32.1564 24.9095 33.6284 25.3205 35.1196 25.569C38.0828 26.0661 41.0652 26.4389 44.0858 26.2095C44.1622 26.1999 44.2578 26.1808 44.3247 26.2095C44.4299 26.2477 44.5064 26.3337 44.6019 26.4007C44.5255 26.4771 44.4586 26.6109 44.363 26.6301C44.0093 26.7065 43.6461 26.8021 43.2828 26.8021C40.5968 26.8212 37.9012 26.8977 35.2247 26.783C33.5711 26.7065 31.927 26.3433 30.2924 26.0661C27.31 25.5595 24.4233 24.6801 21.6608 23.4565C18.688 22.1374 15.9542 20.4359 13.6505 18.1132C11.9299 16.3735 10.5439 14.4043 9.7027 12.0911C8.98579 10.1124 8.71814 8.06684 8.85196 5.98301C8.8902 5.4286 9.11005 4.99846 9.61667 4.64478C11.5189 3.3161 13.5931 2.3411 15.7917 1.64331Z"/>
<path d="M54.6994 11.2507C54.6994 8.66984 54.7089 6.08896 54.6898 3.51764C54.6898 3.06838 54.8141 2.90588 55.2825 2.91543C57.8156 2.94411 60.3486 2.91543 62.8722 2.97279C64.7075 3.02058 66.3707 3.58455 67.6994 4.93235C68.6075 5.84999 69.095 6.97793 69.2001 8.25882C69.3053 9.54926 69.1905 10.8015 68.5214 11.9581C67.6038 13.5353 66.1891 14.4816 64.4494 14.7493C62.92 14.9882 61.3428 14.9595 59.7942 15.0169C58.4273 15.0647 58.6089 14.8162 58.5994 16.2022C58.5898 17.1581 58.5803 18.114 58.6089 19.0698C58.6185 19.4809 58.4942 19.6434 58.0641 19.6338C57.1082 19.6147 56.1523 19.6147 55.1964 19.6338C54.7854 19.6434 54.6898 19.4713 54.6898 19.0985C54.6994 16.4698 54.6994 13.8603 54.6994 11.2507ZM58.5898 8.94705C58.5898 9.75955 58.5898 10.572 58.5898 11.3845C58.5898 11.6618 58.6472 11.8529 58.9722 11.8529C60.2626 11.8243 61.5531 11.8625 62.8339 11.7669C64.2582 11.6618 65.2428 10.5434 65.3001 9.12867C65.367 7.58014 64.5641 6.42352 63.0825 6.22279C61.7633 6.04117 60.4251 6.09852 59.0869 6.03161C58.6758 6.01249 58.5611 6.18455 58.5707 6.5669C58.6089 7.36029 58.5898 8.15367 58.5898 8.94705Z"/>
<path d="M88.3984 19.5183C88.733 18.7632 89.0389 18.0558 89.3543 17.3485C91.3999 12.7602 93.4646 8.18155 95.5006 3.58376C95.7205 3.09626 95.969 2.87641 96.533 2.91464C97.4028 2.972 98.2823 2.94332 99.1617 2.9242C99.5153 2.91464 99.7161 3.02935 99.8595 3.35435C102.201 8.63082 104.553 13.8977 106.895 19.1742C107.095 19.6235 107.057 19.6808 106.551 19.6808C105.566 19.6808 104.572 19.6617 103.587 19.6904C103.195 19.6999 103.004 19.547 102.87 19.2124C102.488 18.2852 102.087 17.3676 101.714 16.4404C101.599 16.144 101.418 16.0293 101.102 16.0293C98.808 16.0389 96.5139 16.0389 94.2198 16.0293C93.9043 16.0293 93.7323 16.144 93.6176 16.4404C93.2543 17.3676 92.872 18.2948 92.4609 19.2124C92.3845 19.3845 92.1646 19.5948 92.0021 19.5948C90.8933 19.6235 89.7749 19.6043 88.6565 19.6043C88.6087 19.6043 88.5514 19.5661 88.3984 19.5183ZM97.7087 6.85288C97.5845 7.04405 97.508 7.12052 97.4698 7.21611C96.7051 9.05141 95.9499 10.8771 95.1852 12.7124C95.0131 13.1139 95.2139 13.1426 95.5293 13.1426C96.9631 13.1426 98.3874 13.133 99.8212 13.1426C100.194 13.1426 100.309 13.0566 100.146 12.6742C99.5631 11.3073 98.9992 9.92126 98.4256 8.54479C98.1962 7.99994 97.9668 7.4742 97.7087 6.85288Z"/>
<path d="M24.9787 0.773936C24.4435 1.85408 23.8699 2.85776 23.4398 3.92835C22.828 5.4482 22.7229 7.06364 22.981 8.66952C23.3251 10.8298 24.3861 12.6747 25.8486 14.2805C28.028 16.6703 30.7523 18.2283 33.7729 19.2416C35.3883 19.7769 37.0802 20.0828 38.7434 20.4555C40.5118 20.8475 42.3089 20.857 44.1059 20.8283C44.2684 20.8283 44.4309 20.8092 44.5839 20.8475C44.6699 20.8666 44.7273 20.9717 44.8037 21.0482C44.7273 21.1151 44.6699 21.2394 44.5839 21.2489C43.9339 21.3254 43.2934 21.4305 42.6434 21.4401C40.8751 21.4688 39.1067 21.507 37.3383 21.4305C36.1052 21.3732 34.8626 21.2107 33.6582 20.9526C31.9758 20.5894 30.2935 20.1592 28.6493 19.6335C26.4699 18.9357 24.4721 17.846 22.6273 16.4982C21.1743 15.4372 19.903 14.1945 18.9567 12.6651C17.6376 10.5335 16.9589 8.22981 17.1883 5.71585C17.3317 4.15776 17.7523 2.64746 18.517 1.27099C18.6508 1.03202 19.0714 0.869524 19.3868 0.82173C20.1898 0.697465 21.0023 0.592318 21.8052 0.592318C22.8758 0.582759 23.9464 0.707024 24.9787 0.773936Z"/>
<path d="M142.78 25.8959C145.027 25.9437 147.072 26.5364 148.803 28.0371C149.596 28.7253 149.615 28.8018 148.85 29.5091C148.42 29.9106 147.952 30.2739 147.541 30.6944C147.206 31.0386 146.996 31.0672 146.633 30.6944C144.635 28.7158 141.175 28.668 139.129 30.5606C137.561 32.004 137.064 34.4606 137.886 36.6974C138.555 38.504 140.4 39.7466 142.494 39.8613C144.176 39.9474 145.591 39.4216 146.757 38.2268C146.977 37.9974 147.139 37.9496 147.388 38.1886C148 38.7716 148.621 39.3356 149.252 39.89C149.519 40.1194 149.462 40.2819 149.252 40.5113C148.038 41.8496 146.528 42.643 144.778 42.968C142.58 43.379 140.419 43.2165 138.393 42.2224C136.042 41.0658 134.445 39.24 133.872 36.64C133.155 33.4091 133.862 30.5319 136.3 28.2187C137.963 26.6319 140.037 25.9819 142.303 25.8864C142.455 25.8959 142.618 25.8959 142.78 25.8959Z"/>
<path d="M158.111 26.1425C160.338 26.1425 162.566 26.1521 164.793 26.1329C165.213 26.1329 165.357 26.2476 165.338 26.6682C165.309 27.366 165.309 28.0734 165.338 28.7712C165.357 29.1822 165.232 29.3256 164.802 29.3256C163.416 29.2969 162.03 29.316 160.644 29.316C159.956 29.316 159.956 29.316 159.956 29.9851C159.956 34.0763 159.956 38.1675 159.956 42.2587C159.956 42.8895 159.956 42.8895 159.325 42.8895C158.465 42.8895 157.604 42.8704 156.744 42.8991C156.266 42.9182 156.113 42.7748 156.113 42.2873C156.132 38.1962 156.123 34.105 156.123 30.0138C156.123 29.316 156.123 29.316 155.406 29.316C154.039 29.316 152.672 29.3065 151.296 29.3256C150.894 29.3351 150.77 29.2013 150.779 28.8094C150.808 28.0925 150.808 27.3756 150.779 26.6587C150.76 26.2572 150.904 26.1425 151.305 26.1425C153.59 26.1425 155.855 26.1425 158.111 26.1425Z"/>
<path d="M43.6926 15.9245C43.3103 15.9627 42.9375 16.0297 42.5647 16.0392C41.5992 16.0488 40.6242 16.0679 39.6588 16.0297C36.4088 15.9054 33.2926 15.2458 30.4441 13.6304C28.3794 12.4547 26.7257 10.8488 25.8559 8.57378C25.3684 7.31201 25.3875 6.00246 25.6647 4.68334C25.9132 3.51716 26.4103 2.46569 27.089 1.48113C27.2515 1.25172 27.414 1.07966 27.7103 1.18481C29.1537 1.70099 30.6066 2.21716 32.05 2.7429C32.1743 2.79069 32.289 2.87672 32.3654 2.92452C32.05 3.70834 31.6676 4.43481 31.4573 5.19951C30.9698 6.92966 31.314 8.57378 32.2603 10.0841C33.5985 12.1966 35.6154 13.4201 37.8809 14.2995C39.5823 14.9591 41.3507 15.2841 43.1765 15.3605C43.4823 15.3701 43.7022 15.4466 43.6926 15.9245Z"/>
<path d="M41.1987 10.6679C40.4722 10.5914 39.8509 10.5628 39.2487 10.4576C37.9295 10.2282 36.6487 9.83628 35.559 9.02379C34.2207 8.02967 33.5229 6.75835 33.867 5.0282C34.0773 3.96717 34.2112 3.88114 35.081 4.48335C37.3943 6.07967 39.3729 8.01055 40.9884 10.3142C41.0362 10.3907 41.084 10.4672 41.1987 10.6679Z"/>
</svg>
