<svg width="97" height="70" viewBox="0 0 97 70" fill="none" xmlns="http://www.w3.org/2000/svg">
<path d="M48.3576 0.930706C62.1459 0.930706 75.9342 0.911008 89.7225 0.950403C92.4999 0.950403 94.6666 2.17165 95.9273 4.69294C96.3606 5.55964 96.6364 6.6233 96.6364 7.58849C96.6758 26.0254 96.6758 44.4426 96.6758 62.8796C96.6758 66.6024 93.6424 69.5767 89.7816 69.5767C81.2329 69.5964 72.6841 69.5767 64.1354 69.5767C45.2257 69.5767 26.3358 69.5374 7.42609 69.5964C2.75776 69.5964 -0.0195935 66.0903 0.000104076 62.1902C0.11829 44.029 0.0394992 25.8678 0.0591968 7.68697C0.0591968 4.67324 1.96986 2.07316 4.8654 1.26556C5.77149 1.0095 6.73667 0.930706 7.66246 0.930706C21.2341 0.930706 34.786 0.930706 48.3576 0.930706ZM13.0793 35.6378C13.099 40.3849 13.0202 45.1321 13.1384 49.8792C13.1778 50.9625 13.7096 52.1838 14.3793 53.0899C16.093 55.3945 18.5749 56.1036 21.3523 55.7097C24.3857 55.296 26.7691 52.8141 26.9661 49.7807C27.104 47.5943 27.0646 45.3881 27.0646 43.2017C27.0646 42.4532 27.3009 42.1577 28.0888 42.1774C32.0284 42.2168 35.9482 42.1971 39.8877 42.1774C40.518 42.1774 40.8135 42.4138 41.0301 42.985C44.5954 52.4989 54.326 58.1915 64.1157 57.1673C74.2993 56.1036 82.9466 47.614 83.7542 37.3318C84.3648 29.6104 81.7647 23.0905 75.7373 18.1267C70.4386 13.7341 64.2536 12.1386 57.517 13.5175C49.4213 15.1524 43.906 20.0177 40.912 27.6997C40.715 28.2118 40.5377 28.527 39.9074 28.527C35.9482 28.5073 31.9693 28.5073 28.0101 28.527C27.3206 28.527 27.0843 28.2709 27.0843 27.6012C27.104 26.1239 27.1237 24.6466 27.0843 23.189C27.0449 22.0071 27.0843 20.8056 26.8282 19.6828C26.1585 16.8069 23.6372 14.8963 20.2886 14.6993C16.5067 14.4826 13.0793 17.457 13.0793 20.8253C13.0596 25.7496 13.0793 30.6937 13.0793 35.6378Z"/>
<path d="M61.7507 44.6974C56.4324 44.7171 52.158 40.4821 52.1383 35.2229C52.1383 29.9242 56.3536 25.6695 61.6522 25.6498C67.0297 25.6302 71.2843 29.8454 71.304 35.1638C71.3237 40.4427 67.0691 44.6777 61.7507 44.6974Z"/>
</svg>
