<svg width="155" height="46" viewBox="0 0 155 46" fill="none" xmlns="http://www.w3.org/2000/svg">
<path d="M115.922 21.5211C117.566 19.5259 119.32 17.9034 121.557 16.8948C126.556 14.6145 134.471 14.768 139.273 19.9863C141.421 22.3324 142.627 25.095 142.803 28.2742C142.956 31.1246 142.934 33.9749 141.684 36.6498C139.382 41.5831 135.282 43.995 130.064 44.5869C128.112 44.8062 126.117 44.9597 124.188 44.7185C116.251 43.7099 111.646 38.952 110.966 30.993C110.528 25.7089 111.032 20.5125 112.677 15.4258C114.935 8.40953 119.671 4.22172 127.016 3.12543C129.406 2.77462 131.796 2.53344 134.186 2.18263C135.874 1.94144 137.497 1.72219 138.856 0.362793C139.382 -0.163424 140.785 0.143536 141.772 0.165462C141.86 0.165462 142.057 0.845159 141.991 1.17404C141.224 4.90142 139.031 7.46672 135.348 8.40953C132.432 9.155 129.384 9.48389 126.402 9.98818C124.341 10.339 122.324 10.8433 120.548 12.0053C117.303 14.1102 115.987 17.2894 115.724 20.9949C115.702 21.1264 115.79 21.2141 115.922 21.5211ZM134.12 30.4229C134.186 27.5507 133.988 24.8757 132.739 22.3762C131.555 19.9863 129.647 18.6927 127.016 18.6488C124.275 18.5831 122.302 19.9425 121.03 22.3324C119.781 24.7003 119.474 27.2656 119.496 29.8748C119.518 32.9444 119.737 36.014 121.381 38.7547C122.521 40.6622 124.166 41.6708 126.424 41.6708C129.866 41.6928 131.796 40.4211 133.111 37.2638C134.054 35.0054 134.164 32.6594 134.12 30.4229Z"/>
<path d="M46.991 15.5361C49.2275 15.5361 51.442 15.5361 53.6784 15.5361C54.4458 15.5361 54.9501 15.7334 54.9281 16.6324C54.9062 17.3998 54.9501 18.0356 53.8757 18.1891C51.3981 18.5618 50.8061 19.3073 50.7842 21.8288C50.7842 23.4074 50.8061 24.9642 50.7842 26.5428C50.7842 27.3321 51.1131 27.661 51.9024 27.661C55.1913 27.6391 58.4801 27.6391 61.769 27.661C62.5144 27.661 62.8433 27.3102 62.8433 26.6086C62.8214 24.8545 62.8653 23.1005 62.7556 21.3683C62.6021 19.2415 61.9444 18.5399 59.8395 18.233C58.9844 18.1014 58.7651 17.7287 58.7432 16.9393C58.7213 15.9746 59.0721 15.558 60.0807 15.558C64.1589 15.5799 68.259 15.558 72.3591 15.558C72.7976 15.558 73.2361 15.5799 73.6746 15.558C74.4201 15.558 74.7271 15.9308 74.7271 16.6543C74.7051 17.334 74.8586 18.0356 73.8062 18.1891C71.0874 18.6495 70.5393 19.3512 70.5393 22.1357C70.5393 27.3979 70.5393 32.6381 70.5393 37.9003C70.5393 40.4876 71.1751 41.2769 73.7623 41.6715C74.8586 41.825 74.7051 42.5705 74.7271 43.294C74.749 44.0614 74.3982 44.4342 73.6088 44.4342C69.0045 44.4342 64.4 44.4342 59.8176 44.4342C59.0721 44.4342 58.7651 44.0614 58.7871 43.3379C58.809 42.6363 58.6117 41.8689 59.7079 41.6715C62.1636 41.255 62.6898 40.7507 62.8214 38.2731C62.953 36.1901 62.8652 34.1072 62.8872 32.0462C62.8872 31.2788 62.5364 30.9279 61.747 30.9279C58.4582 30.9279 55.1693 30.9279 51.8805 30.9279C51.1569 30.9279 50.828 31.2568 50.828 32.0023C50.85 34.2607 50.8061 36.519 50.85 38.7993C50.8938 40.5533 51.7708 41.4304 53.5249 41.6935C54.8843 41.8908 55.0158 42.0881 54.9501 43.4475C54.9062 44.1272 54.6431 44.4561 53.9415 44.4561C49.2275 44.4561 44.5134 44.4561 39.8213 44.4561C39.032 44.4561 38.8566 43.9518 38.8785 43.294C38.9005 42.6143 38.7031 41.825 39.7775 41.7373C42.7374 41.5181 43.154 39.9613 43.154 37.7249C43.176 32.6162 43.176 27.5075 43.154 22.3988C43.154 22.07 43.1321 21.7411 43.0883 21.4122C42.8471 19.2854 42.2112 18.518 40.1283 18.2768C38.9224 18.1453 38.8347 17.5094 38.8785 16.5666C38.9224 15.5142 39.6459 15.5799 40.3475 15.5799C42.5401 15.5142 44.7765 15.5142 46.991 15.5361C46.991 15.5142 46.991 15.5142 46.991 15.5361Z"/>
<path d="M8.20237 9.02362C8.75051 9.52792 9.12325 9.8568 9.47406 10.2076C10.8554 11.6547 11.557 13.3211 10.8992 15.2944C10.1976 17.4212 8.61896 18.6709 6.42639 18.9998C4.14611 19.3506 2.1728 18.6709 0.901109 16.6757C-0.414434 14.6366 -0.239028 12.5317 1.09844 10.5146C2.9402 7.73001 5.57128 6.0198 8.72858 5.1647C17.1042 2.88443 24.7343 4.17804 30.9612 10.5146C38.5914 18.3201 37.9994 31.9141 30.0404 39.3688C26.1814 42.9865 21.599 44.631 16.4903 45.0256C11.6009 45.3764 6.79912 44.9379 2.1728 43.1619C0.769554 42.6138 0.725703 42.57 1.20807 41.2106C2.01932 38.8864 2.01932 38.9084 4.32152 39.8073C7.69808 41.1448 11.2062 41.7587 14.8239 41.2763C20.6781 40.5089 24.3616 37.0885 25.9841 31.5413C27.5847 26.0599 27.4093 20.5565 24.9975 15.2725C22.3664 9.46214 15.8106 6.56795 9.71524 8.4097C9.27673 8.56318 8.86014 8.76052 8.20237 9.02362Z"/>
<path d="M75.4053 29.7652C75.2299 27.0683 75.778 24.5249 77.0716 22.1789C78.9134 18.7804 81.8295 16.6974 85.4911 15.645C89.6789 14.461 93.9106 14.2198 98.0765 15.8204C102.352 17.4648 105.334 20.4248 106.627 24.8538C107.965 29.4363 107.724 33.953 105.246 38.1627C103.58 40.9911 101.058 42.8548 97.9668 43.7976C93.0993 45.3105 88.188 45.4201 83.4082 43.3372C78.4529 41.1665 75.9534 37.2199 75.4272 31.9358C75.3395 31.2342 75.4053 30.4887 75.4053 29.7652ZM98.6465 31.278C98.6904 27.4849 98.208 24.9634 97.2433 22.5297C96.1031 19.6574 93.8667 17.9472 91.3014 17.9472C88.4949 17.9472 86.3243 19.5697 85.1403 22.5297C84.044 25.2704 83.7809 28.1207 83.9782 31.0149C84.1756 33.9968 84.7675 36.8472 86.5655 39.3467C88.8896 42.5698 93.9106 42.2628 95.9497 39.4563C98.0107 36.6498 98.5588 33.4706 98.6465 31.278Z"/>
<path d="M149.426 36.3415C152.32 36.3634 154.513 38.4025 154.491 41.0994C154.469 43.7524 152.276 45.7476 149.404 45.7257C146.663 45.7038 144.58 43.6427 144.602 40.9678C144.624 38.3148 146.707 36.3196 149.426 36.3415Z"/>
</svg>
