<svg width="86" height="83" viewBox="0 0 86 83" fill="none" xmlns="http://www.w3.org/2000/svg">
<path d="M34.4796 0.912109C35.4493 0.912109 36.419 0.912109 37.3887 0.912109C37.7766 0.953672 38.161 1.00563 38.5524 1.04026C40.5368 1.20651 42.4796 1.57711 44.3809 2.16245C47.2762 3.05259 49.9463 4.37913 52.3013 6.3014C52.4744 6.44341 52.6234 6.42609 52.8069 6.3776C54.6043 5.87885 56.4363 5.59484 58.2961 5.50825C60.0415 5.42512 61.7766 5.52557 63.5013 5.83036C66.2026 6.30833 68.7307 7.22964 71.0233 8.75014C74.3099 10.9287 76.5125 13.9004 77.4961 17.7415C77.5549 17.9701 77.6658 18.1121 77.8736 18.2299C80.8484 19.9063 83.103 22.2511 84.5091 25.3856C85.2225 26.9754 85.6519 28.6483 85.8424 30.3766C85.929 31.1559 86.0052 31.9456 85.9671 32.7249C85.8978 34.2488 85.645 35.7486 85.2363 37.2206C84.2736 40.7015 82.4554 43.6316 79.6606 45.9384C77.5826 47.6528 75.2173 48.8096 72.6545 49.5959C70.348 50.299 67.9861 50.6696 65.5827 50.7908C63.5948 50.8912 61.6173 50.7943 59.6537 50.4722C59.477 50.4444 59.3489 50.4722 59.2034 50.5587C58.5454 50.9605 57.8909 51.3761 57.2086 51.7398C53.6485 53.6378 49.8216 54.7012 45.8597 55.3385C44.3671 55.5774 42.8675 55.7679 41.3576 55.8441C39.8822 55.9203 38.4069 56 36.9316 56.0035C34.9714 56.0069 33.0112 55.9065 31.0615 55.7021C29.6519 55.5532 28.2459 55.3662 26.8537 55.096C26.6424 55.0544 26.5143 55.096 26.3757 55.2519C25.7004 56.0104 25.0147 56.7585 24.3325 57.5101C24.284 57.5621 24.2493 57.6279 24.1731 57.7387C24.3567 57.7387 24.4814 57.7352 24.6026 57.7387C24.89 57.7456 25.1809 57.7352 25.4649 57.7664C26.6944 57.898 27.6156 59.0964 27.4563 60.326C27.3766 60.939 27.0788 61.4205 26.6493 61.8534C19.9307 68.5658 13.219 75.2816 6.50389 81.9975C6.44848 82.0529 6.38961 82.1117 6.33073 82.1672C6.02597 82.4616 5.6658 82.659 5.25368 82.7629C5.18788 82.7802 5.129 82.8114 5.06666 82.8356C4.83463 82.8356 4.60606 82.8356 4.37402 82.8356C4.29783 82.8114 4.22511 82.7802 4.14545 82.7594C3.66407 82.6348 3.25541 82.3854 2.93333 82.0044C2.28225 81.2355 2.2026 80.2276 2.72208 79.2924C4.90043 75.3751 7.08225 71.4544 9.26407 67.5371C9.32987 67.4193 9.38528 67.3016 9.44415 67.1873C9.3922 67.1561 9.37489 67.1353 9.35757 67.1319C9.11515 67.1284 8.87272 67.1284 8.6303 67.1215C7.55324 67.0972 6.61818 66.2694 6.44502 65.2061C6.35498 64.6589 6.46926 64.1601 6.7013 63.6648C8.45714 59.893 10.2061 56.1178 11.9584 52.3459C12.0208 52.2143 12.0762 52.0792 12.142 51.9372C11.9723 51.861 11.8372 51.7987 11.7022 51.7364C8.55757 50.3059 5.88744 48.2728 3.79221 45.5123C1.68658 42.7519 0.446753 39.6555 0.124675 36.2023C0.107359 36.0222 0.0450216 35.849 0 35.6724C0 34.9346 0 34.1969 0 33.4557C0.0450216 33.241 0.100433 33.0297 0.131602 32.8149C0.197403 32.3924 0.232035 31.9664 0.308225 31.5473C0.820779 28.7349 1.99134 26.2203 3.74718 23.9725C5.55844 21.6588 7.7922 19.8439 10.3411 18.4065C10.5593 18.2818 10.6771 18.1364 10.7463 17.8939C12.0242 13.5818 14.3861 9.96931 17.8459 7.10495C22.2649 3.44743 27.4251 1.62907 33.0736 1.05412C33.5411 1.00563 34.0121 0.960599 34.4796 0.912109ZM34.677 17.274C34.5697 17.035 34.4692 16.751 34.3238 16.4947C34.0363 15.9924 33.6208 15.8227 33.0632 15.9751C32.8104 16.0444 32.5576 16.1414 32.3255 16.2626C30.8225 17.0419 29.6104 18.1433 28.8 19.6326C27.3247 22.3377 26.7325 25.2159 27.2796 28.2811C27.4528 29.244 27.768 30.1584 28.3671 30.9481C29.2433 32.1014 30.4104 32.5101 31.8199 32.2538C32.7861 32.0772 33.6208 31.62 34.3757 31.0104C35.3593 30.2138 36.1212 29.2302 36.6788 28.101C37.9705 25.4791 38.4485 22.7048 38.0883 19.8024C37.9602 18.7598 37.6138 17.7866 36.9524 16.9449C36.4086 16.2522 35.9238 16.2037 35.2623 16.7856C35.0649 16.9484 34.871 17.1077 34.677 17.274ZM46.7636 17.364C46.7082 17.2289 46.6701 17.1216 46.6286 17.0177C46.5558 16.8479 46.4935 16.6748 46.4 16.5154C46.0987 15.9994 45.69 15.8227 45.1151 15.9751C44.8935 16.034 44.6753 16.1137 44.471 16.2176C43.0753 16.9311 41.9324 17.9286 41.084 19.2516C40.2978 20.4812 39.8164 21.832 39.484 23.2451C39.0476 25.0947 39.006 26.9442 39.4563 28.7972C39.6641 29.6562 40 30.4632 40.5853 31.1455C41.3299 32.0114 42.2718 32.3924 43.4112 32.3093C44.2978 32.2435 45.0909 31.9179 45.8286 31.4434C46.8675 30.7749 47.6918 29.8917 48.3151 28.8353C49.9913 25.9883 50.5316 22.9057 50.1229 19.6465C50.0467 19.0404 49.884 18.4412 49.5931 17.9009C49.3749 17.4991 49.1255 17.1042 48.8346 16.751C48.4606 16.2903 48.0346 16.2591 47.5567 16.6055C47.3627 16.7475 47.1965 16.9276 47.0234 17.0938C46.9368 17.17 46.8641 17.2566 46.7636 17.364ZM23.1377 19.74C22.916 20.5055 22.7151 21.1912 22.5177 21.877C21.69 24.731 20.8727 27.5884 20.0346 30.4424C19.8511 31.0624 20.0242 31.5542 20.471 31.9733C20.7792 32.2642 21.1498 32.4409 21.5688 32.5275C22.4035 32.6972 23.0857 32.3508 23.4182 31.5681C23.4978 31.3776 23.5602 31.1801 23.6225 30.9792C24.561 28.0006 25.3818 24.9873 26.1783 21.9671C26.5697 20.4847 26.916 18.9919 27.3004 17.5095C27.4597 16.8964 27.1377 16.3526 26.5974 16.086C26.026 15.8054 25.4338 15.8054 24.8485 16.0063C23.4874 16.4739 22.1299 16.9622 20.7757 17.4471C20.5922 17.5129 20.4121 17.5995 20.2528 17.7069C19.7264 18.0567 19.5325 18.5555 19.6502 19.1754C19.761 19.7573 20.1177 20.1071 20.6822 20.263C20.9905 20.3461 21.2918 20.3496 21.6 20.2422C22.0848 20.0725 22.5766 19.9236 23.1377 19.74ZM58.0398 19.74C57.9809 19.9547 57.9463 20.0864 57.9082 20.218C56.9212 23.6261 55.9376 27.0377 54.9437 30.4459C54.7705 31.0451 54.9195 31.5369 55.3627 31.9525C55.716 32.2885 56.1454 32.4824 56.6234 32.5517C57.3714 32.6591 57.9913 32.3093 58.3065 31.6165C58.3619 31.4919 58.4104 31.3602 58.4485 31.2286C59.1653 28.7591 59.903 26.3 60.5853 23.8201C61.1567 21.7419 61.6519 19.643 62.1991 17.5614C62.3896 16.8341 61.974 16.2765 61.3956 16.0375C60.8692 15.8193 60.3324 15.8158 59.806 15.9924C58.4104 16.4704 57.0182 16.9588 55.6329 17.4679C55.3593 17.5684 55.0961 17.745 54.8848 17.9459C54.2615 18.5278 54.4415 19.8474 55.3835 20.1868C55.7749 20.3288 56.1627 20.3634 56.5645 20.2249C57.032 20.0656 57.503 19.9166 58.0398 19.74ZM67.1688 29.386C67.2034 29.3895 67.2415 29.3895 67.2762 29.3929C67.2762 29.528 67.2692 29.6596 67.2762 29.7947C67.2969 30.1861 67.3143 30.5775 67.3558 30.9654C67.387 31.2563 67.477 31.53 67.6814 31.7516C67.8649 31.949 68.0519 31.9768 68.2597 31.807C68.3913 31.6997 68.5091 31.5646 68.606 31.4226C68.8519 31.0589 69.077 30.6848 69.316 30.3177C69.4926 30.0372 69.6762 29.7601 69.8528 29.483C69.8909 29.5557 69.8839 29.6077 69.8701 29.6562C69.7316 30.1688 69.593 30.6779 69.4545 31.1905C69.4268 31.291 69.3922 31.388 69.3714 31.4919C69.3056 31.8348 69.5134 32.1707 69.8493 32.2746C70.1679 32.3716 70.445 32.2331 70.5974 31.8867C70.6424 31.7828 70.6805 31.672 70.7082 31.5611C70.916 30.7126 71.1238 29.8605 71.3177 29.0085C71.4182 28.5582 71.5186 28.108 71.5671 27.6508C71.6363 27.0169 71.1723 26.6533 70.5593 26.8299C70.3272 26.8957 70.1506 27.0343 70.0259 27.2455C69.9394 27.3945 69.8459 27.5399 69.7558 27.6889C69.3472 28.3573 68.9385 29.0258 68.5298 29.6943C68.5021 29.7393 68.4606 29.7705 68.3913 29.8467C68.374 29.722 68.3567 29.6492 68.3532 29.573C68.3428 29.2267 68.3567 28.8803 68.329 28.5374C68.2978 28.1357 68.2528 27.7339 68.187 27.3391C68.1489 27.107 68.0346 26.9061 67.7818 26.823C67.1965 26.6325 66.6216 26.9338 66.4554 27.5261C66.2995 28.0699 66.1506 28.6136 65.9948 29.154C65.7904 29.8744 65.5757 30.5913 65.3853 31.3152C65.3368 31.4953 65.3333 31.7066 65.3818 31.8867C65.4476 32.1361 65.742 32.3058 66.0017 32.3023C66.2822 32.2989 66.4623 32.143 66.5454 31.8971C66.6528 31.5819 66.7359 31.2563 66.8121 30.9342C66.9437 30.4182 67.0545 29.9021 67.1688 29.386ZM61.4303 39.0667C61.4164 39.181 61.413 39.2329 61.3991 39.2849C61.3472 39.4719 61.2883 39.6589 61.2329 39.8494C61.1221 40.2373 61.2467 40.5144 61.5619 40.601C61.8597 40.6841 62.064 40.5456 62.1853 40.1646C62.2718 39.9014 62.3411 39.6347 62.4242 39.3715C62.445 39.3056 62.4866 39.2468 62.5385 39.1463C62.6943 39.5758 62.8259 39.9568 62.9645 40.3343C63.0822 40.646 63.2866 40.743 63.5844 40.6322C63.8961 40.5144 63.9757 40.3343 63.858 40.0087C63.7991 39.846 63.7368 39.6866 63.6744 39.5238C63.5809 39.2675 63.4874 39.0078 63.4008 38.7723C63.4355 38.7238 63.4459 38.6995 63.4632 38.6857C64.1004 38.2458 64.4225 37.5843 64.703 36.895C64.755 36.7669 64.7619 36.6456 64.658 36.5417C64.4363 36.3131 63.9584 36.4066 63.813 36.6941C63.6606 36.9885 63.5047 37.2864 63.3212 37.5635C63.2242 37.7089 63.0684 37.8163 62.9402 37.9445C62.9195 37.9306 62.9021 37.9168 62.8814 37.9029C62.9091 37.7851 62.9402 37.6639 62.9714 37.5462C63.0199 37.3557 63.0822 37.1686 63.1203 36.9781C63.1827 36.6733 63.0545 36.4482 62.7948 36.3824C62.5385 36.3131 62.258 36.4621 62.1679 36.7322C62.071 37.0162 61.9948 37.3072 61.9082 37.5912C61.8805 37.6778 61.8459 37.7644 61.7904 37.9029C61.7385 37.7886 61.7073 37.7401 61.6935 37.6882C61.6138 37.3418 61.5376 36.9954 61.4684 36.6456C61.413 36.372 61.2779 36.2681 61.0112 36.3201C60.6753 36.3859 60.5125 36.6041 60.5887 36.947C60.6822 37.3799 60.8138 37.8094 60.9316 38.2527C60.9143 38.27 60.8831 38.3081 60.8519 38.3358C60.3359 38.8034 59.9203 39.3541 59.522 39.9222C59.4355 40.0468 59.3524 40.1715 59.4355 40.3343C59.5913 40.6391 60.0623 40.6876 60.2701 40.414C60.3809 40.2685 60.4848 40.1127 60.5956 39.9672C60.8277 39.652 61.077 39.3576 61.4303 39.0667ZM63.5394 28.1184C63.7575 28.1184 63.9619 28.1253 64.1662 28.1184C64.419 28.108 64.6753 28.1114 64.9212 28.0629C65.2433 28.0006 65.458 27.6161 65.413 27.249C65.3783 26.9615 65.1948 26.8264 64.8104 26.8091C64.4086 26.7883 64.0034 26.7606 63.6017 26.7468C63.2692 26.7329 62.9298 26.7087 62.6008 26.7295C62.0467 26.7676 61.6658 27.5573 61.9948 27.9971C62.1125 28.1565 62.1021 28.2777 62.0571 28.437C61.8043 29.3722 61.555 30.3073 61.3056 31.2425C61.2744 31.3533 61.2398 31.4641 61.2259 31.5784C61.1948 31.8832 61.4234 32.195 61.7281 32.2815C62.0259 32.3647 62.2961 32.2434 62.4381 31.9387C62.5108 31.7828 62.5558 31.6131 62.6078 31.4503C62.7255 31.0658 62.8398 30.6814 62.9541 30.3142C63.0026 30.3004 63.0268 30.29 63.0476 30.29C63.3489 30.2865 63.6467 30.2935 63.948 30.2796C64.1073 30.2727 64.2736 30.2588 64.4225 30.2069C64.6995 30.1099 64.8692 29.7462 64.8207 29.3999C64.7861 29.1366 64.6407 29.0293 64.2701 28.9981C63.9757 28.9704 63.6814 28.9461 63.3454 28.9184C63.4112 28.6379 63.4701 28.3954 63.5394 28.1184ZM49.5619 30.3697C49.4995 31.6477 50.5524 32.2746 51.3247 32.2712C52.2285 32.2677 53.1082 31.3152 53.1082 30.3523C53.1082 29.3548 52.3671 28.6483 51.3281 28.6483C50.2961 28.6483 49.5619 29.3652 49.5619 30.3697ZM49.5688 38.8242C49.5827 38.8381 49.6 38.8554 49.6138 38.8692C49.5411 39.2052 49.4615 39.5412 49.3991 39.8806C49.3368 40.22 49.4684 40.4244 49.7558 40.4798C50.0744 40.5387 50.2684 40.4036 50.355 40.0676C50.5524 39.323 50.7532 38.5748 50.9472 37.8302C51.0268 37.5288 51.1065 37.2275 51.155 36.9227C51.2069 36.5798 51.0753 36.4378 50.729 36.3859C50.5281 36.3547 50.4034 36.4586 50.2892 36.5971C49.8943 37.0647 49.4961 37.5254 49.1013 37.993C49.0459 38.0588 49.0043 38.135 48.9558 38.2077C48.9316 38.1869 48.9073 38.1696 48.8831 38.1488C48.9212 38.0068 48.9593 37.8648 48.9974 37.7193C49.0701 37.4526 49.1498 37.1859 49.2086 36.9158C49.2571 36.6907 49.174 36.5071 49.032 36.4309C48.7307 36.2681 48.426 36.3685 48.2805 36.6768C48.2355 36.7703 48.1974 36.8673 48.1731 36.9677C47.9653 37.747 47.7576 38.5263 47.5532 39.3056C47.4978 39.5169 47.4528 39.7317 47.4216 39.9499C47.387 40.1715 47.4563 40.362 47.6641 40.4798C47.8545 40.5872 48.0866 40.556 48.2736 40.3932C48.3671 40.3101 48.4502 40.2096 48.5299 40.1127C48.7654 39.8286 48.9939 39.5377 49.226 39.2502C49.3402 39.1048 49.4545 38.9662 49.5688 38.8242ZM37.6554 39.2433C37.5688 39.5135 37.4753 39.7628 37.406 40.0157C37.3576 40.2062 37.413 40.3863 37.5792 40.5075C37.742 40.6253 37.9186 40.6253 38.1056 40.5525C38.3134 40.4694 38.3757 40.2858 38.4346 40.0953C38.6597 39.323 38.8883 38.5471 39.1203 37.7748C39.1688 37.612 39.2658 37.4665 39.3212 37.3037C39.3766 37.1444 39.4355 36.9747 39.4528 36.8084C39.4736 36.5556 39.3731 36.4447 39.1169 36.4205C38.8086 36.3893 38.497 36.3616 38.1853 36.3685C37.7524 36.3755 37.3472 36.4898 36.9801 36.7357C36.4052 37.1201 35.9654 38.1869 36.5437 38.8623C36.5541 38.8762 36.5472 38.9073 36.5506 38.942C36.3671 39.2433 36.09 39.4684 35.7957 39.6728C35.7021 39.7386 35.5983 39.794 35.5082 39.8633C35.2831 40.0434 35.2346 40.2754 35.3662 40.504C35.4978 40.7326 35.716 40.8019 35.9931 40.6807C36.1177 40.6287 36.2355 40.5491 36.3428 40.4659C36.7203 40.1715 37.032 39.8182 37.271 39.4061C37.3541 39.2745 37.4372 39.1602 37.6554 39.2433ZM56.0935 39.6347C56.0935 39.5308 56.0935 39.4373 56.0935 39.3472C56.1039 38.5298 56.1177 37.7089 56.1281 36.8915C56.1316 36.5556 55.9861 36.4136 55.6433 36.4101C55.5636 36.4101 55.4805 36.4101 55.4043 36.3963C55.1273 36.3478 54.9333 36.4621 54.7982 36.6907C54.729 36.8084 54.6701 36.9366 54.6112 37.0613C54.2649 37.8025 53.9186 38.5437 53.5757 39.2849C53.4961 39.4546 53.4199 39.607 53.1844 39.6139C53.0909 39.6174 52.9524 39.7178 52.9212 39.8044C52.8381 40.0261 52.7688 40.2616 52.755 40.4971C52.7411 40.7188 52.942 40.885 53.1671 40.8642C53.3056 40.8504 53.458 40.788 53.5723 40.7049C53.6692 40.6322 53.7524 40.5802 53.877 40.5837C54.3376 40.5906 54.7982 40.5872 55.2589 40.601C55.342 40.6045 55.4355 40.6357 55.5013 40.6876C55.7991 40.9266 56.1627 40.9197 56.3532 40.6668C56.5956 40.3482 56.5472 39.9395 56.2389 39.7178C56.1905 39.6901 56.142 39.6624 56.0935 39.6347ZM67.4632 39.6381C67.4632 38.7549 67.4632 37.8925 67.4632 37.0266C67.4632 36.9573 67.4701 36.8881 67.4632 36.8188C67.4459 36.5521 67.3143 36.4205 67.0511 36.4066C66.9472 36.4032 66.8433 36.4101 66.7428 36.3928C66.4831 36.3512 66.2926 36.4517 66.1575 36.6664C66.0848 36.7842 66.0259 36.9089 65.9671 37.0336C65.6104 37.7955 65.2571 38.5575 64.9004 39.323C64.8311 39.4754 64.748 39.5723 64.5541 39.607C64.1904 39.6728 63.9342 40.3967 64.1662 40.6911C64.2355 40.7777 64.374 40.8608 64.4814 40.8608C64.6199 40.8608 64.7896 40.8123 64.89 40.7222C65.0182 40.6079 65.1428 40.5837 65.2952 40.5872C65.7004 40.5941 66.1021 40.5975 66.5073 40.5975C66.6562 40.5975 66.7775 40.6079 66.9021 40.7361C67.1169 40.9578 67.5463 40.9093 67.6917 40.6564C67.8891 40.3205 67.9827 39.9152 67.522 39.6832C67.4943 39.6728 67.4736 39.6451 67.4632 39.6381ZM40.8831 37.941C40.9143 37.7955 40.942 37.6743 40.9697 37.5531C41.0251 37.3176 41.0874 37.082 41.1324 36.8465C41.1671 36.6595 41.0978 36.5002 40.9316 36.4032C40.755 36.2993 40.561 36.3062 40.4156 36.4413C40.3047 36.5452 40.2147 36.6941 40.1628 36.8396C40.0623 37.1201 39.9931 37.4145 39.9134 37.702C39.8718 37.8475 39.806 37.9583 39.6675 38.0518C39.3628 38.2562 39.3004 38.5991 39.4459 38.9385C39.477 39.0112 39.4874 39.1117 39.4701 39.1913C39.4078 39.4476 39.3177 39.7005 39.2589 39.9568C39.1965 40.2373 39.3628 40.4902 39.6363 40.5733C39.8753 40.646 40.0935 40.5283 40.2043 40.2477C40.284 40.0434 40.3359 39.8321 40.4017 39.6208C40.471 39.4026 40.5402 39.1879 40.606 38.9835C40.8866 38.9835 41.1324 38.9835 41.4095 38.9835C41.3853 39.1013 41.3714 39.1913 41.3472 39.2779C41.2814 39.51 41.2017 39.7421 41.1498 39.9776C41.0944 40.2339 41.2571 40.4833 41.5169 40.5664C41.7489 40.6426 41.9602 40.5456 42.0814 40.2962C42.1264 40.2027 42.1576 40.1023 42.1853 40.0018C42.4415 39.0701 42.6978 38.135 42.9541 37.2033C42.9853 37.0924 43.013 36.9781 43.0234 36.8638C43.0511 36.6179 42.9679 36.4551 42.7879 36.3755C42.6008 36.2923 42.3619 36.3408 42.2268 36.5175C42.1402 36.6318 42.0814 36.7772 42.0363 36.9193C41.929 37.2552 41.8389 37.5981 41.7385 37.9375C41.4337 37.941 41.174 37.941 40.8831 37.941ZM31.1099 37.9583C31.1619 37.747 31.2034 37.5877 31.2485 37.4076C31.5428 37.4076 31.8199 37.4145 32.097 37.4041C32.232 37.4007 32.3775 37.3834 32.5022 37.3349C32.7099 37.2518 32.8208 36.9747 32.7757 36.7184C32.7446 36.5417 32.6441 36.4378 32.4433 36.4274C31.8338 36.3928 31.2242 36.3685 30.6112 36.3443C30.3169 36.3339 30.1402 36.4967 30.0329 36.7565C29.929 37.0162 29.9532 37.2518 30.1576 37.4561C30.0675 37.7851 29.9844 38.1107 29.8944 38.4294C29.8009 38.7515 29.6935 39.0667 29.5965 39.3853C29.4199 39.9741 29.8978 40.646 30.5073 40.6564C31.1203 40.6668 31.6606 40.459 32.1108 40.0365C32.3151 39.8425 32.4571 39.607 32.5229 39.3299C32.703 38.5852 32.2528 37.9895 31.4909 37.9618C31.3766 37.9549 31.2658 37.9583 31.1099 37.9583ZM58.7775 36.6976C58.5177 36.3616 58.4034 36.3304 58.0433 36.5175C57.9013 36.5902 57.7593 36.6768 57.6381 36.7807C56.8381 37.4734 56.516 38.3601 56.6303 39.4026C56.6649 39.704 56.7965 39.9776 57.0008 40.2062C57.3818 40.6322 57.9186 40.7396 58.4034 40.4382C58.6528 40.2824 58.8814 40.0711 59.0614 39.8425C59.574 39.1775 59.761 38.3982 59.7298 37.5704C59.7195 37.2899 59.6363 37.0024 59.5359 36.7357C59.4424 36.4794 59.2831 36.4413 59.0372 36.5521C58.9576 36.5902 58.8814 36.6387 58.7775 36.6976ZM28.3117 37.4111C28.5922 37.4111 28.8312 37.418 29.0736 37.4076C29.1983 37.4007 29.3299 37.3834 29.4407 37.3383C29.6381 37.2552 29.7593 36.9574 29.7143 36.7184C29.6831 36.5487 29.5757 36.4378 29.3783 36.4274C28.8034 36.3928 28.2286 36.3685 27.6537 36.3443C27.1377 36.3235 26.9056 36.9989 27.1099 37.3002C27.2104 37.4492 27.1896 37.5739 27.148 37.7193C27.013 38.2077 26.871 38.6926 26.7532 39.1879C26.7048 39.3957 26.6736 39.6208 26.6874 39.8356C26.7221 40.2824 26.9818 40.5144 27.432 40.5387C27.6952 40.5525 27.9619 40.5629 28.2251 40.5698C28.3151 40.5733 28.4086 40.5629 28.4987 40.5456C28.7792 40.4867 28.9489 40.1992 28.9212 39.846C28.9004 39.6139 28.8035 39.555 28.4329 39.5516C28.2182 39.5481 28.0035 39.5446 27.7368 39.5377C27.7749 39.3264 27.806 39.1671 27.8372 38.9939C28.0762 38.9939 28.2736 39.0009 28.4675 38.9905C28.6164 38.9835 28.7688 38.9766 28.9108 38.9385C29.1463 38.8796 29.3022 38.606 29.2779 38.3393C29.2571 38.1211 29.1394 38.0276 28.8415 37.9964C28.6268 37.9722 28.4121 37.9514 28.1593 37.9237C28.2182 37.7436 28.2597 37.5946 28.3117 37.4111ZM22.2199 37.4111C22.5004 37.4111 22.7428 37.418 22.9853 37.4076C23.1099 37.4007 23.2415 37.3834 23.3524 37.3349C23.5532 37.2518 23.671 36.9539 23.6225 36.7149C23.5879 36.5452 23.484 36.4378 23.2831 36.424C22.7186 36.3893 22.1576 36.3478 21.5931 36.3443C21.1013 36.3408 20.7861 36.8742 21.0216 37.3002C21.0978 37.4388 21.1048 37.5496 21.0667 37.6882C20.9281 38.1869 20.7827 38.6857 20.6649 39.1879C20.613 39.4095 20.5887 39.6451 20.6061 39.8702C20.6441 40.2824 20.9004 40.5075 21.316 40.5317C21.6035 40.5491 21.8909 40.5595 22.1783 40.5629C22.2822 40.5629 22.3861 40.5491 22.4866 40.5214C22.7186 40.4486 22.8918 40.0849 22.8364 39.8009C22.7983 39.607 22.7013 39.5516 22.3792 39.5481C22.1541 39.5446 21.929 39.5377 21.6623 39.5342C21.6935 39.3299 21.7177 39.1775 21.7454 38.9905C21.9567 38.9905 22.1368 38.9974 22.3203 38.987C22.4935 38.9801 22.6667 38.9731 22.8329 38.9316C23.0684 38.8727 23.2208 38.6025 23.1965 38.3324C23.1757 38.1176 23.058 38.0241 22.7602 37.993C22.5454 37.9687 22.3307 37.9479 22.0814 37.9202C22.1264 37.7436 22.1714 37.5912 22.2199 37.4111ZM34.303 36.3097C34.303 36.3166 34.2996 36.3235 34.2996 36.3304C34.1402 36.3374 33.974 36.3304 33.8182 36.3582C33.6623 36.3859 33.4996 36.4274 33.3645 36.5036C33.1047 36.6491 32.9662 37.2102 33.1705 37.3453C33.4026 37.4977 33.3506 37.6535 33.2952 37.844C33.0978 38.5298 32.897 39.2121 32.7065 39.9014C32.6199 40.2166 32.7757 40.4936 33.0736 40.5768C33.3229 40.646 33.5376 40.5179 33.6519 40.2166C33.7212 40.033 33.7801 39.846 33.8251 39.6555C33.8701 39.465 33.9602 39.3818 34.1679 39.3403C34.4554 39.2849 34.7463 39.1775 35.0095 39.0459C35.4597 38.8173 35.7541 38.4363 35.9065 37.9549C36.1385 37.224 35.8303 36.6318 35.0926 36.4344C34.8294 36.3616 34.5628 36.3478 34.303 36.3097ZM25.0632 36.3062C25.0632 36.3131 25.0597 36.3201 25.0597 36.327C24.9108 36.3339 24.7584 36.327 24.613 36.3512C24.4571 36.3789 24.2944 36.417 24.1558 36.4932C23.8753 36.6491 23.7541 37.2067 23.9757 37.3591C24.1593 37.4838 24.1454 37.6016 24.097 37.7644C23.9169 38.3947 23.7368 39.0251 23.5567 39.6555C23.5255 39.7663 23.484 39.8771 23.4667 39.988C23.4286 40.2477 23.5913 40.4902 23.8511 40.5698C24.0831 40.6391 24.2909 40.5352 24.4052 40.2789C24.4675 40.1438 24.5229 40.0018 24.5472 39.8563C24.6026 39.5273 24.748 39.3437 25.1117 39.2987C25.3645 39.2675 25.6138 39.1394 25.8424 39.0112C26.2719 38.7723 26.5524 38.3947 26.6944 37.9237C26.9125 37.2067 26.6009 36.6249 25.877 36.4309C25.6138 36.3616 25.3333 36.3478 25.0632 36.3062ZM17.6208 39.1879C17.6277 39.323 17.6277 39.4269 17.6381 39.5308C17.697 40.0988 18.0606 40.4867 18.6182 40.5872C19.1446 40.6807 19.9377 40.3378 20.2251 39.8841C20.3532 39.6832 20.3671 39.4719 20.2597 39.2606C20.0866 38.9177 19.6814 38.8796 19.4424 39.1775C19.3905 39.2398 19.3524 39.3126 19.2935 39.368C19.1792 39.4754 19.0372 39.5342 18.8814 39.4719C18.729 39.413 18.6978 39.2745 18.6944 39.129C18.6909 39.0043 18.677 38.8658 18.7186 38.7515C18.8467 38.3843 18.9887 38.0172 19.148 37.6639C19.2104 37.5254 19.3177 37.3591 19.5048 37.3834C19.6641 37.4041 19.6779 37.5704 19.7299 37.702C19.8199 37.9341 20.0208 37.9999 20.2355 37.889C20.5714 37.7089 20.7342 37.3072 20.6164 36.9435C20.4641 36.4725 20.0519 36.2231 19.5636 36.3166C19.013 36.4205 18.5905 36.7253 18.2719 37.1756C17.839 37.7851 17.6554 38.4779 17.6208 39.1879ZM69.5307 37.9445C69.5757 37.7609 69.6173 37.605 69.6519 37.4492C69.69 37.2933 69.7246 37.1375 69.7523 36.9781C69.8147 36.6145 69.5134 36.3547 69.1601 36.4551C68.9974 36.5036 68.8762 36.6041 68.8104 36.7634C68.7792 36.8361 68.7584 36.9158 68.7376 36.992C68.5091 37.7505 68.284 38.5125 68.0554 39.271C67.9065 39.7663 68.2632 40.459 68.7376 40.5179C69.4303 40.601 70.064 40.4313 70.5939 39.9568C71.0095 39.5827 71.0891 39.1186 70.916 38.6025C70.7913 38.2285 70.5454 38.0033 70.1333 37.986C69.9359 37.9791 69.7454 37.9618 69.5307 37.9445ZM44.4086 37.9479C44.471 37.7193 44.5195 37.5427 44.5645 37.3626C44.606 37.1963 44.658 37.0266 44.6788 36.8569C44.7099 36.6145 44.6164 36.4517 44.4329 36.372C44.2563 36.2993 44.0346 36.3374 43.8961 36.5002C43.8164 36.5937 43.7576 36.7114 43.7195 36.8292C43.4805 37.5773 43.2415 38.322 43.0234 39.077C42.9541 39.316 42.916 39.5758 42.9299 39.8252C42.9506 40.265 43.2346 40.5179 43.671 40.5352C44.2216 40.556 44.7203 40.4036 45.1636 40.078C45.5896 39.7628 45.7731 39.3403 45.7177 38.8138C45.6692 38.3428 45.3091 37.9826 44.8312 37.9479C44.7065 37.9375 44.5818 37.9479 44.4086 37.9479ZM47.574 36.7253C47.5186 36.6456 47.4597 36.5036 47.3558 36.417C47.2104 36.2993 47.0303 36.3166 46.8675 36.4101C46.7082 36.5036 46.6286 36.6491 46.5766 36.8223C46.2892 37.8198 45.9948 38.8138 45.7073 39.8113C45.6831 39.8979 45.6658 39.9914 45.6658 40.0849C45.6658 40.3205 45.8355 40.5248 46.071 40.5837C46.2892 40.6357 46.49 40.5317 46.5974 40.2962C46.6597 40.1611 46.7047 40.0157 46.7428 39.8702C46.9922 38.9697 47.2381 38.0692 47.4805 37.1686C47.5151 37.0439 47.5359 36.9158 47.574 36.7253ZM49.7247 36.1607C50.2234 36.1642 50.7602 35.9079 51.0303 35.5719C51.1861 35.378 51.2 35.1979 51.0753 35.0385C50.9714 34.9035 50.8329 34.8792 50.6078 34.9727C50.49 35.0212 50.3792 35.0836 50.2649 35.1355C50.0121 35.2567 49.7697 35.3087 49.5273 35.1009C49.3887 34.9831 49.226 34.997 49.0805 35.0974C48.8589 35.2498 48.8138 35.5304 48.9835 35.7694C49.1775 36.0499 49.4649 36.1503 49.7247 36.1607Z"/>
<path d="M30.5508 25.9794C30.5369 24.1957 30.9941 22.5401 31.9811 21.0473C32.22 20.6837 32.5144 20.3546 32.8226 20.0464C33.0131 19.8559 33.2625 19.7104 33.5084 19.5892C33.8339 19.4264 34.1144 19.5026 34.3187 19.8108C34.4434 19.9979 34.5369 20.2161 34.6027 20.4343C34.769 20.9781 34.8209 21.5461 34.7897 22.1106C34.7516 22.7653 34.6824 23.4199 34.5716 24.0641C34.388 25.1343 33.9516 26.1145 33.3802 27.0289C33.1759 27.3579 32.9127 27.6558 32.646 27.9398C32.4486 28.1545 32.1889 28.2827 31.8945 28.3416C31.4547 28.4351 31.1603 28.3208 30.9144 27.9467C30.6858 27.6004 30.5785 27.2125 30.5542 26.8072C30.5369 26.5336 30.5508 26.2565 30.5508 25.9794Z"/>
<path d="M42.6049 26.0059C42.6014 24.198 43.062 22.5216 44.0732 21.015C44.3226 20.6444 44.6308 20.3119 44.9494 19.9967C45.133 19.8166 45.3789 19.685 45.6144 19.5741C45.8984 19.439 46.1616 19.5049 46.3451 19.7646C46.4802 19.9586 46.5875 20.1837 46.6568 20.4123C46.8611 21.0808 46.8819 21.7735 46.8473 22.4662C46.7676 24.0109 46.3797 25.4691 45.5832 26.7991C45.365 27.1628 45.1053 27.5022 44.8317 27.8278C44.6066 28.0945 44.3087 28.2711 43.952 28.3438C43.5261 28.4304 43.2421 28.3265 42.9962 27.9698C42.733 27.5888 42.6395 27.1489 42.6083 26.6952C42.591 26.4666 42.6049 26.2345 42.6049 26.0059Z"/>
<path d="M38.2552 37.3984C38.1756 37.6547 38.1201 37.8868 38.0301 38.1015C37.9608 38.2678 37.6769 38.344 37.5175 38.2782C37.3652 38.2158 37.3063 38.0149 37.379 37.8002C37.4829 37.4885 37.7773 37.3326 38.2552 37.3984Z"/>
<path d="M55.0768 39.6017C54.8621 39.6017 54.6785 39.6017 54.4396 39.6017C54.5643 39.335 54.6785 39.0926 54.7859 38.8501C54.9002 38.6007 55.0075 38.3444 55.1669 38.0985C55.1426 38.5834 55.1114 39.0718 55.0768 39.6017Z"/>
<path d="M66.5303 38.083C66.4956 38.5818 66.461 39.084 66.4229 39.6C66.2082 39.6 66.0177 39.6 65.7926 39.6C66.0281 39.0805 66.2532 38.5818 66.4783 38.0865C66.4991 38.083 66.513 38.083 66.5303 38.083Z"/>
<path d="M30.872 38.8771C31.021 38.8563 31.1664 38.8182 31.3119 38.8182C31.5301 38.8182 31.5993 38.9152 31.5578 39.123C31.5023 39.3897 31.253 39.6114 30.9829 39.6356C30.7855 39.653 30.6816 39.5421 30.7266 39.3482C30.7647 39.1958 30.8201 39.0468 30.872 38.8771Z"/>
<path d="M58.554 37.4069C58.5817 37.4934 58.6163 37.5627 58.6232 37.6389C58.6717 38.1827 58.554 38.6918 58.2769 39.1594C58.2423 39.2183 58.2076 39.291 58.1557 39.3222C58.076 39.3742 57.9617 39.44 57.889 39.4192C57.8128 39.3984 57.7297 39.2841 57.7089 39.1975C57.5704 38.6226 57.9133 37.7879 58.4085 37.4623C58.4431 37.4415 58.4882 37.4311 58.554 37.4069Z"/>
<path d="M34.397 37.2424C34.5736 37.2146 34.7329 37.2804 34.8472 37.4432C34.9649 37.6095 34.9684 37.7896 34.8645 37.9628C34.7225 38.2018 34.5251 38.3611 34.1996 38.3853C34.2654 37.9974 34.3277 37.6337 34.397 37.2424Z"/>
<path d="M24.9807 38.3968C25.0534 37.9916 25.1192 37.6245 25.1885 37.2331C25.3859 37.2123 25.5591 37.2954 25.6699 37.4963C25.7772 37.6937 25.7184 37.8773 25.5972 38.0436C25.4552 38.241 25.2682 38.3622 24.9807 38.3968Z"/>
<path d="M69.3672 39.5451C69.1802 39.5417 69.1074 39.4447 69.1525 39.2542C69.2287 38.9182 69.3222 38.849 69.665 38.8524C69.9178 38.8559 69.9871 38.9563 69.904 39.1988C69.8347 39.4066 69.6061 39.5521 69.3672 39.5451Z"/>
<path d="M44.1969 38.8653C44.3043 38.8653 44.4047 38.8549 44.5052 38.8688C44.6991 38.893 44.7684 39.0039 44.6922 39.177C44.6125 39.3537 44.4774 39.4714 44.28 39.5061C44.1034 39.5338 44.0203 39.4472 44.0515 39.2705C44.0619 39.2151 44.0826 39.1597 44.1034 39.1078C44.1311 39.0316 44.1588 38.9588 44.1969 38.8653Z"/>
</svg>
