<svg width="131" height="47" viewBox="0 0 131 47" fill="none" xmlns="http://www.w3.org/2000/svg">
<path d="M0 35.0416C0.348339 34.7803 0.664021 34.432 1.0559 34.2687C2.46014 33.6918 3.88615 33.1693 5.31216 32.6468C6.66198 32.146 7.13006 32.3529 7.64168 33.6918C8.6867 36.4241 10.5699 38.1767 13.4872 38.6774C15.2942 38.9931 17.0904 38.9822 18.8429 38.3291C21.2922 37.4147 22.642 35.4117 22.5658 32.7992C22.4678 29.196 20.5302 27.0407 16.9162 26.6597C15.4466 26.5073 13.9444 26.5835 12.464 26.5508C11.7564 26.54 11.5714 26.3767 11.5714 25.6473C11.5714 23.8512 11.5714 22.066 11.5823 20.2699C11.5823 19.5079 11.7129 19.3881 12.4531 19.3773C13.9009 19.3446 15.3487 19.3664 16.7965 19.2684C18.3531 19.1704 19.7682 18.637 20.8677 17.4723C22.0977 16.1442 22.2392 14.5114 22.0324 12.8459C21.7603 10.6579 20.4322 9.31897 18.3531 8.76381C16.3937 8.2413 14.4125 8.3175 12.464 8.91621C11.0162 9.35163 9.89499 10.2442 9.12212 11.5287C8.77378 12.0948 8.50164 12.7153 8.19684 13.3031C7.89205 13.9018 7.39131 14.1522 6.77083 13.9562C5.05091 13.4011 3.34187 12.8241 1.63284 12.2254C1.06679 12.0295 0.903503 11.6267 1.07767 11.0062C2.32951 6.51049 5.07268 3.32102 9.514 1.80792C14.4234 0.142425 19.3763 0.305709 24.1442 2.3522C28.161 4.08301 30.2946 7.28337 30.6973 11.6485C30.8497 13.2704 30.8171 14.8706 30.4034 16.4381C29.6306 19.3555 27.8127 21.3911 25.0695 22.632C24.8844 22.7191 24.6994 22.7844 24.5252 22.8715C24.5143 22.8824 24.5034 22.9042 24.4708 22.9368C25.7553 23.3723 26.92 23.9819 27.9433 24.8636C30.0007 26.627 31.0675 28.8804 31.2634 31.58C31.5355 35.2267 30.7627 38.5576 28.3243 41.3879C26.2887 43.7392 23.6979 45.2087 20.737 45.9816C16.8835 46.9831 13.0083 46.8742 9.23097 45.6442C4.64814 44.1528 1.70904 40.996 0.217712 36.4458C0.163284 36.2608 0.0653135 36.0975 0 35.9233C0 35.6185 0 35.3355 0 35.0416Z"/>
<path d="M121.385 0.0566406C122.038 0.198153 122.691 0.317895 123.333 0.492064C127.274 1.59151 130.039 4.81364 130.496 8.87396C131.247 15.5577 126.914 19.5418 122.277 20.4127C117.128 21.3815 112.339 19.3132 110.368 14.7631C108.028 9.35293 110.216 2.15756 117.248 0.350551C117.716 0.23081 118.195 0.154611 118.674 0.0566406C119.567 0.0566406 120.47 0.0566406 121.385 0.0566406ZM125.031 10.3109C125.031 7.38264 122.985 5.37969 120.013 5.36881C117.128 5.36881 115.06 7.44795 115.038 10.3871C115.017 13.2282 117.052 15.2747 119.915 15.2747C122.821 15.2856 125.031 13.1411 125.031 10.3109Z"/>
<path d="M45.5558 19.2587C45.8061 19.0628 46.0565 18.8559 46.3069 18.66C48.4078 16.9836 50.8461 16.2107 53.4913 16.0801C56.3107 15.9386 59.0539 16.3305 61.612 17.6259C64.5946 19.139 66.6629 21.4902 67.7515 24.6253C69.0795 28.457 69.221 32.3976 68.1433 36.262C66.8044 41.0734 63.5278 44.2302 58.7926 45.7324C54.2751 47.1584 49.7358 46.9625 45.338 45.199C40.6899 43.3376 38.0556 39.7454 37.1194 34.9013C36.8582 33.5406 36.7493 32.1363 36.7384 30.7539C36.7058 25.6812 36.6078 20.6085 36.7929 15.5467C37.0323 8.90651 41.0274 2.9521 48.6037 1.27572C52.4572 0.426643 56.2998 0.535498 60.0227 2.00505C63.5932 3.40929 65.8791 6.08714 67.2616 9.5923C67.5446 10.3108 67.3814 10.7679 66.6629 11.0292C64.7253 11.7368 62.7767 12.4008 60.8282 13.0539C60.4581 13.1845 60.1098 13.0866 59.8921 12.7165C59.7288 12.4552 59.5546 12.2048 59.4349 11.9218C58.5531 9.86444 56.8768 8.89563 54.7758 8.54729C53.3172 8.3078 51.8476 8.36223 50.4107 8.77588C47.6567 9.55964 46.1436 11.5082 45.6973 14.2296C45.4251 15.8624 45.4469 17.5388 45.338 19.1934C45.4142 19.2152 45.4904 19.2369 45.5558 19.2587ZM45.4578 31.1893C45.4578 31.5159 45.436 31.8424 45.4578 32.169C45.6646 34.8469 46.8947 37.2961 49.8447 38.3738C51.0312 38.8092 52.2722 38.8963 53.5349 38.8636C56.4196 38.7765 58.7382 37.0566 59.6199 34.3026C60.1642 32.6153 60.1969 30.8736 59.9138 29.1537C59.4675 26.465 58.1504 24.3967 55.4399 23.4714C54.1989 23.0469 52.9253 22.9925 51.6299 23.1993C49.6052 23.515 47.9288 24.4076 46.7641 26.1384C45.7408 27.6733 45.4142 29.3823 45.4578 31.1893Z"/>
<path d="M106.253 23.711C106.253 26.8569 106.351 30.0138 106.232 33.1597C106.101 36.5124 105.165 39.6475 102.857 42.2274C100.974 44.3283 98.5463 45.5039 95.8249 46.0482C91.634 46.8864 87.4321 46.9408 83.3065 45.689C78.593 44.2739 75.7737 41.0408 74.7504 36.2838C74.3803 34.5639 74.2279 32.7787 74.1953 31.0152C74.1191 26.0514 74.1626 21.0876 74.1735 16.1346C74.1844 13.9902 74.4021 11.8784 75.0552 9.821C76.4377 5.44499 79.4095 2.76714 83.7963 1.59149C85.5707 1.11253 87.3777 0.927474 89.2174 0.905702C91.3945 0.873046 93.5498 0.916588 95.6834 1.3629C98.579 1.9616 101.148 3.11548 103.096 5.43411C104.773 7.41528 105.665 9.7448 106.014 12.2703C106.21 13.7507 106.275 15.2638 106.308 16.7551C106.351 19.0737 106.319 21.3924 106.319 23.711C106.308 23.711 106.275 23.711 106.253 23.711ZM97.5666 23.6566C97.5884 23.6566 97.5993 23.6566 97.621 23.6566C97.621 21.425 97.6646 19.2044 97.5993 16.9728C97.5666 15.6557 97.4686 14.3276 97.2183 13.0431C96.7284 10.6048 95.248 9.03723 92.7443 8.64535C91.6122 8.4603 90.4366 8.41676 89.2936 8.43853C86.5286 8.50384 84.3951 10.1367 83.5133 12.7492C83.0779 14.0446 82.8711 15.3726 82.8711 16.7442C82.8711 21.1638 82.8493 25.5833 82.8928 29.992C82.9037 31.1459 83.0017 32.3106 83.2303 33.4318C83.8072 36.2294 85.3965 38.1344 88.303 38.6896C89.9358 39.0052 91.5795 38.929 93.2015 38.5372C95.2262 38.0364 96.5434 36.7737 97.0877 34.7816C97.3489 33.8346 97.5231 32.8331 97.5448 31.8534C97.6102 29.1211 97.5666 26.3889 97.5666 23.6566Z"/>
</svg>
