<svg width="120" height="53" viewBox="0 0 120 53" fill="none" xmlns="http://www.w3.org/2000/svg">
<path d="M11.6182 27.9626C11.6182 26.9649 11.6182 26.1487 11.6182 25.2115C11.0741 25.0906 10.5601 24.9394 10.0462 24.8487C3.36496 23.6697 -0.686103 17.7745 0.0999237 11.063C0.855718 4.62364 6.14628 0.270256 12.495 0.209793C15.8205 0.179561 18.8436 0.995819 21.5947 2.90042C21.8063 3.05158 22.018 3.20274 22.1994 3.3539C22.3203 3.44459 22.411 3.56552 22.6528 3.86784C21.5947 5.16781 20.5064 6.49801 19.3576 7.88867C18.7832 7.52589 18.3297 7.2538 17.8762 6.95148C15.7298 5.65152 13.4321 5.37943 11.0438 5.95383C7.86949 6.70963 5.90443 9.49095 6.08582 12.6351C6.32767 16.2326 8.74621 18.8628 12.1624 19.2558C14.7926 19.5581 17.2716 19.1954 19.5994 17.2605C20.718 18.6814 21.6854 20.1023 22.7133 21.5534C21.6552 22.8836 20.2948 23.6394 18.7832 24.0627C17.7553 24.365 17.3925 24.8789 17.4832 25.8766C17.5437 26.5115 17.4832 27.1463 17.4832 27.8416C18.4506 27.9928 19.2366 28.1137 19.9924 28.2649C23.9226 28.9905 26.976 30.9253 28.3969 34.7647C29.9387 38.8763 29.4248 42.8064 26.5527 46.2226C24.6179 48.5202 21.9273 49.5178 18.9948 49.8504C18.6018 49.8806 18.2088 49.9109 17.6041 49.9411C17.5437 50.4248 17.4832 50.8783 17.453 51.362C17.4227 51.9062 17.2111 52.2387 16.6367 52.2387C15.0344 52.2387 13.4624 52.2387 11.7694 52.2387C11.6787 51.4224 11.6182 50.7876 11.5275 50.0016C7.71833 49.7899 4.24168 48.6109 1.8836 45.2552C0.492937 43.2901 -0.0814671 41.0529 0.0092283 38.6949C0.0999237 35.6717 1.2185 33.0415 3.51612 30.9555C5.7835 28.9602 8.59506 28.2951 11.6182 27.9626ZM11.588 44.4691C11.588 40.7809 11.588 37.1228 11.588 33.4345C8.26251 33.3136 5.99512 35.7321 6.08582 39.2088C6.17651 42.4738 8.47413 44.711 11.588 44.4691ZM17.6041 44.4994C21.2017 44.6505 22.9249 42.1111 23.0761 39.1181C23.2575 35.7624 20.9901 33.4345 17.6041 33.4345C17.6041 37.1228 17.6041 40.8111 17.6041 44.4994Z"/>
<path d="M86.5637 37.816C84.6591 40.2044 82.9359 42.3508 81.2127 44.4973C79.9732 46.0391 79.6407 46.946 77.7965 44.5275C76.4361 42.7136 74.985 40.9904 73.5641 39.2067C73.2618 38.8137 72.9292 38.4811 72.385 37.816C72.385 38.6625 72.385 39.1462 72.385 39.6299C72.385 43.1368 72.385 46.674 72.385 50.1808C72.385 52.2366 72.385 52.2366 70.2688 52.2366C69.12 52.2366 67.9712 52.2366 66.7317 52.2366C66.7317 44.1647 66.7317 36.2742 66.7317 28.2023C68.5154 28.0209 70.299 28.0209 72.0827 28.2023C72.4757 28.2326 72.8687 28.807 73.1711 29.1697C75.2571 31.7697 77.2826 34.3696 79.3383 36.9695C79.4895 37.1509 79.6407 37.3323 79.943 37.6951C81.0918 36.1533 82.2104 34.6719 83.2987 33.1906C84.3266 31.8301 85.3545 30.4697 86.3219 29.0488C86.8056 28.3535 87.3498 28.0209 88.1963 28.0814C89.1939 28.1419 90.2218 28.0814 91.2194 28.1116C92.338 28.1419 92.4287 28.2326 92.4287 29.3511C92.4589 31.0743 92.4287 32.7673 92.4287 34.4905C92.4287 34.7929 92.4589 35.0649 92.4892 35.3673C94.0915 35.458 95.6333 35.4882 97.1751 35.6393C98.8076 35.7905 100.319 36.3044 101.68 37.2416C106.184 40.3555 105.67 48.3972 100.712 50.8762C98.8681 51.7831 96.903 52.2366 94.9077 52.3273C92.6403 52.418 90.3729 52.3575 88.1056 52.3273C86.7754 52.2971 86.6544 52.1761 86.6544 50.8157C86.6544 47.0972 86.6544 43.3787 86.6544 39.6602C86.6544 39.0555 86.6242 38.6021 86.5637 37.816ZM92.4589 46.8856C94.0612 46.7344 95.4217 46.7042 96.6914 46.4019C97.9309 46.0996 98.596 45.0414 98.6262 43.8019C98.6565 42.5927 97.9914 41.6252 96.7821 41.1415C95.4217 40.6276 94.031 40.7485 92.5799 40.8997C92.5496 41.2927 92.4892 41.6555 92.4892 41.988C92.4589 43.5298 92.4589 45.0112 92.4589 46.8856Z"/>
<path d="M98.1698 15.1723C94.6326 15.1723 91.3978 15.1723 88.0119 15.1723C88.0119 16.4723 88.0119 17.6514 88.0119 19.0723C91.7606 19.0723 95.4489 19.0723 99.2581 19.0723C99.2581 21.0071 99.2581 22.6698 99.2581 24.4233C93.5745 24.4233 87.9514 24.4233 82.3585 24.4233C82.026 23.3047 81.9353 2.62615 82.2376 0.812247C83.3562 0.479698 117.579 0.419234 119.241 0.782015C119.241 2.44476 119.241 4.10751 119.241 6.01212C116.581 6.01212 113.981 6.01212 111.169 6.01212C111.169 12.2701 111.169 18.3165 111.169 24.4535C109.144 24.4535 107.36 24.4535 105.395 24.4535C105.395 18.3467 105.395 12.3306 105.395 6.3749C104.156 5.95165 89.8258 5.86096 88.0119 6.22374C88.0119 7.28185 88.0119 8.33996 88.0119 9.54923C88.6165 9.57947 89.1305 9.63993 89.6746 9.63993C92.0327 9.63993 94.421 9.63993 96.7791 9.63993C98.0791 9.63993 98.1698 9.73063 98.1698 11.0004C98.2 12.3003 98.1698 13.6003 98.1698 15.1723Z"/>
<path d="M35.9288 42.5021C39.6474 38.0883 43.3961 33.6744 47.0844 29.2304C47.7495 28.4141 48.4448 28.0211 49.5029 28.0513C52.6168 28.1723 55.7609 28.0513 58.8445 28.3839C62.5631 28.7769 65.2537 31.2861 65.8583 34.4907C66.9164 40.0231 63.863 44.2858 58.2701 45.0416C56.6376 45.2532 54.9749 45.3137 53.1307 45.4648C53.1307 46.916 53.1307 48.3671 53.1307 49.8182C53.1307 52.2065 53.1307 52.2065 50.7424 52.2065C49.6541 52.2065 48.5657 52.1461 47.3565 52.1158C47.3565 47.1881 47.3565 42.4719 47.3565 37.4534C46.8123 38.0278 46.4797 38.3604 46.1774 38.7232C42.7008 42.8347 39.2241 46.9462 35.7777 51.088C35.1126 51.9042 34.3568 52.2972 33.3289 52.2065C32.4824 52.1461 31.6057 52.2065 30.7592 52.1763C30.1546 52.1763 29.822 51.9042 29.822 51.2391C29.822 50.9973 29.822 50.7252 29.822 50.4833C29.822 43.53 29.822 36.6069 29.822 29.6536C29.822 29.2001 29.8523 28.7769 29.9127 28.142C31.6662 27.9304 33.3591 27.9909 35.0521 28.1118C35.7172 28.142 35.6265 28.8374 35.6568 29.3211C35.6568 31.8908 35.6568 34.4605 35.6568 37.0302C35.6568 38.8441 35.6568 40.6278 35.6568 42.4417C35.7172 42.4719 35.8382 42.5021 35.9288 42.5021ZM53.2214 39.6906C54.9144 39.8115 56.4865 39.9929 57.9678 39.4487C59.2376 38.965 59.9631 37.8464 59.9329 36.5162C59.9027 35.1558 59.1771 34.1884 57.7562 33.7954C56.2748 33.3721 54.7935 33.4628 53.1912 33.6744C53.2214 35.6697 53.2214 37.6046 53.2214 39.6906Z"/>
<path d="M40.1855 0.783578C40.1855 2.20447 40.1552 3.53467 40.1855 4.8951C40.2157 5.77182 39.7925 6.04391 38.9762 6.01368C36.7693 5.98345 34.5624 6.01368 32.3252 6.01368C31.1764 6.01368 30.0276 6.01368 28.7881 6.01368C28.7881 7.28341 28.7881 8.34153 28.7881 9.64149C32.1438 9.64149 35.4391 9.64149 38.825 9.64149C38.825 11.5461 38.825 13.2088 38.825 15.0832C35.5298 15.2344 32.2345 15.0832 28.7881 15.1739C28.7881 16.4134 28.7881 17.5622 28.7881 18.9227C29.302 18.9529 29.8462 19.0436 30.3601 19.0436C32.9903 19.0436 35.5902 19.0436 38.2204 19.0436C38.7948 19.0436 39.3994 19.1343 40.0645 19.1947C40.0645 20.9784 40.0645 22.6109 40.0645 24.3644C34.381 24.3644 28.7579 24.3644 23.165 24.3644C22.8022 23.3365 22.6813 3.02073 23.0138 0.783578C24.0719 0.48126 38.2506 0.390564 40.1855 0.783578Z"/>
<path d="M41.0945 0.542458C42.3642 0.542458 43.5432 0.542458 44.7525 0.542458C45.2967 0.542458 45.8409 0.602922 46.506 0.633153C46.506 4.2005 46.506 7.64693 46.506 11.4561C46.9897 10.9422 47.2618 10.7003 47.5036 10.398C49.771 7.46554 52.0686 4.50282 54.3058 1.54011C54.8499 0.814544 55.4243 0.512226 56.3313 0.542458C58.2359 0.602922 60.1405 0.57269 62.4381 0.57269C59.4754 4.56329 56.3011 7.94925 53.429 11.6678C56.422 15.9002 59.3545 20.0722 62.5288 24.5767C60.8056 24.5767 59.4452 24.607 58.115 24.5767C54.3965 24.5163 55.515 25.1209 53.429 22.128C51.2524 19.0141 49.0757 15.8397 46.6571 12.7561C46.6571 16.6258 46.6571 20.4954 46.6571 24.4558C44.7223 24.4558 42.9991 24.4558 41.2456 24.4558C40.8828 23.3675 40.7317 3.38425 41.0945 0.542458Z"/>
<path d="M68.5773 17.593C68.5773 20.0115 68.5773 22.158 68.5773 24.4254C66.6727 24.4254 64.889 24.4254 63.1355 24.4254C62.7425 23.1859 62.7123 2.05384 63.1355 0.663182C63.4076 0.63295 63.6797 0.542255 63.982 0.542255C67.0052 0.542255 69.9982 0.421328 73.0213 0.572487C74.5329 0.663182 76.105 1.0562 77.5259 1.6306C80.277 2.77941 81.3956 5.16772 81.6072 7.97928C82.0002 14.1163 77.8887 17.1395 72.84 17.5628C71.4795 17.6837 70.1493 17.593 68.5773 17.593ZM68.6982 11.9094C70.4516 12.514 72.1144 12.3931 73.7167 11.728C74.9259 11.2443 75.4097 10.2467 75.4097 8.97693C75.4097 7.82812 74.9864 6.89093 73.8981 6.43745C72.2353 5.77236 70.5423 5.6212 68.6982 6.04444C68.6982 7.97928 68.6982 9.85365 68.6982 11.9094Z"/>
<path d="M105.43 28.0831C107.123 28.0831 108.695 28.0831 110.297 28.0831C110.841 28.0831 111.113 28.3854 111.113 28.9296C111.113 29.2319 111.113 29.5343 111.113 29.8366C111.113 36.669 111.113 43.5013 111.113 50.364C111.113 52.1779 111.083 52.2081 109.239 52.2081C108 52.2081 106.76 52.2081 105.4 52.2081C105.43 44.106 105.43 36.2155 105.43 28.0831Z"/>
</svg>
