<svg width="328" height="84" viewBox="0 0 328 84" fill="none" xmlns="http://www.w3.org/2000/svg">
<g opacity="0.8">
<path d="M15.0205 41.3979C15.2338 40.8005 15.4472 40.2031 15.6605 39.5203C15.4472 39.2216 15.1911 38.8802 14.9778 38.5389C15.3192 37.6001 16.2153 38.0695 16.642 37.6428C17.0687 37.1734 17.4527 36.704 17.9221 36.1493C17.4527 35.7652 17.0687 35.4238 16.514 34.9544C16.1299 34.0583 15.7885 32.9489 15.1911 31.9247C14.5511 30.858 13.7403 29.8765 12.9722 28.8524C11.7347 29.3644 11.9054 30.3886 11.7347 31.3273C10.7106 32.4795 9.55847 33.4183 8.02229 33.845C6.91282 34.1437 5.84603 34.6131 4.65122 34.6984C4.01114 34.7411 3.3284 35.0398 2.73099 35.3385C2.17626 35.6372 1.62153 35.6799 1.06679 35.5092C0.170687 34.9118 0.426717 33.8023 0 33.0342C0.213359 32.0528 0.426717 31.1567 0.98145 30.3459C1.15214 30.0899 1.15214 29.7485 1.23748 29.4498C1.32282 29.0657 1.3655 28.5964 1.53618 28.255C2.47496 26.0787 2.81633 23.7318 3.45641 21.5128C4.43786 18.0991 5.24862 14.6427 6.1874 11.1863C6.74213 9.09536 7.29687 7.04712 7.80893 4.95621C7.21152 4.01743 6.57145 3.07865 5.97404 2.22521C6.14473 1.49979 6.44343 1.11575 6.99816 0.90239C7.08351 1.11575 7.12618 1.41445 7.29687 1.58514C7.89427 2.22521 8.49168 2.82262 9.13175 3.42002C9.38778 3.67605 9.68648 3.84674 9.94251 4.10277C10.3266 5.38292 10.4119 5.55361 11.3934 6.36437C10.7533 5.46827 10.7959 4.52949 9.89984 4.14544C9.8145 3.88941 9.68648 3.59071 9.60114 3.33468C9.5158 3.07865 9.38778 2.77995 9.30244 2.52392C10.4546 3.42002 11.18 4.61483 11.6494 5.93766C12.0334 6.96178 11.9908 7.00445 10.8386 7.9859C10.2839 7.60185 9.68648 7.17514 8.96106 6.66308C7.89427 10.6315 6.78481 14.6 5.71801 18.5685C4.60855 22.4943 3.41374 26.4628 2.60298 30.6873C2.77366 30.986 2.98702 31.37 3.20038 31.7114C3.37107 31.7541 3.49908 31.8394 3.58443 31.7967C4.43786 31.5834 5.2913 31.3273 6.05939 30.7726C6.52878 30.4312 7.04084 30.0899 7.59557 29.9618C8.53435 29.7485 8.91839 29.2364 9.08908 28.383C9.34511 27.2735 9.64381 26.1641 9.98519 24.9693C9.60114 24.7132 9.17442 24.4572 8.83305 24.1585C8.53435 23.9025 8.27832 23.5184 8.06496 23.2624C8.27832 22.3663 8.49168 21.5555 8.66236 20.7448C8.70503 20.5314 8.53435 20.2327 8.449 20.0193C8.91839 18.9952 9.38778 18.0138 9.89984 16.947C10.6253 16.6909 11.3934 16.4349 12.0761 16.2215C12.6308 16.3496 13.1429 16.4349 13.7403 16.6056C14.2097 17.0323 14.7644 17.5444 15.3192 18.0991C15.5325 18.0138 15.7032 17.9711 15.9166 17.8857C16.642 18.3978 16.898 19.0379 16.5993 19.934C16.514 20.2327 16.6846 20.5741 16.6846 20.7021C17.2394 21.2141 17.9221 20.6594 18.2635 21.2995L18.3062 21.2568C17.9221 21.2995 17.4954 21.2995 17.1114 21.3422C17.1967 22.793 17.3247 22.921 18.5195 23.0064C18.9036 23.3051 19.245 23.6038 19.629 23.8598L19.5863 23.8171C19.245 24.5425 18.9889 25.268 19.757 26.036C19.9704 25.8654 20.1411 25.6947 20.4398 25.4813C20.9518 26.7615 21.7199 27.7429 23.4268 27.7002C23.8108 27.0602 24.2375 26.3774 24.7069 25.5667C25.0056 25.908 25.347 26.3347 25.6884 26.7188L25.7311 26.6761C25.5177 26.8041 25.3043 26.9322 24.7923 27.2309C25.475 27.3162 25.7737 27.3589 26.0724 27.3589L26.0298 27.3162C26.1151 27.5296 26.2004 27.7429 26.2858 27.9136C26.4138 27.8283 26.5418 27.7002 26.7125 27.6149L26.6698 27.6576C27.5659 28.2123 28.5047 28.3403 29.5288 28.2976C30.2116 28.255 30.8943 28.2976 31.6198 28.2976C31.9611 28.7244 32.2598 29.1511 32.5585 29.5778C33.924 29.4071 35.1615 29.0657 36.271 27.9989C36.271 27.8709 36.271 27.6149 36.271 27.3589L36.2283 27.4015C36.7404 27.6149 37.1244 27.9563 37.2951 28.511C36.8684 29.4925 35.8869 29.8765 35.2042 30.4739C34.0947 30.4739 33.0706 30.4739 32.0038 30.4739C31.6198 29.9192 31.193 29.2791 30.7663 28.6817C30.681 28.7244 30.5956 28.767 30.4676 28.767C30.553 29.8765 30.5956 30.986 30.681 32.1381C31.1504 32.0101 31.6198 31.7967 32.0891 31.7114C32.4305 31.626 32.8146 31.5407 33.1559 31.5834C34.0094 31.6687 34.9055 31.8394 35.7589 32.0101C35.7162 32.1381 35.6736 32.3515 35.5882 32.5222C35.1615 32.6075 34.6921 32.7355 34.2654 32.8209C34.1801 32.7355 34.052 32.5222 33.9667 32.5222C33.1559 32.4795 32.3452 32.5222 31.3211 32.5222C32.0891 32.9062 32.6012 33.2049 33.0279 33.4183C33.412 33.2902 33.7107 33.2049 34.0094 33.1196C33.7107 33.5463 33.3693 33.973 33.0706 34.4424C32.5585 34.4424 32.0465 34.3997 31.5344 34.4424C31.4064 34.4424 31.2784 34.6557 31.1504 34.7838C30.937 34.8264 30.7663 34.8264 30.553 34.8691C30.5956 34.9544 30.5956 35.0398 30.6383 35.0825C30.809 34.9544 30.9797 34.8691 31.1077 34.7411C31.6198 34.7411 32.0891 34.7838 32.6012 34.7411C32.7292 34.7411 32.8999 34.5277 33.0279 34.4424C33.412 34.5704 33.796 34.6557 34.2654 34.7838C34.6921 34.0157 35.1615 33.2902 35.5882 32.5222C35.8443 32.6928 36.1003 32.8635 36.4417 33.0769C36.655 31.498 37.5085 30.2179 38.1059 28.8097C38.3619 28.8951 38.5326 28.9377 38.8313 29.0657C39.1727 28.6817 39.514 28.255 40.0261 27.7002C40.1541 29.1084 40.2821 30.3459 40.3675 31.5834L40.4101 31.5407C40.2394 31.1567 40.0688 30.7299 39.8127 30.2605C38.8313 31.2847 37.8925 32.3088 36.8257 33.4183C37.5085 33.4609 38.0632 33.5036 38.7886 33.5889C39.2153 34.1864 39.642 34.9118 40.1541 35.6372C39.9407 35.8079 39.5567 36.0639 39.1727 36.4053C37.7218 35.9359 36.0149 36.1066 34.7348 34.8691C34.5641 35.1251 34.3081 35.3812 34.0947 35.6799C33.7533 35.5945 33.412 35.4665 33.0706 35.3385C32.7719 35.5518 32.4732 35.7652 32.0891 36.0639C31.7904 35.8079 31.4917 35.5945 31.193 35.3385C30.1262 35.8505 30.1262 35.8505 29.7422 36.8747C29.5288 36.7893 29.3582 36.7467 29.1448 36.6613C29.0595 36.832 29.0168 36.96 28.9314 37.1734C29.1875 37.216 29.3582 37.2587 29.5288 37.3014C29.7422 37.3441 29.9129 37.3441 30.1262 37.3867C30.1689 37.6001 30.2116 37.7281 30.2543 37.9841C29.9129 38.3682 29.4435 38.5815 28.8888 38.6242C28.8461 38.5389 28.8034 38.4535 28.8461 38.5389C28.7607 38.4962 28.8461 38.5389 28.9314 38.5815C29.1021 38.8802 29.4435 39.1789 29.4862 39.5203C29.5288 40.1604 29.9556 40.4591 30.3396 40.7578C30.809 41.0992 31.3211 41.3552 31.7904 41.6539C32.0891 42.0806 32.3452 42.5073 32.6012 42.9341C32.3452 43.1474 32.0891 43.3608 31.7051 43.6595C32.5159 43.5741 33.1133 43.4888 33.7107 43.4034C33.8387 43.4034 33.924 43.1901 34.0094 43.1047L33.9667 43.1474C34.1374 43.1047 34.2654 43.1047 34.4788 43.0621C34.6495 42.294 34.7775 41.5259 34.9908 40.8005C35.1188 40.3738 35.4175 40.0324 35.6309 39.6483L35.5882 39.6057C35.5029 40.3311 35.4175 41.0565 35.3322 41.9099C35.6309 41.7819 35.8869 41.7819 35.8869 41.6966C36.2283 40.7578 36.6124 39.8617 36.8257 38.9229C36.9537 38.3682 36.655 37.7708 35.8869 37.7281H35.9296C35.7162 37.3867 35.5029 37.0454 35.2042 36.6186C36.9537 36.0639 38.6179 37.4721 39.9407 36.5333C41.0929 36.6613 41.9463 36.7467 42.8851 36.832C42.7998 36.3626 42.7571 36.0639 42.6717 35.7652L42.6291 35.8079C43.6105 36.1919 44.6346 36.6186 45.7014 37.0454C45.6588 37.3867 45.6161 37.7281 45.5734 38.0695C45.6588 38.1548 45.6588 38.2828 45.7441 38.3255C47.0243 39.0083 47.4936 40.1604 47.7923 41.4832C48.091 42.5927 47.8777 43.6168 47.6217 44.6836C47.4083 45.537 47.2803 46.4331 47.1096 47.3719C47.4083 48.5667 47.707 49.8896 48.091 51.3831C47.707 50.9563 47.4936 50.7003 47.2376 50.4016C46.9389 50.487 46.6402 50.5723 46.2988 50.6576C46.3842 51.2977 46.4695 51.8951 46.5975 52.6205C46.8536 52.6632 47.1949 52.6632 47.4936 52.7059L47.451 52.6632C46.9816 53.346 47.1949 54.0714 47.3656 54.8395C47.451 54.5834 47.5363 54.3274 47.6217 54.0714C47.7497 54.4554 47.8777 54.7541 48.0057 55.1382C47.8777 55.2235 47.707 55.3515 47.4936 55.5222C47.7923 55.7356 48.0484 55.9489 48.3044 56.1623C47.9204 56.9304 47.1523 56.4183 46.6402 56.6744C46.2988 57.6131 46.0001 58.4666 45.6588 59.3627C45.0614 59.4054 44.592 59.448 44.1652 59.5334C43.6532 58.936 43.2265 58.3812 42.5437 57.5278C42.5864 59.4907 42.0317 60.8989 40.7942 61.8376C40.4955 63.0325 41.2209 64.2699 40.2394 65.2514C40.6235 65.5928 40.9649 65.9341 41.3489 66.2755C41.3489 67.3423 41.3489 68.3664 41.3489 69.3479C40.2821 70.756 39.9407 70.8414 37.6365 70.1586C37.0391 69.2625 37.0391 69.2625 36.783 67.769C36.527 67.8117 36.271 67.8117 36.0576 67.8544C35.8869 67.897 35.6736 67.9397 35.5029 67.9824C34.9482 66.9583 35.8869 66.1902 35.7589 65.5074C36.4417 64.398 37.0817 63.4165 37.6791 62.4351C37.9778 61.923 37.9778 61.4536 37.7218 60.9415C37.5511 60.6428 37.4658 60.3868 37.2951 60.0028C37.4231 59.2347 37.9778 58.4239 37.0817 57.6131C36.3136 58.2105 35.5456 57.5278 34.6921 57.3144C34.7775 55.3942 35.0762 53.4313 33.668 51.8098C32.1318 51.5111 31.8331 51.6818 30.8517 49.7189C30.2969 50.3163 29.7422 50.8283 29.1448 51.4684C29.6142 51.6391 29.8702 51.7671 30.1689 51.8525C29.9982 52.1512 29.7849 52.4499 29.5288 52.8766C29.9556 52.7912 30.1689 52.7912 30.553 52.7059C29.9982 53.6873 29.5288 54.5408 28.9741 55.5222C29.3155 55.6502 29.6569 55.7356 29.9556 55.9063C30.2543 56.077 30.553 56.333 30.681 56.461C30.8943 57.3998 31.1077 58.2105 31.3211 59.2773C31.9611 58.4666 32.4305 57.8692 32.8999 57.2718C32.9426 57.2718 33.0706 57.2718 33.1133 57.3571C33.1986 57.4851 33.284 57.6131 33.412 57.7838C33.1133 58.2105 32.2598 58.2959 32.4305 59.064C32.3878 59.1493 32.3025 59.192 32.2598 59.2773C32.3025 59.192 32.3452 59.1067 32.3878 59.0213C32.5585 58.9786 32.7719 58.8933 33.0279 58.808C32.7292 59.7041 32.5159 60.4721 32.2598 61.2829C31.9611 62.0937 31.7478 62.8618 31.7051 63.7152C31.6624 64.398 31.3211 65.0807 31.1077 65.8488C31.4064 65.8915 31.6624 65.8915 32.0891 65.9341C32.4732 64.91 32.9853 63.8859 33.284 62.7764C33.54 61.8803 33.54 60.8989 33.668 59.9601C33.7533 59.448 33.9667 58.9786 34.1801 58.1679C34.2654 60.3015 34.3507 62.1363 34.4361 64.5686C34.0947 65.7208 33.1559 67.2996 32.3452 68.9212C32.3025 68.7505 32.2598 68.5798 32.2598 68.3664C32.1745 68.4091 32.1318 68.4518 32.0465 68.4944C32.1745 68.6225 32.2598 68.7505 32.3878 68.8785C32.3878 69.7319 32.3878 70.5854 32.3878 71.4815C32.2598 71.2254 32.0891 70.9694 32.0465 70.7134C31.9185 69.8173 31.7904 68.9212 31.6624 67.8117C31.0224 68.5371 30.553 69.0065 30.1689 69.4759C30.1689 70.116 30.1689 70.6707 30.1689 71.2681C30.4249 71.6948 30.7663 72.2069 31.065 72.7189C31.1077 73.103 31.1077 73.487 31.1504 73.8284C31.7904 73.8284 32.3452 73.8284 32.8572 73.8284C32.6866 73.103 32.5159 72.2922 32.3452 71.4815C32.7719 72.2069 33.2413 72.975 33.668 73.7431C33.54 74.1698 33.412 74.5538 33.284 75.0659C34.052 75.7913 34.3081 76.7728 34.3081 77.8822C34.052 77.4982 33.8387 77.1141 33.5827 76.6447C33.0279 76.6447 32.4305 76.6447 31.8331 76.6447C32.0038 77.2848 32.1745 77.8822 32.3452 78.437C33.0706 78.6076 33.6253 77.7969 34.3081 78.437C32.8999 79.5464 31.4491 79.2477 29.8702 78.6503C29.8702 78.949 29.8702 79.205 29.8702 79.5038C29.2728 78.4796 29.6569 77.4555 29.6142 76.3887C29.9129 76.4741 30.0836 76.5594 30.3396 76.6447C30.5103 76.3887 30.681 76.1327 30.9797 75.6633C30.4676 75.7486 30.2116 75.7913 29.9556 75.834C29.8275 75.5779 29.7422 75.3219 29.5715 74.9379C29.1021 75.1512 28.7181 75.3219 28.206 75.5353C28.6327 75.6633 28.8888 75.7486 29.1448 75.7913C28.8461 76.0047 28.5474 76.218 28.462 76.3034C28.206 78.0102 27.9927 79.5037 27.694 81.2533C27.7366 81.3813 27.9073 81.8507 28.0353 82.2774C28.7607 82.1494 29.4435 82.0214 29.9982 81.8934C29.9129 80.9973 29.8702 80.2292 29.7849 79.4611C30.3823 80.8266 30.8517 82.2347 30.7236 83.8989C29.6142 83.7709 28.5901 83.6429 27.4806 83.5149C27.2246 83.2589 26.8832 82.9602 27.1819 82.4054C27.2672 82.2347 27.2672 81.936 27.1819 81.7654C26.6272 80.5705 27.0112 79.5464 27.3953 78.3943C27.5659 77.9249 27.4806 77.3275 27.3526 76.8581C27.0112 75.706 26.5418 74.5965 26.1578 73.6151C25.475 73.6577 24.7923 73.7004 23.9815 73.7431C24.2375 71.6948 25.0483 69.9026 24.4509 67.641C23.6828 66.7022 24.1949 64.8247 23.0001 63.6299C22.6587 64.8673 22.7014 64.9954 23.6828 66.9156C23.8535 68.0251 23.6828 69.1345 23.2988 70.2013C23.1281 70.628 23.0001 71.2254 23.1708 71.5668C23.5121 72.3776 23.3414 73.103 23.0854 73.8711C23.5121 74.2978 23.8962 74.7245 24.2375 75.1086C24.5789 76.1754 23.7255 76.8154 23.4695 77.7115C23.4695 78.565 24.2802 79.3757 23.8535 80.5279C22.7014 80.8266 21.5919 80.9546 20.3544 80.1012C20.7385 79.3331 21.0798 78.565 21.5066 77.7115C20.6104 76.1753 21.1225 74.4685 21.1652 72.7189C20.5251 71.8655 20.4824 70.8841 20.4824 69.8599C20.4824 69.0918 20.2691 68.3238 19.9704 67.5983C19.6717 66.7876 19.1596 66.0195 18.7329 65.1234C17.1967 64.8247 15.7885 66.1475 13.911 65.5928C13.7403 65.4221 13.3563 65.0807 12.9722 64.782C13.1002 64.0993 13.4416 63.7152 13.9963 63.4165C14.5084 63.1605 14.9778 62.7764 15.4045 62.3924C16.0019 61.8803 16.3859 61.2829 16.3859 60.4721C16.3859 59.9601 16.5993 59.448 16.7273 58.8506C15.8739 57.5278 16.0019 55.5649 14.167 54.6261C11.9054 58.7226 9.60114 62.8618 7.29687 67.0009C8.06496 68.0677 9.77183 67.6837 10.1559 69.1772C9.98519 69.3052 9.8145 69.4332 9.38778 69.7746C9.47313 69.3052 9.5158 69.1345 9.55847 68.8785C8.87572 68.1531 8.57702 69.0492 8.10763 69.2199C6.52878 69.4332 5.07794 69.0065 3.41374 68.4518C3.96847 68.3664 4.30985 68.2811 4.69389 68.1957C4.69389 68.1104 4.69389 68.0677 4.69389 67.9824C4.13916 68.0251 3.58443 68.025 2.94435 68.0677C2.94435 68.025 2.90168 67.8117 2.85901 67.5557C4.05381 66.9583 5.33397 67.0436 6.61412 67.0009C9.25977 62.8191 11.436 58.3386 13.8683 54.0287C13.0149 53.3033 12.2895 52.6205 11.6067 52.0231C11.4787 51.0844 11.3507 50.2736 11.18 49.2068C11.8201 47.6279 12.5455 45.8357 13.2709 44.0862C13.3563 43.9155 13.5696 43.8302 13.7403 43.7448C13.5269 44.5556 13.3989 45.409 13.0149 46.1344C12.5882 46.9879 12.3748 47.8413 12.1614 48.8228C13.0576 48.3534 13.911 48.5667 14.6364 48.6947C15.3618 47.6706 15.9592 46.6892 16.6846 45.7931C17.3674 44.897 18.1782 44.1289 19.0743 43.1901C18.3488 42.806 18.3488 41.9953 17.7088 41.7819C17.7941 41.4405 17.8368 41.1418 17.8795 40.8858C18.1782 40.9712 18.4342 41.0992 18.9889 41.2699C18.5195 40.7578 18.2635 40.3311 17.8795 40.9285C17.3247 40.7578 16.8127 40.6298 16.3859 40.5018C15.8312 40.7578 15.4045 41.0565 15.0205 41.3979ZM40.5808 42.038C40.4955 41.9953 40.4528 41.9099 40.3675 41.8673C40.4528 41.9099 40.5382 41.9526 40.5808 42.038C40.7088 42.1233 40.8369 42.2086 40.9222 42.3367C41.0502 42.422 41.1356 42.55 41.2636 42.6354C41.1782 43.1474 41.4343 43.3181 41.9036 43.2754C41.989 43.3181 42.0317 43.4034 42.117 43.4461C42.0317 43.4034 41.9463 43.3608 41.861 43.3181C41.6476 43.1047 41.4343 42.8914 41.2209 42.678C41.0929 42.5927 41.0075 42.4647 40.8795 42.3793C40.7942 42.2513 40.6662 42.166 40.5808 42.038ZM10.1985 31.1567C10.2412 31.0713 10.3266 31.0286 10.3692 30.9433C10.3266 31.0286 10.2839 31.114 10.1985 31.1567C10.1985 31.2847 10.1132 31.3273 10.0705 31.4127C10.1132 31.3273 10.1559 31.242 10.1985 31.1567ZM18.2208 59.8747C18.3488 60.0028 18.4342 60.0881 18.5622 60.2161C18.5622 60.3868 18.6049 60.6002 18.6049 60.7709C18.6475 60.7282 18.7329 60.7282 18.7756 60.6855C18.6902 60.5148 18.6049 60.3868 18.4769 60.2161C18.3915 60.1308 18.3062 60.0028 18.2208 59.8747C18.1355 59.8321 18.0928 59.7467 18.1355 59.8321C18.0501 59.7894 18.1355 59.8321 18.2208 59.8747ZM37.6791 30.5166C37.8072 30.4312 37.8925 30.3032 38.0205 30.2179C38.1059 30.0472 38.2339 29.9192 38.3192 29.7485C38.2339 29.7058 38.1912 29.7058 38.1059 29.6631C38.0632 29.8338 38.0632 30.0472 38.0205 30.2179C37.9352 30.3459 37.8498 30.4312 37.6791 30.5166C37.6365 30.6019 37.5938 30.6873 37.5511 30.7726C37.5938 30.6873 37.6365 30.6019 37.6791 30.5166ZM45.0614 53.474C45.1467 53.5167 45.1894 53.5593 45.2747 53.6447C45.232 53.602 45.1467 53.5593 45.0614 53.474C44.976 53.474 44.8907 53.3886 44.8053 53.346C44.9333 53.3886 45.0187 53.4313 45.0614 53.474ZM33.8814 49.6762C33.9667 49.5482 34.0947 49.3775 34.1801 49.2495C34.0947 49.2068 34.052 49.1641 33.9667 49.1641C33.924 49.2921 33.924 49.5055 33.8814 49.6762C33.796 49.8469 33.7107 49.9749 33.5827 50.1456C33.668 50.1883 33.7107 50.1883 33.796 50.2309C33.796 50.0176 33.8387 49.8469 33.8814 49.6762ZM23.6401 41.9953C23.7682 41.7819 23.8535 41.5686 23.9815 41.3552C24.0669 41.3125 24.1949 41.3125 24.2802 41.2272C25.9444 39.947 26.7552 38.0268 27.822 36.2773C28.1207 35.7652 28.0353 35.2105 27.8646 34.6557C28.206 34.9118 28.5047 35.1251 28.8461 35.3812C30.0409 34.6131 31.1077 33.7596 32.8999 34.101C32.4305 33.5463 32.1745 33.2476 31.9185 32.9062C31.193 33.1196 30.681 33.2902 30.1262 33.4609C30.0409 33.4183 29.9982 33.3756 29.9129 33.2902C29.9982 33.3329 30.0836 33.3756 30.1689 33.4183C30.1689 33.8876 29.9982 34.229 29.4435 34.357C28.9314 33.973 28.4194 33.5463 27.9073 33.1196C27.822 33.0769 27.7366 32.9915 27.694 32.9489C27.7793 32.9915 27.8646 33.0342 27.95 33.0769C27.95 33.6316 27.95 34.1437 27.95 34.6984C27.7366 34.6984 27.4806 34.6984 27.2672 34.6984C27.2672 33.6743 27.2672 32.6075 27.2672 31.4127C26.7979 32.6502 26.3711 33.6743 25.9871 34.6984C25.9444 34.5277 25.9444 34.3144 25.9444 34.2717C24.835 34.8691 23.7682 35.4238 22.7014 36.0212C22.4027 36.1919 22.0186 36.3626 22.2746 36.7893C22.8721 36.576 23.4695 36.2773 24.0669 36.1493C24.7069 35.9786 25.219 35.6799 25.6884 35.2958C25.603 35.6799 25.475 36.0639 25.3897 36.448C25.9444 36.1493 26.2858 35.7225 26.6272 35.2958C26.8405 35.0825 27.0539 34.8691 27.2672 34.6557C27.1819 35.0398 27.0966 35.4665 26.9685 35.8506C26.7125 36.704 26.3711 37.5147 25.9871 38.6242C25.603 38.9656 24.963 39.5203 24.3656 40.1177C24.1522 39.6483 23.8535 39.6483 23.3841 40.0751C23.8108 40.0751 24.0669 40.0751 24.3656 40.0751C24.2802 40.5018 24.1522 40.9285 24.0669 41.3979C23.5548 41.4405 23.6828 41.7819 23.6401 41.9953C23.5548 42.1233 23.4695 42.2513 23.3414 42.3367C23.2561 42.55 23.1281 42.7634 23.0427 42.9767C22.9147 43.0621 22.8294 43.1901 22.7014 43.2754C22.232 43.4034 22.0186 43.7448 22.0613 44.2569C21.9759 44.4702 21.8479 44.6836 21.7626 44.897C21.6772 44.9396 21.5919 44.9823 21.6772 44.9396C21.6346 45.025 21.6772 44.9396 21.7199 44.8543C21.8053 44.6409 21.9333 44.4276 22.0186 44.2142C22.488 44.0435 22.744 43.7875 22.6587 43.2754C22.744 43.1474 22.8721 43.0621 22.9574 42.9341C23.3841 42.8914 23.2561 42.55 23.2561 42.294C23.4268 42.2086 23.5121 42.1233 23.6401 41.9953ZM26.4991 46.1771C26.4138 46.0491 26.2858 45.9638 26.2004 45.8357C25.9871 45.7504 25.7737 45.6224 25.5604 45.537C25.475 45.4944 25.4324 45.409 25.347 45.3663C25.4324 45.409 25.5177 45.4517 25.603 45.4944C25.8164 45.5797 26.0298 45.7077 26.2431 45.7931C26.3285 45.9211 26.4138 46.0491 26.4991 46.1771C26.7552 46.2625 26.9685 46.3478 27.1819 46.4758C27.2246 46.5612 27.2672 46.6465 27.2246 46.5612C27.3099 46.6038 27.2246 46.5612 27.1392 46.5185C26.9259 46.3905 26.7125 46.3051 26.4991 46.1771ZM38.3619 58.2532C38.4472 58.2959 38.5326 58.3386 38.5753 58.4239C38.4899 58.3812 38.4046 58.3386 38.3619 58.2532C38.3192 58.0825 38.2765 57.9118 38.2765 57.6985C38.1912 57.7412 38.1059 57.7412 38.0205 57.7838C38.1485 57.9545 38.2766 58.1252 38.3619 58.2532ZM45.0614 39.7763C45.0187 39.6057 45.0187 39.3923 44.976 39.2216C44.8907 39.2643 44.848 39.2643 44.7627 39.307C44.8907 39.4776 44.976 39.6483 45.0614 39.7763C45.104 40.1177 44.8907 40.5444 45.4027 40.7151C45.4454 41.2272 45.4454 41.7393 45.4881 42.2086C45.5307 42.2086 45.5734 42.2086 45.6161 42.2086C45.7014 41.8246 45.7441 41.4832 45.8294 41.0992C45.8721 41.0992 45.9575 41.0992 46.0001 41.0992C46.0428 41.6112 46.0428 42.1233 46.0855 42.6354C46.0428 42.7207 46.0001 42.806 45.9148 42.8914C45.9575 42.806 46.0001 42.7207 46.0428 42.6354C46.5549 42.8914 46.2988 43.3608 46.3415 43.7448C46.4268 44.1715 46.3842 44.5983 46.8536 44.8116C47.9204 42.5073 47.2803 39.7763 45.4027 39.0083C45.4027 39.307 45.4027 39.563 45.4027 39.819C45.2747 39.819 45.1894 39.819 45.0614 39.7763ZM10.1985 23.8598C10.1132 23.8171 10.0705 23.7744 9.98519 23.7318C10.0705 23.7318 10.1559 23.7744 10.1985 23.8598C10.5399 24.4145 11.0093 24.1158 11.3934 23.9025C11.0093 23.9025 10.5826 23.8598 10.1985 23.8598ZM29.0595 72.6336C29.6142 71.9509 29.3582 71.2254 29.1021 70.5C29.1021 71.2254 29.1021 71.9509 29.0595 72.6336C28.5901 73.103 28.8461 73.6577 29.0595 74.1698C29.0595 73.6151 29.0595 73.1457 29.0595 72.6336ZM30.0409 63.3738C30.0836 63.5445 30.0836 63.7579 30.1262 63.9286C30.2116 63.8859 30.2543 63.8859 30.3396 63.8432C30.2116 63.7152 30.1262 63.5445 30.0409 63.3738C29.9982 62.7764 29.9982 62.179 29.9982 61.5389C29.9556 61.5389 29.8702 61.5389 29.8275 61.5389C29.6995 61.8803 29.5288 62.179 29.3582 62.5631C29.6142 62.8618 29.8275 63.1178 30.0409 63.3738ZM43.1838 37.5574C42.6717 37.7281 42.2877 38.0268 42.2023 38.7096C42.501 38.7522 42.7571 38.7949 43.1411 38.8376C43.1411 38.3682 43.1411 37.9415 43.1838 37.5574C43.1838 37.4721 43.2691 37.3867 43.3118 37.3014C43.2265 37.3867 43.1838 37.4721 43.1838 37.5574ZM5.12061 17.8004C4.39519 18.8672 4.18183 20.062 4.18183 21.2995C3.49908 21.5982 3.96847 22.1529 3.88313 22.5796C3.24305 23.177 3.24305 24.0305 3.11504 24.7986C2.98702 25.6093 2.38962 26.3347 2.81633 27.6149C3.20038 25.6947 3.54175 24.1158 3.84046 22.5796C4.43786 22.2809 4.09649 21.7262 4.18183 21.2995C4.82191 20.19 4.99259 18.9952 5.12061 17.8004C5.71801 17.459 5.33397 16.947 5.41931 16.4776C5.50465 16.4349 5.63267 16.3922 5.67534 16.3496C6.35809 14.0026 6.99816 11.613 7.63824 9.26605C7.68091 9.09536 7.63824 8.88201 7.63824 8.66865C7.33954 8.92468 7.12618 9.22338 7.04084 9.52208C6.61412 11.0583 6.14473 12.6371 5.76068 14.216C5.59 14.9841 5.50465 15.7522 5.41931 16.5202C4.77923 16.8189 5.20595 17.3737 5.12061 17.8004ZM36.399 45.2383C36.4843 44.4702 35.7589 44.1715 35.4602 43.3181C35.0762 44.0862 34.6921 44.5129 34.9482 45.153C35.2042 44.9823 35.4175 44.8116 35.5029 44.7263C35.8869 44.9396 36.143 45.0676 36.399 45.2383C36.3563 45.3663 36.271 45.5797 36.1856 45.7931C36.8257 46.2625 37.4658 46.6892 38.1059 47.1586C37.8498 46.1771 37.5085 45.3237 36.399 45.2383ZM22.7014 57.3144C22.5307 57.2291 22.3173 57.1864 22.0613 57.1011C21.4639 58.8506 21.4212 60.5148 22.5307 62.051C22.8294 62.1363 23.0854 62.2217 23.2988 62.2644C23.4268 63.1178 23.4695 63.8859 24.6216 64.0139C24.6216 63.2458 24.6216 62.5631 24.6216 61.8376C24.963 62.0937 25.1763 62.2644 25.7311 62.6057C25.3897 61.795 25.1337 61.2829 25.0056 60.9415C25.0056 60.0454 25.0056 59.2347 25.0056 58.4239C25.2617 58.5092 25.475 58.5519 25.7311 58.6373C25.8164 58.4666 25.9017 58.2532 25.9871 58.0825C26.0724 57.9545 26.2431 57.8265 26.4138 57.6985C26.5845 58.5519 26.7552 59.2773 26.9259 60.0454C27.4379 55.9916 26.2431 53.6447 23.4268 53.0046C22.8721 53.5593 22.9574 54.1994 23.2561 54.8821C23.5975 55.6929 23.9388 56.5037 24.2802 57.3571C24.3229 57.4425 24.1949 57.5278 24.1522 57.7412C23.8108 57.4851 23.5121 57.2291 23.1708 56.9304C22.9147 57.0584 22.7867 57.2291 22.7014 57.3144C22.6587 57.3571 22.7014 57.3144 22.7014 57.3144ZM28.3767 29.3644C27.6513 29.7912 27.0539 29.5351 26.5418 29.0231C25.9871 28.4683 25.4324 27.9989 24.6643 27.7429C24.1522 28.2123 23.6828 28.5964 23.1281 29.1084C24.6216 30.2605 26.2004 30.9006 27.7366 31.498C28.2487 31.0713 28.6754 30.7299 29.1448 30.3032C28.8461 29.8765 28.6327 29.6205 28.3767 29.3644ZM38.4899 47.6706C38.3192 48.6094 38.1912 49.3775 38.0205 50.1029C38.7033 51.5111 39.9834 51.7244 41.3062 51.8951C41.7756 51.9378 42.117 51.6818 42.1597 51.2124C41.6476 50.5296 41.1782 49.8042 40.5808 49.2495C39.9834 48.6521 39.258 48.2254 38.4899 47.6706ZM21.5066 46.3051C22.4453 48.0547 23.8108 48.6094 26.3711 48.1827C25.0483 47.1586 23.8108 46.1344 23.1708 44.5129C22.616 45.1103 22.104 45.6651 21.5066 46.3051ZM13.783 64.526C15.3618 65.166 16.1726 64.9954 17.0687 63.8432C17.5381 63.7152 17.9648 63.5872 18.4342 63.4592C18.0928 62.8191 18.3062 62.051 17.4101 61.795C16.7273 61.923 16.1726 62.3924 15.6605 62.9044C15.1058 63.4165 14.5084 63.9286 13.783 64.526ZM20.9092 36.8747C20.2264 36.6186 19.5437 36.3626 18.7329 36.0639C18.3488 36.6186 17.9221 37.1734 17.4527 37.8561C18.1782 38.1122 18.7329 38.2402 19.2023 38.4962C19.7143 38.7522 20.1411 39.1363 20.6531 39.4776C21.0372 39.4776 21.4639 39.435 21.8906 39.3923C21.8479 39.2643 21.8479 39.1789 21.8053 39.1789C21.1225 38.8376 20.3971 38.5389 19.6717 38.1975C19.7143 37.9841 19.757 37.8134 19.7997 37.6001C20.8238 38.1975 21.2932 38.2828 21.5492 37.9841C21.2932 37.8134 21.0372 37.6428 20.7811 37.4721C20.9092 37.3014 20.9092 37.088 20.9092 36.8747ZM20.6958 50.999C20.9945 52.5352 20.7811 53.986 20.1411 55.4796C20.7385 55.9063 20.0557 57.1011 21.4212 57.3144C21.3359 56.5464 21.2932 55.9063 21.2079 55.1809C22.1466 53.73 21.8906 52.3218 20.6958 50.999ZM38.4046 46.0491C39.002 46.9025 39.3007 48.0973 40.7942 48.4387C41.0502 46.9879 40.3248 45.8357 39.8554 44.3849C39.3007 45.025 38.874 45.4944 38.4046 46.0491ZM9.38778 29.7912C9.25977 29.8338 9.13175 29.9192 9.00374 30.0045C7.8516 30.4739 6.65679 30.8153 5.71801 31.7967C5.54733 31.9674 5.24862 32.0528 4.99259 32.1381C4.09649 32.4368 3.20038 32.6928 2.2616 32.9915C2.2616 33.4183 2.2616 33.845 2.2616 34.2717C2.30427 34.2717 2.34695 34.2717 2.38962 34.2717C2.43229 33.9303 2.51763 33.5889 2.5603 33.2049C3.66977 32.9062 4.73656 32.6928 5.76068 32.3941C6.10206 32.3088 6.44343 32.0954 6.69946 31.8394C7.5529 30.986 8.61969 30.5593 9.72916 30.4312C10.0705 29.6205 10.0705 29.6205 9.85717 28.767C9.72916 29.1511 9.60114 29.4071 9.38778 29.7912ZM26.3711 68.4091C26.3711 67.3423 26.3711 66.4035 26.3711 65.3794C26.0724 65.3794 25.6884 65.3794 25.3043 65.3794C25.091 65.7208 24.8776 66.0621 24.7496 66.2328C24.963 67.2996 25.1337 68.1531 25.3043 69.0918C25.7311 68.7931 26.1151 68.5371 26.3711 68.4091ZM43.0558 45.7504C42.6717 46.1771 42.3304 46.5612 41.9463 46.9879C41.8183 47.5426 41.6049 48.14 41.5196 48.7801C41.3916 49.7189 41.5196 49.8896 42.373 50.2309C42.7998 48.7374 43.5252 47.3293 43.0558 45.7504ZM19.6717 46.9025C20.3117 45.8784 20.8665 44.9396 21.4639 44.0009C22.0613 43.0621 22.7014 42.166 23.3414 41.2699C22.616 41.6539 21.8906 41.9953 21.3785 42.55C20.8665 43.1047 20.3971 43.8302 20.1837 44.5556C20.013 45.281 19.2023 45.8357 19.6717 46.9025ZM32.4732 46.8172C32.3025 47.0732 32.2172 47.2439 32.0465 47.4573C31.7904 47.3293 31.5344 47.2439 31.1504 47.0732C31.7051 46.5612 32.1318 46.1771 32.5585 45.7504C33.1133 45.7504 33.6253 45.7504 34.2227 45.7504C33.7533 44.9396 33.1133 45.1957 32.5159 45.153C31.9185 45.5797 31.3211 46.0064 30.7663 46.3905C30.8943 46.9879 31.0224 47.4573 31.1077 47.884C31.4917 47.7986 31.7904 47.756 32.0465 47.6706C32.4305 47.9693 32.7292 48.268 33.0706 48.5667C33.2413 48.3534 33.412 48.1827 33.6253 48.012C33.2413 47.6706 32.8999 47.2866 32.4732 46.8172ZM0.469389 32.7355C0.853435 33.7596 0.896106 34.6557 1.79221 35.5518C1.92023 34.1864 2.00557 33.0769 2.09092 31.8394C2.00557 31.7114 1.87756 31.4554 1.6642 31.0713C0.896107 31.498 1.28015 32.4795 0.469389 32.7355ZM12.6735 51.5537C13.2282 50.9563 13.6123 50.5296 13.9963 50.1029C13.8683 49.2068 13.8683 49.2068 12.8869 49.1641C12.0334 50.3163 11.8627 51.0844 12.3321 51.5537C12.4601 51.5111 12.6308 51.5537 12.6735 51.5537ZM16.2579 38.7096C17.2394 39.9044 17.7941 40.0324 19.7143 39.563C18.7329 38.5815 17.6234 38.3255 16.2579 38.7096ZM39.0446 64.3553C39.4287 64.0139 39.8554 63.5872 40.2821 63.2031C40.0261 62.6057 39.8554 62.1363 39.642 61.667C39.5994 61.6243 39.4714 61.6243 39.3433 61.5816C39.386 61.8803 39.4714 62.179 39.514 62.4351C39.3433 62.5631 39.2153 62.6484 39.13 62.7338C38.7886 62.6484 38.4899 62.5204 37.9352 62.3497C38.3619 63.1605 38.1059 63.9286 39.0446 64.3553ZM27.3099 42.9341C26.9685 44.6409 28.5901 45.0676 29.1021 46.4331C29.2728 45.9211 29.4435 45.7504 29.4008 45.5797C29.3582 45.281 29.2728 44.9823 29.1021 44.7263C28.6327 44.0862 28.206 43.3181 27.3099 42.9341ZM21.0798 79.7171C21.5066 80.4852 22.1466 80.3145 22.7014 80.2718C23.0001 80.2718 23.2988 80.0585 23.6828 79.9305C22.5307 78.7357 22.4027 78.7357 21.0798 79.7171ZM20.7385 62.307C20.3544 62.1363 20.013 61.9657 19.5863 61.7523C19.5863 62.5631 19.5863 63.2885 19.5863 64.0992C20.0557 63.8432 20.4398 63.6725 20.7385 63.5018C20.7385 63.0751 20.7385 62.6911 20.7385 62.307ZM36.0149 34.357C36.783 35.2958 37.7218 34.8691 38.6179 34.9971C38.3192 34.1437 38.3192 34.1437 36.3563 33.8876C36.271 34.0157 36.1856 34.1437 36.0149 34.357ZM37.8072 65.6354C37.2098 65.166 36.7404 65.2514 36.2283 65.3794C36.0576 65.8915 35.5456 66.2755 35.9296 66.8729C36.9964 67.0436 37.2098 66.1475 37.8072 65.6354ZM16.6846 24.4145C16.514 23.4331 16.3859 22.537 16.2153 21.6835C15.9592 22.2809 16.0446 22.8357 15.9592 23.3904C15.8739 23.9025 15.5752 24.4145 15.2765 25.1399C15.7885 24.8839 16.1299 24.7132 16.6846 24.4145ZM20.3117 41.1418C19.3303 41.0565 19.3303 41.0565 18.9036 41.7819C19.1596 42.166 19.4583 42.422 19.9277 42.2086C20.3971 42.0806 20.5251 41.7393 20.3117 41.1418ZM37.0817 41.1418C37.1244 41.1845 37.2098 41.2699 37.2524 41.3125C37.5085 41.1418 37.7645 40.9712 38.1485 40.6725C38.9593 40.6725 39.8981 40.6725 40.8368 40.6725C39.6847 40.2884 38.5326 40.2457 37.3378 40.5871C37.2524 40.7578 37.1671 40.9712 37.0817 41.1418ZM23.1708 74.5538C22.9147 75.2366 22.7014 75.7913 22.488 76.3887C23.2988 76.5594 23.5548 76.09 23.9388 75.6206C23.6401 75.2366 23.4268 74.9379 23.1708 74.5538ZM37.7645 44.2142C37.3378 43.9155 37.0817 43.7022 36.8684 43.5741C36.8257 43.0621 36.7404 42.5927 36.6977 42.038C35.9296 43.0194 35.9296 43.0194 36.783 44.2569C36.9964 44.2569 37.2524 44.2569 37.7645 44.2142ZM30.1689 64.4833C29.9129 65.8061 30.1689 66.7449 30.7236 67.9824C30.8517 66.6596 30.5956 65.7208 30.1689 64.4833ZM40.1968 65.8915C39.642 65.6354 39.3433 65.5074 39.0446 65.3794C38.6179 65.8915 38.5753 66.3609 38.9593 67.0009C39.3433 66.6596 39.6847 66.3608 40.1968 65.8915ZM39.1727 43.5315C38.7459 44.2996 37.8072 44.2996 37.3378 45.025C38.2765 44.9823 38.2765 44.9823 39.514 44.0009C39.4287 43.9582 39.386 43.8728 39.1727 43.5315ZM37.5511 47.4573C36.8257 46.9452 36.271 46.5185 35.5882 46.9025C35.9723 47.2866 36.3563 47.6706 36.8257 48.14C37.0391 47.9267 37.2098 47.756 37.5511 47.4573ZM7.5529 68.1957C6.82748 67.769 6.05939 67.3423 5.20595 67.6837C5.20595 68.2811 5.20595 68.2811 5.63267 68.2811C5.59 68.1957 5.54733 68.1104 5.50465 67.9824C5.50465 67.9397 5.54733 67.897 5.54733 67.9397C6.23007 68.025 6.87015 68.1104 7.5529 68.1957ZM26.4565 71.4815C26.4991 71.7375 26.5418 71.9508 26.5845 72.1642C26.8405 72.2922 27.0966 72.4202 27.5659 72.6336C27.2672 71.9935 27.0539 71.5668 26.8832 71.0974C26.4565 71.0974 26.0724 71.0974 25.7311 71.0974C25.7311 71.1401 25.7311 71.1828 25.6884 71.2254C25.9017 71.3108 26.1151 71.3961 26.4565 71.4815ZM24.9203 37.216C23.7682 37.3441 23.7682 37.3441 23.5121 38.4109C24.1095 37.8988 24.4936 37.5574 24.9203 37.216ZM28.3767 56.717C28.9314 57.6985 28.9314 57.6985 29.6995 58.1679C29.8275 57.2718 29.1875 57.0584 28.3767 56.717ZM39.7701 38.5815C40.6235 39.0509 41.4769 38.8802 41.5196 38.3682C41.3489 38.1975 41.1356 38.0268 40.8368 37.7708C40.7942 38.1122 40.7515 38.3255 40.7088 38.4962C40.4528 38.4962 40.2394 38.5389 39.7701 38.5815ZM34.7348 46.7745C35.0762 46.4331 35.3749 46.0491 35.8016 45.5797C34.7348 45.7077 34.7348 45.7077 34.7348 46.7745ZM38.8313 62.051C38.9593 61.3256 38.9593 61.3256 38.7459 60.5575C38.2766 61.1122 38.1912 61.5816 38.8313 62.051ZM40.2821 58.5519C40.1968 57.9118 40.1541 57.6985 40.1114 57.4851C40.1114 57.4425 39.9407 57.3998 39.8127 57.3571C39.642 57.4851 39.4714 57.6131 39.2153 57.7838C39.5567 58.0399 39.7701 58.1679 40.2821 58.5519ZM41.0075 44.3422C40.9222 45.281 40.7088 45.9638 41.5623 46.5612C41.3489 45.7931 41.2209 45.2383 41.0075 44.3422ZM37.4658 69.0492C37.5085 69.0492 37.5938 69.0492 37.6365 69.0492C37.6365 68.4518 37.6365 67.8544 37.6365 67.2996C37.5938 67.2996 37.5085 67.2996 37.4658 67.2996C37.4658 67.8544 37.4658 68.4518 37.4658 69.0492ZM42.4584 54.0287C42.8424 54.7541 43.2265 54.8395 44.0372 54.4981C43.3545 54.3274 43.0131 54.1994 42.4584 54.0287ZM18.9463 62.6484C18.9889 62.6484 19.0316 62.6484 19.0743 62.6484C19.0743 62.179 19.0743 61.7523 19.0743 61.2829C19.0316 61.2829 18.9889 61.2829 18.9463 61.2829C18.9463 61.7523 18.9463 62.2217 18.9463 62.6484ZM44.2506 37.2587C43.9946 37.8561 44.1226 38.1975 44.8907 38.6242C44.592 37.9841 44.4639 37.6428 44.2506 37.2587ZM44.6346 44.5983C44.6346 44.6836 44.592 44.7263 44.592 44.8116C44.9333 44.8116 45.2747 44.8116 45.6161 44.8116C45.6161 44.7689 45.6161 44.7263 45.6161 44.6836C45.2747 44.6409 44.976 44.5983 44.6346 44.5983ZM6.52878 68.4944C6.52878 68.5798 6.52878 68.7078 6.52878 68.7931C6.87015 68.7931 7.21152 68.7505 7.5529 68.7505C7.5529 68.7078 7.5529 68.6225 7.5529 68.5798C7.21152 68.5371 6.87015 68.5371 6.52878 68.4944ZM35.7162 42.1233C35.6309 42.0806 35.5456 42.038 35.4602 41.9953C35.3749 42.166 35.2895 42.3793 35.2042 42.55C35.2895 42.5927 35.3749 42.6354 35.4602 42.678C35.5456 42.5073 35.6309 42.3367 35.7162 42.1233ZM46.2135 46.0918C46.2135 45.4517 46.2135 45.4517 45.7441 45.3237C45.9148 45.5797 46.0428 45.7931 46.2135 46.0918ZM14.0817 25.524C14.1243 25.6093 14.167 25.652 14.167 25.7373C14.423 25.6093 14.6364 25.4813 14.8924 25.3533C14.8498 25.268 14.8071 25.2253 14.7644 25.1399C14.5937 25.268 14.3377 25.396 14.0817 25.524ZM19.1169 63.5445C19.0316 63.5445 18.9463 63.5445 18.9036 63.5445C18.9463 63.8859 18.9463 64.2273 18.9889 64.5686C19.0316 64.5686 19.0743 64.5686 19.1596 64.5686C19.1169 64.2273 19.1169 63.8859 19.1169 63.5445ZM29.7849 77.5835C29.8702 77.5835 29.9556 77.5835 30.0409 77.5835C29.9982 77.3702 29.9982 77.1141 29.9556 76.9008C29.9129 76.9008 29.8702 76.9008 29.7849 76.9008C29.7849 77.1568 29.7849 77.3702 29.7849 77.5835ZM46.5975 49.9322C46.5975 49.8896 46.5975 49.8042 46.5975 49.7615C46.3415 49.7615 46.0855 49.7615 45.8294 49.7615C45.8294 49.8042 45.8294 49.8896 45.8294 49.9322C46.0855 49.9322 46.3415 49.9322 46.5975 49.9322ZM11.8201 19.7633C11.9054 19.806 11.9908 19.8486 12.0761 19.8913C12.1614 19.7633 12.2895 19.6353 12.3748 19.5073C12.3321 19.4646 12.2468 19.4219 12.2041 19.3366C12.0334 19.5073 11.9481 19.6353 11.8201 19.7633ZM37.5938 63.8005C37.5511 63.8005 37.5511 63.8005 37.5085 63.8005C37.5085 63.9286 37.5085 64.0566 37.5085 64.1846C37.5511 64.1846 37.5938 64.1846 37.6365 64.1846C37.6365 64.0566 37.5938 63.9286 37.5938 63.8005ZM25.6457 37.7281C25.7311 37.7281 25.7737 37.7281 25.8591 37.7281C25.8591 37.6001 25.8164 37.4721 25.8164 37.3441C25.7737 37.3441 25.7311 37.3441 25.6884 37.3441C25.6457 37.4721 25.6457 37.6001 25.6457 37.7281ZM38.4046 59.9601C38.5326 60.0881 38.6179 60.1735 38.6179 60.1735C38.7033 60.1308 38.7886 60.0454 38.8313 60.0028C38.7033 59.9601 38.5752 59.9601 38.4046 59.9601ZM11.9054 17.587C11.9054 17.6297 11.9054 17.6724 11.9054 17.7151C12.0334 17.7151 12.1614 17.6724 12.2895 17.6724C12.2895 17.6297 12.2895 17.587 12.2895 17.5444C12.1614 17.5444 12.0334 17.587 11.9054 17.587ZM12.3321 23.7318C12.3321 23.6891 12.3321 23.6464 12.3321 23.6038C12.2041 23.6038 12.0761 23.6464 11.9481 23.6464C11.9481 23.6891 11.9481 23.7318 11.9908 23.7744C12.1188 23.7744 12.2041 23.7318 12.3321 23.7318ZM28.7181 32.0101C28.6327 32.0101 28.5901 31.9674 28.5047 31.9674C28.5474 32.0954 28.5474 32.2234 28.5901 32.3515C28.6327 32.2234 28.6754 32.1381 28.7181 32.0101ZM44.848 51.4684C44.8907 51.4684 44.9333 51.4684 45.0187 51.4684C45.0187 51.3404 44.976 51.1697 44.976 51.0417C44.9333 51.0417 44.8907 51.0417 44.848 51.0417C44.8053 51.2124 44.848 51.3404 44.848 51.4684ZM32.3452 31.9247C32.3452 31.9674 32.3452 32.0101 32.3452 32.0528C32.5159 32.0528 32.6866 32.0528 32.8572 32.0528C32.8572 32.0101 32.8572 31.9674 32.8572 31.9247C32.6866 31.9247 32.5159 31.9247 32.3452 31.9247ZM33.4546 50.7857L33.3693 50.7003V50.8283L33.4546 50.7857ZM10.1559 19.8913C10.1132 19.8486 10.1132 19.8486 10.0705 19.806C10.0705 19.8486 10.0705 19.934 10.0705 19.9767C10.0705 19.934 10.1132 19.8913 10.1559 19.8913ZM27.0966 28.4257C27.0539 28.383 27.0539 28.3403 27.0112 28.3403C26.9685 28.383 26.9685 28.4257 26.9259 28.4257C26.9685 28.4683 27.0112 28.511 27.0539 28.511C27.0539 28.511 27.0966 28.4683 27.0966 28.4257ZM38.3192 59.4054C38.2766 59.3627 38.2339 59.32 38.2339 59.2773C38.1912 59.32 38.1485 59.3627 38.1059 59.3627C38.1485 59.4054 38.1912 59.448 38.1912 59.448C38.2339 59.5334 38.2766 59.448 38.3192 59.4054ZM39.258 59.4054L39.1727 59.32V59.448L39.258 59.4054ZM40.8368 44.1289C40.7942 44.0862 40.7942 44.0435 40.7515 44.0435C40.7088 44.0862 40.6662 44.0862 40.6662 44.1289C40.6662 44.1715 40.7088 44.2142 40.7515 44.2142C40.7942 44.1715 40.7942 44.1289 40.8368 44.1289ZM31.1077 43.7875L31.193 43.8728V43.7875H31.1077ZM30.937 64.526C30.8943 64.4833 30.8943 64.4833 30.8517 64.4406C30.8517 64.4833 30.8517 64.5686 30.8517 64.6113C30.8517 64.5686 30.8943 64.526 30.937 64.526ZM40.1114 36.8747C40.1541 36.832 40.1968 36.832 40.2394 36.7893C40.1968 36.7467 40.1541 36.704 40.1541 36.704C40.1114 36.704 40.0688 36.7467 40.0261 36.7893C40.0261 36.7893 40.0688 36.832 40.1114 36.8747ZM23.7255 36.7467L23.8535 36.7893V36.704L23.7255 36.7467ZM38.6179 39.6483C38.5752 39.6057 38.5753 39.563 38.5326 39.563C38.4899 39.6057 38.4472 39.6057 38.4472 39.6483C38.4472 39.691 38.4899 39.691 38.5326 39.7337C38.5326 39.691 38.5752 39.6483 38.6179 39.6483ZM44.5493 41.9099L44.6346 41.8246H44.5066L44.5493 41.9099ZM22.5307 72.0362C22.5307 72.1215 22.5307 72.1642 22.5307 72.2496C22.5733 72.2069 22.616 72.2069 22.6587 72.1642C22.616 72.1215 22.5733 72.0789 22.5307 72.0362ZM14.295 24.3292C14.2524 24.2865 14.2524 24.2865 14.2097 24.2438C14.167 24.2865 14.1243 24.2865 14.1243 24.3292C14.1243 24.3718 14.167 24.3718 14.2097 24.4145C14.2097 24.3718 14.2524 24.3292 14.295 24.3292ZM35.7589 33.2476C35.7162 33.2049 35.7162 33.1622 35.6736 33.1622C35.6736 33.2049 35.6736 33.2902 35.6736 33.3329C35.6736 33.3329 35.7162 33.2902 35.7589 33.2476ZM13.3563 25.268C13.3136 25.2253 13.2709 25.2253 13.2709 25.1826C13.2709 25.2253 13.2709 25.3106 13.2709 25.3533C13.2709 25.3533 13.3136 25.3106 13.3563 25.268Z" fill="white"/>
<path d="M210.457 37.0453C211.78 37.216 213.103 37.2587 214.383 37.5147C218.394 38.3682 220.912 40.8858 221.85 44.8543C222.661 48.3533 222.32 51.7671 220.656 55.0101C219.205 57.8691 216.815 59.6187 213.785 60.3868C211.097 61.0695 208.366 61.0695 205.678 60.2161C201.453 58.8933 199.234 55.9489 198.509 51.6391C198.125 49.3348 198.253 47.1159 198.893 44.9396C200.003 41.1418 202.435 38.5388 206.361 37.5574C206.702 37.4721 207.086 37.3014 207.427 37.3014C208.452 37.2587 209.433 37.3014 210.457 37.3014C210.457 37.216 210.457 37.1307 210.457 37.0453ZM217.413 49.0361C217.583 47.4146 217.199 45.665 216.73 44.0435C216.303 42.6353 215.748 41.1845 214.468 40.2884C212.292 38.7949 209.902 38.4108 207.385 39.3923C204.91 40.3737 203.843 42.4646 203.374 44.8969C203.118 46.2624 203.032 47.7133 203.075 49.1641C203.075 51.4684 203.63 53.6446 204.739 55.6929C206.19 58.3385 208.58 59.2346 211.439 58.9359C213.999 58.6372 215.663 57.2291 216.516 54.7968C217.157 52.9619 217.498 51.0843 217.413 49.0361Z" fill="white"/>
<path d="M176.489 48.2681C176.574 50.5297 176.233 52.5352 175.337 54.4981C173.843 57.6985 171.283 59.6187 167.955 60.4295C165.138 61.1123 162.322 60.9842 159.548 60.0455C156.561 59.064 154.684 56.9731 153.531 54.1994C152.849 52.5779 152.593 50.8284 152.635 49.1215C152.721 45.5797 153.617 42.2513 156.476 39.7764C158.225 38.2402 160.274 37.4721 162.493 37.2587C164.114 37.1307 165.778 37.1734 167.442 37.2587C169.576 37.3868 171.411 38.1975 173.032 39.6057C174.355 40.7578 175.422 42.1233 175.977 43.8302C176.404 45.3237 176.574 46.8172 176.489 48.2681ZM171.838 49.0361C171.838 47.2439 171.582 45.5371 171.07 43.8729C170.728 42.7634 170.216 41.7393 169.448 40.8432C168.381 39.563 166.888 39.0936 165.394 38.9229C162.919 38.6669 160.743 39.307 159.164 41.4833C157.585 43.7022 157.713 46.2625 157.415 48.7374C157.329 49.3775 157.585 50.1029 157.628 50.743C157.756 52.9193 158.439 54.8395 159.719 56.589C161.511 59.064 165.266 59.3627 167.357 58.552C169.832 57.5705 170.942 55.5223 171.411 53.09C171.624 51.7671 171.667 50.4016 171.838 49.0361Z" fill="white"/>
<path d="M319.91 38.7096C319.057 38.8803 318.374 39.051 317.606 39.2217C317.35 40.5018 317.179 41.7393 317.179 42.9768C317.222 48.4388 317.179 53.9008 317.179 59.4054C317.179 59.8321 317.179 60.2588 317.179 60.6429C316.113 61.1549 315.302 60.3442 314.278 60.5149C309.626 54.7115 304.975 48.9082 300.324 43.1048C300.281 43.4035 300.239 43.7449 300.239 44.0863C300.239 48.0121 300.239 51.9379 300.281 55.8637C300.281 56.7598 300.495 57.6132 300.58 58.424C301.177 59.2347 302.074 58.7227 302.927 59.1494C302.97 59.4481 303.055 59.8748 303.14 60.4295C300.623 60.4295 298.276 60.4295 295.801 60.4295C295.801 59.9601 295.801 59.5334 295.801 59.0214C296.398 58.9787 296.91 58.936 297.422 58.936C297.977 58.6373 298.276 58.2106 298.276 57.5279C298.276 51.6392 298.276 45.7505 298.276 39.8191C298.276 39.7337 298.19 39.6057 298.148 39.4777C297.508 38.923 296.612 38.9656 295.801 38.7523C295.801 38.2829 295.801 37.8562 295.801 37.2588C297.764 37.6428 299.641 37.6001 301.817 37.3868C301.903 37.4721 302.287 37.6855 302.5 37.9842C304.207 40.1605 305.871 42.3367 307.536 44.513C309.413 46.9026 311.291 49.2495 313.168 51.5965C313.766 52.3219 314.363 53.0473 315.216 54.0714C315.344 52.1512 315.259 50.5297 315.259 48.9508C315.259 47.372 315.302 45.7505 315.216 44.1716C315.131 42.5501 315.515 40.8859 314.832 39.179C314.107 39.051 313.339 38.8803 312.485 38.7523C312.4 38.2829 312.229 37.7708 312.784 37.3868C315.046 37.6855 317.307 37.6428 319.697 37.3868C320.252 37.7282 320.124 38.2402 319.91 38.7096Z" fill="white"/>
<path d="M67.7195 39.3069C66.8661 39.0936 66.2687 38.9229 65.5859 38.7095C65.5859 38.3255 65.5859 37.8561 65.5859 37.344C67.2075 37.6854 68.7863 37.5147 70.3652 37.5147C71.9014 37.5147 73.4375 37.4721 75.0591 37.4294C75.1017 37.7281 75.1017 38.1975 75.1444 38.6242C74.3336 38.8376 73.6509 38.9656 72.9255 39.1789C72.7975 39.947 72.5841 40.6298 72.5841 41.2698C72.5414 45.153 72.4988 49.0361 72.5841 52.9192C72.5841 53.7727 72.8401 54.6688 73.1815 55.4795C73.8216 57.0157 75.2724 57.5704 76.7233 57.8265C78.1741 58.0825 79.6676 57.9972 81.0758 57.3571C82.7827 56.6317 83.5507 55.3088 83.7641 53.5593C84.1908 49.5055 84.0628 45.409 84.0628 41.3125C84.0628 40.6298 83.8494 39.947 83.7214 39.1789C82.996 39.0082 82.2279 38.8376 81.3318 38.6242C81.1185 38.2401 81.0758 37.7708 81.5025 37.3867C83.7641 37.5147 85.983 37.5147 88.33 37.3867C88.714 37.6427 88.586 38.1121 88.5007 38.6242C88.3726 38.6669 88.202 38.7522 88.0739 38.7522C87.3912 38.7522 86.7938 38.8376 86.4097 39.5203C85.8123 42.5073 86.0684 45.4943 85.983 48.524C85.9404 49.8042 86.0684 51.0843 85.9404 52.3645C85.8123 53.602 85.6843 54.8821 85.2576 56.0769C84.4469 58.3385 82.74 59.704 80.4784 60.3441C77.8327 61.0695 75.1444 61.0269 72.5414 60.1307C70.4078 59.3627 68.7436 58.0398 68.2316 55.6929C68.1462 55.1808 68.0609 54.6261 68.0609 54.114C68.0609 49.8469 68.0609 45.6224 68.0182 41.3552C68.0609 40.7151 67.8475 40.0324 67.7195 39.3069Z" fill="white"/>
<path d="M140.56 39.435C140.475 43.3181 140.347 47.0305 140.389 50.743C140.389 53.2606 140.646 55.8209 140.774 58.4666C141.371 59.32 142.48 58.6799 143.462 59.064C143.505 59.448 143.505 59.8747 143.547 60.3868C140.091 60.3868 136.762 60.3868 133.391 60.3868C133.391 59.9601 133.391 59.576 133.391 59.064C134.031 58.9786 134.586 58.8506 135.226 58.7653C135.397 58.5946 135.61 58.3812 135.909 58.0825C135.909 55.9063 135.909 53.73 135.909 51.5537C135.909 48.0547 135.909 44.5556 135.866 41.0138C135.866 40.4164 135.696 39.7763 135.61 39.1363C134.842 38.9656 134.159 38.8376 133.391 38.6669C133.263 38.2402 133.178 37.7281 133.605 37.3867C136.634 37.4721 139.579 37.7281 142.523 37.3014C143.419 37.1734 144.315 37.2587 145.211 37.3014C145.723 37.344 146.236 37.4721 146.748 37.5147C149.095 37.7708 150.972 39.435 150.887 41.8673C150.844 42.7634 150.887 43.7021 150.673 44.5556C149.82 48.012 146.62 49.8042 143.206 49.6335C142.736 49.5908 142.31 49.3775 141.755 49.2495C141.712 48.7801 141.627 48.3534 141.584 47.9693C142.31 47.9693 142.864 48.0547 143.419 47.9693C145.083 47.7133 145.979 46.5185 146.321 44.9823C146.577 43.7021 146.534 42.3366 145.937 41.0992C145.595 40.3737 145.126 39.8617 144.401 39.563C143.248 39.0936 142.011 38.9656 140.56 39.435Z" fill="white"/>
<path d="M232.391 59.1067C233.159 58.8933 233.713 58.7227 234.311 58.552C237.341 51.5965 239.901 44.4703 242.632 37.4295C243.4 37.1308 244.125 37.3014 245.021 37.2588C247.838 44.3423 250.697 51.4258 253.513 58.4666C254.239 58.68 254.836 58.8507 255.476 59.064C255.476 59.4481 255.476 59.9175 255.476 60.5149C253.855 60.4295 252.276 60.4722 250.697 60.3015C249.203 60.1735 247.667 60.4722 246.003 60.6002C245.96 60.0028 245.875 59.5761 245.832 59.1067C246.046 59.0214 246.174 58.936 246.344 58.936C246.942 58.8507 247.667 59.1494 248.179 58.2533C247.71 56.8024 247.155 55.2236 246.6 53.5167C245.235 53.5167 243.912 53.474 242.632 53.474C241.352 53.474 240.072 53.474 238.706 53.474C237.895 54.9249 237.511 56.5464 237.085 58.1679C237.938 58.8507 237.938 58.8507 239.474 59.0214C239.474 59.4481 239.517 59.8748 239.559 60.5149C238.322 60.4295 237.17 60.5149 236.018 60.3869C234.951 60.2588 233.841 60.4722 232.604 60.5149C232.476 60.0455 232.433 59.5761 232.391 59.1067ZM242.589 43.5742C242.461 43.5742 242.333 43.6169 242.205 43.6169C241.309 46.0491 240.37 48.5241 239.474 50.9564C239.431 51.0844 239.517 51.2551 239.559 51.3831C241.437 51.6391 244.381 51.5965 245.662 51.2551C244.637 48.6948 243.613 46.1345 242.589 43.5742Z" fill="white"/>
<path d="M257.779 59.192C257.907 57.2718 258.035 55.5223 258.206 53.6447C258.675 53.602 259.059 53.5594 259.572 53.5167C259.572 54.5408 259.572 55.4796 259.572 56.333C261.321 58.68 263.625 59.192 266.186 58.8933C267.807 58.68 269.386 57.2718 269.599 55.7356C269.642 55.3943 269.77 55.0102 269.855 54.5835C269.813 54.4555 269.685 54.2421 269.685 54.0714C269.471 52.0659 268.021 51.3831 266.356 50.9991C265.162 50.7004 263.967 50.5723 262.815 50.3163C262.217 50.1883 261.62 49.9323 261.022 49.7189C259.401 49.1215 258.462 47.8414 258.121 46.2198C257.822 44.8117 257.865 43.3182 258.377 41.91C259.273 39.307 261.406 37.5148 264.436 37.3014C265.972 37.1734 267.508 37.2161 269.087 37.3014C270.282 37.3868 271.434 37.7708 272.544 38.4536C272.373 40.1178 272.245 41.7393 272.074 43.4035C271.861 43.4888 271.69 43.6169 271.52 43.6169C271.264 43.6169 271.05 43.4888 270.709 43.4035C270.666 42.5927 270.623 41.782 270.581 41.0139C268.959 39.051 266.484 38.4109 264.18 39.3924C262.303 40.2031 261.364 42.4647 262.132 44.2996C262.473 45.153 263.113 45.6651 263.967 45.8785C265.332 46.2198 266.74 46.5185 268.106 46.8172C269.087 47.0306 270.069 47.2013 271.008 47.5427C272.757 48.1827 273.483 49.7189 273.696 51.3831C273.995 53.4314 273.696 55.4796 272.458 57.2718C271.306 58.936 269.727 59.9601 267.85 60.4295C264.692 61.2403 261.577 60.9843 258.59 59.6188C258.249 59.4907 258.035 59.3627 257.779 59.192Z" fill="white"/>
<path d="M113.036 43.2328C112.652 43.6595 112.225 43.7022 111.67 43.2328C111.628 42.422 111.585 41.5686 111.5 40.5445C109.75 39.051 107.702 38.4536 105.398 39.179C103.989 39.6057 102.752 41.1846 102.88 42.5074C102.923 42.9768 102.88 43.4462 102.88 43.7022C103.52 45.4091 104.758 45.8358 106.166 46.1772C107.915 46.6039 109.665 46.7319 111.414 47.2866C113.249 47.884 114.359 49.0788 114.657 50.8284C115.468 55.5223 113.292 59.2347 108.598 60.4295C105.27 61.2829 102.027 60.8136 98.8262 59.1494C98.9115 58.2533 99.0822 57.3571 99.1249 56.4184C99.1675 55.5223 99.1675 54.6262 99.1675 53.6447C99.6796 53.5594 100.064 53.5167 100.49 53.4313C100.576 53.6447 100.661 53.8154 100.661 53.9434C100.704 54.1568 100.704 54.3701 100.661 54.5835C100.405 56.333 101.301 57.4425 102.752 58.1252C104.288 58.8933 105.995 59.192 107.659 58.7226C110.134 57.9972 112.054 55.0102 110.049 52.1512C108.769 51.0417 107.19 50.9137 105.654 50.615C104.672 50.4443 103.691 50.231 102.752 49.9749C100.618 49.3349 99.0822 47.756 99.0822 45.025C99.0822 44.0436 99.0395 43.0621 99.3809 42.038C100.32 39.2217 102.283 37.6001 105.142 37.3014C107.275 37.0454 109.494 36.9601 111.628 37.5575C112.268 37.7281 112.908 38.0269 113.548 38.2829C113.335 40.0324 113.207 41.6113 113.036 43.2328Z" fill="white"/>
<path d="M276.982 59.1066C277.068 58.1679 277.153 57.2718 277.238 56.3756C277.324 55.4795 277.494 54.6261 277.622 53.602C277.921 53.602 278.305 53.5593 278.817 53.5593C278.817 54.0287 278.86 54.4128 278.817 54.7541C278.561 56.4183 279.5 57.3998 280.738 58.0399C282.444 58.936 284.322 59.32 286.242 58.5946C288.418 57.7838 289.485 55.6076 288.845 53.3886C288.546 52.2792 287.821 51.6391 286.84 51.3404C285.858 50.999 284.791 50.871 283.767 50.6576C282.914 50.4443 282.018 50.2309 281.164 50.0602C278.86 49.6335 277.708 48.012 277.281 45.9637C276.684 43.0621 277.921 39.691 280.482 38.2402C281.506 37.6854 282.572 37.2587 283.767 37.216C285.133 37.216 286.541 37.1734 287.906 37.216C289.272 37.3014 290.595 37.6428 291.747 38.4962C291.534 40.075 291.32 41.6112 291.107 43.2328C291.021 43.2754 290.936 43.4461 290.808 43.4888C290.637 43.5741 290.381 43.5741 290.083 43.6168C289.912 42.55 289.699 41.5686 289.528 40.5871C288.589 39.6057 287.394 39.1363 286.157 38.9229C284.407 38.6669 281.804 39.3923 281.164 41.6112C280.652 43.2754 281.207 45.409 283.426 45.9637C284.791 46.3051 286.2 46.5185 287.565 46.8172C288.546 47.0305 289.528 47.1586 290.424 47.7133C291.875 48.6094 292.771 49.8469 292.814 51.5537C292.814 51.8524 292.814 52.1938 292.814 52.4925C293.155 56.461 290.552 59.448 286.882 60.3868C283.511 61.3256 280.097 60.9415 276.982 59.1066Z" fill="white"/>
<path d="M194.071 57.8691C194.327 56.7597 194.583 55.6929 194.882 54.4981C195.266 54.4981 195.693 54.4554 196.205 54.4554C195.991 56.4183 195.778 58.2959 195.565 60.2588C195.223 60.3441 194.882 60.4721 194.54 60.4721C191.553 60.4721 188.566 60.6001 185.579 60.4294C184.043 60.3441 182.55 60.6001 181.056 60.4721C180.758 60.4294 180.416 60.4721 180.075 60.4721C179.691 59.1066 181.099 59.1493 181.483 58.4666C181.782 54.9248 181.696 40.8004 181.312 39.2643C180.587 39.0936 179.776 38.9229 178.837 38.7095C178.837 38.4108 178.795 38.0268 178.752 37.472C179.221 37.4294 179.648 37.2587 180.032 37.3014C182.891 37.7708 185.707 37.5147 188.652 37.3867C189.207 37.6854 188.993 38.1975 188.908 38.7522C188.054 38.8802 187.158 38.7949 186.518 39.4776C186.39 40.6724 186.177 41.8672 186.134 43.062C186.092 48.0546 186.134 53.0472 186.134 58.0398C187.756 58.4666 191.255 58.3812 194.071 57.8691Z" fill="white"/>
<path d="M30.0405 15.2401C30.2112 15.2401 30.3392 15.1974 30.5099 15.1547C30.5099 14.984 30.5099 14.8133 30.5099 14.6427C30.5952 14.6427 30.7232 14.6 30.8086 14.6427C31.534 15.0694 31.8327 15.8375 32.1314 16.5629C32.8141 18.2698 32.8995 18.3551 34.3503 19.0805C33.8383 18.9952 33.3689 18.9098 32.8141 18.8245C32.4728 19.0378 32.0887 19.2939 31.6193 19.6352C31.7047 20.446 31.79 21.2994 31.918 22.1956C31.8327 22.1956 31.79 22.2382 31.7047 22.2382C31.534 21.6408 31.3206 21.0861 31.1926 20.5314C30.8939 21.2568 30.5525 22.0249 30.1685 23.0063C30.2538 23.2197 30.4672 23.6464 30.6806 24.1585C30.5525 24.4145 30.3819 24.7985 30.0832 25.3106C29.2297 24.7559 28.4616 24.2865 27.6509 23.7744C26.8828 23.049 27.3522 21.7688 26.4134 21.0861C26.072 21.8542 25.7733 22.6223 25.3466 23.305C24.9625 23.9451 24.4078 24.5425 23.9384 25.0972C22.7863 24.1585 21.8048 23.2197 20.6954 22.4516C19.9699 21.9395 19.0312 21.6835 18.2204 21.2994L18.1777 21.3421C19.6712 21.0434 20.8234 21.7688 21.9328 22.6649C22.5729 23.177 23.213 23.7317 23.8531 24.2438C24.8772 23.4757 25.5599 22.0675 25.8586 20.1473C25.2612 20.062 24.6638 20.0193 23.9384 19.9339C23.8531 19.6352 23.7251 19.2939 23.6397 18.9525C23.9811 18.7391 24.2798 18.6111 24.4505 18.3978C24.7492 18.0564 25.1332 17.6723 25.2186 17.2883C25.6453 15.0694 27.0961 14.1306 29.3151 14.3013C29.5284 14.3013 29.7418 14.344 29.9978 14.344C29.9125 14.5573 29.8271 14.7707 29.7418 14.9414L29.7845 14.8987C29.4857 14.7707 29.2297 14.6853 28.931 14.5573C28.1629 14.856 27.4802 15.1547 26.7974 15.4107C26.5841 16.0508 26.0293 16.4349 26.4987 17.203C27.2668 17.1176 28.0349 17.0323 28.9737 16.9043C29.5711 17.1603 30.2965 17.843 31.278 17.331C31.406 17.1176 31.4913 16.8616 31.6193 16.6482C31.4913 16.3922 31.3633 16.1788 31.2353 15.9655C31.1073 16.1362 31.0219 16.3069 30.8086 16.5202C30.4672 16.0081 30.2538 15.6241 30.0405 15.2401ZM30.0405 21.2994C29.6991 20.8727 29.3151 20.446 28.8883 19.9339C28.675 20.2753 28.547 20.5314 28.419 20.8301C28.7603 20.9154 29.0164 21.0007 29.3577 21.0861C29.1017 21.5555 28.803 22.0249 28.5043 22.5796C28.8457 22.5369 29.1017 22.5369 29.3151 22.4516C29.4857 22.3662 29.5711 22.1956 29.6564 22.1102C29.6138 21.8968 29.5711 21.7688 29.5284 21.6408C29.6991 21.5555 29.8271 21.5555 29.9125 21.5128C29.9551 21.4701 29.9978 21.3421 30.0405 21.2994C30.0832 21.2141 30.1685 21.1714 30.0832 21.2568C30.1258 21.1288 30.0832 21.2141 30.0405 21.2994ZM25.4746 18.3551C25.816 18.3978 26.072 18.4831 26.2427 18.3978C27.3522 18.0137 28.4616 18.0137 29.6138 18.3551C30.0832 18.4831 30.6806 18.3978 31.1926 18.3551C31.3633 18.3551 31.4913 18.1844 31.662 18.0991C31.6193 18.0137 31.5767 17.8857 31.5767 17.8004C29.6138 18.1844 27.5655 17.2883 25.4746 18.3551ZM30.7659 19.1659C29.9978 19.0378 29.7418 19.5072 29.4004 19.8913C29.6138 20.062 29.7844 20.2327 30.0832 20.4887C30.3392 19.9766 30.5099 19.6352 30.7659 19.1659ZM28.2909 19.4646L28.2056 19.5499H28.3336L28.2909 19.4646ZM24.4505 18.8245L24.3651 18.9098H24.4932L24.4505 18.8245Z" fill="white"/>
<path d="M325.629 60.7709C323.538 60.8562 322.642 60.2588 322.3 58.5946C322.087 57.4425 322.94 56.1623 324.135 55.6076C324.946 55.2236 326.269 55.7356 326.952 56.8451C327.805 58.2106 327.464 59.2347 325.629 60.7709Z" fill="white"/>
<path d="M118.031 59.32C117.604 56.717 118.714 55.8636 119.781 55.4795C120.677 55.1808 122.213 56.0343 122.597 57.0157C123.024 58.2105 122.853 59.704 121.53 60.4721C120.335 61.1976 119.311 60.8989 118.031 59.32Z" fill="white"/>
<path d="M95.5411 58.9787C93.9623 61.3683 92.7675 61.4537 90.8899 59.4481C90.7619 59.0214 90.6339 58.5947 90.5059 58.1679C91.0606 56.2477 92.042 55.2663 93.2795 55.437C94.6877 55.6503 95.6265 57.0585 95.5411 58.9787Z" fill="white"/>
<path d="M32.602 41.7819C32.0046 40.8858 31.5352 40.2031 30.9805 39.3923C31.1938 38.7096 31.4072 37.9415 31.6632 37.1734C32.8154 37.7708 33.1567 38.1122 32.858 38.8376C32.4313 39.7337 32.5593 40.6298 32.602 41.7819Z" fill="white"/>
<path d="M38.7041 25.396C38.1921 25.6521 37.6373 25.9508 36.9546 26.2921C36.9546 26.2921 36.6985 26.2495 36.5279 26.2068C35.9731 26.5055 36.1438 26.9749 36.1438 27.3589L36.1865 27.3163C36.0585 26.9749 35.9305 26.6335 35.7598 26.2921C36.5279 25.6947 37.1679 25.1827 37.808 24.6706C37.5946 23.7318 37.3813 22.8357 37.1253 21.9396L37.0826 21.9823C37.1253 21.9823 37.2106 21.9823 37.2106 22.025C37.68 23.1344 38.1494 24.2866 38.7041 25.396Z" fill="white"/>
<path d="M40.2383 31.4981C41.049 32.3515 41.3477 33.461 41.7318 34.5705C41.0064 33.6744 40.281 32.7356 40.2383 31.4981Z" fill="white"/>
<path d="M7.03906 0.859738C7.16708 0.433021 7.5938 0.433021 7.76448 0.603707C8.40456 1.11577 9.17265 1.54249 9.25799 2.48126C8.87395 2.13989 8.53257 1.79852 8.14853 1.49981C7.80715 1.24378 7.38044 1.0731 7.03906 0.859738Z" fill="white"/>
<path d="M35.5034 39.4777C35.3327 39.2643 35.1193 39.0083 34.8633 38.7096C35.1193 38.4109 35.4607 37.9842 35.8021 37.5575H35.7594C35.7594 38.0695 35.8021 38.5389 35.7594 39.051C35.7594 39.179 35.5887 39.307 35.5034 39.4777Z" fill="white"/>
<path d="M48.2627 53.1753C47.836 53.1326 47.8787 52.3219 47.2812 52.5352L47.3239 52.5779C47.2386 52.0232 47.4946 51.8525 48.1774 51.9805C48.22 52.3219 48.22 52.7486 48.2627 53.1753Z" fill="white"/>
<path d="M35.7598 19.7206C36.3998 20.062 36.6559 20.6167 36.7412 21.2995L36.7839 21.2568C36.0585 20.9581 35.9305 20.318 35.7598 19.7206Z" fill="white"/>
<path d="M39.3019 27.0175C38.9606 27.3589 38.6192 27.7003 38.2778 28.0416C38.1925 27.999 38.1498 27.9563 38.0645 27.9136C38.1498 27.6576 38.2351 27.4016 38.3632 27.1029C38.7045 27.0602 39.0032 27.0602 39.3019 27.0175C39.3446 27.0602 39.3019 27.0175 39.3019 27.0175Z" fill="white"/>
<path d="M14.0391 42.9767C14.1244 42.294 14.3378 41.6966 14.9778 41.3979C14.9352 42.0379 14.7218 42.6353 14.0391 42.9767Z" fill="white"/>
<path d="M48.2598 53.1753C48.9425 53.3887 48.3451 54.0714 48.7292 54.3701C48.1317 54.1568 48.3024 53.6447 48.2598 53.1753Z" fill="white"/>
<path d="M13.7405 43.6168C13.7405 43.3608 13.6552 43.0194 14.0392 42.9768C14.0392 43.2328 14.1245 43.5315 13.7405 43.6168Z" fill="white"/>
<path d="M35.5017 19.3366C35.2883 19.3366 35.1177 19.2939 34.9043 19.2939C34.947 19.2512 34.947 19.1659 34.9896 19.1232C35.1177 19.2086 35.2883 19.2939 35.5017 19.3366Z" fill="white"/>
<path d="M33.8826 42.9768C33.6692 42.9768 33.4985 42.9341 33.2852 42.9341C33.3278 42.8914 33.3278 42.8061 33.3705 42.7634C33.5412 42.8061 33.7119 42.8914 33.8826 42.9768Z" fill="white"/>
<path d="M19.5 23.8598C19.756 23.4758 19.8414 23.4758 20.0974 23.8598L20.1401 23.8171C19.9267 23.8171 19.6707 23.8171 19.5 23.8598Z" fill="white"/>
<path d="M39.3436 26.6761C39.2583 26.5054 39.1303 26.3774 39.0449 26.2067C39.0876 26.1641 39.1729 26.1641 39.2156 26.1214C39.2583 26.3348 39.2583 26.5481 39.3436 26.6761Z" fill="white"/>
<path d="M48.476 54.8395C48.476 54.9675 48.5186 55.0955 48.5186 55.2662C48.476 55.2662 48.4333 55.2662 48.3906 55.2662C48.3906 55.1382 48.3906 55.0102 48.3906 54.8395C48.4333 54.8822 48.4333 54.8822 48.476 54.8395Z" fill="white"/>
<path d="M36.7397 21.2995C37.1664 21.3849 37.0384 21.6836 37.0384 21.9396L37.0811 21.8969C36.697 21.8543 36.7397 21.5556 36.7397 21.2995Z" fill="white"/>
<path d="M31.5773 22.7503C31.5347 22.793 31.5347 22.793 31.492 22.8357C31.4493 22.793 31.4066 22.7503 31.4493 22.7503C31.4493 22.7077 31.492 22.7077 31.5347 22.665C31.492 22.665 31.5347 22.7077 31.5773 22.7503Z" fill="white"/>
<path d="M25.5605 26.7188C25.6459 26.8042 25.7739 26.9322 25.8592 27.0175L25.9019 26.9748C25.7739 26.8895 25.6886 26.8042 25.5605 26.7188Z" fill="white"/>
<path d="M39.3435 27.0602C39.3435 26.9321 39.3435 26.8041 39.3435 26.6761L39.3008 26.7188C39.3861 26.7615 39.4715 26.8041 39.5568 26.8895C39.4715 26.9321 39.3861 26.9748 39.3435 27.0602Z" fill="white"/>
<path d="M25.8574 27.0602C25.9428 27.1882 26.0708 27.2735 26.1561 27.4015L26.1988 27.3589C26.0708 27.3589 25.9428 27.3589 25.8574 27.3589L25.9001 27.4015C25.9001 27.2309 25.9001 27.1455 25.8574 27.0602C25.9001 27.0175 25.8574 27.0602 25.8574 27.0602Z" fill="white"/>
<path d="M26.1992 27.3589C26.3272 27.4869 26.4126 27.5723 26.5406 27.7003L26.5833 27.6576C26.4126 27.5296 26.3272 27.4442 26.1992 27.3589Z" fill="white"/>
<path d="M35.459 19.3792C35.587 19.5072 35.6723 19.5926 35.8004 19.7206L35.843 19.6779C35.715 19.5499 35.587 19.4646 35.459 19.3792Z" fill="white"/>
<path d="M38.6602 25.4387C38.7452 25.4812 38.8302 25.5237 38.7452 25.4812C38.7877 25.6088 38.7452 25.5237 38.6602 25.4387Z" fill="white"/>
<path d="M20.4824 23.8598C20.5251 23.7745 20.5678 23.6891 20.6104 23.6038C20.5251 23.6891 20.4824 23.7318 20.4824 23.8598Z" fill="white"/>
<path d="M20.441 23.8171C20.3983 23.9025 20.3556 23.9878 20.2703 24.0732C20.2276 23.9878 20.185 23.9025 20.1423 23.8171L20.0996 23.8598C20.2276 23.8598 20.3556 23.8598 20.441 23.8171C20.4837 23.8598 20.441 23.8171 20.441 23.8171Z" fill="white"/>
<path d="M42.5431 35.6372C42.4578 35.5946 42.3725 35.5519 42.2871 35.5092C42.3298 35.5519 42.4151 35.5946 42.5431 35.6372Z" fill="white"/>
<path d="M29.7012 14.9414C29.8292 15.0695 29.9145 15.1548 30.0425 15.2828L30.0852 15.2401C29.9572 15.1121 29.8292 14.9841 29.7012 14.9414Z" fill="white"/>
<path d="M23.9376 59.2774C24.1083 59.2774 24.2363 59.3201 24.4497 59.3201C24.7484 60.0028 24.5777 60.6856 24.5777 61.5817C23.9376 60.7709 23.895 60.0028 23.9376 59.2774Z" fill="white"/>
<path d="M22.6582 57.3571C23.1276 57.5278 23.0849 57.8692 22.7435 58.3386C22.7435 57.9118 22.7009 57.6131 22.6582 57.3571Z" fill="white"/>
<path d="M23.9826 59.2347C23.8973 59.192 23.8119 59.1493 23.7266 59.1066C23.8119 59.1493 23.8973 59.192 23.9826 59.2347Z" fill="white"/>
<path d="M45.3613 40.7578C45.3613 40.4164 45.3613 40.0751 45.3613 39.7764C45.8307 40.1604 45.8307 40.3738 45.3613 40.7578Z" fill="white"/>
<path d="M25.5605 35.3385C25.6886 35.1252 25.8166 34.8692 25.9019 34.6558C25.7739 34.8692 25.6459 35.1252 25.5605 35.3385Z" fill="white"/>
<path d="M33.8398 33.1196C33.9679 32.9915 34.0959 32.8635 34.1812 32.7782C34.0959 32.8635 33.9679 32.9915 33.8398 33.1196Z" fill="white"/>
</g>
</svg>
