<svg width="68" height="81" viewBox="0 0 68 81" fill="none" xmlns="http://www.w3.org/2000/svg">
<path d="M10.4795 9.63526C10.3157 9.15304 10.152 8.67082 9.97 8.15221C9.76073 8.15221 9.56057 8.15221 9.3513 8.15221C9.23302 8.15221 9.10564 8.15221 8.98736 8.15221C6.36701 8.15221 3.74666 8.15221 1.1263 8.15221C0.78966 8.15221 0.443919 8.15221 0.0890795 8.15221C0.0617841 8.03393 0.0253906 7.95205 0.0253906 7.87016C0.0253906 5.32259 0.0253906 2.78413 0.0253906 0.23656C0.0253906 0.172871 0.0344888 0.11828 0.0435872 0.0636891C0.0617842 0.0454922 0.0708826 0.0363938 0.0890795 0.0272954C0.098178 0.0181969 0.116375 0.00909849 0.125473 0.00909849C0.307442 3.45723e-08 0.489411 0 0.671381 0C22.7533 0 44.8353 3.45723e-08 66.9172 0.00909849C66.9445 0.00909849 66.9718 0.0272954 67.0355 0.0545907C67.0537 0.136477 67.081 0.23656 67.081 0.336643C67.081 2.89331 67.081 5.45907 67.081 8.00664C66.9536 8.17041 66.7898 8.16131 66.6261 8.16131C66.3076 8.16131 65.9892 8.16131 65.6707 8.16131C63.0049 8.16131 60.339 8.16131 57.6732 8.16131C57.5094 8.16131 57.3365 8.16131 57.1273 8.16131C56.9635 8.65263 56.7542 9.13484 56.636 9.64436L56.6451 9.63526C52.2869 9.63526 47.9287 9.63526 43.5615 9.62616C43.4159 9.62616 43.2612 9.62616 43.1066 9.62616C43.0338 9.08025 43.4341 8.65263 43.3613 8.16131C36.9105 8.16131 30.4779 8.16131 24.018 8.16131C24.0999 8.67082 24.3637 9.09845 24.3637 9.62616C19.7144 9.62616 15.0833 9.62616 10.4613 9.63526H10.4795Z" fill="white"/>
<path d="M0.0619617 57.8933C2.26379 57.8933 4.44741 57.8933 6.63104 57.8933C8.81467 57.8933 10.9892 57.8933 13.1728 57.8933C15.3565 57.8933 17.531 57.8933 19.7146 57.8933C21.8891 57.8933 24.0637 57.8933 26.2928 57.8933C26.129 57.3929 25.9925 56.9471 25.847 56.5195C25.8652 56.4922 25.8652 56.4831 25.8743 56.474C25.8834 56.4649 25.9016 56.4467 25.9107 56.4467C30.9512 56.4376 36.0008 56.4376 41.0414 56.4285C41.1506 56.4285 41.2506 56.4285 41.3598 56.4376C41.3871 56.4376 41.4144 56.4649 41.4508 56.4922C41.3052 56.9198 41.2234 57.3565 41.2961 57.8478C41.3871 57.8569 41.4872 57.8842 41.5873 57.8842C41.7693 57.8933 41.9512 57.8842 42.1332 57.8842C50.249 57.8842 58.3739 57.8842 66.4897 57.8842C66.6535 57.8842 66.8173 57.8842 66.9993 57.8842C67.0266 58.0025 67.0721 58.0844 67.0721 58.1663C67.0721 60.7138 67.0721 63.2523 67.0721 65.7999C67.0721 65.8454 67.0538 65.8818 67.0448 65.9272C66.699 66 0.698853 66.0182 0.0801583 65.9545C0.00737068 65.6361 -0.0108259 58.5393 0.0619617 57.8933Z" fill="white"/>
<path d="M30.0135 27.45C29.9771 27.2862 29.9498 27.1224 29.9043 26.9677C29.6041 25.976 29.3039 24.9843 28.9854 23.9925C28.7034 23.0918 28.4031 22.191 28.112 21.2903C27.9391 20.7444 27.7753 20.1985 27.6115 19.6526C27.5842 19.5525 27.566 19.4524 27.5479 19.3705C27.5751 19.3341 27.5842 19.325 27.5933 19.3159C27.6024 19.3068 27.6206 19.2886 27.6297 19.2886C31.6694 19.2886 35.7183 19.2795 39.758 19.2795C39.8035 19.2795 39.8399 19.2977 39.9308 19.325C39.9035 19.4706 39.8853 19.6162 39.8399 19.7527C39.4031 21.1902 38.9573 22.6278 38.5115 24.0653C38.2021 25.0753 37.8928 26.0761 37.5834 27.086C37.5561 27.1861 37.547 27.2862 37.5289 27.4318C37.7017 27.4409 37.8473 27.45 37.9929 27.45C42.0781 27.45 46.1724 27.45 50.2576 27.45C50.4305 27.45 50.6215 27.4045 50.8126 27.5409C50.6761 27.9686 50.5487 28.3962 50.4123 28.8602C50.5396 28.9057 50.6306 28.9512 50.7307 28.9603C50.8308 28.9785 50.94 28.9603 51.0491 28.9603C56.2171 28.9603 61.3759 28.9603 66.5438 28.9603C66.7076 28.9603 66.8714 28.9603 67.0806 28.9603C67.0806 29.8883 67.0806 30.78 67.0806 31.6716C67.0806 32.5633 67.0806 33.4549 67.0806 34.3557C67.0806 35.2382 67.0806 36.1299 67.0806 37.0033C66.6712 37.0943 48.3378 37.1034 47.8101 37.0215C47.8374 36.8941 47.8647 36.7668 47.9011 36.6485C48.1922 35.7568 48.4834 34.8743 48.7745 33.9826C49.275 32.4541 49.7754 30.9165 50.2758 29.3879C50.3213 29.2514 50.3486 29.1059 50.3941 28.9057C49.7208 28.8966 49.0839 28.9057 48.4561 28.8966C47.8374 28.8966 47.2187 28.8966 46.5909 28.8966C45.954 28.8966 45.3171 28.8966 44.6802 28.8966C44.0615 28.8966 43.4428 28.8966 42.8151 28.8966C42.1782 28.8966 41.5413 28.8966 40.9044 28.8966C40.2857 28.8966 39.667 28.8966 39.0392 28.8966C38.4023 28.8966 37.7745 28.8966 37.0739 28.8966C37.2104 28.4053 37.3378 27.9504 37.4834 27.4409C34.9449 27.4409 32.461 27.4409 29.9862 27.4318L30.0135 27.45Z" fill="white"/>
<path d="M34.5631 37.0762C34.0809 37.0853 33.5987 37.0853 33.0983 37.0944C33.0801 37.613 33.353 38.0224 33.4349 38.4865C33.262 38.5774 33.0801 38.5411 32.9072 38.5411C28.7583 38.5411 24.6094 38.5411 20.4605 38.5502C20.3059 38.5502 20.1239 38.4865 19.951 38.6411C20.8245 41.2979 21.6979 43.9637 22.5896 46.6751C22.4622 46.6933 22.3621 46.7297 22.262 46.7297C21.7343 46.7297 21.1975 46.7297 20.6698 46.7297C14.037 46.7297 7.40425 46.7297 0.762381 46.7297C0.53492 46.7297 0.307459 46.7297 0.0890957 46.7297C-0.00188879 46.3748 -0.038282 39.551 0.0527025 38.6411C0.216475 38.632 0.398443 38.6229 0.571314 38.6229C6.31244 38.6229 12.0536 38.6229 17.7947 38.6229C18.3679 38.6229 18.9502 38.6229 19.5234 38.6229C19.6508 38.6229 19.8054 38.6593 19.9146 38.4865C19.8691 38.0406 19.5871 37.6312 19.5507 37.1035C24.0544 37.1035 28.5127 37.1035 33.0437 37.1035C32.2157 34.374 31.3605 31.7172 30.5325 28.9968C32.6797 28.9877 34.7633 28.9695 36.8468 28.9695C36.9014 28.9695 36.9469 29.0241 37.0106 29.0514C36.7104 30.0249 36.401 30.9893 36.1099 31.9538C35.6549 33.4459 35.2 34.9472 34.7451 36.4484C34.6814 36.6668 34.6268 36.8851 34.5631 37.0944V37.0762Z" fill="white"/>
<path d="M0.0439453 56.3195C0.0439453 53.6445 0.0439453 50.9696 0.0439453 48.2673C7.73214 48.2673 15.4021 48.2673 23.1267 48.2673C23.9911 50.915 24.8645 53.5808 25.7289 56.2376C25.738 56.274 25.7016 56.3195 25.6925 56.3468C25.6652 56.365 25.6561 56.3832 25.647 56.3922C25.6379 56.4013 25.6197 56.4104 25.6015 56.4104C17.24 56.4195 8.88764 56.4195 0.526163 56.4195C0.416982 56.4195 0.316899 56.4195 0.207718 56.4104C0.180422 56.4104 0.153127 56.3923 0.125832 56.3832C0.107635 56.3832 0.098536 56.365 0.0439453 56.3195Z" fill="white"/>
<path d="M41.5508 56.3377C42.4242 53.6354 43.2886 50.9605 44.1529 48.2673C51.7592 48.2673 59.3746 48.2673 67.0082 48.2673C67.0355 48.3674 67.081 48.4493 67.081 48.5312C67.081 51.0879 67.081 53.6536 67.081 56.2103C67.081 56.2376 67.0719 56.2649 67.0537 56.3377C66.9628 56.365 66.8445 56.4013 66.7353 56.4195C66.6352 56.4377 66.526 56.4195 66.4168 56.4195C58.4011 56.4195 50.3945 56.4195 42.3787 56.4195C42.1786 56.4195 41.9875 56.4195 41.7873 56.4104C41.7146 56.4104 41.6509 56.3741 41.5508 56.3377Z" fill="white"/>
<path d="M47.2739 38.632C47.5286 38.6229 47.7834 38.6138 48.0473 38.6138C54.2069 38.6138 60.3666 38.6138 66.5262 38.6138C66.69 38.6138 66.8538 38.6138 67.0175 38.6138C67.0994 38.9686 67.1267 45.938 67.0539 46.6568C67.0448 46.6659 67.0357 46.6841 67.0266 46.6932C67.0175 46.7023 66.9993 46.7023 66.9811 46.7023C59.6569 46.7114 52.3326 46.7114 44.9993 46.7205C44.9265 46.7205 44.8537 46.7114 44.7718 46.7114C44.6808 46.5658 44.7445 46.4384 44.79 46.3111C45.163 45.1829 45.5361 44.0546 45.8909 42.9173C46.3094 41.6163 46.7189 40.3061 47.1374 39.005C47.1738 38.8776 47.2284 38.7502 47.283 38.6229L47.2739 38.632Z" fill="white"/>
<path d="M16.7305 28.8968C17.0125 29.7702 17.2946 30.6437 17.5857 31.5171C18.0042 32.7727 18.4228 34.0283 18.8413 35.2839C19.0324 35.848 19.2143 36.4212 19.3963 36.958C19.3599 37.0126 19.3508 37.0217 19.3417 37.0308C19.3326 37.0399 19.3144 37.0581 19.3053 37.0581C12.9 37.0581 6.4947 37.0581 0.0984878 37.0581C0.0802909 37.049 0.0711923 37.0399 0.0620938 37.0217C0.0529954 37.0126 0.0347982 36.9944 0.0347982 36.9853C0.0256997 36.9125 0.0166016 36.8306 0.0166016 36.7579C0.0166016 34.2012 0.0256999 31.6445 0.0256999 29.0788C0.0256999 29.0515 0.0529951 29.0242 0.0802904 28.9605C0.225866 28.9605 0.389638 28.9605 0.55341 28.9605C5.50297 28.9605 10.4525 28.9605 15.4021 28.9605C15.7478 28.9605 16.0936 28.9696 16.4302 28.9605C16.5303 28.9605 16.6304 28.915 16.7305 28.8877C16.7487 28.9059 16.7305 28.8968 16.7305 28.8968Z" fill="white"/>
<path d="M40.4679 17.8056C39.9675 17.8056 39.4671 17.7965 38.9666 17.7965C35.1817 17.7965 31.3967 17.7965 27.6118 17.7965C27.448 17.7965 27.2842 17.7965 27.075 17.7965C27.0113 17.6418 26.9476 17.4872 26.9021 17.3416C26.4745 15.9768 26.0559 14.612 25.6283 13.2473C25.41 12.5558 25.1916 11.8734 24.9732 11.1819C24.8368 10.7543 24.7003 10.3176 24.5729 9.88994C24.5547 9.83535 24.5638 9.77167 24.5638 9.72617C24.582 9.69888 24.5911 9.68978 24.6002 9.68068C24.6093 9.67158 24.6275 9.65339 24.6366 9.65339C30.6143 9.64429 36.5919 9.64429 42.5696 9.64429C42.6697 9.64429 42.7789 9.64429 42.9336 9.64429C42.879 9.87175 42.8517 10.0537 42.7971 10.2357C42.3513 11.7187 41.8963 13.2018 41.4414 14.6757C41.123 15.7221 40.7954 16.7684 40.4679 17.8238C40.4588 17.8147 40.4679 17.8056 40.4679 17.8056Z" fill="white"/>
<path d="M13.5548 19.2612C13.9187 20.3439 14.2827 21.4267 14.6375 22.5094C15.147 24.0652 15.6565 25.6301 16.166 27.186C16.1842 27.2406 16.1933 27.3043 16.2024 27.3407C16.1842 27.3679 16.1751 27.3861 16.166 27.3952C16.1569 27.4043 16.1478 27.4225 16.1296 27.4225C16.0842 27.4316 16.0387 27.4407 15.9932 27.4407C10.6979 27.4407 5.40258 27.4407 0.116375 27.4407C0.0890798 27.4134 0.0799813 27.4043 0.0708829 27.3952C0.0617844 27.3861 0.0435872 27.368 0.0435872 27.3589C0.0344888 24.8022 0.0344891 22.2455 0.0253906 19.6889C0.0253906 19.5706 0.0344888 19.4523 0.0435872 19.3522C0.0708826 19.3249 0.0799811 19.3067 0.0890795 19.3067C0.098178 19.2976 0.116375 19.2976 0.134572 19.2976C0.207359 19.2976 0.289245 19.2885 0.362033 19.2885C4.76568 19.2885 9.16933 19.2885 13.573 19.2885L13.5548 19.2612Z" fill="white"/>
<path d="M53.5419 19.2704C58.0092 19.2704 62.4675 19.2795 66.9348 19.2886C66.9621 19.2886 66.9894 19.3159 66.9985 19.325C67.0167 19.3432 67.0258 19.3523 67.0349 19.3614C67.044 19.3705 67.0531 19.3887 67.0531 19.4069C67.0622 21.9817 67.0622 24.5475 67.0713 27.1224C67.0713 27.1951 67.0622 27.2679 67.0531 27.3771C66.953 27.4044 66.8529 27.4226 66.7528 27.4408C66.6982 27.4499 66.6345 27.4408 66.5709 27.4408C61.503 27.4408 56.4261 27.4408 51.3582 27.4408C51.2218 27.4408 51.0944 27.4408 50.9033 27.4408C51.058 26.9404 51.2036 26.4946 51.3491 26.0396C51.6858 24.9751 52.0315 23.9197 52.3682 22.8552C52.5683 22.2274 52.7685 21.5905 52.9778 20.9627C53.1688 20.3895 53.3599 19.8254 53.551 19.2522L53.5419 19.2704Z" fill="white"/>
<path d="M56.6264 9.63538C60.0838 9.63538 63.5503 9.63538 66.9349 9.63538C67.0077 9.70817 67.0259 9.71727 67.035 9.72637C67.0441 9.73547 67.0532 9.75366 67.0532 9.76276C67.0623 12.3467 67.0623 14.9398 67.0714 17.5237C67.0714 17.5783 67.0532 17.642 67.0532 17.6875C66.9167 17.8422 66.762 17.7876 66.6165 17.7876C65.4064 17.7876 64.1963 17.7876 62.9862 17.7876C60.202 17.7876 57.4179 17.7876 54.6338 17.7876C54.4609 17.7876 54.2699 17.8513 54.0879 17.6693C54.1061 17.5783 54.1152 17.4601 54.1516 17.3509C54.4973 16.2773 54.8522 15.2036 55.1979 14.13C55.6801 12.6288 56.1623 11.1184 56.6446 9.61719L56.6264 9.63538Z" fill="white"/>
<path d="M10.462 9.62622C10.4984 9.81729 10.5257 10.0175 10.5803 10.1994C10.8623 11.0547 11.1535 11.9099 11.4446 12.7652C11.8176 13.8752 12.1907 14.9852 12.5546 16.1043C12.7184 16.6229 12.864 17.1415 13.0368 17.6965C12.9368 17.7329 12.8458 17.7784 12.7548 17.7966C12.682 17.8148 12.6001 17.8057 12.5273 17.8057C8.5786 17.8057 4.62987 17.8057 0.681146 17.8057C0.490079 17.8057 0.289913 17.7966 0.153436 17.7966C0.0988457 17.7511 0.0806486 17.742 0.0715502 17.7238C0.0624517 17.7147 0.0533536 17.6965 0.0533536 17.6874C0.0442551 15.1763 0.0351562 12.6651 0.0351562 10.1539C0.0351562 10.0084 0.0351562 9.85368 0.0351562 9.68081C0.162535 9.67171 0.262617 9.65352 0.3627 9.65352C3.73823 9.65352 7.11375 9.65352 10.4893 9.65352L10.462 9.62622Z" fill="white"/>
<path d="M40.3494 72.1415C40.7043 72.3689 41.0136 72.5418 41.2957 72.7601C41.4503 72.8875 41.5959 73.0604 41.6778 73.2515C42.1327 74.2887 41.7961 75.4169 40.8498 76.0174C40.5041 76.2358 40.1129 76.2812 39.7307 76.3267C38.0566 76.5178 36.3825 76.3904 34.6993 76.4177C34.672 76.4177 34.6447 76.3995 34.6174 76.3995C34.6083 76.3904 34.5901 76.3813 34.581 76.3722C34.5719 76.3631 34.5628 76.3449 34.5628 76.3358C34.5537 73.8247 34.5537 71.3135 34.5537 68.8023C34.5537 68.7295 34.5628 68.6567 34.5719 68.5658C34.6356 68.5476 34.6902 68.5203 34.7448 68.5203C36.337 68.5203 37.9201 68.5203 39.5124 68.5294C40.0947 68.5385 40.5769 68.775 40.9954 69.1936C41.6869 69.8668 41.7142 71.3954 40.6042 71.9959C40.5314 72.0323 40.4586 72.0778 40.3494 72.1415ZM37.0194 74.6981C37.6199 74.6981 38.1749 74.7163 38.7299 74.689C39.0665 74.6708 39.2849 74.4616 39.4123 74.1249C39.5215 73.7974 39.3668 73.579 39.2394 73.3424C38.7299 73.0513 37.5198 72.9694 37.0285 73.1787C37.0194 73.67 37.0194 74.1613 37.0194 74.6981ZM37.0194 71.6046C37.4925 71.6046 37.9292 71.6228 38.366 71.5955C38.9028 71.5592 39.1939 71.1861 39.1029 70.6766C39.0756 70.5492 39.0029 70.4309 38.9483 70.3036C38.7754 70.2308 38.6116 70.1125 38.4388 70.1034C37.9747 70.0761 37.5107 70.0943 37.0194 70.0943C37.0194 70.5947 37.0194 71.0678 37.0194 71.6046Z" fill="white"/>
<path d="M18.3861 76.3633C18.0313 76.4452 16.4208 76.4725 15.4655 76.4088C15.3836 76.2815 15.2835 76.1359 15.2016 75.9812C14.8377 75.2715 14.4829 74.5527 14.1189 73.8431C14.0188 73.6429 13.9006 73.4518 13.7732 73.2335C13.6913 73.2699 13.6094 73.279 13.5639 73.3245C13.2819 73.6156 13.0089 73.925 12.7269 74.2161C12.5449 74.3981 12.4539 74.5982 12.463 74.8621C12.4812 75.2533 12.4721 75.6537 12.463 76.0449C12.463 76.145 12.4448 76.2542 12.4357 76.3451C12.1082 76.4543 10.5068 76.4725 10.061 76.3633C10.0519 76.2724 10.0246 76.1723 10.0246 76.0722C9.96093 73.2335 9.99733 68.9754 10.0792 68.5933C10.3795 68.5023 11.8807 68.4841 12.4539 68.566C12.463 69.4758 12.4539 70.3948 12.463 71.3501C12.8269 71.2227 12.927 70.8861 13.1454 70.6859C13.382 70.4766 13.5639 70.2128 13.7732 69.9762C13.9824 69.7397 14.1917 69.494 14.3919 69.2574C14.6011 69.0209 14.8013 68.7752 15.0015 68.5387C16.066 68.5387 17.1032 68.5387 18.195 68.5387C17.2488 69.5304 16.3389 70.4766 15.4018 71.4502C15.8294 72.3236 16.3844 73.1152 16.8758 73.934C17.3944 74.7438 17.8857 75.5445 18.3861 76.3633Z" fill="white"/>
<path d="M45.6538 73.0607C45.6538 73.6067 45.6538 74.0889 45.6538 74.6166C47.055 74.6712 48.438 74.6075 49.8118 74.653C49.9301 74.9896 49.9392 75.945 49.8482 76.3726C49.8391 76.3817 49.83 76.3908 49.8209 76.3999C49.8118 76.409 49.7936 76.4181 49.7754 76.4181C47.6737 76.4272 45.572 76.4272 43.4611 76.4363C43.4065 76.4363 43.3428 76.4181 43.261 76.409C43.2428 76.3271 43.1973 76.2452 43.1973 76.1542C43.1973 73.6703 43.1973 71.1865 43.1973 68.7026C43.1973 68.6571 43.2155 68.6207 43.2246 68.5752C43.5703 68.5024 49.2659 68.4842 49.7209 68.5661C49.7209 69.0756 49.7209 69.5851 49.7209 70.131C49.6117 70.1401 49.5025 70.1674 49.3842 70.1674C48.2924 70.1674 47.2006 70.1674 46.1179 70.1674C45.9723 70.1674 45.8085 70.1219 45.6629 70.2675C45.6629 70.6224 45.6629 70.9954 45.6629 71.4139C46.0815 71.4685 46.5 71.4321 46.9185 71.4412C47.328 71.4503 47.7374 71.4412 48.1468 71.4412C48.5654 71.4412 48.993 71.4412 49.4388 71.4412C49.5025 71.978 49.457 72.4875 49.4752 73.0243C49.0385 73.0971 48.6199 73.0516 48.2014 73.0607C47.792 73.0698 47.3826 73.0607 46.9731 73.0607C46.5364 73.0607 46.1179 73.0607 45.6538 73.0607Z" fill="white"/>
<path d="M0.689591 68.575C1.00804 68.5022 2.44559 68.4749 3.14617 68.5386C3.71937 70.3674 4.30167 72.2053 4.88398 74.0796C5.08414 73.8157 5.50267 72.5237 5.84841 71.2955C6.11227 70.3674 6.41252 69.4667 6.69457 68.5659C7.16769 68.484 8.74172 68.4931 9.12385 68.5841C8.15942 71.1954 7.19498 73.7975 6.23055 76.4088C5.3571 76.4088 4.52914 76.4088 3.65569 76.4088C3.61019 76.336 3.52831 76.245 3.48281 76.1449C2.90051 74.5982 2.31821 73.0424 1.74501 71.4956C1.39017 70.5494 1.03533 69.6122 0.689591 68.666C0.680492 68.6387 0.689591 68.6023 0.689591 68.575Z" fill="white"/>
<path d="M23.1266 48.1581C22.9901 47.6941 22.7626 47.2847 22.7354 46.7751C30.0141 46.7751 37.2383 46.7751 44.4988 46.7751C44.5079 46.8297 44.5625 46.9207 44.5443 46.9935C44.4261 47.3756 44.2896 47.7578 44.1531 48.1581C37.1473 48.1581 30.1597 48.1581 23.1266 48.1581Z" fill="white"/>
<path d="M25.1914 68.5935C25.519 68.5025 27.1112 68.4752 27.8118 68.548C28.3122 69.376 28.8217 70.2221 29.3585 71.1138C29.7497 70.7043 29.9408 70.2312 30.2228 69.8127C30.4958 69.3942 30.7415 68.9665 30.9962 68.5389C31.8788 68.5389 32.7431 68.5389 33.6257 68.5389C33.4528 68.821 33.3072 69.0757 33.1435 69.3214C32.3883 70.4496 31.6331 71.5778 30.8688 72.6969C30.696 72.9516 30.6232 73.1973 30.6232 73.4976C30.6323 74.3164 30.6323 75.1353 30.6232 75.9541C30.6232 76.0997 30.605 76.2453 30.5959 76.4182C29.7861 76.4182 29.0219 76.4182 28.2121 76.4182C28.203 76.309 28.1757 76.1998 28.1757 76.0815C28.1757 75.2172 28.1666 74.3528 28.1757 73.4976C28.1757 73.2428 28.1211 73.0335 27.9755 72.8243C27.3932 71.9872 26.82 71.132 26.2468 70.2767C25.9011 69.7126 25.5462 69.1485 25.1914 68.5935Z" fill="white"/>
<path d="M21.743 74.4617C22.2161 74.5618 22.6256 74.4981 23.0259 74.5072C23.4535 74.5163 23.8721 74.5072 24.2997 74.5072C24.7091 74.5072 25.1095 74.5072 25.5371 74.5072C25.5371 75.1532 25.5371 75.7536 25.5371 76.3541C25.528 76.3632 25.5189 76.3723 25.5098 76.3814C25.5007 76.3905 25.4825 76.4087 25.4734 76.4087C23.5718 76.4178 21.6611 76.4178 19.7596 76.4269C19.6504 76.4269 19.5503 76.4178 19.4411 76.4178C19.4138 76.4178 19.3865 76.3905 19.3683 76.3723C19.2773 76.0266 19.2319 70.886 19.3046 68.857C19.3046 68.7569 19.341 68.6569 19.3592 68.5386C20.1508 68.5386 20.9151 68.5386 21.7339 68.5386C21.7612 69.039 21.743 69.5303 21.743 70.0307C21.743 70.5129 21.743 70.9952 21.743 71.4865C21.743 71.9869 21.743 72.4873 21.743 72.9877C21.743 73.4608 21.743 73.9431 21.743 74.4617Z" fill="white"/>
<path d="M66.0532 68.5294C66.5809 68.5294 67.0813 68.5294 67.5726 68.5294C67.6909 68.6659 67.6181 68.7933 67.5817 68.9206C67.2906 69.7395 66.9994 70.5675 66.7083 71.3863C66.3534 72.3963 65.9895 73.3971 65.6347 74.407C65.3981 75.0712 65.1525 75.7354 64.9159 76.4087C64.3427 76.4087 63.7877 76.4087 63.1963 76.4087C63.078 76.0902 62.9597 75.7627 62.8414 75.4442C62.0863 73.3334 61.3311 71.2226 60.585 69.1026C60.5213 68.9388 60.494 68.7569 60.4395 68.5658C60.7306 68.4657 61.0036 68.5203 61.2674 68.5112C61.5222 68.5021 61.7769 68.5112 62.0772 68.5112C62.7323 70.4219 63.3964 72.3235 64.0606 74.2523C64.2244 74.1614 64.2335 73.9976 64.279 73.8702C64.834 72.2143 65.3799 70.5584 65.9258 68.8934C65.9531 68.7842 65.9986 68.675 66.0532 68.5294Z" fill="white"/>
<path d="M13.5638 19.2706C13.4819 18.9795 13.4 18.6974 13.3181 18.4063C13.2726 18.2334 13.218 18.0605 13.1816 17.915C13.218 17.8695 13.2271 17.8604 13.2362 17.8513C13.2453 17.8422 13.2635 17.824 13.2726 17.824C17.8309 17.824 22.3893 17.824 26.984 17.824C27.166 18.2607 27.3206 18.7156 27.4207 19.2615C22.7532 19.2615 18.1585 19.2615 13.5547 19.2615L13.5638 19.2706Z" fill="white"/>
<path d="M16.7486 28.9055C16.6121 28.4506 16.4848 27.9866 16.3301 27.4771C16.5666 27.468 16.7395 27.4589 16.9124 27.4589C20.0877 27.4589 23.2631 27.4589 26.4385 27.4589C27.6304 27.4589 28.8223 27.4589 30.0232 27.4498L30.0141 27.4407C30.1233 27.9138 30.369 28.3596 30.3872 28.9055C30.2325 28.9055 30.1142 28.9055 29.9959 28.9055C25.6378 28.9055 21.2796 28.9055 16.9215 28.9055C16.8578 28.9055 16.8032 28.8964 16.7395 28.8964L16.7486 28.9055Z" fill="white"/>
<path d="M53.551 19.2614C49.0745 19.2614 44.6072 19.2614 40.0762 19.2614C40.1308 18.7246 40.3673 18.2879 40.4583 17.8057L40.4492 17.8148C44.8165 17.8148 49.1928 17.8148 53.5601 17.8057C53.6602 17.8057 53.7693 17.8148 53.8876 17.8239C53.9058 18.0786 53.7966 18.2788 53.742 18.488C53.6784 18.7519 53.6056 19.0067 53.5328 19.2705C53.5419 19.2705 53.551 19.2614 53.551 19.2614Z" fill="white"/>
<path d="M34.5449 37.0853C34.7451 37.0853 34.9362 37.0944 35.1363 37.0944C39.1123 37.0944 43.0884 37.0944 47.0644 37.0944C47.2373 37.0944 47.4192 37.1126 47.5648 37.1126C47.6831 37.2945 47.6194 37.4128 47.583 37.5493C47.4738 37.9041 47.3737 38.2681 47.2646 38.632L47.2737 38.6229C47.1008 38.5956 46.9188 38.5501 46.7459 38.5501C42.7426 38.541 38.7393 38.541 34.7451 38.541C34.5813 38.541 34.4175 38.541 34.2629 38.541C34.1355 38.4227 34.181 38.3045 34.2174 38.1953C34.3266 37.8222 34.4448 37.4492 34.554 37.0762C34.5631 37.0762 34.5449 37.0853 34.5449 37.0853Z" fill="white"/>
<path d="M53.8252 69.8031C53.8252 69.3482 53.8252 68.966 53.8252 68.5748C54.18 68.502 59.5754 68.4838 60.0576 68.5566C60.0576 68.9387 60.0576 69.33 60.0576 69.7485C59.7028 69.8486 59.3298 69.7849 58.9567 69.794C58.5837 69.8031 58.2016 69.794 57.8649 69.794C57.6647 69.9577 57.7284 70.1397 57.7284 70.2944C57.7284 72.1596 57.7284 74.0157 57.7284 75.8808C57.7284 76.0446 57.7284 76.2084 57.7284 76.3995C57.2007 76.3995 56.7094 76.3995 56.1726 76.3995C56.1726 75.8354 56.1726 75.2985 56.1726 74.7526C56.1726 74.2067 56.1726 73.6608 56.1726 73.1149C56.1726 72.569 56.1726 72.0231 56.1726 71.4772C56.1635 70.9404 56.1908 70.3945 56.1544 69.8486C55.745 69.7303 55.3719 69.8031 54.9989 69.794C54.6259 69.794 54.2528 69.8031 53.8252 69.8031Z" fill="white"/>
<path d="M29.0768 79.4114C29.2042 79.5661 29.3316 79.7117 29.4408 79.8391C29.5227 80.2031 29.4499 80.4943 29.2224 80.7764C28.6764 81.0949 28.0667 80.9402 27.4844 80.9766C27.3479 80.5853 27.3661 78.556 27.5026 78.0828C27.8665 78.0828 28.2396 78.0646 28.6127 78.0919C29.2588 78.1374 29.5227 78.7198 29.1678 79.2567C29.1314 79.2931 29.1132 79.3477 29.0768 79.4114ZM29.095 79.8573C28.7401 79.5843 28.2942 79.5297 27.7573 79.6844C27.7573 79.9847 27.7027 80.2941 27.8028 80.6308C28.2487 80.5762 28.731 80.8128 29.095 80.3942C29.095 80.194 29.095 80.012 29.095 79.8573ZM28.7583 78.4377C28.4489 78.4104 28.1304 78.2739 27.7755 78.4195C27.7755 78.6834 27.7755 78.9473 27.7755 79.2203C28.003 79.3841 28.2669 79.3477 28.5126 79.3022C28.6946 79.2658 28.9039 79.2385 28.9949 79.0019C29.0404 78.8017 29.0222 78.6015 28.7583 78.4377Z" fill="white"/>
<path d="M14.6745 79.73C14.5744 80.1486 14.7291 80.5672 14.5562 80.9858C14.447 80.9403 14.3742 80.913 14.3105 80.8857C14.3105 79.9575 14.3105 79.0566 14.3105 78.1285C14.4197 78.1103 14.5016 78.0739 14.5835 78.0739C14.9475 78.0648 15.3115 78.0739 15.6755 78.0739C16.1851 78.0648 16.3762 78.3651 16.449 78.629C16.5491 79.0111 16.4035 79.3296 16.0395 79.5389C15.9758 79.5753 15.9121 79.6117 15.8393 79.6481C16.1123 80.0667 16.3762 80.4671 16.6765 80.9312C16.5127 80.9494 16.4035 80.9585 16.2943 80.9676C15.9576 80.5763 15.8393 80.0485 15.4207 79.7391C15.0112 79.639 15.0112 79.639 14.6745 79.73ZM16.0941 78.6745C15.9849 78.4652 15.812 78.356 15.6209 78.356C15.3024 78.356 14.9657 78.2559 14.6654 78.4379C14.6654 78.7382 14.6654 79.0202 14.6654 79.3478C15.1568 79.2932 15.6664 79.5025 16.0941 79.1203C16.0941 78.9565 16.0941 78.811 16.0941 78.6745Z" fill="white"/>
<path d="M30.2415 78.1103C30.3598 78.0921 30.4599 78.0739 30.5691 78.0739C30.9149 78.0739 31.2607 78.0648 31.6156 78.0739C32.0433 78.083 32.2981 78.2923 32.38 78.6472C32.4619 79.0384 32.3254 79.3387 31.9614 79.548C31.8977 79.5844 31.834 79.6208 31.7339 79.6663C32.0888 80.0394 32.3709 80.4307 32.5893 80.9312C32.4528 80.9403 32.3436 80.9494 32.2435 80.9585C31.9068 80.549 31.7612 80.0485 31.3153 79.6936C31.1151 79.6936 30.8603 79.6936 30.5873 79.6936C30.5873 80.1213 30.5873 80.5035 30.5873 80.9312C30.4599 80.9312 30.3689 80.9312 30.287 80.9312C30.1869 80.5945 30.1687 78.7018 30.2415 78.1103ZM30.56 79.3478C31.0605 79.3023 31.5519 79.4843 31.9978 79.1385C31.9978 78.9474 31.9978 78.7564 31.9978 78.5835C31.652 78.3196 31.1333 78.265 30.56 78.4197C30.56 78.7018 30.56 78.9838 30.56 79.3478Z" fill="white"/>
<path d="M36.5469 80.4308C36.5469 80.2306 36.5469 80.0668 36.5469 79.9121C36.3103 79.6937 36.0009 79.8939 35.737 79.7301C35.7734 79.6573 35.8098 79.5936 35.8462 79.5299C36.192 79.5299 36.5196 79.5299 36.8745 79.5299C36.9564 79.8666 36.9018 80.1942 36.9109 80.5127C36.4923 81.0041 35.9281 81.0405 35.373 80.9495C34.8726 80.8676 34.4995 80.4399 34.3994 79.8302C34.3448 79.5209 34.3721 79.2024 34.4813 78.893C34.7088 78.2196 35.2911 77.983 35.9372 78.0376C36.374 78.0831 36.6743 78.2742 36.8199 78.6928C36.829 78.7201 36.8199 78.7565 36.8199 78.7838C36.8199 78.802 36.8108 78.8111 36.8017 78.8566C36.7471 78.8657 36.6743 78.8748 36.6197 78.8839C36.1101 78.2196 35.7552 78.1559 35.0273 78.5745C34.727 78.9385 34.6997 79.3753 34.7452 79.8211C34.8271 80.5036 35.5277 80.8949 36.1647 80.631C36.283 80.5764 36.3922 80.5036 36.5469 80.4308Z" fill="white"/>
<path d="M39.4678 80.9038C39.4678 80.4761 39.4678 80.0666 39.4678 79.6299C38.9764 79.5662 38.5214 79.6208 38.0118 79.5935C38.0118 80.0666 38.0118 80.4943 38.0118 80.922C37.9208 80.9493 37.8844 80.9675 37.8389 80.9675C37.7843 80.9584 37.7297 80.9311 37.666 80.9038C37.666 79.9938 37.666 79.0839 37.666 78.1557C37.757 78.1284 37.848 78.1011 37.9936 78.0647C37.9936 78.4833 37.9936 78.8473 37.9936 79.2386C38.5032 79.2386 38.9582 79.2386 39.4496 79.2386C39.4496 78.8746 39.4496 78.5288 39.4496 78.1648C39.5679 78.1284 39.6589 78.1011 39.7317 78.0738C39.8318 78.1921 39.85 80.376 39.7681 80.9584C39.6771 80.9402 39.5861 80.9311 39.4678 80.9038Z" fill="white"/>
<path d="M60.4845 78.0828C60.5846 78.0828 60.6574 78.0828 60.7484 78.0828C61.2852 78.7561 61.6401 79.5569 62.2771 80.2121C62.2771 79.5114 62.2771 78.8107 62.2771 78.101C62.3772 78.0919 62.4318 78.0828 62.4864 78.0828C62.5774 78.4013 62.6047 80.3031 62.5228 80.9492C62.4409 80.9583 62.359 80.9674 62.2407 80.9765C62.0132 80.6125 61.7766 80.2394 61.54 79.8754C61.3125 79.5296 61.1124 79.1747 60.7939 78.7834C60.6847 79.2293 60.7393 79.566 60.7302 79.9118C60.7211 80.2394 60.7302 80.5761 60.7302 80.931C60.6483 80.9492 60.5755 80.9583 60.53 80.9765C60.4208 80.8582 60.3935 78.8198 60.4845 78.0828Z" fill="white"/>
<path d="M59.5391 79.3295C59.53 79.4569 59.5209 79.5206 59.5118 79.6116C59.0204 79.6116 58.5381 79.6116 58.0468 79.6116C57.9467 79.9483 58.0104 80.2576 58.0104 80.6216C58.3288 80.6307 58.62 80.6216 58.9203 80.6398C59.1842 80.658 59.4845 80.5488 59.7666 80.7945C59.6665 80.8764 59.6028 80.9674 59.5391 80.9674C58.9203 80.9765 58.3015 80.9765 57.6919 80.9765C57.6191 80.4669 57.6282 78.4741 57.701 78.1465C58.0104 78.0555 58.9385 78.0373 59.6119 78.1101C59.6119 78.1738 59.621 78.2375 59.6301 78.3558C59.0932 78.3558 58.5927 78.3558 58.0923 78.3558C57.9467 78.6561 58.0286 78.9291 58.0104 79.1657C58.0832 79.3295 58.2014 79.3295 58.3288 79.3295C58.711 79.3295 59.1023 79.3295 59.5391 79.3295Z" fill="white"/>
<path d="M52.5147 79.3204C53.006 79.3204 53.4883 79.3295 53.9797 79.3295C53.9888 79.4296 53.9979 79.4842 54.007 79.5661C53.5065 79.6662 53.006 79.5661 52.4965 79.6389C52.4965 79.9574 52.4965 80.2667 52.4965 80.5943C53.0333 80.6671 53.5611 80.5852 54.1162 80.6489C54.1435 80.7399 54.1617 80.8309 54.189 80.9219C53.7249 80.9947 52.5329 80.9856 52.1416 80.9037C52.1143 79.9847 52.1143 79.0565 52.1416 78.1465C52.5056 78.0555 53.552 78.0373 54.0889 78.1101C54.0889 78.1738 54.0889 78.2375 54.0889 78.3558C53.5611 78.3558 53.0606 78.3558 52.5693 78.3558C52.4419 78.7198 52.4328 78.8199 52.5147 79.3204Z" fill="white"/>
<path d="M2.21827 77.9829C2.45486 78.0648 2.73696 78.1649 2.99175 78.2559C3.11915 78.4561 3.26474 78.6017 3.19194 78.8474C3.14645 78.8565 3.09185 78.8747 3.01905 78.902C2.93715 78.7655 2.85525 78.6472 2.78245 78.5289C2.49126 78.2741 2.14547 78.3014 1.82698 78.3742C1.43569 78.4561 1.26279 78.7928 1.2173 79.1477C1.1536 79.5936 1.1354 80.0577 1.45389 80.4489C2.06357 80.8129 2.44576 80.8038 2.99175 80.4034C2.99175 80.2306 2.99175 80.0577 2.99175 79.8393C2.72786 79.8211 2.50036 79.812 2.23647 79.7938C2.22737 79.7119 2.22737 79.6482 2.21827 79.5481C2.58226 79.5481 2.92805 79.5481 3.28294 79.5481C3.31934 79.7938 3.34664 80.0213 3.34664 80.2578C3.34664 80.5581 3.21014 80.6946 2.98265 80.8129C2.57316 81.0222 2.14547 81.0222 1.70868 80.913C1.63588 80.8948 1.56309 80.8675 1.50849 80.8493C0.69861 80.2851 0.735008 79.2933 1.0353 78.6836C1.1991 78.3469 1.47209 78.1467 1.82698 78.0648C1.91798 78.0375 2.03627 78.0193 2.21827 77.9829Z" fill="white"/>
<path d="M45.2 78.3286C44.6358 78.4014 44.108 78.3013 43.5712 78.4014C43.5712 78.7017 43.5712 78.9656 43.5712 79.2386C43.8078 79.4115 44.0717 79.3114 44.3173 79.3296C44.5539 79.3478 44.7996 79.3296 45.0635 79.3296C45.0726 79.4388 45.0726 79.5025 45.0817 79.6026C44.5721 79.6026 44.099 79.6026 43.5985 79.6026C43.4984 79.9393 43.553 80.2486 43.5621 80.5853C44.0899 80.6763 44.6176 80.5853 45.1636 80.6399C45.1909 80.7036 45.2273 80.7673 45.2819 80.8583C45.2 80.8947 45.1181 80.9584 45.0453 80.9584C44.4538 80.9675 43.8624 80.9584 43.28 80.9584C43.1799 80.6217 43.1708 78.5106 43.2709 78.1011C43.3437 78.092 43.4347 78.0647 43.5166 78.0647C43.9716 78.0647 44.4265 78.0647 44.8815 78.0647C45.0089 78.0738 45.1363 78.0829 45.2 78.3286Z" fill="white"/>
<path d="M21.9534 77.9919C22.0444 78.0101 22.1354 78.0374 22.2264 78.0556C22.8543 78.1739 23.2456 78.5834 23.2911 79.2113C23.3093 79.4479 23.3093 79.6936 23.282 79.9302C23.2365 80.4125 22.7451 81.004 22.1627 80.9676C21.9534 80.9585 21.735 80.9676 21.5439 80.913C21.0889 80.7856 20.8614 80.4125 20.7704 79.9939C20.7067 79.6936 20.7067 79.3569 20.7704 79.0475C20.8796 78.5106 21.1981 78.1284 21.7896 78.0465C21.8442 78.0374 21.8988 78.0101 21.9534 77.9919ZM22.5358 80.5763C23.0181 80.094 23.1455 79.4388 22.8543 78.8473C22.6905 78.5197 22.4357 78.3468 22.0717 78.3377C21.6804 78.3195 21.3892 78.4651 21.2072 78.8018C20.9615 79.275 20.9979 79.7664 21.2072 80.2396C21.2982 80.4398 21.4529 80.5672 21.6713 80.64C21.9716 80.7583 22.2446 80.6946 22.5358 80.5763Z" fill="white"/>
<path d="M11.6353 78.0828C12.245 78.0828 12.8274 78.0828 13.4461 78.0828C13.4552 78.1556 13.4643 78.2193 13.4734 78.3103C12.9548 78.4195 12.4361 78.2648 11.9356 78.4104C11.9356 78.7106 11.9356 78.9836 11.9356 79.2839C12.4088 79.3749 12.882 79.2839 13.3551 79.3476C13.3551 79.4295 13.3551 79.5023 13.3551 79.6115C12.882 79.6115 12.4179 79.6115 11.9356 79.6115C11.9356 79.9573 11.9356 80.2485 11.9356 80.5761C12.4452 80.7217 13.0094 80.5124 13.5371 80.7308C13.5371 80.7945 13.5371 80.8582 13.5371 80.9492C12.8911 80.9492 12.2632 80.9492 11.6262 80.9492C11.5352 80.6307 11.5261 78.5014 11.6353 78.0828Z" fill="white"/>
<path d="M45.8271 80.094C45.9363 80.0758 46.0091 80.0667 46.1092 80.0576C46.2639 80.549 46.6188 80.7491 47.1102 80.6946C47.4378 80.6582 47.6744 80.4853 47.7108 80.1213C47.5652 79.8847 47.3741 79.7209 47.0647 79.6754C46.9009 79.6572 46.7462 79.5753 46.5915 79.5298C46.2457 79.4206 46.0182 79.2113 45.9363 78.8655C45.9636 78.5288 46.1274 78.2831 46.3822 78.1193C46.7462 77.9737 47.1011 77.9737 47.4742 78.1284C47.6835 78.3013 47.9201 78.4924 47.9019 78.8564C47.82 78.8655 47.7654 78.8746 47.7108 78.8746C47.5652 78.6926 47.4196 78.5288 47.3013 78.3832C46.5005 78.2649 46.3185 78.3741 46.3003 78.9201C46.4095 79.1658 46.6552 79.1749 46.8645 79.2477C47.0829 79.3205 47.3013 79.3569 47.5106 79.4388C47.8655 79.5753 48.0566 79.9029 48.0111 80.2578C47.9656 80.6035 47.638 80.9311 47.2831 80.9584C47.0738 80.9766 46.8554 80.9857 46.6461 80.9584C46.182 80.8947 45.9454 80.5854 45.8271 80.094Z" fill="white"/>
<path d="M67.7269 80.1758C67.6814 80.0757 67.6359 79.9756 67.5722 79.8391C67.3629 79.7663 67.1172 79.6844 66.8806 79.6117C66.5439 79.5207 66.2072 79.4297 65.9979 79.0657C65.9979 78.9019 65.9979 78.7108 65.9979 78.5288C66.3801 78.0283 66.7714 77.9009 67.3538 78.0829C67.6905 78.1921 67.8634 78.4287 67.8816 78.8382C67.827 78.8564 67.7724 78.8655 67.6996 78.8928C67.6177 78.7563 67.5449 78.638 67.463 78.5106C67.2082 78.2922 66.8988 78.3468 66.5985 78.3559C66.5348 78.4014 66.4711 78.4469 66.4165 78.5015C66.1617 78.7654 66.2254 79.0384 66.5712 79.1658C66.8533 79.2659 67.1445 79.3296 67.4357 79.4297C67.8543 79.5753 68.0454 79.8846 67.9908 80.2941C67.9362 80.6672 67.5995 80.9584 67.1991 80.9766C67.0171 80.9857 66.8351 80.9857 66.6531 80.9766C66.2163 80.9402 65.9251 80.6035 65.916 80.103C65.9706 80.0939 66.0252 80.0757 66.1071 80.0575C66.2709 80.5034 66.5803 80.7491 67.0717 80.7036C67.372 80.6672 67.6268 80.558 67.7269 80.1758Z" fill="white"/>
<path d="M6.33079 80.9309C6.0123 81.0128 5.9213 80.8672 5.84851 80.6852C5.77571 80.4941 5.71201 80.2939 5.63921 80.0846C5.23882 80.0846 4.86573 80.0846 4.46534 80.0846C4.34705 80.3758 4.23785 80.6579 4.12865 80.94C4.01945 80.94 3.94666 80.94 3.87386 80.94C3.86476 80.8854 3.83746 80.8399 3.84656 80.8035C4.04675 80.2393 4.24695 79.6751 4.45624 79.1109C4.57454 78.7833 4.69284 78.4648 4.81113 78.1464C4.85663 78.1191 4.89303 78.0918 4.92943 78.0827C5.00223 78.0736 5.07503 78.0827 5.19332 78.0827C5.63011 78.9926 5.9304 79.9663 6.33079 80.9309ZM5.10233 78.5649C5.06593 78.5649 5.02953 78.5558 5.00223 78.5558C4.82933 78.9289 4.70194 79.3111 4.59274 79.7297C4.91123 79.8298 5.19332 79.8298 5.51181 79.7297C5.35712 79.3202 5.22972 78.938 5.10233 78.5649Z" fill="white"/>
<path d="M52.7155 74.9892C52.7155 75.4715 52.7155 75.9174 52.7155 76.3997C52.2423 76.4361 51.7782 76.427 51.2959 76.3997C51.2413 75.9174 51.2686 75.4533 51.2868 75.0074C51.5962 74.8709 52.3333 74.8527 52.7155 74.9892Z" fill="white"/>
<path d="M25.6466 79.366C25.6375 79.4661 25.6284 79.5207 25.6193 79.5844C25.2098 79.6845 24.8003 79.5389 24.3635 79.6936C24.3635 80.094 24.3544 80.4944 24.3544 80.9221C24.227 80.9403 24.1451 80.9494 24.0814 80.9585C23.9813 80.8493 23.9813 78.6016 24.0632 78.092C24.6274 78.092 25.2007 78.092 25.7922 78.092C25.8013 78.1557 25.8104 78.2194 25.8377 78.3377C25.3554 78.3468 24.8913 78.3559 24.4545 78.365C24.3453 78.729 24.3453 78.8291 24.4181 79.275C24.7912 79.4024 25.2098 79.275 25.6466 79.366Z" fill="white"/>
<path d="M57.0998 78.0829C56.7358 79.0657 56.3809 80.012 56.0351 80.9493C55.8987 80.9493 55.7986 80.9493 55.6803 80.9493C55.3345 80.012 54.9887 79.0839 54.6338 78.1193C54.7521 78.1011 54.8522 78.0829 54.9796 78.0647C55.2708 78.911 55.5529 79.7391 55.8623 80.6308C56.1898 79.7482 56.4901 78.9292 56.7904 78.1011C56.8905 78.092 56.9724 78.092 57.0998 78.0829Z" fill="white"/>
<path d="M17.0029 78.101C17.1394 78.101 17.2395 78.101 17.3487 78.101C17.6126 78.5196 17.8765 78.9291 18.1586 79.3841C18.2496 79.3022 18.3315 79.2567 18.3679 79.1839C18.5317 78.9291 18.6773 78.6652 18.8411 78.4195C18.9048 78.3194 18.9776 78.2193 19.0777 78.1465C19.1414 78.101 19.2506 78.1101 19.4326 78.0737C19.0413 78.6743 18.7137 79.1839 18.3406 79.7481C18.3406 80.103 18.3406 80.5034 18.3406 80.9311C18.2223 80.9493 18.1495 80.9584 18.0585 80.9675C18.0312 80.9038 18.0039 80.8674 18.0039 80.831C17.9948 80.5853 17.9948 80.3487 18.0039 80.103C18.013 79.8664 17.9584 79.6662 17.8219 79.4751C17.5762 79.1202 17.3487 78.7471 17.1121 78.374C17.0757 78.2921 17.0484 78.2102 17.0029 78.101Z" fill="white"/>
<path d="M64.4511 80.9674C64.3146 80.9492 64.2418 80.9492 64.1326 80.931C64.078 80.5033 64.1144 80.0847 64.1053 79.6661C64.0962 79.2566 64.1053 78.8562 64.1053 78.465C63.8232 78.2193 63.4774 78.4468 63.1953 78.2739C63.2226 78.2102 63.2499 78.1465 63.2772 78.0828C63.9688 78.0828 64.6422 78.0828 65.3338 78.0828C65.3338 78.1738 65.3338 78.2375 65.3338 78.3558C65.0517 78.3558 64.7878 78.3558 64.5148 78.3558C64.4056 78.8198 64.4693 79.2384 64.4602 79.657C64.442 80.0756 64.4511 80.5033 64.4511 80.9674Z" fill="white"/>
<path d="M9.24231 78.101C9.29691 78.0919 9.35151 78.0828 9.39701 78.0737C9.5608 78.2193 9.5426 78.4013 9.5426 78.5833C9.5426 79.1293 9.5426 79.6753 9.5426 80.2122C9.5426 80.3305 9.5517 80.4488 9.5608 80.6126C9.98849 80.6126 10.398 80.6126 10.8257 80.6126C10.8621 80.7309 10.8894 80.8128 10.9076 80.8765C10.8075 80.9857 9.95209 81.0039 9.24231 80.9311C9.17861 80.5944 9.16041 78.5924 9.24231 78.101Z" fill="white"/>
<path d="M6.97609 78.0737C7.21268 78.1374 7.18538 78.283 7.18538 78.4195C7.18538 78.9837 7.18538 79.5388 7.18538 80.103C7.18538 80.2577 7.18538 80.4033 7.18538 80.5671C7.62217 80.7673 8.13176 80.4761 8.57765 80.7855C8.49575 80.8583 8.44115 80.9584 8.37745 80.9584C7.88606 80.9766 7.38558 80.9857 6.90329 80.9584C6.83049 80.6763 6.78499 78.4286 6.84869 78.2102C6.87599 78.1556 6.93059 78.1192 6.97609 78.0737Z" fill="white"/>
<path d="M49.2485 78.365C49.0301 78.3559 48.8117 78.3468 48.5751 78.3286C48.566 78.2468 48.557 78.1922 48.5479 78.1467C48.6479 78.0375 49.8764 78.0102 50.6954 78.0921C50.7045 78.1557 50.7045 78.2194 50.7136 78.3195C50.4224 78.3377 50.1585 78.3559 49.9128 78.365C49.7399 78.547 49.749 78.7472 49.749 78.9383C49.7672 79.5571 49.7763 80.1759 49.7945 80.7947C49.7945 80.822 49.7763 80.8493 49.749 80.913C49.6853 80.9312 49.6034 80.9403 49.5033 80.9676C49.4851 80.8948 49.4487 80.8402 49.4487 80.7856C49.4487 80.1304 49.4487 79.4843 49.4487 78.8291C49.4487 78.6744 49.4669 78.5015 49.2485 78.365Z" fill="white"/>
<path d="M41.6417 80.9676C41.5325 80.9585 41.4779 80.9585 41.3778 80.9494C41.3596 80.1304 41.3778 79.3205 41.3687 78.5106C41.123 78.2285 40.7772 78.4378 40.4951 78.3104C40.4951 78.2467 40.4951 78.183 40.4951 78.092C41.1867 78.092 41.8601 78.092 42.5426 78.092C42.5517 78.1648 42.5608 78.2194 42.5699 78.2831C42.3424 78.4287 42.0876 78.3013 41.8601 78.3741C41.669 78.456 41.669 78.6198 41.669 78.7927C41.669 79.3842 41.669 79.9757 41.669 80.5581C41.6599 80.6855 41.6508 80.8038 41.6417 80.9676Z" fill="white"/>
<path d="M33.3169 78.0828C33.3988 78.0919 33.4534 78.0919 33.4898 78.0919C33.5808 78.1829 33.599 80.0665 33.5353 80.931C33.4716 80.9401 33.4079 80.9583 33.3442 80.9765C33.2533 80.6489 33.2351 78.7106 33.3169 78.0828Z" fill="white"/>
<path d="M34.0535 38.6231C33.9534 38.9143 33.8806 39.1145 33.7805 39.3966C33.6804 39.1145 33.6167 38.9143 33.5439 38.7141C33.6895 38.5594 33.8351 38.6322 34.0535 38.6231Z" fill="white"/>
</svg>
