<svg width="18" height="18" viewBox="0 0 18 18" fill="none" xmlns="http://www.w3.org/2000/svg">
<path d="M0.20459 17.8921C0.444666 17.1719 0.670825 16.4969 0.896984 15.8219C1.12314 15.1539 1.32495 14.4754 1.58242 13.8178C1.71464 13.4838 1.67288 13.2333 1.50587 12.9201C0.594279 11.2291 0.322888 9.4164 0.639511 7.53058C0.907422 5.93355 1.5859 4.52093 2.6819 3.32055C4.48769 1.34775 6.74232 0.401361 9.40752 0.512701C11.3594 0.592726 13.0852 1.306 14.557 2.59684C15.9279 3.79722 16.8221 5.28987 17.2361 7.06435C17.5701 8.49437 17.5318 9.91743 17.1213 11.3266C16.5994 13.1115 15.6008 14.5833 14.1151 15.7036C12.0518 17.2624 9.73806 17.746 7.21552 17.2554C6.45701 17.1093 5.73331 16.8379 5.05135 16.4691C4.94001 16.4099 4.84607 16.396 4.72429 16.4378C3.42996 16.8553 2.13216 17.2693 0.837835 17.6834C0.64299 17.746 0.444666 17.8121 0.20459 17.8921ZM2.40703 15.7106C2.47662 15.6932 2.50793 15.6862 2.53925 15.6758C3.34994 15.4183 4.16063 15.1574 4.9748 14.9068C5.05135 14.8825 5.15573 14.9034 5.2288 14.9382C5.58021 15.1121 5.91771 15.3209 6.27957 15.474C7.76874 16.1037 9.30314 16.2046 10.8549 15.7732C12.706 15.2548 14.1255 14.1518 15.0963 12.4852C15.9279 11.0587 16.2132 9.5173 15.9557 7.89592C15.6286 5.83265 14.5709 4.21127 12.8208 3.0596C11.3038 2.0645 9.63368 1.727 7.85224 2.00883C6.31784 2.25238 5.00612 2.95174 3.92403 4.07209C2.99504 5.0324 2.37224 6.16667 2.10085 7.47143C1.71464 9.33985 1.99994 11.1074 3.0368 12.7183C3.24556 13.0419 3.2386 13.2889 3.11334 13.6195C2.85935 14.2979 2.64711 14.9903 2.40703 15.7106Z" fill="white"/>
<path d="M13.374 11.4174C13.3636 12.089 13.047 12.6004 12.4068 12.9205C11.777 13.2337 11.1368 13.3137 10.4792 13.0562C9.88771 12.8231 9.28926 12.597 8.71864 12.3151C7.9671 11.9428 7.35125 11.3861 6.78759 10.7703C6.16479 10.0883 5.63592 9.32982 5.201 8.51913C4.89134 7.94504 4.70345 7.33615 4.76956 6.66811C4.83915 5.95832 5.16969 5.39118 5.72639 4.96322C5.83773 4.87971 6.00474 4.84144 6.14739 4.82752C6.3318 4.81361 6.5162 4.84144 6.70061 4.85536C6.8537 4.86928 6.93721 4.97714 6.9894 5.10239C7.12509 5.43641 7.24687 5.77043 7.37561 6.10793C7.46259 6.33409 7.5287 6.57069 7.63308 6.78989C7.76182 7.06128 7.68179 7.28744 7.51478 7.4962C7.37213 7.67365 7.22251 7.84414 7.05898 7.99723C6.92329 8.12596 6.89893 8.25818 6.9894 8.41475C7.38952 9.12802 7.87663 9.76822 8.52032 10.2867C8.9448 10.6276 9.41451 10.8816 9.90163 11.1182C10.0443 11.1878 10.1835 11.1774 10.2948 11.0486C10.5349 10.7738 10.7784 10.5024 11.015 10.224C11.1681 10.0466 11.2447 10.0118 11.4499 10.1162C12.0449 10.4154 12.6329 10.7251 13.2244 11.0347C13.3636 11.1113 13.3984 11.2365 13.374 11.4174Z" fill="white"/>
</svg>