<svg width="24" height="17" viewBox="0 0 24 17" fill="none" xmlns="http://www.w3.org/2000/svg">
<path d="M11.6994 16.5035C9.10316 16.4217 6.63424 16.358 4.16532 16.2625C3.63334 16.2398 3.09227 16.158 2.57394 16.0352C1.60092 15.8079 0.927989 15.2213 0.582431 14.2619C0.305075 13.489 0.205045 12.6933 0.132296 11.884C-0.0268428 9.98339 -0.0268428 8.08282 0.0504531 6.18225C0.0959213 5.1092 0.123202 4.02706 0.409652 2.98584C0.582431 2.36293 0.791584 1.75365 1.29628 1.30352C1.82826 0.826102 2.45117 0.539653 3.16048 0.507825C5.10651 0.412342 7.048 0.294125 8.99404 0.275938C11.613 0.248657 14.2365 0.285032 16.8555 0.335047C17.9876 0.357781 19.1289 0.416889 20.252 0.562387C21.2795 0.698792 22.048 1.27169 22.4572 2.27199C22.7709 3.0404 22.8891 3.84519 22.9573 4.66361C23.1346 6.71423 23.1392 8.76484 23.0392 10.8155C22.9891 11.8567 22.9391 12.9024 22.6436 13.9164C22.3071 15.0804 21.5933 15.8488 20.402 16.1125C19.9382 16.2125 19.4563 16.2489 18.9834 16.2671C16.5099 16.3535 14.041 16.4308 11.6994 16.5035ZM9.18501 11.3338C11.2584 10.2607 13.309 9.19679 15.4005 8.1101C13.3135 7.01886 11.2629 5.95036 9.18501 4.86367C9.18501 7.03251 9.18501 9.16496 9.18501 11.3338Z" fill="white"/>
</svg>
